<svg xmlns="http://www.w3.org/2000/svg" width="1440" height="807" viewBox="0 0 1440 807"><rect width="1440" height="807" fill="#fff"/><g transform="translate(0 -1)"><text transform="translate(424.41 150)" fill="rgba(0,0,0,0.87)" font-size="48" font-family="Roboto-Medium, Roboto" font-weight="500"><tspan x="0" y="0">Two Line Header Example</tspan></text><text transform="translate(483.883 213)" fill="rgba(0,0,0,0.87)" font-size="48" font-family="Roboto-Medium, Roboto" font-weight="500"><tspan x="0" y="0" xml:space="preserve"> For Telling Features</tspan></text><g transform="translate(362.795 337.795)"><circle cx="63.5" cy="63.5" r="63.5" transform="translate(0.205 0.205)" fill="#f2f7fb"/><g transform="translate(39.512 39.512)"><path d="M22.088,32.675,34.5,40.168,31.208,26.046l10.968-9.5L27.733,15.319,22.088,2,16.444,15.319,2,16.544l10.968,9.5L9.674,40.168Z" transform="translate(2.018 2.018)" fill="#1ce3dc"/><path d="M0,0H48.212V48.212H0Z" fill="none"/></g></g><text transform="translate(363.574 523)" fill="rgba(0,0,0,0.87)" font-size="34" font-family="Roboto-Medium, Roboto" font-weight="500"><tspan x="0" y="0">Heading</tspan></text><text transform="translate(957.574 523)" fill="rgba(0,0,0,0.87)" font-size="34" font-family="Roboto-Medium, Roboto" font-weight="500"><tspan x="0" y="0">Heading</tspan></text><text transform="translate(246.813 591)" fill="rgba(33,33,33,0.87)" font-size="20" font-family="Roboto-Regular, Roboto"><tspan x="0" y="0">Lorem ipsum dolor sit amet, consectetur </tspan></text><text transform="translate(255.289 617)" fill="rgba(33,33,33,0.87)" font-size="20" font-family="Roboto-Regular, Roboto"><tspan x="0" y="0">adipiscing elit, sed do eiusmod tempor </tspan></text><text transform="translate(266.383 643)" fill="rgba(33,33,33,0.87)" font-size="20" font-family="Roboto-Regular, Roboto"><tspan x="0" y="0">incididunt ut labore et dolore magna</tspan></text><text transform="translate(840.813 592)" fill="rgba(33,33,33,0.87)" font-size="20" font-family="Roboto-Regular, Roboto"><tspan x="0" y="0">Lorem ipsum dolor sit amet, consectetur </tspan></text><text transform="translate(849.289 618)" fill="rgba(33,33,33,0.87)" font-size="20" font-family="Roboto-Regular, Roboto"><tspan x="0" y="0">adipiscing elit, sed do eiusmod tempor </tspan></text><text transform="translate(860.383 644)" fill="rgba(33,33,33,0.87)" font-size="20" font-family="Roboto-Regular, Roboto"><tspan x="0" y="0">incididunt ut labore et dolore magna</tspan></text><g transform="translate(277 -19)"><g transform="translate(680 357)"><circle cx="63.5" cy="63.5" r="63.5" fill="#f2f7fb"/></g><g transform="translate(729.104 406.104)"><path d="M0,0H29.254V29.254H0Z" fill="none"/><path d="M14.189,25.367l-1.767-1.609C6.144,18.066,2,14.312,2,9.7A6.639,6.639,0,0,1,8.7,3a7.3,7.3,0,0,1,5.485,2.548A7.3,7.3,0,0,1,19.674,3a6.639,6.639,0,0,1,6.7,6.7c0,4.607-4.144,8.362-10.422,14.066Z" transform="translate(0.438 0.657)" fill="#1ce3dc"/></g><g transform="translate(729.104 406.104)"><path d="M0,0H29.254V29.254H0Z" fill="none"/><path d="M14.189,25.367l-1.767-1.609C6.144,18.066,2,14.312,2,9.7A6.639,6.639,0,0,1,8.7,3a7.3,7.3,0,0,1,5.485,2.548A7.3,7.3,0,0,1,19.674,3a6.639,6.639,0,0,1,6.7,6.7c0,4.607-4.144,8.362-10.422,14.066Z" transform="translate(0.438 0.657)" fill="#1ce3dc"/></g></g><g transform="translate(364 682)"><text transform="translate(0 21)" fill="#2e4cff" font-size="20" font-family="Roboto-Medium, Roboto" font-weight="500"><tspan x="0" y="0">Click Here</tspan></text><g transform="translate(100.505 2.505)"><path d="M0,0H24.936V24.936H0Z" fill="none"/><path d="M16.478,11.117H4V13.2H16.478v3.117l4.146-4.156L16.478,8Z" transform="translate(0.156 0.312)" fill="#2e4cff"/></g></g><g transform="translate(958 677)"><text transform="translate(0 21)" fill="#2e4cff" font-size="20" font-family="Roboto-Medium, Roboto" font-weight="500"><tspan x="0" y="0">Click Here</tspan></text><g transform="translate(100.505 2.505)"><path d="M0,0H24.936V24.936H0Z" fill="none"/><path d="M16.478,11.117H4V13.2H16.478v3.117l4.146-4.156L16.478,8Z" transform="translate(0.156 0.312)" fill="#2e4cff"/></g></g></g></svg>