<svg xmlns="http://www.w3.org/2000/svg" width="1440" height="1077" viewBox="0 0 1440 1077"><rect width="1440" height="1077" fill="#fff"/><g transform="translate(750 109)"><rect width="492.809" height="370.809" fill="#f2f7fb"/><g transform="translate(217.042 156)"><path d="M0,0H59.023V59.023H0Z" fill="none"/><path d="M47.267,42.349V7.919A4.933,4.933,0,0,0,42.349,3H7.919A4.933,4.933,0,0,0,3,7.919v34.43a4.933,4.933,0,0,0,4.919,4.919h34.43a4.933,4.933,0,0,0,4.918-4.919ZM16.526,28.823l6.148,7.4,8.608-11.091L42.349,39.889H7.919Z" transform="translate(4.378 4.378)" fill="#dfe2f2"/><ellipse cx="3" cy="3.5" rx="3" ry="3.5" transform="translate(16.958 19)" fill="#fff"/></g></g><g transform="translate(197 606)"><rect width="492.809" height="370.809" fill="#f2f7fb"/><g transform="translate(217.042 156)"><path d="M0,0H59.023V59.023H0Z" fill="none"/><path d="M47.267,42.349V7.919A4.933,4.933,0,0,0,42.349,3H7.919A4.933,4.933,0,0,0,3,7.919v34.43a4.933,4.933,0,0,0,4.919,4.919h34.43a4.933,4.933,0,0,0,4.918-4.919ZM16.526,28.823l6.148,7.4,8.608-11.091L42.349,39.889H7.919Z" transform="translate(4.378 4.378)" fill="#dfe2f2"/><ellipse cx="3" cy="3.5" rx="3" ry="3.5" transform="translate(16.958 19)" fill="#fff"/></g></g><g transform="translate(26 -12)"><g transform="translate(0 20)"><text transform="translate(171 173)" fill="rgba(0,0,0,0.87)" font-size="48" font-family="Roboto-Medium, Roboto" font-weight="500"><tspan x="0" y="0">Two Line Feature </tspan><tspan x="0" y="63">title is here</tspan></text><text transform="translate(171 306)" fill="rgba(33,33,33,0.87)" font-size="20" font-family="Roboto-Regular, Roboto"><tspan x="0" y="0">zLorem ipsum dolor sit amet, </tspan><tspan x="0" y="26">consectetur adipiscing elit, sed do </tspan><tspan x="0" y="52">eiusmod tempor incididunt ut labore et </tspan><tspan x="0" y="78">dolore magna aliqua. Lorem ipsum </tspan></text></g><g transform="translate(171 443)"><text transform="translate(0 21)" fill="#2e4cff" font-size="20" font-family="Roboto-Medium, Roboto" font-weight="500"><tspan x="0" y="0">Read More</tspan></text><g transform="translate(100.505 2.505)"><path d="M0,0H24.936V24.936H0Z" fill="none"/><path d="M16.478,11.117H4V13.2H16.478v3.117l4.146-4.156L16.478,8Z" transform="translate(0.156 0.312)" fill="#2e4cff"/></g></g></g><g transform="translate(688 484)"><g transform="translate(0 20)"><text transform="translate(171 173)" fill="rgba(0,0,0,0.87)" font-size="48" font-family="Roboto-Medium, Roboto" font-weight="500"><tspan x="0" y="0">Two Line Feature </tspan><tspan x="0" y="63">title is here</tspan></text><text transform="translate(171 306)" fill="rgba(33,33,33,0.87)" font-size="20" font-family="Roboto-Regular, Roboto"><tspan x="0" y="0">zLorem ipsum dolor sit amet, </tspan><tspan x="0" y="26">consectetur adipiscing elit, sed do </tspan><tspan x="0" y="52">eiusmod tempor incididunt ut labore et </tspan><tspan x="0" y="78">dolore magna aliqua. Lorem ipsum </tspan></text></g><g transform="translate(171 443)"><text transform="translate(0 21)" fill="#2e4cff" font-size="20" font-family="Roboto-Medium, Roboto" font-weight="500"><tspan x="0" y="0">Read More</tspan></text><g transform="translate(100.505 2.505)"><path d="M0,0H24.936V24.936H0Z" fill="none"/><path d="M16.478,11.117H4V13.2H16.478v3.117l4.146-4.156L16.478,8Z" transform="translate(0.156 0.312)" fill="#2e4cff"/></g></g></g></svg>