<svg xmlns="http://www.w3.org/2000/svg" xmlns:xlink="http://www.w3.org/1999/xlink" width="1440" height="1077" viewBox="0 0 1440 1077"><defs><filter id="a" x="664" y="236.002" width="112" height="112" filterUnits="userSpaceOnUse"><feOffset dy="6" input="SourceAlpha"/><feGaussianBlur stdDeviation="5" result="b"/><feFlood flood-color="#ddd" flood-opacity="0.161"/><feComposite operator="in" in2="b"/><feComposite in="SourceGraphic"/></filter><linearGradient id="c" x1="0.676" y1="0.896" x2="0.165" y2="0.311" gradientUnits="objectBoundingBox"><stop offset="0" stop-color="#80f5bc"/><stop offset="1" stop-color="#1ce3dc"/></linearGradient><filter id="d" x="703.42" y="267.492" width="42" height="46" filterUnits="userSpaceOnUse"><feOffset dy="3" input="SourceAlpha"/><feGaussianBlur stdDeviation="3" result="e"/><feFlood flood-opacity="0.161"/><feComposite operator="in" in2="e"/><feComposite in="SourceGraphic"/></filter></defs><rect width="1440" height="1077" fill="#fff"/><g transform="translate(436 126)"><rect width="566" height="319" fill="#f2f7fb"/><g transform="translate(243 118.992)"><g transform="matrix(1, 0, 0, 1, -679, -244.99)" filter="url(#a)"><circle cx="41" cy="41" r="41" transform="translate(679 245)" fill="#fff"/></g><g transform="matrix(1, 0, 0, 1, -679, -244.99)" filter="url(#d)"><path d="M14,0,28,24H0Z" transform="translate(736.42 273.49) rotate(90)" opacity="0.737" fill="url(#c)"/></g></g></g><g transform="translate(-15 387)"><g transform="translate(134.773 140)"><circle cx="32" cy="32" r="32" transform="translate(0.227)" fill="#f2f7fb"/><g transform="translate(19.462 19.462)"><path d="M12.69,18.323,19.3,22.31,17.543,14.8,23.38,9.744l-7.686-.652L12.69,2l-3,7.087L2,9.739,7.837,14.8,6.083,22.31Z" transform="translate(0.138 0.138)" fill="#1ce3dc"/><path d="M0,0H25.655V25.655H0Z" fill="none"/></g></g><g transform="translate(134.773 139)"><circle cx="32" cy="32" r="32" transform="translate(0.227)" fill="#f2f7fb"/><g transform="translate(19.462 19.462)"><path d="M12.69,18.323,19.3,22.31,17.543,14.8,23.38,9.744l-7.686-.652L12.69,2l-3,7.087L2,9.739,7.837,14.8,6.083,22.31Z" transform="translate(0.138 0.138)" fill="#1ce3dc"/><path d="M0,0H25.655V25.655H0Z" fill="none"/></g></g><g transform="translate(135.773 253.86)"><circle cx="32" cy="32" r="32" transform="translate(0.227 0.14)" fill="#f2f7fb"/><g transform="translate(20.863 20.863)"><path d="M0,0H22.6V22.6H0Z" fill="none"/><path d="M11.419,20.283,10.053,19.04C5.2,14.641,2,11.74,2,8.18A5.13,5.13,0,0,1,7.18,3a5.64,5.64,0,0,1,4.238,1.968A5.64,5.64,0,0,1,15.657,3a5.13,5.13,0,0,1,5.18,5.18c0,3.56-3.2,6.461-8.053,10.869Z" transform="translate(-0.116 -0.174)" fill="#1ce3dc"/></g><g transform="translate(20.863 20.863)"><path d="M0,0H22.6V22.6H0Z" fill="none"/><path d="M11.419,20.283,10.053,19.04C5.2,14.641,2,11.74,2,8.18A5.13,5.13,0,0,1,7.18,3a5.64,5.64,0,0,1,4.238,1.968A5.64,5.64,0,0,1,15.657,3a5.13,5.13,0,0,1,5.18,5.18c0,3.56-3.2,6.461-8.053,10.869Z" transform="translate(-0.116 -0.174)" fill="#1ce3dc"/></g></g><g transform="translate(135 368.811)"><ellipse cx="32.5" cy="32" rx="32.5" ry="32" transform="translate(0 0.189)" fill="#f2f7fb"/><g transform="translate(19.317 18.545)"><path d="M10.93,21.976v-6.7H15.4v6.7h5.581v-8.93h3.349L13.162,3,2,13.046H5.349v8.93Z" transform="translate(0.232 0.349)" fill="#1ce3dc"/><path d="M0,0H26.789V26.789H0Z" fill="none"/></g></g><text transform="translate(219 277)" fill="rgba(0,0,0,0.87)" font-size="24" font-family="Roboto-Medium, Roboto" font-weight="500"><tspan x="0" y="0">Feature Title</tspan></text><text transform="translate(219 314)" fill="rgba(33,33,33,0.87)" font-size="20" font-family="Roboto-Regular, Roboto"><tspan x="0" y="0">Describe Feature in a Sentence</tspan></text><g transform="translate(-807 -42)"><text transform="translate(1024 204)" fill="rgba(0,0,0,0.87)" font-size="24" font-family="Roboto-Medium, Roboto" font-weight="500"><tspan x="0" y="0">Feature Title</tspan></text><text transform="translate(1024 241)" fill="rgba(33,33,33,0.87)" font-size="20" font-family="Roboto-Regular, Roboto"><tspan x="0" y="0">Describe Feature in a Sentence</tspan></text></g><g transform="translate(-807 -42)"><text transform="translate(1027 434)" fill="rgba(0,0,0,0.87)" font-size="24" font-family="Roboto-Medium, Roboto" font-weight="500"><tspan x="0" y="0">Feature Title</tspan></text><text transform="translate(1026 471)" fill="rgba(33,33,33,0.87)" font-size="20" font-family="Roboto-Regular, Roboto"><tspan x="0" y="0">Describe Feature in a Sentence</tspan></text></g></g><g transform="translate(595 387)"><g transform="translate(134.773 140)"><circle cx="32" cy="32" r="32" transform="translate(0.227)" fill="#f2f7fb"/><g transform="translate(19.462 19.462)"><path d="M12.69,18.323,19.3,22.31,17.543,14.8,23.38,9.744l-7.686-.652L12.69,2l-3,7.087L2,9.739,7.837,14.8,6.083,22.31Z" transform="translate(0.138 0.138)" fill="#1ce3dc"/><path d="M0,0H25.655V25.655H0Z" fill="none"/></g></g><g transform="translate(134.773 139)"><circle cx="32" cy="32" r="32" transform="translate(0.227)" fill="#f2f7fb"/><g transform="translate(19.462 19.462)"><path d="M12.69,18.323,19.3,22.31,17.543,14.8,23.38,9.744l-7.686-.652L12.69,2l-3,7.087L2,9.739,7.837,14.8,6.083,22.31Z" transform="translate(0.138 0.138)" fill="#1ce3dc"/><path d="M0,0H25.655V25.655H0Z" fill="none"/></g></g><g transform="translate(135.773 253.86)"><circle cx="32" cy="32" r="32" transform="translate(0.227 0.14)" fill="#f2f7fb"/><g transform="translate(20.863 20.863)"><path d="M0,0H22.6V22.6H0Z" fill="none"/><path d="M11.419,20.283,10.053,19.04C5.2,14.641,2,11.74,2,8.18A5.13,5.13,0,0,1,7.18,3a5.64,5.64,0,0,1,4.238,1.968A5.64,5.64,0,0,1,15.657,3a5.13,5.13,0,0,1,5.18,5.18c0,3.56-3.2,6.461-8.053,10.869Z" transform="translate(-0.116 -0.174)" fill="#1ce3dc"/></g><g transform="translate(20.863 20.863)"><path d="M0,0H22.6V22.6H0Z" fill="none"/><path d="M11.419,20.283,10.053,19.04C5.2,14.641,2,11.74,2,8.18A5.13,5.13,0,0,1,7.18,3a5.64,5.64,0,0,1,4.238,1.968A5.64,5.64,0,0,1,15.657,3a5.13,5.13,0,0,1,5.18,5.18c0,3.56-3.2,6.461-8.053,10.869Z" transform="translate(-0.116 -0.174)" fill="#1ce3dc"/></g></g><g transform="translate(135 368.811)"><ellipse cx="32.5" cy="32" rx="32.5" ry="32" transform="translate(0 0.189)" fill="#f2f7fb"/><g transform="translate(19.317 18.545)"><path d="M10.93,21.976v-6.7H15.4v6.7h5.581v-8.93h3.349L13.162,3,2,13.046H5.349v8.93Z" transform="translate(0.232 0.349)" fill="#1ce3dc"/><path d="M0,0H26.789V26.789H0Z" fill="none"/></g></g><text transform="translate(219 277)" fill="rgba(0,0,0,0.87)" font-size="24" font-family="Roboto-Medium, Roboto" font-weight="500"><tspan x="0" y="0">Feature Title</tspan></text><text transform="translate(219 314)" fill="rgba(33,33,33,0.87)" font-size="20" font-family="Roboto-Regular, Roboto"><tspan x="0" y="0">Describe Feature in a Sentence</tspan></text><g transform="translate(-807 -42)"><text transform="translate(1024 204)" fill="rgba(0,0,0,0.87)" font-size="24" font-family="Roboto-Medium, Roboto" font-weight="500"><tspan x="0" y="0">Feature Title</tspan></text><text transform="translate(1024 241)" fill="rgba(33,33,33,0.87)" font-size="20" font-family="Roboto-Regular, Roboto"><tspan x="0" y="0">Describe Feature in a Sentence</tspan></text></g><g transform="translate(-807 -42)"><text transform="translate(1027 434)" fill="rgba(0,0,0,0.87)" font-size="24" font-family="Roboto-Medium, Roboto" font-weight="500"><tspan x="0" y="0">Feature Title</tspan></text><text transform="translate(1026 471)" fill="rgba(33,33,33,0.87)" font-size="20" font-family="Roboto-Regular, Roboto"><tspan x="0" y="0">Describe Feature in a Sentence</tspan></text></g></g></svg>