<svg xmlns="http://www.w3.org/2000/svg" xmlns:xlink="http://www.w3.org/1999/xlink" width="1440" height="893" viewBox="0 0 1440 893"><defs><filter id="a" x="973" y="261.997" width="112" height="112" filterUnits="userSpaceOnUse"><feOffset dy="6" input="SourceAlpha"/><feGaussianBlur stdDeviation="5" result="b"/><feFlood flood-color="#ddd" flood-opacity="0.161"/><feComposite operator="in" in2="b"/><feComposite in="SourceGraphic"/></filter><linearGradient id="c" x1="0.676" y1="0.896" x2="0.165" y2="0.311" gradientUnits="objectBoundingBox"><stop offset="0" stop-color="#80f5bc"/><stop offset="1" stop-color="#1ce3dc"/></linearGradient><filter id="d" x="1012.87" y="293.707" width="42" height="46" filterUnits="userSpaceOnUse"><feOffset dy="3" input="SourceAlpha"/><feGaussianBlur stdDeviation="3" result="e"/><feFlood flood-opacity="0.161"/><feComposite operator="in" in2="e"/><feComposite in="SourceGraphic"/></filter></defs><rect width="1440" height="893" fill="#fff"/><g transform="translate(0 -69)"><text transform="translate(143 770)" fill="rgba(0,0,0,0.87)" font-size="34" font-family="Roboto-Medium, Roboto" font-weight="500"><tspan x="0" y="0">Heading</tspan></text><text transform="translate(547 770)" fill="rgba(0,0,0,0.87)" font-size="34" font-family="Roboto-Medium, Roboto" font-weight="500"><tspan x="0" y="0">Heading</tspan></text><text transform="translate(951 768)" fill="rgba(0,0,0,0.87)" font-size="34" font-family="Roboto-Medium, Roboto" font-weight="500"><tspan x="0" y="0">Heading</tspan></text><text transform="translate(143 817)" fill="rgba(33,33,33,0.87)" font-size="20" font-family="Roboto-Regular, Roboto"><tspan x="0" y="0">Lorem ipsum dolor sit amet, </tspan><tspan x="0" y="26">consectetur adipiscing elit, sed do</tspan></text><text transform="translate(547 818)" fill="rgba(33,33,33,0.87)" font-size="20" font-family="Roboto-Regular, Roboto"><tspan x="0" y="0">Lorem ipsum dolor sit amet, </tspan><tspan x="0" y="26">consectetur adipiscing elit, sed do</tspan></text><text transform="translate(948 818)" fill="rgba(33,33,33,0.87)" font-size="20" font-family="Roboto-Regular, Roboto"><tspan x="0" y="0">Lorem ipsum dolor sit amet, </tspan><tspan x="0" y="26">consectetur adipiscing elit, sed do</tspan></text><text transform="translate(138 219)" fill="rgba(0,0,0,0.87)" font-size="48" font-family="Roboto-Medium, Roboto" font-weight="500"><tspan x="0" y="0">We have Creat </tspan><tspan x="0" y="63">Product that will help </tspan><tspan x="0" y="126">you create website</tspan></text><g transform="translate(750 169)"><rect width="557" height="423" fill="#f2f7fb"/><g transform="translate(238 171.207)"><g transform="matrix(1, 0, 0, 1, -988, -271.21)" filter="url(#a)"><circle cx="41" cy="41" r="41" transform="translate(988 271)" fill="#fff"/></g><g transform="matrix(1, 0, 0, 1, -988, -271.21)" filter="url(#d)"><path d="M14,0,28,24H0Z" transform="translate(1045.87 299.71) rotate(90)" opacity="0.737" fill="url(#c)"/></g></g></g><text transform="translate(133 411)" fill="rgba(33,33,33,0.87)" font-size="20" font-family="Roboto-Regular, Roboto"><tspan x="0" y="0">Lorem ipsum dolor sit amet, consectetur adipiscing </tspan><tspan x="0" y="26">elit, sed do eiusmod tempor incididunt ut labore et </tspan><tspan x="0" y="52">dolore magna aliqua. Ut enim ad minim veniam, quis </tspan><tspan x="0" y="78">nostrud exercitation ullamco laboris nisi ut aliquip ex </tspan><tspan x="0" y="104">ea commodo consequat.</tspan></text><line y1="3" x2="1172" transform="translate(135.5 664.5)" fill="none" stroke="#eaeaea" stroke-width="1"/></g></svg>