<svg xmlns="http://www.w3.org/2000/svg" width="1440" height="805" viewBox="0 0 1440 805"><rect width="1440" height="805" fill="#fff"/><g transform="translate(0 -3)"><g transform="translate(134.773 338)"><circle cx="32" cy="32" r="32" transform="translate(0.227)" fill="#f2f7fb"/><g transform="translate(19.462 19.462)"><path d="M12.69,18.323,19.3,22.31,17.543,14.8,23.38,9.744l-7.686-.652L12.69,2l-3,7.087L2,9.739,7.837,14.8,6.083,22.31Z" transform="translate(0.138 0.138)" fill="#1ce3dc"/><path d="M0,0H25.655V25.655H0Z" fill="none"/></g></g><g transform="translate(134.773 337)"><circle cx="32" cy="32" r="32" transform="translate(0.227)" fill="#f2f7fb"/><g transform="translate(19.462 19.462)"><path d="M12.69,18.323,19.3,22.31,17.543,14.8,23.38,9.744l-7.686-.652L12.69,2l-3,7.087L2,9.739,7.837,14.8,6.083,22.31Z" transform="translate(0.138 0.138)" fill="#1ce3dc"/><path d="M0,0H25.655V25.655H0Z" fill="none"/></g></g><g transform="translate(135.773 451.86)"><circle cx="32" cy="32" r="32" transform="translate(0.227 0.14)" fill="#f2f7fb"/><g transform="translate(20.863 20.863)"><path d="M0,0H22.6V22.6H0Z" fill="none"/><path d="M11.419,20.283,10.053,19.04C5.2,14.641,2,11.74,2,8.18A5.13,5.13,0,0,1,7.18,3a5.64,5.64,0,0,1,4.238,1.968A5.64,5.64,0,0,1,15.657,3a5.13,5.13,0,0,1,5.18,5.18c0,3.56-3.2,6.461-8.053,10.869Z" transform="translate(-0.116 -0.174)" fill="#1ce3dc"/></g><g transform="translate(20.863 20.863)"><path d="M0,0H22.6V22.6H0Z" fill="none"/><path d="M11.419,20.283,10.053,19.04C5.2,14.641,2,11.74,2,8.18A5.13,5.13,0,0,1,7.18,3a5.64,5.64,0,0,1,4.238,1.968A5.64,5.64,0,0,1,15.657,3a5.13,5.13,0,0,1,5.18,5.18c0,3.56-3.2,6.461-8.053,10.869Z" transform="translate(-0.116 -0.174)" fill="#1ce3dc"/></g></g><g transform="translate(135 566.811)"><ellipse cx="32.5" cy="32" rx="32.5" ry="32" transform="translate(0 0.189)" fill="#f2f7fb"/><g transform="translate(19.317 18.545)"><path d="M10.93,21.976v-6.7H15.4v6.7h5.581v-8.93h3.349L13.162,3,2,13.046H5.349v8.93Z" transform="translate(0.232 0.349)" fill="#1ce3dc"/><path d="M0,0H26.789V26.789H0Z" fill="none"/></g></g><g transform="translate(705.191 103)"><rect width="599.809" height="604.809" fill="#f2f7fb"/><g transform="translate(270.579 273.08)"><path d="M0,0H59.023V59.023H0Z" fill="none"/><path d="M47.267,42.349V7.919A4.933,4.933,0,0,0,42.349,3H7.919A4.933,4.933,0,0,0,3,7.919v34.43a4.933,4.933,0,0,0,4.919,4.919h34.43a4.933,4.933,0,0,0,4.918-4.919ZM16.526,28.823l6.148,7.4,8.608-11.091L42.349,39.889H7.919Z" transform="translate(4.378 4.378)" fill="#dfe2f2"/><ellipse cx="3" cy="3.5" rx="3" ry="3.5" transform="translate(16.458 19.456)" fill="#fff"/></g></g><text transform="translate(135 153)" fill="rgba(0,0,0,0.87)" font-size="48" font-family="Roboto-Medium, Roboto" font-weight="500"><tspan x="0" y="0">Three Line Header </tspan><tspan x="0" y="63">Example For Telling </tspan><tspan x="0" y="126">Features</tspan></text><text transform="translate(219 360)" fill="rgba(0,0,0,0.87)" font-size="24" font-family="Roboto-Medium, Roboto" font-weight="500"><tspan x="0" y="0">Feature Title</tspan></text><text transform="translate(219 397)" fill="rgba(33,33,33,0.87)" font-size="20" font-family="Roboto-Regular, Roboto"><tspan x="0" y="0">Describe Feature in a Sentence</tspan></text><text transform="translate(219 475)" fill="rgba(0,0,0,0.87)" font-size="24" font-family="Roboto-Medium, Roboto" font-weight="500"><tspan x="0" y="0">Feature Title</tspan></text><text transform="translate(219 512)" fill="rgba(33,33,33,0.87)" font-size="20" font-family="Roboto-Regular, Roboto"><tspan x="0" y="0">Describe Feature in a Sentence</tspan></text><text transform="translate(220 590)" fill="rgba(0,0,0,0.87)" font-size="24" font-family="Roboto-Medium, Roboto" font-weight="500"><tspan x="0" y="0">Feature Title</tspan></text><text transform="translate(219 627)" fill="rgba(33,33,33,0.87)" font-size="20" font-family="Roboto-Regular, Roboto"><tspan x="0" y="0">Describe Feature in a Sentence</tspan></text></g></svg>