<svg xmlns="http://www.w3.org/2000/svg" width="1440" height="681" viewBox="0 0 1440 681"><rect width="1440" height="681" fill="#fff"/><g transform="translate(0 -1)"><text transform="translate(441.41 151)" fill="rgba(0,0,0,0.87)" font-size="48" font-family="Roboto-Medium, Roboto" font-weight="500"><tspan x="0" y="0">Two Line Header Example</tspan></text><text transform="translate(500.883 214)" fill="rgba(0,0,0,0.87)" font-size="48" font-family="Roboto-Medium, Roboto" font-weight="500"><tspan x="0" y="0" xml:space="preserve"> For Telling Features</tspan></text><g transform="translate(282 307)"><circle cx="41.5" cy="41.5" r="41.5" fill="#f2f7fb"/><g transform="translate(25.781 25.781)"><path d="M15.107,22.015l8.1,4.889-2.15-9.215,7.157-6.2-9.424-.8L15.107,2l-3.683,8.69L2,11.49l7.157,6.2L7.007,26.9Z" transform="translate(0.621 0.621)" fill="#1ce3dc"/><path d="M0,0H31.458V31.458H0Z" fill="none"/></g></g><text transform="translate(260.574 448)" fill="rgba(0,0,0,0.87)" font-size="34" font-family="Roboto-Medium, Roboto" font-weight="500"><tspan x="0" y="0">Heading</tspan></text><text transform="translate(657.574 448)" fill="rgba(0,0,0,0.87)" font-size="34" font-family="Roboto-Medium, Roboto" font-weight="500"><tspan x="0" y="0">Heading</tspan></text><text transform="translate(1059.574 448)" fill="rgba(0,0,0,0.87)" font-size="34" font-family="Roboto-Medium, Roboto" font-weight="500"><tspan x="0" y="0">Heading</tspan></text><text transform="translate(193.159 516)" fill="rgba(33,33,33,0.87)" font-size="20" font-family="Roboto-Regular, Roboto"><tspan x="0" y="0">Lorem ipsum dolor sit amet, </tspan></text><text transform="translate(166.421 542)" fill="rgba(33,33,33,0.87)" font-size="20" font-family="Roboto-Regular, Roboto"><tspan x="0" y="0">consectetur adipiscing elit, sed do </tspan></text><text transform="translate(156.821 568)" fill="rgba(33,33,33,0.87)" font-size="20" font-family="Roboto-Regular, Roboto"><tspan x="0" y="0">eiusmod tempor incididunt ut labore</tspan></text><text transform="translate(597.159 517)" fill="rgba(33,33,33,0.87)" font-size="20" font-family="Roboto-Regular, Roboto"><tspan x="0" y="0">Lorem ipsum dolor sit amet, </tspan></text><text transform="translate(570.421 543)" fill="rgba(33,33,33,0.87)" font-size="20" font-family="Roboto-Regular, Roboto"><tspan x="0" y="0">consectetur adipiscing elit, sed do </tspan></text><text transform="translate(560.821 569)" fill="rgba(33,33,33,0.87)" font-size="20" font-family="Roboto-Regular, Roboto"><tspan x="0" y="0">eiusmod tempor incididunt ut labore</tspan></text><text transform="translate(998.159 517)" fill="rgba(33,33,33,0.87)" font-size="20" font-family="Roboto-Regular, Roboto"><tspan x="0" y="0">Lorem ipsum dolor sit amet, </tspan></text><text transform="translate(971.421 543)" fill="rgba(33,33,33,0.87)" font-size="20" font-family="Roboto-Regular, Roboto"><tspan x="0" y="0">consectetur adipiscing elit, sed do </tspan></text><text transform="translate(961.821 569)" fill="rgba(33,33,33,0.87)" font-size="20" font-family="Roboto-Regular, Roboto"><tspan x="0" y="0">eiusmod tempor incididunt ut labore</tspan></text><g transform="translate(0 -50)"><g transform="translate(680.2 357)"><circle cx="41.5" cy="41.5" r="41.5" transform="translate(-0.2)" fill="#f2f7fb"/></g><g transform="translate(707 384)"><path d="M0,0H29.254V29.254H0Z" fill="none"/><path d="M14.189,25.367l-1.767-1.609C6.144,18.066,2,14.312,2,9.7A6.639,6.639,0,0,1,8.7,3a7.3,7.3,0,0,1,5.485,2.548A7.3,7.3,0,0,1,19.674,3a6.639,6.639,0,0,1,6.7,6.7c0,4.607-4.144,8.362-10.422,14.066Z" transform="translate(0.438 0.657)" fill="#1ce3dc"/></g><g transform="translate(707 384)"><path d="M0,0H29.254V29.254H0Z" fill="none"/><path d="M14.189,25.367l-1.767-1.609C6.144,18.066,2,14.312,2,9.7A6.639,6.639,0,0,1,8.7,3a7.3,7.3,0,0,1,5.485,2.548A7.3,7.3,0,0,1,19.674,3a6.639,6.639,0,0,1,6.7,6.7c0,4.607-4.144,8.362-10.422,14.066Z" transform="translate(0.438 0.657)" fill="#1ce3dc"/></g></g><g transform="translate(0 -50)"><g transform="translate(1080.4 357)"><ellipse cx="42" cy="41.5" rx="42" ry="41.5" transform="translate(-0.4)" fill="#f2f7fb"/></g><g transform="translate(1105 381)"><path d="M13.557,27.558V18.89h5.778v8.667h7.223V16h4.334L16.446,3,2,16H6.334V27.558Z" transform="translate(0.889 1.334)" fill="#1ce3dc"/><path d="M0,0H34.67V34.67H0Z" fill="none"/></g></g></g></svg>