<svg xmlns="http://www.w3.org/2000/svg" xmlns:xlink="http://www.w3.org/1999/xlink" width="1440" height="770" viewBox="0 0 1440 770"><defs><filter id="a" x="107" y="268" width="427" height="454" filterUnits="userSpaceOnUse"><feOffset dy="7" input="SourceAlpha"/><feGaussianBlur stdDeviation="15" result="b"/><feFlood flood-color="#aaa" flood-opacity="0.161"/><feComposite operator="in" in2="b"/><feComposite in="SourceGraphic"/></filter><filter id="c" x="507" y="268" width="427" height="454" filterUnits="userSpaceOnUse"><feOffset dy="7" input="SourceAlpha"/><feGaussianBlur stdDeviation="15" result="d"/><feFlood flood-color="#aaa" flood-opacity="0.161"/><feComposite operator="in" in2="d"/><feComposite in="SourceGraphic"/></filter><filter id="e" x="907" y="268" width="427" height="454" filterUnits="userSpaceOnUse"><feOffset dy="7" input="SourceAlpha"/><feGaussianBlur stdDeviation="15" result="f"/><feFlood flood-color="#aaa" flood-opacity="0.161"/><feComposite operator="in" in2="f"/><feComposite in="SourceGraphic"/></filter></defs><rect width="1440" height="770" fill="#fff"/><g transform="translate(0 3)"><text transform="translate(441.41 147)" fill="rgba(0,0,0,0.87)" font-size="48" font-family="Roboto-Medium, Roboto" font-weight="500"><tspan x="0" y="0">Two Line Header Example</tspan></text><text transform="translate(500.883 210)" fill="rgba(0,0,0,0.87)" font-size="48" font-family="Roboto-Medium, Roboto" font-weight="500"><tspan x="0" y="0" xml:space="preserve"> For Telling Features</tspan></text><g transform="matrix(1, 0, 0, 1, 0, -3)" filter="url(#a)"><rect width="337" height="364" transform="translate(152 306)" fill="#fff"/></g><g transform="matrix(1, 0, 0, 1, 0, -3)" filter="url(#c)"><rect width="337" height="364" transform="translate(552 306)" fill="#fff"/></g><g transform="matrix(1, 0, 0, 1, 0, -3)" filter="url(#e)"><rect width="337" height="364" transform="translate(952 306)" fill="#fff"/></g><text transform="translate(263.574 490)" fill="rgba(0,0,0,0.87)" font-size="34" font-family="Roboto-Medium, Roboto" font-weight="500"><tspan x="0" y="0">Heading</tspan></text><text transform="translate(664.574 490)" fill="rgba(0,0,0,0.87)" font-size="34" font-family="Roboto-Medium, Roboto" font-weight="500"><tspan x="0" y="0">Heading</tspan></text><text transform="translate(1067.574 497)" fill="rgba(0,0,0,0.87)" font-size="34" font-family="Roboto-Medium, Roboto" font-weight="500"><tspan x="0" y="0">Heading</tspan></text><text transform="translate(196.659 556)" fill="rgba(33,33,33,0.87)" font-size="20" font-family="Roboto-Regular, Roboto"><tspan x="0" y="0">Lorem ipsum dolor sit amet, </tspan></text><text transform="translate(202.309 582)" fill="rgba(33,33,33,0.87)" font-size="20" font-family="Roboto-Regular, Roboto"><tspan x="0" y="0">consectetur adipiscing elit,</tspan></text><text transform="translate(597.659 556)" fill="rgba(33,33,33,0.87)" font-size="20" font-family="Roboto-Regular, Roboto"><tspan x="0" y="0">Lorem ipsum dolor sit amet, </tspan></text><text transform="translate(603.309 582)" fill="rgba(33,33,33,0.87)" font-size="20" font-family="Roboto-Regular, Roboto"><tspan x="0" y="0">consectetur adipiscing elit,</tspan></text><text transform="translate(1000.659 563)" fill="rgba(33,33,33,0.87)" font-size="20" font-family="Roboto-Regular, Roboto"><tspan x="0" y="0">Lorem ipsum dolor sit amet, </tspan></text><text transform="translate(1006.309 589)" fill="rgba(33,33,33,0.87)" font-size="20" font-family="Roboto-Regular, Roboto"><tspan x="0" y="0">consectetur adipiscing elit,</tspan></text><g transform="translate(-61.657 -704.657)"><rect width="58" height="58" rx="14" transform="translate(353.657 1064.657)" fill="#1ce3dc"/><g transform="translate(372.346 1083.346)"><path d="M10.588,15.114l5.307,3.2L14.487,12.28l4.689-4.062L13,7.694,10.588,2,8.175,7.694,2,8.218,6.689,12.28,5.281,18.317Z" transform="translate(-0.282 -0.282)" fill="#fff"/><path d="M0,0H20.611V20.611H0Z" fill="none"/></g></g><g transform="translate(339.343 -704.657)"><rect width="58" height="58" rx="14" transform="translate(353.657 1064.657)" fill="#1ce3dc"/><g transform="translate(372.346 1083.346)"><path d="M10.588,15.114l5.307,3.2L14.487,12.28l4.689-4.062L13,7.694,10.588,2,8.175,7.694,2,8.218,6.689,12.28,5.281,18.317Z" transform="translate(-0.282 -0.282)" fill="#fff"/><path d="M0,0H20.611V20.611H0Z" fill="none"/></g></g><g transform="translate(742.343 -697.657)"><rect width="58" height="58" rx="14" transform="translate(353.657 1064.657)" fill="#1ce3dc"/><g transform="translate(372.346 1083.346)"><path d="M10.588,15.114l5.307,3.2L14.487,12.28l4.689-4.062L13,7.694,10.588,2,8.175,7.694,2,8.218,6.689,12.28,5.281,18.317Z" transform="translate(-0.282 -0.282)" fill="#fff"/><path d="M0,0H20.611V20.611H0Z" fill="none"/></g></g><g transform="translate(-61.657 -704.657)"><rect width="58" height="58" rx="14" transform="translate(353.657 1064.657)" fill="#1ce3dc"/><g transform="translate(372.346 1083.346)"><path d="M10.588,15.114l5.307,3.2L14.487,12.28l4.689-4.062L13,7.694,10.588,2,8.175,7.694,2,8.218,6.689,12.28,5.281,18.317Z" transform="translate(-0.282 -0.282)" fill="#fff"/><path d="M0,0H20.611V20.611H0Z" fill="none"/></g></g><g transform="translate(0 -869)"><g transform="translate(339.343 164.343)"><rect width="58" height="58" rx="14" transform="translate(353.657 1064.657)" fill="#1ce3dc"/></g><g transform="translate(711 1247)"><path d="M0,0H21.4V21.4H0Z" fill="none"/><path d="M9.6,16.952l-1.1-1C4.585,12.4,2,10.056,2,7.182A4.141,4.141,0,0,1,6.182,3,4.553,4.553,0,0,1,9.6,4.589,4.553,4.553,0,0,1,13.025,3a4.141,4.141,0,0,1,4.182,4.182c0,2.874-2.585,5.216-6.5,8.774Z" transform="translate(2.409 2.084)" fill="#fff"/></g></g><g transform="translate(0 -869)"><g transform="translate(742.343 171.343)"><rect width="58" height="58" rx="14" transform="translate(353.657 1064.657)" fill="#1ce3dc"/></g><g transform="translate(1113 1253)"><path d="M9.815,19.606V13.745h3.907v5.861h4.884V11.792h2.931L11.769,3,2,11.792H4.931v7.815Z" transform="translate(-0.046 -0.069)" fill="#fff"/><path d="M0,0H23.444V23.444H0Z" fill="none"/></g></g></g></svg>