<svg xmlns="http://www.w3.org/2000/svg" width="24" height="24" viewBox="0 0 24 24">
  <g id="Group_142233" data-name="Group 142233" transform="translate(-2738 -452)">
    <g id="Group_142225" data-name="Group 142225" transform="translate(129 -92)">
      <g id="Background" transform="translate(2609 544)" fill="#f4f4f4" stroke="#f4f4f4" stroke-width="1">
        <rect width="24" height="24" rx="4" stroke="none"/>
        <rect x="0.5" y="0.5" width="23" height="23" rx="3.5" fill="none"/>
      </g>
      <rect id="Frame" width="12" height="12" transform="translate(2615 550)" fill="#f4f4f4" opacity="0"/>
    </g>
    <g id="Group_142226" data-name="Group 142226" transform="translate(2219 3072) rotate(-90)">
      <g id="Placement_Area" data-name="Placement Area" transform="translate(2599 522)" fill="red" stroke="rgba(0,0,0,0)" stroke-width="1" opacity="0">
        <rect width="18" height="18" stroke="none"/>
        <rect x="0.5" y="0.5" width="17" height="17" fill="none"/>
      </g>
      <path id="Path_61142" data-name="Path 61142" d="M3.155,5.241A.5.5,0,0,1,4,5.6V7H7v3H4v1.389a.5.5,0,0,1-.853.361L0,8.5Z" transform="translate(2605 522.108)" fill="#d3d3d3"/>
      <g id="Path_61144" data-name="Path 61144" transform="translate(2601 523)" fill="#d3d3d3">
        <path d="M 1.5 15.5 L 0.5 15.5 L 0.5 0.5 L 1.5 0.5 L 1.5 15.5 Z" stroke="none"/>
        <path d="M 1 1 L 1 15 L 1 1 M 0.5 0 L 1.5 0 C 1.776139974594116 0 2 0.2238597869873047 2 0.5 L 2 15.5 C 2 15.7761402130127 1.776139974594116 16 1.5 16 L 0.5 16 C 0.2238600254058838 16 0 15.7761402130127 0 15.5 L 0 0.5 C 0 0.2238597869873047 0.2238600254058838 0 0.5 0 Z" stroke="none" fill="#d3d3d3"/>
      </g>
    </g>
  </g>
</svg>
