<svg xmlns="http://www.w3.org/2000/svg" width="24" height="24" viewBox="0 0 24 24">
  <g id="Group_142235" data-name="Group 142235" transform="translate(-2642 -452)">
    <g id="Group_142229" data-name="Group 142229" transform="translate(33 -92)">
      <g id="Background" transform="translate(2609 544)" fill="#f4f4f4" stroke="#f4f4f4" stroke-width="1">
        <rect width="24" height="24" rx="4" stroke="none"/>
        <rect x="0.5" y="0.5" width="23" height="23" rx="3.5" fill="none"/>
      </g>
      <rect id="Frame" width="12" height="12" transform="translate(2615 550)" fill="#f4f4f4" opacity="0"/>
    </g>
    <g id="Group_142230" data-name="Group 142230" transform="translate(3185 -2144) rotate(90)">
      <g id="Placement_Area" data-name="Placement Area" transform="translate(2599 522)" fill="red" stroke="rgba(0,0,0,0)" stroke-width="1" opacity="0">
        <rect width="18" height="18" stroke="none"/>
        <rect x="0.5" y="0.5" width="17" height="17" fill="none"/>
      </g>
      <path id="Path_61142" data-name="Path 61142" d="M3.155,5.241A.5.5,0,0,1,4,5.6V7H7v3H4v1.389a.5.5,0,0,1-.853.361L0,8.5Z" transform="translate(2605 522.108)" fill="#d3d3d3"/>
      <g id="Rectangle_147862" data-name="Rectangle 147862" transform="translate(2601 523)" fill="#d3d3d3" stroke="#d3d3d3" stroke-width="1">
        <rect width="2" height="16" rx="0.5" stroke="none"/>
        <rect x="0.5" y="0.5" width="1" height="15" fill="none"/>
      </g>
    </g>
  </g>
</svg>
