<svg xmlns="http://www.w3.org/2000/svg" width="24" height="24" viewBox="0 0 24 24">
  <g id="Group_142246" data-name="Group 142246" transform="translate(-2632 -586)">
    <g id="Group_142241" data-name="Group 142241" transform="translate(23 42)">
      <g id="Background" transform="translate(2609 544)" fill="#fafafa" stroke="#e1e1e1" stroke-width="1">
        <rect width="24" height="24" rx="4" stroke="none"/>
        <rect x="0.5" y="0.5" width="23" height="23" rx="3.5" fill="none"/>
      </g>
      <rect id="Frame" width="12" height="12" transform="translate(2615 550)" fill="#f0f" opacity="0"/>
    </g>
    <g id="Group_142242" data-name="Group 142242" transform="translate(3175 -2010) rotate(90)">
      <g id="Placement_Area" data-name="Placement Area" transform="translate(2599 522)" fill="red" stroke="rgba(0,0,0,0)" stroke-width="1" opacity="0">
        <rect width="18" height="18" stroke="none"/>
        <rect x="0.5" y="0.5" width="17" height="17" fill="none"/>
      </g>
      <path id="Path_61142" data-name="Path 61142" d="M3.155,5.241A.5.5,0,0,1,4,5.6V7H7v3H4v1.389a.5.5,0,0,1-.853.361L0,8.5Z" transform="translate(2605 522.108)" fill="#6e6e6e"/>
      <g id="Rectangle_147862" data-name="Rectangle 147862" transform="translate(2601 523)" fill="#6e6e6e" stroke="#6e6e6e" stroke-width="1">
        <rect width="2" height="16" rx="0.5" stroke="none"/>
        <rect x="0.5" y="0.5" width="1" height="15" fill="none"/>
      </g>
    </g>
  </g>
</svg>
