<?xml version="1.0" encoding="utf-8"?>
<!-- Generator: Adobe Illustrator 22.1.0, SVG Export Plug-In . SVG Version: 6.00 Build 0)  -->
<svg version="1.1" id="Layer_1" xmlns="http://www.w3.org/2000/svg" xmlns:xlink="http://www.w3.org/1999/xlink" x="0px" y="0px"
	 viewBox="0 0 300 148" style="enable-background:new 0 0 300 148;" xml:space="preserve">
<style type="text/css">
	.st0{fill:#FFFFFF;}
	.st1{fill:#C44D95;}
</style>
<g>
	<path class="st0" d="M51.5,39.4c-3.4-1.5-7.4-2.3-11.9-2.3c-4.2,0-8.1,0.7-11.4,2c-3.4,1.4-6.3,3.2-8.6,5.4
		c-2.4,2.3-4.2,4.9-5.4,7.8c-1.3,2.9-1.9,6-1.9,9.1c0,3.6,0.8,6.5,2.3,8.7c1.5,2.2,3.5,3.9,5.8,5.3c2.3,1.4,4.8,2.5,7.5,3.3
		c2.7,0.9,5.2,1.8,7.5,2.8c2.3,1,4.2,2.2,5.8,3.7c1.5,1.5,2.3,3.5,2.3,6c0,1.9-0.4,3.6-1.1,5.3c-0.7,1.7-1.8,3.1-3.1,4.3
		c-1.4,1.2-3,2.2-5,3c-2,0.7-4.1,1.1-6.6,1.1c-2.8,0-5.1-0.3-6.9-1c-1.8-0.7-3.3-1.5-4.5-2.3c-1.2-0.9-2.2-1.6-3-2.3
		c-0.8-0.7-1.6-1-2.4-1c-0.8,0-1.5,0.2-2.1,0.5c-0.5,0.3-1,0.8-1.4,1.5l-3.3,5c2.3,2.7,5.3,4.9,9,6.6c3.7,1.7,7.9,2.6,12.7,2.6
		c4.4,0,8.5-0.7,12-2.1c3.6-1.4,6.6-3.3,9.2-5.7c2.5-2.4,4.5-5.2,5.9-8.3c1.4-3.2,2-6.5,2-9.9c0-3.6-0.8-6.4-2.3-8.7
		c-1.5-2.2-3.5-4-5.8-5.5c-2.3-1.4-4.8-2.6-7.5-3.6c-2.7-0.9-5.2-1.9-7.5-2.9c-2.3-1-4.2-2.2-5.8-3.6c-1.5-1.4-2.3-3.2-2.3-5.6
		c0-1.6,0.4-3.2,1.1-4.6c0.7-1.5,1.7-2.7,3.1-3.8c1.3-1.1,2.9-1.9,4.7-2.6c1.8-0.6,3.9-0.9,6.1-0.9c2.4,0,4.4,0.3,6.1,0.9
		c1.7,0.6,3.1,1.2,4.3,1.9c1.2,0.7,2.1,1.3,3,1.8c0.8,0.5,1.6,0.8,2.3,0.8c0.6,0,1.1-0.1,1.5-0.4c0.4-0.3,0.8-0.7,1.2-1.3l3.3-4.7
		C57.9,42.9,55,40.9,51.5,39.4z"/>
	<path class="st1" d="M142.5,12.9c-0.4-1-1-1.8-1.7-2.6c-0.7-0.7-1.6-1.3-2.5-1.7c-0.9-0.4-1.9-0.6-2.9-0.6c-1,0-1.9,0.2-2.8,0.7
		c-0.9,0.4-1.7,1-2.5,1.8c-0.7,0.7-1.3,1.6-1.7,2.5c-0.4,1-0.6,2-0.6,3.1c0,1.1,0.2,2.1,0.6,3.1c0.4,0.9,1,1.8,1.7,2.5
		c0.7,0.7,1.5,1.3,2.4,1.7c0.9,0.4,1.9,0.6,2.8,0.6c1,0,2-0.2,2.9-0.6c0.9-0.4,1.7-1,2.5-1.7c0.7-0.7,1.3-1.6,1.8-2.5
		c0.4-0.9,0.7-2,0.7-3.1C143.2,15,142.9,13.9,142.5,12.9z"/>
	<path class="st0" d="M140.7,39.7l-1.2,9.6l-7.7,64h-13l7.7-64H108v0H91.6l-4.5,36.9c-0.3,2-0.4,3.7-0.6,4.9c-0.1,1.2-0.2,2.2-0.3,3
		c-0.1,0.7-0.1,1.3-0.1,1.6c0,0.3,0,0.5,0,0.7c0,2.5,0.6,4.4,1.7,5.6c1.2,1.2,2.7,1.8,4.8,1.8c1.3,0,2.4-0.2,3.4-0.6
		c1-0.4,1.8-0.8,2.6-1.2c0.7-0.4,1.3-0.9,1.8-1.2c0.5-0.4,0.9-0.6,1.3-0.6c0.4,0,0.7,0.1,0.9,0.3c0.2,0.2,0.5,0.5,0.7,1l2.7,6.3
		c-2.4,2.1-5.1,3.8-8.2,5c-3.1,1.2-6.2,1.8-9.3,1.8c-4.8,0-8.6-1.3-11.3-3.9c-2.8-2.6-4.2-6.4-4.3-11.4c0-0.3,0-0.7,0-1.1
		c0-0.5,0.1-1.1,0.1-2c0.1-0.9,0.2-2,0.3-3.5c0.1-1.4,0.4-3.3,0.7-5.6l4.7-37.6h-8.4c-0.6,0-1.2-0.2-1.6-0.6
		c-0.4-0.4-0.6-0.9-0.6-1.7c0-0.1,0-0.4,0.1-0.9c0-0.4,0.1-0.9,0.2-1.5c0.1-0.6,0.1-1.1,0.2-1.7c0.1-0.6,0.1-1.2,0.2-1.7l11.6-1.6
		L86,16.4c0.2-0.7,0.6-1.3,1.1-1.8c0.5-0.5,1.2-0.7,2-0.7h7l-3.3,25.9H140.7z"/>
	<path class="st0" d="M215.9,44.1c-3.6-4.6-8.5-7-14.9-7c-2.8,0-5.5,0.5-8.1,1.5c-2.7,1-5.2,2.5-7.7,4.3c-2.4,1.9-4.8,4.1-7,6.8
		c-2.2,2.6-4.3,5.6-6.1,8.9l1.3-16c0-3-1.5-4.4-4.4-4.4h-6.6L150,138.7h12.8l4-32.8c2.1,2.7,4.6,4.8,7.7,6.3
		c3.1,1.5,6.4,2.2,10.1,2.2c3.5,0,6.8-0.7,9.9-2c3.2-1.3,6.1-3.2,8.8-5.5c2.7-2.3,5.1-5.1,7.3-8.3c2.2-3.2,4.1-6.6,5.6-10.3
		c1.6-3.7,2.7-7.5,3.6-11.6c0.8-4,1.3-8.1,1.3-12.1C221.2,55.5,219.4,48.7,215.9,44.1z M207.4,74.7c-0.5,3-1.3,6-2.3,8.8
		c-1,2.8-2.3,5.5-3.7,8c-1.5,2.5-3.2,4.7-5,6.5c-1.9,1.9-4,3.3-6.2,4.4c-2.3,1.1-4.7,1.6-7.3,1.6c-2.7,0-5.4-0.6-8-1.7
		c-2.6-1.1-4.9-3-6.8-5.7l2.4-19.1c1.4-4.3,3.1-8.3,5.1-11.9c1.9-3.7,4.1-6.8,6.3-9.5c2.3-2.7,4.6-4.7,7.1-6.2
		c2.4-1.5,4.9-2.2,7.2-2.2c3.9,0,6.8,1.5,9,4.6c2.1,3.1,3.2,7.5,3.2,13.4C208.2,68.7,207.9,71.7,207.4,74.7z"/>
	<path class="st0" d="M293,55.1c-1.4-3.9-3.3-7.1-5.8-9.8c-2.5-2.7-5.4-4.7-8.8-6.1c-3.4-1.4-7.2-2.1-11.3-2.1
		c-5.4,0-10.5,1.2-15.1,3.6c-4.7,2.4-8.7,5.7-12.1,9.9c-3.4,4.2-6.1,9.1-8.1,14.7c-2,5.6-3,11.5-3,17.9c0,4.9,0.7,9.3,2.1,13.2
		c1.4,3.9,3.3,7.1,5.8,9.8c2.5,2.7,5.4,4.7,8.8,6.1c3.4,1.4,7.2,2.1,11.3,2.1c5.4,0,10.4-1.2,15.1-3.7c4.7-2.4,8.7-5.8,12.2-10
		c3.4-4.2,6.1-9.1,8.1-14.7c2-5.6,3-11.5,3-17.8C295.1,63.3,294.4,58.9,293,55.1z M280.1,81.8c-1.1,4.3-2.7,8.1-4.8,11.4
		c-2.1,3.3-4.6,5.9-7.6,7.9c-3,2-6.3,3-9.9,3c-5.2,0-9.1-1.8-11.8-5.3c-2.7-3.5-4-8.7-4-15.7c0-4.7,0.6-9.2,1.7-13.5
		c1.1-4.3,2.7-8.1,4.8-11.4c2.1-3.3,4.6-5.9,7.5-7.9c2.9-1.9,6.2-2.9,9.9-2.9c5.1,0,9.1,1.8,11.8,5.3c2.7,3.5,4.1,8.7,4.1,15.6
		C281.8,73,281.3,77.5,280.1,81.8z"/>
</g>
</svg>
