<?xml version="1.0" encoding="utf-8"?>
<!-- Generator: Adobe Illustrator 22.1.0, SVG Export Plug-In . SVG Version: 6.00 Build 0)  -->
<svg version="1.1" id="Layer_1" xmlns="http://www.w3.org/2000/svg" xmlns:xlink="http://www.w3.org/1999/xlink" x="0px" y="0px"
	 viewBox="0 0 300 148" style="enable-background:new 0 0 300 148;" xml:space="preserve">
<style type="text/css">
	.st0{fill:#C44D95;}
	.st1{fill:#FFFFFF;}
</style>
<g>
	<path class="st0" d="M11.4,73.3l-4.2-6.2h1.7c0.1,0,0.2,0,0.3,0.1c0.1,0,0.1,0.1,0.2,0.2l3.3,5.1c0-0.1,0.1-0.3,0.2-0.4l3.1-4.7
		c0.1-0.1,0.1-0.1,0.2-0.2c0.1-0.1,0.1-0.1,0.2-0.1H18l-4.2,6.1l4.4,6.6h-1.7c-0.1,0-0.2,0-0.3-0.1c-0.1-0.1-0.1-0.1-0.2-0.2
		l-3.4-5.3c0,0.1-0.1,0.2-0.2,0.4l-3.3,5C9,79.6,9,79.7,8.9,79.7c-0.1,0.1-0.2,0.1-0.3,0.1H7L11.4,73.3z"/>
	<path class="st0" d="M33.8,73.5c0,1-0.2,1.8-0.5,2.6c-0.3,0.8-0.7,1.5-1.3,2c-0.6,0.6-1.2,1-2,1.3s-1.6,0.5-2.6,0.5h-4.8V67.1h4.8
		c0.9,0,1.8,0.2,2.6,0.5c0.8,0.3,1.4,0.7,2,1.3c0.6,0.6,1,1.2,1.3,2C33.7,71.6,33.8,72.5,33.8,73.5z M32.1,73.5
		c0-0.8-0.1-1.5-0.3-2.1c-0.2-0.6-0.5-1.1-0.9-1.6c-0.4-0.4-0.9-0.8-1.4-1c-0.6-0.2-1.2-0.3-1.9-0.3h-3v10h3c0.7,0,1.3-0.1,1.9-0.3
		c0.6-0.2,1-0.6,1.4-1c0.4-0.4,0.7-0.9,0.9-1.6C31.9,74.9,32.1,74.2,32.1,73.5z"/>
	<path class="st1" d="M54.4,77.2c0.1,0,0.2,0,0.3,0.1l0.7,0.7c-0.5,0.6-1.2,1.1-1.9,1.4c-0.7,0.3-1.6,0.5-2.7,0.5
		c-0.9,0-1.8-0.2-2.5-0.5c-0.7-0.3-1.4-0.8-1.9-1.3c-0.5-0.6-0.9-1.3-1.2-2.1c-0.3-0.8-0.4-1.7-0.4-2.6c0-1,0.2-1.8,0.5-2.6
		c0.3-0.8,0.7-1.5,1.3-2.1c0.6-0.6,1.2-1,2-1.3c0.8-0.3,1.7-0.5,2.6-0.5c0.9,0,1.7,0.1,2.4,0.4c0.7,0.3,1.3,0.7,1.8,1.2l-0.6,0.8
		c0,0.1-0.1,0.1-0.1,0.1c-0.1,0-0.1,0.1-0.2,0.1c-0.1,0-0.2,0-0.2-0.1c-0.1-0.1-0.2-0.1-0.3-0.2c-0.1-0.1-0.3-0.2-0.4-0.3
		c-0.2-0.1-0.4-0.2-0.6-0.3c-0.2-0.1-0.5-0.2-0.8-0.2c-0.3-0.1-0.6-0.1-1-0.1c-0.7,0-1.3,0.1-1.9,0.4c-0.6,0.2-1.1,0.6-1.5,1
		c-0.4,0.4-0.7,1-1,1.6c-0.2,0.6-0.3,1.3-0.3,2.1c0,0.8,0.1,1.5,0.3,2.1c0.2,0.6,0.5,1.1,0.9,1.6c0.4,0.4,0.9,0.8,1.4,1
		c0.5,0.2,1.1,0.3,1.7,0.3c0.4,0,0.7,0,1-0.1c0.3,0,0.6-0.1,0.8-0.2c0.3-0.1,0.5-0.2,0.7-0.4c0.2-0.1,0.4-0.3,0.7-0.5
		C54.2,77.2,54.3,77.2,54.4,77.2z"/>
	<path class="st1" d="M72.4,73.5c0,1-0.2,1.8-0.5,2.6c-0.3,0.8-0.7,1.5-1.3,2.1c-0.6,0.6-1.2,1-2,1.3C67.9,79.8,67,80,66.1,80
		s-1.8-0.2-2.6-0.5c-0.8-0.3-1.4-0.8-2-1.3c-0.6-0.6-1-1.3-1.3-2.1c-0.3-0.8-0.5-1.7-0.5-2.6c0-1,0.2-1.8,0.5-2.6
		c0.3-0.8,0.7-1.5,1.3-2.1c0.6-0.6,1.2-1,2-1.3c0.8-0.3,1.6-0.5,2.6-0.5s1.8,0.2,2.6,0.5c0.8,0.3,1.4,0.8,2,1.3
		c0.6,0.6,1,1.3,1.3,2.1C72.2,71.6,72.4,72.5,72.4,73.5z M70.6,73.5c0-0.8-0.1-1.5-0.3-2.1c-0.2-0.6-0.5-1.1-0.9-1.6
		c-0.4-0.4-0.9-0.8-1.4-1c-0.6-0.2-1.2-0.3-1.9-0.3c-0.7,0-1.3,0.1-1.9,0.3c-0.6,0.2-1,0.6-1.4,1c-0.4,0.4-0.7,1-0.9,1.6
		c-0.2,0.6-0.3,1.3-0.3,2.1c0,0.8,0.1,1.5,0.3,2.1c0.2,0.6,0.5,1.1,0.9,1.6c0.4,0.4,0.9,0.8,1.4,1c0.6,0.2,1.2,0.3,1.9,0.3
		c0.7,0,1.3-0.1,1.9-0.3c0.6-0.2,1-0.6,1.4-1c0.4-0.4,0.7-1,0.9-1.6C70.5,74.9,70.6,74.2,70.6,73.5z"/>
	<path class="st1" d="M84.1,75.7c0.1,0.2,0.1,0.3,0.2,0.5c0.1-0.2,0.1-0.3,0.2-0.5c0.1-0.2,0.1-0.3,0.2-0.5l4.3-7.8
		c0.1-0.1,0.2-0.2,0.2-0.2c0.1,0,0.2,0,0.4,0h1.3v12.8h-1.5v-9.4c0-0.1,0-0.3,0-0.4c0-0.1,0-0.3,0-0.4l-4.4,8
		c-0.1,0.3-0.4,0.4-0.6,0.4h-0.2c-0.3,0-0.5-0.1-0.6-0.4l-4.5-8c0,0.2,0,0.3,0,0.5c0,0.1,0,0.3,0,0.4v9.4h-1.5V67.1h1.3
		c0.2,0,0.3,0,0.4,0c0.1,0,0.2,0.1,0.2,0.2l4.4,7.9C84,75.4,84.1,75.5,84.1,75.7z"/>
	<path class="st1" d="M98.8,75.1v4.8h-1.7V67.1h3.8c0.8,0,1.5,0.1,2.1,0.3c0.6,0.2,1.1,0.5,1.5,0.8c0.4,0.3,0.7,0.8,0.9,1.2
		c0.2,0.5,0.3,1,0.3,1.6c0,0.6-0.1,1.1-0.3,1.6c-0.2,0.5-0.5,0.9-0.9,1.3c-0.4,0.4-0.9,0.6-1.5,0.8c-0.6,0.2-1.3,0.3-2,0.3H98.8z
		 M98.8,73.7h2c0.5,0,0.9-0.1,1.3-0.2c0.4-0.1,0.7-0.3,0.9-0.5c0.3-0.2,0.4-0.5,0.6-0.8c0.1-0.3,0.2-0.7,0.2-1.1
		c0-0.8-0.3-1.4-0.8-1.9c-0.5-0.5-1.3-0.7-2.3-0.7h-2V73.7z"/>
	<path class="st1" d="M122.5,73.5c0,1-0.2,1.8-0.5,2.6c-0.3,0.8-0.7,1.5-1.3,2.1c-0.6,0.6-1.2,1-2,1.3c-0.8,0.3-1.6,0.5-2.6,0.5
		s-1.8-0.2-2.6-0.5c-0.8-0.3-1.4-0.8-2-1.3c-0.6-0.6-1-1.3-1.3-2.1c-0.3-0.8-0.5-1.7-0.5-2.6c0-1,0.2-1.8,0.5-2.6
		c0.3-0.8,0.7-1.5,1.3-2.1c0.6-0.6,1.2-1,2-1.3c0.8-0.3,1.6-0.5,2.6-0.5s1.8,0.2,2.6,0.5c0.8,0.3,1.4,0.8,2,1.3
		c0.6,0.6,1,1.3,1.3,2.1C122.4,71.6,122.5,72.5,122.5,73.5z M120.8,73.5c0-0.8-0.1-1.5-0.3-2.1c-0.2-0.6-0.5-1.1-0.9-1.6
		c-0.4-0.4-0.9-0.8-1.4-1c-0.6-0.2-1.2-0.3-1.9-0.3c-0.7,0-1.3,0.1-1.9,0.3c-0.6,0.2-1,0.6-1.4,1c-0.4,0.4-0.7,1-0.9,1.6
		c-0.2,0.6-0.3,1.3-0.3,2.1c0,0.8,0.1,1.5,0.3,2.1c0.2,0.6,0.5,1.1,0.9,1.6c0.4,0.4,0.9,0.8,1.4,1c0.6,0.2,1.2,0.3,1.9,0.3
		c0.7,0,1.3-0.1,1.9-0.3c0.6-0.2,1-0.6,1.4-1c0.4-0.4,0.7-1,0.9-1.6C120.6,74.9,120.8,74.2,120.8,73.5z"/>
	<path class="st1" d="M129,67.1c0.1,0,0.2,0.1,0.3,0.2l7.4,9.6c0-0.2,0-0.3,0-0.4c0-0.1,0-0.3,0-0.4v-9h1.5v12.8h-0.9
		c-0.1,0-0.3,0-0.3-0.1c-0.1,0-0.2-0.1-0.3-0.2l-7.4-9.6c0,0.1,0,0.3,0,0.4c0,0.1,0,0.3,0,0.4v9.1h-1.5V67.1h0.9
		C128.8,67.1,128.9,67.1,129,67.1z"/>
	<path class="st1" d="M152,67.1v1.4h-6.1v4.2h5v1.4h-5v4.4h6.1v1.4h-7.9V67.1H152z"/>
	<path class="st1" d="M158.6,67.1c0.1,0,0.2,0.1,0.3,0.2l7.4,9.6c0-0.2,0-0.3,0-0.4c0-0.1,0-0.3,0-0.4v-9h1.5v12.8h-0.9
		c-0.1,0-0.3,0-0.3-0.1c-0.1,0-0.2-0.1-0.3-0.2l-7.4-9.6c0,0.1,0,0.3,0,0.4c0,0.1,0,0.3,0,0.4v9.1h-1.5V67.1h0.9
		C158.4,67.1,158.5,67.1,158.6,67.1z"/>
	<path class="st1" d="M182.4,67.1v1.5h-4.1v11.3h-1.7V68.5h-4.1v-1.5H182.4z"/>
	<path class="st1" d="M193.7,69.1c-0.1,0.1-0.1,0.2-0.2,0.2c-0.1,0-0.1,0.1-0.2,0.1c-0.1,0-0.2-0.1-0.4-0.2s-0.3-0.2-0.5-0.3
		c-0.2-0.1-0.5-0.2-0.7-0.3c-0.3-0.1-0.6-0.2-1-0.2c-0.4,0-0.7,0.1-1,0.2c-0.3,0.1-0.5,0.2-0.7,0.4c-0.2,0.2-0.3,0.4-0.4,0.6
		c-0.1,0.2-0.2,0.5-0.2,0.8c0,0.4,0.1,0.7,0.3,0.9s0.4,0.4,0.7,0.6c0.3,0.2,0.6,0.3,1,0.4c0.4,0.1,0.7,0.2,1.1,0.4
		c0.4,0.1,0.8,0.3,1.1,0.4c0.4,0.2,0.7,0.4,1,0.6s0.5,0.6,0.7,0.9s0.3,0.8,0.3,1.3c0,0.6-0.1,1.1-0.3,1.6s-0.5,0.9-0.8,1.3
		c-0.4,0.4-0.8,0.6-1.3,0.9c-0.5,0.2-1.1,0.3-1.8,0.3c-0.8,0-1.6-0.1-2.3-0.4c-0.7-0.3-1.3-0.7-1.7-1.2l0.5-0.8
		c0-0.1,0.1-0.1,0.2-0.2c0.1,0,0.1-0.1,0.2-0.1c0.1,0,0.3,0.1,0.4,0.2c0.2,0.1,0.4,0.3,0.6,0.4c0.2,0.2,0.5,0.3,0.9,0.4
		c0.3,0.1,0.8,0.2,1.3,0.2c0.4,0,0.8-0.1,1.1-0.2c0.3-0.1,0.6-0.3,0.8-0.5c0.2-0.2,0.4-0.4,0.5-0.7c0.1-0.3,0.2-0.6,0.2-1
		c0-0.4-0.1-0.7-0.3-0.9c-0.2-0.2-0.4-0.5-0.7-0.6c-0.3-0.2-0.6-0.3-1-0.4c-0.4-0.1-0.7-0.2-1.1-0.4c-0.4-0.1-0.8-0.3-1.1-0.4
		c-0.4-0.2-0.7-0.4-1-0.6c-0.3-0.3-0.5-0.6-0.7-1c-0.2-0.4-0.3-0.9-0.3-1.4c0-0.5,0.1-0.9,0.3-1.3c0.2-0.4,0.4-0.8,0.8-1.1
		c0.3-0.3,0.7-0.6,1.2-0.8c0.5-0.2,1.1-0.3,1.7-0.3c0.7,0,1.4,0.1,1.9,0.3c0.6,0.2,1.1,0.6,1.5,1L193.7,69.1z"/>
	<path class="st1" d="M207.6,78.4h5.5v1.5h-7.2V67.1h1.7V78.4z"/>
	<path class="st1" d="M219.9,79.8h-1.7V67.1h1.7V79.8z"/>
	<path class="st1" d="M226.2,79.8V67.1h4.1c0.8,0,1.5,0.1,2,0.2c0.6,0.2,1,0.4,1.4,0.7c0.4,0.3,0.6,0.6,0.8,1
		c0.2,0.4,0.3,0.9,0.3,1.4c0,0.3,0,0.6-0.1,0.9c-0.1,0.3-0.2,0.6-0.4,0.8c-0.2,0.2-0.4,0.5-0.7,0.7c-0.3,0.2-0.7,0.4-1.1,0.5
		c0.9,0.2,1.6,0.5,2.1,1c0.5,0.5,0.7,1.1,0.7,1.9c0,0.5-0.1,1-0.3,1.5s-0.5,0.8-0.9,1.1c-0.4,0.3-0.9,0.6-1.4,0.7
		c-0.6,0.2-1.2,0.3-1.9,0.3H226.2z M228,72.8h2.3c0.5,0,0.9-0.1,1.3-0.2c0.4-0.1,0.7-0.3,0.9-0.4c0.2-0.2,0.4-0.4,0.5-0.7
		c0.1-0.3,0.2-0.6,0.2-0.9c0-0.7-0.2-1.3-0.7-1.6c-0.5-0.3-1.2-0.5-2.1-0.5H228V72.8z M228,74v4.4h2.8c0.5,0,0.9-0.1,1.3-0.2
		c0.4-0.1,0.6-0.3,0.9-0.5c0.2-0.2,0.4-0.4,0.5-0.7c0.1-0.3,0.2-0.6,0.2-0.9c0-0.7-0.2-1.2-0.7-1.6c-0.5-0.4-1.2-0.6-2.1-0.6H228z"
		/>
	<path class="st1" d="M242.6,74.5v5.3h-1.7V67.1h3.6c0.8,0,1.5,0.1,2.1,0.2c0.6,0.2,1.1,0.4,1.5,0.7c0.4,0.3,0.7,0.7,0.8,1.1
		s0.3,0.9,0.3,1.5c0,0.5-0.1,0.9-0.2,1.3c-0.1,0.4-0.3,0.7-0.6,1.1c-0.3,0.3-0.6,0.6-1,0.8c-0.4,0.2-0.8,0.4-1.3,0.5
		c0.2,0.1,0.4,0.3,0.6,0.5l3.7,5.1h-1.5c-0.3,0-0.5-0.1-0.7-0.4l-3.3-4.6c-0.1-0.1-0.2-0.2-0.3-0.3c-0.1-0.1-0.3-0.1-0.5-0.1H242.6z
		 M242.6,73.3h1.8c0.5,0,0.9-0.1,1.3-0.2c0.4-0.1,0.7-0.3,1-0.5c0.3-0.2,0.5-0.5,0.6-0.8c0.1-0.3,0.2-0.6,0.2-1
		c0-0.8-0.3-1.3-0.8-1.7c-0.5-0.4-1.2-0.6-2.2-0.6h-1.9V73.3z"/>
	<path class="st1" d="M265.5,79.8h-1.3c-0.2,0-0.3,0-0.4-0.1c-0.1-0.1-0.2-0.2-0.2-0.3l-1.2-3.1h-5.7l-1.2,3.1
		c0,0.1-0.1,0.2-0.2,0.3c-0.1,0.1-0.2,0.1-0.4,0.1h-1.3l5.1-12.8h1.8L265.5,79.8z M257.2,75.1h4.8l-2-5.2c-0.1-0.3-0.3-0.7-0.4-1.2
		c-0.1,0.2-0.1,0.5-0.2,0.7c-0.1,0.2-0.1,0.4-0.2,0.5L257.2,75.1z"/>
	<path class="st1" d="M271.9,74.5v5.3h-1.7V67.1h3.6c0.8,0,1.5,0.1,2.1,0.2c0.6,0.2,1.1,0.4,1.5,0.7c0.4,0.3,0.7,0.7,0.8,1.1
		s0.3,0.9,0.3,1.5c0,0.5-0.1,0.9-0.2,1.3c-0.1,0.4-0.3,0.7-0.6,1.1c-0.3,0.3-0.6,0.6-1,0.8c-0.4,0.2-0.8,0.4-1.3,0.5
		c0.2,0.1,0.4,0.3,0.6,0.5l3.7,5.1h-1.5c-0.3,0-0.5-0.1-0.7-0.4l-3.3-4.6c-0.1-0.1-0.2-0.2-0.3-0.3c-0.1-0.1-0.3-0.1-0.5-0.1H271.9z
		 M271.9,73.3h1.8c0.5,0,0.9-0.1,1.3-0.2c0.4-0.1,0.7-0.3,1-0.5c0.3-0.2,0.5-0.5,0.6-0.8c0.1-0.3,0.2-0.6,0.2-1
		c0-0.8-0.3-1.3-0.8-1.7c-0.5-0.4-1.2-0.6-2.2-0.6h-1.9V73.3z"/>
	<path class="st1" d="M289.3,74.8v5.1h-1.7v-5.1l-4.7-7.7h1.5c0.2,0,0.3,0,0.4,0.1c0.1,0.1,0.2,0.2,0.2,0.3l2.9,5
		c0.1,0.2,0.2,0.4,0.3,0.6c0.1,0.2,0.2,0.4,0.2,0.5c0.1-0.2,0.1-0.4,0.2-0.6c0.1-0.2,0.2-0.4,0.3-0.6l2.9-5c0.1-0.1,0.1-0.2,0.2-0.3
		c0.1-0.1,0.2-0.1,0.4-0.1h1.5L289.3,74.8z"/>
</g>
</svg>
