<svg xmlns="http://www.w3.org/2000/svg" viewBox="0 0 14 14"><defs><style>.a{fill:none;stroke:#666;stroke-linejoin:round;}.b{fill:#fff;}.c{fill:#666;}.d{font-size:5px;font-family:SourceHanSans-Regular-83pv-RKSJ-H, Source Han Sans;}</style></defs><title>icon-basis-selection</title><rect class="a" x="1.5" y="1.5" width="11" height="11"/><circle class="b" cx="1.5" cy="1.5" r="1"/><path class="c" d="M1.5,1a.5.5,0,1,1-.5.5A.5.5,0,0,1,1.5,1m0-1A1.5,1.5,0,1,0,3,1.5,1.5,1.5,0,0,0,1.5,0Z"/><circle class="b" cx="7" cy="1.5" r="1"/><path class="c" d="M7,1a.5.5,0,1,1-.5.5A.5.5,0,0,1,7,1M7,0A1.5,1.5,0,1,0,8.5,1.5,1.5,1.5,0,0,0,7,0Z"/><circle class="b" cx="12.5" cy="1.5" r="1"/><path class="c" d="M12.5,1a.5.5,0,1,1-.5.5.5.5,0,0,1,.5-.5m0-1A1.5,1.5,0,1,0,14,1.5,1.5,1.5,0,0,0,12.5,0Z"/><circle class="b" cx="1.5" cy="7" r="1"/><path class="c" d="M1.5,6.5A.5.5,0,1,1,1,7a.5.5,0,0,1,.5-.5m0-1A1.5,1.5,0,1,0,3,7,1.5,1.5,0,0,0,1.5,5.5Z"/><circle class="b" cx="12.5" cy="7" r="1"/><path class="c" d="M12.5,6.5A.5.5,0,1,1,12,7a.5.5,0,0,1,.5-.5m0-1A1.5,1.5,0,1,0,14,7a1.5,1.5,0,0,0-1.5-1.5Z"/><circle class="b" cx="1.5" cy="12.5" r="1"/><path class="c" d="M1.5,12a.5.5,0,1,1-.5.5.5.5,0,0,1,.5-.5m0-1A1.5,1.5,0,1,0,3,12.5,1.5,1.5,0,0,0,1.5,11Z"/><circle class="b" cx="7" cy="12.5" r="1"/><path class="c" d="M7,12a.5.5,0,1,1-.5.5A.5.5,0,0,1,7,12m0-1a1.5,1.5,0,1,0,1.5,1.5A1.5,1.5,0,0,0,7,11Z"/><circle class="b" cx="12.5" cy="12.5" r="1"/><path class="c" d="M12.5,12a.5.5,0,1,1-.5.5.5.5,0,0,1,.5-.5m0-1A1.5,1.5,0,1,0,14,12.5,1.5,1.5,0,0,0,12.5,11Z"/><text class="d" transform="translate(-3.92 -3)">Selection</text></svg>