<svg xmlns="http://www.w3.org/2000/svg" width="1440" height="809" viewBox="0 0 1440 809"><rect width="1440" height="809" fill="#fff"/><g transform="translate(748.191 151)"><rect width="553.809" height="507.809" fill="#f2f7fb"/><g transform="translate(247.563 224.547)"><path d="M0,0H59.023V59.023H0Z" fill="none"/><path d="M47.267,42.349V7.919A4.933,4.933,0,0,0,42.349,3H7.919A4.933,4.933,0,0,0,3,7.919v34.43a4.933,4.933,0,0,0,4.919,4.919h34.43a4.933,4.933,0,0,0,4.918-4.919ZM16.526,28.823l6.148,7.4,8.608-11.091L42.349,39.889H7.919Z" transform="translate(4.378 4.378)" fill="#dfe2f2"/><ellipse cx="3" cy="3.5" rx="3" ry="3.5" transform="translate(16.501 19)" fill="#fff"/></g></g><g transform="translate(0 -21)"><text transform="translate(135 290)" fill="rgba(0,0,0,0.87)" font-size="48" font-family="Roboto-Medium, Roboto" font-weight="500"><tspan x="0" y="0">Easy Way To Create High </tspan><tspan x="0" y="63">fidelity WireFrames </tspan></text><text transform="translate(136 451)" fill="rgba(33,33,33,0.87)" font-size="20" font-family="Roboto-Regular, Roboto"><tspan x="0" y="0">Lorem ipsum dolor sit amet, consectetur </tspan><tspan x="0" y="26">adipiscing elit, sed do eiusmod tempor </tspan></text><g transform="translate(328 553)"><rect width="171" height="58" rx="29" fill="#2e4cff"/><text transform="translate(40 37)" fill="rgba(255,255,255,0.87)" font-size="20" font-family="Roboto-Medium, Roboto" font-weight="500"><tspan x="0" y="0">Click Here</tspan></text></g><g transform="translate(136 555)"><g fill="#fff" stroke="#2e4cff" stroke-width="2"><rect width="171" height="56" rx="27" stroke="none"/><rect x="1" y="1" width="169" height="54" rx="26" fill="none"/></g><text transform="translate(40 36)" fill="#2e4cff" font-size="20" font-family="Roboto-Medium, Roboto" font-weight="500"><tspan x="0" y="0">Click Here</tspan></text></g></g><g transform="translate(120 70)"><circle cx="2" cy="2" r="2" transform="translate(574 476)" fill="#2e4cff"/><circle cx="2" cy="2" r="2" transform="translate(546 476)" fill="#2e4cff"/><circle cx="2" cy="2" r="2" transform="translate(574 504)" fill="#2e4cff"/><circle cx="2" cy="2" r="2" transform="translate(546 504)" fill="#2e4cff"/><circle cx="2" cy="2" r="2" transform="translate(574 532)" fill="#2e4cff"/><circle cx="2" cy="2" r="2" transform="translate(546 532)" fill="#2e4cff"/><circle cx="2" cy="2" r="2" transform="translate(574 560)" fill="#2e4cff"/><circle cx="2" cy="2" r="2" transform="translate(546 560)" fill="#2e4cff"/><circle cx="2" cy="2" r="2" transform="translate(574 588)" fill="#2e4cff"/><circle cx="2" cy="2" r="2" transform="translate(546 588)" fill="#2e4cff"/><circle cx="2" cy="2" r="2" transform="translate(574 616)" fill="#2e4cff"/><circle cx="2" cy="2" r="2" transform="translate(546 616)" fill="#2e4cff"/><circle cx="2" cy="2" r="2" transform="translate(599 616)" fill="#2e4cff"/><circle cx="2" cy="2" r="2" transform="translate(599 588)" fill="#2e4cff"/><circle cx="2" cy="2" r="2" transform="translate(599 560)" fill="#2e4cff"/><circle cx="2" cy="2" r="2" transform="translate(599 532)" fill="#2e4cff"/><circle cx="2" cy="2" r="2" transform="translate(599 504)" fill="#2e4cff"/><circle cx="2" cy="2" r="2" transform="translate(599 476)" fill="#2e4cff"/><circle cx="2" cy="2" r="2" transform="translate(627 476)" fill="#2e4cff"/><circle cx="2" cy="2" r="2" transform="translate(627 504)" fill="#2e4cff"/><circle cx="2" cy="2" r="2" transform="translate(627 532)" fill="#2e4cff"/><circle cx="2" cy="2" r="2" transform="translate(627 560)" fill="#2e4cff"/><circle cx="2" cy="2" r="2" transform="translate(627 588)" fill="#2e4cff"/><circle cx="2" cy="2" r="2" transform="translate(655 588)" fill="#2e4cff"/><circle cx="2" cy="2" r="2" transform="translate(655 560)" fill="#2e4cff"/><circle cx="2" cy="2" r="2" transform="translate(655 532)" fill="#2e4cff"/><circle cx="2" cy="2" r="2" transform="translate(655 504)" fill="#2e4cff"/><circle cx="2" cy="2" r="2" transform="translate(655 476)" fill="#2e4cff"/><circle cx="2" cy="2" r="2" transform="translate(683 476)" fill="#2e4cff"/><circle cx="2" cy="2" r="2" transform="translate(711 476)" fill="#2e4cff"/><circle cx="2" cy="2" r="2" transform="translate(739 476)" fill="#2e4cff"/><circle cx="2" cy="2" r="2" transform="translate(683 504)" fill="#2e4cff"/><circle cx="2" cy="2" r="2" transform="translate(711 504)" fill="#2e4cff"/><circle cx="2" cy="2" r="2" transform="translate(739 504)" fill="#2e4cff"/><circle cx="2" cy="2" r="2" transform="translate(683 532)" fill="#2e4cff"/><circle cx="2" cy="2" r="2" transform="translate(711 532)" fill="#2e4cff"/><circle cx="2" cy="2" r="2" transform="translate(739 532)" fill="#2e4cff"/><circle cx="2" cy="2" r="2" transform="translate(683 560)" fill="#2e4cff"/><circle cx="2" cy="2" r="2" transform="translate(711 560)" fill="#2e4cff"/><circle cx="2" cy="2" r="2" transform="translate(739 560)" fill="#2e4cff"/><circle cx="2" cy="2" r="2" transform="translate(683 588)" fill="#2e4cff"/><circle cx="2" cy="2" r="2" transform="translate(711 588)" fill="#2e4cff"/><circle cx="2" cy="2" r="2" transform="translate(739 588)" fill="#2e4cff"/><circle cx="2" cy="2" r="2" transform="translate(627 616)" fill="#2e4cff"/><circle cx="2" cy="2" r="2" transform="translate(655 616)" fill="#2e4cff"/><circle cx="2" cy="2" r="2" transform="translate(683 616)" fill="#2e4cff"/><circle cx="2" cy="2" r="2" transform="translate(711 616)" fill="#2e4cff"/><circle cx="2" cy="2" r="2" transform="translate(739 616)" fill="#2e4cff"/></g></svg>