<svg xmlns="http://www.w3.org/2000/svg" width="1440" height="809" viewBox="0 0 1440 809"><rect width="1440" height="809" fill="#fff"/><text transform="translate(135 269)" fill="rgba(0,0,0,0.87)" font-size="48" font-family="Roboto-Medium, Roboto" font-weight="500"><tspan x="0" y="0">Easy Way To Create High </tspan><tspan x="0" y="63">fidelity WireFrames</tspan></text><text transform="translate(136 430)" fill="rgba(33,33,33,0.87)" font-size="20" font-family="Roboto-Regular, Roboto"><tspan x="0" y="0">Lorem ipsum dolor sit amet, consectetur </tspan><tspan x="0" y="26">adipiscing elit, sed do eiusmod tempor</tspan></text><g transform="translate(136 527)"><rect width="171" height="58" rx="29" fill="#2e4cff"/><text transform="translate(40 37)" fill="rgba(255,255,255,0.87)" font-size="20" font-family="Roboto-Medium, Roboto" font-weight="500"><tspan x="0" y="0">Click Here</tspan></text></g><g transform="translate(120 70)"><circle cx="2" cy="2" r="2" transform="translate(574 476)" fill="#2e4cff"/><circle cx="2" cy="2" r="2" transform="translate(546 476)" fill="#2e4cff"/><circle cx="2" cy="2" r="2" transform="translate(574 504)" fill="#2e4cff"/><circle cx="2" cy="2" r="2" transform="translate(546 504)" fill="#2e4cff"/><circle cx="2" cy="2" r="2" transform="translate(574 532)" fill="#2e4cff"/><circle cx="2" cy="2" r="2" transform="translate(546 532)" fill="#2e4cff"/><circle cx="2" cy="2" r="2" transform="translate(574 560)" fill="#2e4cff"/><circle cx="2" cy="2" r="2" transform="translate(546 560)" fill="#2e4cff"/><circle cx="2" cy="2" r="2" transform="translate(574 588)" fill="#2e4cff"/><circle cx="2" cy="2" r="2" transform="translate(546 588)" fill="#2e4cff"/><circle cx="2" cy="2" r="2" transform="translate(574 616)" fill="#2e4cff"/><circle cx="2" cy="2" r="2" transform="translate(546 616)" fill="#2e4cff"/><circle cx="2" cy="2" r="2" transform="translate(599 616)" fill="#2e4cff"/><circle cx="2" cy="2" r="2" transform="translate(599 588)" fill="#2e4cff"/><circle cx="2" cy="2" r="2" transform="translate(599 560)" fill="#2e4cff"/><circle cx="2" cy="2" r="2" transform="translate(599 532)" fill="#2e4cff"/><circle cx="2" cy="2" r="2" transform="translate(599 504)" fill="#2e4cff"/><circle cx="2" cy="2" r="2" transform="translate(599 476)" fill="#2e4cff"/><circle cx="2" cy="2" r="2" transform="translate(627 476)" fill="#2e4cff"/><circle cx="2" cy="2" r="2" transform="translate(627 504)" fill="#2e4cff"/><circle cx="2" cy="2" r="2" transform="translate(627 532)" fill="#2e4cff"/><circle cx="2" cy="2" r="2" transform="translate(627 560)" fill="#2e4cff"/><circle cx="2" cy="2" r="2" transform="translate(627 588)" fill="#2e4cff"/><circle cx="2" cy="2" r="2" transform="translate(655 588)" fill="#2e4cff"/><circle cx="2" cy="2" r="2" transform="translate(655 560)" fill="#2e4cff"/><circle cx="2" cy="2" r="2" transform="translate(655 532)" fill="#2e4cff"/><circle cx="2" cy="2" r="2" transform="translate(655 504)" fill="#2e4cff"/><circle cx="2" cy="2" r="2" transform="translate(655 476)" fill="#2e4cff"/><circle cx="2" cy="2" r="2" transform="translate(683 476)" fill="#2e4cff"/><circle cx="2" cy="2" r="2" transform="translate(711 476)" fill="#2e4cff"/><circle cx="2" cy="2" r="2" transform="translate(739 476)" fill="#2e4cff"/><circle cx="2" cy="2" r="2" transform="translate(683 504)" fill="#2e4cff"/><circle cx="2" cy="2" r="2" transform="translate(711 504)" fill="#2e4cff"/><circle cx="2" cy="2" r="2" transform="translate(739 504)" fill="#2e4cff"/><circle cx="2" cy="2" r="2" transform="translate(683 532)" fill="#2e4cff"/><circle cx="2" cy="2" r="2" transform="translate(711 532)" fill="#2e4cff"/><circle cx="2" cy="2" r="2" transform="translate(739 532)" fill="#2e4cff"/><circle cx="2" cy="2" r="2" transform="translate(683 560)" fill="#2e4cff"/><circle cx="2" cy="2" r="2" transform="translate(711 560)" fill="#2e4cff"/><circle cx="2" cy="2" r="2" transform="translate(739 560)" fill="#2e4cff"/><circle cx="2" cy="2" r="2" transform="translate(683 588)" fill="#2e4cff"/><circle cx="2" cy="2" r="2" transform="translate(711 588)" fill="#2e4cff"/><circle cx="2" cy="2" r="2" transform="translate(739 588)" fill="#2e4cff"/><circle cx="2" cy="2" r="2" transform="translate(627 616)" fill="#2e4cff"/><circle cx="2" cy="2" r="2" transform="translate(655 616)" fill="#2e4cff"/><circle cx="2" cy="2" r="2" transform="translate(683 616)" fill="#2e4cff"/><circle cx="2" cy="2" r="2" transform="translate(711 616)" fill="#2e4cff"/><circle cx="2" cy="2" r="2" transform="translate(739 616)" fill="#2e4cff"/></g><path d="M0,0H704V760H150A150,150,0,0,1,0,610Z" transform="translate(736)" fill="#f2f7fb"/><g transform="translate(-16771.939 -1598.03)"><g transform="translate(17570 1763)"><g transform="translate(0 344.804)"><path d="M1,428.544a13.4,13.4,0,0,0,13.4,13.4H566.537a13.4,13.4,0,0,0,13.4-13.4V387.531H1Z" transform="translate(-1 -387.531)" fill="#fff"/></g><path d="M1,428.544a13.4,13.4,0,0,0,13.4,13.4H566.537a13.4,13.4,0,0,0,13.4-13.4V387.531H1Z" transform="translate(-1 -42.727)" fill="none" stroke="#d3d8e0" stroke-width="1"/><path d="M1,14.4A13.4,13.4,0,0,1,14.4,1H566.537a13.4,13.4,0,0,1,13.4,13.4V346.091H1Z" transform="translate(-1 -1)" fill="#fff"/><path d="M1,14.4A13.4,13.4,0,0,1,14.4,1H566.537a13.4,13.4,0,0,1,13.4,13.4V346.091H1Z" transform="translate(-1 -1)" fill="none" stroke="#d3d8e0" stroke-width="1"/><path d="M316.447,183h16.515a2.471,2.471,0,0,1,2.447,2.447v16.515a2.476,2.476,0,0,1-2.447,2.447H316.447A2.482,2.482,0,0,1,314,201.962V185.447A2.477,2.477,0,0,1,316.447,183Zm15.9,17.739c.109,0,.377-.151.612-.612a1.587,1.587,0,0,0,0-.612l-3.058-4.282c.106.026-.176-.163-.612,0-.206-.291-.539-.224-.612,0l-3.058,1.835a.812.812,0,0,1-1.224-.611l-3.058-3.671a1.242,1.242,0,0,0-1.224-.611,2.606,2.606,0,0,0-.862.4c-.122.076-.242.151-.361.211l-1.835,6.729a2.023,2.023,0,0,0,0,.612c.307.5.543.612.611.612Z" transform="translate(-34.789 -20.647)" fill="#dbe1e6" fill-rule="evenodd"/><path d="M235.683,537.428c-9.07,0-8.282-2.251-8.282-2.251V532.7s-1.183,1.211,8.277,1.688c22.925,0,52.381.088,79.645.194,27.264-.1,56.719-.194,79.644-.194,9.461-.476,8.277-1.688,8.277-1.688v2.476s.789,2.251-8.282,2.251c-3.3,0-41.573-.136-79.639-.274C277.256,537.292,238.979,537.428,235.683,537.428Z" transform="translate(-25.435 -58.398)" fill="#d3d8e0" fill-rule="evenodd"/><g transform="translate(201.875 398.998)"><path d="M315.458,526.677H237.572c-17.747,0-7.1-5.121-7.1-5.121s13.8-8.273,18.142-11.818,5.127-16.151,5.127-16.151l4.732-45.3H372.442l4.733,45.3s.789,12.606,5.127,16.151,18.141,11.818,18.141,11.818,10.648,5.121-7.1,5.121Z" transform="translate(-227.305 -448.283)" fill="#fff" fill-rule="evenodd"/></g><path d="M315.458,526.677H237.572c-17.747,0-7.1-5.121-7.1-5.121s13.8-8.273,18.142-11.818,5.127-16.151,5.127-16.151l4.732-45.3H372.442l4.733,45.3s.789,12.606,5.127,16.151,18.141,11.818,18.141,11.818,10.648,5.121-7.1,5.121Z" transform="translate(-25.43 -49.285)" fill="none" stroke="#d3d8e0" stroke-width="1" fill-rule="evenodd"/></g><g transform="translate(17591.58 1787.085)"><rect width="534.166" height="302.234" fill="#f2f7fb"/><g transform="translate(240.923 124.877)"><path d="M0,0H52.651V52.651H0Z" fill="none"/><path d="M42.489,38.1V7.388A4.4,4.4,0,0,0,38.1,3H7.388A4.4,4.4,0,0,0,3,7.388V38.1a4.4,4.4,0,0,0,4.388,4.388H38.1A4.4,4.4,0,0,0,42.489,38.1ZM15.066,26.035l5.485,6.6,7.678-9.894L38.1,35.907H7.388Z" transform="translate(3.581 3.581)" fill="#dfe2f2"/><ellipse cx="2.676" cy="3.122" rx="2.676" ry="3.122" transform="translate(14.72 16.949)" fill="#fff"/></g></g></g></svg>