<svg xmlns="http://www.w3.org/2000/svg" xmlns:xlink="http://www.w3.org/1999/xlink" width="1440" height="1006.7" viewBox="0 0 1440 1006.7"><defs><filter id="a" x="694.998" y="614" width="112" height="112" filterUnits="userSpaceOnUse"><feOffset dy="6" input="SourceAlpha"/><feGaussianBlur stdDeviation="5" result="b"/><feFlood flood-color="#ddd" flood-opacity="0.161"/><feComposite operator="in" in2="b"/><feComposite in="SourceGraphic"/></filter><linearGradient id="c" x1="0.676" y1="0.896" x2="0.165" y2="0.311" gradientUnits="objectBoundingBox"><stop offset="0" stop-color="#80f5bc"/><stop offset="1" stop-color="#1ce3dc"/></linearGradient><filter id="d" x="734.538" y="645.2" width="42" height="46" filterUnits="userSpaceOnUse"><feOffset dy="3" input="SourceAlpha"/><feGaussianBlur stdDeviation="3" result="e"/><feFlood flood-opacity="0.161"/><feComposite operator="in" in2="e"/><feComposite in="SourceGraphic"/></filter></defs><rect width="1440" height="900" fill="#fff"/><rect width="1440" height="328" transform="translate(0 572)" fill="#f2f7fb"/><text transform="translate(454.043 191)" fill="rgba(0,0,0,0.87)" font-size="48" font-family="Roboto-Medium, Roboto" font-weight="500"><tspan x="0" y="0">Easy Way To Create High </tspan></text><text transform="translate(513.047 254)" fill="rgba(0,0,0,0.87)" font-size="48" font-family="Roboto-Medium, Roboto" font-weight="500"><tspan x="0" y="0">fidelity WireFrames</tspan></text><g transform="translate(12 25)"><g transform="translate(526 294)"><g fill="#fff" stroke="#2e4cff" stroke-width="2"><rect width="171" height="56" rx="27" stroke="none"/><rect x="1" y="1" width="169" height="54" rx="26" fill="none"/></g><text transform="translate(40 36)" fill="#2e4cff" font-size="20" font-family="Roboto-Medium, Roboto" font-weight="500"><tspan x="0" y="0">Click Here</tspan></text></g><g transform="translate(720 294)"><rect width="171" height="58" rx="29" fill="#2e4cff"/><text transform="translate(40 37)" fill="rgba(255,255,255,0.87)" font-size="20" font-family="Roboto-Medium, Roboto" font-weight="500"><tspan x="0" y="0">Click Here</tspan></text></g></g><g transform="translate(0 7)"><g transform="translate(333.096 418.303)"><g transform="translate(82.931 440.965)" opacity="0.5"><path d="M729.88,381.606,663.2,516.219c-2.74,3.88-522.692,3.879-525.43,0L71.084,381.606C68.344,377.725,732.619,377.727,729.88,381.606Z" transform="translate(-71.075 -378.696)" fill="#fff" fill-rule="evenodd"/></g><g transform="translate(80.32 435.124)" opacity="0.05"><rect width="674.89" height="47.683" rx="20.396"/></g><g transform="translate(98.123 435.389)" opacity="0.5"><rect width="644.679" height="33.664" rx="14.399"/></g><g transform="translate(67.084 10.13)"><path d="M57.519,31.162A21.031,21.031,0,0,1,78.551,10.13H733.363A21.031,21.031,0,0,1,754.4,31.162v412.6a21.031,21.031,0,0,1-21.032,21.031H78.55a21.031,21.031,0,0,1-21.031-21.031Z" transform="translate(-57.519 -10.13)" fill="#fff" fill-rule="evenodd"/><path d="M57.519,31.162A21.031,21.031,0,0,1,78.551,10.13H733.363A21.031,21.031,0,0,1,754.4,31.162v412.6a21.031,21.031,0,0,1-21.032,21.031H78.55a21.031,21.031,0,0,1-21.031-21.031Z" transform="translate(-57.519 -10.13)" fill="none" stroke="#d3d8e0" stroke-width="1" fill-rule="evenodd"/></g><rect width="827.972" height="5.511" transform="translate(1.081 460.656)" fill="#fff"/><path d="M133.531,410.1c-112.571,0-132.475-9.644-132.475-9.644l415.365-1.378,412.606,1.378S809.176,410.1,696.552,410.1Z" transform="translate(0.025 65.713)" fill="#fff" fill-rule="evenodd"/><path d="M1.081,400.513v-.4l-.175.768Zm415.365-1.378v-.4h0Zm412.606,1.378.176.364-.175-.768Zm-827.971,0c-.176.364-.176.364-.175.365h0l.014.007.052.023.2.085c.181.074.456.18.845.313.777.269,2.006.649,3.828,1.1a169.119,169.119,0,0,0,19.2,3.323c19.07,2.414,52.207,4.825,108.5,4.825v-.809c-56.275,0-89.376-2.41-108.4-4.818A168.121,168.121,0,0,1,6.037,401.62c-1.8-.449-3.008-.823-3.76-1.082-.376-.13-.637-.23-.8-.3-.083-.034-.142-.06-.179-.076l-.04-.018H1.25a2.6,2.6,0,0,1-.169.369Zm415.364-1.783L1.08,400.108v.809l415.366-1.378Zm0,.809,412.606,1.378v-.809l-412.6-1.378Zm412.607.974c-.177-.364-.177-.364-.175-.365h-.008l-.04.018c-.037.018-.1.042-.179.076-.165.068-.427.169-.8.3-.749.259-1.953.634-3.754,1.082a167.757,167.757,0,0,1-19.1,3.307c-19.018,2.408-52.119,4.818-108.42,4.818v.809c56.321,0,89.459-2.412,108.522-4.825a168.7,168.7,0,0,0,19.19-3.323c1.82-.455,3.047-.835,3.822-1.1.388-.133.664-.24.844-.313.09-.037.157-.065.2-.085l.051-.023.015-.007h0A2.3,2.3,0,0,0,829.052,400.513Zm-132.475,9.239H416.446v.809H696.577Zm-563.021.809h282.89v-.809H133.557Z" transform="translate(0 65.654)" fill="#d3d8e0"/><rect width="647.113" height="407.141" transform="translate(92.194 33.397)" fill="#f2f7fb"/><path d="M347.206,192.034h21.642a3.237,3.237,0,0,1,3.206,3.206v21.642a3.245,3.245,0,0,1-3.206,3.206H347.206A3.254,3.254,0,0,1,344,216.882V195.24A3.245,3.245,0,0,1,347.206,192.034Zm20.84,23.246c.143,0,.494-.2.8-.8a2.08,2.08,0,0,0,0-.8l-4.007-5.611c.139.033-.23-.215-.8,0-.27-.381-.706-.295-.8,0l-4.007,2.4a1.065,1.065,0,0,1-1.6-.8l-4.007-4.81a1.627,1.627,0,0,0-1.6-.8,3.414,3.414,0,0,0-1.129.524c-.16.1-.317.2-.473.277l-2.4,8.817a2.66,2.66,0,0,0,0,.8c.4.656.712.8.8.8Z" transform="translate(57.966 30.733)" fill="#dbe1e6" fill-rule="evenodd"/></g><g transform="translate(427 451)"><rect width="646" height="410" fill="#f2f7fb"/><g transform="translate(282.508 165)"><g transform="matrix(1, 0, 0, 1, -709.51, -623)" filter="url(#a)"><circle cx="41" cy="41" r="41" transform="translate(710 623)" fill="#fff"/></g><g transform="matrix(1, 0, 0, 1, -709.51, -623)" filter="url(#d)"><path d="M14,0,28,24H0Z" transform="translate(767.54 651.2) rotate(90)" opacity="0.737" fill="url(#c)"/></g></g></g></g></svg>