<svg xmlns="http://www.w3.org/2000/svg" width="1440" height="809" viewBox="0 0 1440 809"><rect width="1440" height="809" fill="#fff"/><text transform="translate(135 269)" fill="rgba(0,0,0,0.87)" font-size="48" font-family="Roboto-Medium, Roboto" font-weight="500"><tspan x="0" y="0">Easy Way To Create High </tspan><tspan x="0" y="63">fidelity WireFrames</tspan></text><text transform="translate(136 430)" fill="rgba(33,33,33,0.87)" font-size="20" font-family="Roboto-Regular, Roboto"><tspan x="0" y="0">Lorem ipsum dolor sit amet, consectetur </tspan><tspan x="0" y="26">adipiscing elit, sed do eiusmod tempor</tspan></text><g transform="translate(1023.297)"><path d="M416.2,808.5H.5V.5H416.2Z" fill="#2e4cff"/><path d="M1,1V808H415.7V1H1M0,0H416.7V809H0V0Z" fill="#707070"/></g><g transform="translate(-16843.406 -1604)"><g transform="translate(17570 1763)"><g transform="translate(0 353.42)"><path d="M1,429.569a13.737,13.737,0,0,0,13.737,13.737H580.669a13.737,13.737,0,0,0,13.737-13.737V387.531H1Z" transform="translate(-1 -387.531)" fill="#fff"/></g><path d="M1,429.569a13.737,13.737,0,0,0,13.737,13.737H580.669a13.737,13.737,0,0,0,13.737-13.737V387.531H1Z" transform="translate(-1 -34.111)" fill="none" stroke="#d3d8e0" stroke-width="1"/><path d="M1,14.737A13.737,13.737,0,0,1,14.737,1H580.669a13.738,13.738,0,0,1,13.737,13.736V354.714H1Z" transform="translate(-1 -1)" fill="#fff"/><path d="M1,14.737A13.737,13.737,0,0,1,14.737,1H580.669a13.738,13.738,0,0,1,13.737,13.736V354.714H1Z" transform="translate(-1 -1)" fill="none" stroke="#d3d8e0" stroke-width="1"/><path d="M316.508,183h16.928a2.532,2.532,0,0,1,2.508,2.508v16.928a2.538,2.538,0,0,1-2.508,2.508H316.508A2.545,2.545,0,0,1,314,202.436V185.508A2.539,2.539,0,0,1,316.508,183Zm16.3,18.183c.112,0,.387-.155.627-.627a1.627,1.627,0,0,0,0-.627L330.3,195.54c.109.027-.18-.167-.627,0-.211-.3-.552-.229-.627,0l-3.134,1.881a.833.833,0,0,1-1.254-.626l-3.134-3.762a1.273,1.273,0,0,0-1.254-.626,2.672,2.672,0,0,0-.883.41c-.125.078-.248.155-.37.217l-1.881,6.9a2.073,2.073,0,0,0,0,.627c.315.513.557.627.626.627Z" transform="translate(-27.812 -16.59)" fill="#dbe1e6" fill-rule="evenodd"/><path d="M235.891,537.546c-9.3,0-8.489-2.307-8.489-2.307V532.7s-1.212,1.242,8.484,1.73c23.5,0,53.69.09,81.635.2,27.945-.108,58.136-.2,81.634-.2,9.7-.488,8.484-1.73,8.484-1.73v2.538s.809,2.307-8.489,2.307c-3.378,0-42.612-.139-81.629-.281C278.5,537.407,239.27,537.546,235.891,537.546Z" transform="translate(-20.39 -46.546)" fill="#d3d8e0" fill-rule="evenodd"/><g transform="translate(206.919 408.968)"><path d="M317.661,528.636H237.828c-18.191,0-7.276-5.249-7.276-5.249s14.148-8.48,18.6-12.113,5.255-16.555,5.255-16.555l4.851-46.436H376.069l4.851,46.436s.808,12.921,5.255,16.555,18.594,12.113,18.594,12.113,10.914,5.249-7.275,5.249Z" transform="translate(-227.305 -448.283)" fill="#fff" fill-rule="evenodd"/></g><path d="M317.661,528.636H237.828c-18.191,0-7.276-5.249-7.276-5.249s14.148-8.48,18.6-12.113,5.255-16.555,5.255-16.555l4.851-46.436H376.069l4.851,46.436s.808,12.921,5.255,16.555,18.594,12.113,18.594,12.113,10.914,5.249-7.275,5.249Z" transform="translate(-20.386 -39.315)" fill="none" stroke="#d3d8e0" stroke-width="1" fill-rule="evenodd"/></g><g transform="translate(17592.119 1787.687)"><rect width="547.514" height="309.786" fill="#f2f7fb"/><g transform="translate(246.943 127.997)"><path d="M0,0H53.967V53.967H0Z" fill="none"/><path d="M43.475,38.978V7.5a4.51,4.51,0,0,0-4.5-4.5H7.5A4.51,4.51,0,0,0,3,7.5V38.978a4.51,4.51,0,0,0,4.5,4.5H38.978A4.51,4.51,0,0,0,43.475,38.978ZM15.367,26.611l5.622,6.768,7.87-10.141L38.978,36.729H7.5Z" transform="translate(3.746 3.746)" fill="#dfe2f2"/><ellipse cx="2.743" cy="3.2" rx="2.743" ry="3.2" transform="translate(15.088 17.372)" fill="#fff"/></g></g></g><g transform="translate(136 540)"><g fill="#fff" stroke="#ededed" stroke-width="2"><rect width="316" height="58" rx="7" stroke="none"/><rect x="1" y="1" width="314" height="56" rx="6" fill="none"/></g><text transform="translate(23 37)" fill="#acacac" font-size="20" font-family="Roboto-Regular, Roboto" letter-spacing="-0.015em"><tspan x="0" y="0">Name</tspan></text></g><g transform="translate(462 541)"><path d="M7,0H162a7,7,0,0,1,7,7V49a7,7,0,0,1-7,7H7a7,7,0,0,1-7-7V7A7,7,0,0,1,7,0Z" fill="#18c5bf"/><text transform="translate(40 36)" fill="#fff" font-size="20" font-family="Roboto-Medium, Roboto" font-weight="500" letter-spacing="-0.015em"><tspan x="0" y="0">Click Here</tspan></text></g></svg>