<svg xmlns="http://www.w3.org/2000/svg" width="1440" height="693" viewBox="0 0 1440 693"><rect width="1440" height="693" fill="#fff"/><text transform="translate(375.75 202)" fill="rgba(0,0,0,0.87)" font-size="48" font-family="Roboto-Medium, Roboto" font-weight="500"><tspan x="0" y="0">Easy Way To Create High fidelity </tspan></text><text transform="translate(591.34 265)" fill="rgba(0,0,0,0.87)" font-size="48" font-family="Roboto-Medium, Roboto" font-weight="500"><tspan x="0" y="0">WireFrames</tspan></text><text transform="translate(279.45 335)" fill="rgba(33,33,33,0.87)" font-size="20" font-family="Roboto-Regular, Roboto"><tspan x="0" y="0">Lorem ipsum dolor sit amet, consectetur adipiscing elit, sed do eiusmod tempor incididunt ut labore</tspan></text><g transform="translate(-28)"><g transform="translate(477 479)"><g fill="#fff" stroke="#ededed" stroke-width="2"><rect width="365" height="58" rx="7" stroke="none"/><rect x="1" y="1" width="363" height="56" rx="6" fill="none"/></g><text transform="translate(23 37)" fill="#acacac" font-size="20" font-family="Roboto-Regular, Roboto" letter-spacing="-0.015em"><tspan x="0" y="0">Email Address</tspan></text></g><g transform="translate(850 479)"><path d="M7.414,0H171.586A7.216,7.216,0,0,1,179,7V49a7.216,7.216,0,0,1-7.414,7H7.414A7.216,7.216,0,0,1,0,49V7A7.216,7.216,0,0,1,7.414,0Z" fill="#18c5bf"/><text transform="translate(40 36)" fill="#fff" font-size="20" font-family="Roboto-Medium, Roboto" font-weight="500" letter-spacing="-0.015em"><tspan x="0" y="0">Get Started</tspan></text></g></g></svg>