<svg xmlns="http://www.w3.org/2000/svg" xmlns:xlink="http://www.w3.org/1999/xlink" width="1440" height="809" viewBox="0 0 1440 809"><defs><filter id="a" x="341.002" y="354.999" width="98" height="99" filterUnits="userSpaceOnUse"><feOffset dy="6" input="SourceAlpha"/><feGaussianBlur stdDeviation="5" result="b"/><feFlood flood-color="#ddd" flood-opacity="0.161"/><feComposite operator="in" in2="b"/><feComposite in="SourceGraphic"/></filter><linearGradient id="c" x1="0.676" y1="0.896" x2="0.165" y2="0.311" gradientUnits="objectBoundingBox"><stop offset="0" stop-color="#80f5bc"/><stop offset="1" stop-color="#1ce3dc"/></linearGradient><filter id="d" x="374.199" y="382.469" width="38.183" height="41.547" filterUnits="userSpaceOnUse"><feOffset dy="3" input="SourceAlpha"/><feGaussianBlur stdDeviation="3" result="e"/><feFlood flood-opacity="0.161"/><feComposite operator="in" in2="e"/><feComposite in="SourceGraphic"/></filter></defs><rect width="1440" height="809" fill="#fff"/><g transform="translate(0 49)"><text transform="translate(771 223)" fill="rgba(0,0,0,0.87)" font-size="48" font-family="Roboto-Medium, Roboto" font-weight="500"><tspan x="0" y="0">Easy Way To Create High </tspan><tspan x="0" y="63">fidelity WireFrames</tspan></text><text transform="translate(776 378)" fill="rgba(33,33,33,0.87)" font-size="20" font-family="Roboto-Regular, Roboto"><tspan x="0" y="0">Lorem ipsum dolor sit amet, consectetur </tspan><tspan x="0" y="26">adipiscing elit, sed do eiusmod tempor</tspan></text><g transform="translate(776 481)"><rect width="171" height="58" rx="29" fill="#2e4cff"/><text transform="translate(40 37)" fill="rgba(255,255,255,0.87)" font-size="20" font-family="Roboto-Medium, Roboto" font-weight="500"><tspan x="0" y="0">Click Here</tspan></text></g></g><g transform="translate(-295 -222.354)"><g transform="translate(334 428.433)"><g transform="translate(68.98 362.311)" opacity="0.5"><path d="M625.1,381.143l-56.077,113.2c-2.3,3.263-439.558,3.262-441.861,0l-56.078-113.2C68.778,377.879,627.4,377.881,625.1,381.143Z" transform="translate(-71.075 -378.696)" fill="#fff" fill-rule="evenodd"/></g><g transform="translate(66.784 357.399)" opacity="0.05"><rect width="567.549" height="40.099" rx="20.049"/></g><g transform="translate(81.756 357.621)" opacity="0.5"><rect width="542.143" height="28.31" rx="14.155"/></g><g transform="translate(55.654)"><path d="M57.519,27.817A17.686,17.686,0,0,1,75.206,10.13H625.871a17.686,17.686,0,0,1,17.687,17.687V374.79a17.686,17.686,0,0,1-17.687,17.686H75.205A17.686,17.686,0,0,1,57.519,374.79Z" transform="translate(-57.519 -10.13)" fill="#fff" fill-rule="evenodd"/><path d="M57.519,27.817A17.686,17.686,0,0,1,75.206,10.13H625.871a17.686,17.686,0,0,1,17.687,17.687V374.79a17.686,17.686,0,0,1-17.687,17.686H75.205A17.686,17.686,0,0,1,57.519,374.79Z" transform="translate(-57.519 -10.13)" fill="none" stroke="#d3d8e0" stroke-width="1" fill-rule="evenodd"/></g><rect width="696.284" height="4.634" transform="translate(0.148 378.869)" fill="#fff"/><path d="M112.461,408.345c-94.666,0-111.4-8.11-111.4-8.11l349.3-1.159,346.981,1.159s-16.694,8.11-111.4,8.11Z" transform="translate(-0.907 -16.731)" fill="#fff" fill-rule="evenodd"/><path d="M1.053,400.229v-.34l-.147.646Zm349.3-1.159v-.34h0Zm346.981,1.159.148.306-.147-.646Zm-696.283,0c-.148.306-.148.306-.147.307h0l.012.006.043.02.17.072c.152.062.384.151.71.263.653.226,1.687.546,3.219.928a142.243,142.243,0,0,0,16.148,2.8c16.037,2.03,43.9,4.058,91.245,4.058V408c-47.325,0-75.161-2.027-91.16-4.052A141.37,141.37,0,0,1,5.23,401.166c-1.516-.377-2.53-.692-3.162-.91-.316-.109-.536-.194-.676-.251l-.151-.064-.033-.015H1.2s0,0-.148.3Zm349.3-1.5-349.3,1.159v.68l349.3-1.159Zm0,.68,346.981,1.159v-.68l-346.98-1.159Zm346.982.819c-.148-.306-.148-.306-.148-.307h-.007l-.033.015c-.031.015-.081.035-.151.064-.138.057-.359.143-.674.251-.63.218-1.643.533-3.157.91a141.088,141.088,0,0,1-16.059,2.781c-15.993,2.025-43.83,4.052-91.176,4.052v.68c47.363,0,75.23-2.028,91.262-4.058a141.882,141.882,0,0,0,16.138-2.8c1.531-.382,2.563-.7,3.214-.928.326-.112.558-.2.71-.263l.169-.072.043-.02.013-.006h0ZM585.931,408H350.355v.68H585.931Zm-473.473.68h237.9V408h-237.9Z" transform="translate(-0.905 -16.725)" fill="#d3d8e0"/><rect width="544.19" height="342.386" transform="translate(76.77 19.566)" fill="#f2f7fb"/><path d="M346.7,192.034h18.2a2.723,2.723,0,0,1,2.7,2.7v18.2a2.729,2.729,0,0,1-2.7,2.7H346.7a2.736,2.736,0,0,1-2.7-2.7v-18.2a2.729,2.729,0,0,1,2.7-2.7Zm17.525,19.549c.12,0,.416-.167.674-.674a1.748,1.748,0,0,0,0-.674l-3.37-4.719c.117.028-.194-.181-.674,0-.227-.32-.594-.248-.674,0l-3.37,2.022a.9.9,0,0,1-1.349-.673l-3.37-4.045a1.368,1.368,0,0,0-1.349-.673,2.871,2.871,0,0,0-.95.44c-.135.084-.266.165-.4.233l-2.022,7.415a2.242,2.242,0,0,0,0,.674c.338.551.6.674.673.674Z" transform="translate(-6.727 -13.217)" fill="#dbe1e6" fill-rule="evenodd"/></g><g transform="translate(412 448.354)"><rect width="543" height="345" fill="#f2f7fb"/><g transform="translate(238.562 137.919)"><g transform="matrix(1, 0, 0, 1, -355.56, -363.92)" filter="url(#a)"><ellipse cx="34" cy="34.5" rx="34" ry="34.5" transform="translate(356 364)" fill="#fff"/></g><g transform="matrix(1, 0, 0, 1, -355.56, -363.92)" filter="url(#d)"><path d="M11.773,0,23.547,20.183H0Z" transform="translate(403.38 388.47) rotate(90)" opacity="0.737" fill="url(#c)"/></g></g></g></g></svg>