<svg xmlns="http://www.w3.org/2000/svg" xmlns:xlink="http://www.w3.org/1999/xlink" width="1440" height="942" viewBox="0 0 1440 942"><defs><filter id="a" x="677.005" y="235" width="91" height="92" filterUnits="userSpaceOnUse"><feOffset dy="6" input="SourceAlpha"/><feGaussianBlur stdDeviation="5" result="b"/><feFlood flood-color="#ddd" flood-opacity="0.161"/><feComposite operator="in" in2="b"/><feComposite in="SourceGraphic"/></filter><linearGradient id="c" x1="0.676" y1="0.896" x2="0.165" y2="0.311" gradientUnits="objectBoundingBox"><stop offset="0" stop-color="#80f5bc"/><stop offset="1" stop-color="#1ce3dc"/></linearGradient><filter id="d" x="707.328" y="260.07" width="36.146" height="39.17" filterUnits="userSpaceOnUse"><feOffset dy="3" input="SourceAlpha"/><feGaussianBlur stdDeviation="3" result="e"/><feFlood flood-opacity="0.161"/><feComposite operator="in" in2="e"/><feComposite in="SourceGraphic"/></filter></defs><rect width="1440" height="942" fill="#fff"/><text transform="translate(376.25 566)" fill="rgba(0,0,0,0.87)" font-size="48" font-family="Roboto-Medium, Roboto" font-weight="500"><tspan x="0" y="0">Easy Way To Create High fidelity </tspan></text><text transform="translate(591.84 629)" fill="rgba(0,0,0,0.87)" font-size="48" font-family="Roboto-Medium, Roboto" font-weight="500"><tspan x="0" y="0">WireFrames</tspan></text><text transform="translate(279.45 685)" fill="rgba(33,33,33,0.87)" font-size="20" font-family="Roboto-Regular, Roboto"><tspan x="0" y="0">Lorem ipsum dolor sit amet, consectetur adipiscing elit, sed do eiusmod tempor incididunt ut labore </tspan></text><text transform="translate(616.022 711)" fill="rgba(33,33,33,0.87)" font-size="20" font-family="Roboto-Regular, Roboto"><tspan x="0" y="0">et dolore magna aliqua.</tspan></text><g transform="translate(635 777)"><rect width="171" height="58" rx="29" fill="#2e4cff"/><text transform="translate(40 37)" fill="rgba(255,255,255,0.87)" font-size="20" font-family="Roboto-Medium, Roboto" font-weight="500"><tspan x="0" y="0">Click Here</tspan></text></g><g transform="translate(73 -326.354)"><g transform="translate(334 428.433)"><g transform="translate(62.017 325.738)" opacity="0.5"><path d="M569.173,380.9,518.757,482.672c-2.072,2.933-395.188,2.932-397.258,0L71.082,380.9C69.01,377.961,571.244,377.963,569.173,380.9Z" transform="translate(-71.075 -378.696)" fill="#fff" fill-rule="evenodd"/></g><g transform="translate(60.043 321.322)" opacity="0.05"><rect width="510.259" height="36.051" rx="18.025"/></g><g transform="translate(73.503 321.522)" opacity="0.5"><rect width="487.418" height="25.452" rx="12.726"/></g><g transform="translate(50.036)"><path d="M57.519,26.031a15.9,15.9,0,0,1,15.9-15.9H568.5a15.9,15.9,0,0,1,15.9,15.9V337.98a15.9,15.9,0,0,1-15.9,15.9H73.42a15.9,15.9,0,0,1-15.9-15.9Z" transform="translate(-57.519 -10.13)" fill="#fff" fill-rule="evenodd"/><path d="M57.519,26.031a15.9,15.9,0,0,1,15.9-15.9H568.5a15.9,15.9,0,0,1,15.9,15.9V337.98a15.9,15.9,0,0,1-15.9,15.9H73.42a15.9,15.9,0,0,1-15.9-15.9Z" transform="translate(-57.519 -10.13)" fill="none" stroke="#d3d8e0" stroke-width="1" fill-rule="evenodd"/></g><rect width="625.999" height="4.167" transform="translate(0.133 340.625)" fill="#fff"/><path d="M101.215,407.409c-85.111,0-100.16-7.291-100.16-7.291L315.1,399.076l311.956,1.042s-15.009,7.291-100.159,7.291H101.215Z" transform="translate(-0.922 -55.325)" fill="#fff" fill-rule="evenodd"/><path d="M1.038,400.078v-.306l-.132.581Zm314.042-1.042v-.306h0Zm311.956,1.042.133.275-.132-.581Zm-626,0c-.133.275-.133.275-.133.276h0l.011.005.039.018.153.065c.137.056.345.136.639.237.587.2,1.516.491,2.894.834a127.878,127.878,0,0,0,14.518,2.513c14.418,1.825,39.472,3.648,82.035,3.648v-.612c-42.548,0-67.574-1.822-81.958-3.643a127.1,127.1,0,0,1-14.447-2.5c-1.363-.339-2.275-.622-2.843-.818-.284-.1-.482-.174-.607-.225l-.135-.057-.03-.013H1.166s0-.006-.128.272Zm314.041-1.348L1.037,399.772v.612l314.043-1.042Zm0,.612,311.956,1.042v-.612L315.082,398.73Zm311.957.736c-.133-.275-.133-.275-.133-.276H626.9l-.03.013c-.028.013-.072.032-.135.057-.125.051-.322.128-.606.225-.567.2-1.477.479-2.838.818a126.853,126.853,0,0,1-14.438,2.5c-14.379,1.821-39.4,3.643-81.973,3.643v.612c42.582,0,67.636-1.823,82.049-3.648a127.566,127.566,0,0,0,14.509-2.513c1.376-.344,2.3-.631,2.89-.834.293-.1.5-.181.638-.237l.152-.065.039-.018.011-.005h0Zm-100.159,6.986H315.08v.612h211.8Zm-425.679.612H315.08v-.612H101.2Z" transform="translate(-0.905 -55.285)" fill="#d3d8e0"/><rect width="489.258" height="307.824" transform="translate(69.021 17.591)" fill="#f2f7fb"/><path d="M346.424,192.034h16.363a2.448,2.448,0,0,1,2.424,2.424v16.363a2.454,2.454,0,0,1-2.424,2.424H346.424A2.46,2.46,0,0,1,344,210.821V194.458A2.454,2.454,0,0,1,346.424,192.034Zm15.756,17.575c.108,0,.374-.15.606-.606a1.571,1.571,0,0,0,0-.606l-3.03-4.242c.105.025-.174-.163-.606,0-.2-.288-.534-.223-.606,0l-3.03,1.818a.8.8,0,0,1-1.213-.605l-3.03-3.637a1.23,1.23,0,0,0-1.213-.6,2.581,2.581,0,0,0-.854.4c-.121.075-.24.148-.358.209l-1.818,6.667a2.017,2.017,0,0,0,0,.606c.3.5.538.606.605.606Z" transform="translate(-40.772 -31.267)" fill="#dbe1e6" fill-rule="evenodd"/></g><g transform="translate(404 446.354)"><rect width="488" height="310" fill="#f2f7fb"/><g transform="translate(214.875 124.07)"><g transform="matrix(1, 0, 0, 1, -691.88, -244.07)" filter="url(#a)"><ellipse cx="30.5" cy="31" rx="30.5" ry="31" transform="translate(692 244)" fill="#fff"/></g><g transform="matrix(1, 0, 0, 1, -691.88, -244.07)" filter="url(#d)"><path d="M10.585,0,21.17,18.146H0Z" transform="translate(734.47 266.07) rotate(90)" opacity="0.737" fill="url(#c)"/></g></g></g></g></svg>