<svg xmlns="http://www.w3.org/2000/svg" xmlns:xlink="http://www.w3.org/1999/xlink" width="1440" height="878" viewBox="0 0 1440 878"><defs><clipPath id="a"><rect width="1186" height="630" transform="translate(17760 7224)" fill="#fff" stroke="#707070" stroke-width="1"/></clipPath><filter id="b" x="281" y="518" width="402.809" height="460.809" filterUnits="userSpaceOnUse"><feOffset dy="7" input="SourceAlpha"/><feGaussianBlur stdDeviation="15" result="c"/><feFlood flood-color="#aaa" flood-opacity="0.161"/><feComposite operator="in" in2="c"/><feComposite in="SourceGraphic"/></filter><filter id="d" x="742" y="518" width="402.809" height="460.809" filterUnits="userSpaceOnUse"><feOffset dy="7" input="SourceAlpha"/><feGaussianBlur stdDeviation="15" result="e"/><feFlood flood-color="#aaa" flood-opacity="0.161"/><feComposite operator="in" in2="e"/><feComposite in="SourceGraphic"/></filter><filter id="f" x="513" y="469" width="402.809" height="460.809" filterUnits="userSpaceOnUse"><feOffset dy="7" input="SourceAlpha"/><feGaussianBlur stdDeviation="15" result="g"/><feFlood flood-color="#aaa" flood-opacity="0.161"/><feComposite operator="in" in2="g"/><feComposite in="SourceGraphic"/></filter></defs><rect width="1440" height="875" fill="#fff"/><text transform="translate(376.25 150)" fill="rgba(0,0,0,0.87)" font-size="48" font-family="Roboto-Medium, Roboto" font-weight="500"><tspan x="0" y="0">Easy Way To Create High fidelity </tspan></text><text transform="translate(591.84 213)" fill="rgba(0,0,0,0.87)" font-size="48" font-family="Roboto-Medium, Roboto" font-weight="500"><tspan x="0" y="0">WireFrames</tspan></text><text transform="translate(279.45 269)" fill="rgba(33,33,33,0.87)" font-size="20" font-family="Roboto-Regular, Roboto"><tspan x="0" y="0">Lorem ipsum dolor sit amet, consectetur adipiscing elit, sed do eiusmod tempor incididunt ut labore </tspan></text><text transform="translate(616.022 295)" fill="rgba(33,33,33,0.87)" font-size="20" font-family="Roboto-Regular, Roboto"><tspan x="0" y="0">et dolore magna aliqua.</tspan></text><g transform="translate(635 361)"><rect width="171" height="58" rx="29" fill="#2e4cff"/><text transform="translate(40 37)" fill="rgba(255,255,255,0.87)" font-size="20" font-family="Roboto-Medium, Roboto" font-weight="500"><tspan x="0" y="0">Click Here</tspan></text></g><g transform="translate(-17640 -6976)" clip-path="url(#a)"><g transform="translate(17621 7013)"><g transform="translate(345 519)"><g transform="matrix(1, 0, 0, 1, -326, -556)" filter="url(#b)"><rect width="312.809" height="370.809" transform="translate(326 556)" fill="#f2f7fb"/></g><g transform="translate(126.98 156)"><path d="M0,0H59.023V59.023H0Z" fill="none"/><path d="M47.267,42.349V7.919A4.933,4.933,0,0,0,42.349,3H7.919A4.933,4.933,0,0,0,3,7.919v34.43a4.933,4.933,0,0,0,4.919,4.919h34.43a4.933,4.933,0,0,0,4.918-4.919ZM16.526,28.823l6.148,7.4,8.608-11.091L42.349,39.889H7.919Z" transform="translate(4.378 4.378)" fill="#dfe2f2"/><ellipse cx="3" cy="3.5" rx="3" ry="3.5" transform="translate(16.02 19)" fill="#fff"/></g></g><g transform="translate(806 519)"><g transform="matrix(1, 0, 0, 1, -787, -556)" filter="url(#d)"><rect width="312.809" height="370.809" transform="translate(787 556)" fill="#f2f7fb"/></g><g transform="translate(126.98 156)"><path d="M0,0H59.023V59.023H0Z" fill="none"/><path d="M47.267,42.349V7.919A4.933,4.933,0,0,0,42.349,3H7.919A4.933,4.933,0,0,0,3,7.919v34.43a4.933,4.933,0,0,0,4.919,4.919h34.43a4.933,4.933,0,0,0,4.918-4.919ZM16.526,28.823l6.148,7.4,8.608-11.091L42.349,39.889H7.919Z" transform="translate(4.378 4.378)" fill="#dfe2f2"/><ellipse cx="3" cy="3.5" rx="3" ry="3.5" transform="translate(16.02 19)" fill="#fff"/></g></g><g transform="translate(577 470)"><g transform="matrix(1, 0, 0, 1, -558, -507)" filter="url(#f)"><rect width="312.809" height="370.809" transform="translate(558 507)" fill="#f2f7fb"/></g><g transform="translate(126.98 156)"><path d="M0,0H59.023V59.023H0Z" fill="none"/><path d="M47.267,42.349V7.919A4.933,4.933,0,0,0,42.349,3H7.919A4.933,4.933,0,0,0,3,7.919v34.43a4.933,4.933,0,0,0,4.919,4.919h34.43a4.933,4.933,0,0,0,4.918-4.919ZM16.526,28.823l6.148,7.4,8.608-11.091L42.349,39.889H7.919Z" transform="translate(4.378 4.378)" fill="#dfe2f2"/><ellipse cx="3" cy="3.5" rx="3" ry="3.5" transform="translate(16.02 19)" fill="#fff"/></g></g></g></g></svg>