<svg xmlns="http://www.w3.org/2000/svg" width="1440" height="809" viewBox="0 0 1440 809"><rect width="1440" height="809" fill="#fff"/><text transform="translate(135 269)" fill="rgba(0,0,0,0.87)" font-size="48" font-family="Roboto-Medium, Roboto" font-weight="500"><tspan x="0" y="0">Easy Way To Create High </tspan><tspan x="0" y="63">fidelity WireFrames</tspan></text><text transform="translate(136 430)" fill="rgba(33,33,33,0.87)" font-size="20" font-family="Roboto-Regular, Roboto"><tspan x="0" y="0">Lorem ipsum dolor sit amet, consectetur </tspan><tspan x="0" y="26">adipiscing elit, sed do eiusmod tempor</tspan></text><g transform="translate(136 527)"><rect width="171" height="58" rx="29" fill="#2e4cff"/><text transform="translate(40 37)" fill="rgba(255,255,255,0.87)" font-size="20" font-family="Roboto-Medium, Roboto" font-weight="500"><tspan x="0" y="0">Click Here</tspan></text></g><g transform="translate(120 70)"><circle cx="2" cy="2" r="2" transform="translate(574 476)" fill="#2e4cff"/><circle cx="2" cy="2" r="2" transform="translate(546 476)" fill="#2e4cff"/><circle cx="2" cy="2" r="2" transform="translate(574 504)" fill="#2e4cff"/><circle cx="2" cy="2" r="2" transform="translate(546 504)" fill="#2e4cff"/><circle cx="2" cy="2" r="2" transform="translate(574 532)" fill="#2e4cff"/><circle cx="2" cy="2" r="2" transform="translate(546 532)" fill="#2e4cff"/><circle cx="2" cy="2" r="2" transform="translate(574 560)" fill="#2e4cff"/><circle cx="2" cy="2" r="2" transform="translate(546 560)" fill="#2e4cff"/><circle cx="2" cy="2" r="2" transform="translate(574 588)" fill="#2e4cff"/><circle cx="2" cy="2" r="2" transform="translate(546 588)" fill="#2e4cff"/><circle cx="2" cy="2" r="2" transform="translate(574 616)" fill="#2e4cff"/><circle cx="2" cy="2" r="2" transform="translate(546 616)" fill="#2e4cff"/><circle cx="2" cy="2" r="2" transform="translate(599 616)" fill="#2e4cff"/><circle cx="2" cy="2" r="2" transform="translate(599 588)" fill="#2e4cff"/><circle cx="2" cy="2" r="2" transform="translate(599 560)" fill="#2e4cff"/><circle cx="2" cy="2" r="2" transform="translate(599 532)" fill="#2e4cff"/><circle cx="2" cy="2" r="2" transform="translate(599 504)" fill="#2e4cff"/><circle cx="2" cy="2" r="2" transform="translate(599 476)" fill="#2e4cff"/><circle cx="2" cy="2" r="2" transform="translate(627 476)" fill="#2e4cff"/><circle cx="2" cy="2" r="2" transform="translate(627 504)" fill="#2e4cff"/><circle cx="2" cy="2" r="2" transform="translate(627 532)" fill="#2e4cff"/><circle cx="2" cy="2" r="2" transform="translate(627 560)" fill="#2e4cff"/><circle cx="2" cy="2" r="2" transform="translate(627 588)" fill="#2e4cff"/><circle cx="2" cy="2" r="2" transform="translate(655 588)" fill="#2e4cff"/><circle cx="2" cy="2" r="2" transform="translate(655 560)" fill="#2e4cff"/><circle cx="2" cy="2" r="2" transform="translate(655 532)" fill="#2e4cff"/><circle cx="2" cy="2" r="2" transform="translate(655 504)" fill="#2e4cff"/><circle cx="2" cy="2" r="2" transform="translate(655 476)" fill="#2e4cff"/><circle cx="2" cy="2" r="2" transform="translate(683 476)" fill="#2e4cff"/><circle cx="2" cy="2" r="2" transform="translate(711 476)" fill="#2e4cff"/><circle cx="2" cy="2" r="2" transform="translate(739 476)" fill="#2e4cff"/><circle cx="2" cy="2" r="2" transform="translate(683 504)" fill="#2e4cff"/><circle cx="2" cy="2" r="2" transform="translate(711 504)" fill="#2e4cff"/><circle cx="2" cy="2" r="2" transform="translate(739 504)" fill="#2e4cff"/><circle cx="2" cy="2" r="2" transform="translate(683 532)" fill="#2e4cff"/><circle cx="2" cy="2" r="2" transform="translate(711 532)" fill="#2e4cff"/><circle cx="2" cy="2" r="2" transform="translate(739 532)" fill="#2e4cff"/><circle cx="2" cy="2" r="2" transform="translate(683 560)" fill="#2e4cff"/><circle cx="2" cy="2" r="2" transform="translate(711 560)" fill="#2e4cff"/><circle cx="2" cy="2" r="2" transform="translate(739 560)" fill="#2e4cff"/><circle cx="2" cy="2" r="2" transform="translate(683 588)" fill="#2e4cff"/><circle cx="2" cy="2" r="2" transform="translate(711 588)" fill="#2e4cff"/><circle cx="2" cy="2" r="2" transform="translate(739 588)" fill="#2e4cff"/><circle cx="2" cy="2" r="2" transform="translate(627 616)" fill="#2e4cff"/><circle cx="2" cy="2" r="2" transform="translate(655 616)" fill="#2e4cff"/><circle cx="2" cy="2" r="2" transform="translate(683 616)" fill="#2e4cff"/><circle cx="2" cy="2" r="2" transform="translate(711 616)" fill="#2e4cff"/><circle cx="2" cy="2" r="2" transform="translate(739 616)" fill="#2e4cff"/></g><path d="M0,0H704V760H150A150,150,0,0,1,0,610Z" transform="translate(736)" fill="#f2f7fb"/><g transform="translate(928.001 119)"><g transform="translate(16 6)"><path d="M36,0H251.123a36,36,0,0,1,36,36V473.6a36,36,0,0,1-36,36H36a36,36,0,0,1-36-36V36A36,36,0,0,1,36,0Z" fill="#fff" stroke="#ededed" stroke-width="1"/></g><rect width="264.723" height="487.2" rx="24" transform="translate(27 17)" fill="#f2f7fb" stroke="#ededed" stroke-width="1"/><path d="M130.743,249h18.514A2.77,2.77,0,0,1,152,251.743v18.514A2.776,2.776,0,0,1,149.257,273H130.743A2.783,2.783,0,0,1,128,270.257V251.743A2.777,2.777,0,0,1,130.743,249Zm17.828,19.886c.122,0,.423-.169.686-.686a1.779,1.779,0,0,0,0-.686l-3.428-4.8c.119.029-.2-.183-.686,0-.231-.326-.6-.251-.686,0l-3.428,2.057a.911.911,0,0,1-1.372-.685l-3.428-4.115a1.392,1.392,0,0,0-1.372-.685,2.92,2.92,0,0,0-.966.448c-.137.085-.271.169-.4.237l-2.057,7.543a2.267,2.267,0,0,0,0,.686c.344.561.609.686.685.686Z" transform="translate(19.915)" fill="#dbe1e6" stroke="#ededed" stroke-width="1" fill-rule="evenodd"/><path d="M79.2,16.8H200.4v4a13.6,13.6,0,0,1-13.6,13.6h-94A13.6,13.6,0,0,1,79.2,20.8Z" transform="translate(19.893)" fill="#fff"/></g></svg>