<svg xmlns="http://www.w3.org/2000/svg" width="1440" height="395" viewBox="0 0 1440 395"><rect width="1440" height="395" fill="#fff"/><g transform="translate(-1 -89)"><text transform="translate(152 239)" fill="rgba(0,0,0,0.87)" font-size="48" font-family="Roboto-Medium, Roboto" font-weight="500"><tspan x="0" y="0">Easy Way To Create High </tspan><tspan x="0" y="63">fidelity WireFrames</tspan></text><text transform="translate(152 374)" fill="rgba(33,33,33,0.87)" font-size="20" font-family="Roboto-Regular, Roboto"><tspan x="0" y="0">Lorem ipsum dolor sit amet, consectetur adipiscing elit,</tspan></text><g transform="translate(0 8)"><g transform="translate(903 212)"><g fill="#fff" stroke="#ededed" stroke-width="2"><rect width="365" height="58" rx="7" stroke="none"/><rect x="1" y="1" width="363" height="56" rx="6" fill="none"/></g><text transform="translate(23 37)" fill="#acacac" font-size="20" font-family="Roboto-Regular, Roboto" letter-spacing="-0.015em"><tspan x="0" y="0">Email Address</tspan></text></g><g transform="translate(906 291)"><path d="M14.953,0H346.047C354.306,0,361,3.134,361,7V49c0,3.866-6.694,7-14.953,7H14.953C6.7,56,0,52.866,0,49V7C0,3.134,6.7,0,14.953,0Z" fill="#18c5bf"/><text transform="translate(131.646 36)" fill="#fff" font-size="20" font-family="Roboto-Medium, Roboto" font-weight="500" letter-spacing="-0.015em"><tspan x="0" y="0">Get Started</tspan></text></g></g></g></svg>