<svg xmlns="http://www.w3.org/2000/svg" width="16" height="16" viewBox="0 0 16 16">
  <g id="Icon" transform="translate(0 -12)">
    <rect id="icon_area" data-name="icon area" width="16" height="16" transform="translate(0 12)" fill="#707070" opacity="0"/>
    <g id="Smock_GraphPathing_18_N" transform="translate(0 12)">
      <rect id="Canvas" width="16" height="16" fill="#707070" opacity="0"/>
      <rect id="Rectangle_147672" data-name="Rectangle 147672" width="2.667" height="5.333" rx="0.25" transform="translate(0.889 0.889)" fill="#707070"/>
      <rect id="Rectangle_147673" data-name="Rectangle 147673" width="3.556" height="3.556" rx="0.25" transform="translate(11.556 0.889)" fill="#707070"/>
      <rect id="Rectangle_147674" data-name="Rectangle 147674" width="3.556" height="3.556" rx="0.25" transform="translate(11.556 6.222)" fill="#707070"/>
      <rect id="Rectangle_147675" data-name="Rectangle 147675" width="3.556" height="3.556" rx="0.25" transform="translate(11.556 11.556)" fill="#707070"/>
      <path id="Path_60900" data-name="Path 60900" d="M11.222,3.046a.226.226,0,0,1-.228.222,12.464,12.464,0,0,1-3.267-.484,10.075,10.075,0,0,0-2.506-.4A.222.222,0,0,1,5,2.162V1.718a.227.227,0,0,1,.23-.222,10.946,10.946,0,0,1,2.718.429A11.733,11.733,0,0,0,11,2.38a.222.222,0,0,1,.222.222Z" transform="translate(-0.555 -0.166)" fill="#707070"/>
      <path id="Path_60901" data-name="Path 60901" d="M11.222,8.392A.222.222,0,0,1,11,8.615h-.011c-1.305-.1-1.873-1.093-2.423-2.05C7.885,5.38,7.24,4.259,5.219,4.184A.222.222,0,0,1,5,3.967V3.522A.224.224,0,0,1,5.227,3.3h0c2.533.086,3.4,1.6,4.107,2.828.544.948.909,1.516,1.675,1.6a.227.227,0,0,1,.21.222Z" transform="translate(-0.556 -0.367)" fill="#707070"/>
      <path id="Path_60902" data-name="Path 60902" d="M11.222,14.146a.227.227,0,0,1-.263.222c-1.422-.192-2.044-1.949-2.7-3.8C7.559,8.593,6.836,6.556,5.21,6.4A.224.224,0,0,1,5,6.174V5.726A.222.222,0,0,1,5.222,5.5h.011c2.231.159,3.1,2.6,3.862,4.764.555,1.565,1.081,3.05,1.963,3.213a.213.213,0,0,1,.164.214Z" transform="translate(-0.556 -0.612)" fill="#707070"/>
    </g>
  </g>
</svg>
