
<svg xmlns="http://www.w3.org/2000/svg" width="150" height="150" fill="none" viewBox="0 0 150 150">
    <path fill="#ECECEC" fill-rule="evenodd" d="M89.301 103.077c-22.515 0-40.77 5.97-40.77 13.332 0 7.362 18.255 13.335 40.77 13.335 22.515 0 40.77-5.97 40.77-13.335 0-7.365-18.255-13.332-40.77-13.332z" clip-rule="evenodd"/>
    <path fill="#5854FF" fill-rule="evenodd" d="M82.5 110.7c-.463.003-.852-.346-.9-.807l-.135-1.341c-.648-6.342-1.2-11.82-4.065-18.3-.133-.295-.098-.639.092-.9.19-.262.507-.401.828-.365.322.036.6.242.727.54 2.97 6.731 3.543 12.341 4.2 18.833l.138 1.338c.05.494-.308.935-.801.987-.028.007-.056.012-.084.015z" clip-rule="evenodd"/>
    <path fill="#FFC329" fill-rule="evenodd" d="M88.836 118.701c-.451-.003-.83-.339-.888-.787-.056-.447.227-.868.663-.983.6-.159 3.465-1.323 5.172-2.019l1.299-.528c.6-.243 1.227-.492 1.629.168.23.378.152.868-.186 1.155-.108.09-.235.155-.372.189-.216.081-.966.387-1.692.681-2.559 1.044-4.728 1.92-5.4 2.1-.074.018-.15.026-.225.024z" clip-rule="evenodd"/>
    <path fill="#FF3666" fill-rule="evenodd" d="M86.754 119.001c-.934.032-1.856-.221-2.643-.726-1.095-.735-1.764-1.995-1.989-3.744-.225-1.749-.405-3.426-.564-4.968-.051-.497.31-.942.807-.993.497-.051.942.31.993.807.156 1.53.333 3.186.558 4.923.156 1.2.564 2.049 1.2 2.484.756.507 1.929.558 3.495.147.472-.105.944.182 1.066.65.123.469-.147.95-.61 1.09-.754.209-1.531.32-2.313.33z" clip-rule="evenodd"/>
    <path fill="#5854FF" fill-rule="evenodd" d="M55.602 96.969c-.421 0-.786-.291-.879-.702-.093-.41.112-.83.492-1.011 4.185-1.989 10.098-4.416 14.847-6.366 1.962-.807 3.816-1.566 5.226-2.166.298-.14.65-.106.916.089s.403.52.359.847c-.045.327-.265.603-.573.72-1.416.6-3.276 1.368-5.244 2.175-4.731 1.941-10.617 4.359-14.76 6.327-.12.058-.251.088-.384.087z" clip-rule="evenodd"/>
    <path fill="#FFC329" fill-rule="evenodd" d="M49.293 133.872c-.487 0-.885-.387-.9-.873-.12-3.69-.264-7.551-.402-11.286-.132-3.501-.255-6.807-.36-9.954-.017-.497.373-.914.87-.93.497-.017.913.373.93.87.105 3.144.228 6.45.357 9.948.138 3.735.282 7.599.405 11.295.007.239-.08.47-.244.644-.164.174-.39.276-.629.283l-.027.003z" clip-rule="evenodd"/>
    <path fill="#FF3666" fill-rule="evenodd" d="M48.531 112.629c-.486 0-.884-.385-.9-.87-.063-1.902-.111-3.684-.15-5.451-.075-3.324.699-5.958 2.301-7.827.447-.522 1.5-1.383 5.805-3.402.291-.137.633-.109.897.075.265.183.411.493.384.814-.026.32-.222.603-.513.74-3.9 1.839-4.941 2.634-5.208 2.943-1.302 1.521-1.929 3.75-1.866 6.618.039 1.761.087 3.537.15 5.43.008.239-.079.471-.242.645-.163.175-.39.277-.628.285h-.03z" clip-rule="evenodd"/>
    <path fill="#5854FF" fill-rule="evenodd" d="M96.33 83.132c-1.715.003-3.427-.148-5.115-.45-6.585-1.208-12.58-4.574-17.04-9.567-.318-.371-.28-.929.084-1.255.365-.326.922-.301 1.257.055 4.192 4.695 9.827 7.861 16.017 9 8.316 1.5 17.427-1.02 24.366-6.708.247-.214.592-.278.9-.165.308.113.53.384.58.708.05.324-.081.65-.34.85-5.94 4.868-13.401 7.532-20.71 7.532z" clip-rule="evenodd"/>
    <path fill="#FFC329" fill-rule="evenodd" d="M116.469 75.8c-.38 0-.719-.239-.847-.597s-.017-.758.277-.999C123.3 68.132 128.1 58.623 128.4 49.38c.155-4.233-.733-8.438-2.586-12.247-.155-.289-.14-.64.038-.915.179-.275.493-.431.82-.408.328.024.616.224.753.523 1.988 4.074 2.941 8.576 2.775 13.107-.315 9.744-5.355 19.767-13.152 26.157-.163.133-.368.205-.579.203z" clip-rule="evenodd"/>
    <path fill="#FF3666" fill-rule="evenodd" d="M111.9 40.502c-.932.009-1.861-.107-2.763-.345-2.97-.807-5.868-3.783-5.385-7.707.369-3 2.751-5.805 5.793-6.8 2.4-.787 5.073-.54 7.947.731 4.665 2.064 8.457 6.183 10.677 11.598.135.3.096.65-.103.913-.198.262-.524.396-.849.347-.326-.048-.599-.27-.713-.579-2.043-4.98-5.502-8.757-9.741-10.635-2.463-1.086-4.698-1.308-6.663-.666-2.028.666-4.248 2.7-4.569 5.313-.357 2.916 1.83 5.14 4.071 5.748 2.616.711 5.616-.05 8.262-.723.316-.093.658-.007.892.226.233.234.32.576.227.892-.094.316-.352.556-.675.625-1.908.49-4.176 1.062-6.408 1.062z" clip-rule="evenodd"/>
    <path fill="#5854FF" fill-rule="evenodd" d="M52.26 77.888c-.576 0-1.155-.015-1.731-.05-6.054-.364-12.171-2.728-17.229-6.655-.272-.19-.416-.515-.376-.845.04-.33.259-.61.568-.73.31-.12.66-.06.912.156 4.773 3.705 10.539 5.934 16.233 6.276 6.284.348 12.504-1.405 17.682-4.983.264-.194.614-.23.912-.091.298.138.497.427.52.755.022.327-.136.641-.412.818-5.023 3.466-10.977 5.33-17.079 5.35z" clip-rule="evenodd"/>
    <path fill="#FFC329" fill-rule="evenodd" d="M34.698 72.153c-.189 0-.373-.06-.525-.171-2.692-1.954-5.08-4.296-7.083-6.951C21 57 18.465 46.059 20.448 36.513c.132-.633.3-1.272.462-1.896.086-.31.331-.55.643-.63.311-.08.642.012.867.241.225.23.31.562.224.872-.165.585-.3 1.182-.435 1.776-1.878 9.054.543 19.425 6.318 27.066 1.896 2.514 4.155 4.732 6.702 6.582.314.23.444.636.324 1.005-.121.37-.466.62-.855.621v.003z" clip-rule="evenodd"/>
    <path fill="#FF3666" fill-rule="evenodd" d="M21.33 37.596c-.061 0-.123-.006-.183-.018-.234-.048-.44-.188-.57-.388-.132-.2-.178-.443-.129-.677 2.1-10.068 9.231-17.877 17.766-19.428 3.093-.561 5.748-.171 7.896 1.155 2.724 1.683 4.383 4.962 4.035 7.974-.453 3.927-3.969 6.138-7.044 6.225-3.183.087-6.27-1.542-8.754-2.853-.416-.243-.566-.771-.34-1.197.224-.426.745-.599 1.18-.393 2.4 1.275 5.157 2.721 7.863 2.643 2.322-.066 4.971-1.71 5.307-4.632.3-2.613-1.38-5.1-3.192-6.234-1.758-1.089-3.99-1.395-6.627-.918-7.824 1.422-14.385 8.664-16.338 18.024-.086.413-.448.712-.87.717z" clip-rule="evenodd"/>
    <path fill="#5854FF" fill-rule="evenodd" d="M75.03 92.403c16.622 0 30.096-13.475 30.096-30.096 0-16.622-13.474-30.096-30.096-30.096S44.934 45.685 44.934 62.307c0 16.621 13.474 30.096 30.096 30.096z" clip-rule="evenodd"/>
    <path fill="#423FBF" fill-rule="evenodd" d="M94.947 39.744c10.515 11.924 9.943 29.97-1.306 41.205-11.25 11.234-29.297 11.782-41.207 1.25 7.365 8.326 18.719 11.914 29.53 9.333 10.812-2.58 19.321-10.909 22.133-21.662 2.812-10.754-.532-22.182-8.697-29.724-.153-.138-.3-.27-.453-.402zM73.947 51.474c.918 0 1.662-.744 1.662-1.662 0-.918-.744-1.662-1.662-1.662-.918 0-1.662.744-1.662 1.662 0 .918.744 1.662 1.662 1.662zM60.693 49.275c.918 0 1.662-.744 1.662-1.662 0-.918-.744-1.662-1.662-1.662-.918 0-1.662.744-1.662 1.662 0 .918.744 1.662 1.662 1.662z" clip-rule="evenodd"/>
    <path fill="#423FBF" fill-rule="evenodd" d="M66.756 76.182c-1.416-.001-2.82-.243-4.155-.717-3.267-1.2-5.589-3.25-6.375-5.667-.277-.848-.503-1.711-.675-2.586-.066-.27.024-.555.232-.74.209-.183.502-.237.762-.139.26.099.445.333.479.609.163.811.372 1.613.627 2.4.633 1.947 2.673 3.71 5.457 4.719 3.546 1.263 7.656.546 9.774-1.704.598-.619 1.141-1.288 1.623-2.001.223-.339.676-.439 1.02-.225.346.213.459.663.255 1.014-.53.8-1.133 1.55-1.8 2.24-1.719 1.813-4.38 2.797-7.224 2.797zM66.471 65.655h-2.754c-.226.002-.44-.098-.584-.273-.143-.175-.198-.406-.151-.627l2.934-14.604c.054-.263.243-.477.497-.562.255-.084.535-.027.735.15.201.178.292.45.238.712l-2.754 13.707h1.839c.414 0 .75.336.75.75s-.336.75-.75.75v-.003z" clip-rule="evenodd"/>
    <path fill="#9B98FF" fill-rule="evenodd" d="M75.14 37.6c3.346-.141 6.02-1.179 5.971-2.318-.048-1.139-2.799-1.947-6.145-1.806-3.345.141-6.018 1.18-5.97 2.318.048 1.139 2.8 1.948 6.145 1.806z" clip-rule="evenodd"/>
    <path fill="#5854FF" fill-rule="evenodd" d="M75.351 35.832c-.21.003-.418-.051-.6-.156-.577-.327-.78-1.059-.453-1.635l3.792-6.684c.214-.375.612-.607 1.045-.61.432-.001.832.227 1.05.6.217.374.22.835.005 1.21l-3.792 6.684c-.218.37-.617.596-1.047.59z" clip-rule="evenodd"/>
    <path fill="#5854FF" fill-rule="evenodd" d="M75.237 35.775c-.644 0-1.174-.508-1.2-1.152l-.342-8.1c-.028-.663.486-1.223 1.149-1.25.663-.03 1.223.485 1.251 1.148l.342 8.1c.027.662-.487 1.22-1.149 1.248l-.051.006z" clip-rule="evenodd"/>
    <path fill="#5854FF" fill-rule="evenodd" d="M74.811 35.898c-.427-.002-.821-.23-1.035-.6L69.933 28.8c-.263-.371-.294-.859-.08-1.26.215-.401.638-.646 1.092-.634.455.013.863.282 1.055.694l3.846 6.495c.162.274.209.601.13.91-.08.308-.279.572-.553.734-.186.107-.397.162-.612.159z" clip-rule="evenodd"/>
</svg>
