
<svg xmlns="http://www.w3.org/2000/svg" width="100" height="22" fill="none" viewBox="0 0 100 22">
    <mask id="nfshb3dhja" width="12" height="11" x="10" y="11" maskUnits="userSpaceOnUse">
        <path fill="#fff" fill-rule="evenodd" d="M10.611 11h10.612v11H10.61V11z" clip-rule="evenodd"/>
    </mask>
    <g mask="url(#nfshb3dhja)">
        <path fill="#5854FF" fill-rule="evenodd" d="M10.611 11h10.612c0 6.075-4.751 11-10.612 11V11z" clip-rule="evenodd"/>
    </g>
    <path fill="#FF3666" fill-rule="evenodd" d="M10.611 0H0v11c0 6.075 4.75 11 10.611 11V0z" clip-rule="evenodd"/>
    <mask id="hf3xwfdk1b" width="12" height="11" x="10" y="0" maskUnits="userSpaceOnUse">
        <path fill="#fff" fill-rule="evenodd" d="M10.611 0h10.612v11H10.61V0z" clip-rule="evenodd"/>
    </mask>
    <g mask="url(#hf3xwfdk1b)">
        <path fill="#FFC329" fill-rule="evenodd" d="M21.223 5.5c0 3.038-2.376 5.5-5.306 5.5S10.61 8.538 10.61 5.5 12.987 0 15.917 0s5.306 2.462 5.306 5.5z" clip-rule="evenodd"/>
    </g>
    <path fill="#4A4A59" d="M36.5 13.099V8.186h2.372v8.556h-2.278v-1.554h-.09c-.192.5-.514.904-.963 1.208-.445.305-.99.457-1.632.457-.861 0-1.56-.286-2.095-.858-.53-.575-.798-1.363-.802-2.362V8.186h2.373v5.024c.004.505.14.904.407 1.198.267.293.626.44 1.075.44.427 0 .806-.149 1.137-.446.334-.297.499-.731.495-1.303zm11.39-2.474l-2.173.134c-.06-.275-.21-.51-.451-.707-.242-.197-.569-.296-.98-.296-.368 0-.68.078-.937.234-.252.153-.377.357-.373.613-.004.204.076.377.24.518.167.141.45.255.846.34l1.55.312c1.644.338 2.469 1.11 2.472 2.317 0 .56-.165 1.053-.495 1.476-.327.424-.777.754-1.349.992-.571.234-1.227.35-1.966.35-1.133 0-2.035-.235-2.707-.707-.672-.475-1.064-1.121-1.175-1.938l2.334-.123c.074.35.245.613.512.791.271.179.618.268 1.042.268.416 0 .75-.082 1.002-.245.257-.164.387-.372.39-.624-.01-.424-.377-.708-1.097-.853l-1.482-.295c-1.656-.33-2.48-1.145-2.473-2.445-.004-.825.325-1.475.986-1.95.665-.475 1.545-.713 2.64-.713 1.081 0 1.931.229 2.551.685.624.457.988 1.08 1.092 1.866zm5.588 6.284c-.877 0-1.632-.178-2.267-.535-.635-.36-1.124-.869-1.465-1.526-.342-.661-.513-1.443-.513-2.345 0-.88.171-1.653.513-2.318.341-.664.822-1.182 1.442-1.554.624-.371 1.356-.557 2.195-.557.754 0 1.434.16 2.039.48.609.319 1.092.801 1.448 1.447.357.643.535 1.449.535 2.418v.652h-5.827v.005c0 .64.175 1.142.524 1.51.35.368.82.551 1.415.551.397 0 .74-.083 1.03-.25.29-.167.494-.414.613-.741l2.195.145c-.167.794-.59 1.43-1.27 1.905-.68.475-1.549.713-2.607.713zm-1.9-5.309h3.593c-.003-.509-.167-.928-.49-1.259-.323-.33-.743-.495-1.259-.495-.527 0-.96.17-1.298.512-.338.342-.52.756-.546 1.242zm7.42 5.142V5.333h2.373v4.29h.073c.107-.234.26-.47.456-.708.197-.237.457-.436.78-.596.323-.163.723-.245 1.198-.245.627 0 1.203.164 1.727.49.523.323.943.812 1.259 1.465.319.65.479 1.465.479 2.446 0 .954-.154 1.76-.463 2.417-.308.654-.724 1.15-1.248 1.488-.523.334-1.11.501-1.76.501-.46 0-.852-.076-1.175-.228-.32-.153-.581-.344-.786-.574-.2-.234-.356-.47-.467-.708h-.106v1.37h-2.34zm2.323-4.278c0 .76.156 1.374.468 1.838.316.46.76.69 1.331.69.583 0 1.029-.233 1.337-.701.308-.472.463-1.08.463-1.827 0-.743-.155-1.345-.463-1.805-.304-.464-.75-.696-1.337-.696-.575 0-1.02.226-1.331.68-.312.448-.468 1.056-.468 1.82zm11.504 4.445c-.876 0-1.632-.178-2.267-.535-.635-.36-1.123-.869-1.465-1.526-.342-.661-.512-1.443-.512-2.345 0-.88.17-1.653.512-2.318.342-.664.823-1.182 1.443-1.554.624-.371 1.355-.557 2.195-.557.754 0 1.433.16 2.038.48.61.319 1.092.801 1.449 1.447.356.643.534 1.449.534 2.418v.652h-5.826v.005c0 .64.174 1.142.523 1.51.35.368.821.551 1.415.551.398 0 .741-.083 1.03-.25.29-.167.495-.414.614-.741l2.194.145c-.167.794-.59 1.43-1.27 1.905-.68.475-1.548.713-2.607.713zm-1.9-5.309h3.594c-.004-.509-.167-.928-.49-1.259-.324-.33-.743-.495-1.26-.495-.527 0-.96.17-1.297.512-.338.342-.52.756-.546 1.242zm7.376 5.142V8.186h2.3v1.492h.09c.156-.53.418-.932.785-1.203.368-.275.791-.412 1.27-.412.264 0 .513.028.747.084v2.105c-.112-.037-.266-.067-.463-.089-.197-.026-.377-.039-.54-.039-.524 0-.958.165-1.303.496-.342.327-.513.754-.513 1.281v4.84h-2.373zm6.418 0V8.186h2.301v1.492h.09c.155-.53.417-.932.785-1.203.367-.275.79-.412 1.27-.412.263 0 .512.028.746.084v2.105c-.111-.037-.265-.067-.462-.089-.197-.026-.377-.039-.54-.039-.524 0-.959.165-1.304.496-.342.327-.513.754-.513 1.281v4.84H84.72zm8.144 3.191c-.3 0-.583-.022-.846-.066-.26-.045-.476-.102-.646-.173l.534-1.777c.42.13.773.163 1.059.1.29-.06.518-.282.685-.668l.14-.362-3.07-8.801h2.495l1.772 6.283h.089l1.788-6.283 2.512.01-3.325 9.47c-.238.684-.608 1.231-1.109 1.644-.501.416-1.194.623-2.078.623z"/>
</svg>
