
<svg xmlns="http://www.w3.org/2000/svg" width="15" height="20" fill="none" viewBox="0 0 15 20">
    <g clip-path="url(#clip0)">
        <path fill="#E0E0E0" d="M8.114.478c-.361-.281-.867-.281-1.228 0L1.014 5.045c-.514.4-.515 1.177 0 1.578l.344.269 5.528 4.297c.361.281.867.28 1.228 0l5.52-4.297.347-.27c.517-.4.517-1.179.002-1.58L8.113.478zm5.528 8.464l-5.528 4.305c-.361.281-.867.282-1.228.001L1.35 8.95l-.335.26c-.515.401-.515 1.179 0 1.58l5.871 4.566c.361.28.867.28 1.228 0l5.872-4.567c.514-.4.515-1.178 0-1.579l-.344-.268zm0 4.166l-5.528 4.306c-.361.28-.867.281-1.228 0L1.35 13.118l-.335.26c-.515.4-.515 1.179 0 1.579l5.871 4.567c.361.28.867.28 1.228 0l5.872-4.568c.514-.4.515-1.177 0-1.578l-.344-.269z"/>
    </g>
    <defs>
        <clipPath id="clip0">
            <path fill="#fff" d="M0 0H15V20H0z"/>
        </clipPath>
    </defs>
</svg>
