
<svg xmlns="http://www.w3.org/2000/svg" width="18" height="18" fill="none" viewBox="0 0 18 18">
    <path fill="#4A4A59" d="M13.238 4.763c-.556-.56-1.216-1.003-1.943-1.305C10.568 3.155 9.788 3 9 3c-1.591 0-3.117.632-4.243 1.757C3.632 5.883 3 7.41 3 9c0 1.591.632 3.117 1.757 4.243C5.883 14.368 7.41 15 9 15c2.797 0 5.13-1.912 5.797-4.5h-1.56c-.309.877-.882 1.637-1.641 2.174-.759.537-1.666.826-2.596.826-1.193 0-2.338-.474-3.182-1.318C4.974 11.338 4.5 10.193 4.5 9c0-1.193.474-2.338 1.318-3.182C6.662 4.974 7.807 4.5 9 4.5c1.245 0 2.355.518 3.165 1.335L9.75 8.25H15V3l-1.762 1.763z"/>
</svg>
