
<svg xmlns="http://www.w3.org/2000/svg" width="12" height="13" fill="none" viewBox="0 0 12 13">
    <path fill="#3F3F3F" fill-rule="evenodd" d="M10.216 7.342l-1.14.073c-.064.215-.149.421-.254.614l.754.859-1.19 1.19-.858-.754c-.193.105-.4.19-.614.254l-.074 1.14H5.157l-.074-1.14c-.214-.065-.42-.15-.614-.254l-.858.754-1.19-1.191.754-.858c-.105-.193-.19-.399-.254-.614l-1.14-.074V5.66l1.14-.074c.064-.215.15-.421.254-.615l-.753-.857 1.19-1.19.857.754c.194-.105.4-.19.614-.254l.074-1.14H6.84l.073 1.14c.216.064.422.149.615.254l.858-.754 1.19 1.19-.754.857c.105.195.19.4.254.615l1.14.074v1.683zM7.508 6.5c0-.833-.676-1.509-1.508-1.509-.833 0-1.509.676-1.509 1.51 0 .832.676 1.508 1.509 1.508.832 0 1.508-.676 1.508-1.509z" clip-rule="evenodd"/>
</svg>
