<svg xmlns="http://www.w3.org/2000/svg" xmlns:xlink="http://www.w3.org/1999/xlink" width="1440" height="793" viewBox="0 0 1440 793"><defs><clipPath id="a"><rect width="1440" height="792" fill="#18c5bf"/></clipPath><filter id="b" x="539" y="385" width="367.809" height="460.809" filterUnits="userSpaceOnUse"><feOffset dy="7" input="SourceAlpha"/><feGaussianBlur stdDeviation="15" result="c"/><feFlood flood-color="#a2a2a2" flood-opacity="0.161"/><feComposite operator="in" in2="c"/><feComposite in="SourceGraphic"/></filter><filter id="d" x="791" y="450" width="367.809" height="460.809" filterUnits="userSpaceOnUse"><feOffset dy="7" input="SourceAlpha"/><feGaussianBlur stdDeviation="15" result="e"/><feFlood flood-color="#a2a2a2" flood-opacity="0.161"/><feComposite operator="in" in2="e"/><feComposite in="SourceGraphic"/></filter><filter id="f" x="282" y="450" width="367.809" height="460.809" filterUnits="userSpaceOnUse"><feOffset dy="7" input="SourceAlpha"/><feGaussianBlur stdDeviation="15" result="g"/><feFlood flood-color="#a2a2a2" flood-opacity="0.161"/><feComposite operator="in" in2="g"/><feComposite in="SourceGraphic"/></filter></defs><rect width="1440" height="789" fill="#fff"/><g transform="translate(0 -231)"><rect width="1440" height="792" transform="translate(0 231)" fill="#18c5bf"/><text transform="translate(400.602 380)" fill="rgba(255,255,255,0.87)" font-size="48" font-family="Roboto-Medium, Roboto" font-weight="500"><tspan x="0" y="0">Make Design Workflow Faster </tspan></text><text transform="translate(486.313 443)" fill="rgba(255,255,255,0.87)" font-size="48" font-family="Roboto-Medium, Roboto" font-weight="500"><tspan x="0" y="0">with Our Auto-Plugins</tspan></text><g transform="translate(635 520)"><rect width="171" height="58" rx="29" fill="#2e4cff"/><text transform="translate(40 37)" fill="rgba(255,255,255,0.87)" font-size="20" font-family="Roboto-Medium, Roboto" font-weight="500"><tspan x="0" y="0">Click Here</tspan></text></g><g transform="translate(0 232)" clip-path="url(#a)"><g transform="translate(327 422)"><g transform="matrix(1, 0, 0, 1, -327, -423)" filter="url(#b)"><rect width="277.809" height="370.809" transform="translate(584 423)" fill="#f2f7fb"/></g><g transform="translate(366.468 156)"><path d="M0,0H59.023V59.023H0Z" fill="none"/><path d="M47.267,42.349V7.919A4.933,4.933,0,0,0,42.349,3H7.919A4.933,4.933,0,0,0,3,7.919v34.43a4.933,4.933,0,0,0,4.919,4.919h34.43a4.933,4.933,0,0,0,4.918-4.919ZM16.526,28.823l6.148,7.4,8.608-11.091L42.349,39.889H7.919Z" transform="translate(4.378 4.378)" fill="#e8e8e8"/><ellipse cx="3" cy="3.5" rx="3" ry="3.5" transform="translate(16.532 19)" fill="#fff"/></g><g transform="matrix(1, 0, 0, 1, -327, -423)" filter="url(#d)"><rect width="277.809" height="370.809" transform="translate(836 488)" fill="#f2f7fb"/></g><g transform="translate(618.468 221)"><path d="M0,0H59.023V59.023H0Z" fill="none"/><path d="M47.267,42.349V7.919A4.933,4.933,0,0,0,42.349,3H7.919A4.933,4.933,0,0,0,3,7.919v34.43a4.933,4.933,0,0,0,4.919,4.919h34.43a4.933,4.933,0,0,0,4.918-4.919ZM16.526,28.823l6.148,7.4,8.608-11.091L42.349,39.889H7.919Z" transform="translate(4.378 4.378)" fill="#e8e8e8"/><ellipse cx="3" cy="3.5" rx="3" ry="3.5" transform="translate(16.532 19)" fill="#fff"/></g><g transform="matrix(1, 0, 0, 1, -327, -423)" filter="url(#f)"><rect width="277.809" height="370.809" transform="translate(327 488)" fill="#f2f7fb"/></g><g transform="translate(109.468 221)"><path d="M0,0H59.023V59.023H0Z" fill="none"/><path d="M47.267,42.349V7.919A4.933,4.933,0,0,0,42.349,3H7.919A4.933,4.933,0,0,0,3,7.919v34.43a4.933,4.933,0,0,0,4.919,4.919h34.43a4.933,4.933,0,0,0,4.918-4.919ZM16.526,28.823l6.148,7.4,8.608-11.091L42.349,39.889H7.919Z" transform="translate(4.378 4.378)" fill="#e8e8e8"/><ellipse cx="3" cy="3.5" rx="3" ry="3.5" transform="translate(16.532 19)" fill="#fff"/></g></g></g></g></svg>