<svg xmlns="http://www.w3.org/2000/svg" width="1440" height="439" viewBox="0 0 1440 439"><rect width="1440" height="439" fill="#fff"/><g transform="translate(135 100)"><rect width="1169.809" height="237.809" fill="#f2f7fb"/><g transform="translate(555.775 89.454)"><path d="M0,0H59.023V59.023H0Z" fill="none"/><path d="M47.267,42.349V7.919A4.933,4.933,0,0,0,42.349,3H7.919A4.933,4.933,0,0,0,3,7.919v34.43a4.933,4.933,0,0,0,4.919,4.919h34.43a4.933,4.933,0,0,0,4.918-4.919ZM16.526,28.823l6.148,7.4,8.608-11.091L42.349,39.889H7.919Z" transform="translate(4.378 4.378)" fill="#dfe2f2"/><ellipse cx="3" cy="3.5" rx="3" ry="3.5" transform="translate(16.225 18.546)" fill="#fff"/></g></g><g transform="translate(1103 180)"><rect width="171" height="58" rx="29" fill="#2e4cff"/><text transform="translate(40 37)" fill="rgba(255,255,255,0.87)" font-size="20" font-family="Roboto-Medium, Roboto" font-weight="500"><tspan x="0" y="0">Click Here</tspan></text></g><text transform="translate(166 195)" fill="rgba(0,0,0,0.87)" font-size="48" font-family="Roboto-Medium, Roboto" font-weight="500"><tspan x="0" y="0">Join +1000 Users and </tspan><tspan x="0" y="63">start Free Download</tspan></text></svg>