<svg xmlns="http://www.w3.org/2000/svg" width="1440" height="370" viewBox="0 0 1440 370"><rect width="1440" height="370" fill="#fff"/><rect width="1440" height="370" fill="#2e4cff"/><text transform="translate(400.602 103)" fill="rgba(255,255,255,0.87)" font-size="48" font-family="Roboto-Medium, Roboto" font-weight="500"><tspan x="0" y="0">Make Design Workflow Faster </tspan></text><text transform="translate(486.313 166)" fill="rgba(255,255,255,0.87)" font-size="48" font-family="Roboto-Medium, Roboto" font-weight="500"><tspan x="0" y="0">with Our Auto-Plugins</tspan></text><g transform="translate(633 249)"><path d="M29.509,0H144.491C160.788,0,174,12.984,174,29s-13.212,29-29.509,29H29.509C13.212,58,0,45.016,0,29S13.212,0,29.509,0Z" fill="#18c5bf"/><text transform="translate(40 37)" fill="#fff" font-size="20" font-family="Roboto-Medium, Roboto" font-weight="500"><tspan x="0" y="0">Lets Start!</tspan></text></g><g transform="translate(-417.186 -282.186)" opacity="0.226"><circle cx="6.5" cy="6.5" r="6.5" transform="translate(809.186 499.186)" fill="#f2f2f2"/><circle cx="6.5" cy="6.5" r="6.5" transform="translate(809.186 523.186)" fill="#f2f2f2"/><ellipse cx="6.5" cy="7" rx="6.5" ry="7" transform="translate(809.186 546.186)" fill="#f2f2f2"/><ellipse cx="6.5" cy="7" rx="6.5" ry="7" transform="translate(833.186 546.186)" fill="#f2f2f2" opacity="0.464"/><circle cx="6.5" cy="6.5" r="6.5" transform="translate(833.186 523.186)" fill="#f2f2f2"/><circle cx="7" cy="7" r="7" transform="translate(856.186 546.186)" fill="#f2f2f2" opacity="0.505"/></g><g transform="translate(1919.186 595.186) rotate(180)" opacity="0.226"><path d="M6.5,0A6.5,6.5,0,1,1,0,6.5,6.5,6.5,0,0,1,6.5,0Z" transform="translate(809.186 499.186)" fill="#f2f2f2" opacity="0.386"/><circle cx="6.5" cy="6.5" r="6.5" transform="translate(809.186 523.186)" fill="#f2f2f2" opacity="0.458"/><ellipse cx="6.5" cy="7" rx="6.5" ry="7" transform="translate(809.186 546.186)" fill="#f2f2f2"/><ellipse cx="6.5" cy="7" rx="6.5" ry="7" transform="translate(833.186 546.186)" fill="#f2f2f2"/><circle cx="6.5" cy="6.5" r="6.5" transform="translate(833.186 523.186)" fill="#f2f2f2"/><circle cx="7" cy="7" r="7" transform="translate(856.186 546.186)" fill="#f2f2f2"/></g><g transform="translate(-471 -198)" opacity="0.163"><path d="M9.5,0,19,16H0Z" transform="translate(773 251)" fill="#f2f2f2" opacity="0.525"/><path d="M9.5,0,19,16H0Z" transform="translate(773 270)" fill="#f2f2f2"/></g><g transform="translate(667.961 -1831.455)" opacity="0.295"><path d="M8.33,0l8.33,14.487H0Z" transform="translate(255.093 2053.828) rotate(-91)" fill="#f2f2f2" opacity="0.271"/><path d="M8.33,0l8.33,14.487H0Z" transform="translate(271.751 2053.537) rotate(-91)" fill="#f2f2f2"/></g><g transform="matrix(-0.035, 0.999, -0.999, -0.035, 3663.228, -119.944)" opacity="0.299"><path d="M7.363,0l7.363,12.805H0Z" transform="translate(375.06 2510.831) rotate(-91)" fill="#f2f2f2" opacity="0.477"/><path d="M7.363,0l7.363,12.805H0Z" transform="translate(389.783 2510.574) rotate(-91)" fill="#f2f2f2"/></g><g transform="translate(-65 -1956)"><rect width="4" height="24" transform="translate(1131 2192)" fill="#e2e2e2" opacity="0.299"/><rect width="4" height="27" transform="translate(1138 2201)" fill="#e2e2e2" opacity="0.172"/></g><g transform="translate(-848 -2012.455)"><rect width="5" height="27" transform="translate(1131 2192.455)" fill="#e2e2e2" opacity="0.299"/><rect width="5" height="31" transform="translate(1139 2202.455)" fill="#e2e2e2" opacity="0.191"/></g></svg>