<svg xmlns="http://www.w3.org/2000/svg" width="1440" height="608" viewBox="0 0 1440 608"><rect width="1440" height="608" fill="#fff"/><g transform="translate(0 1)"><g transform="translate(745.191 101)"><rect width="566.809" height="403.809" fill="#f2f7fb"/><g transform="translate(263.019 172.511)"><path d="M0,0H59.023V59.023H0Z" fill="none"/><path d="M47.267,42.349V7.919A4.933,4.933,0,0,0,42.349,3H7.919A4.933,4.933,0,0,0,3,7.919v34.43a4.933,4.933,0,0,0,4.919,4.919h34.43a4.933,4.933,0,0,0,4.918-4.919ZM16.526,28.823l6.148,7.4,8.608-11.091L42.349,39.889H7.919Z" transform="translate(4.378 4.378)" fill="#dfe2f2"/><ellipse cx="3" cy="3.5" rx="3" ry="3.5" transform="translate(16.501 19)" fill="#fff"/></g></g><g transform="translate(8 -702)"><text transform="translate(135 911)" fill="rgba(0,0,0,0.87)" font-size="48" font-family="Roboto-Medium, Roboto" font-weight="500"><tspan x="0" y="0">Creating Stunning Project </tspan><tspan x="0" y="63">Using UXPlugins</tspan></text><text transform="translate(139 1033)" fill="rgba(33,33,33,0.87)" font-size="20" font-family="Roboto-Regular, Roboto"><tspan x="0" y="0">Make Design Workflow Faster with Our Auto-Plugins</tspan></text><g transform="translate(120 1091)"><path d="M29,0H142a29,29,0,1,1,0,58H29A29,29,0,1,1,29,0Z" fill="#18c5bf"/><text transform="translate(40 37)" fill="#fff" font-size="20" font-family="Roboto-Medium, Roboto" font-weight="500"><tspan x="0" y="0">Click Here</tspan></text></g></g></g></svg>