<svg xmlns="http://www.w3.org/2000/svg" xmlns:xlink="http://www.w3.org/1999/xlink" width="1440" height="462" viewBox="0 0 1440 462"><defs><filter id="a" x="401" y="265" width="455" height="148" filterUnits="userSpaceOnUse"><feOffset dy="7" input="SourceAlpha"/><feGaussianBlur stdDeviation="15" result="b"/><feFlood flood-color="#aaa" flood-opacity="0.161"/><feComposite operator="in" in2="b"/><feComposite in="SourceGraphic"/></filter></defs><rect width="1440" height="462" fill="#fff"/><text transform="translate(608.906 151)" fill="rgba(0,0,0,0.87)" font-size="48" font-family="Roboto-Medium, Roboto" font-weight="500"><tspan x="0" y="0">Lets Start!</tspan></text><text transform="translate(480.176 214)" fill="rgba(0,0,0,0.87)" font-size="48" font-family="Roboto-Medium, Roboto" font-weight="500"><tspan x="0" y="0">Sign UP to Get Started</tspan></text><g transform="translate(446 303)"><g transform="matrix(1, 0, 0, 1, -446, -303)" filter="url(#a)"><g transform="translate(446 303)" fill="#fff" stroke="#ededed" stroke-width="2"><rect width="365" height="58" rx="7" stroke="none"/><rect x="1" y="1" width="363" height="56" rx="6" fill="none"/></g></g><text transform="translate(23 37)" fill="#acacac" font-size="20" font-family="Roboto-Regular, Roboto" letter-spacing="-0.015em"><tspan x="0" y="0">Email</tspan></text></g><g transform="translate(826 304)"><path d="M7,0H162a7,7,0,0,1,7,7V49a7,7,0,0,1-7,7H7a7,7,0,0,1-7-7V7A7,7,0,0,1,7,0Z" fill="#18c5bf"/><text transform="translate(40 36)" fill="#fff" font-size="20" font-family="Roboto-Medium, Roboto" font-weight="500" letter-spacing="-0.015em"><tspan x="0" y="0">Click Here</tspan></text></g></svg>