<svg xmlns="http://www.w3.org/2000/svg" width="1440" height="427" viewBox="0 0 1440 427"><rect width="1440" height="427" fill="#f2f7fb"/><g transform="translate(7 -8)"><g transform="translate(885 108)"><g fill="#fff" stroke="#ededed" stroke-width="2"><rect width="365" height="58" rx="7" stroke="none"/><rect x="1" y="1" width="363" height="56" rx="6" fill="none"/></g><text transform="translate(23 37)" fill="#acacac" font-size="20" font-family="Roboto-Regular, Roboto" letter-spacing="-0.015em"><tspan x="0" y="0">Name</tspan></text></g><g transform="translate(885 194)"><g fill="#fff" stroke="#ededed" stroke-width="2"><rect width="365" height="58" rx="7" stroke="none"/><rect x="1" y="1" width="363" height="56" rx="6" fill="none"/></g><text transform="translate(23 37)" fill="#acacac" font-size="20" font-family="Roboto-Regular, Roboto" letter-spacing="-0.015em"><tspan x="0" y="0">Name</tspan></text></g><g transform="translate(885 279)"><path d="M15.08,0H349c8.329,0,15.08,3.134,15.08,7V49c0,3.866-6.752,7-15.08,7H15.08C6.752,56,0,52.866,0,49V7C0,3.134,6.752,0,15.08,0Z" fill="#2e4cff"/><text transform="translate(135.417 36)" fill="#fff" font-size="20" font-family="Roboto-Medium, Roboto" font-weight="500" letter-spacing="-0.015em"><tspan x="0" y="0">Click Here</tspan></text></g><g transform="translate(0 8)"><text transform="translate(176 171)" fill="rgba(0,0,0,0.87)" font-size="48" font-family="Roboto-Medium, Roboto" font-weight="500"><tspan x="0" y="0">Lets Start!</tspan><tspan x="0" y="63">Sign UP to Get Started</tspan></text><text transform="translate(176 302)" fill="rgba(33,33,33,0.87)" font-size="20" font-family="Roboto-Regular, Roboto"><tspan x="0" y="0">Make Design Workflow Faster with Our Auto-Plugins</tspan></text></g></g></svg>