<?xml version="1.0" encoding="utf-8"?>
<!-- Generator: Adobe Illustrator 23.0.3, SVG Export Plug-In . SVG Version: 6.00 Build 0)  -->
<svg version="1.1" id="Layer_1" xmlns="http://www.w3.org/2000/svg" xmlns:xlink="http://www.w3.org/1999/xlink" x="0px" y="0px"
	 viewBox="0 0 144 144" style="enable-background:new 0 0 144 144;" xml:space="preserve">
<style type="text/css">
	.st0{fill:#FFFFFF;stroke:#000000;stroke-width:3;stroke-miterlimit:10;}
</style>
<g>
	<polyline class="st0" points="16.54,14.61 138,14.61 138,121.34 	"/>
	<polygon class="st0" points="15.81,21.12 15.81,121.23 133.35,118.28 15.81,121.23 	"/>
	<polygon class="st0" points="5.5,32.89 5.5,133.01 123.04,130.06 5.5,133.01 	"/>
	<polyline class="st0" points="138,118.4 138,120.61 138,14.61 135.79,14.61 	"/>
	<polyline class="st0" points="47.06,10.81 45.07,4.92 43.08,10.81 41.09,4.92 39.11,10.81 37.13,4.92 35.15,10.81 33.16,4.92 
		31.17,10.81 29.2,4.92 27.21,10.81 25.22,4.92 23.24,10.81 18.2,12.28 18.2,12.28 	"/>
	<path class="st0" d="M120.79,32.89c0,0-47.94-22.82-77.87,44.9l5.2,5.15L28.89,94.73L28.2,64.55l7.36,5.89
		C35.56,70.44,63.07,0.51,120.79,32.89z"/>
</g>
</svg>
