<?xml version="1.0" ?><!DOCTYPE svg  PUBLIC '-//W3C//DTD SVG 1.1//EN'  'http://www.w3.org/Graphics/SVG/1.1/DTD/svg11.dtd'><svg enable-background="new 0 0 64 64" height="64px" id="Layer_1" version="1.1" viewBox="0 0 64 64" width="64px" xml:space="preserve" xmlns="http://www.w3.org/2000/svg" xmlns:xlink="http://www.w3.org/1999/xlink"><g><g><path d="M40.628,11.048c2.024-2.611,3.558-6.304,3.003-10.073c-3.309,0.23-7.173,2.346-9.429,5.104    c-2.057,2.5-3.747,6.216-3.086,9.826C34.732,16.018,38.464,13.851,40.628,11.048z"/><path d="M56.705,21.793c-3.175-3.984-7.64-6.293-11.856-6.293c-5.564,0-7.919,2.664-11.783,2.664    c-3.987,0-7.015-2.656-11.828-2.656c-4.729,0-9.764,2.89-12.955,7.83c-4.486,6.959-3.721,20.037,3.554,31.179    c2.601,3.988,6.074,8.468,10.619,8.509c4.045,0.04,5.186-2.594,10.667-2.624c5.479-0.032,6.52,2.658,10.557,2.612    c4.548-0.036,8.214-5.002,10.814-8.99c1.864-2.856,2.56-4.297,4.007-7.523C47.977,42.498,46.29,27.536,56.705,21.793z" fill="#1B546B"/></g><path d="M50.322,29.485c-7.954,6.44-19.199,10.464-31.68,10.464c-4.472,0-8.786-0.518-12.846-1.476   c0.687,5.226,2.645,10.842,6.042,16.043c2.601,3.988,6.074,8.468,10.619,8.509c4.045,0.04,5.186-2.594,10.667-2.624   c5.479-0.032,6.52,2.658,10.557,2.612c4.548-0.036,8.214-5.002,10.814-8.99c1.864-2.856,2.56-4.297,4.007-7.523   C51.346,43.78,48.282,35.997,50.322,29.485z"/></g></svg>