<svg xmlns="http://www.w3.org/2000/svg" height="18" viewBox="0 0 18 18" width="18">
  <defs>
    <style>
      .a {
        fill: #707070;
      }
    </style>
  </defs>
  <title>S Asset 18 N</title>
  <rect id="Canvas" fill="#ff13dc" opacity="0" width="18" height="18" /><path class="a" d="M7,8v9a1,1,0,0,0,1,1h9a1,1,0,0,0,1-1V8a1,1,0,0,0-1-1H8A1,1,0,0,0,7,8ZM9,9.75a.25.25,0,0,1-.25.25h-.5A.25.25,0,0,1,8,9.75V8.25A.25.25,0,0,1,8.25,8h.5A.25.25,0,0,1,9,8.25Zm0,3.5a.25.25,0,0,1-.25.25h-.5A.25.25,0,0,1,8,13.25v-1.5a.25.25,0,0,1,.25-.25h.5a.25.25,0,0,1,.25.25Zm0,3.5a.25.25,0,0,1-.25.25h-.5A.25.25,0,0,1,8,16.75v-1.5A.25.25,0,0,1,8.25,15h.5a.25.25,0,0,1,.25.25Zm8-7a.25.25,0,0,1-.25.25h-.5A.25.25,0,0,1,16,9.75V8.25A.25.25,0,0,1,16.25,8h.5a.25.25,0,0,1,.25.25Zm0,3.5a.25.25,0,0,1-.25.25h-.5a.25.25,0,0,1-.25-.25v-1.5a.25.25,0,0,1,.25-.25h.5a.25.25,0,0,1,.25.25Zm0,3.5a.25.25,0,0,1-.25.25h-.5a.25.25,0,0,1-.25-.25v-1.5a.25.25,0,0,1,.25-.25h.5a.25.25,0,0,1,.25.25ZM14.75,13h-4.5a.25.25,0,0,1-.25-.25v-.5a.25.25,0,0,1,.25-.25h4.5a.25.25,0,0,1,.25.25v.5A.25.25,0,0,1,14.75,13Z" />
  <circle class="a" cx="12.5" cy="4.5" r="1.25" />
  <path class="a" d="M6,6.1715l-.364-.364a1,1,0,0,0-1.414,0L1,9.0295V2H15V6h1V1.5a.5.5,0,0,0-.5-.5H.5a.5.5,0,0,0-.5.5v11a.5.5,0,0,0,.5.5H6Z" />
</svg>