<svg xmlns="http://www.w3.org/2000/svg" height="18" viewBox="0 0 18 18" width="18">
  <defs>
    <style>
      .a {
        fill: #ffffff;
      }
    </style>
  </defs>
  <title>S LockClosed 18 N</title>
  <rect id="Canvas" fill="#ff13dc" opacity="0" width="18" height="18" /><path class="a" d="M14.5,8H14V7A5,5,0,0,0,4,7V8H3.5a.5.5,0,0,0-.5.5v8a.5.5,0,0,0,.5.5h11a.5.5,0,0,0,.5-.5v-8A.5.5,0,0,0,14.5,8ZM6,7a3,3,0,0,1,6,0V8H6Zm4,6.111V14.5a.5.5,0,0,1-.5.5h-1a.5.5,0,0,1-.5-.5V13.111a1.5,1.5,0,1,1,2,0Z" />
</svg>