<svg id="step-5-2" xmlns="http://www.w3.org/2000/svg" xmlns:xlink="http://www.w3.org/1999/xlink" width="243" height="90" viewBox="0 0 243 90">
  <defs>
    <clipPath id="clip-path">
      <rect id="background" width="243" height="90" rx="3" fill="#272727" stroke="#e1e1e1" stroke-width="1"/>
    </clipPath>
  </defs>
  <g id="Group_27" data-name="Group 27">
    <rect id="bg-color" width="243" height="90" rx="3" fill="#272727"/>
    <g id="mountains" clip-path="url(#clip-path)">
      <path id="Path_39" data-name="Path 39" d="M-1.27,85.634l9.509-1.1h4.917l5.38-.835s7.2-3.626,10.06-3.614S38.112,83.46,43.217,83.7s18.425-2.953,20.831-2.431,11.33,2.884,14.07,2.431,6.624-1.125,6.624-1.125h5.019s3.4-3.149,5.966-3.331,5.692-.347,6.934-1.733,5.242-3.67,9.849,0S127,82.57,127,82.57l5.976-1.306,7.313,3.266a11.863,11.863,0,0,1,6.641-.835c4.213.494,8.721,2.144,11.234,2.144s8.326-2.144,8.326-2.144l5.516.835,26.484-7.023s9.912,4.49,14,5.063,13.425-1.108,15.494-1.306S243.621,83.7,243.621,83.7v7.837H-1.27Z" fill="#505050"/>
      <path id="Path_38" data-name="Path 38" d="M-3.846,84.716c10.056.705,17.835,1.8,22.209,0S28.32,80.19,28.32,80.19l14.958,4.526,12.431-1.893L63.5,80.19l4.972,2.633,8.891,1.893,6.326-1.893,8.576,1.893s11.863-1.161,14.707-1.893.564-1.733,7.762,0A78.251,78.251,0,0,0,129.3,84.716a49.131,49.131,0,0,0,9.366,0c4.582-.516,5.042-5.842,8.889-4.526s12.309,3.938,17.94,4.526,8.9-2.061,11.214-1.893,9.829,2.779,12.678,1.893,8.4-1.893,8.4-1.893l8.151,1.893,22.076-1.893,15.555,1.893V92H-3.846Z" fill="#707070"/>
    </g>
    <g id="Group_83" data-name="Group 83" transform="translate(87.882 26.195)">
      <rect id="Rectangle_20" data-name="Rectangle 20" width="32.111" height="16.9" rx="3" fill="#fff"/>
      <rect id="Rectangle_21" data-name="Rectangle 21" width="32.111" height="16.9" rx="3" transform="translate(35.491)" fill="#fff"/>
      <rect id="Rectangle_22" data-name="Rectangle 22" width="32.111" height="16.9" rx="3" transform="translate(35.491 20.28)" fill="#fff"/>
      <rect id="Rectangle_23" data-name="Rectangle 23" width="32.111" height="16.9" rx="3" transform="translate(0 20.28)" fill="#fff"/>
    </g>
    <g id="frame" fill="none" stroke="#e1e1e1" stroke-width="1">
      <rect width="243" height="90" rx="3" stroke="none"/>
      <rect x="0.5" y="0.5" width="242" height="89" rx="2.5" fill="none"/>
    </g>
  </g>
</svg>
