<svg xmlns="http://www.w3.org/2000/svg" width="1440" height="843" viewBox="0 0 1440 843"><rect width="1440" height="843" fill="#fff"/><g transform="translate(27 13)"><text transform="translate(714 138)" fill="rgba(0,0,0,0.87)" font-size="48" font-family="Roboto-Medium, Roboto" font-weight="500"><tspan x="0" y="0">The full name of Product </tspan><tspan x="0" y="63">is here</tspan></text><g transform="translate(786.903 641)"><path d="M23.471,3H5.559A2.558,2.558,0,0,0,3,5.559V23.471A2.558,2.558,0,0,0,5.559,26.03H23.471a2.566,2.566,0,0,0,2.559-2.559V5.559A2.566,2.566,0,0,0,23.471,3ZM20.912,15.8H15.8v5.118H13.236V15.8H8.118V13.236h5.118V8.118H15.8v5.118h5.118Z" transform="translate(0.838 0.838)" fill="#1ce3dc"/><path d="M0,0H30.707V30.707H0Z" fill="none"/></g><g transform="translate(120 88)"><rect width="568.809" height="486.809" fill="#f2f7fb"/><g transform="translate(255.068 214.04)"><path d="M0,0H59.023V59.023H0Z" fill="none"/><path d="M47.267,42.349V7.919A4.933,4.933,0,0,0,42.349,3H7.919A4.933,4.933,0,0,0,3,7.919v34.43a4.933,4.933,0,0,0,4.919,4.919h34.43a4.933,4.933,0,0,0,4.918-4.919ZM16.526,28.823l6.148,7.4,8.608-11.091L42.349,39.889H7.919Z" transform="translate(4.378 4.378)" fill="#dfe2f2"/><ellipse cx="3" cy="3.5" rx="3" ry="3.5" transform="translate(16.932 18.96)" fill="#fff"/></g></g><text transform="translate(720 252)" fill="rgba(33,33,33,0.87)" font-size="20" font-family="Roboto-Regular, Roboto"><tspan x="0" y="0">Lorem ipsum dolor sit amet, consectetur adipiscing elit, sed </tspan><tspan x="0" y="26">do eiusmod tempor incididunt ut labore et dolore magna </tspan><tspan x="0" y="52">aliqua.</tspan></text><g transform="translate(909 622)"><rect width="183" height="58" rx="29" fill="#2e4cff"/><text transform="translate(40 37)" fill="rgba(255,255,255,0.87)" font-size="20" font-family="Roboto-Medium, Roboto" font-weight="500"><tspan x="0" y="0">Add To cart</tspan></text></g><g transform="translate(721 374)"><circle cx="6" cy="6" r="6" transform="translate(1 7)" fill="#18c5bf"/><circle cx="6" cy="6" r="6" transform="translate(0 56)" fill="#18c5bf"/><circle cx="6" cy="6" r="6" transform="translate(0 105)" fill="#18c5bf"/><circle cx="6" cy="6" r="6" transform="translate(0 154)" fill="#18c5bf"/><text transform="translate(28 21)" fill="rgba(0,0,0,0.87)" font-size="20" font-family="Roboto-Medium, Roboto" font-weight="500"><tspan x="0" y="0">First Item</tspan></text><text transform="translate(27 70)" fill="rgba(0,0,0,0.87)" font-size="20" font-family="Roboto-Medium, Roboto" font-weight="500"><tspan x="0" y="0">Second Item</tspan></text><text transform="translate(27 119)" fill="rgba(0,0,0,0.87)" font-size="20" font-family="Roboto-Medium, Roboto" font-weight="500"><tspan x="0" y="0">Third Item</tspan></text><text transform="translate(27 168)" fill="rgba(0,0,0,0.87)" font-size="20" font-family="Roboto-Medium, Roboto" font-weight="500"><tspan x="0" y="0">Fourth Item</tspan></text></g><text transform="translate(762 665)" fill="rgba(0,0,0,0.87)" font-size="24" font-family="Roboto-Medium, Roboto" font-weight="500"><tspan x="0" y="0">2</tspan></text><g transform="translate(721 641)"><rect width="30" height="30" fill="none"/><g transform="translate(3.726 3.726)"><path d="M22.872,3H5.484A2.491,2.491,0,0,0,3,5.484V22.872a2.491,2.491,0,0,0,2.484,2.484H22.872a2.491,2.491,0,0,0,2.484-2.484V5.484A2.491,2.491,0,0,0,22.872,3ZM20.388,15.42H7.968V12.936h12.42Z" transform="translate(-3 -3)" fill="#1ce3dc"/></g></g><g transform="translate(564 604)"><rect width="124.809" height="125.809" fill="#f2f7fb"/><g transform="translate(32.915 33.416)"><path d="M0,0H59.023V59.023H0Z" fill="none"/><path d="M47.267,42.349V7.919A4.933,4.933,0,0,0,42.349,3H7.919A4.933,4.933,0,0,0,3,7.919v34.43a4.933,4.933,0,0,0,4.919,4.919h34.43a4.933,4.933,0,0,0,4.918-4.919ZM16.526,28.823l6.148,7.4,8.608-11.091L42.349,39.889H7.919Z" transform="translate(4.378 4.378)" fill="#dfe2f2"/><ellipse cx="3" cy="3.5" rx="3" ry="3.5" transform="translate(17.085 19.584)" fill="#fff"/></g></g><g transform="translate(416 604)"><rect width="124.809" height="125.809" fill="#f2f7fb"/><g transform="translate(32.915 33.416)"><path d="M0,0H59.023V59.023H0Z" fill="none"/><path d="M47.267,42.349V7.919A4.933,4.933,0,0,0,42.349,3H7.919A4.933,4.933,0,0,0,3,7.919v34.43a4.933,4.933,0,0,0,4.919,4.919h34.43a4.933,4.933,0,0,0,4.918-4.919ZM16.526,28.823l6.148,7.4,8.608-11.091L42.349,39.889H7.919Z" transform="translate(4.378 4.378)" fill="#dfe2f2"/><ellipse cx="3" cy="3.5" rx="3" ry="3.5" transform="translate(17.085 19.584)" fill="#fff"/></g></g><g transform="translate(268 604)"><rect width="124.809" height="125.809" fill="#f2f7fb"/><g transform="translate(32.915 33.416)"><path d="M0,0H59.023V59.023H0Z" fill="none"/><path d="M47.267,42.349V7.919A4.933,4.933,0,0,0,42.349,3H7.919A4.933,4.933,0,0,0,3,7.919v34.43a4.933,4.933,0,0,0,4.919,4.919h34.43a4.933,4.933,0,0,0,4.918-4.919ZM16.526,28.823l6.148,7.4,8.608-11.091L42.349,39.889H7.919Z" transform="translate(4.378 4.378)" fill="#dfe2f2"/><ellipse cx="3" cy="3.5" rx="3" ry="3.5" transform="translate(17.085 19.584)" fill="#fff"/></g></g><g transform="translate(120 604)"><rect width="124.809" height="125.809" fill="#f2f7fb"/><g transform="translate(32.915 33.416)"><path d="M0,0H59.023V59.023H0Z" fill="none"/><path d="M47.267,42.349V7.919A4.933,4.933,0,0,0,42.349,3H7.919A4.933,4.933,0,0,0,3,7.919v34.43a4.933,4.933,0,0,0,4.919,4.919h34.43a4.933,4.933,0,0,0,4.918-4.919ZM16.526,28.823l6.148,7.4,8.608-11.091L42.349,39.889H7.919Z" transform="translate(4.378 4.378)" fill="#dfe2f2"/><ellipse cx="3" cy="3.5" rx="3" ry="3.5" transform="translate(17.085 19.584)" fill="#fff"/></g></g></g></svg>