<svg xmlns="http://www.w3.org/2000/svg" xmlns:xlink="http://www.w3.org/1999/xlink" width="1440" height="693" viewBox="0 0 1440 693"><defs><filter id="a" x="400" y="177" width="357" height="467" filterUnits="userSpaceOnUse"><feOffset dy="7" input="SourceAlpha"/><feGaussianBlur stdDeviation="15" result="b"/><feFlood flood-color="#aaa" flood-opacity="0.161"/><feComposite operator="in" in2="b"/><feComposite in="SourceGraphic"/></filter></defs><rect width="1440" height="693" fill="#fff"/><g transform="translate(8 15)"><g transform="matrix(1, 0, 0, 1, -8, -15)" filter="url(#a)"><rect width="267" height="377" transform="translate(445 215)" fill="#fff"/></g><text transform="translate(137 516)" fill="rgba(0,0,0,0.87)" font-size="24" font-family="Roboto-Medium, Roboto" font-weight="500"><tspan x="0" y="0">Blog Title is here</tspan></text><text transform="translate(446 516)" fill="rgba(0,0,0,0.87)" font-size="24" font-family="Roboto-Medium, Roboto" font-weight="500"><tspan x="0" y="0">Blog Title is here</tspan></text><text transform="translate(737 516)" fill="rgba(0,0,0,0.87)" font-size="24" font-family="Roboto-Medium, Roboto" font-weight="500"><tspan x="0" y="0">Blog Title is here</tspan></text><text transform="translate(1037 516)" fill="rgba(0,0,0,0.87)" font-size="24" font-family="Roboto-Medium, Roboto" font-weight="500"><tspan x="0" y="0">Blog Title is here</tspan></text><text transform="translate(120 137)" fill="rgba(0,0,0,0.87)" font-size="48" font-family="Roboto-Medium, Roboto" font-weight="500"><tspan x="0" y="0">Featured Product</tspan></text><g transform="translate(137 200)"><rect width="266.809" height="269.809" fill="#f2f7fb"/><g transform="translate(103.964 105.465)"><path d="M0,0H59.023V59.023H0Z" fill="none"/><path d="M47.267,42.349V7.919A4.933,4.933,0,0,0,42.349,3H7.919A4.933,4.933,0,0,0,3,7.919v34.43a4.933,4.933,0,0,0,4.919,4.919h34.43a4.933,4.933,0,0,0,4.918-4.919ZM16.526,28.823l6.148,7.4,8.608-11.091L42.349,39.889H7.919Z" transform="translate(4.378 4.378)" fill="#dfe2f2"/><ellipse cx="3" cy="3.5" rx="3" ry="3.5" transform="translate(16.036 18.535)" fill="#fff"/></g></g><g transform="translate(437 200)"><rect width="266.809" height="269.809" fill="#f2f7fb"/><g transform="translate(103.964 105.465)"><path d="M0,0H59.023V59.023H0Z" fill="none"/><path d="M47.267,42.349V7.919A4.933,4.933,0,0,0,42.349,3H7.919A4.933,4.933,0,0,0,3,7.919v34.43a4.933,4.933,0,0,0,4.919,4.919h34.43a4.933,4.933,0,0,0,4.918-4.919ZM16.526,28.823l6.148,7.4,8.608-11.091L42.349,39.889H7.919Z" transform="translate(4.378 4.378)" fill="#dfe2f2"/><ellipse cx="3" cy="3.5" rx="3" ry="3.5" transform="translate(16.036 18.535)" fill="#fff"/></g></g><g transform="translate(737 200)"><rect width="266.809" height="269.809" fill="#f2f7fb"/><g transform="translate(103.964 105.465)"><path d="M0,0H59.023V59.023H0Z" fill="none"/><path d="M47.267,42.349V7.919A4.933,4.933,0,0,0,42.349,3H7.919A4.933,4.933,0,0,0,3,7.919v34.43a4.933,4.933,0,0,0,4.919,4.919h34.43a4.933,4.933,0,0,0,4.918-4.919ZM16.526,28.823l6.148,7.4,8.608-11.091L42.349,39.889H7.919Z" transform="translate(4.378 4.378)" fill="#dfe2f2"/><ellipse cx="3" cy="3.5" rx="3" ry="3.5" transform="translate(16.036 18.535)" fill="#fff"/></g></g><g transform="translate(1037 200)"><rect width="266.809" height="269.809" fill="#f2f7fb"/><g transform="translate(103.964 105.465)"><path d="M0,0H59.023V59.023H0Z" fill="none"/><path d="M47.267,42.349V7.919A4.933,4.933,0,0,0,42.349,3H7.919A4.933,4.933,0,0,0,3,7.919v34.43a4.933,4.933,0,0,0,4.919,4.919h34.43a4.933,4.933,0,0,0,4.918-4.919ZM16.526,28.823l6.148,7.4,8.608-11.091L42.349,39.889H7.919Z" transform="translate(4.378 4.378)" fill="#dfe2f2"/><ellipse cx="3" cy="3.5" rx="3" ry="3.5" transform="translate(16.036 18.535)" fill="#fff"/></g></g><text transform="translate(137 562)" fill="#18c5bf" font-size="24" font-family="Roboto-Medium, Roboto" font-weight="500"><tspan x="0" y="0">$59</tspan></text><text transform="translate(738 562)" fill="#18c5bf" font-size="24" font-family="Roboto-Medium, Roboto" font-weight="500"><tspan x="0" y="0">$59</tspan></text><text transform="translate(1038 562)" fill="#18c5bf" font-size="24" font-family="Roboto-Medium, Roboto" font-weight="500"><tspan x="0" y="0">$59</tspan></text><text transform="translate(446 557)" fill="#18c5bf" font-size="24" font-family="Roboto-Medium, Roboto" font-weight="500"><tspan x="0" y="0">$59</tspan></text><g transform="translate(653.903 527.293)"><path d="M27.471,3H6.059A3.058,3.058,0,0,0,3,6.059V27.471A3.058,3.058,0,0,0,6.059,30.53H27.471a3.068,3.068,0,0,0,3.059-3.059V6.059A3.068,3.068,0,0,0,27.471,3ZM24.412,18.3H18.3v6.118H15.236V18.3H9.118V15.236h6.118V9.118H18.3v6.118h6.118Z" transform="translate(1.588 1.588)" fill="#18c5bf"/><path d="M0,0H36.707V36.707H0Z" fill="none"/></g></g></svg>