<svg xmlns="http://www.w3.org/2000/svg" width="1440" height="646" viewBox="0 0 1440 646"><rect width="1440" height="646" fill="#fff"/><g transform="translate(20 11)"><g transform="translate(115 89)"><rect width="575.085" height="445.809" fill="#f2f7fb"/><g transform="translate(258.208 193.526)"><path d="M0,0H59.023V59.023H0Z" fill="none"/><path d="M47.267,42.349V7.919A4.933,4.933,0,0,0,42.349,3H7.919A4.933,4.933,0,0,0,3,7.919v34.43a4.933,4.933,0,0,0,4.919,4.919h34.43a4.933,4.933,0,0,0,4.918-4.919ZM16.526,28.823l6.148,7.4,8.608-11.091L42.349,39.889H7.919Z" transform="translate(4.378 4.378)" fill="#dfe2f2"/><ellipse cx="3" cy="3.5" rx="3" ry="3.5" transform="translate(15.792 19.474)" fill="#fff"/></g></g><text transform="translate(301.514 470)" fill="rgba(0,0,0,0.87)" font-size="24" font-family="Roboto-Medium, Roboto" font-weight="500"><tspan x="0" y="0">Name of Product 1</tspan></text><g transform="translate(349.713 489)"><path d="M0,0H24V24H0Z" fill="none"/><path d="M12,17.27,18.18,21l-1.64-7.03L22,9.24l-7.19-.61L12,2,9.19,8.63,2,9.24l5.46,4.73L5.82,21Z" fill="#667cff"/><path d="M0,0H24V24H0Z" fill="none"/><g transform="translate(21)"><path d="M0,0H24V24H0Z" fill="none"/><path d="M12,17.27,18.18,21l-1.64-7.03L22,9.24l-7.19-.61L12,2,9.19,8.63,2,9.24l5.46,4.73L5.82,21Z" fill="#667cff"/><path d="M0,0H24V24H0Z" fill="none"/></g><g transform="translate(42)"><path d="M0,0H24V24H0Z" fill="none"/><path d="M12,17.27,18.18,21l-1.64-7.03L22,9.24l-7.19-.61L12,2,9.19,8.63,2,9.24l5.46,4.73L5.82,21Z" fill="#667cff"/><path d="M0,0H24V24H0Z" fill="none"/></g><g transform="translate(62.785)"><rect width="24" height="24" transform="translate(-0.497)" fill="none"/><g transform="translate(2.215 2)"><path d="M22,9.24l-7.19-.62L12,2,9.19,8.63,2,9.24l5.46,4.73L5.82,21,12,17.27,18.18,21l-1.63-7.03ZM12,15.4V6.1l1.71,4.04,4.38.38L14.77,13.4l1,4.28Z" transform="translate(-2 -2)" fill="#667cff"/></g></g><path d="M22,9.24l-7.19-.62L12,2,9.19,8.63,2,9.24l5.46,4.73L5.82,21,12,17.27,18.18,21l-1.63-7.03ZM12,15.4,8.24,17.67l1-4.28L5.92,10.51l4.38-.38L12,6.1l1.71,4.04,4.38.38L14.77,13.4l1,4.28Z" transform="translate(84)" fill="#667cff"/></g></g><g transform="translate(233.413 11)"><g transform="translate(515 89)"><rect width="556.587" height="445.809" fill="#f2f7fb"/><g transform="translate(248.953 193.526)"><path d="M0,0H59.023V59.023H0Z" fill="none"/><path d="M47.267,42.349V7.919A4.933,4.933,0,0,0,42.349,3H7.919A4.933,4.933,0,0,0,3,7.919v34.43a4.933,4.933,0,0,0,4.919,4.919h34.43a4.933,4.933,0,0,0,4.918-4.919ZM16.526,28.823l6.148,7.4,8.608-11.091L42.349,39.889H7.919Z" transform="translate(4.378 4.378)" fill="#dfe2f2"/><ellipse cx="3" cy="3.5" rx="3" ry="3.5" transform="translate(16.5 19.474)" fill="#fff"/></g></g><text transform="translate(692.403 470)" fill="rgba(0,0,0,0.87)" font-size="24" font-family="Roboto-Medium, Roboto" font-weight="500"><tspan x="0" y="0">Name of Product 2</tspan></text><g transform="translate(740.457 489)"><path d="M0,0H24V24H0Z" fill="none"/><path d="M12,17.27,18.18,21l-1.64-7.03L22,9.24l-7.19-.61L12,2,9.19,8.63,2,9.24l5.46,4.73L5.82,21Z" fill="#667cff"/><path d="M0,0H24V24H0Z" fill="none"/><g transform="translate(21)"><path d="M0,0H24V24H0Z" fill="none"/><path d="M12,17.27,18.18,21l-1.64-7.03L22,9.24l-7.19-.61L12,2,9.19,8.63,2,9.24l5.46,4.73L5.82,21Z" fill="#667cff"/><path d="M0,0H24V24H0Z" fill="none"/></g><g transform="translate(42)"><path d="M0,0H24V24H0Z" fill="none"/><path d="M12,17.27,18.18,21l-1.64-7.03L22,9.24l-7.19-.61L12,2,9.19,8.63,2,9.24l5.46,4.73L5.82,21Z" fill="#667cff"/><path d="M0,0H24V24H0Z" fill="none"/></g><g transform="translate(63)"><rect width="24" height="24" fill="none"/><g transform="translate(2 2)"><path d="M22,9.24l-7.19-.62L12,2,9.19,8.63,2,9.24l5.46,4.73L5.82,21,12,17.27,18.18,21l-1.63-7.03ZM12,15.4V6.1l1.71,4.04,4.38.38L14.77,13.4l1,4.28Z" transform="translate(-2 -2)" fill="#667cff"/></g></g><path d="M22,9.24l-7.19-.62L12,2,9.19,8.63,2,9.24l5.46,4.73L5.82,21,12,17.27,18.18,21l-1.63-7.03ZM12,15.4,8.24,17.67l1-4.28L5.92,10.51l4.38-.38L12,6.1l1.71,4.04,4.38.38L14.77,13.4l1,4.28Z" transform="translate(84)" fill="#667cff"/></g></g></svg>