<svg xmlns="http://www.w3.org/2000/svg" xmlns:xlink="http://www.w3.org/1999/xlink" width="28" height="28" viewBox="0 0 28 28">
  <defs>
    <clipPath id="clip-icon-tab-grid">
      <rect width="28" height="28"/>
    </clipPath>
  </defs>
  <g id="icon-tab-grid" clip-path="url(#clip-icon-tab-grid)">
    <g id="circles" transform="translate(7 4)">
      <g id="_1" data-name="1" transform="translate(-2.5 -2.5)">
        <circle id="Ellipse_1" data-name="Ellipse 1" cx="2.5" cy="2.5" r="2.5" transform="translate(0 0)" fill="#333"/>
      </g>
      <g id="_2" data-name="2" transform="translate(4.5 -2.5)">
        <circle id="Ellipse_1-2" data-name="Ellipse 1" cx="2.5" cy="2.5" r="2.5" transform="translate(0 0)" fill="#666"/>
      </g>
      <g id="_3" data-name="3" transform="translate(11.5 -2.5)">
        <circle id="Ellipse_1-3" data-name="Ellipse 1" cx="2.5" cy="2.5" r="2.5" transform="translate(0 0)" fill="#666"/>
      </g>
      <g id="_4" data-name="4" transform="translate(-2.5 4.5)">
        <circle id="Ellipse_1-4" data-name="Ellipse 1" cx="2.5" cy="2.5" r="2.5" transform="translate(0 0)" fill="#666"/>
      </g>
      <g id="_5" data-name="5" transform="translate(4.5 4.5)">
        <circle id="Ellipse_1-5" data-name="Ellipse 1" cx="2.5" cy="2.5" r="2.5" transform="translate(0 0)" fill="#666"/>
      </g>
      <g id="_6" data-name="6" transform="translate(11.5 4.5)">
        <circle id="Ellipse_1-6" data-name="Ellipse 1" cx="2.5" cy="2.5" r="2.5" transform="translate(0 0)" fill="#666"/>
      </g>
      <g id="_7" data-name="7" transform="translate(-2.5 11.5)">
        <circle id="Ellipse_1-7" data-name="Ellipse 1" cx="2.5" cy="2.5" r="2.5" transform="translate(0 0)" fill="#666"/>
      </g>
      <g id="_7-2" data-name="7" transform="translate(4.5 11.5)">
        <circle id="Ellipse_1-8" data-name="Ellipse 1" cx="2.5" cy="2.5" r="2.5" transform="translate(0 0)" fill="#666"/>
      </g>
    </g>
  </g>
</svg>
