<svg xmlns="http://www.w3.org/2000/svg" xmlns:xlink="http://www.w3.org/1999/xlink" width="18" height="18" viewBox="0 0 18 18">
  <defs>
    <clipPath id="clip-icon-help-small">
      <rect width="18" height="18"/>
    </clipPath>
  </defs>
  <g id="icon-help-small" clip-path="url(#clip-icon-help-small)">
    <g id="Gruppe_23" data-name="Gruppe 23" transform="translate(-889.846 -359)">
      <g id="Oval_2" data-name="Oval 2" transform="translate(891.846 361)" fill="none">
        <path d="M7,0A7,7,0,1,1,0,7,7,7,0,0,1,7,0Z" stroke="none"/>
        <path d="M 6.999993324279785 1.000002861022949 C 3.691583633422852 1.000002861022949 1.000002861022949 3.691583633422852 1.000002861022949 6.999993324279785 C 1.000002861022949 10.30840301513672 3.691583633422852 12.9999828338623 6.999993324279785 12.9999828338623 C 10.30840301513672 12.9999828338623 12.9999828338623 10.30840301513672 12.9999828338623 6.999993324279785 C 12.9999828338623 3.691583633422852 10.30840301513672 1.000002861022949 6.999993324279785 1.000002861022949 M 6.999993324279785 2.86102294921875e-06 C 10.86598300933838 2.86102294921875e-06 13.99998378753662 3.134003639221191 13.99998378753662 6.999993324279785 C 13.99998378753662 10.86598300933838 10.86598300933838 13.99998378753662 6.999993324279785 13.99998378753662 C 3.134003639221191 13.99998378753662 2.86102294921875e-06 10.86598300933838 2.86102294921875e-06 6.999993324279785 C 2.86102294921875e-06 3.134003639221191 3.134003639221191 2.86102294921875e-06 6.999993324279785 2.86102294921875e-06 Z" stroke="none" fill="#888"/>
      </g>
      <path id="_" data-name="?" d="M-1.371-4.381h1.7C.169-5.925,2.142-6.4,2.142-8.012c0-1.53-1.118-2.218-2.605-2.218A3.131,3.131,0,0,0-2.858-9.05l1.066.96a1.672,1.672,0,0,1,1.2-.6.784.784,0,0,1,.882.817C.287-6.9-1.634-6.158-1.371-4.381Zm-.316,1.958A1.147,1.147,0,0,0-.529-1.23,1.158,1.158,0,0,0,.642-2.423,1.161,1.161,0,0,0-.529-3.629,1.15,1.15,0,0,0-1.686-2.423Z" transform="translate(899.079 374.157)" fill="#888"/>
    </g>
  </g>
</svg>
