<svg xmlns="http://www.w3.org/2000/svg" height="14" viewBox="0 0 14 14" width="14">
  <title>InfoSmall</title>
  <rect id="ToDelete" fill="#ff13dc" opacity="0" width="14" height="14" /><path d="M7,.77778A6.22222,6.22222,0,1,0,13.22222,7,6.22222,6.22222,0,0,0,7,.77778ZM6.88333,2.45a1.057,1.057,0,0,1,1.11308.99778q.00273.05018.0007.10044A1.036,1.036,0,0,1,6.88333,4.662,1.05229,1.05229,0,0,1,5.76956,3.54744,1.057,1.057,0,0,1,6.7837,2.44926Q6.83352,2.44728,6.88333,2.45ZM8.55556,10.5a.38889.38889,0,0,1-.38889.38889H5.83333A.38889.38889,0,0,1,5.44444,10.5V9.72222a.3889.3889,0,0,1,.38889-.38889h.38889V7H5.83333a.38889.38889,0,0,1-.38889-.38889V5.83333a.3889.3889,0,0,1,.38889-.38889H7.38889a.38889.38889,0,0,1,.38889.38889v3.5h.38889a.3889.3889,0,0,1,.38889.38889Z" />
</svg>