<svg xmlns="http://www.w3.org/2000/svg" xmlns:xlink="http://www.w3.org/1999/xlink" width="1920" height="1080" viewBox="0 0 1920 1080">
  <defs>
    <clipPath id="clip-Template:_マインドマップ_1">
      <rect width="1920" height="1080"/>
    </clipPath>
  </defs>
  <g id="Template:_マインドマップ_1" data-name="Template: マインドマップ 1" clip-path="url(#clip-Template:_マインドマップ_1)">
    <rect width="1920" height="1080" fill="#f7f7f7"/>
    <g id="Mindmap_Block_Element" data-name="Mindmap Block Element" transform="translate(480 380)">
      <g id="background_color_border_" data-name="background [color_border]" fill="#fff" stroke="#fd88d1" stroke-width="3">
        <rect width="240" height="60" rx="12" stroke="none"/>
        <rect x="1.5" y="1.5" width="237" height="57" rx="10.5" fill="none"/>
      </g>
      <text id="label" transform="translate(120 38)" fill="#101010" font-size="20" font-family="SourceHanSansJP-Bold, Source Han Sans JP"><tspan x="-79.3" y="0">プロダクトの機能</tspan></text>
    </g>
    <g id="Mindmap_Block_Element-2" data-name="Mindmap Block Element" transform="translate(1580 260)">
      <g id="background_color_border_2" data-name="background [color_border]" fill="#fff" stroke="#8484f3" stroke-width="3">
        <rect width="240" height="60" rx="12" stroke="none"/>
        <rect x="1.5" y="1.5" width="237" height="57" rx="10.5" fill="none"/>
      </g>
      <text id="label-2" data-name="label" transform="translate(120 38)" fill="#101010" font-size="20" font-family="SourceHanSansJP-Bold, Source Han Sans JP"><tspan x="-30" y="0">ラベル</tspan></text>
    </g>
    <g id="Mindmap_Block_Element-3" data-name="Mindmap Block Element" transform="translate(1580 660)">
      <g id="background_color_border_3" data-name="background [color_border]" fill="#fff" stroke="#7ee1ff" stroke-width="3">
        <rect width="240" height="60" rx="12" stroke="none"/>
        <rect x="1.5" y="1.5" width="237" height="57" rx="10.5" fill="none"/>
      </g>
      <text id="label-3" data-name="label" transform="translate(120 38)" fill="#101010" font-size="20" font-family="SourceHanSansJP-Bold, Source Han Sans JP"><tspan x="-30" y="0">ラベル</tspan></text>
    </g>
    <g id="Mindmap_Block_Element-4" data-name="Mindmap Block Element" transform="translate(1580 780)">
      <g id="background_color_border_4" data-name="background [color_border]" fill="#fff" stroke="#7ee1ff" stroke-width="3">
        <rect width="240" height="60" rx="12" stroke="none"/>
        <rect x="1.5" y="1.5" width="237" height="57" rx="10.5" fill="none"/>
      </g>
      <text id="label-4" data-name="label" transform="translate(120 38)" fill="#101010" font-size="20" font-family="SourceHanSansJP-Bold, Source Han Sans JP"><tspan x="-30" y="0">ラベル</tspan></text>
    </g>
    <g id="Mindmap_Block_Element-5" data-name="Mindmap Block Element" transform="translate(1580 900)">
      <g id="background_color_border_5" data-name="background [color_border]" fill="#fff" stroke="#7ee1ff" stroke-width="3">
        <rect width="240" height="60" rx="12" stroke="none"/>
        <rect x="1.5" y="1.5" width="237" height="57" rx="10.5" fill="none"/>
      </g>
      <text id="label-5" data-name="label" transform="translate(120 38)" fill="#101010" font-size="20" font-family="SourceHanSansJP-Bold, Source Han Sans JP"><tspan x="-30" y="0">ラベル</tspan></text>
    </g>
    <g id="Mindmap_Block_Element-6" data-name="Mindmap Block Element" transform="translate(120 380)">
      <g id="background_color_border_6" data-name="background [color_border]" fill="#fff" stroke="#fd88d1" stroke-width="3">
        <rect width="240" height="60" rx="12" stroke="none"/>
        <rect x="1.5" y="1.5" width="237" height="57" rx="10.5" fill="none"/>
      </g>
      <text id="label-6" data-name="label" transform="translate(120 38)" fill="#101010" font-size="20" font-family="SourceHanSansJP-Bold, Source Han Sans JP"><tspan x="-30" y="0">ラベル</tspan></text>
    </g>
    <g id="Mindmap_Block_Element-7" data-name="Mindmap Block Element" transform="translate(120 260)">
      <g id="background_color_border_7" data-name="background [color_border]" fill="#fff" stroke="#fd88d1" stroke-width="3">
        <rect width="240" height="60" rx="12" stroke="none"/>
        <rect x="1.5" y="1.5" width="237" height="57" rx="10.5" fill="none"/>
      </g>
      <text id="label-7" data-name="label" transform="translate(120 38)" fill="#101010" font-size="20" font-family="SourceHanSansJP-Bold, Source Han Sans JP"><tspan x="-30" y="0">ラベル</tspan></text>
    </g>
    <g id="Mindmap_Block_Element-8" data-name="Mindmap Block Element" transform="translate(120 500)">
      <g id="background_color_border_8" data-name="background [color_border]" fill="#fff" stroke="#fd88d1" stroke-width="3">
        <rect width="240" height="60" rx="12" stroke="none"/>
        <rect x="1.5" y="1.5" width="237" height="57" rx="10.5" fill="none"/>
      </g>
      <text id="label-8" data-name="label" transform="translate(120 38)" fill="#101010" font-size="20" font-family="SourceHanSansJP-Bold, Source Han Sans JP"><tspan x="-30" y="0">ラベル</tspan></text>
    </g>
    <g id="Mindmap_Block_Element-9" data-name="Mindmap Block Element" transform="translate(480 780)">
      <g id="background_color_border_9" data-name="background [color_border]" fill="#fff" stroke="#ffd86f" stroke-width="3">
        <rect width="240" height="60" rx="12" stroke="none"/>
        <rect x="1.5" y="1.5" width="237" height="57" rx="10.5" fill="none"/>
      </g>
      <text id="label-9" data-name="label" transform="translate(120 38)" fill="#101010" font-size="20" font-family="SourceHanSansJP-Bold, Source Han Sans JP"><tspan x="-70" y="0">ユーザーの悩み</tspan></text>
    </g>
    <g id="Mindmap_Block_Element-10" data-name="Mindmap Block Element" transform="translate(840 580)">
      <g id="background_color_border_10" data-name="background [color_border]" fill="#fff" stroke="#101010" stroke-width="3">
        <rect width="240" height="60" rx="12" stroke="none"/>
        <rect x="1.5" y="1.5" width="237" height="57" rx="10.5" fill="none"/>
      </g>
      <text id="label-10" data-name="label" transform="translate(120 38)" fill="#101010" font-size="20" font-family="SourceHanSansJP-Bold, Source Han Sans JP" letter-spacing="-0.1em"><tspan x="-28" y="0">テーマ</tspan></text>
    </g>
    <g id="Mindmap_Block_Element-11" data-name="Mindmap Block Element" transform="translate(1220 380)">
      <g id="background_color_border_11" data-name="background [color_border]" fill="#fff" stroke="#8484f3" stroke-width="3">
        <rect width="240" height="60" rx="12" stroke="none"/>
        <rect x="1.5" y="1.5" width="237" height="57" rx="10.5" fill="none"/>
      </g>
      <text id="label-11" data-name="label" transform="translate(120 38)" fill="#101010" font-size="20" font-family="SourceHanSansJP-Bold, Source Han Sans JP"><tspan x="-70" y="0">ビジネスの条件</tspan></text>
    </g>
    <g id="Mindmap_Block_Element-12" data-name="Mindmap Block Element" transform="translate(1220 780)">
      <g id="background_color_border_12" data-name="background [color_border]" fill="#fff" stroke="#7ee1ff" stroke-width="3">
        <rect width="240" height="60" rx="12" stroke="none"/>
        <rect x="1.5" y="1.5" width="237" height="57" rx="10.5" fill="none"/>
      </g>
      <text id="label-12" data-name="label" transform="translate(120 38)" fill="#101010" font-size="20" font-family="SourceHanSansJP-Bold, Source Han Sans JP"><tspan x="-100" y="0">技術的に考慮すること</tspan></text>
    </g>
    <g id="Mindmap_Block_Element-13" data-name="Mindmap Block Element" transform="translate(1580 380)">
      <g id="background_color_border_13" data-name="background [color_border]" fill="#fff" stroke="#8484f3" stroke-width="3">
        <rect width="240" height="60" rx="12" stroke="none"/>
        <rect x="1.5" y="1.5" width="237" height="57" rx="10.5" fill="none"/>
      </g>
      <text id="label-13" data-name="label" transform="translate(120 38)" fill="#101010" font-size="20" font-family="SourceHanSansJP-Bold, Source Han Sans JP"><tspan x="-30" y="0">ラベル</tspan></text>
    </g>
    <g id="Mindmap_Block_Element-14" data-name="Mindmap Block Element" transform="translate(1580 500)">
      <g id="background_color_border_14" data-name="background [color_border]" fill="#fff" stroke="#8484f3" stroke-width="3">
        <rect width="240" height="60" rx="12" stroke="none"/>
        <rect x="1.5" y="1.5" width="237" height="57" rx="10.5" fill="none"/>
      </g>
      <text id="label-14" data-name="label" transform="translate(120 38)" fill="#101010" font-size="20" font-family="SourceHanSansJP-Bold, Source Han Sans JP"><tspan x="-30" y="0">ラベル</tspan></text>
    </g>
    <g id="Mindmap_Block_Element-15" data-name="Mindmap Block Element" transform="translate(120 720)">
      <g id="background_color_border_15" data-name="background [color_border]" fill="#fff" stroke="#ffd86f" stroke-width="3">
        <rect width="240" height="60" rx="12" stroke="none"/>
        <rect x="1.5" y="1.5" width="237" height="57" rx="10.5" fill="none"/>
      </g>
      <text id="label-15" data-name="label" transform="translate(120 38)" fill="#101010" font-size="20" font-family="SourceHanSansJP-Bold, Source Han Sans JP"><tspan x="-30" y="0">ラベル</tspan></text>
    </g>
    <g id="Mindmap_Block_Element-16" data-name="Mindmap Block Element" transform="translate(120 840)">
      <g id="background_color_border_16" data-name="background [color_border]" fill="#fff" stroke="#ffd86f" stroke-width="3">
        <rect width="240" height="60" rx="12" stroke="none"/>
        <rect x="1.5" y="1.5" width="237" height="57" rx="10.5" fill="none"/>
      </g>
      <text id="label-16" data-name="label" transform="translate(120 38)" fill="#101010" font-size="20" font-family="SourceHanSansJP-Bold, Source Han Sans JP"><tspan x="-30" y="0">ラベル</tspan></text>
    </g>
    <g id="Mindmap_Connector_-_Top_-_Element" data-name="Mindmap Connector - Top - Element" transform="translate(720 410)" opacity="0.5">
      <path id="line_color_border_" data-name="line [color_border]" d="M7009-788s-30.461-2.469-60.2-99.96S6889-988,6889-988" transform="translate(-6889 988)" fill="none" stroke="#fd88d1" stroke-linecap="round" stroke-width="3.5"/>
    </g>
    <g id="Mindmap_Connector_Element" data-name="Mindmap Connector Element" transform="translate(720 610)" opacity="0.5">
      <path id="line_color_border_2" data-name="line [color_border]" d="M6889-788s30.46-2.469,60.2-99.96S7009-988,7009-988" transform="translate(-6889 988)" fill="none" stroke="#ffd86f" stroke-linecap="round" stroke-width="3.5"/>
    </g>
    <g id="Mindmap_Connector_-_Top_-_Element-2" data-name="Mindmap Connector - Top - Element" transform="translate(1079.297 410)" opacity="0.5">
      <path id="line_color_border_3" data-name="line [color_border]" d="M6889-788s35.791-2.469,70.734-99.96S7030-988,7030-988" transform="translate(-6889 988)" fill="none" stroke="#8484f3" stroke-linecap="round" stroke-width="3.5"/>
    </g>
    <g id="Mindmap_Connector_Element-2" data-name="Mindmap Connector Element" transform="translate(1080 610)" opacity="0.5">
      <path id="line_color_border_4" data-name="line [color_border]" d="M7029-788s-35.537-2.469-70.232-99.96S6889-988,6889-988" transform="translate(-6889 988)" fill="none" stroke="#7ee1ff" stroke-linecap="round" stroke-width="3.5"/>
    </g>
    <g id="Mindmap_Connector_-_Top_-_Element-3" data-name="Mindmap Connector - Top - Element" transform="translate(360 290)" opacity="0.498">
      <path id="line_color_border_5" data-name="line [color_border]" d="M7009-868s-30.461-1.482-60.2-59.976S6889-988,6889-988" transform="translate(-6889 988)" fill="none" stroke="#fd88d1" stroke-linecap="round" stroke-width="3.5"/>
    </g>
    <g id="Mindmap_Connector_Element-3" data-name="Mindmap Connector Element" transform="translate(360 410)" opacity="0.498">
      <path id="line_color_border_6" data-name="line [color_border]" d="M7009-987.5s-30.461-.006-60.2-.25S6889-988,6889-988" transform="translate(-6889 988)" fill="none" stroke="#fd88d1" stroke-linecap="round" stroke-width="3.5"/>
    </g>
    <g id="Mindmap_Connector_Element-4" data-name="Mindmap Connector Element" transform="translate(360 410)" opacity="0.498">
      <path id="line_color_border_7" data-name="line [color_border]" d="M6889-868s30.46-1.482,60.2-59.976S7009-988,7009-988" transform="translate(-6889 988)" fill="none" stroke="#fd88d1" stroke-linecap="round" stroke-width="3.5"/>
    </g>
    <g id="Mindmap_Connector_Element-5" data-name="Mindmap Connector Element" transform="translate(360 812)" opacity="0.498">
      <path id="line_color_border_8" data-name="line [color_border]" d="M6889-930s30.46-.716,60.2-28.988S7009-988,7009-988" transform="translate(-6889 988)" fill="none" stroke="#ffd86f" stroke-linecap="round" stroke-width="3.5"/>
    </g>
    <g id="Mindmap_Connector_-_Top_-_Element-4" data-name="Mindmap Connector - Top - Element" transform="translate(360 750)" opacity="0.498">
      <path id="line_color_border_9" data-name="line [color_border]" d="M7009-926s-30.461-.766-60.2-30.988S6889-988,6889-988" transform="translate(-6889 988)" fill="none" stroke="#ffd86f" stroke-linecap="round" stroke-width="3.5"/>
    </g>
    <g id="Mindmap_Connector_Element-6" data-name="Mindmap Connector Element" transform="translate(1460 410)" opacity="0.498">
      <path id="line_color_border_10" data-name="line [color_border]" d="M7009-868s-30.461-1.482-60.2-59.976S6889-988,6889-988" transform="translate(-6889 988)" fill="none" stroke="#8484f3" stroke-linecap="round" stroke-width="3.5"/>
    </g>
    <g id="Mindmap_Connector_Element-7" data-name="Mindmap Connector Element" transform="translate(1460 811)" opacity="0.498">
      <path id="line_color_border_11" data-name="line [color_border]" d="M7009-873s-30.461-1.42-60.2-57.477S6889-988,6889-988" transform="translate(-6889 988)" fill="none" stroke="#7ee1ff" stroke-linecap="round" stroke-width="3.5"/>
    </g>
    <g id="Mindmap_Connector_Element-8" data-name="Mindmap Connector Element" transform="translate(1460 409.5)" opacity="0.498">
      <path id="line_color_border_12" data-name="line [color_border]" d="M7009-987.5s-30.461-.006-60.2-.25S6889-988,6889-988" transform="translate(-6889 988)" fill="none" stroke="#8484f3" stroke-linecap="round" stroke-width="3.5"/>
    </g>
    <g id="Mindmap_Connector_Element-9" data-name="Mindmap Connector Element" transform="translate(1460 810.5)" opacity="0.498">
      <path id="line_color_border_13" data-name="line [color_border]" d="M7009-987.5s-30.461-.006-60.2-.25S6889-988,6889-988" transform="translate(-6889 988)" fill="none" stroke="#7ee1ff" stroke-linecap="round" stroke-width="3.5"/>
    </g>
    <g id="Mindmap_Connector_-_Top_-_Element-5" data-name="Mindmap Connector - Top - Element" transform="translate(1460 290)" opacity="0.498">
      <path id="line_color_border_14" data-name="line [color_border]" d="M6889-868s30.46-1.482,60.2-59.976S7009-988,7009-988" transform="translate(-6889 988)" fill="none" stroke="#8484f3" stroke-linecap="round" stroke-width="3.5"/>
    </g>
    <g id="Mindmap_Connector_-_Top_-_Element-6" data-name="Mindmap Connector - Top - Element" transform="translate(1460 686)" opacity="0.498">
      <path id="line_color_border_15" data-name="line [color_border]" d="M6889-863s30.46-1.543,60.2-62.475S7009-988,7009-988" transform="translate(-6889 988)" fill="none" stroke="#7ee1ff" stroke-linecap="round" stroke-width="3.5"/>
    </g>
    <g id="Element_-_Slide_Header" data-name="Element - Slide Header">
      <rect id="area" width="1920" height="180" fill="#fff" opacity="0"/>
      <text id="Description" transform="translate(60 116)" fill="#b0b0b0" font-size="16" font-family="SourceHanSansJP-Bold, Source Han Sans JP"><tspan x="0" y="0">マインドマップは</tspan><tspan y="0" font-family="SourceHanSansJP-Bold, Source Han Sans JP" font-weight="700">1974</tspan><tspan y="0">年にイギリスの</tspan><tspan y="0" font-family="SourceHanSansJP-Bold, Source Han Sans JP" font-weight="700">BBC</tspan><tspan y="0">局の</tspan><tspan y="0" font-family="SourceHanSansJP-Bold, Source Han Sans JP" font-weight="700">TV</tspan><tspan y="0">ホスト、トニー・ブザンの</tspan><tspan y="0" font-family="SourceHanSansJP-Bold, Source Han Sans JP" font-weight="700">”Use Your Head (</tspan><tspan y="0">頭がよくなる本</tspan><tspan y="0" font-family="SourceHanSansJP-Bold, Source Han Sans JP" font-weight="700">)”</tspan><tspan y="0">という著書で紹介されました。</tspan><tspan y="0" font-family="SourceHanSansJP-Bold, Source Han Sans JP" font-weight="700"></tspan><tspan x="0" y="27">以来マインドマップは１つの考えに対しての様々な事柄の関係性を表現するのによく用いられる手法です。</tspan></text>
      <text id="Title" transform="translate(60 84)" fill="#101010" font-size="32" font-family="SourceHanSansJP-Bold, Source Han Sans JP"><tspan x="0" y="0">マインドマップ</tspan><tspan y="0" xml:space="preserve" font-family="SourceHanSansJP-Bold, Source Han Sans JP" font-weight="700"> - </tspan><tspan y="0">放射思考</tspan></text>
      <text id="Date" transform="translate(1719 116)" fill="#b0b0b0" font-size="16" font-family="SourceHanSansJP-Bold, Source Han Sans JP" font-weight="700"><tspan x="-112.192" y="0">2020</tspan><tspan y="0" font-family="SourceHanSansJP-Bold, Source Han Sans JP" font-weight="400">年</tspan><tspan y="0">3</tspan><tspan y="0" font-family="SourceHanSansJP-Bold, Source Han Sans JP" font-weight="400">月</tspan><tspan y="0">20</tspan><tspan y="0" font-family="SourceHanSansJP-Bold, Source Han Sans JP" font-weight="400">日</tspan></text>
      <text id="プロジェクト名" transform="translate(1860 116)" fill="#b0b0b0" font-size="16" font-family="SourceHanSansJP-Bold, Source Han Sans JP"><tspan x="-111.52" y="0">プロジェクト名</tspan></text>
    </g>
  </g>
</svg>
