<svg xmlns="http://www.w3.org/2000/svg" viewBox="0 0 16.39 14"><defs><style>.cls-1{fill:#666;}</style></defs><title>Asset 31</title><g id="Layer_2" data-name="Layer 2"><g id="Layer_1-2" data-name="Layer 1"><path class="cls-1" d="M2.57,8.68h0a.75.75,0,0,0,.57.24.76.76,0,0,0,.53-.21L6,6.36A.76.76,0,0,0,5,5.29l-1,1a5.48,5.48,0,1,1,5.41,6.21,5.7,5.7,0,0,1-2.53-.59.75.75,0,0,0-.68,1.34A7,7,0,1,0,9.38,0a7,7,0,0,0-7,6.42L1.29,5.29a.75.75,0,0,0-1.07,0,.77.77,0,0,0,0,1.07Z"/><path class="cls-1" d="M9.38,2.62a.73.73,0,0,0-.75.74V7a.86.86,0,0,0,.21.53L11,9.69a.72.72,0,0,0,.54.21.7.7,0,0,0,.53-.21.75.75,0,0,0,0-1.07l-2-2V3.39A.76.76,0,0,0,9.38,2.62Z"/></g></g></svg>