<svg xmlns="http://www.w3.org/2000/svg" viewBox="0 0 16.39 14"><defs><style>.cls-1{fill:#666;}</style></defs><title>Asset 32</title><g id="Layer_2" data-name="Layer 2"><g id="Layer_1-2" data-name="Layer 1"><path class="cls-1" d="M16.17,6.36A.76.76,0,1,0,15.1,5.29L14,6.42A7,7,0,1,0,7,14a7.14,7.14,0,0,0,3.22-.77.75.75,0,0,0-.69-1.34A5.66,5.66,0,0,1,7,12.48a5.5,5.5,0,1,1,5.41-6.21l-1-1a.75.75,0,0,0-1.07,0,.77.77,0,0,0,0,1.07l2.35,2.35a.77.77,0,0,0,.54.21.74.74,0,0,0,.56-.24h0Z"/><path class="cls-1" d="M6.52,2.62a.73.73,0,0,0-.75.74V7A.86.86,0,0,0,6,7.52L8.15,9.69a.72.72,0,0,0,.54.21.72.72,0,0,0,.53-.21.75.75,0,0,0,0-1.07l-2-2V3.39A.76.76,0,0,0,6.52,2.62Z"/></g></g></svg>