<svg xmlns="http://www.w3.org/2000/svg" viewBox="0 0 192 192"><path d="M159,191.58q-63,.84-126.06,0A33.3,33.3,0,0,1,.42,159Q-.42,96,.42,33A33.3,33.3,0,0,1,33,.42Q96-.42,159,.42A33.3,33.3,0,0,1,191.58,33q.84,63,0,126.06A33.3,33.3,0,0,1,159,191.58Z" fill="#fff"/><path d="M130.81,96h25.38a3.14,3.14,0,0,0,3.14-3.14V64.09a31.42,31.42,0,0,0-31.42-31.42H67.48a3.14,3.14,0,0,0-3.15,3.14V64.33h60.2a3.15,3.15,0,0,1,3.14,3.14V92.86A3.14,3.14,0,0,0,130.81,96Z" fill="#ff5000"/><path d="M64.33,93.74V64.33H35.81a3.14,3.14,0,0,0-3.14,3.14v88.72a3.13,3.13,0,0,0,3.14,3.14H61.19a3.13,3.13,0,0,0,3.14-3.14V129.85a1.57,1.57,0,0,1,2.07-1.49l88.8,30.81a3.14,3.14,0,0,0,4.13-3v-25a3.12,3.12,0,0,0-2.14-3L66.48,96.72A3.15,3.15,0,0,1,64.33,93.74Z" fill="#ff5000"/></svg>