<svg xmlns="http://www.w3.org/2000/svg" viewBox="0 0 24 24"><defs><style>.cls-1{fill:#ff5000;}.cls-2{fill:none;}.cls-3{fill:#fff;}</style></defs><title>lock</title><g id="Layer_2" data-name="Layer 2"><g id="Layer_1-2" data-name="Layer 1"><circle class="cls-1" cx="12" cy="12" r="12"/><path class="cls-2" d="M11.45,14.45v-.6A1.05,1.05,0,0,1,11,13a1,1,0,0,1,2,0,1.05,1.05,0,0,1-.5.9v.6a.5.5,0,0,1-1,0Z"/><path class="cls-3" d="M16,9V9A4,4,0,0,0,8,9V9H7v9H17V9ZM9.45,9A2.61,2.61,0,0,1,12,6.45,2.48,2.48,0,0,1,14.45,9V9h-5ZM15.5,16.5h-7v-6h7Z"/><path class="cls-3" d="M12,15a.47.47,0,0,1-.5-.5v-.6A1.05,1.05,0,0,1,11,13a1,1,0,0,1,2,0,1.05,1.05,0,0,1-.5.9v.6A.47.47,0,0,1,12,15Z"/></g></g></svg>