<svg xmlns="http://www.w3.org/2000/svg" viewBox="0 0 13.01 14"><defs><style>.cls-1,.cls-2{fill:#666;}.cls-2{fill-rule:evenodd;}</style></defs><title>Asset 34</title><g id="Layer_2" data-name="Layer 2"><g id="Layer_1-2" data-name="Layer 1"><path class="cls-1" d="M3.52,5.81a1.86,1.86,0,0,1-1.38.53,1.74,1.74,0,0,1-1.3-.5A3.63,3.63,0,0,1,0,3.11,4,4,0,0,1,.55.91,2.66,2.66,0,0,1,1,.45,1.86,1.86,0,0,1,2.12,0a2,2,0,0,1,1.13.3,1.6,1.6,0,0,1,.38.33,4.26,4.26,0,0,1,.72,2.55A3.78,3.78,0,0,1,3.52,5.81ZM2.79,1.63c0-.09-.21-.52-.64-.5a.57.57,0,0,0-.26.08,1.11,1.11,0,0,0-.41.73,6.15,6.15,0,0,0-.13,1.47,4.46,4.46,0,0,0,.12,1.06c.15.61.44.76.72.76a.59.59,0,0,0,.43-.18A3.49,3.49,0,0,0,3,3.2,5.23,5.23,0,0,0,2.79,1.63Z"/><path class="cls-1" d="M4,12.8a2.3,2.3,0,0,1-.5.67A2.06,2.06,0,0,1,2,14,1.73,1.73,0,0,1,.29,12.93a2,2,0,0,1-.16-.62l1.44-.15a.73.73,0,0,0,.19.59.54.54,0,0,0,.36.13.76.76,0,0,0,.31-.07.88.88,0,0,0,.41-.57A4.76,4.76,0,0,0,3,11l-.12.18a1.59,1.59,0,0,1-1.21.53A1.66,1.66,0,0,1,.12,10.55,2.16,2.16,0,0,1,0,9.8,2.13,2.13,0,0,1,.45,8.41,2.25,2.25,0,0,1,.86,8a2.5,2.5,0,0,1,1.33-.36A2.05,2.05,0,0,1,3.33,8c.61.4,1,1.17,1,2.68A6,6,0,0,1,4,12.8ZM2.53,8.87a.59.59,0,0,0-.41-.15.7.7,0,0,0-.36.1c-.22.12-.38.37-.38.89s.2.77.43.87a.68.68,0,0,0,.34.06c.33,0,.68-.25.68-.93A1,1,0,0,0,2.53,8.87Z"/><path class="cls-2" d="M12.73,9.6H11V0H9.07V9.6H7.34c-.25,0-.36.18-.22.42L9.75,13.8c.16.27.41.27.56,0L13,10C13.09,9.78,13,9.6,12.73,9.6Z"/></g></g></svg>