<svg xmlns="http://www.w3.org/2000/svg" viewBox="0 0 13.01 14"><defs><style>.cls-1,.cls-2{fill:#666;}.cls-2{fill-rule:evenodd;}</style></defs><title>Asset 33</title><g id="Layer_2" data-name="Layer 2"><g id="Layer_1-2" data-name="Layer 1"><path class="cls-1" d="M3.52,13.46A1.9,1.9,0,0,1,2.14,14a1.76,1.76,0,0,1-1.3-.51A3.6,3.6,0,0,1,0,10.76a3.9,3.9,0,0,1,.53-2.2A2.84,2.84,0,0,1,1,8.09a1.85,1.85,0,0,1,1.17-.43A1.93,1.93,0,0,1,3.25,8a1.23,1.23,0,0,1,.38.33,4.23,4.23,0,0,1,.72,2.55A3.8,3.8,0,0,1,3.52,13.46ZM2.79,9.27c0-.08-.21-.51-.64-.5a.55.55,0,0,0-.26.09c-.17.1-.3.29-.41.73a6.05,6.05,0,0,0-.13,1.46,4.41,4.41,0,0,0,.12,1.06c.15.62.44.76.72.76a.59.59,0,0,0,.43-.18A3.45,3.45,0,0,0,3,10.85,5.26,5.26,0,0,0,2.79,9.27Z"/><path class="cls-1" d="M4,5.16a2.14,2.14,0,0,1-.5.66A2,2,0,0,1,2,6.34,1.72,1.72,0,0,1,.29,5.28a2,2,0,0,1-.16-.62l1.44-.14a.71.71,0,0,0,.19.58.51.51,0,0,0,.36.14.76.76,0,0,0,.31-.07.93.93,0,0,0,.41-.58A4.63,4.63,0,0,0,3,3.32a1.05,1.05,0,0,1-.12.18A1.56,1.56,0,0,1,1.68,4,1.66,1.66,0,0,1,.12,2.91,2.21,2.21,0,0,1,0,2.16,2.12,2.12,0,0,1,.45.77,1.72,1.72,0,0,1,.86.38,2.41,2.41,0,0,1,2.19,0,2.11,2.11,0,0,1,3.33.34c.61.41,1,1.17,1,2.68A6,6,0,0,1,4,5.16ZM2.53,1.22a.62.62,0,0,0-.41-.14.7.7,0,0,0-.36.1c-.22.12-.38.37-.38.88s.2.78.43.87A.66.66,0,0,0,2.15,3c.33,0,.68-.25.68-.94A1,1,0,0,0,2.53,1.22Z"/><path class="cls-2" d="M12.73,9.6H11V0H9.07V9.6H7.34c-.25,0-.36.18-.22.42L9.75,13.8c.16.27.41.27.56,0L13,10C13.09,9.78,13,9.6,12.73,9.6Z"/></g></g></svg>