<svg xmlns="http://www.w3.org/2000/svg" viewBox="0 0 16.03 7">
  <title>numbers</title>
  <g id="Layer_2" data-name="Layer 2">
    <g id="Layer_1-2" data-name="Layer 1">
      <g>
        <path d="M0,5.61H1.82V1.71H.32v-1A4.76,4.76,0,0,0,2.23.13H3.38V5.61H4.91V6.87H0Z"/>
        <path d="M5.37,6C7.3,4.35,8.6,3.21,8.6,2.24c0-.65-.4-1-1.11-1a2.1,2.1,0,0,0-1.36.68l-.84-.84A3.12,3.12,0,0,1,7.7,0a2.15,2.15,0,0,1,2.39,2.15c0,1.14-1.17,2.35-2.48,3.49.39,0,.88-.08,1.23-.08h1.6V6.87H5.37Z"/>
        <path d="M10.84,6l.72-1a2.6,2.6,0,0,0,1.65.68c.73,0,1.26-.29,1.26-.8s-.46-1-2-1V2.87c1.32,0,1.81-.37,1.81-.9s-.39-.74-1-.74a2.23,2.23,0,0,0-1.43.59L11,.86A3.61,3.61,0,0,1,13.32,0c1.48,0,2.5.67,2.5,1.85,0,.7-.49,1.19-1.3,1.5v0A1.75,1.75,0,0,1,16,5c0,1.25-1.25,2-2.67,2A3.31,3.31,0,0,1,10.84,6Z"/>
      </g>
    </g>
  </g>
</svg>
