<svg xmlns="http://www.w3.org/2000/svg" viewBox="0 0 14 14.39"><defs><style>.cls-1{fill:#666;}</style></defs><title>Asset 30</title><g id="Layer_2" data-name="Layer 2"><g id="Layer_1-2" data-name="Layer 1"><path class="cls-1" d="M0,2.7H2.26A2.16,2.16,0,0,0,4.34,4.39,2.17,2.17,0,0,0,6.43,2.7H14v-1H6.43A2.16,2.16,0,0,0,4.34,0,2.16,2.16,0,0,0,2.26,1.7H0Z"/><path class="cls-1" d="M0,12.7H2.26a2.16,2.16,0,0,0,2.08,1.69A2.17,2.17,0,0,0,6.43,12.7H14v-1H6.43A2.16,2.16,0,0,0,4.34,10a2.16,2.16,0,0,0-2.08,1.7H0Z"/><path class="cls-1" d="M14,6.7H11.74a2.13,2.13,0,0,0-4.17,0H0v1H7.57a2.13,2.13,0,0,0,4.17,0H14Z"/></g></g></svg>