<svg xmlns="http://www.w3.org/2000/svg" viewBox="0 0 12.97 8">
  <title>text</title>
  <g id="Layer_2" data-name="Layer 2">
    <g id="Layer_1-2" data-name="Layer 1">
      <g>
        <path d="M4.58,0H2.44L0,7.85H1.82L2.3,6H4.66l.48,1.86H7ZM2.66,4.6l.18-.72c.2-.79.42-1.71.61-2.54h0c.18.83.42,1.75.62,2.54l.18.72Z"/>
        <path d="M7.27,6.2c0-1.34,1.1-2,3.93-2.2-.06-.53-.47-.86-1.27-.86a4.08,4.08,0,0,0-1.82.56L7.48,2.54a5.67,5.67,0,0,1,2.79-.81A2.42,2.42,0,0,1,13,4.44V7.85H11.52l-.12-.67h-.05A3.67,3.67,0,0,1,9.23,8,1.81,1.81,0,0,1,7.27,6.2Zm3.93-.15v-1C9.44,5.16,9,5.54,9,6.05s.32.58.82.58A2.27,2.27,0,0,0,11.2,6.05Z"/>
      </g>
    </g>
  </g>
</svg>
