<svg xmlns="http://www.w3.org/2000/svg" viewBox="0 0 24 24"><defs><style>.cls-1{fill:#ccc;}.cls-2{fill:#fff;}</style></defs><title>unlock</title><g id="Layer_2" data-name="Layer 2"><g id="Layer_1-2" data-name="Layer 1"><circle class="cls-1" cx="12" cy="12" r="12"/><path class="cls-2" d="M9.5,9A2.49,2.49,0,0,1,14,7.46l1.16-.94A4,4,0,0,0,8,9H7v9H17V9Zm6,7.5h-7v-6h7Z"/><path class="cls-2" d="M12,15a.5.5,0,0,1-.5-.5v-.64A1,1,0,0,1,11,13a1,1,0,0,1,2,0,1,1,0,0,1-.5.86v.64A.5.5,0,0,1,12,15Z"/></g></g></svg>