<svg xmlns="http://www.w3.org/2000/svg" width="43.5" height="43.5" viewBox="0 0 43.5 43.5">
  <g id="Emotion_-_Love_-_Element" data-name="Emotion - Love - Element" transform="translate(1.75 1.75)">
    <circle id="ellipse_color_border_" data-name="ellipse [color_border]" cx="20" cy="20" r="20" stroke-width="3.5" stroke="#8484f3" stroke-linecap="round" stroke-linejoin="round" fill="#fff"/>
    <path id="line_color_border_" data-name="line [color_border]" d="M328.594,484.948a10,10,0,0,1-17.322,0" transform="translate(-299.933 -459.946)" fill="none" stroke="#8484f3" stroke-linecap="round" stroke-linejoin="round" stroke-width="3.5"/>
    <path id="line_color_border_2" data-name="line [color_border]" d="M5.75,0A2.24,2.24,0,0,0,4,.838,2.249,2.249,0,0,0,0,2.25C0,4.912,3.739,7.842,3.9,7.965a.166.166,0,0,0,.2,0C4.261,7.842,8,4.912,8,2.25A2.253,2.253,0,0,0,5.75,0Z" transform="translate(9 11)" fill="none" stroke="#8484f3" stroke-linecap="round" stroke-linejoin="round" stroke-width="3.5"/>
    <path id="line_color_border_3" data-name="line [color_border]" d="M5.75,0A2.24,2.24,0,0,0,4,.838,2.249,2.249,0,0,0,0,2.25C0,4.912,3.739,7.842,3.9,7.965a.166.166,0,0,0,.2,0C4.261,7.842,8,4.912,8,2.25A2.253,2.253,0,0,0,5.75,0Z" transform="translate(23 11)" fill="none" stroke="#8484f3" stroke-linecap="round" stroke-linejoin="round" stroke-width="3.5"/>
  </g>
</svg>
