<svg xmlns="http://www.w3.org/2000/svg" width="16" height="16" viewBox="0 0 16 16">
  <g id="Icon" transform="translate(0 -12)">
    <rect id="icon_area" data-name="icon area" width="16" height="16" transform="translate(0 12)" fill="#707070" opacity="0"/>
    <g id="Smock_SentimentPositive_18_N" transform="translate(0 12)">
      <rect id="Canvas" width="16" height="16" fill="#707070" opacity="0"/>
      <path id="Path_60899" data-name="Path 60899" d="M8.111,1a7.111,7.111,0,1,0,7.111,7.111A7.111,7.111,0,0,0,8.111,1Zm-2.5,2.9A1.528,1.528,0,0,1,6.94,5.571,1.528,1.528,0,0,1,5.607,7.237,1.528,1.528,0,0,1,4.273,5.571,1.528,1.528,0,0,1,5.607,3.9Zm4.937-.045a1.529,1.529,0,0,1,1.333,1.668,1.528,1.528,0,0,1-1.333,1.667A1.528,1.528,0,0,1,9.21,5.526a1.529,1.529,0,0,1,1.333-1.668ZM8.111,12.573A4.381,4.381,0,0,1,3.667,8.956h8.889a4.381,4.381,0,0,1-4.444,3.618Z" transform="translate(-0.111 -0.111)" fill="#707070"/>
    </g>
  </g>
</svg>
