<svg
  xmlns="http://www.w3.org/2000/svg"
  width="24"
  height="24"
  viewBox="0 0 24 24"
  fill="none"
  stroke="currentColor"
  stroke-width="2"
  stroke-linecap="round"
  stroke-linejoin="round"
>
  <path d="M27.767,13.65H26.8V13.6H16v4.8h6.782a7.206,7.206,0,1,1-2.005-7.777l3.394-3.394A11.988,11.988,0,1,0,28,16,12.082,12.082,0,0,0,27.767,13.65Z" transform="translate(-4 -4)"/>
  <path d="M6.306,10.437l3.957,2.9a7.211,7.211,0,0,1,11.491-2.692L25.16,7.241a12.019,12.019,0,0,0-18.854,3.2Z" transform="translate(-4.918 -4)" />
  <path d="M16.916,37.655a11.986,11.986,0,0,0,8.074-3.126l-3.727-3.154a7.207,7.207,0,0,1-11.14-3.321L6.2,31.08A12.033,12.033,0,0,0,16.916,37.655Z" transform="translate(-4.873 -13.655)" />
  <path d="M35.808,20.05h-.97V20H24v4.817h6.806a7.25,7.25,0,0,1-2.461,3.354h0l3.727,3.154a11.649,11.649,0,0,0,3.969-8.916A12.124,12.124,0,0,0,35.808,20.05Z" transform="translate(-12.042 -10.451)" />
</svg>
