<svg xmlns="http://www.w3.org/2000/svg" width="16" height="16" viewBox="0 0 16 16">
  <g id="Icon" transform="translate(0 -12)">
    <rect id="icon_area" data-name="icon area" width="16" height="16" transform="translate(0 12)" fill="#707070" opacity="0"/>
    <g id="Smock_AnnotatePen_18_N" transform="translate(0 12)">
      <rect id="Canvas" width="16" height="16" fill="#707070" opacity="0"/>
      <path id="Path_60892" data-name="Path 60892" d="M13.417,2.088a.43.43,0,0,0-.019-.6.428.428,0,0,0-.6-.02h0a.694.694,0,0,0-.052.064l0-.006L8.851,5.4l.005.007a.32.32,0,0,0-.064.053.441.441,0,1,0,.677.559l.006.006,3.884-3.883-.007-.006a.362.362,0,0,0,.065-.052Z" transform="translate(-0.962 -0.15)" fill="#707070"/>
      <path id="Path_60893" data-name="Path 60893" d="M13.47,2.941c-.32.32-4.239,4.287-4.261,4.311a.984.984,0,0,1-1.05.013l-.341-.322-4.8,4.705a.667.667,0,0,0-.145.213l-.832,2.847a.167.167,0,0,0,.222.218l2.857-.867a.667.667,0,0,0,.2-.139l9.593-9.559Z" transform="translate(-0.225 -0.327)" fill="#707070"/>
      <path id="Path_60894" data-name="Path 60894" d="M15.352,2.008l1.38,1.314a1.236,1.236,0,0,0-.359-1.435,1.467,1.467,0,0,0-1.431-.471c-.08.028.029.133.061.167S15.331,1.965,15.352,2.008Z" transform="translate(-1.657 -0.153)" fill="#707070"/>
      <path id="Path_60895" data-name="Path 60895" d="M1.71,12.428C.353,8.4,1.843,4.9,5.588,2.869c.564-.307.119-1.2-.449-.894C1.029,4.209-.423,7.948,1.071,12.435,1.71,14.352,1.71,12.428,1.71,12.428Z" transform="translate(-0.055 -0.212)" fill="#707070"/>
    </g>
  </g>
</svg>
