<svg id="Note_-_Dotted_-_Element" data-name="Note - Dotted - Element" xmlns="http://www.w3.org/2000/svg" width="160" height="134" viewBox="0 0 160 134">
  <path id="triangle_color_fill_" data-name="triangle [color_fill]" d="M0,0H20L0,16Z" transform="translate(18 118)" fill="#ffd86f" opacity="0.255"/>
  <g id="triangle_color_border_" data-name="triangle [color_border]" transform="translate(18 118)" fill="none" stroke-dasharray="2 2">
    <path d="M0,0H20L0,16Z" stroke="none"/>
    <path d="M 4 0 L 6 0 L 6 2 L 4 2 L 4 0 Z M 8 0 L 10 0 L 10 2 L 8 2 L 8 0 Z M 12 0 L 14 0 L 14 2 L 12 2 L 12 0 Z M 16 0 L 20 0 C 20 0 20 0 20 0 L 20 0 C 19.99978828430176 0.0001697540283203125 19.99970245361328 0.0002374649047851562 19.99959754943848 0.0003213882446289062 L 20 0 C 19.99948883056641 0.0004091262817382812 19.99946594238281 0.00042724609375 19.99944305419922 0.0004453659057617188 L 19.9992504119873 0.000598907470703125 C 19.9992504119873 0.000598907470703125 19.9992504119873 0.000598907470703125 19.9992504119873 0.000598907470703125 L 19.99860763549805 0.0011138916015625 C 19.99858474731445 0.001132011413574219 19.99856567382812 0.001147270202636719 19.99854278564453 0.001166343688964844 L 19.99725341796875 0.002198219299316406 C 19.99725341796875 0.002198219299316406 19.99725341796875 0.002198219299316406 19.99725341796875 0.002198219299316406 L 19.99679946899414 0.002560615539550781 C 19.99679946899414 0.002560615539550781 19.99679946899414 0.002560615539550781 19.99679946899414 0.002560615539550781 L 19.9940299987793 0.0047760009765625 C 19.9940299987793 0.0047760009765625 19.9940299987793 0.0047760009765625 19.9940299987793 0.0047760009765625 L 19.99286270141602 0.005709648132324219 C 19.99272537231445 0.005819320678710938 19.99259376525879 0.005925178527832031 19.99245262145996 0.006038665771484375 L 19.99197006225586 0.0064239501953125 C 19.99197006225586 0.0064239501953125 19.99197006225586 0.0064239501953125 19.99197006225586 0.0064239501953125 L 19.99092483520508 0.007259368896484375 C 19.99027442932129 0.007780075073242188 19.98958969116211 0.008328437805175781 19.98887062072754 0.008902549743652344 L 19.98854637145996 0.009163856506347656 C 19.98545837402344 0.01163291931152344 19.98175430297852 0.01459598541259766 19.97749328613281 0.01800632476806641 L 19.97671127319336 0.0186309814453125 C 19.97640419006348 0.01887702941894531 19.97609329223633 0.01912498474121094 19.97578048706055 0.01937484741210938 L 19.97354888916016 0.02116107940673828 C 19.97354888916016 0.02116107940673828 19.97354888916016 0.02116107940673828 19.97354888916016 0.02116107940673828 L 19.96880340576172 0.02495765686035156 C 19.96880340576172 0.02495765686035156 19.96880340576172 0.02495765686035156 19.96880340576172 0.02495765686035156 L 19.96519088745117 0.0278472900390625 C 19.96519088745117 0.0278472900390625 19.96519088745117 0.0278472900390625 19.96519088745117 0.0278472900390625 L 19.96152305603027 0.03078079223632812 C 19.96134567260742 0.03092288970947266 19.96118354797363 0.03105354309082031 19.96100425720215 0.03119659423828125 L 19.95838737487793 0.03328990936279297 C 19.95806884765625 0.03354454040527344 19.95773887634277 0.03380870819091797 19.95741653442383 0.03406620025634766 L 19.95536041259766 0.03571224212646484 C 19.95513534545898 0.03589248657226562 19.95489120483398 0.0360870361328125 19.95466423034668 0.03626823425292969 L 19.95002555847168 0.03997993469238281 C 19.93865966796875 0.049072265625 19.92554473876953 0.05956459045410156 19.91080284118652 0.07135772705078125 L 19.9092845916748 0.07257270812988281 C 19.57596969604492 0.3392238616943359 18.43825912475586 1.2493896484375 18.43825912475586 1.2493896484375 L 18 0.701563835144043 L 18 1.600000381469727 L 17.5 2 L 16.47749710083008 2 L 16.87652015686035 2.498780250549316 C 16.87652015686035 2.498780250549316 16.29566192626953 2.963469505310059 15.84243202209473 3.326054573059082 L 15.31478881835938 3.7481689453125 L 14.06540012359619 2.186429977416992 L 15.62713050842285 0.9370403289794922 L 16 1.403128623962402 L 16 0 Z M 12.50366020202637 3.435819625854492 L 13.75304985046387 4.997559547424316 C 13.75304985046387 4.997559547424316 13.75304985046387 4.997559547424316 13.75304985046387 4.997559547424316 L 13.75290203094482 4.997678756713867 C 13.75283813476562 4.997729301452637 13.75275325775146 4.997797012329102 13.75264739990234 4.997881889343262 L 13.75255966186523 4.997952461242676 C 13.75253868103027 4.997969627380371 13.75251579284668 4.997987747192383 13.75249290466309 4.998005867004395 L 13.75230121612549 4.998159408569336 C 13.75230121612549 4.998159408569336 13.75230121612549 4.998159408569336 13.75230121612549 4.998159408569336 L 13.75165748596191 4.998673439025879 C 13.75163459777832 4.998692512512207 13.75161552429199 4.99870777130127 13.7515926361084 4.998725891113281 L 13.75030326843262 4.999757766723633 C 13.75030326843262 4.999757766723633 13.75030326843262 4.999757766723633 13.75030326843262 4.999757766723633 L 13.74984931945801 5.000120162963867 C 13.74984931945801 5.000120162963867 13.74984931945801 5.000120162963867 13.74984931945801 5.000120162963867 L 13.74707984924316 5.002335548400879 C 13.74707984924316 5.002335548400879 13.74707984924316 5.002335548400879 13.74707984924316 5.002335548400879 L 13.74591255187988 5.003269195556641 C 13.74577522277832 5.003379821777344 13.74564361572266 5.003484725952148 13.74550247192383 5.003598213195801 L 13.74501991271973 5.003984451293945 C 13.74501991271973 5.003984451293945 13.74501991271973 5.003984451293945 13.74501991271973 5.003984451293945 L 13.74397563934326 5.004819869995117 C 13.74332427978516 5.005340576171875 13.74263954162598 5.005887985229492 13.74192142486572 5.006463050842285 L 13.74159622192383 5.006723403930664 C 13.7385082244873 5.009193420410156 13.73480415344238 5.01215648651123 13.73054313659668 5.015565872192383 L 13.72976112365723 5.016191482543945 C 13.72945404052734 5.016436576843262 13.7291431427002 5.016685485839844 13.72883129119873 5.016935348510742 L 13.72659873962402 5.018721580505371 C 13.72659873962402 5.018721580505371 13.72659873962402 5.018721580505371 13.72659873962402 5.018721580505371 L 13.72185325622559 5.022517204284668 C 13.72185325622559 5.022517204284668 13.72185325622559 5.022517204284668 13.72185325622559 5.022517204284668 L 13.71824073791504 5.025406837463379 C 13.71824073791504 5.025406837463379 13.71824073791504 5.025406837463379 13.71824073791504 5.025406837463379 L 13.71457386016846 5.028341293334961 C 13.71439552307129 5.028483390808105 13.7142333984375 5.028613090515137 13.71405410766602 5.028756141662598 L 13.7114372253418 5.030849456787109 C 13.71111869812012 5.031105041503906 13.71078872680664 5.031368255615234 13.71046733856201 5.03162670135498 L 13.70841026306152 5.033271789550781 C 13.70818519592285 5.033452033996582 13.70794105529785 5.033646583557129 13.70771503448486 5.033827781677246 L 13.70307540893555 5.037539482116699 C 13.69170951843262 5.046631813049316 13.6785945892334 5.057124137878418 13.66385269165039 5.068917274475098 L 13.66233444213867 5.070133209228516 C 13.32901954650879 5.336783409118652 12.19130992889404 6.246950149536133 12.19130992889404 6.246950149536133 L 10.94192028045654 4.685210227966309 L 12.50366020202637 3.435819625854492 Z M 9.380180358886719 5.934599876403809 L 10.62957000732422 7.496339797973633 C 10.62957000732422 7.496339797973633 10.03579711914062 7.971360206604004 9.580506324768066 8.335594177246094 L 9.067838668823242 8.745729446411133 L 7.818449974060059 7.183989524841309 L 9.380180358886719 5.934599876403809 Z M 6.256710052490234 8.433380126953125 L 7.506099700927734 9.995120048522949 C 7.506099700927734 9.995120048522949 7.506095886230469 9.995122909545898 7.506089210510254 9.995128631591797 L 7.50602912902832 9.995177268981934 C 7.50602912902832 9.995177268981934 7.50602912902832 9.995177268981934 7.50602912902832 9.995177268981934 L 7.505939483642578 9.995248794555664 C 7.505939483642578 9.995248794555664 7.505939483642578 9.995248794555664 7.505939483642578 9.995248794555664 L 7.505855560302734 9.995315551757812 C 7.505674362182617 9.995460510253906 7.505395889282227 9.995683670043945 7.505013465881348 9.995988845825195 L 7.504707336425781 9.996233940124512 C 7.504616737365723 9.996306419372559 7.504521369934082 9.996383666992188 7.504421234130859 9.996462821960449 L 7.503771781921387 9.996982574462891 C 7.436731338500977 10.05061435699463 5.94435977935791 11.24451065063477 5.94435977935791 11.24451065063477 L 4.69497013092041 9.682769775390625 L 6.256710052490234 8.433380126953125 Z M 3.133230209350586 10.93215942382812 L 4.382619857788086 12.49390029907227 C 4.382619857788086 12.49390029907227 3.788846969604492 12.96891975402832 3.33355712890625 13.33315467834473 L 2.820888519287109 13.74328899383545 L 2 12.71717643737793 L 2 13.61250019073486 L 0.1550083160400391 13.61250019073486 L 1.259149551391602 14.99267959594727 C 1.259149551391602 14.99267959594727 1.259149551391602 14.99267959594727 1.259149551391602 14.99267959594727 L 1.259092330932617 14.99272632598877 C 1.259073257446289 14.99274158477783 1.259050369262695 14.99276065826416 1.259021759033203 14.99278354644775 L 1.258920669555664 14.99286365509033 C 1.258813858032227 14.99294853210449 1.258670806884766 14.99306392669678 1.258491516113281 14.99320697784424 L 1.258346557617188 14.99332237243652 C 1.258346557617188 14.99332237243652 1.258346557617188 14.99332237243652 1.258346557617188 14.99332237243652 L 1.258119583129883 14.99350357055664 C 1.258020401000977 14.99358367919922 1.257911682128906 14.99367046356201 1.257797241210938 14.9937629699707 L 1.25750732421875 14.99399375915527 C 1.257280349731445 14.99417591094971 1.257030487060547 14.99437618255615 1.256755828857422 14.99459552764893 L 1.256505966186523 14.99479484558105 C 1.256429672241211 14.9948558807373 1.256357192993164 14.99491500854492 1.256277084350586 14.9949779510498 L 1.256074905395508 14.99514007568359 C 1.256017684936523 14.99518489837646 1.25596809387207 14.99522590637207 1.255910873413086 14.99527168273926 L 1.255311965942383 14.99575042724609 C 1.254875183105469 14.9960994720459 1.25440788269043 14.99647426605225 1.253898620605469 14.99688053131104 L 1.253442764282227 14.99724578857422 C 1.252517700195312 14.99798488616943 1.251491546630859 14.99880695343018 1.250350952148438 14.99971961975098 L 1.249013900756836 15.00078868865967 C 1.249013900756836 15.00078868865967 1.249013900756836 15.00078868865967 1.249013900756836 15.00078868865967 L 1.248264312744141 15.00138854980469 C 1.247842788696289 15.00172519683838 1.247402191162109 15.00207901000977 1.246957778930664 15.00243473052979 L 1.246551513671875 15.00275897979736 C 1.246379852294922 15.00289535522461 1.246213912963867 15.00302886962891 1.246040344238281 15.0031681060791 L 1.24500846862793 15.00399303436279 C 1.24500846862793 15.00399303436279 1.24500846862793 15.00399303436279 1.24500846862793 15.00399303436279 L 1.241252899169922 15.00699710845947 C 1.240266799926758 15.00778675079346 1.239234924316406 15.00861167907715 1.23817253112793 15.00946235656738 L 1.237470626831055 15.01002311706543 C 1.234592437744141 15.01232624053955 1.231433868408203 15.01485347747803 1.228025436401367 15.01758003234863 L 1.226118087768555 15.01910591125488 C 1.226118087768555 15.01910591125488 1.226118087768555 15.01910591125488 1.226118087768555 15.01910591125488 L 1.221603393554688 15.02271747589111 C 1.220191955566406 15.02384567260742 1.218738555908203 15.02500915527344 1.217256546020508 15.02619552612305 L 1.21461296081543 15.02830982208252 C 1.212627410888672 15.02989864349365 1.210559844970703 15.0315523147583 1.208454132080078 15.03323650360107 L 1.207836151123047 15.03373050689697 C 1.206653594970703 15.03467655181885 1.205455780029297 15.03563594818115 1.20423698425293 15.03661060333252 L 1.200386047363281 15.03969097137451 C 1.195186614990234 15.04384994506836 1.189643859863281 15.04828548431396 1.183843612670898 15.05292510986328 L 1.182279586791992 15.05417633056641 C 1.182279586791992 15.05417633056641 1.182279586791992 15.05417633056641 1.182279586791992 15.05417633056641 L 1.180702209472656 15.05543899536133 C 1.180503845214844 15.05559730529785 1.180265426635742 15.05578804016113 1.18006706237793 15.05594730377197 L 1.178789138793945 15.05696868896484 C 1.178129196166992 15.05749702453613 1.177444458007812 15.05804443359375 1.176776885986328 15.05857849121094 L 1.176254272460938 15.05899620056152 C 1.175849914550781 15.0593204498291 1.175422668457031 15.05966186523438 1.175014495849609 15.0599889755249 L 1.168594360351562 15.06512355804443 C 1.168594360351562 15.06512355804443 1.168594360351562 15.06512355804443 1.168594360351562 15.06512355804443 L 1.165878295898438 15.06729698181152 C 1.165708541870117 15.06743335723877 1.165502548217773 15.06759738922119 1.165332794189453 15.06773376464844 L 1.161785125732422 15.07057189941406 C 1.160720825195312 15.07142353057861 1.159669876098633 15.07226467132568 1.158590316772461 15.07312870025635 L 1.156108856201172 15.07511329650879 C 1.156108856201172 15.07511329650879 1.156108856201172 15.07511329650879 1.156108856201172 15.07511329650879 L 1.153240203857422 15.07740688323975 C 1.152948379516602 15.07764148712158 1.152631759643555 15.07789421081543 1.152338027954102 15.07812976837158 L 1.151250839233398 15.07899951934814 C 1.150888442993164 15.07929039001465 1.150524139404297 15.07958126068115 1.150157928466797 15.07987308502197 L 1.14851188659668 15.08119010925293 C 1.14851188659668 15.08119010925293 1.14851188659668 15.08119010925293 1.14851188659668 15.08119010925293 L 1.146669387817383 15.08266353607178 C 1.1456298828125 15.08349514007568 1.144561767578125 15.0843505859375 1.143510818481445 15.08519172668457 L 1.142723083496094 15.0858211517334 C 1.140262603759766 15.08778953552246 1.137752532958984 15.08979797363281 1.135229110717773 15.09181785583496 L 1.13450813293457 15.09239292144775 C 1.132919311523438 15.09366512298584 1.131343841552734 15.09492492675781 1.129728317260742 15.09621715545654 L 1.123800277709961 15.10095977783203 C 1.123451232910156 15.10123825073242 1.123071670532227 15.10154247283936 1.122722625732422 15.10182189941406 L 1.117156982421875 15.10627460479736 C 1.117156982421875 15.10627460479736 1.117156982421875 15.10627460479736 1.117156982421875 15.10627460479736 L 1.114709854125977 15.10823249816895 C 1.114709854125977 15.10823249816895 1.114709854125977 15.10823249816895 1.114709854125977 15.10823249816895 L 1.112245559692383 15.11020374298096 C 1.112245559692383 15.11020374298096 1.112245559692383 15.11020374298096 1.112245559692383 15.11020374298096 L 1.109764099121094 15.1121883392334 C 1.109764099121094 15.1121883392334 1.109764099121094 15.1121883392334 1.109764099121094 15.1121883392334 L 1.107267379760742 15.11418628692627 C 1.105728149414062 15.11541843414307 1.104204177856445 15.11663627624512 1.102645874023438 15.11788272857666 L 1.099422454833984 15.12046241760254 C 1.096946716308594 15.12244319915771 1.094465255737305 15.12442779541016 1.091945648193359 15.12644386291504 L 1.090206146240234 15.12783432006836 C 1.082208633422852 15.13423347473145 1.074047088623047 15.14076232910156 1.06562614440918 15.14750003814697 L 1.062408447265625 15.15007400512695 C 1.061485290527344 15.15081119537354 1.06056022644043 15.15155124664307 1.059633255004883 15.15229320526123 L 1.057683944702148 15.15385341644287 C 1.056926727294922 15.15445804595947 1.056205749511719 15.15503597259521 1.055446624755859 15.15564250946045 L 1.053886413574219 15.15688991546631 C 1.047153472900391 15.16227626800537 1.040281295776367 15.16777610778809 1.03331184387207 15.17335033416748 L 1.032342910766602 15.17412662506104 C 1.023937225341797 15.18085098266602 1.015335083007812 15.18773078918457 1.006612777709961 15.19470977783203 L 1.005352020263672 15.19571876525879 C 1.00364875793457 15.19708061218262 1.002002716064453 15.19839763641357 1.000288009643555 15.19976997375488 L 0.9990177154541016 15.20078659057617 C 0.9926548004150391 15.20587539672852 0.9862155914306641 15.21102714538574 0.9797039031982422 15.21623706817627 L 0.9770946502685547 15.21832466125488 C 0.9758853912353516 15.2192907333374 0.9746437072753906 15.22028541564941 0.9734287261962891 15.22125625610352 L 0.9660530090332031 15.22715759277344 C 0.9646644592285156 15.22826862335205 0.9632072448730469 15.22943496704102 0.9618129730224609 15.23055076599121 L 0.9559497833251953 15.23523998260498 C 0.9559497833251953 15.23523998260498 0.9559497833251953 15.23523998260498 0.9559497833251953 15.23523998260498 L 0.9299678802490234 15.25602531433105 C 0.9262008666992188 15.2590389251709 0.9224452972412109 15.26204299926758 0.9186420440673828 15.26508522033691 L 0.9134159088134766 15.26926708221436 C 0.9134159088134766 15.26926708221436 0.9134159088134766 15.26926708221436 0.9134159088134766 15.26926708221436 L 0.9084072113037109 15.27327442169189 C 0.9074306488037109 15.27405548095703 0.9064540863037109 15.27483749389648 0.9054756164550781 15.27562046051025 L 0.9033775329589844 15.27729797363281 C 0.9014167785644531 15.27886581420898 0.8994522094726562 15.28043746948242 0.8974838256835938 15.28201198577881 L 0.8959178924560547 15.28326606750488 C 0.8940525054931641 15.28475856781006 0.8921680450439453 15.28626537322998 0.8902950286865234 15.28776359558105 L 0.8881740570068359 15.28946113586426 C 0.8881740570068359 15.28946113586426 0.8881740570068359 15.28946113586426 0.8881740570068359 15.28946113586426 L 0.8841342926025391 15.29269313812256 C 0.8802299499511719 15.29581546783447 0.876312255859375 15.29895114898682 0.8723773956298828 15.30209827423096 L 0.8681411743164062 15.30548763275146 C 0.8644123077392578 15.30847072601318 0.8606929779052734 15.31144523620605 0.8569393157958984 15.31444931030273 L 0.8545608520507812 15.31635189056396 C 0.8458099365234375 15.32335186004639 0.8370456695556641 15.33036327362061 0.8281707763671875 15.33746337890625 L 0.8267021179199219 15.33863735198975 C 0.8252353668212891 15.33981227874756 0.8237648010253906 15.34098720550537 0.8222942352294922 15.34216499328613 L 0.8187599182128906 15.34499168395996 C 0.8147449493408203 15.34820365905762 0.8107395172119141 15.35140800476074 0.80670166015625 15.35463809967041 L 0.8054580688476562 15.35563373565674 C 0.79400634765625 15.36479568481445 0.7824916839599609 15.3740062713623 0.7708873748779297 15.3832893371582 L 0.7596912384033203 15.39224624633789 C 0.7586746215820312 15.3930606842041 0.7576942443847656 15.39384460449219 0.7566757202148438 15.3946590423584 L 0.7542610168457031 15.39659118652344 C 0.7542610168457031 15.39659118652344 0.7542610168457031 15.39659118652344 0.7542610168457031 15.39659118652344 L 0.7512397766113281 15.39900875091553 C 0.7480278015136719 15.40157794952393 0.7447738647460938 15.4041805267334 0.7415542602539062 15.40675640106201 L 0.7354888916015625 15.41160869598389 C 0.7347679138183594 15.41218566894531 0.7340850830078125 15.41273212432861 0.7333641052246094 15.41330909729004 L 0.7312374114990234 15.41500949859619 C 0.7308578491210938 15.41531372070312 0.7304019927978516 15.41567802429199 0.7300224304199219 15.41598224639893 L 0.7282848358154297 15.41737174987793 C 0.7256259918212891 15.41950035095215 0.7229518890380859 15.42163848876953 0.7202873229980469 15.42377090454102 L 0.7111415863037109 15.43108654022217 C 0.7091960906982422 15.43264293670654 0.707244873046875 15.4342041015625 0.7052974700927734 15.43576145172119 L 0.7032032012939453 15.43743705749512 C 0.7021713256835938 15.43826198577881 0.7011795043945312 15.43905639648438 0.7001476287841797 15.43988227844238 L 0.6988029479980469 15.44095802307129 C 0.6979618072509766 15.44163131713867 0.6971664428710938 15.44226741790771 0.6963253021240234 15.44293975830078 L 0.6956615447998047 15.4434700012207 C 0.6821269989013672 15.4542989730835 0.6685237884521484 15.46518135070801 0.6549301147460938 15.47605609893799 L 0.6517047882080078 15.47863674163818 C 0.6492462158203125 15.4806022644043 0.6467876434326172 15.48256969451904 0.6443290710449219 15.48453617095947 L 0.6415634155273438 15.48674964904785 C 0.6406421661376953 15.48748683929443 0.6397190093994141 15.48822498321533 0.6387977600097656 15.48896217346191 L 0.6314201354980469 15.49486446380615 C 0.6299209594726562 15.49606323242188 0.6284389495849609 15.49724864959717 0.6269397735595703 15.49844741821289 L 0.6234264373779297 15.50125885009766 C 0.6071357727050781 15.51429176330566 0.5908489227294922 15.52732086181641 0.5746116638183594 15.54031085968018 L 0.5738449096679688 15.54092407226562 C 0.5730018615722656 15.54159736633301 0.5722064971923828 15.54223442077637 0.5713634490966797 15.54290866851807 L 0.5694046020507812 15.54447650909424 C 0.5651187896728516 15.54790496826172 0.5608367919921875 15.55133152008057 0.5565586090087891 15.55475330352783 L 0.5554885864257812 15.55560874938965 C 0.5544185638427734 15.55646419525146 0.5533504486083984 15.55731964111328 0.5522823333740234 15.5581750869751 L 0.5443477630615234 15.56452083587646 C 0.5390510559082031 15.56875896453857 0.5338001251220703 15.57295989990234 0.5285205841064453 15.57718372344971 L 0.5239639282226562 15.5808277130127 C 0.5218391418457031 15.58252811431885 0.5197162628173828 15.58422660827637 0.5175952911376953 15.58592319488525 L 0.5121440887451172 15.59028434753418 C 0.5111618041992188 15.59107112884521 0.510223388671875 15.59182071685791 0.5092411041259766 15.59260749816895 L 0.5076084136962891 15.59391307830811 C 0.5068912506103516 15.59448719024658 0.5062103271484375 15.59503173828125 0.5054931640625 15.59560489654541 L 0.5003623962402344 15.59970951080322 C 0.4966316223144531 15.60269546508789 0.4929428100585938 15.60564613342285 0.4892234802246094 15.60862064361572 L 0.4880218505859375 15.60958290100098 C 0.4871959686279297 15.61024379730225 0.4864444732666016 15.61084365844727 0.4856204986572266 15.61150455474854 L 0 16 L 0 16 C 0 16 0 16 0 16 L 0 16 L 0 16 L 0 16 C 0 16 0 16 0 16 L 0 11.61250019073486 L 2 11.61250019073486 L 2 11.83874893188477 L 3.133230209350586 10.93215942382812 Z M 0 7.612500190734863 L 2 7.612500190734863 L 2 9.612500190734863 L 0 9.612500190734863 L 0 7.612500190734863 Z M 0 3.612500190734863 L 2 3.612500190734863 L 2 5.612500190734863 L 0 5.612500190734863 L 0 3.612500190734863 Z M 0 0 L 2 0 L 2 2 L 0 2 L 0 0 Z" stroke="none" fill="#ffd86f"/>
  </g>
  <rect id="background_color_fill_" data-name="background [color_fill]" width="160" height="120" fill="#ffd86f" opacity="0.25"/>
  <g id="background_color_border_" data-name="background [color_border]" fill="none" stroke="#ffd86f" stroke-width="2" stroke-dasharray="2 2">
    <rect width="160" height="120" stroke="none"/>
    <rect x="1" y="1" width="158" height="118" fill="none"/>
  </g>
  <text id="label" data-area="132 92" transform="translate(14 14)" fill="#101010" font-size="14" font-family="AcuminPro-Bold, Acumin Pro" font-weight="700"><tspan x="0" y="10">Write a note here..</tspan></text>
</svg>
