<svg xmlns="http://www.w3.org/2000/svg" width="30" height="30" viewBox="0 0 30 30">
  <g id="__Panel_UI_-_Icon_Feedback_" data-name="__Panel UI - Icon [Feedback]" transform="translate(-153 -925)">
    <rect id="area" width="30" height="30" transform="translate(153 925)" fill="#fff" opacity="0"/>
    <g id="Union_2" data-name="Union 2" transform="translate(159 472)" fill="none">
      <path d="M11,475H1a2,2,0,0,1-2-2V461a2,2,0,0,1,2-2H17a2,2,0,0,1,2,2v18Z" stroke="none"/>
      <path d="M 16.99990081787109 475.7638549804688 L 16.99990081787109 473.0003967285156 L 17.00009918212891 461 L 1.000100016593933 460.9998168945312 L 0.9998999834060669 473.0002136230469 L 11.00010013580322 473.0002136230469 L 11.47220039367676 473.0002136230469 L 11.89447021484375 473.2113342285156 L 16.99990081787109 475.7638549804688 M 18.99990081787109 478.9998168945312 L 11.00010013580322 475.0002136230469 L 0.9998999834060669 475.0002136230469 C -0.1044000014662743 475.0002136230469 -0.9998999834060669 474.1047058105469 -0.9998999834060669 473.0003967285156 L -0.9998999834060669 460.9998168945312 C -0.9998999834060669 459.8955078125 -0.1044000014662743 459 0.9998999834060669 459 L 17.00009918212891 459 C 18.10440063476562 459 18.99990081787109 459.8955078125 18.99990081787109 460.9998168945312 L 18.99990081787109 473.0003967285156 L 18.99990081787109 478.9998168945312 Z" stroke="none" fill="#909090"/>
    </g>
    <circle id="Ellipse_20198" data-name="Ellipse 20198" cx="1" cy="1" r="1" transform="translate(163 938)" fill="#909090" stroke="#909090" stroke-linecap="round" stroke-width="0.25"/>
    <circle id="Ellipse_20199" data-name="Ellipse 20199" cx="1" cy="1" r="1" transform="translate(167 938)" fill="#909090" stroke="#909090" stroke-linecap="round" stroke-width="0.25"/>
    <circle id="Ellipse_20200" data-name="Ellipse 20200" cx="1" cy="1" r="1" transform="translate(171 938)" fill="#909090" stroke="#909090" stroke-linecap="round" stroke-width="0.25"/>
  </g>
</svg>
