<svg
  width="31"
  height="12"
  viewBox="0 0 31 12"
  fill="none"
  xmlns="http://www.w3.org/2000/svg"
>
  <rect width="30.4" height="12" rx="6" fill="#0F8931" />
  <path
    d="M5.85427 6.80005V9.11449H4.80005V2.88561H7.12099C7.7988 2.88561 8.33633 3.06672 8.73357 3.42893C9.13359 3.79114 9.3336 4.27028 9.3336 4.86636C9.3336 5.4767 9.13776 5.95156 8.74607 6.29096C8.35716 6.63035 7.8113 6.80005 7.10849 6.80005H5.85427ZM5.85427 5.9316H7.12099C7.49601 5.9316 7.78214 5.84176 7.97937 5.66208C8.1766 5.47955 8.27522 5.21716 8.27522 4.87492C8.27522 4.53837 8.17521 4.27028 7.9752 4.07064C7.77519 3.86814 7.50018 3.76404 7.15016 3.75834H5.85427V5.9316Z"
    fill="white"
  />
  <path
    d="M13.2543 7.66422H10.9042L10.4125 9.11449H9.3166L11.6084 2.88561H12.5543L14.8502 9.11449H13.7501L13.2543 7.66422ZM11.2 6.79149H12.9584L12.0792 4.20754L11.2 6.79149Z"
    fill="white"
  />
  <path
    d="M19.0542 7.51021C19.0542 7.23641 18.9598 7.02536 18.7709 6.87705C18.5848 6.72875 18.2473 6.57902 17.7583 6.42786C17.2694 6.2767 16.8805 6.10843 16.5916 5.92304C16.0388 5.56654 15.7624 5.10165 15.7624 4.52839C15.7624 4.02643 15.961 3.61288 16.3583 3.28775C16.7583 2.96262 17.2764 2.80005 17.9125 2.80005C18.3348 2.80005 18.7112 2.87991 19.0417 3.03962C19.3723 3.19934 19.632 3.4275 19.8209 3.72411C20.0098 4.01787 20.1043 4.34443 20.1043 4.70379H19.0542C19.0542 4.37866 18.9542 4.12483 18.7542 3.94229C18.557 3.75691 18.2736 3.66422 17.9042 3.66422C17.5597 3.66422 17.2917 3.7398 17.1 3.89096C16.9111 4.04212 16.8166 4.25317 16.8166 4.52411C16.8166 4.75228 16.9194 4.94336 17.125 5.09738C17.3305 5.24853 17.6694 5.39684 18.1417 5.54229C18.6139 5.6849 18.9931 5.84889 19.2792 6.03427C19.5654 6.2168 19.7751 6.42786 19.9084 6.66743C20.0418 6.90415 20.1085 7.18222 20.1085 7.50165C20.1085 8.02073 19.914 8.43427 19.5251 8.74229C19.139 9.04746 18.6139 9.20005 17.95 9.20005C17.5111 9.20005 17.1069 9.11734 16.7375 8.95192C16.3708 8.78365 16.0846 8.55263 15.8791 8.25887C15.6763 7.96511 15.5749 7.62287 15.5749 7.23213H16.6291C16.6291 7.58579 16.743 7.85959 16.9708 8.05352C17.1986 8.24746 17.525 8.34443 17.95 8.34443C18.3167 8.34443 18.5917 8.26885 18.7751 8.1177C18.9612 7.96369 19.0542 7.76119 19.0542 7.51021Z"
    fill="white"
  />
  <path
    d="M24.5458 7.51021C24.5458 7.23641 24.4514 7.02536 24.2625 6.87705C24.0764 6.72875 23.7388 6.57902 23.2499 6.42786C22.761 6.2767 22.3721 6.10843 22.0832 5.92304C21.5304 5.56654 21.254 5.10165 21.254 4.52839C21.254 4.02643 21.4526 3.61288 21.8499 3.28775C22.2499 2.96262 22.768 2.80005 23.4041 2.80005C23.8264 2.80005 24.2028 2.87991 24.5333 3.03962C24.8639 3.19934 25.1236 3.4275 25.3125 3.72411C25.5014 4.01787 25.5959 4.34443 25.5959 4.70379H24.5458C24.5458 4.37866 24.4458 4.12483 24.2458 3.94229C24.0486 3.75691 23.7652 3.66422 23.3958 3.66422C23.0513 3.66422 22.7832 3.7398 22.5916 3.89096C22.4027 4.04212 22.3082 4.25317 22.3082 4.52411C22.3082 4.75228 22.411 4.94336 22.6166 5.09738C22.8221 5.24853 23.161 5.39684 23.6333 5.54229C24.1055 5.6849 24.4847 5.84889 24.7708 6.03427C25.057 6.2168 25.2667 6.42786 25.4 6.66743C25.5334 6.90415 25.6 7.18222 25.6 7.50165C25.6 8.02073 25.4056 8.43427 25.0167 8.74229C24.6306 9.04746 24.1055 9.20005 23.4416 9.20005C23.0027 9.20005 22.5985 9.11734 22.2291 8.95192C21.8624 8.78365 21.5762 8.55263 21.3707 8.25887C21.1679 7.96511 21.0665 7.62287 21.0665 7.23213H22.1207C22.1207 7.58579 22.2346 7.85959 22.4624 8.05352C22.6902 8.24746 23.0166 8.34443 23.4416 8.34443C23.8083 8.34443 24.0833 8.26885 24.2667 8.1177C24.4528 7.96369 24.5458 7.76119 24.5458 7.51021Z"
    fill="white"
  />
</svg>
