<?xml version="1.0" encoding="UTF-8"?>
<svg width="90px" height="90px" viewBox="0 0 90 90" version="1.1" xmlns="http://www.w3.org/2000/svg">
    <!-- Generator: Sketch 47.1 (45422) - http://www.bohemiancoding.com/sketch -->
    <title>Info</title>
    <desc>Created with Sketch.</desc>
    <defs></defs>
    <g id="Page-1" stroke="none" stroke-width="1" fill="none" fill-rule="evenodd">
        <g id="noun_about_2940515" fill-rule="nonzero" fill="#556573">
            <path d="M7.31389,90 L82.68611,90 C86.7254576,89.9999945 89.9999945,86.7254576 90,82.68611 L90,7.31389 C89.9999945,3.27454238 86.7254576,5.52283304e-06 82.68611,0 L7.31389,0 C3.27454238,5.52283304e-06 5.52283304e-06,3.27454238 0,7.31389 L0,82.68611 C5.52283305e-06,86.7254576 3.27454238,89.9999945 7.31389,90 Z M51.71853,13.99645 C54.6960517,13.99645 57.10981,16.4102083 57.10981,19.38773 C57.10981,22.3652517 54.6960517,24.77901 51.71853,24.77901 C48.7410083,24.77901 46.32725,22.3652517 46.32725,19.38773 C46.32725,16.4102083 48.7410083,13.99645 51.71853,13.99645 L51.71853,13.99645 Z M40.75235,30.431 C45.85406,27.965 53.74355,30.08611 52.36673,35.22392 L44.92584,62.99469 C42.32274,72.70876 49.48084,69.52369 52.68703,68.11622 C50.7260792,71.0641216 48.0112786,73.4329355 44.82487,74.97639 C39.72316,77.44239 31.8338,75.32128 33.21049,70.18348 L40.65149,42.41331 C43.25449,32.69924 36.09649,35.88431 32.89017,37.29185 C34.8509757,34.3436443 37.5658074,31.9745745 40.75235,30.431 Z" id="Info"></path>
        </g>
    </g>
</svg>
