<svg xmlns="http://www.w3.org/2000/svg" width="25" height="25" viewBox="0 0 25 25">
  <g id="Smock_Multiple_18_N" transform="translate(0 0.119)">
    <rect id="Canvas" width="25" height="25" transform="translate(0 -0.119)" fill="#ff13dc" opacity="0"/>
    <path id="Path_60914" data-name="Path 60914" d="M17.6,2H10.691A.691.691,0,0,0,10,2.691V6.147h2.765a1.382,1.382,0,0,1,1.382,1.382v2.765H17.6a.691.691,0,0,0,.691-.691V2.691A.691.691,0,0,0,17.6,2Z" transform="translate(3.823 0.765)" fill="#909090"/>
    <rect id="Rectangle_147682" data-name="Rectangle 147682" width="8" height="8" rx="0.5" transform="translate(3 13.881)" fill="#909090"/>
    <path id="Path_60915" data-name="Path 60915" d="M13.6,6H6.691A.691.691,0,0,0,6,6.691v3.456H8.765a1.382,1.382,0,0,1,1.382,1.382v2.765H13.6a.691.691,0,0,0,.691-.691V6.691A.691.691,0,0,0,13.6,6Z" transform="translate(2.294 2.294)" fill="#909090"/>
  </g>
</svg>
