<svg id="Group_66715" data-name="Group 66715" xmlns="http://www.w3.org/2000/svg" width="24" height="24" viewBox="0 0 24 24">
  <rect id="Canvas" width="24" height="24" fill="#6e6e6e" opacity="0"/>
  <path id="Path_60337" data-name="Path 60337" d="M15.795,2.457a.645.645,0,0,0-.029-.907.642.642,0,0,0-.907-.03h0a1.042,1.042,0,0,0-.079.1l-.007-.009L8.946,7.432l.008.011a.48.48,0,0,0-.1.079.662.662,0,1,0,1.016.839l.009.009,5.826-5.825-.01-.009a.543.543,0,0,0,.1-.078Z" transform="translate(2.887 0.449)" fill="#6e6e6e"/>
  <path id="Path_60338" data-name="Path 60338" d="M19.191,2.941c-.48.481-6.358,6.43-6.392,6.467a1.476,1.476,0,0,1-1.575.019l-.511-.483L3.515,16a1,1,0,0,0-.218.32L2.049,20.593a.25.25,0,0,0,.333.327l4.285-1.3a1,1,0,0,0,.307-.209L21.364,5.072Z" transform="translate(0.676 0.98)" fill="#6e6e6e"/>
  <path id="Path_60339" data-name="Path 60339" d="M15.571,2.321l2.071,1.971A1.853,1.853,0,0,0,17.1,2.14a2.2,2.2,0,0,0-2.147-.707c-.119.043.043.2.092.25S15.539,2.257,15.571,2.321Z" transform="translate(4.971 0.46)" fill="#6e6e6e"/>
  <path id="Path_60340" data-name="Path 60340" d="M2.316,17.687C.281,11.648,2.516,6.4,8.133,3.348c.846-.46.179-1.8-.673-1.341-6.166,3.351-8.344,8.96-6.1,15.69C2.316,20.572,2.316,17.687,2.316,17.687Z" transform="translate(0.166 0.637)" fill="#6e6e6e"/>
</svg>
