<svg id="Group_66725" data-name="Group 66725" xmlns="http://www.w3.org/2000/svg" width="18" height="18" viewBox="0 0 18 18">
  <rect id="Canvas" width="18" height="18" fill="#ff13dc" opacity="0"/>
  <path id="Path_60903" data-name="Path 60903" d="M15.823,4.9c-.469-.167-.985.25-1.2.762L13.27,8.088c-.1.231-.35.444-.531.354s-.23-.334-.139-.725l.65-4.429a1.139,1.139,0,0,0-.772-1.414q-.042-.012-.085-.022a1.05,1.05,0,0,0-1.058.9l-.618,4.129s-.045.537-.413.518-.328-.567-.328-.567V2A1.073,1.073,0,0,0,8.992.859,1.072,1.072,0,0,0,8.007,2v4.81c0,.3-.4.295-.469.047C7.2,5.712,6.455,3.118,6.455,3.118A1.026,1.026,0,0,0,5.35,2.3a1.162,1.162,0,0,0-.8,1.438q.008.029.018.057L5.914,8.324a4.329,4.329,0,0,1,.123.614,1.04,1.04,0,0,1-.37,1.05A15.039,15.039,0,0,1,3.011,8.548c-.984-.778-1.591-.509-1.846-.159-.271.372-.082.984.308,1.455l3.484,3.5a2.078,2.078,0,0,1,.215.35A13.315,13.315,0,0,0,6.2,15.527,3.654,3.654,0,0,0,9.317,16.86a3.63,3.63,0,0,0,3.675-2.133c.328-1.1.639-2.6.788-3.115.1-.339,2.483-5.2,2.483-5.2C16.528,5.794,16.42,5.116,15.823,4.9Z" fill="#6e6e6e"/>
</svg>
