<svg id="Group_66262" data-name="Group 66262" xmlns="http://www.w3.org/2000/svg" width="18" height="18" viewBox="0 0 18 18">
  <rect id="Canvas" width="18" height="18" fill="#ff13dc" opacity="0"/>
  <path id="Path_60342" data-name="Path 60342" d="M15.332,6.271A5.2,5.2,0,0,0,11.835,5H5.5V2.4A.4.4,0,0,0,5.1,2a.394.394,0,0,0-.263.1L1.072,5.825a.25.25,0,0,0,0,.35L4.834,9.9A.394.394,0,0,0,5.1,10a.4.4,0,0,0,.4-.4V7h6.441A3.069,3.069,0,0,1,15.05,9.9,2.945,2.945,0,0,1,12.267,13q-.134.007-.267,0H8.5a.5.5,0,0,0-.5.5v1a.5.5,0,0,0,.5.5h3.263a5.168,5.168,0,0,0,5.213-4.507,4.974,4.974,0,0,0-1.644-4.222Z" fill="#6e6e6e"/>
</svg>
