<svg id="Group_66265" data-name="Group 66265" xmlns="http://www.w3.org/2000/svg" width="18" height="18" viewBox="0 0 18 18">
  <rect id="Canvas" width="18" height="18" fill="#ff13dc" opacity="0"/>
  <path id="Path_60343" data-name="Path 60343" d="M2.668,6.271A5.2,5.2,0,0,1,6.165,5H12.5V2.4a.4.4,0,0,1,.4-.4.394.394,0,0,1,.264.1l3.762,3.723a.25.25,0,0,1,0,.35L13.166,9.9a.394.394,0,0,1-.264.1.4.4,0,0,1-.4-.4V7H6.062A3.069,3.069,0,0,0,2.95,9.9,2.944,2.944,0,0,0,5.733,13q.134.007.267,0H9.5a.5.5,0,0,1,.5.5v1a.5.5,0,0,1-.5.5H6.237a5.168,5.168,0,0,1-5.213-4.507A4.973,4.973,0,0,1,2.669,6.271Z" fill="#6e6e6e"/>
</svg>
