<svg id="Group_66716" data-name="Group 66716" xmlns="http://www.w3.org/2000/svg" width="24" height="24" viewBox="0 0 24 24">
  <rect id="Canvas" width="24" height="24" fill="#ff13dc" opacity="0"/>
  <path id="Path_60341" data-name="Path 60341" d="M12.222,18.5a.667.667,0,0,0,.943,0l9.041-9.041a.667.667,0,0,0,0-.943L14.663.97a.667.667,0,0,0-.943,0L4.68,10.008a.667.667,0,0,0,0,.943l.471.471-4.2,4.2a1.333,1.333,0,0,0,0,1.886h0l4.337,4.333a1.867,1.867,0,0,0,1.281.567H22.147a.333.333,0,0,0,.333-.333v-.667a.333.333,0,0,0-.333-.333H8.7l3.05-3.05ZM7.08,20.813a.667.667,0,0,1-.943,0L1.892,16.57l4.2-4.2,4.714,4.714Z" transform="translate(0.187 0.258)" fill="#6e6e6e"/>
</svg>
