<svg xmlns="http://www.w3.org/2000/svg" width="48" height="48" viewBox="0 0 48 48">
  <title>5g</title>
  <g id="Layer_2" data-name="Layer 2">
    <g id="invisible_box" data-name="invisible box">
      <rect width="48" height="48" fill="none"/>
    </g>
    <g id="Q3_icons" data-name="Q3 icons">
      <path d="M14,42C9.2,42,4,38.7,4,33.3v-3H8v3c0,2.8,3.1,4.7,6,4.7s6-1.9,6-4.7V26.7c0-3.1-2-4.7-6-4.7s-5,1.7-5,1.8l-.6.7H4V6H22.4v4H8v9.5A12.5,12.5,0,0,1,14,18c6.2,0,10,3.3,10,8.7v6.6C24,38.7,18.8,42,14,42Z"/>
      <path d="M35,42c-5.6,0-9-3.8-9-10V24c0-6.2,4.7-10,9-10s9,3.8,9,10H40c0-3.7-2.6-6-5-6s-5,2.3-5,6v8c0,4,1.7,6,5,6s5-3.5,5-4.6V32.3H35.4v-4H44v5.1C44,36.5,41,42,35,42Z"/>
    </g>
  </g>
</svg>
