<svg xmlns="http://www.w3.org/2000/svg" width="48" height="48" viewBox="0 0 48 48">
  <title>accessibility-cognitive-disability</title>
  <g id="Layer_2" data-name="Layer 2">
    <g id="invisible_box" data-name="invisible box">
      <rect width="48" height="48" fill="none"/>
    </g>
    <g id="Q3_icons" data-name="Q3 icons">
      <g>
        <path d="M44.6,25.1A64.9,64.9,0,0,1,40,17.9C38.5,7.2,32.4,1.8,21.8,2c-6,.1-11,2.1-14.3,5.8s-4.8,8.5-4.4,14,1.6,7.5,4.2,10.8,2.9,3.9,1.8,8A1.9,1.9,0,0,0,10.5,43,2,2,0,0,0,13,41.6c1.4-5.6.6-7.3-2.6-11.4a13.8,13.8,0,0,1-3.3-8.7,14,14,0,0,1,3.3-11C13,7.7,17,6.1,21.9,6S34.5,7.2,36.1,18.5c.1,1.2,1.9,4,3.7,6.8l-2.2.7a2,2,0,0,0-1.3,1.9v2.9c0,2.8.1,5-.6,5.7s-1.8.8-4,.8a3.8,3.8,0,0,0-3.9,3.9V44a2,2,0,0,0,4,0V41.3c2.4,0,5.1-.3,6.8-2s1.8-4.5,1.7-8.6V29.3l3.3-1.1a2.1,2.1,0,0,0,1.3-1.3A2,2,0,0,0,44.6,25.1Z"/>
        <path d="M24.7,15.2l-.4-1,1.2-1.9a7.7,7.7,0,0,0-1.8-1.8l-1.9,1.2-1-.4-.5-2.2H17.7l-.5,2.2-1,.4-1.9-1.2a7.7,7.7,0,0,0-1.8,1.8l1.2,1.9-.4,1-2.2.5A5.7,5.7,0,0,0,11,17a5.7,5.7,0,0,0,.1,1.3l2.2.5.4,1-1.2,1.9a7.7,7.7,0,0,0,1.8,1.8l1.9-1.2,1,.4.5,2.2h2.6l.5-2.2,1-.4,1.9,1.2a7.7,7.7,0,0,0,1.8-1.8l-1.2-1.9.4-1,2.2-.5A5.7,5.7,0,0,0,27,17a5.7,5.7,0,0,0-.1-1.3ZM19,19a2,2,0,1,1,2-2A2,2,0,0,1,19,19Z"/>
      </g>
    </g>
  </g>
</svg>
