<svg xmlns="http://www.w3.org/2000/svg" width="48" height="48" viewBox="0 0 48 48">
  <title>accessibility-assisted-listening-solid</title>
  <g id="Layer_2" data-name="Layer 2">
    <g id="invisible_box" data-name="invisible box">
      <rect width="48" height="48" fill="none"/>
    </g>
    <g id="Q3_icons" data-name="Q3 icons">
      <g>
        <path d="M20.5,6A13.9,13.9,0,0,0,10.3,9.9a14.3,14.3,0,0,0-3.9,6.7A2,2,0,0,0,8.3,19h.1a2,2,0,0,0,1.9-1.5,9.9,9.9,0,0,1,2.8-4.7A9.7,9.7,0,0,1,20.4,10c6.8.3,12.2,7.9,8.2,14.9a10.2,10.2,0,0,1-5.3,4.5A9.1,9.1,0,0,0,18,37.8,4.2,4.2,0,0,1,14.1,42a4.4,4.4,0,0,1-2.9-1.1c-.4-.4-1.2-.9-2.4.3l-.3.3a1.7,1.7,0,0,0,0,2.3h0A8.2,8.2,0,0,0,14.1,46h.1A8.2,8.2,0,0,0,22,37.7a4.8,4.8,0,0,1,3-4.6,14.2,14.2,0,0,0,9-13.6A14.1,14.1,0,0,0,20.5,6Z"/>
        <path d="M35.6,7.2a2.1,2.1,0,0,0-3.1-.1h0a2,2,0,0,0,0,2.7,14.4,14.4,0,0,1,2.9,5.3,16,16,0,0,1,.7,6.1,2,2,0,0,0,1.6,2.1h0a2,2,0,0,0,2.4-1.8,19.8,19.8,0,0,0-.9-7.6A20.7,20.7,0,0,0,35.6,7.2Z"/>
        <path d="M44.8,12.1a27,27,0,0,0-5.4-9.5,2,2,0,0,0-2.9.1,1.9,1.9,0,0,0,0,2.6,23.3,23.3,0,0,1,4.5,8,21.8,21.8,0,0,1,.9,9.1,2.1,2.1,0,0,0,1.5,2.2,2,2,0,0,0,2.4-1.7A26.5,26.5,0,0,0,44.8,12.1Z"/>
        <path d="M8.6,24.6a1.9,1.9,0,0,0,0,2.8l4,4a1.9,1.9,0,0,0,2.8,0,1.9,1.9,0,0,0,0-2.8l-4-4A1.9,1.9,0,0,0,8.6,24.6Z"/>
        <path d="M22.8,25.7a2.3,2.3,0,0,0,2.9,0A8.1,8.1,0,0,0,14.3,14.3a2.3,2.3,0,0,0,0,2.9,2.1,2.1,0,0,0,2.9,0,4,4,0,0,1,5.6,5.6A2.1,2.1,0,0,0,22.8,25.7Z"/>
        <circle cx="20" cy="20" r="2"/>
        <circle cx="16" cy="24" r="2"/>
        <circle cx="8" cy="32" r="2"/>
        <circle cx="4" cy="36" r="2"/>
      </g>
    </g>
  </g>
</svg>
