<svg xmlns="http://www.w3.org/2000/svg" width="48" height="48" viewBox="0 0 48 48">
  <title>accessibility-blind</title>
  <g id="Layer_2" data-name="Layer 2">
    <g id="invisible_box" data-name="invisible box">
      <rect width="48" height="48" fill="none"/>
    </g>
    <g id="icons_Q2" data-name="icons Q2">
      <g>
        <path d="M45.3,22.1C43.2,19.5,35.4,11,24,11a23,23,0,0,0-8.5,1.6L9.7,6.9A2,2,0,0,0,6.9,9.7L38.3,41.1a2,2,0,1,0,2.8-2.8l-4.7-4.8a32.1,32.1,0,0,0,8.9-7.6A3,3,0,0,0,45.3,22.1ZM33.4,30.6l-4-4A5.8,5.8,0,0,0,30,24a6,6,0,0,0-6-6,5.8,5.8,0,0,0-2.6.6l-2.8-2.8A19.1,19.1,0,0,1,24,15c8.8,0,15.3,6.2,17.7,9A29.7,29.7,0,0,1,33.4,30.6Z"/>
        <path d="M10.4,17.6a2,2,0,0,0-2.8,2.8l15,15a2,2,0,0,0,2.8-2.8Z"/>
        <path d="M5.4,22.6a1.9,1.9,0,0,0-2.8,0,1.9,1.9,0,0,0,0,2.8l7,7a2,2,0,0,0,2.8-2.8Z"/>
      </g>
    </g>
  </g>
</svg>
