<svg xmlns="http://www.w3.org/2000/svg" width="48" height="48" viewBox="0 0 48 48">
  <title>accessibility-circle</title>
  <g id="Layer_2" data-name="Layer 2">
    <g id="invisible_box" data-name="invisible box">
      <rect width="48" height="48" fill="none"/>
    </g>
    <g id="Layer_6" data-name="Layer 6">
      <g>
        <path d="M24,2A22,22,0,1,0,46,24,21.9,21.9,0,0,0,24,2Zm0,40A18,18,0,1,1,42,24,18.1,18.1,0,0,1,24,42Z"/>
        <circle cx="24" cy="13" r="3"/>
        <path d="M35,17H13a2,2,0,0,0,0,4h7v4.8l-2,9.8A2.1,2.1,0,0,0,19.6,38H20a2.1,2.1,0,0,0,2-1.6L23.8,27h.4L26,36.4A2.1,2.1,0,0,0,28,38h.4A2.1,2.1,0,0,0,30,35.6l-2-9.8V21h7a2,2,0,0,0,0-4Z"/>
      </g>
    </g>
  </g>
</svg>
