<svg xmlns="http://www.w3.org/2000/svg" width="48" height="48" viewBox="0 0 48 48">
  <title>accessible-forward</title>
  <g id="Layer_2" data-name="Layer 2">
    <g id="invisible_box" data-name="invisible box">
      <rect width="48" height="48" fill="none"/>
    </g>
    <g id="Q3_icons" data-name="Q3 icons">
      <g>
        <path d="M18,39a9,9,0,0,1-1.4-17.9l3.9-3.9L18,17A13,13,0,1,0,30.5,33.5H26.3A9.1,9.1,0,0,1,18,39Z"/>
        <circle cx="39" cy="9" r="4"/>
        <path d="M34,25.5H26.5l9.9-9.9L27.6,6.8a2.9,2.9,0,0,0-4.2,0l-3.8,3.8a2,2,0,0,0,2.8,2.8l3.1-3.1L29.2,14,18.8,24.4a2.9,2.9,0,0,0-.7,3.2,3,3,0,0,0,2.8,1.9H33V40a2,2,0,0,0,4,0V28.5A2.9,2.9,0,0,0,34,25.5Z"/>
      </g>
    </g>
  </g>
</svg>
