<svg xmlns="http://www.w3.org/2000/svg" width="48" height="48" viewBox="0 0 48 48">
  <title>accessibility-braille-solid</title>
  <g id="Layer_2" data-name="Layer 2">
    <g id="invisible_box" data-name="invisible box">
      <rect width="48" height="48" fill="none"/>
    </g>
    <g id="Q3_icons" data-name="Q3 icons">
      <g>
        <path d="M33,5a2.9,2.9,0,0,1,3,3,3,3,0,0,1-6,0A2.9,2.9,0,0,1,33,5Z"/>
        <path d="M33,27a3,3,0,1,1,3-3A2.9,2.9,0,0,1,33,27Z"/>
        <path d="M33,43a3,3,0,1,1,3-3A2.9,2.9,0,0,1,33,43Z"/>
        <circle cx="15" cy="8" r="6"/>
        <circle cx="15" cy="24" r="6"/>
        <path d="M15,43a3,3,0,1,1,3-3A2.9,2.9,0,0,1,15,43Z"/>
      </g>
    </g>
  </g>
</svg>
