<svg xmlns="http://www.w3.org/2000/svg" width="48" height="48" viewBox="0 0 48 48">
  <title>accessibility-deaf</title>
  <g id="Layer_2" data-name="Layer 2">
    <g id="invisible_box" data-name="invisible box">
      <rect width="48" height="48" fill="none"/>
    </g>
    <g id="Q3_icons" data-name="Q3 icons">
      <g>
        <path d="M18.9,27.6a1.9,1.9,0,0,0-2.8,0L4.6,39.1a1.9,1.9,0,0,0,0,2.8,1.9,1.9,0,0,0,2.8,0L18.9,30.4A1.9,1.9,0,0,0,18.9,27.6Z"/>
        <path d="M43.4,3.6a1.9,1.9,0,0,0-2.8,0L35.9,8.2A14,14,0,0,0,13,19a2,2,0,0,0,2.2,2A2.1,2.1,0,0,0,17,18.9a9.7,9.7,0,0,1,3.1-7.1A9.7,9.7,0,0,1,27.4,9c6.8.3,12.2,7.9,8.2,14.9a10.2,10.2,0,0,1-5.3,4.5A9.1,9.1,0,0,0,25,36.8,4.2,4.2,0,0,1,21.1,41a4.4,4.4,0,0,1-2.9-1.1l-.3-.4a1.1,1.1,0,0,0-1.5-.1L15,40.8a1.1,1.1,0,0,0-.1,1.4c.2.2.3.4.5.5A7.9,7.9,0,0,0,21,45h.2A8.2,8.2,0,0,0,29,36.7a4.8,4.8,0,0,1,3-4.6,14,14,0,0,0,6.6-20.9l4.8-4.8A1.9,1.9,0,0,0,43.4,3.6Z"/>
        <path d="M21,21a2,2,0,0,0,2-2,4,4,0,0,1,8,0,2,2,0,0,0,4,0,8,8,0,0,0-16,0A2,2,0,0,0,21,21Z"/>
      </g>
    </g>
  </g>
</svg>
