<svg xmlns="http://www.w3.org/2000/svg" width="48" height="48" viewBox="0 0 48 48">
  <title>accessibility-solid</title>
  <g id="Layer_2" data-name="Layer 2">
    <g id="invisible_box" data-name="invisible box">
      <rect width="48" height="48" fill="none"/>
    </g>
    <g id="icons_Q2" data-name="icons Q2">
      <g>
        <circle cx="24" cy="7" r="4"/>
        <path d="M40,13H8a2,2,0,0,0,0,4H19.9V27L15.1,42.4a2,2,0,0,0,1.3,2.5H17a2,2,0,0,0,1.9-1.4L23.8,28h.4l4.9,15.6A2,2,0,0,0,31,45h.6a2,2,0,0,0,1.3-2.5L28.1,27V17H40a2,2,0,0,0,0-4Z"/>
      </g>
    </g>
  </g>
</svg>
