<svg xmlns="http://www.w3.org/2000/svg" width="48" height="48" viewBox="0 0 48 48">
  <title>add-circle-solid</title>
  <g id="Layer_2" data-name="Layer 2">
    <g id="invisible_box" data-name="invisible box">
      <rect width="48" height="48" fill="none"/>
      <rect width="48" height="48" fill="none"/>
      <rect width="48" height="48" fill="none"/>
    </g>
    <g id="icons_Q2" data-name="icons Q2">
      <path d="M24,2A22,22,0,1,0,46,24,21.9,21.9,0,0,0,24,2ZM34,26H26v8a2,2,0,0,1-4,0V26H14a2,2,0,0,1,0-4h8V14a2,2,0,0,1,4,0v8h8a2,2,0,0,1,0,4Z"/>
    </g>
  </g>
</svg>
