<svg xmlns="http://www.w3.org/2000/svg" width="48" height="48" viewBox="0 0 48 48">
  <title>add-square</title>
  <g id="Layer_2" data-name="Layer 2">
    <g id="invisible_box" data-name="invisible box">
      <rect width="48" height="48" fill="none"/>
    </g>
    <g id="icons_Q2" data-name="icons Q2">
      <path d="M34,22H26V14a2,2,0,0,0-4,0v8H14a2,2,0,0,0,0,4h8v8a2,2,0,0,0,4,0V26h8a2,2,0,0,0,0-4Z"/>
      <path d="M40,8V40H8V8H40m2-4H6A2,2,0,0,0,4,6V42a2,2,0,0,0,2,2H42a2,2,0,0,0,2-2V6a2,2,0,0,0-2-2Z"/>
    </g>
  </g>
</svg>
