<svg xmlns="http://www.w3.org/2000/svg" width="48" height="48" viewBox="0 0 48 48">
  <g id="Layer_2" data-name="Layer 2">
    <g id="invisible_box" data-name="invisible box">
      <rect width="48" height="48" fill="none"/>
    </g>
    <g id="Health_Icons" data-name="Health Icons">
      <path d="M39,17H34.1l-7-13.2A2.8,2.8,0,0,0,24.4,2H16a3,3,0,0,0-2.5,1.3,2.8,2.8,0,0,0-.2,2.9L18,17H14.6l-1.2-2.3h0A3.4,3.4,0,0,0,10.5,13H5.2a3.5,3.5,0,0,0-2.8,1.5,3.1,3.1,0,0,0-.1,2.8L5.7,24,2.3,30.7a3.1,3.1,0,0,0,.1,2.8A3.5,3.5,0,0,0,5.2,35h5.3a3.4,3.4,0,0,0,2.9-1.6L14.6,31H18L13.3,41.8a2.8,2.8,0,0,0,.2,2.9A3,3,0,0,0,16,46h8.4a2.8,2.8,0,0,0,2.7-1.8l7-13.2H39a7,7,0,0,0,0-14Zm0,10H31.7L23.8,42H17.5l6.6-15h-12l-2,4H6.6l3.5-7L6.6,17h3.5l2,4h12L17.5,6h6.3l7.9,15H39a3,3,0,0,1,0,6Z"/>
    </g>
  </g>
</svg>
