<svg xmlns="http://www.w3.org/2000/svg" width="48" height="48" viewBox="0 0 48 48">
  <g id="Layer_2" data-name="Layer 2">
    <g id="invisible_box" data-name="invisible box">
      <rect width="48" height="48" fill="none"/>
    </g>
    <g id="Health_Icons" data-name="Health Icons">
      <g>
        <path d="M13.8,7.5l5.9,5.9c.4.4,1-.1.8-.6L17.5,6h6.3l7.9,15h7.2a3,3,0,1,1,.1,6H33.3l4,4h1.5a7.1,7.1,0,0,0,7.1-6.1A6.9,6.9,0,0,0,39,17H34.1l-7-13.2A2.8,2.8,0,0,0,24.4,2H16a3,3,0,0,0-2.5,1.3,3,3,0,0,0-.3,2.9Z"/>
        <path d="M7.4,6.6a1.9,1.9,0,0,0-2.8,0,1.9,1.9,0,0,0,0,2.8L8.2,13h-3a3.5,3.5,0,0,0-2.8,1.5,3.1,3.1,0,0,0-.1,2.8L5.6,24,2.3,30.7a3.1,3.1,0,0,0,.1,2.8A3.5,3.5,0,0,0,5.2,35h5.3a3.4,3.4,0,0,0,2.9-1.6L14.6,31H18L13.2,41.8a3,3,0,0,0,.3,2.9A3,3,0,0,0,16,46h8.4a2.8,2.8,0,0,0,2.7-1.8l4.3-8,9.2,9.2a1.9,1.9,0,0,0,2.8,0,1.9,1.9,0,0,0,0-2.8ZM12.1,27l-2,4H6.6l3.5-7L6.6,17h3.5l2,4h4.1l6,6ZM23.8,42H17.5l6-13.7,4.9,4.9Z"/>
      </g>
    </g>
  </g>
</svg>
