<svg xmlns="http://www.w3.org/2000/svg" width="48" height="48" viewBox="0 0 48 48">
  <title>align-center</title>
  <g id="Layer_2" data-name="Layer 2">
    <g id="invisible_box" data-name="invisible box">
      <rect width="48" height="48" fill="none"/>
    </g>
    <g id="Q3_icons" data-name="Q3 icons">
      <path d="M42,26H6a2,2,0,0,1,0-4H42a2,2,0,0,1,0,4Z"/>
      <path d="M16.6,11.5l6,5.9a1.9,1.9,0,0,0,2.8,0l6-5.9a2.1,2.1,0,0,0,.2-2.7,1.9,1.9,0,0,0-3-.2L26,11.2V4a2,2,0,0,0-4,0v7.2L19.4,8.6a1.9,1.9,0,0,0-3,.2A2.1,2.1,0,0,0,16.6,11.5Z"/>
      <path d="M31.4,36.5l-6-5.9a1.9,1.9,0,0,0-2.8,0l-6,5.9a2.1,2.1,0,0,0-.2,2.7,1.9,1.9,0,0,0,3,.2L22,36.8V44a2,2,0,0,0,4,0V36.8l2.6,2.6a1.9,1.9,0,0,0,3-.2A2.1,2.1,0,0,0,31.4,36.5Z"/>
    </g>
  </g>
</svg>
