<svg xmlns="http://www.w3.org/2000/svg" width="48" height="48" viewBox="0 0 48 48">
  <g id="Layer_2" data-name="Layer 2">
    <g id="invisible_box" data-name="invisible box">
      <rect width="48" height="48" fill="none"/>
    </g>
    <g id="Layer_7" data-name="Layer 7">
      <g>
        <path d="M44,38H4a2,2,0,0,0,0,4H44a2,2,0,0,0,0-4Z"/>
        <path d="M28,34H40a2,2,0,0,0,2-2V16a2,2,0,0,0-2-2H28a2,2,0,0,0-2,2V32A2,2,0,0,0,28,34Zm2-16h8V30H30Z"/>
        <path d="M8,34H20a2,2,0,0,0,2-2V8a2,2,0,0,0-2-2H8A2,2,0,0,0,6,8V32A2,2,0,0,0,8,34Zm2-24h8V30H10Z"/>
      </g>
    </g>
  </g>
</svg>
