<svg xmlns="http://www.w3.org/2000/svg" width="48" height="48" viewBox="0 0 48 48">
  <g id="Layer_2" data-name="Layer 2">
    <g id="invisible_box" data-name="invisible box">
      <rect width="48" height="48" fill="none"/>
    </g>
    <g id="Layer_7" data-name="Layer 7">
      <path d="M39,26H26V22h7a2,2,0,0,0,2-2V8a2,2,0,0,0-2-2H26V4a2,2,0,0,0-4,0V6H15a2,2,0,0,0-2,2V20a2,2,0,0,0,2,2h7v4H9a2,2,0,0,0-2,2V40a2,2,0,0,0,2,2H22v2a2,2,0,0,0,4,0V42H39a2,2,0,0,0,2-2V28A2,2,0,0,0,39,26ZM17,10H31v8H17ZM37,38H11V30H37Z"/>
    </g>
  </g>
</svg>
