<svg xmlns="http://www.w3.org/2000/svg" width="48" height="48" viewBox="0 0 48 48">
  <g id="Layer_2" data-name="Layer 2">
    <g id="invisible_box" data-name="invisible box">
      <rect width="48" height="48" fill="none"/>
    </g>
    <g id="Medical">
      <g>
        <path d="M12,21h3v3a2,2,0,0,0,4,0V21h3a2,2,0,0,0,0-4H19V14a2,2,0,0,0-4,0v3H12a2,2,0,0,0,0,4Z"/>
        <path d="M36.8,11.1A2.8,2.8,0,0,0,34.5,10H32V8a2.9,2.9,0,0,0-3-3H5A2.9,2.9,0,0,0,2,8V35a2.9,2.9,0,0,0,3,3H7.3a7,7,0,0,0,13.4,0h6.6a7,7,0,0,0,13.4,0H43a2.9,2.9,0,0,0,3-3V21.2ZM14,39a3,3,0,1,1,3-3A2.9,2.9,0,0,1,14,39Zm14-6.6a7.7,7.7,0,0,0-.7,1.6H20.7A7,7,0,0,0,7.3,34H6V9H28ZM32,14h2.1l6.3,7H32Zm2,25a3,3,0,1,1,3-3A2.9,2.9,0,0,1,34,39Zm8-5H40.7A7,7,0,0,0,34,29a6.4,6.4,0,0,0-2,.3V25H42Z"/>
      </g>
    </g>
  </g>
</svg>
