<svg xmlns="http://www.w3.org/2000/svg" width="48" height="48" viewBox="0 0 48 48">
  <title>android</title>
  <g id="Layer_2" data-name="Layer 2">
    <g id="invisible_box" data-name="invisible box">
      <rect width="48" height="48" fill="none"/>
      <rect width="48" height="48" fill="none"/>
    </g>
    <g id="icons_Q2" data-name="icons Q2">
      <g>
        <path d="M7.7,16.2A2.7,2.7,0,0,0,5,18.9V30.3a2.8,2.8,0,0,0,1.2,2.3,2.6,2.6,0,0,0,1.5.4,2.7,2.7,0,0,0,2.2-1.1l.2-.3.3-.7v-12A2.7,2.7,0,0,0,7.7,16.2Z"/>
        <path d="M29.6,6l1.9-3.4c0-.1.1-.1.1-.2a.8.8,0,0,0-.2-.4h-.5l-2,3.5a4.9,4.9,0,0,0-1.7-.6,13.6,13.6,0,0,0-3.6-.5H21.8a12.9,12.9,0,0,0-3.5,1L16.4,2.2A.5.5,0,0,0,16,2h-.2a.4.4,0,0,0-.1.3v.2L17.6,6h0a11.8,11.8,0,0,0-4.4,3.9l-.5.8-.6,1.4a8.9,8.9,0,0,0-.7,3.6H35.8A11.1,11.1,0,0,0,29.6,6ZM18.1,11.4A1.1,1.1,0,0,1,17,10.3a1.1,1.1,0,0,1,1.1-1,1.1,1.1,0,0,1,1,1A1.1,1.1,0,0,1,18.1,11.4Zm11.1,0a1,1,0,0,1-1-1.1,1,1,0,0,1,2,0A1,1,0,0,1,29.2,11.4Z"/>
        <path d="M11.5,16.8V34.4a2.9,2.9,0,0,0,2.9,2.9h2v6A2.6,2.6,0,0,0,18,45.8h1.1l1-.2a2.7,2.7,0,0,0,1.7-2.5v-6h3.7v6a2.7,2.7,0,1,0,5.4,0v-6h2a3.5,3.5,0,0,0,1.7-.6,2.9,2.9,0,0,0,1.2-2.3V16.8Z"/>
        <path d="M42.2,18.9a2.6,2.6,0,0,0-2.1-2.6h-.6a2.7,2.7,0,0,0-2.7,2.7V30.3a2.7,2.7,0,1,0,5.4,0Z"/>
      </g>
    </g>
  </g>
</svg>
