<svg xmlns="http://www.w3.org/2000/svg" width="48" height="48" viewBox="0 0 48 48">
  <title>apple-ios</title>
  <g id="Layer_2" data-name="Layer 2">
    <g id="invisible_box" data-name="invisible box">
      <rect width="48" height="48" fill="none"/>
      <rect width="48" height="48" fill="none"/>
    </g>
    <g id="icons_Q2" data-name="icons Q2">
      <path d="M20,15.7c-4.5,0-7.5,3.7-7.5,9.3s2.8,9.4,7.2,9.4S27,29.6,27,24.9,25.2,15.7,20,15.7Zm0,0c-4.5,0-7.5,3.7-7.5,9.3s2.8,9.4,7.2,9.4S27,29.6,27,24.9,25.2,15.7,20,15.7ZM42,4H6A2,2,0,0,0,4,6V42a2,2,0,0,0,2,2H42a2,2,0,0,0,2-2V6A2,2,0,0,0,42,4ZM8.9,35.7H7.3V20.2H8.9ZM8,17.3a1.1,1.1,0,0,1-1-1.1,1.1,1.1,0,1,1,2.2,0A1.1,1.1,0,0,1,8,17.3ZM19.7,36c-4.4,0-8.8-3.4-8.8-10.9S15.5,14,20,14a7.7,7.7,0,0,1,3.4.7,8.3,8.3,0,0,1,2.8,2.1,12.5,12.5,0,0,1,2.5,8C28.7,33.1,23.8,36,19.7,36Zm14.8,0a8.4,8.4,0,0,1-4.7-1.4l-.3-.2.7-1.5.4.3a8.2,8.2,0,0,0,4,1.2c2.3,0,4.8-1.6,4.8-4.3s-1.2-3.6-4.2-4.9-5.1-2.4-5.1-5.6,2.5-5.6,6-5.6a7.2,7.2,0,0,1,4,1l.3.3-.7,1.4-.5-.3a6.2,6.2,0,0,0-3.1-.8,4.1,4.1,0,0,0-4.3,4c0,2.2,1.6,3,4,4.1h.3c3.2,1.6,4.9,3,4.9,6.1S38.3,36,34.5,36ZM20,15.7c-4.5,0-7.5,3.7-7.5,9.3s2.8,9.4,7.2,9.4S27,29.6,27,24.9,25.2,15.7,20,15.7Z"/>
    </g>
  </g>
</svg>
