<svg xmlns="http://www.w3.org/2000/svg" width="48" height="48" viewBox="0 0 48 48">
  <title>apps-large-solid</title>
  <g id="Layer_2" data-name="Layer 2">
    <g id="invisible_box" data-name="invisible box">
      <rect width="48" height="48" fill="none"/>
    </g>
    <g id="Q3_icons" data-name="Q3 icons">
      <g>
        <path d="M20,4H6A2,2,0,0,0,4,6V20a2,2,0,0,0,2,2H20a2,2,0,0,0,2-2V6A2,2,0,0,0,20,4Z"/>
        <path d="M42,4H28a2,2,0,0,0-2,2V20a2,2,0,0,0,2,2H42a2,2,0,0,0,2-2V6A2,2,0,0,0,42,4Z"/>
        <path d="M20,26H6a2,2,0,0,0-2,2V42a2,2,0,0,0,2,2H20a2,2,0,0,0,2-2V28A2,2,0,0,0,20,26Z"/>
        <path d="M42,26H28a2,2,0,0,0-2,2V42a2,2,0,0,0,2,2H42a2,2,0,0,0,2-2V28A2,2,0,0,0,42,26Z"/>
      </g>
    </g>
  </g>
</svg>
