<svg xmlns="http://www.w3.org/2000/svg" width="48" height="48" viewBox="0 0 48 48">
  <title>archive-solid</title>
  <g id="Layer_2" data-name="Layer 2">
    <g id="invisible_box" data-name="invisible box">
      <rect width="48" height="48" fill="none"/>
    </g>
    <g id="icons_Q2" data-name="icons Q2">
      <path d="M26,18V29.2l2.6-2.6a2,2,0,0,1,3.1.2,2.2,2.2,0,0,1-.4,2.7l-5.9,5.9a1.9,1.9,0,0,1-2.8,0l-5.9-5.9a2.2,2.2,0,0,1-.4-2.7,2,2,0,0,1,3.1-.2L22,29.2V18H4V40a4,4,0,0,0,4,4H40a4,4,0,0,0,4-4V18Z"/>
      <path d="M43.9,14H4.1a3.6,3.6,0,0,1,.7-1.7l5-6.7A3.9,3.9,0,0,1,13,4H35a3.9,3.9,0,0,1,3.2,1.6l5,6.7A3.6,3.6,0,0,1,43.9,14Z"/>
    </g>
  </g>
</svg>
