<svg xmlns="http://www.w3.org/2000/svg" width="48" height="48" viewBox="0 0 48 48">
  <title>arrow-block-down</title>
  <g id="Layer_2" data-name="Layer 2">
    <g id="invisible_box" data-name="invisible box">
      <rect width="48" height="48" fill="none"/>
    </g>
    <g id="Q3_icons" data-name="Q3 icons">
      <path d="M27.9,10V24.4h9.6L24,39,10.5,24.4h9.6V10h7.8m2-4H18.1a2,2,0,0,0-2,2V20.4H6a2,2,0,0,0-1.4,3.5L22.5,43.4a2.2,2.2,0,0,0,3,0L43.4,23.9A2,2,0,0,0,42,20.4H31.9V8a2,2,0,0,0-2-2Z"/>
    </g>
  </g>
</svg>
