<svg xmlns="http://www.w3.org/2000/svg" width="48" height="48" viewBox="0 0 48 48">
  <title>arrowhead</title>
  <g id="Layer_2" data-name="Layer 2">
    <g id="invisible_box" data-name="invisible box">
      <rect width="48" height="48" fill="none"/>
    </g>
    <g id="icons_Q2" data-name="icons Q2">
      <path d="M24,46A22,22,0,1,0,2,24,21.9,21.9,0,0,0,24,46ZM14.3,19.8A2.5,2.5,0,0,1,16,19H32a2.5,2.5,0,0,1,1.7.8,2.1,2.1,0,0,1-.4,2.7l-7.9,7.9a1.9,1.9,0,0,1-2.8,0l-7.9-7.9A2.1,2.1,0,0,1,14.3,19.8Z"/>
    </g>
  </g>
</svg>
