<svg xmlns="http://www.w3.org/2000/svg" width="48" height="48" viewBox="0 0 48 48">
  <title>arrowhead-down-circle</title>
  <g id="Layer_2" data-name="Layer 2">
    <g id="invisible_box" data-name="invisible box">
      <rect width="48" height="48" fill="none"/>
    </g>
    <g id="icons_Q2" data-name="icons Q2">
      <path d="M24,42A18,18,0,1,1,42,24,18.1,18.1,0,0,1,24,42m0,4A22,22,0,1,0,2,24,21.9,21.9,0,0,0,24,46Z"/>
      <path d="M24,26.2l-6.6-6.6a1.9,1.9,0,0,0-3,.2,2.1,2.1,0,0,0,.2,2.7l8,7.9a1.9,1.9,0,0,0,2.8,0l8-7.9a2.1,2.1,0,0,0,.2-2.7,1.9,1.9,0,0,0-3-.2Z"/>
    </g>
  </g>
</svg>
