<svg xmlns="http://www.w3.org/2000/svg" width="48" height="48" viewBox="0 0 48 48">
  <title>arrow-block-left</title>
  <g id="Layer_2" data-name="Layer 2">
    <g id="invisible_box" data-name="invisible box">
      <rect width="48" height="48" fill="none"/>
    </g>
    <g id="Q3_icons" data-name="Q3 icons">
      <path d="M23.6,10.5v7.6H38v9.8H23.6v9.6L9,24,23.6,10.5m2-6.5a2.2,2.2,0,0,0-1.5.6L4.6,22.5a2.2,2.2,0,0,0,0,3L24.1,43.4a2.2,2.2,0,0,0,1.5.6,2,2,0,0,0,2-2V31.9H40a2,2,0,0,0,2-2V16.1a2,2,0,0,0-2-2H27.6V6a2,2,0,0,0-2-2Z"/>
    </g>
  </g>
</svg>
