<svg xmlns="http://www.w3.org/2000/svg" width="48" height="48" viewBox="0 0 48 48">
  <title>arrow-block-right</title>
  <g id="Layer_2" data-name="Layer 2">
    <g id="invisible_box" data-name="invisible box">
      <rect width="48" height="48" fill="none"/>
    </g>
    <g id="Q3_icons" data-name="Q3 icons">
      <path d="M24.4,10.5,39,24,24.4,37.5V27.9H10V20.1H24.4V10.5M22.4,4a2,2,0,0,0-2,2V16.1H8a2,2,0,0,0-2,2V29.9a2,2,0,0,0,2,2H20.4V42a2,2,0,0,0,2,2,2.2,2.2,0,0,0,1.5-.6L43.4,25.5a2.2,2.2,0,0,0,0-3L23.9,4.6A2.2,2.2,0,0,0,22.4,4Z"/>
    </g>
  </g>
</svg>
