<svg xmlns="http://www.w3.org/2000/svg" width="48" height="48" viewBox="0 0 48 48">
  <title>arrow-up</title>
  <g id="Layer_2" data-name="Layer 2">
    <g id="invisible_box" data-name="invisible box">
      <rect width="48" height="48" fill="none"/>
      <rect width="48" height="48" fill="none"/>
      <rect width="48" height="48" fill="none"/>
    </g>
    <g id="Q3_icons" data-name="Q3 icons">
      <path d="M37.4,21.5,25.4,9.6a1.9,1.9,0,0,0-2.8,0l-12,11.9a2.1,2.1,0,0,0-.2,2.7,1.9,1.9,0,0,0,3,.2L22,15.8V37a2,2,0,0,0,4,0V15.8l8.6,8.6a1.9,1.9,0,0,0,3-.2A2.1,2.1,0,0,0,37.4,21.5Z"/>
    </g>
  </g>
</svg>
