<svg xmlns="http://www.w3.org/2000/svg" width="48" height="48" viewBox="0 0 48 48">
  <title>arrow-down</title>
  <g id="Layer_2" data-name="Layer 2">
    <g id="invisible_box" data-name="invisible box">
      <rect width="48" height="48" fill="none"/>
      <rect width="48" height="48" fill="none"/>
      <rect width="48" height="48" fill="none"/>
    </g>
    <g id="Q3_icons" data-name="Q3 icons">
      <path d="M10.6,26.5l12,11.9a1.9,1.9,0,0,0,2.8,0l12-11.9a2.1,2.1,0,0,0,.2-2.7,1.9,1.9,0,0,0-3-.2L26,32.2V11a2,2,0,0,0-4,0V32.2l-8.6-8.6a1.9,1.9,0,0,0-3,.2A2.1,2.1,0,0,0,10.6,26.5Z"/>
    </g>
  </g>
</svg>
