<svg xmlns="http://www.w3.org/2000/svg" width="48" height="48" viewBox="0 0 48 48">
  <title>arrowhead-right-circle-solid</title>
  <g id="Layer_2" data-name="Layer 2">
    <g id="invisible_box" data-name="invisible box">
      <rect width="48" height="48" fill="none"/>
    </g>
    <g id="icons_Q2" data-name="icons Q2">
      <path d="M46,24A22,22,0,1,0,24,46,21.9,21.9,0,0,0,46,24ZM19.8,33.7A2.5,2.5,0,0,1,19,32h0V16h0a2.5,2.5,0,0,1,.8-1.7,2.1,2.1,0,0,1,2.7.4l7.9,7.9a1.9,1.9,0,0,1,0,2.8l-7.9,7.9A2.1,2.1,0,0,1,19.8,33.7Z"/>
    </g>
  </g>
</svg>
