<svg xmlns="http://www.w3.org/2000/svg" width="48" height="48" viewBox="0 0 48 48">
  <title>arrowhead-up-circle-solid</title>
  <g id="Layer_2" data-name="Layer 2">
    <g id="invisible_box" data-name="invisible box">
      <rect width="48" height="48" fill="none"/>
    </g>
    <g id="icons_Q2" data-name="icons Q2">
      <path d="M24,2A22,22,0,1,0,46,24,21.9,21.9,0,0,0,24,2Zm9.7,26.2A2.5,2.5,0,0,1,32,29H16a2.5,2.5,0,0,1-1.7-.8,2.1,2.1,0,0,1,.4-2.7l7.9-7.9a1.9,1.9,0,0,1,2.8,0l7.9,7.9A2.1,2.1,0,0,1,33.7,28.2Z"/>
    </g>
  </g>
</svg>
