<svg xmlns="http://www.w3.org/2000/svg" width="48" height="48" viewBox="0 0 48 48">
  <g id="Layer_2" data-name="Layer 2">
    <g id="invisible_box" data-name="invisible box">
      <rect width="48" height="48" fill="none"/>
    </g>
    <g id="Layer_7" data-name="Layer 7">
      <g>
        <path d="M13.9,15.3A2.1,2.1,0,0,0,12,14H10a2.1,2.1,0,0,0-1.9,1.3l-6,16a2,2,0,0,0,1.4,2.6,2,2,0,0,0,2.4-1.3L7.3,29h7.4l1.4,3.7A2.1,2.1,0,0,0,18,34l.9-.2a2.1,2.1,0,0,0,.9-2.6ZM8.8,25,11,19l2.2,6Z"/>
        <path d="M44,30H36l9.6-12.8a2,2,0,0,0,.2-2.1A1.9,1.9,0,0,0,44,14H32a2,2,0,0,0,0,4h8L30.4,30.8a2,2,0,0,0-.2,2.1A1.9,1.9,0,0,0,32,34H44a2,2,0,0,0,0-4Z"/>
        <path d="M27,22H23a2,2,0,0,0,0,4h4a2,2,0,0,0,0-4Z"/>
      </g>
    </g>
  </g>
</svg>
