<svg xmlns="http://www.w3.org/2000/svg" width="48" height="48" viewBox="0 0 48 48">
  <title>assignment-check-solid</title>
  <g id="Layer_2" data-name="Layer 2">
    <g id="invisible_box" data-name="invisible box">
      <path d="M0,0V48H48V0ZM32.4,21.4l-10,10a1.9,1.9,0,0,1-2.8,0l-3.9-3.9a2.2,2.2,0,0,1-.4-2.7,2,2,0,0,1,3.1-.2L21,27.2l8.6-8.6a2,2,0,0,1,2.8,2.8Z" fill="none"/>
      <path d="M0,0V48H48V0ZM32.4,21.4l-10,10a1.9,1.9,0,0,1-2.8,0l-3.9-3.9a2.2,2.2,0,0,1-.4-2.7,2,2,0,0,1,3.1-.2L21,27.2l8.6-8.6a2,2,0,0,1,2.8,2.8Z" fill="none"/>
    </g>
    <g id="icons_Q2" data-name="icons Q2">
      <path d="M40,6H36V4a2,2,0,0,0-2-2H14a2,2,0,0,0-2,2V6H8A2,2,0,0,0,6,8V44a2,2,0,0,0,2,2H40a2,2,0,0,0,2-2V8A2,2,0,0,0,40,6ZM32.4,21.4l-10,10a1.9,1.9,0,0,1-2.8,0l-3.9-3.9a2.2,2.2,0,0,1-.4-2.7,2,2,0,0,1,3.1-.2L21,27.2l8.6-8.6a2,2,0,0,1,2.8,2.8Z"/>
    </g>
  </g>
</svg>
