<svg xmlns="http://www.w3.org/2000/svg" width="48" height="48" viewBox="0 0 48 48">
  <title>assignment-priority-solid</title>
  <g id="Layer_2" data-name="Layer 2">
    <g id="invisible_box" data-name="invisible box">
      <rect width="48" height="48" fill="none"/>
      <rect width="48" height="48" fill="none"/>
    </g>
    <g id="icons_Q2" data-name="icons Q2">
      <path d="M40,6H36V4a2,2,0,0,0-2-2H14a2,2,0,0,0-2,2V6H8A2,2,0,0,0,6,8V44a2,2,0,0,0,2,2H40a2,2,0,0,0,2-2V8A2,2,0,0,0,40,6ZM24,38a2,2,0,1,1,2-2A2,2,0,0,1,24,38Zm2-10a2,2,0,0,1-4,0V16a2,2,0,0,1,4,0Z"/>
    </g>
  </g>
</svg>
