<svg xmlns="http://www.w3.org/2000/svg" width="48" height="48" viewBox="0 0 48 48">
  <title>anthenz</title>
  <g id="Layer_2" data-name="Layer 2">
    <g id="invisible_box" data-name="invisible box">
      <rect width="48" height="48" fill="none"/>
    </g>
    <g id="Q3_icons" data-name="Q3 icons">
      <path d="M45.3,11.3A29,29,0,0,0,4.2,9.8L2.7,11.3A29.4,29.4,0,0,0,24,46,29,29,0,0,0,44.3,27.4a29.5,29.5,0,0,0,1-16.1ZM24,37.1A21,21,0,0,1,10.5,17.6a14.8,14.8,0,0,1,.1-2.1,20.6,20.6,0,0,1,26.8,0,14.8,14.8,0,0,1,.1,2.1A20.9,20.9,0,0,1,24,37.1Z"/>
      <path d="M24,14.8a16.9,16.9,0,0,1,9,2.7.4.4,0,0,1,.2.4,16.6,16.6,0,0,1-9,14.4.3.3,0,0,1-.4,0,16.6,16.6,0,0,1-9-14.4.4.4,0,0,1,.2-.4A16.9,16.9,0,0,1,24,14.8Z"/>
    </g>
  </g>
</svg>
