<svg xmlns="http://www.w3.org/2000/svg" width="48" height="48" viewBox="0 0 48 48">
  <title>attachment-solid</title>
  <g id="Layer_2" data-name="Layer 2">
    <g id="invisible_box" data-name="invisible box">
      <rect width="48" height="48" fill="none"/>
    </g>
    <g id="icons_Q2" data-name="icons Q2">
      <path d="M24,46A12,12,0,0,1,12,34V25a7,7,0,0,1,14,0v9a2,2,0,0,1-4,0V25a3,3,0,0,0-3-3,3.1,3.1,0,0,0-3,3v9a8,8,0,0,0,16,0V14a8,8,0,0,0-16,0,2,2,0,0,1-4,0,12,12,0,0,1,24,0V34A12,12,0,0,1,24,46Z"/>
    </g>
  </g>
</svg>
