<svg xmlns="http://www.w3.org/2000/svg" width="48" height="48" viewBox="0 0 48 48">
  <title>baby-stroller</title>
  <g id="Layer_2" data-name="Layer 2">
    <g id="invisible_box" data-name="invisible box">
      <rect width="48" height="48" fill="none"/>
      <rect width="48" height="48" fill="none"/>
    </g>
    <g id="icons_Q2" data-name="icons Q2">
      <g>
        <path d="M10,22V15a2,2,0,0,0-2-2H4a2,2,0,0,0,0,4H6v6a.7.7,0,0,0,.1.5,17.8,17.8,0,0,0,4,10,6.5,6.5,0,1,0,8.9,6v-.2a20.8,20.8,0,0,0,5,.7,20.8,20.8,0,0,0,5-.7v.2a6.5,6.5,0,1,0,8.9-6A18,18,0,0,0,42,22Zm2.5,20A2.5,2.5,0,1,1,15,39.5,2.5,2.5,0,0,1,12.5,42ZM10.6,26H37.4a14,14,0,0,1-26.8,0ZM35.5,42A2.5,2.5,0,1,1,38,39.5,2.5,2.5,0,0,1,35.5,42Z"/>
        <path d="M26.3,2H26a1.9,1.9,0,0,0-2,1.8V18H42C42,9.8,35.1,3,26.3,2ZM28,14V6.4A13.5,13.5,0,0,1,37.2,14Z"/>
      </g>
    </g>
  </g>
</svg>
