<svg xmlns="http://www.w3.org/2000/svg" width="48" height="48" viewBox="0 0 48 48">
  <title>bare-metal-solid</title>
  <g id="Layer_2" data-name="Layer 2">
    <g id="invisible_box" data-name="invisible box">
      <rect width="48" height="48" fill="none"/>
    </g>
    <g id="Q3_icons" data-name="Q3 icons">
      <path d="M38,2H10A2,2,0,0,0,8,4V44a2,2,0,0,0,2,2H38a2,2,0,0,0,2-2V4A2,2,0,0,0,38,2ZM24,38a3,3,0,1,1,3-3A2.9,2.9,0,0,1,24,38Zm8-12H16V22H32Zm0-6H16V16H32Zm0-6H16V10H32Z"/>
    </g>
  </g>
</svg>
