<svg xmlns="http://www.w3.org/2000/svg" width="48" height="48" viewBox="0 0 48 48">
  <g id="Layer_2" data-name="Layer 2">
    <g id="invisible_box" data-name="invisible box">
      <rect width="48" height="48" fill="none"/>
    </g>
    <g id="Medical">
      <g>
        <path d="M18.9,32.4c.1-.2.1-.4.2-.5a10.7,10.7,0,0,1-5.9-9.5v-.5h-.5a9.8,9.8,0,0,0-3.4-.3v.9a14.5,14.5,0,0,0,8.1,13A8.5,8.5,0,0,0,18.9,32.4Z"/>
        <path d="M18.2,13.5A10.2,10.2,0,0,1,24,11.8a10.2,10.2,0,0,1,5.8,1.7,7.9,7.9,0,0,0,2.3-3.1,14.9,14.9,0,0,0-16.2,0A7.9,7.9,0,0,0,18.2,13.5Z"/>
        <path d="M35.3,21.8h-.5v.5a10.7,10.7,0,0,1-5.9,9.5c.1.1.1.3.2.5a8.5,8.5,0,0,0,1.5,3,14.5,14.5,0,0,0,8.1-13v-.9A9.8,9.8,0,0,0,35.3,21.8Z"/>
        <path d="M45,17.6a15.1,15.1,0,0,0-9.2-1.9,13.9,13.9,0,0,0,3-8.7,2,2,0,0,0-4,0A10.8,10.8,0,0,1,13.2,7a2,2,0,0,0-4,0,13.9,13.9,0,0,0,3,8.7A15.1,15.1,0,0,0,3,17.6a1.9,1.9,0,0,0-.7,2.7A1.9,1.9,0,0,0,5,21a10.9,10.9,0,0,1,14.7,3.9,10.4,10.4,0,0,1,1.1,7.9,10.5,10.5,0,0,1-5,6.5A2,2,0,0,0,15,42a2.2,2.2,0,0,0,1.8,1l1-.3A14.3,14.3,0,0,0,24,35.8a14.3,14.3,0,0,0,6.2,6.9l1,.3A2.2,2.2,0,0,0,33,42a2,2,0,0,0-.8-2.7,10.5,10.5,0,0,1-5-6.5,10.4,10.4,0,0,1,1.1-7.9A10.9,10.9,0,0,1,43,21a1.9,1.9,0,0,0,2.7-.7A1.9,1.9,0,0,0,45,17.6ZM24,25.5a3,3,0,1,1,3-3A2.9,2.9,0,0,1,24,25.5Z"/>
      </g>
    </g>
  </g>
</svg>
