<svg xmlns="http://www.w3.org/2000/svg" width="48" height="48" viewBox="0 0 48 48">
  <title>bomb-solid</title>
  <g id="Layer_2" data-name="Layer 2">
    <g id="invisible_box" data-name="invisible box">
      <rect width="48" height="48" fill="none"/>
    </g>
    <g id="Q3_icons" data-name="Q3 icons">
      <g>
        <path d="M15.6,7.1a1.6,1.6,0,0,0,1.6-1.6v-2A1.6,1.6,0,0,0,15.6,2a1.5,1.5,0,0,0-1.5,1.5v2A1.6,1.6,0,0,0,15.6,7.1Z"/>
        <path d="M10.3,7.4a1.3,1.3,0,0,0,1,.4,1.5,1.5,0,0,0,1.1-.4,1.6,1.6,0,0,0,0-2.2L11,3.8a1.6,1.6,0,0,0-2.2,0,1.4,1.4,0,0,0,0,2.1Z"/>
        <path d="M11.1,10.6A1.5,1.5,0,0,0,9.6,9.1H7.5a1.5,1.5,0,0,0,0,3H9.6A1.5,1.5,0,0,0,11.1,10.6Z"/>
        <path d="M12.4,13.8a1.4,1.4,0,0,0-2.1,0L8.8,15.2a1.6,1.6,0,0,0,0,2.2,1.5,1.5,0,0,0,1.1.4,1.5,1.5,0,0,0,1.1-.4L12.4,16A1.6,1.6,0,0,0,12.4,13.8Z"/>
        <path d="M17.2,17.7v-2a1.6,1.6,0,0,0-1.6-1.6,1.6,1.6,0,0,0-1.5,1.6v2a1.5,1.5,0,0,0,1.5,1.5A1.6,1.6,0,0,0,17.2,17.7Z"/>
        <path d="M31.9,21V16.7H27.8V14.6a6,6,0,0,0-6.1-6H15.6a2,2,0,0,0,0,4h6.1a2,2,0,0,1,2.1,2v2.1H19.7V21a13.1,13.1,0,0,0-8.1,11.9c0,7.2,6.3,13.1,14.2,13.1S40,40.1,40,32.9A13.1,13.1,0,0,0,31.9,21Z"/>
      </g>
    </g>
  </g>
</svg>
