<svg xmlns="http://www.w3.org/2000/svg" width="48" height="48" viewBox="0 0 48 48">
  <title>bookmark-multiple-solid</title>
  <g id="Layer_2" data-name="Layer 2">
    <g id="invisible_box" data-name="invisible box">
      <rect width="48" height="48" fill="none"/>
    </g>
    <g id="icons_Q2" data-name="icons Q2">
      <path d="M8,10a2,2,0,0,0-2,2V44a2,2,0,0,0,2,2,2.4,2.4,0,0,0,1.4-.5L20,37.4l10.6,8.1A2.4,2.4,0,0,0,32,46a2,2,0,0,0,2-2V12a2,2,0,0,0-2-2Z"/>
      <path d="M16,2a2,2,0,0,0-2,2V6H38V37l.6.5A2.4,2.4,0,0,0,40,38a2,2,0,0,0,2-2V4a2,2,0,0,0-2-2Z"/>
    </g>
  </g>
</svg>
