<svg xmlns="http://www.w3.org/2000/svg" width="48" height="48" viewBox="0 0 48 48">
  <title>branch</title>
  <g id="Layer_2" data-name="Layer 2">
    <g id="invisible_box" data-name="invisible box">
      <rect width="48" height="48" fill="none"/>
    </g>
    <g id="icons_Q2" data-name="icons Q2">
      <path d="M44,9a7,7,0,1,0-9,6.7V16a6,6,0,0,1-6,6H21a10.3,10.3,0,0,0-6,2V15.7a7,7,0,1,0-4,0V32.3a7,7,0,1,0,4,0V32a6,6,0,0,1,6-6h8A10,10,0,0,0,39,16v-.3A7,7,0,0,0,44,9ZM10,9a3,3,0,0,1,6,0,3,3,0,0,1-6,0Zm6,30a3,3,0,1,1-3-3A2.9,2.9,0,0,1,16,39ZM37,12a2.9,2.9,0,0,1-3-3,3,3,0,0,1,6,0A2.9,2.9,0,0,1,37,12Z"/>
    </g>
  </g>
</svg>
