<svg xmlns="http://www.w3.org/2000/svg" width="48" height="48" viewBox="0 0 48 48">
  <title>broadcast-tower-solid</title>
  <g id="Layer_2" data-name="Layer 2">
    <g id="invisible_box" data-name="invisible box">
      <rect width="48" height="48" fill="none"/>
    </g>
    <g id="icons_Q2" data-name="icons Q2">
      <g>
        <path d="M25.8,25.6A4.9,4.9,0,0,0,29,21a5,5,0,0,0-10,0,4.9,4.9,0,0,0,3.2,4.6L15.1,42.7c-.3.7,0,1.3.5,1.3H32.4c.5,0,.8-.6.5-1.3Z"/>
        <path d="M17.5,31.4a2.2,2.2,0,0,0-.1-2.9,10,10,0,0,1,0-15,2.2,2.2,0,0,0,.1-2.9,2.2,2.2,0,0,0-2.9-.1A14.5,14.5,0,0,0,10,21a14.5,14.5,0,0,0,4.6,10.5A2.2,2.2,0,0,0,17.5,31.4Z"/>
        <path d="M33.4,10.5a2.1,2.1,0,0,0-2.9.1,2.2,2.2,0,0,0,.1,2.9,10,10,0,0,1,0,15,2.1,2.1,0,0,0,2.8,3,14.3,14.3,0,0,0,0-21Z"/>
        <path d="M39.4,5.6a2,2,0,0,0-2.8,2.8,17.4,17.4,0,0,1,0,25.2,2,2,0,0,0,2.8,2.8,21.3,21.3,0,0,0,0-30.8Z"/>
        <path d="M6,21A17.5,17.5,0,0,1,11.4,8.4,2,2,0,0,0,8.6,5.6a21.3,21.3,0,0,0,0,30.8,2,2,0,0,0,2.8-2.8A17.5,17.5,0,0,1,6,21Z"/>
      </g>
    </g>
  </g>
</svg>
