<svg xmlns="http://www.w3.org/2000/svg" width="48" height="48" viewBox="0 0 48 48">
  <title>browser-delete</title>
  <g id="Layer_2" data-name="Layer 2">
    <g id="invisible_box" data-name="invisible box">
      <rect width="48" height="48" fill="none"/>
    </g>
    <g id="Q3_icons" data-name="Q3 icons">
      <g>
        <path d="M44,2H4A2,2,0,0,0,2,4V35a2,2,0,0,0,2,2h6.2a15.1,15.1,0,0,0,27.6,0H44a2,2,0,0,0,2-2V4A2,2,0,0,0,44,2ZM33.2,37a11,11,0,0,1-18.4,0,10.9,10.9,0,0,1-1.6-4,13.6,13.6,0,0,1-.2-2,11,11,0,0,1,22,0,13.6,13.6,0,0,1-.2,2A10.9,10.9,0,0,1,33.2,37ZM42,33H38.9a13.4,13.4,0,0,0,.1-2A15,15,0,0,0,9,31a13.4,13.4,0,0,0,.1,2H6V6H42Z"/>
        <circle cx="10" cy="10" r="2"/>
        <circle cx="16" cy="10" r="2"/>
        <circle cx="22" cy="10" r="2"/>
        <path d="M29.6,25.8a1.9,1.9,0,0,0-3-.2L24,28.2l-2.6-2.6a1.9,1.9,0,0,0-3,.2,2.1,2.1,0,0,0,.2,2.7L21.2,31l-2.6,2.5a2.1,2.1,0,0,0-.2,2.7,1.9,1.9,0,0,0,3,.2L24,33.8l2.6,2.6a1.9,1.9,0,0,0,3-.2,2.1,2.1,0,0,0-.2-2.7L26.8,31l2.6-2.5A2.1,2.1,0,0,0,29.6,25.8Z"/>
      </g>
    </g>
  </g>
</svg>
