<svg xmlns="http://www.w3.org/2000/svg" width="48" height="48" viewBox="0 0 48 48">
  <title>browser-setting-solid</title>
  <g id="Layer_2" data-name="Layer 2">
    <g id="invisible_box" data-name="invisible box">
      <rect width="48" height="48" fill="none"/>
    </g>
    <g id="Q3_icons" data-name="Q3 icons">
      <path d="M44,6H4A2,2,0,0,0,2,8V40a2,2,0,0,0,2,2H44a2,2,0,0,0,2-2V8A2,2,0,0,0,44,6ZM22,12a2,2,0,1,1-2,2A2,2,0,0,1,22,12ZM10,16a2,2,0,1,1,2-2A2,2,0,0,1,10,16Zm4-2a2,2,0,1,1,2,2A2,2,0,0,1,14,14ZM31.9,28.3l-2.2.5a4.2,4.2,0,0,1-.4,1l1.2,1.9a7.7,7.7,0,0,1-1.8,1.8l-1.9-1.2-1,.4-.5,2.2H22.7l-.5-2.2-1-.4-1.9,1.2a7.7,7.7,0,0,1-1.8-1.8l1.2-1.9a4.2,4.2,0,0,1-.4-1l-2.2-.5A5.7,5.7,0,0,1,16,27a5.7,5.7,0,0,1,.1-1.3l2.2-.5a4.2,4.2,0,0,1,.4-1l-1.2-1.9a7.7,7.7,0,0,1,1.8-1.8l1.9,1.2,1-.4.5-2.2h2.6l.5,2.2,1,.4,1.9-1.2a7.7,7.7,0,0,1,1.8,1.8l-1.2,1.9a4.2,4.2,0,0,1,.4,1l2.2.5A5.7,5.7,0,0,1,32,27,5.7,5.7,0,0,1,31.9,28.3ZM24,25a2,2,0,1,0,2,2A2,2,0,0,0,24,25Z"/>
    </g>
  </g>
</svg>
