<svg xmlns="http://www.w3.org/2000/svg" width="48" height="48" viewBox="0 0 48 48">
  <title>browser-delete-solid</title>
  <g id="Layer_2" data-name="Layer 2">
    <g id="invisible_box" data-name="invisible box">
      <rect width="48" height="48" fill="none"/>
    </g>
    <g id="Q3_icons" data-name="Q3 icons">
      <g>
        <path d="M44,2H4A2,2,0,0,0,2,4V35a2,2,0,0,0,2,2h6.2a15.1,15.1,0,0,0,27.6,0H44a2,2,0,0,0,2-2V4A2,2,0,0,0,44,2ZM22,8a2,2,0,1,1-2,2A2,2,0,0,1,22,8ZM16,8a2,2,0,1,1-2,2A2,2,0,0,1,16,8Zm-6,4a2,2,0,1,1,2-2A2,2,0,0,1,10,12ZM34.8,33a10.9,10.9,0,0,1-1.6,4,11,11,0,0,1-18.4,0,10.9,10.9,0,0,1-1.6-4,13.6,13.6,0,0,1-.2-2,11,11,0,0,1,22,0A13.6,13.6,0,0,1,34.8,33Z"/>
        <path d="M29.7,25.8a2,2,0,0,0-3.1-.2L24,28.2l-2.6-2.6a2,2,0,0,0-3.1.2,2.2,2.2,0,0,0,.4,2.7L21.2,31l-2.5,2.5a2.1,2.1,0,0,0-.4,2.7,2,2,0,0,0,3.1.2L24,33.8l2.6,2.6a2,2,0,0,0,3.1-.2,2.1,2.1,0,0,0-.4-2.7L26.8,31l2.5-2.5A2.2,2.2,0,0,0,29.7,25.8Z"/>
      </g>
    </g>
  </g>
</svg>
