<svg xmlns="http://www.w3.org/2000/svg" width="48" height="48" viewBox="0 0 48 48">
  <title>browser-cost-solid</title>
  <g id="Layer_2" data-name="Layer 2">
    <g id="invisible_box" data-name="invisible box">
      <rect width="48" height="48" fill="none"/>
    </g>
    <g id="icons_Q2" data-name="icons Q2">
      <path d="M44,6H4A2,2,0,0,0,2,8V40a2,2,0,0,0,2,2H22V39.8A11.2,11.2,0,0,1,17.8,38a1.8,1.8,0,0,1-.3-2.6,2,2,0,0,1,2.8-.6,6.4,6.4,0,0,0,4,1.3c1.5,0,2.5-.6,2.5-1.4s0-1.2-3.3-1.8-6.4-1.8-6.4-5.5,2-4.7,4.9-5.3V20a2,2,0,0,1,4,0v2.2a12,12,0,0,1,3.1,1.3,1.9,1.9,0,0,1,.4,2.8,1.8,1.8,0,0,1-2.7.5,5.9,5.9,0,0,0-3.2-.9,3,3,0,0,0-1.8.4c-.3.3-.5.5-.5.9s0,1.1,3.5,1.8S31,30.8,31,34.5h0a4.9,4.9,0,0,1-2,4,5.9,5.9,0,0,1-3,1.3V42H44a2,2,0,0,0,2-2V8A2,2,0,0,0,44,6ZM10,16a2,2,0,1,1,2-2A2,2,0,0,1,10,16Zm6,0a2,2,0,1,1,2-2A2,2,0,0,1,16,16Zm6,0a2,2,0,1,1,2-2A2,2,0,0,1,22,16Z"/>
    </g>
  </g>
</svg>
