<svg xmlns="http://www.w3.org/2000/svg" width="48" height="48" viewBox="0 0 48 48">
  <title>browser-setting</title>
  <g id="Layer_2" data-name="Layer 2">
    <g id="invisible_box" data-name="invisible box">
      <rect width="48" height="48" fill="none"/>
    </g>
    <g id="Q3_icons" data-name="Q3 icons">
      <path d="M44,6H4A2,2,0,0,0,2,8V40a2,2,0,0,0,2,2H44a2,2,0,0,0,2-2V8A2,2,0,0,0,44,6ZM42,38H6V10H42Z"/>
      <circle cx="10" cy="14" r="2"/>
      <circle cx="16" cy="14" r="2"/>
      <circle cx="22" cy="14" r="2"/>
      <path d="M31.9,28.3A5.7,5.7,0,0,0,32,27a5.7,5.7,0,0,0-.1-1.3l-2.2-.5a4.2,4.2,0,0,0-.4-1l1.2-1.9a7.7,7.7,0,0,0-1.8-1.8l-1.9,1.2-1-.4-.5-2.2H22.7l-.5,2.2-1,.4-1.9-1.2a7.7,7.7,0,0,0-1.8,1.8l1.2,1.9a4.2,4.2,0,0,0-.4,1l-2.2.5A5.7,5.7,0,0,0,16,27a5.7,5.7,0,0,0,.1,1.3l2.2.5a4.2,4.2,0,0,0,.4,1l-1.2,1.9a7.7,7.7,0,0,0,1.8,1.8l1.9-1.2,1,.4.5,2.2h2.6l.5-2.2,1-.4,1.9,1.2a7.7,7.7,0,0,0,1.8-1.8l-1.2-1.9a4.2,4.2,0,0,0,.4-1ZM24,29a2,2,0,1,1,2-2A2,2,0,0,1,24,29Z"/>
    </g>
  </g>
</svg>
