<svg xmlns="http://www.w3.org/2000/svg" width="48" height="48" viewBox="0 0 48 48">
  <title>browser-bar-chart-solid</title>
  <g id="Layer_2" data-name="Layer 2">
    <g id="invisible_box" data-name="invisible box">
      <rect width="48" height="48" fill="none"/>
    </g>
    <g id="icons_Q2" data-name="icons Q2">
      <path d="M44,6H4A2,2,0,0,0,2,8V40a2,2,0,0,0,2,2H44a2,2,0,0,0,2-2V8A2,2,0,0,0,44,6ZM10,16a2,2,0,1,1,2-2A2,2,0,0,1,10,16Zm4-2a2,2,0,1,1,2,2A2,2,0,0,1,14,14Zm6,20H16V26a2,2,0,0,1,2-2,2.1,2.1,0,0,1,2,2Zm0-20a2,2,0,1,1,2,2A2,2,0,0,1,20,14Zm6,20H22V22a2,2,0,0,1,2-2,2.1,2.1,0,0,1,2,2Zm6,0H28V27a2,2,0,0,1,2-2,2.1,2.1,0,0,1,2,2Z"/>
    </g>
  </g>
</svg>
