<svg xmlns="http://www.w3.org/2000/svg" width="48" height="48" viewBox="0 0 48 48">
  <title>browser-bar-chart</title>
  <g id="Layer_2" data-name="Layer 2">
    <g id="invisible_box" data-name="invisible box">
      <rect width="48" height="48" fill="none"/>
    </g>
    <g id="icons_Q2" data-name="icons Q2">
      <path d="M2,8V40a2,2,0,0,0,2,2H44a2,2,0,0,0,2-2V8a2,2,0,0,0-2-2H4A2,2,0,0,0,2,8ZM42,38H6V10H42Z"/>
      <circle cx="10" cy="14" r="2"/>
      <circle cx="16" cy="14" r="2"/>
      <circle cx="22" cy="14" r="2"/>
      <path d="M20,34H16V26a2,2,0,0,1,2-2h0a2,2,0,0,1,2,2Z"/>
      <path d="M26,34H22V22a2,2,0,0,1,2-2h0a2,2,0,0,1,2,2Z"/>
      <path d="M32,34H28V27a2,2,0,0,1,2-2h0a2,2,0,0,1,2,2Z"/>
    </g>
  </g>
</svg>
