<svg xmlns="http://www.w3.org/2000/svg" width="48" height="48" viewBox="0 0 48 48">
  <title>browser-open-in-solid</title>
  <g id="Layer_2" data-name="Layer 2">
    <g id="invisible_box" data-name="invisible box">
      <rect width="48" height="48" fill="none"/>
    </g>
    <g id="icons_Q2" data-name="icons Q2">
      <path d="M44,6H4A2,2,0,0,0,2,8V40a2,2,0,0,0,2,2H22V26.8l-3.6,3.6a2,2,0,0,1-3.1-.2,2.1,2.1,0,0,1,.4-2.7l6.9-6.9a1.9,1.9,0,0,1,2.8,0l6.9,6.9a2.1,2.1,0,0,1,.4,2.7,2,2,0,0,1-3.1.2L26,26.8V42H44a2,2,0,0,0,2-2V8A2,2,0,0,0,44,6ZM10,16a2,2,0,1,1,2-2A2,2,0,0,1,10,16Zm6,0a2,2,0,1,1,2-2A2,2,0,0,1,16,16Zm6,0a2,2,0,1,1,2-2A2,2,0,0,1,22,16Z"/>
    </g>
  </g>
</svg>
