<svg xmlns="http://www.w3.org/2000/svg" width="48" height="48" viewBox="0 0 48 48">
  <title>browser-code-solid</title>
  <g id="Layer_2" data-name="Layer 2">
    <g id="invisible_box" data-name="invisible box">
      <rect width="48" height="48" fill="none"/>
    </g>
    <g id="icons_Q2" data-name="icons Q2">
      <path d="M44,6H4A2,2,0,0,0,2,8V40a2,2,0,0,0,2,2H44a2,2,0,0,0,2-2V8A2,2,0,0,0,44,6ZM16,12a2,2,0,1,1-2,2A2,2,0,0,1,16,12ZM8,14a2,2,0,1,1,2,2A2,2,0,0,1,8,14ZM21.3,28.5l-7,6A1.9,1.9,0,0,1,13,35a2,2,0,0,1-1.3-3.5L17,27l-5.3-4.5a2,2,0,0,1,2.6-3l7,6a2,2,0,0,1,0,3ZM22,16a2,2,0,1,1,2-2A2,2,0,0,1,22,16ZM35,33H26a2,2,0,0,1,0-4h9a2,2,0,0,1,0,4Z"/>
    </g>
  </g>
</svg>
