<svg xmlns="http://www.w3.org/2000/svg" width="48" height="48" viewBox="0 0 48 48">
  <title>browser-cost</title>
  <g id="Layer_2" data-name="Layer 2">
    <g id="invisible_box" data-name="invisible box">
      <rect width="48" height="48" fill="none"/>
    </g>
    <g id="icons_Q2" data-name="icons Q2">
      <path d="M24.8,29c-3.5-.7-3.5-1.3-3.5-1.8a1,1,0,0,1,.5-.9,3,3,0,0,1,1.8-.4,5.9,5.9,0,0,1,3.2.9,1.8,1.8,0,0,0,2.7-.5,1.9,1.9,0,0,0-.4-2.8A9.1,9.1,0,0,0,26,22.3V20a2,2,0,0,0-4,0v2.2c-2.9.5-4.9,2.5-4.9,5.2s3.2,4.9,6.4,5.5,3.3,1.3,3.3,1.8-1,1.4-2.5,1.4h0a6.6,6.6,0,0,1-4-1.3,2.1,2.1,0,0,0-2.9.6,1.9,1.9,0,0,0,.4,2.6A11.2,11.2,0,0,0,22,39.8V42a2,2,0,0,0,4,0V39.8a5.9,5.9,0,0,0,3-1.3,4.9,4.9,0,0,0,2-4h0C31,30.8,27.7,29.6,24.8,29Z"/>
      <path d="M44,6H4A2,2,0,0,0,2,8V40a2,2,0,0,0,2,2h8a2,2,0,0,0,2-2.3A2.1,2.1,0,0,0,11.9,38H6V10H42V38H36a2,2,0,0,0-2,2.3A2.1,2.1,0,0,0,36.1,42H44a2,2,0,0,0,2-2V8A2,2,0,0,0,44,6Z"/>
      <circle cx="10" cy="14" r="2"/>
      <circle cx="16" cy="14" r="2"/>
      <circle cx="22" cy="14" r="2"/>
    </g>
  </g>
</svg>
