<svg xmlns="http://www.w3.org/2000/svg" width="48" height="48" viewBox="0 0 48 48">
  <title>browser-code</title>
  <g id="Layer_2" data-name="Layer 2">
    <g id="invisible_box" data-name="invisible box">
      <rect width="48" height="48" fill="none"/>
    </g>
    <g id="icons_Q2" data-name="icons Q2">
      <circle cx="10" cy="14" r="2"/>
      <circle cx="16" cy="14" r="2"/>
      <circle cx="22" cy="14" r="2"/>
      <path d="M13,35a2,2,0,0,1-1.3-3.5L17,27l-5.3-4.5a2,2,0,0,1,2.6-3l7,6a2,2,0,0,1,0,3l-7,6A1.9,1.9,0,0,1,13,35Z"/>
      <path d="M36,33H26a2,2,0,0,1,0-4H36a2,2,0,0,1,0,4Z"/>
      <path d="M44,6H4A2,2,0,0,0,2,8V40a2,2,0,0,0,2,2H4a2.1,2.1,0,0,0,2-2.3V10H42V38H16a2,2,0,0,0-2,2.3A2.1,2.1,0,0,0,16.1,42H44a2,2,0,0,0,2-2V8A2,2,0,0,0,44,6Z"/>
    </g>
  </g>
</svg>
