<svg xmlns="http://www.w3.org/2000/svg" width="48" height="48" viewBox="0 0 48 48">
  <title>bug</title>
  <g id="Layer_2" data-name="Layer 2">
    <g id="invisible_box" data-name="invisible box">
      <rect width="48" height="48" fill="none"/>
    </g>
    <g id="icons_Q2" data-name="icons Q2">
      <path d="M42,32a2,2,0,0,0,0-4H35.9a15.7,15.7,0,0,0-.4-2.3A10,10,0,0,0,43,16a2,2,0,0,0-4,0,6.1,6.1,0,0,1-4.6,5.9,15.5,15.5,0,0,0-3.1-4.6A7.2,7.2,0,0,0,32,14a8.7,8.7,0,0,0-1-3.9h0a4,4,0,0,1,4-4,2,2,0,0,0,0-4,8.1,8.1,0,0,0-7.4,4.9,7.7,7.7,0,0,0-7.2,0A8.1,8.1,0,0,0,13,2a2,2,0,0,0,0,4,4,4,0,0,1,4,4h0A8.7,8.7,0,0,0,16,14a7.5,7.5,0,0,0,.7,3.3,16.1,16.1,0,0,0-3,4.5A5.9,5.9,0,0,1,9,16a2,2,0,0,0-4,0,10.2,10.2,0,0,0,7.5,9.7,15.7,15.7,0,0,0-.4,2.3H6a2,2,0,0,0,0,4h6.1a15.7,15.7,0,0,0,.4,2.3A10.2,10.2,0,0,0,5,44a2,2,0,0,0,4,0,6.1,6.1,0,0,1,4.7-5.9c2,4.7,5.9,7.9,10.3,7.9s8.3-3.2,10.4-7.9A6,6,0,0,1,39,44a2,2,0,0,0,4,0,10.2,10.2,0,0,0-7.5-9.7,15.7,15.7,0,0,0,.4-2.3ZM24,10a4,4,0,0,1,4,4,2.8,2.8,0,0,1-.1.9,8.9,8.9,0,0,0-7.8,0A2.8,2.8,0,0,1,20,14,4,4,0,0,1,24,10ZM16,30c0-5.6,2.6-10.3,6-11.6V41.6C18.6,40.3,16,35.6,16,30ZM26,41.6V18.4c3.4,1.3,6,6,6,11.6S29.4,40.3,26,41.6Z"/>
    </g>
  </g>
</svg>
