<svg xmlns="http://www.w3.org/2000/svg" width="48" height="48" viewBox="0 0 48 48">
  <title>calculator-solid</title>
  <g id="Layer_2" data-name="Layer 2">
    <g id="invisible_box" data-name="invisible box">
      <rect width="48" height="48" fill="none"/>
    </g>
    <g id="icons_Q2" data-name="icons Q2">
      <g>
        <path d="M42,25.5H27.5a2,2,0,0,0-2,2V42a2,2,0,0,0,2,2H42a2,2,0,0,0,2-2V27.5A2,2,0,0,0,42,25.5ZM40,39H30V36H40Zm0-5H30V31H40Z"/>
        <path d="M20.5,4H6A2,2,0,0,0,4,6V20.5a2,2,0,0,0,2,2H20.5a2,2,0,0,0,2-2V6A2,2,0,0,0,20.5,4ZM18,14.5H14.5V18h-3V14.5H8v-3h3.5V8h3v3.5H18Z"/>
        <path d="M20.5,25.5H6a2,2,0,0,0-2,2V42a2,2,0,0,0,2,2H20.5a2,2,0,0,0,2-2V27.5A2,2,0,0,0,20.5,25.5Zm-2.9,12-2.1,2.1L13,37.1l-2.5,2.5L8.4,37.5,10.9,35,8.4,32.5l2.1-2.1L13,32.9l2.5-2.5,2.1,2.1L15.1,35Z"/>
        <path d="M42,4H27.5a2,2,0,0,0-2,2V20.5a2,2,0,0,0,2,2H42a2,2,0,0,0,2-2V6A2,2,0,0,0,42,4ZM40,14.5H30v-3H40Z"/>
      </g>
    </g>
  </g>
</svg>
