<svg xmlns="http://www.w3.org/2000/svg" width="48" height="48" viewBox="0 0 48 48">
  <title>calendar-date-range-solid</title>
  <g id="Layer_2" data-name="Layer 2">
    <g id="invisible_box" data-name="invisible box">
      <rect width="48" height="48" fill="none"/>
    </g>
    <g id="icons_Q2" data-name="icons Q2">
      <path d="M2,20V42a2,2,0,0,0,2,2H44a2,2,0,0,0,2-2V20ZM16,30a2,2,0,0,1-2,2H10a2,2,0,0,1-2-2V26a2,2,0,0,1,2-2h4a2,2,0,0,1,2,2Zm12,0a2,2,0,0,1-2,2H22a2,2,0,0,1-2-2V26a2,2,0,0,1,2-2h4a2,2,0,0,1,2,2Zm12,0a2,2,0,0,1-2,2H34a2,2,0,0,1-2-2V26a2,2,0,0,1,2-2h4a2,2,0,0,1,2,2ZM44,8H35V4.1A2.1,2.1,0,0,0,33.3,2,2,2,0,0,0,31,4V8H17V4.1A2.1,2.1,0,0,0,15.3,2,2,2,0,0,0,13,4V8H4a2,2,0,0,0-2,2v6H46V10A2,2,0,0,0,44,8Z"/>
    </g>
  </g>
</svg>
