<svg xmlns="http://www.w3.org/2000/svg" width="48" height="48" viewBox="0 0 48 48">
  <title>calendar-event-available-solid</title>
  <g id="Layer_2" data-name="Layer 2">
    <g id="invisible_box" data-name="invisible box">
      <rect width="48" height="48" fill="none"/>
    </g>
    <g id="icons_Q2" data-name="icons Q2">
      <path d="M44,8H35V4.1A2.1,2.1,0,0,0,33.3,2,2,2,0,0,0,31,4V8H17V4.1A2.1,2.1,0,0,0,15.3,2,2,2,0,0,0,13,4V8H4a2,2,0,0,0-2,2v6H46V10A2,2,0,0,0,44,8ZM2,20V42a2,2,0,0,0,2,2H44a2,2,0,0,0,2-2V20Zm30.4,6.4-10,10a1.9,1.9,0,0,1-2.8,0l-4.9-4.9a2.2,2.2,0,0,1-.4-2.7,2,2,0,0,1,3.1-.2L21,32.2l8.6-8.6a2,2,0,0,1,2.8,2.8Z"/>
    </g>
  </g>
</svg>
