<svg xmlns="http://www.w3.org/2000/svg" width="48" height="48" viewBox="0 0 48 48">
  <title>calendar-event-activity-solid</title>
  <g id="Layer_2" data-name="Layer 2">
    <g id="icons_Q2" data-name="icons Q2">
      <rect width="48" height="48" fill="none"/>
      <path d="M44,4H4A2,2,0,0,0,2,6v4H46V6A2,2,0,0,0,44,4ZM2,14V42a2,2,0,0,0,2,2H44a2,2,0,0,0,2-2V14ZM12,37a2,2,0,1,1,2-2A2,2,0,0,1,12,37Zm0-7a2,2,0,1,1,2-2A2,2,0,0,1,12,30Zm0-7a2,2,0,1,1,2-2A2,2,0,0,1,12,23ZM36,37H20a2,2,0,0,1,0-4H36a2,2,0,0,1,0,4Zm0-7H20a2,2,0,0,1,0-4H36a2,2,0,0,1,0,4Zm0-7H20a2,2,0,0,1,0-4H36a2,2,0,0,1,0,4Z"/>
    </g>
  </g>
</svg>
