<svg xmlns="http://www.w3.org/2000/svg" width="48" height="48" viewBox="0 0 48 48">
  <title>calendar-event-available</title>
  <g id="Layer_2" data-name="Layer 2">
    <g id="invisible_box" data-name="invisible box">
      <rect width="48" height="48" fill="none"/>
    </g>
    <g id="icons_Q2" data-name="icons Q2">
      <path d="M32.4,23.6a1.9,1.9,0,0,0-2.8,0L21,32.2l-3.6-3.6a2,2,0,0,0-3.1.2,2.2,2.2,0,0,0,.4,2.7l4.9,4.9a1.9,1.9,0,0,0,2.8,0l10-10A1.9,1.9,0,0,0,32.4,23.6Zm0,0a1.9,1.9,0,0,0-2.8,0L21,32.2l-3.6-3.6a2,2,0,0,0-3.1.2,2.2,2.2,0,0,0,.4,2.7l4.9,4.9a1.9,1.9,0,0,0,2.8,0l10-10A1.9,1.9,0,0,0,32.4,23.6Z"/>
      <path d="M44,8H35V4.1A2.1,2.1,0,0,0,33.3,2,2,2,0,0,0,31,4V8H17V4.1A2.1,2.1,0,0,0,15.3,2,2,2,0,0,0,13,4V8H4a2,2,0,0,0-2,2V42a2,2,0,0,0,2,2H44a2,2,0,0,0,2-2V10A2,2,0,0,0,44,8ZM42,40H6V20H42Zm0-24H6V12H42Z"/>
    </g>
  </g>
</svg>
