<svg xmlns="http://www.w3.org/2000/svg" width="48" height="48" viewBox="0 0 48 48">
  <title>calendar-event-busy-solid</title>
  <g id="Layer_2" data-name="Layer 2">
    <g id="invisible_box" data-name="invisible box">
      <rect width="48" height="48" fill="none"/>
    </g>
    <g id="icons_Q2" data-name="icons Q2">
      <path d="M44,8H35V4.1A2.1,2.1,0,0,0,33.3,2,2,2,0,0,0,31,4V8H17V4.1A2.1,2.1,0,0,0,15.3,2,2,2,0,0,0,13,4V8H4a2,2,0,0,0-2,2v6H46V10A2,2,0,0,0,44,8ZM2,20V42a2,2,0,0,0,2,2H44a2,2,0,0,0,2-2V20ZM30.4,33.6a1.9,1.9,0,0,1,0,2.8,1.9,1.9,0,0,1-2.8,0L24,32.8l-3.6,3.6a1.9,1.9,0,0,1-2.8,0,1.9,1.9,0,0,1,0-2.8L21.2,30l-3.6-3.6a2,2,0,0,1,2.8-2.8L24,27.2l3.6-3.6a2,2,0,0,1,2.8,2.8L26.8,30Z"/>
    </g>
  </g>
</svg>
