<svg xmlns="http://www.w3.org/2000/svg" width="48" height="48" viewBox="0 0 48 48">
  <title>calypso</title>
  <g id="Layer_2" data-name="Layer 2">
    <g id="invisible_box" data-name="invisible box">
      <rect width="48" height="48" fill="none"/>
    </g>
    <g id="Q3_icons" data-name="Q3 icons">
      <path d="M24,2A22,22,0,1,0,46,24,21.9,21.9,0,0,0,24,2ZM13.1,35.4A16.2,16.2,0,1,1,36,12.6a.8.8,0,0,1,.4.4l.9.9a5.5,5.5,0,0,1-1.5,7.6,5.6,5.6,0,0,1-2.8,1h-.6a6,6,0,0,1-3.6-1.6h-.1a.8.8,0,0,0-.4-.4h0a5.2,5.2,0,0,0-4-1.5h-.1A11.4,11.4,0,0,0,12.7,30.3v1a.4.4,0,0,0,.1.3v.7a.4.4,0,0,1,.1.3c.1.2.1.4.2.6s0,.3.1.4a1.4,1.4,0,0,0,.2.6.4.4,0,0,0,.1.3l.3.8a.1.1,0,0,0,.1.1l.4.9a.1.1,0,0,1,.1.1l.4.5A8,8,0,0,1,13.1,35.4Zm24.3-1.5-1.1,1.3H36a15.8,15.8,0,0,1-13,4.7,9.8,9.8,0,0,1-8.7-9.8V29.1a1.3,1.3,0,0,0,.1-.6.3.3,0,0,1,.1-.2,1.9,1.9,0,0,1,.2-.8h0a3.1,3.1,0,0,1,.2-.8c.1,0,.1-.1.1-.2l.3-.6v-.2l.4-.6h.1l.4-.7.2-.2.4-.4.2-.2c.2-.2.3-.4.5-.5h.1l.6-.5h.2l.6-.4h.2l.6-.4h.2a5.1,5.1,0,0,0,1.7,7.2,5.2,5.2,0,0,0,6.5-.8l.2-.2h.1l.2-.3A5.5,5.5,0,0,1,37.3,34Z"/>
    </g>
  </g>
</svg>
