<svg xmlns="http://www.w3.org/2000/svg" width="48" height="48" viewBox="0 0 48 48">
  <g id="Layer_2" data-name="Layer 2">
    <g id="invisible_box" data-name="invisible box">
      <rect width="48" height="48" fill="none"/>
    </g>
    <g id="Layer_7" data-name="Layer 7">
      <path d="M43,8H5a2.9,2.9,0,0,0-3,3V37a3,3,0,0,0,3,3H43a3,3,0,0,0,3-3V11A2.9,2.9,0,0,0,43,8ZM29,32.5a8.8,8.8,0,0,1-5-1.6,8.5,8.5,0,1,1,0-13.8,8.8,8.8,0,0,1,5-1.6,8.5,8.5,0,0,1,0,17Zm0-14a6,6,0,0,0-2.9.8,8.6,8.6,0,0,1,0,9.4,6,6,0,0,0,2.9.8,5.5,5.5,0,0,0,0-11Zm-10,0A5.5,5.5,0,1,0,24.5,24,5.5,5.5,0,0,0,19,18.5Z"/>
    </g>
  </g>
</svg>
