<svg xmlns="http://www.w3.org/2000/svg" width="48" height="48" viewBox="0 0 48 48">
  <g id="Layer_2" data-name="Layer 2">
    <g id="invisible_box" data-name="invisible box">
      <rect width="48" height="48" fill="none"/>
    </g>
    <g id="Icons">
      <g>
        <path d="M43,8H5a2.9,2.9,0,0,0-3,3V37a2.9,2.9,0,0,0,3,3H43a2.9,2.9,0,0,0,3-3V11A2.9,2.9,0,0,0,43,8ZM42,36H6V12H42Z"/>
        <path d="M8.1,26.4,7.8,26C7.8,26.2,7.9,26.4,8.1,26.4Z"/>
        <path d="M39.5,19.1l.3.4C39.9,19.3,39.7,19.1,39.5,19.1Z"/>
        <polygon points="39.8 19.5 39.8 19.5 39.8 19.5 39.8 19.5"/>
        <path d="M28,27.7a2.4,2.4,0,0,0,2.1-1.2h0v1.1h1.2V23.1c0-1.3-.9-2.1-2.5-2.1s-2.6.8-2.7,2h1.3c.1-.6.6-.9,1.3-.9s1.3.4,1.3,1.1v.5H28.3c-1.6.1-2.4.8-2.4,1.9h0A2,2,0,0,0,28,27.7Zm.5-3H30v.6a1.5,1.5,0,0,1-1.6,1.4c-.7,0-1.2-.3-1.2-.9S27.7,24.8,28.5,24.7Z"/>
        <path d="M15.3,19.5a2.5,2.5,0,0,0,.5-1.5,1.9,1.9,0,0,0-1.4.7,2.1,2.1,0,0,0-.5,1.5,1.4,1.4,0,0,0,1.4-.7Z"/>
        <path d="M12.5,27.7c.6-.1.8-.4,1.6-.4s.9.4,1.6.3,1-.5,1.4-1.1a5.1,5.1,0,0,0,.7-1.4,2.2,2.2,0,0,1-1.3-2,2.2,2.2,0,0,1,1-1.8,2.6,2.6,0,0,0-1.7-1h0c-.8,0-1.5.5-1.9.5s-.9-.4-1.5-.4a2.2,2.2,0,0,0-2,1.2c-.8,1.5-.2,3.6.6,4.8S11.9,27.7,12.5,27.7Z"/>
        <path d="M34.1,28c-.2.7-.5.9-1.1.9h-.5V30h.6c1.3,0,1.9-.5,2.5-2.1L38,21.1H36.6L35,26.4h0l-1.7-5.3H31.9l2.3,6.5Z"/>
        <path d="M20.7,24.5h1.9a2.8,2.8,0,0,0,2.9-2.9,2.8,2.8,0,0,0-2.9-2.9H19.3v8.9h1.4Zm0-1.1V19.8h1.6a1.6,1.6,0,0,1,1.8,1.8,1.6,1.6,0,0,1-1.8,1.8Z"/>
      </g>
    </g>
  </g>
</svg>
