<svg xmlns="http://www.w3.org/2000/svg" width="48" height="48" viewBox="0 0 48 48">
  <g id="Layer_2" data-name="Layer 2">
    <g id="invisible_box" data-name="invisible box">
      <rect width="48" height="48" fill="none"/>
    </g>
    <g id="Layer_7" data-name="Layer 7">
      <g>
        <path d="M22.3,19.8H20.7v3.6h1.6a1.6,1.6,0,0,0,1.8-1.8A1.6,1.6,0,0,0,22.3,19.8Zm0,0H20.7v3.6h1.6a1.6,1.6,0,0,0,1.8-1.8A1.6,1.6,0,0,0,22.3,19.8Zm0,0H20.7v3.6h1.6a1.6,1.6,0,0,0,1.8-1.8A1.6,1.6,0,0,0,22.3,19.8Zm6.2,4.9c-.8.1-1.3.4-1.3,1s.5.9,1.2.9A1.5,1.5,0,0,0,30,25.1v-.5Zm0,0c-.8.1-1.3.4-1.3,1s.5.9,1.2.9A1.5,1.5,0,0,0,30,25.1v-.5Zm-6.2-4.9H20.7v3.6h1.6a1.6,1.6,0,0,0,1.8-1.8A1.6,1.6,0,0,0,22.3,19.8ZM43,8H5a2.9,2.9,0,0,0-3,3V37a3,3,0,0,0,3,3H43a3,3,0,0,0,3-3V11A2.9,2.9,0,0,0,43,8ZM14.4,18.7a1.9,1.9,0,0,1,1.4-.7,3,3,0,0,1-.5,1.6,1.8,1.8,0,0,1-1.4.6A2.1,2.1,0,0,1,14.4,18.7Zm2.7,7.8c-.4.6-.8,1.1-1.4,1.1s-.9-.3-1.6-.3-1,.3-1.6.4S11.4,27,11,26.4s-1.4-3.3-.6-4.8a2.2,2.2,0,0,1,2-1.2c.6,0,1.2.4,1.6.4s.9-.5,1.7-.5h.1a2.2,2.2,0,0,1,1.7,1,2.2,2.2,0,0,0-1,1.8,2.2,2.2,0,0,0,1.3,2A5.1,5.1,0,0,1,17.1,26.5Zm5.5-2H20.7v3.1H19.3V18.7h3.3a2.8,2.8,0,0,1,2.9,2.9A2.8,2.8,0,0,1,22.6,24.5Zm8.7,3.1H30.1V26.5H30a2.2,2.2,0,0,1-2,1.2,2,2,0,0,1-1.5-.6,1.7,1.7,0,0,1-.6-1.4c0-1.1.9-1.8,2.4-1.9H30v-.5a1.1,1.1,0,0,0-1.2-1.1c-.8,0-1.3.3-1.4.9H26.1c.1-1.2,1.1-2,2.7-2s2.5.8,2.5,2.1Zm4.3.3C35,29.5,34.4,30,33.1,30h-.6V28.9H33c.6,0,.9-.2,1.1-.9v-.4l-2.3-6.5h1.4L35,26.4h0l1.6-5.3H38Zm-8.4-2.2c0,.6.5.9,1.2.9A1.5,1.5,0,0,0,30,25.1v-.5H28.5C27.7,24.8,27.2,25.1,27.2,25.7Zm-4.9-5.9H20.7v3.6h1.6a1.6,1.6,0,0,0,1.8-1.8A1.6,1.6,0,0,0,22.3,19.8Zm0,0H20.7v3.6h1.6a1.6,1.6,0,0,0,1.8-1.8A1.6,1.6,0,0,0,22.3,19.8Zm6.2,4.9c-.8.1-1.3.4-1.3,1s.5.9,1.2.9A1.5,1.5,0,0,0,30,25.1v-.5Zm0,0c-.8.1-1.3.4-1.3,1s.5.9,1.2.9A1.5,1.5,0,0,0,30,25.1v-.5Zm-6.2-4.9H20.7v3.6h1.6a1.6,1.6,0,0,0,1.8-1.8A1.6,1.6,0,0,0,22.3,19.8Z"/>
        <path d="M8.1,26.4,7.8,26C7.8,26.2,7.9,26.4,8.1,26.4Z"/>
        <path d="M39.5,19.1l.3.4C39.9,19.3,39.7,19.1,39.5,19.1Z"/>
        <polygon points="39.8 19.5 39.8 19.5 39.8 19.5 39.8 19.5"/>
      </g>
    </g>
  </g>
</svg>
