<svg xmlns="http://www.w3.org/2000/svg" width="48" height="48" viewBox="0 0 48 48">
  <g id="Layer_2" data-name="Layer 2">
    <g id="invisible_box" data-name="invisible box">
      <rect width="48" height="48" fill="none"/>
    </g>
    <g id="Icons">
      <g>
        <path d="M43,8H5a2.9,2.9,0,0,0-3,3V37a2.9,2.9,0,0,0,3,3H43a2.9,2.9,0,0,0,3-3V11A2.9,2.9,0,0,0,43,8ZM42,36H6V12H42Z"/>
        <path d="M8.3,26.4h1a.4.4,0,0,0,.4-.4l.4-1.6a.4.4,0,0,1,.4-.4h.3a4.1,4.1,0,0,0,2.7-.8,2.7,2.7,0,0,0,1-2.2,2.4,2.4,0,0,0-.2-.9,1.8,1.8,0,0,0-.5-.7l-.8-.3H9.8a.4.4,0,0,0-.4.4L8,26C8,26.2,8.1,26.4,8.3,26.4Zm2.2-4.2.3-1.4c0-.3.2-.4.5-.4h.3a1.1,1.1,0,0,1,.8.2.6.6,0,0,1,.3.6,1.2,1.2,0,0,1-.5,1c-.2.3-.6.4-1.2.4h-.2C10.6,22.6,10.5,22.4,10.5,22.2Z"/>
        <path d="M17.7,22.8H16.3l-1.2.4a2.2,2.2,0,0,0-.9.7,3.7,3.7,0,0,0-.2,1.2,1.3,1.3,0,0,0,.4,1,1.5,1.5,0,0,0,1,.4H16l.4-.2.4-.2.4-.3h0V26h0c-.1.2,0,.4.2.4h.9a.4.4,0,0,0,.4-.4l.7-3.4v-.5a1.1,1.1,0,0,0-.6-1.1,3.4,3.4,0,0,0-1.7-.3H15.6a.5.5,0,0,0-.4.5l-.2.5c0,.4.2.3.2.3l.6-.2h1.8a.5.5,0,0,1,.3.5v.2Zm-.3,2V25l-.4.3H15.8l-.2-.4a1.1,1.1,0,0,1,.2-.6l.4-.3h1.4A3.7,3.7,0,0,1,17.4,24.8Z"/>
        <path d="M35.2,22.8H33.7l-1.2.4a1.9,1.9,0,0,0-.8.7,2.1,2.1,0,0,0-.3,1.2,1.3,1.3,0,0,0,.4,1,1.8,1.8,0,0,0,1,.4h.6l.5-.2.4-.2.3-.3h0V26h0c0,.2.1.4.3.4h.9c.2,0,.3-.2.4-.4l.7-3.4v-.5c0-.5-.1-.9-.5-1.1a3.7,3.7,0,0,0-1.7-.3H33c-.3.1-.4.5-.4.5v.5c-.1.4.1.3.2.3l.5-.2H35a.5.5,0,0,1,.3.5v.2Zm-.4,2V25l-.4.3h-1l-.2-.4a1.1,1.1,0,0,1,.1-.6l.4-.3H35A3.7,3.7,0,0,1,34.8,24.8Z"/>
        <path d="M25.7,26.4h1a.7.7,0,0,0,.5-.4l.3-1.6a.4.4,0,0,1,.4-.4h.3a4.7,4.7,0,0,0,2.8-.8,2.7,2.7,0,0,0,.9-2.1,3.1,3.1,0,0,0-.1-1c-.2-.3-.3-.5-.6-.6a2,2,0,0,0-.8-.4H27.3a.5.5,0,0,0-.5.4L25.4,26C25.4,26.2,25.5,26.4,25.7,26.4Zm2.2-4.2.3-1.4a.7.7,0,0,1,.5-.4H29a1.5,1.5,0,0,1,.8.2.6.6,0,0,1,.3.6,1.1,1.1,0,0,1-.4,1,1.6,1.6,0,0,1-1.2.4h-.3C28,22.6,27.9,22.4,27.9,22.2Z"/>
        <path d="M37.3,26.4h.9a.5.5,0,0,0,.5-.3h0L40,19.5h0c0-.2-.1-.4-.3-.4h-.9a.5.5,0,0,0-.4.3h0v.2l-1.2,6.1V26h0C37.1,26.2,37.2,26.4,37.3,26.4Z"/>
        <path d="M20,29h1a.8.8,0,0,0,.6-.4l3.8-7.2s.4-.7.1-.6H24.3a.7.7,0,0,0-.6.4s-1.4,2.6-1.5,2.9h-.1l-.5-2.9a.5.5,0,0,0-.5-.4h-.9c-.2,0-.3.1-.2.4s.6,4.1.7,5.1,0,.6,0,.6l-.8,1.7C19.8,28.8,19.8,29,20,29Z"/>
      </g>
    </g>
  </g>
</svg>
