<svg xmlns="http://www.w3.org/2000/svg" width="48" height="48" viewBox="0 0 48 48">
  <g id="Layer_2" data-name="Layer 2">
    <g id="invisible_box" data-name="invisible box">
      <rect width="48" height="48" fill="none"/>
    </g>
    <g id="Icons">
      <g>
        <path d="M43,8H5a2.9,2.9,0,0,0-3,3V37a2.9,2.9,0,0,0,3,3H43a2.9,2.9,0,0,0,3-3V11A2.9,2.9,0,0,0,43,8ZM42,36H6V12H42Z"/>
        <path d="M30.6,28.9H33l.3-.2c.3-.7.4-1.2.5-1.3h3.4a6.1,6.1,0,0,1,.3,1.3l.3.2h1.9c.1,0,.2,0,.2-.1a.4.4,0,0,0,.1-.3l-2.1-9.3c0-.2-.1-.3-.2-.3H35.8a1.4,1.4,0,0,0-1.4.9l-3.8,8.7C30.5,28.7,30.6,28.8,30.6,28.9ZM36,21.7l.2.9.6,2.9H34.6Z"/>
        <path d="M23.3,28.5a10,10,0,0,0,2.6.5h0c2.8,0,4.5-1.3,4.6-3.3s-.7-2-2.2-2.6-1.5-.8-1.5-1.2.5-.9,1.5-.9h.1a3.2,3.2,0,0,1,1.7.4h.3c.1,0,.1-.1.1-.2l.3-1.4a.5.5,0,0,0-.2-.4,9.5,9.5,0,0,0-2.1-.3c-2.6,0-4.4,1.3-4.4,3.2s1.3,2.2,2.3,2.6,1.3.8,1.3,1.2-.8,1-1.5,1a5.7,5.7,0,0,1-2.4-.5.2.2,0,0,0-.3,0c-.1,0-.1.1-.2.2l-.2,1.5C23.1,28.3,23.1,28.5,23.3,28.5Z"/>
        <path d="M8.2,19.6a8.8,8.8,0,0,1,4.1,2.9h.3c.2-.1.2-.2.2-.4l-.5-2.4h0a1.1,1.1,0,0,0-1.2-.8H8.3a.3.3,0,0,0-.3.3Z"/>
        <path d="M18.6,28.9H21c.1,0,.2-.1.2-.3l1.6-9.3v-.3H20.5a.3.3,0,0,0-.3.3l-1.6,9.3Z"/>
        <path d="M10.3,21.2H10c-.1,0-.2.2-.2.3l2.1,7.3.3.2h2.5a.2.2,0,0,0,.2-.2l4-9.4c.1,0,.1-.2,0-.2s-.1-.2-.2-.2H16.5c-.2,0-.3.1-.3.2l-2.6,6.6-.3-1h0A10.2,10.2,0,0,0,10.3,21.2Z"/>
      </g>
    </g>
  </g>
</svg>
