<svg xmlns="http://www.w3.org/2000/svg" width="48" height="48" viewBox="0 0 48 48">
  <g id="Layer_2" data-name="Layer 2">
    <g id="invisible_box" data-name="invisible box">
      <rect width="48" height="48" fill="none"/>
    </g>
    <g id="Layer_7" data-name="Layer 7">
      <path d="M12.4,20.6a1.1,1.1,0,0,0-.8-.2h-.4a.4.4,0,0,0-.4.4l-.3,1.4c0,.2.1.4.3.4H11a1.5,1.5,0,0,0,1.2-.4,1.2,1.2,0,0,0,.5-1A.6.6,0,0,0,12.4,20.6Zm0,0a1.1,1.1,0,0,0-.8-.2h-.4a.4.4,0,0,0-.4.4l-.3,1.4c0,.2.1.4.3.4H11a1.5,1.5,0,0,0,1.2-.4,1.2,1.2,0,0,0,.5-1A.6.6,0,0,0,12.4,20.6Zm0,0a1.1,1.1,0,0,0-.8-.2h-.4a.4.4,0,0,0-.4.4l-.3,1.4c0,.2.1.4.3.4H11a1.5,1.5,0,0,0,1.2-.4,1.2,1.2,0,0,0,.5-1A.6.6,0,0,0,12.4,20.6Zm5.1,3.2H16.2l-.4.3a1.1,1.1,0,0,0-.2.6l.2.4h1.1l.3-.3.2-.2a3.7,3.7,0,0,0,.2-.9Zm0,0H16.2l-.4.3a1.1,1.1,0,0,0-.2.6l.2.4h1.1l.3-.3.2-.2a3.7,3.7,0,0,0,.2-.9Zm-5.1-3.2a1.1,1.1,0,0,0-.8-.2h-.4a.4.4,0,0,0-.4.4l-.3,1.4c0,.2.1.4.3.4H11a1.5,1.5,0,0,0,1.2-.4,1.2,1.2,0,0,0,.5-1A.6.6,0,0,0,12.4,20.6Zm0,0a1.1,1.1,0,0,0-.8-.2h-.4a.4.4,0,0,0-.4.4l-.3,1.4c0,.2.1.4.3.4H11a1.5,1.5,0,0,0,1.2-.4,1.2,1.2,0,0,0,.5-1A.6.6,0,0,0,12.4,20.6Zm5.1,3.2H16.2l-.4.3a1.1,1.1,0,0,0-.2.6l.2.4h1.1l.3-.3.2-.2a3.7,3.7,0,0,0,.2-.9Zm12.3-3.2a1.3,1.3,0,0,0-.8-.2h-.3a.7.7,0,0,0-.5.4l-.3,1.4c0,.2.1.4.3.4h.3a1.6,1.6,0,0,0,1.2-.4,1.1,1.1,0,0,0,.4-1A.6.6,0,0,0,29.8,20.6ZM35,23.8H33.6l-.4.3a1.1,1.1,0,0,0-.1.6l.2.4h1l.4-.2v-.3a3.7,3.7,0,0,0,.2-.9Zm0,0H33.6l-.4.3a1.1,1.1,0,0,0-.1.6l.2.4h1l.4-.2v-.3a3.7,3.7,0,0,0,.2-.9Zm-5.2-3.2a1.3,1.3,0,0,0-.8-.2h-.3a.7.7,0,0,0-.5.4l-.3,1.4c0,.2.1.4.3.4h.3a1.6,1.6,0,0,0,1.2-.4,1.1,1.1,0,0,0,.4-1A.6.6,0,0,0,29.8,20.6ZM17.5,23.8H16.2l-.4.3a1.1,1.1,0,0,0-.2.6l.2.4h1.1l.3-.3.2-.2a3.7,3.7,0,0,0,.2-.9Zm-5.1-3.2a1.1,1.1,0,0,0-.8-.2h-.4a.4.4,0,0,0-.4.4l-.3,1.4c0,.2.1.4.3.4H11a1.5,1.5,0,0,0,1.2-.4,1.2,1.2,0,0,0,.5-1A.6.6,0,0,0,12.4,20.6ZM43,8H5a2.9,2.9,0,0,0-3,3V37a3,3,0,0,0,3,3H43a3,3,0,0,0,3-3V11A2.9,2.9,0,0,0,43,8ZM10.8,24h-.3a.7.7,0,0,0-.5.4L9.7,26a.4.4,0,0,1-.4.4h-1c-.2,0-.3-.2-.3-.4l1.4-6.6a.4.4,0,0,1,.4-.4H13l.8.3a1.8,1.8,0,0,1,.5.7,1.3,1.3,0,0,1,.2.9,2.7,2.7,0,0,1-1,2.2A4.1,4.1,0,0,1,10.8,24Zm8.7-1.7v.3L18.7,26a.4.4,0,0,1-.4.4h-.9c-.1,0-.2-.2-.2-.3h0v-.2h0l-.4.3-.4.2-.4.2h-.6a1.5,1.5,0,0,1-1-.4,1.3,1.3,0,0,1-.4-1,3.7,3.7,0,0,1,.2-1.2,2.2,2.2,0,0,1,.9-.7l1.2-.4h1.5v-.2a.5.5,0,0,0-.3-.5H15.8l-.6.2s-.2,0-.2-.3l.2-.5a.5.5,0,0,1,.4-.5h1.6A4.2,4.2,0,0,1,19,21a1.3,1.3,0,0,1,.5,1.1ZM21,29H20c-.2,0-.2-.2-.1-.4l.8-1.7s.1-.1,0-.6-.7-5.1-.7-5.1,0-.4.2-.4h.9c.3,0,.5.1.5.4l.4,2.9h.2c.1-.3,1.5-2.9,1.5-2.9a.6.6,0,0,1,.6-.4h1.2c.3-.1,0,.6,0,.6l-3.9,7.2A.8.8,0,0,1,21,29Zm7.2-5H28a.5.5,0,0,0-.5.4L27.2,26a.7.7,0,0,1-.5.4h-1c-.2,0-.3-.2-.2-.4l1.3-6.6a.5.5,0,0,1,.5-.4h3.1a2,2,0,0,1,.8.4c.3.1.4.3.6.6a2.8,2.8,0,0,1,.1,1,2.9,2.9,0,0,1-.9,2.1A4.7,4.7,0,0,1,28.2,24Zm8.7-1.7v.3L36.2,26c-.1.2-.2.4-.4.4h-.9a.3.3,0,0,1-.3-.3h0v-.2h0l-.3.3-.4.2-.5.2h-.6a1.8,1.8,0,0,1-1-.4,1.3,1.3,0,0,1-.4-1,2.1,2.1,0,0,1,.3-1.2,2.7,2.7,0,0,1,.8-.7l1.2-.4h1.6v-.2A.5.5,0,0,0,35,22H33.2l-.5.2c-.1,0-.3.1-.2-.3v-.5s.1-.4.4-.5h1.7a3.7,3.7,0,0,1,1.7.3c.4.2.5.6.5,1.1ZM40,19.5,38.7,26h0a.5.5,0,0,1-.5.3h-.9l-.2-.3h0v-.2l1.2-6.1v-.2h0a.5.5,0,0,1,.4-.3h.9a.3.3,0,0,1,.3.3Zm-5.7,4.4h-.7l-.4.3a1.1,1.1,0,0,0-.1.6l.2.4h1l.4-.2v-.3a3.7,3.7,0,0,0,.2-.9h-.7ZM29,20.4h-.3a.7.7,0,0,0-.5.4l-.3,1.4c0,.2.1.4.3.4h.3a1.6,1.6,0,0,0,1.2-.4,1.1,1.1,0,0,0,.4-1,.6.6,0,0,0-.3-.6A1.3,1.3,0,0,0,29,20.4ZM16.8,23.9h-.6l-.4.3a1.1,1.1,0,0,0-.2.6l.2.4h1.1l.3-.3.2-.2a3.7,3.7,0,0,0,.2-.9h-.8Zm-5.2-3.5h-.4a.4.4,0,0,0-.4.4l-.3,1.4c0,.2.1.4.3.4H11a1.5,1.5,0,0,0,1.2-.4,1.2,1.2,0,0,0,.5-1,.6.6,0,0,0-.3-.6A1.1,1.1,0,0,0,11.6,20.4Zm.8.2a1.1,1.1,0,0,0-.8-.2h-.4a.4.4,0,0,0-.4.4l-.3,1.4c0,.2.1.4.3.4H11a1.5,1.5,0,0,0,1.2-.4,1.2,1.2,0,0,0,.5-1A.6.6,0,0,0,12.4,20.6Zm5.1,3.2H16.2l-.4.3a1.1,1.1,0,0,0-.2.6l.2.4h1.1l.3-.3.2-.2a3.7,3.7,0,0,0,.2-.9Zm12.3-3.2a1.3,1.3,0,0,0-.8-.2h-.3a.7.7,0,0,0-.5.4l-.3,1.4c0,.2.1.4.3.4h.3a1.6,1.6,0,0,0,1.2-.4,1.1,1.1,0,0,0,.4-1A.6.6,0,0,0,29.8,20.6Zm0,0a1.3,1.3,0,0,0-.8-.2h-.3a.7.7,0,0,0-.5.4l-.3,1.4c0,.2.1.4.3.4h.3a1.6,1.6,0,0,0,1.2-.4,1.1,1.1,0,0,0,.4-1A.6.6,0,0,0,29.8,20.6ZM17.5,23.8H16.2l-.4.3a1.1,1.1,0,0,0-.2.6l.2.4h1.1l.3-.3.2-.2a3.7,3.7,0,0,0,.2-.9Zm-5.1-3.2a1.1,1.1,0,0,0-.8-.2h-.4a.4.4,0,0,0-.4.4l-.3,1.4c0,.2.1.4.3.4H11a1.5,1.5,0,0,0,1.2-.4,1.2,1.2,0,0,0,.5-1A.6.6,0,0,0,12.4,20.6Zm0,0a1.1,1.1,0,0,0-.8-.2h-.4a.4.4,0,0,0-.4.4l-.3,1.4c0,.2.1.4.3.4H11a1.5,1.5,0,0,0,1.2-.4,1.2,1.2,0,0,0,.5-1A.6.6,0,0,0,12.4,20.6Zm5.1,3.2H16.2l-.4.3a1.1,1.1,0,0,0-.2.6l.2.4h1.1l.3-.3.2-.2a3.7,3.7,0,0,0,.2-.9Zm0,0H16.2l-.4.3a1.1,1.1,0,0,0-.2.6l.2.4h1.1l.3-.3.2-.2a3.7,3.7,0,0,0,.2-.9Zm-5.1-3.2a1.1,1.1,0,0,0-.8-.2h-.4a.4.4,0,0,0-.4.4l-.3,1.4c0,.2.1.4.3.4H11a1.5,1.5,0,0,0,1.2-.4,1.2,1.2,0,0,0,.5-1A.6.6,0,0,0,12.4,20.6Z"/>
    </g>
  </g>
</svg>
