<svg xmlns="http://www.w3.org/2000/svg" width="48" height="48" viewBox="0 0 48 48">
  <g id="Layer_2" data-name="Layer 2">
    <g id="invisible_box" data-name="invisible box">
      <rect width="48" height="48" fill="none"/>
    </g>
    <g id="Layer_7" data-name="Layer 7">
      <path d="M43,8H5a2.9,2.9,0,0,0-3,3V37a3,3,0,0,0,3,3H43a3,3,0,0,0,3-3V11A2.9,2.9,0,0,0,43,8ZM8,19.2l.3-.2h2.8a1.1,1.1,0,0,1,1.2.8h0l.5,2.4c0,.2,0,.3-.2.4h-.3a8.8,8.8,0,0,0-4.1-2.9A.5.5,0,0,1,8,19.2ZM14.7,29H12.2a.2.2,0,0,1-.2-.2L9.8,21.5c0-.1,0-.3.2-.3h.3a9.4,9.4,0,0,1,3,3.6h0l.3,1,2.6-6.6c0-.1.1-.2.3-.2h2.2c.1,0,.1.1.2.2s.1.2,0,.2l-4,9.4A.2.2,0,0,1,14.7,29Zm6.5-.3c0,.2-.1.3-.2.3H18.6v-.3l1.6-9.3a.3.3,0,0,1,.3-.3h2.3v.3Zm7.1-5.6c1.5.6,2.2,1.5,2.2,2.6a2.9,2.9,0,0,1-1.3,2.4,6.2,6.2,0,0,1-3.3.9,10,10,0,0,1-2.6-.5c-.2,0-.3-.2-.2-.3l.2-1.5a.2.2,0,0,1,.2-.2h.3a4.5,4.5,0,0,0,2.4.5c.7,0,1.5-.2,1.5-.9s-.3-.7-1.3-1.2-2.3-1.2-2.3-2.6S25.9,19,28.5,19a9.5,9.5,0,0,1,2.1.3.5.5,0,0,1,.2.4l-.3,1.4c0,.1,0,.2-.1.2h-.3a3.2,3.2,0,0,0-1.7-.4h-.1c-1,0-1.5.4-1.5.9S27.4,22.6,28.3,23.1Zm11.6,5.8c0,.1-.1.1-.2.1H37.8l-.3-.2a6.1,6.1,0,0,0-.3-1.3H33.8c-.1.1-.2.6-.5,1.3s-.1.2-.3.2H30.6a.2.2,0,0,1,0-.3l3.8-8.7a1.4,1.4,0,0,1,1.4-.9h1.9c.1,0,.2.1.2.3L40,28.6A.4.4,0,0,1,39.9,28.9ZM36,21.7l-1.4,3.8h2.2l-.6-2.9Z"/>
    </g>
  </g>
</svg>
