<svg xmlns="http://www.w3.org/2000/svg" width="48" height="48" viewBox="0 0 48 48">
  <g id="Layer_2" data-name="Layer 2">
    <g id="invisible_box" data-name="invisible box">
      <rect width="48" height="48" fill="none"/>
    </g>
    <g id="Icons">
      <g>
        <path d="M43,8H5a2.9,2.9,0,0,0-3,3V37a2.9,2.9,0,0,0,3,3H43a2.9,2.9,0,0,0,3-3V11A2.9,2.9,0,0,0,43,8ZM42,36H6V12H42Z"/>
        <path d="M19,32.5a8.5,8.5,0,0,0,5-1.6,8.8,8.8,0,0,0,5,1.6,8.5,8.5,0,0,0,0-17,8.8,8.8,0,0,0-5,1.6,8.5,8.5,0,1,0-5,15.4ZM34.5,24A5.5,5.5,0,0,1,29,29.5a6,6,0,0,1-2.9-.8,8.6,8.6,0,0,0,0-9.4,6,6,0,0,1,2.9-.8A5.5,5.5,0,0,1,34.5,24ZM19,18.5A5.5,5.5,0,1,1,13.5,24,5.5,5.5,0,0,1,19,18.5Z"/>
      </g>
    </g>
  </g>
</svg>
