<svg xmlns="http://www.w3.org/2000/svg" width="48" height="48" viewBox="0 0 48 48">
  <title>cart-shopping-add-solid</title>
  <g id="Layer_2" data-name="Layer 2">
    <g id="invisible_box" data-name="invisible box">
      <rect width="48" height="48" fill="none"/>
    </g>
    <g id="icons_Q2" data-name="icons Q2">
      <path d="M44.3,10A3.3,3.3,0,0,0,42,9H29v9.2l1.6-1.6a2,2,0,0,1,3.1.2,2.2,2.2,0,0,1-.4,2.7l-4.9,4.9a1.9,1.9,0,0,1-2.8,0l-4.9-4.9a2.2,2.2,0,0,1-.4-2.7,2,2,0,0,1,3.1-.2L25,18.2V9H11.5l-.4-3.4A3,3,0,0,0,8.1,3h-3A2.1,2.1,0,0,0,3,4.7,2,2,0,0,0,5,7H7.2l3.2,26.9a5.9,5.9,0,0,0-2.8,6.3,6.1,6.1,0,0,0,4.6,4.7,6.2,6.2,0,0,0,7-3.9H29.8a6,6,0,0,0,11.6-.7A6,6,0,0,0,35.5,33a6.2,6.2,0,0,0-5.7,4H19.2a6,6,0,0,0-4.9-3.9L14.1,31H39.4a3,3,0,0,0,2.9-2.6L45,12.6A3.6,3.6,0,0,0,44.3,10ZM35.5,37a2,2,0,1,1-2,2A2,2,0,0,1,35.5,37Zm-20,2a2,2,0,1,1-2-2A2,2,0,0,1,15.5,39Z"/>
    </g>
  </g>
</svg>
