<svg xmlns="http://www.w3.org/2000/svg" width="48" height="48" viewBox="0 0 48 48">
  <title>cart-shopping</title>
  <g id="Layer_2" data-name="Layer 2">
    <g id="invisible_box" data-name="invisible box">
      <rect width="48" height="48" fill="none"/>
    </g>
    <g id="icons_Q2" data-name="icons Q2">
      <path d="M44.3,10A3.3,3.3,0,0,0,42,9H11.5l-.4-3.4A3,3,0,0,0,8.1,3H5A2,2,0,0,0,5,7H7.2l3.2,26.9A5.9,5.9,0,0,0,7.5,39a6,6,0,0,0,6,6,6.2,6.2,0,0,0,5.7-4H29.8a6.2,6.2,0,0,0,5.7,4,6,6,0,0,0,0-12,6.2,6.2,0,0,0-5.7,4H19.2a6,6,0,0,0-4.9-3.9L14.1,31H39.4a3,3,0,0,0,2.9-2.6L45,12.6A3.6,3.6,0,0,0,44.3,10ZM37.5,39a2,2,0,1,1-2-2A2,2,0,0,1,37.5,39Zm-22,0a2,2,0,1,1-2-2A2,2,0,0,1,15.5,39Zm23-12H13.6L12,13H40.8Z"/>
    </g>
  </g>
</svg>
