<svg xmlns="http://www.w3.org/2000/svg" width="48" height="48" viewBox="0 0 48 48">
  <g id="Layer_2" data-name="Layer 2">
    <g id="invisible_box" data-name="invisible box">
      <rect width="48" height="48" fill="none"/>
    </g>
    <g id="Icons">
      <g>
        <path d="M42.2,31.7a4.6,4.6,0,0,0-4-1.1l-9.9,1.7A4.7,4.7,0,0,0,26.9,29l-7.1-7H5a2,2,0,0,0,0,4H18.2l5.9,5.9a.8.8,0,0,1,0,1.1.9.9,0,0,1-1.2,0l-3.5-3.5a2.1,2.1,0,0,0-2.8,0,2.1,2.1,0,0,0,0,2.9l3.5,3.4a4.5,4.5,0,0,0,3.4,1.4,5.7,5.7,0,0,0,1.8-.3h0l13.6-2.4a1,1,0,0,1,.8.2,1.1,1.1,0,0,1,.3.7,1,1,0,0,1-.8,1L20.6,39.8,9.7,30.9H5a2,2,0,0,0,0,4H8.3L19.4,44l20.5-3.7A4.9,4.9,0,0,0,44,35.4,4.6,4.6,0,0,0,42.2,31.7Z"/>
        <path d="M34.3,20.1h0a6.7,6.7,0,0,1-4.1-1.3,2,2,0,0,0-2.8.6,1.8,1.8,0,0,0,.3,2.6A10.9,10.9,0,0,0,32,23.8V26a2,2,0,0,0,4,0V23.8a6.3,6.3,0,0,0,3-1.3,4.9,4.9,0,0,0,2-4h0c0-3.7-3.4-4.9-6.3-5.5s-3.5-1.3-3.5-1.8.2-.6.5-.9a3.4,3.4,0,0,1,1.8-.4,6.3,6.3,0,0,1,3.3.9,1.8,1.8,0,0,0,2.7-.5,1.9,1.9,0,0,0-.4-2.8A9.1,9.1,0,0,0,36,6.3V4a2,2,0,0,0-4,0V6.2c-3,.5-5,2.5-5,5.2s3.3,4.9,6.5,5.5,3.3,1.3,3.3,1.8S35.7,20.1,34.3,20.1Z"/>
      </g>
    </g>
  </g>
</svg>
