<svg xmlns="http://www.w3.org/2000/svg" width="48" height="48" viewBox="0 0 48 48">
  <title>certificate-star-solid</title>
  <g id="Layer_2" data-name="Layer 2">
    <g id="invisible_box" data-name="invisible box">
      <rect width="48" height="48" fill="none"/>
      <rect width="48" height="48" fill="none"/>
    </g>
    <g id="icons_Q2" data-name="icons Q2">
      <g>
        <path d="M40,18A16,16,0,1,0,15,31.2V43.9a2,2,0,0,0,3.1,1.7L24,41l5.9,4.6A2,2,0,0,0,33,43.9V31.2A16,16,0,0,0,40,18ZM12,18A12,12,0,1,1,24,30,12,12,0,0,1,12,18Z"/>
        <path d="M20.4,19.7l-.5,3.1a1.1,1.1,0,0,0,1.5,1.1L24,22l2.6,1.9a1.1,1.1,0,0,0,1.5-1.1l-.5-3.1,2.1-2a1.1,1.1,0,0,0-.6-1.8l-2.9-.4-1.3-2.9a1,1,0,0,0-1.8,0l-1.3,2.9-2.9.4a1.1,1.1,0,0,0-.6,1.8Z"/>
      </g>
    </g>
  </g>
</svg>
