<svg xmlns="http://www.w3.org/2000/svg" width="48" height="48" viewBox="0 0 48 48">
  <title>certificate-check</title>
  <g id="Layer_2" data-name="Layer 2">
    <g id="invisible_box" data-name="invisible box">
      <rect width="48" height="48" fill="none"/>
      <rect width="48" height="48" fill="none"/>
    </g>
    <g id="icons_Q2" data-name="icons Q2">
      <path d="M20.6,23.4l-4-3.9a2.1,2.1,0,0,1-.2-2.7,1.9,1.9,0,0,1,3-.2L22,19.2l6.6-6.6a2,2,0,0,1,2.8,2.8l-8,8A1.9,1.9,0,0,1,20.6,23.4Z"/>
      <path d="M40,18A16,16,0,1,0,15,31.2V43.9A2.1,2.1,0,0,0,17,46a1.5,1.5,0,0,0,1.1-.4L24,41l5.9,4.6A1.5,1.5,0,0,0,31,46a2.1,2.1,0,0,0,2-2.1V31.2A16,16,0,0,0,40,18ZM12,18A12,12,0,1,1,24,30,12,12,0,0,1,12,18ZM29,39.8l-4.4-3.4a.9.9,0,0,0-1.2,0L19,39.8V33.2a16.9,16.9,0,0,0,5,.8,16.9,16.9,0,0,0,5-.8Z"/>
    </g>
  </g>
</svg>
