<svg xmlns="http://www.w3.org/2000/svg" width="48" height="48" viewBox="0 0 48 48">
  <title>certificate-key-solid</title>
  <g id="Layer_2" data-name="Layer 2">
    <g id="invisible_box" data-name="invisible box">
      <rect width="48" height="48" fill="none"/>
    </g>
    <g id="icons_Q2" data-name="icons Q2">
      <path d="M24,30A12,12,0,0,1,12,17.5,12.2,12.2,0,0,1,23.7,6a12,12,0,0,1,10.4,5.5,1,1,0,0,0,.8.5h2.4a1,1,0,0,0,.8-1.5A15.7,15.7,0,0,0,23.6,2,16,16,0,0,0,8.1,16.6,15.6,15.6,0,0,0,15,31.2V43.9a2,2,0,0,0,3.1,1.7L24,41l5.9,4.6A2,2,0,0,0,33,43.9V31.2a8.3,8.3,0,0,0,1.5-1.1,1,1,0,0,0,0-1.6l-1.7-1.2a.9.9,0,0,0-1.2,0A11.9,11.9,0,0,1,24,30Z"/>
      <path d="M30.7,16a5.9,5.9,0,0,0-1.8-2.9,6.8,6.8,0,0,0-9.8,0,6.8,6.8,0,0,0,0,9.8,6.8,6.8,0,0,0,9.8,0A5.9,5.9,0,0,0,30.7,20h4v3.7a2,2,0,0,0,2,2,2,2,0,0,0,1.4-.6,2,2,0,0,0,.6-1.4V20h1.7v3.7a2,2,0,0,0,2,2,2.5,2.5,0,0,0,1.4-.6,2,2,0,0,0,.6-1.4V18a2,2,0,0,0-2-2Zm-8.8,4.1a3,3,0,1,1,4.2,0A2.9,2.9,0,0,1,21.9,20.1Z"/>
    </g>
  </g>
</svg>
