<svg xmlns="http://www.w3.org/2000/svg" width="48" height="48" viewBox="0 0 48 48">
  <title>certificate-ssl-solid</title>
  <g id="Layer_2" data-name="Layer 2">
    <g id="invisible_box" data-name="invisible box">
      <rect width="48" height="48" fill="none"/>
      <rect width="48" height="48" fill="none"/>
    </g>
    <g id="icons_Q2" data-name="icons Q2">
      <path d="M46,24a12.9,12.9,0,0,0-4-9.4V7a2,2,0,0,0-2-2H4A2,2,0,0,0,2,7V41a2,2,0,0,0,2,2H26v1.6c0,2,2,3.1,3.3,1.8L33,43l3.7,3.4c1.3,1.3,3.3.2,3.3-1.8V34.9A12.9,12.9,0,0,0,46,24ZM33,15a9,9,0,1,1-9,9A9,9,0,0,1,33,15ZM12,14H24.7L23,15.7A11.4,11.4,0,0,0,21.5,18H12a2,2,0,0,1,0-4Zm0,8h8.2a6.5,6.5,0,0,0-.2,2,6.8,6.8,0,0,0,.2,2H12a2,2,0,0,1,0-4Zm0,12a2,2,0,0,1,0-4h9.5A11.4,11.4,0,0,0,23,32.3,13.7,13.7,0,0,0,24.7,34Z"/>
      <circle cx="33" cy="24" r="5"/>
    </g>
  </g>
</svg>
