<svg xmlns="http://www.w3.org/2000/svg" width="48" height="48" viewBox="0 0 48 48">
  <title>chart-pie</title>
  <g id="Layer_2" data-name="Layer 2">
    <g id="invisible_box" data-name="invisible box">
      <rect width="48" height="48" fill="none"/>
    </g>
    <g id="icons_Q2" data-name="icons Q2">
      <path d="M22,22H4a2,2,0,0,1-2-2H2A18.1,18.1,0,0,1,20,2h0a2,2,0,0,1,2,2ZM6.1,18H18V6.1A14.2,14.2,0,0,0,6.1,18Z"/>
      <path d="M28,46a17.9,17.9,0,0,1-13.3-5.9A18.5,18.5,0,0,1,10,27.6h0A1.6,1.6,0,0,1,11.6,26H26V11.5A1.5,1.5,0,0,1,27.5,10h0a19,19,0,0,1,12.9,4.9A18,18,0,0,1,28.8,46ZM14.1,30a14.2,14.2,0,0,0,4.2,8.1A13.8,13.8,0,0,0,28.7,42,14.1,14.1,0,0,0,42,28.7a13.8,13.8,0,0,0-3.9-10.4A14.2,14.2,0,0,0,30,14.1V28a2,2,0,0,1-2,2Z"/>
    </g>
  </g>
</svg>
