<svg xmlns="http://www.w3.org/2000/svg" width="48" height="48" viewBox="0 0 48 48">
  <title>chart-create-solid</title>
  <g id="Layer_2" data-name="Layer 2">
    <g id="invisible_box" data-name="invisible box">
      <rect width="48" height="48" fill="none"/>
    </g>
    <g id="icons_Q2" data-name="icons Q2">
      <g>
        <path d="M12,19a2,2,0,0,0-4,0V29h4Z"/>
        <path d="M36,14.2V5a2.1,2.1,0,0,0-2-2,2,2,0,0,0-2,2v8.1H28V8a2.1,2.1,0,0,0-2-2,2,2,0,0,0-2,2v6.2a17.4,17.4,0,0,0-4,2.3V13a2.1,2.1,0,0,0-2-2,2,2,0,0,0-2,2v8.3A15.2,15.2,0,0,0,14,29a17.5,17.5,0,0,0,.5,4H4a2,2,0,0,0,0,4H16.2A15.8,15.8,0,0,0,30,45,16,16,0,0,0,46,29,15.8,15.8,0,0,0,36,14.2ZM36,31H32v4a2,2,0,0,1-4,0V31H24a2,2,0,0,1,0-4h4V23a2,2,0,0,1,4,0v4h4a2,2,0,0,1,0,4Z"/>
      </g>
    </g>
  </g>
</svg>
