<svg xmlns="http://www.w3.org/2000/svg" width="48" height="48" viewBox="0 0 48 48">
  <title>chart-donut</title>
  <g id="Layer_2" data-name="Layer 2">
    <g id="invisible_box" data-name="invisible box">
      <rect width="48" height="48" fill="none"/>
    </g>
    <g id="icons_Q2" data-name="icons Q2">
      <path d="M24,2A22,22,0,1,0,46,24,22.1,22.1,0,0,0,24,2ZM42,24a17.2,17.2,0,0,1-1.5,7.2l-5.3-3a11.4,11.4,0,0,0,0-8.4l5.3-3A17.2,17.2,0,0,1,42,24ZM38.5,13.3l-5.3,3.1A11.8,11.8,0,0,0,26,12.2V6.1A18.3,18.3,0,0,1,38.5,13.3ZM24,16a8,8,0,1,1-8,8A8,8,0,0,1,24,16Zm0,26A18,18,0,0,1,22,6.1v6.1A12,12,0,0,0,24,36a11.8,11.8,0,0,0,9.2-4.4l5.3,3.1A18.2,18.2,0,0,1,24,42Z"/>
    </g>
  </g>
</svg>
