<svg xmlns="http://www.w3.org/2000/svg" width="48" height="48" viewBox="0 0 48 48">
  <title>chart-y-axis</title>
  <g id="Layer_2" data-name="Layer 2">
    <g id="invisible_box" data-name="invisible box">
      <rect width="48" height="48" fill="none"/>
    </g>
    <g id="icons_Q2" data-name="icons Q2">
      <g>
        <path d="M19.6,13.2a2.1,2.1,0,0,0-.2-2.7l-6-5.9a1.9,1.9,0,0,0-2.8,0l-6,5.9a2.1,2.1,0,0,0-.2,2.7,1.9,1.9,0,0,0,3,.2L10,10.8V42a2,2,0,0,0,4,0V10.8l2.6,2.6A1.9,1.9,0,0,0,19.6,13.2Z"/>
        <path d="M22,40H20a2,2,0,0,0,0,4h2a2,2,0,0,0,0-4Z"/>
        <path d="M32,40H30a2,2,0,0,0,0,4h2a2,2,0,0,0,0-4Z"/>
        <path d="M42,40H40a2,2,0,0,0,0,4h2a2,2,0,0,0,0-4Z"/>
      </g>
    </g>
  </g>
</svg>
