<svg xmlns="http://www.w3.org/2000/svg" width="48" height="48" viewBox="0 0 48 48">
  <title>chart-multi-metric-solid</title>
  <g id="Layer_2" data-name="Layer 2">
    <g id="invisible_box" data-name="invisible box">
      <rect width="48" height="48" fill="none"/>
    </g>
    <g id="Q3_icons" data-name="Q3 icons">
      <g id="Q3_icons-2" data-name="Q3 icons">
        <path d="M42,4H6A2,2,0,0,0,4,6V22.7L16.5,10.2,21,14.7l4.6-4.6a2.1,2.1,0,0,1,2.4,0,2,2,0,0,1,.4,2.8L21,20.3l-4.5-4.5L4,28.3v4.4L17.5,19.2,22,23.7,33.6,12.1a2.1,2.1,0,0,1,2.4,0,2,2,0,0,1,.4,2.8L22,29.3l-4.5-4.5L4,38.3s0,4.1.1,4.3L18.5,28.2,23,32.7,33.6,22.1a2.1,2.1,0,0,1,2.4,0,2,2,0,0,1,.4,2.8L23,38.3l-4.5-4.5L8.3,44H42a2,2,0,0,0,2-2V6A2,2,0,0,0,42,4Z"/>
      </g>
    </g>
  </g>
</svg>
