<svg xmlns="http://www.w3.org/2000/svg" width="48" height="48" viewBox="0 0 48 48">
  <title>chart-bar-vertical</title>
  <g id="Layer_2" data-name="Layer 2">
    <g id="invisible_box" data-name="invisible box">
      <rect width="48" height="48" fill="none"/>
    </g>
    <g id="icons_Q2" data-name="icons Q2">
      <path d="M4,42H4a2,2,0,0,1,2-2H42a2,2,0,0,1,2,2h0a2,2,0,0,1-2,2H6A2,2,0,0,1,4,42ZM14,20a2,2,0,0,0-2-2h0a2,2,0,0,0-2,2V36h4ZM38,6a2,2,0,0,0-2-2h0a2,2,0,0,0-2,2V36h4ZM22,14a2,2,0,0,0-2-2h0a2,2,0,0,0-2,2V36h4Zm8,9a2,2,0,0,0-2-2h0a2,2,0,0,0-2,2V36h4Z"/>
    </g>
  </g>
</svg>
