<svg xmlns="http://www.w3.org/2000/svg" width="48" height="48" viewBox="0 0 48 48">
  <title>chart-downward-solid</title>
  <g id="Layer_2" data-name="Layer 2">
    <g id="invisible_box" data-name="invisible box">
      <rect width="48" height="48" fill="none"/>
    </g>
    <g id="icons_Q2" data-name="icons Q2">
      <path d="M42,40H8V16.8l10,10,5.9-5.9,11.4,11H30.1A2.1,2.1,0,0,0,28,33.7,2,2,0,0,0,30,36H40a2,2,0,0,0,2-2V24a2,2,0,0,0-2.3-2A2.1,2.1,0,0,0,38,24.1v4.8L24.1,15.1,18,21.2,8.4,11.6,8,11.3V6A2,2,0,0,0,4,6V44H42a2,2,0,0,0,0-4Z"/>
    </g>
  </g>
</svg>
