<svg xmlns="http://www.w3.org/2000/svg" width="48" height="48" viewBox="0 0 48 48">
  <title>chart-edit</title>
  <g id="Layer_2" data-name="Layer 2">
    <g id="invisible_box" data-name="invisible box">
      <rect width="48" height="48" fill="none"/>
      <rect width="48" height="48" fill="none"/>
      <rect width="48" height="48" fill="none"/>
    </g>
    <g id="icons_Q2" data-name="icons Q2">
      <g>
        <path d="M45.4,23.4l-9.8-9.8a1.9,1.9,0,0,0-2.8,0L14.6,31.8a2,2,0,0,0-.6,1.4V33H4a2,2,0,0,0,0,4H14v6a2,2,0,0,0,2,2h9.8a2,2,0,0,0,1.4-.6L45.4,26.2A1.9,1.9,0,0,0,45.4,23.4ZM24.9,41H18V34.1L28.4,23.7l6.9,6.9ZM38.1,27.8l-6.9-6.9,3-3.1,7,7Z"/>
        <path d="M12,19a2,2,0,0,0-4,0v6h4Z"/>
        <path d="M34.2,9a2,2,0,0,1,1.4.6l.4.4V5a2.1,2.1,0,0,0-2-2,2,2,0,0,0-2,2v5.4l.8-.8A2,2,0,0,1,34.2,9Z"/>
        <path d="M20,22.4V13a2.1,2.1,0,0,0-2-2,2,2,0,0,0-2,2V25h1.4Z"/>
        <path d="M28,8a2.1,2.1,0,0,0-2-2,2,2,0,0,0-2,2V18.4l4-4Z"/>
      </g>
    </g>
  </g>
</svg>
