<svg xmlns="http://www.w3.org/2000/svg" width="48" height="48" viewBox="0 0 48 48">
  <title>chart-line-time-solid</title>
  <g id="Layer_2" data-name="Layer 2">
    <g id="invisible_box" data-name="invisible box">
      <rect width="48" height="48" fill="none"/>
    </g>
    <g id="icons_Q2" data-name="icons Q2">
      <path d="M42,40H8V31.7l6.2-6.4A6.4,6.4,0,0,0,17,26a6.1,6.1,0,0,0,3.3-1l2.4,2.1A7.3,7.3,0,0,0,22,30a6,6,0,0,0,12,0,5.7,5.7,0,0,0-.9-3.2l3.8-4.2A5.2,5.2,0,0,0,39,23a6,6,0,1,0-6-6,5.8,5.8,0,0,0,.8,3l-3.9,4.3A5.8,5.8,0,0,0,28,24a7,7,0,0,0-2.5.5l-2.8-2.6A5.8,5.8,0,0,0,23,20a6,6,0,1,0-11.5,2.4L8,26.1V6A2,2,0,0,0,4,6V44H42a2,2,0,0,0,0-4Z"/>
    </g>
  </g>
</svg>
