<svg xmlns="http://www.w3.org/2000/svg" width="48" height="48" viewBox="0 0 48 48">
  <title>chart-threshold</title>
  <g id="Layer_2" data-name="Layer 2">
    <g id="invisible_box" data-name="invisible box">
      <rect width="48" height="48" fill="none"/>
    </g>
    <g id="icons_Q2" data-name="icons Q2">
      <g>
        <path d="M17,26h2a2,2,0,0,0,0-4H17a2,2,0,0,0,0,4Z"/>
        <path d="M27,26h2a2,2,0,0,0,0-4H27a2,2,0,0,0,0,4Z"/>
        <path d="M42,40H8V26H9a2,2,0,0,0,0-4H8V6A2,2,0,0,0,4,6V44H42a2,2,0,0,0,0-4Z"/>
        <path d="M37,26h2a2,2,0,0,0,0-4H37a2,2,0,0,0,0,4Z"/>
      </g>
    </g>
  </g>
</svg>
