<svg xmlns="http://www.w3.org/2000/svg" width="48" height="48" viewBox="0 0 48 48">
  <title>chart-metric-solid</title>
  <g id="Layer_2" data-name="Layer 2">
    <g id="invisible_box" data-name="invisible box">
      <rect width="48" height="48" fill="none"/>
    </g>
    <g id="Q3_icons" data-name="Q3 icons">
      <g id="Q3_icons-2" data-name="Q3 icons">
        <path d="M42,4H6A2,2,0,0,0,4,6V32.7L17.5,19.2,22,23.7,33.6,12.1a2.1,2.1,0,0,1,2.4,0,2,2,0,0,1,.4,2.8L22,29.3l-4.5-4.5L4,38.3V42a2,2,0,0,0,2,2H42a2,2,0,0,0,2-2V6A2,2,0,0,0,42,4Z"/>
      </g>
    </g>
  </g>
</svg>
