<svg xmlns="http://www.w3.org/2000/svg" width="48" height="48" viewBox="0 0 48 48">
  <title>check-square-solid</title>
  <g id="Layer_2" data-name="Layer 2">
    <g id="invisible_box" data-name="invisible box">
      <rect width="48" height="48" fill="none"/>
    </g>
    <g id="icons_Q2" data-name="icons Q2">
      <path d="M42,4H6A2,2,0,0,0,4,6V42a2,2,0,0,0,2,2H42a2,2,0,0,0,2-2V6A2,2,0,0,0,42,4ZM35.4,18.4l-14,14a1.9,1.9,0,0,1-2.8,0l-5.9-5.9a2.2,2.2,0,0,1-.4-2.7,2,2,0,0,1,3.1-.2L20,28.2,32.6,15.6a2,2,0,0,1,2.8,2.8Z"/>
    </g>
  </g>
</svg>
