<svg xmlns="http://www.w3.org/2000/svg" width="48" height="48" viewBox="0 0 48 48">
  <title>check-all</title>
  <g id="Layer_2" data-name="Layer 2">
    <g id="invisible_box" data-name="invisible box">
      <rect width="48" height="48" fill="none"/>
    </g>
    <g id="icons_Q2" data-name="icons Q2">
      <g>
        <path d="M20.6,38.4l-8-7.9a2.1,2.1,0,0,1-.2-2.7,1.9,1.9,0,0,1,3-.2L22,34.2,42.6,13.6a2,2,0,0,1,2.8,2.8l-22,22A1.9,1.9,0,0,1,20.6,38.4Z"/>
        <path d="M12,39a2,2,0,0,1-1.4-.6l-8-8a1.9,1.9,0,0,1,0-2.8,1.9,1.9,0,0,1,2.8,0l8,8a1.9,1.9,0,0,1,0,2.8A2,2,0,0,1,12,39Z"/>
        <path d="M22,29a2,2,0,0,1-1.4-.6,1.9,1.9,0,0,1,0-2.8l12-12a2,2,0,0,1,2.8,2.8l-12,12A2,2,0,0,1,22,29Z"/>
      </g>
    </g>
  </g>
</svg>
