<svg xmlns="http://www.w3.org/2000/svg" width="48" height="48" viewBox="0 0 48 48">
  <title>cicd-solid</title>
  <g id="Layer_2" data-name="Layer 2">
    <g id="invisible_box" data-name="invisible box">
      <rect width="48" height="48" fill="none"/>
    </g>
    <g id="Q3_icons" data-name="Q3 icons">
      <g>
        <path d="M43.9,24h0a2,2,0,0,0-2,1.8A18,18,0,0,1,24,42a17.6,17.6,0,0,1-12.7-5.3l1.4-1.4a16,16,0,0,0,27.1-9,2,2,0,1,0-3.9-.6,12,12,0,0,1-20.4,6.8l1.8-1.8a1,1,0,0,0-.7-1.7H5V40.6a1,1,0,0,0,1.7.7l1.7-1.7A22.3,22.3,0,0,0,24,46,22,22,0,0,0,45.9,26.2,2,2,0,0,0,43.9,24Z"/>
        <path d="M6.1,22.2A18,18,0,0,1,24,6a17.6,17.6,0,0,1,12.7,5.3l-1.4,1.4a16,16,0,0,0-27.1,9,2,2,0,1,0,3.9.6,12,12,0,0,1,20.4-6.8l-1.8,1.8a1,1,0,0,0,.7,1.7H43V7.4a1,1,0,0,0-1.7-.7L39.6,8.4A22.3,22.3,0,0,0,24,2,22,22,0,0,0,2.1,21.8a2,2,0,0,0,2,2.2h0A2,2,0,0,0,6.1,22.2Z"/>
        <path d="M18,24a6,6,0,1,0,6-6A6,6,0,0,0,18,24Zm8,0a2,2,0,1,1-2-2A2,2,0,0,1,26,24Z"/>
      </g>
    </g>
  </g>
</svg>
