<svg xmlns="http://www.w3.org/2000/svg" width="48" height="48" viewBox="0 0 48 48">
  <title>cicd</title>
  <g id="Layer_2" data-name="Layer 2">
    <g id="invisible_box" data-name="invisible box">
      <rect width="48" height="48" fill="none"/>
    </g>
    <g id="Q3_icons" data-name="Q3 icons">
      <path d="M43.9,24a2,2,0,0,1,2,2.2A22,22,0,0,1,24,46,22.3,22.3,0,0,1,8.4,39.6L6.7,41.3A1,1,0,0,1,5,40.6V29H16.6a1,1,0,0,1,.7,1.7l-1.8,1.8a12,12,0,0,0,20.4-6.8,2,2,0,0,1,2-1.7h0a2,2,0,0,1,1.9,2.3,16,16,0,0,1-27.1,9l-1.4,1.4A17.6,17.6,0,0,0,24,42,18,18,0,0,0,41.9,25.8a2,2,0,0,1,2-1.8Z"/>
      <path d="M43,7.4V19H31.4a1,1,0,0,1-.7-1.7l1.8-1.8a12,12,0,0,0-20.4,6.8,2,2,0,0,1-2,1.7h0a2,2,0,0,1-1.9-2.3,16,16,0,0,1,27.1-9l1.4-1.4A17.6,17.6,0,0,0,24,6,18,18,0,0,0,6.1,22.2a2,2,0,0,1-2,1.8h0a2,2,0,0,1-2-2.2A22,22,0,0,1,24,2,22.3,22.3,0,0,1,39.6,8.4l1.7-1.7A1,1,0,0,1,43,7.4Z"/>
      <path d="M24,22a2,2,0,1,1-2,2,2,2,0,0,1,2-2m0-4a6,6,0,1,0,6,6,6,6,0,0,0-6-6Z"/>
    </g>
  </g>
</svg>
