<svg xmlns="http://www.w3.org/2000/svg" width="48" height="48" viewBox="0 0 48 48">
  <title>ckms</title>
  <g id="Layer_2" data-name="Layer 2">
    <g id="invisible_box" data-name="invisible box">
      <rect width="48" height="48" fill="none"/>
    </g>
    <g id="Q3_icons" data-name="Q3 icons">
      <g>
        <polygon points="43 24.5 36.4 28.1 36.4 31.3 36.4 31.3 24 38.5 11.4 31.3 11.4 16.8 23.9 9.5 30.1 13.1 36.7 9.4 30.3 5.7 30.3 5.7 24.2 2.2 23.9 2 23.9 2 23.9 2 23.9 2 5 13 5 35 24 46 43 35 43 35 43 24.5"/>
        <path d="M33.4,15l-.3.2-4.4,2.4a8,8,0,0,0-4.5-1.4,7.7,7.7,0,0,0-7.8,7.7,7.8,7.8,0,0,0,15.4,1.3c0-.4.1-.9.1-1.3a1.7,1.7,0,0,0-.1-.7l4.6-2.5v3.5l2.3-1.3V21l2.2-1.1v1.9L43,20.6V13.1h-.1l-2.7-1.7H40l-6.5,3.6ZM24.2,25.9a2,2,0,1,1,0-4,2,2,0,0,1,0,4Z"/>
      </g>
    </g>
  </g>
</svg>
