<svg xmlns="http://www.w3.org/2000/svg" width="48" height="48" viewBox="0 0 48 48">
  <title>close-square-solid</title>
  <g id="Layer_2" data-name="Layer 2">
    <g id="invisible_box" data-name="invisible box">
      <rect width="48" height="48" fill="none"/>
    </g>
    <g id="icons_Q2" data-name="icons Q2">
      <path d="M42,4H6A2,2,0,0,0,4,6V42a2,2,0,0,0,2,2H42a2,2,0,0,0,2-2V6A2,2,0,0,0,42,4ZM32.3,29.5a2.1,2.1,0,0,1,.4,2.7,2,2,0,0,1-3.1.2L24,26.8l-5.6,5.6a2,2,0,0,1-3.1-.2,2.1,2.1,0,0,1,.4-2.7L21.2,24l-5.5-5.5a2.2,2.2,0,0,1-.4-2.7,2,2,0,0,1,3.1-.2L24,21.2l5.6-5.6a2,2,0,0,1,3.1.2,2.2,2.2,0,0,1-.4,2.7L26.8,24Z"/>
    </g>
  </g>
</svg>
