<svg xmlns="http://www.w3.org/2000/svg" width="48" height="48" viewBox="0 0 48 48">
  <title>cloud-disable-solid</title>
  <g id="Layer_2" data-name="Layer 2">
    <g id="invisible_box" data-name="invisible box">
      <rect width="48" height="48" fill="none"/>
    </g>
    <g id="icons_Q2" data-name="icons Q2">
      <g>
        <path d="M40.5,21.8a9.1,9.1,0,0,0-3.4-6.5A9.8,9.8,0,0,0,29.6,13,12.3,12.3,0,0,0,19.4,7a10.9,10.9,0,0,0-5.3,1.3L43.4,37.5a10,10,0,0,0-2.9-15.7Z"/>
        <path d="M7.4,7.6a1.9,1.9,0,0,0-2.8,0,1.9,1.9,0,0,0,0,2.8l3.9,3.9a12.6,12.6,0,0,0-1.1,5.1,11.8,11.8,0,0,0-5.2,8.2A11.5,11.5,0,0,0,5.3,37.8,12.4,12.4,0,0,0,14,41H35.1l3.5,3.4a2,2,0,0,0,2.8-2.8Z"/>
      </g>
    </g>
  </g>
</svg>
