<svg xmlns="http://www.w3.org/2000/svg" width="48" height="48" viewBox="0 0 48 48">
  <title>cloud-disable</title>
  <g id="Layer_2" data-name="Layer 2">
    <g id="invisible_box" data-name="invisible box">
      <rect width="48" height="48" fill="none"/>
    </g>
    <g id="icons_Q2" data-name="icons Q2">
      <g>
        <path d="M40.5,21.8a9.1,9.1,0,0,0-3.4-6.5A9.8,9.8,0,0,0,29.6,13,12.3,12.3,0,0,0,19.4,7a10.9,10.9,0,0,0-5.3,1.3l3.1,3a8.3,8.3,0,0,1,2.2-.3,7.3,7.3,0,0,1,4.5,1.6A8.8,8.8,0,0,1,26.7,16a2,2,0,0,0,1.8,1.2H29a6.5,6.5,0,0,1,5.7,1.3,6,6,0,0,1,1.8,4.4v.4a1.6,1.6,0,0,0,1.2,1.7h.2A6.2,6.2,0,0,1,42,31a6.1,6.1,0,0,1-1.5,3.7l2.9,2.8a10,10,0,0,0-2.9-15.7Z"/>
        <path d="M7.4,7.6a1.9,1.9,0,0,0-2.8,0,1.9,1.9,0,0,0,0,2.8l3.9,3.9a12.6,12.6,0,0,0-1.1,5.1,11.8,11.8,0,0,0-5.2,8.2A11.5,11.5,0,0,0,5.3,37.8,12.4,12.4,0,0,0,14,41H35.1l3.5,3.4a2,2,0,0,0,2.8-2.8ZM14,37a7.9,7.9,0,0,1-5.9-2.1,7.6,7.6,0,0,1-2-6.7,7.3,7.3,0,0,1,1.5-3.5,8.1,8.1,0,0,1,2.7-2.5,1.8,1.8,0,0,0,1.1-1.9h0a8.2,8.2,0,0,1,.2-2.7L31.2,37Z"/>
      </g>
    </g>
  </g>
</svg>
