<svg xmlns="http://www.w3.org/2000/svg" width="48" height="48" viewBox="0 0 48 48">
  <title>cloud-service-solid</title>
  <g id="Layer_2" data-name="Layer 2">
    <g id="invisible_box" data-name="invisible box">
      <rect width="48" height="48" fill="none"/>
    </g>
    <g id="icons_Q2" data-name="icons Q2">
      <path d="M40.5,21.8a9.1,9.1,0,0,0-3.4-6.5A9.8,9.8,0,0,0,29.6,13,12.2,12.2,0,0,0,19.5,7a11.6,11.6,0,0,0-8.9,4,12.4,12.4,0,0,0-3.2,8.4,11.8,11.8,0,0,0-5.2,8.2A11.5,11.5,0,0,0,5.3,37.8,12.4,12.4,0,0,0,14,41H34.5c7.7,0,11.3-5.1,11.5-9.9A9.9,9.9,0,0,0,40.5,21.8ZM20,24.8V32a2,2,0,0,1-4,0V24.8l-1.6,1.6a2,2,0,0,1-3.1-.2,2.1,2.1,0,0,1,.4-2.7l4.9-4.9a1.9,1.9,0,0,1,2.8,0l4.9,4.9a2.1,2.1,0,0,1,.4,2.7,2,2,0,0,1-3.1.2Zm16.3,6.7-4.9,4.9a1.9,1.9,0,0,1-2.8,0l-4.9-4.9a2.2,2.2,0,0,1-.4-2.7,2,2,0,0,1,3.1-.2L28,30.2V23a2,2,0,0,1,4,0v7.2l1.6-1.6a2,2,0,0,1,3.1.2A2.2,2.2,0,0,1,36.3,31.5Z"/>
    </g>
  </g>
</svg>
