<svg xmlns="http://www.w3.org/2000/svg" width="48" height="48" viewBox="0 0 48 48">
  <title>cloud-solid</title>
  <g id="Layer_2" data-name="Layer 2">
    <g id="invisible_box" data-name="invisible box">
      <rect width="48" height="48" fill="none"/>
    </g>
    <g id="icons_Q2" data-name="icons Q2">
      <path d="M14,41a12.4,12.4,0,0,1-8.7-3.2A11.5,11.5,0,0,1,2.2,27.6a11.8,11.8,0,0,1,5.2-8.2A12.4,12.4,0,0,1,10.6,11a11.6,11.6,0,0,1,8.8-4,12.5,12.5,0,0,1,10.2,6,9.8,9.8,0,0,1,7.5,2.3,9.1,9.1,0,0,1,3.4,6.5A10,10,0,0,1,46,31.1c-.1,4.8-3.8,9.9-11.5,9.9Z"/>
    </g>
  </g>
</svg>
