<svg xmlns="http://www.w3.org/2000/svg" width="48" height="48" viewBox="0 0 48 48">
  <title>cloud-settings</title>
  <g id="Layer_2" data-name="Layer 2">
    <g id="invisible_box" data-name="invisible box">
      <rect width="48" height="48" fill="none"/>
    </g>
    <g id="icons_Q2" data-name="icons Q2">
      <path d="M34,28.1V25.9L30.4,25l-.5-1.1,2-3.2-1.6-1.6-3.2,2L26,20.6,25.1,17H22.9L22,20.6l-1.1.5-3.2-2-1.6,1.6,2,3.2L17.6,25l-3.6.9v2.2l3.6.9.5,1.1-2,3.2,1.6,1.6,3.2-2,1.1.5.9,3.6h2.2l.9-3.6,1.1-.5,3.2,2,1.6-1.6-2-3.2.5-1.1ZM24,30a3,3,0,1,1,3-3A2.9,2.9,0,0,1,24,30Z"/>
      <path d="M40.5,21.8a9.1,9.1,0,0,0-3.4-6.5A9.8,9.8,0,0,0,29.6,13,12.2,12.2,0,0,0,19.5,7a11.6,11.6,0,0,0-8.9,4,12.4,12.4,0,0,0-3.2,8.4,11.8,11.8,0,0,0-5.2,8.2A11.5,11.5,0,0,0,5.3,37.8,12.4,12.4,0,0,0,14,41h0a2,2,0,0,0,2-2h0a2,2,0,0,0-2-2h0a8,8,0,0,1-5.9-2.1,7.6,7.6,0,0,1-2-6.7,7.3,7.3,0,0,1,1.5-3.5,8.1,8.1,0,0,1,2.7-2.5,1.8,1.8,0,0,0,1.1-1.9h0a9.1,9.1,0,0,1,2.2-6.6A7.7,7.7,0,0,1,19.5,11a7,7,0,0,1,4.4,1.6A8.8,8.8,0,0,1,26.7,16a2,2,0,0,0,1.8,1.2H29a6.4,6.4,0,0,1,5.7,1.3,6,6,0,0,1,1.8,4.4v.4a1.7,1.7,0,0,0,1.2,1.7h.2A6.2,6.2,0,0,1,42,31c0,.6-.4,6-7.5,6H34a2,2,0,0,0-2,2h0a2,2,0,0,0,2,2h.5c7.7,0,11.3-5.1,11.5-9.9A9.9,9.9,0,0,0,40.5,21.8Z"/>
    </g>
  </g>
</svg>
