<svg xmlns="http://www.w3.org/2000/svg" width="48" height="48" viewBox="0 0 48 48">
  <title>cloud-data-network-solid</title>
  <g id="Layer_2" data-name="Layer 2">
    <g id="invisible_box" data-name="invisible box">
      <rect width="48" height="48" fill="none"/>
    </g>
    <g id="icons_Q2" data-name="icons Q2">
      <path d="M41,39H28.6A5.1,5.1,0,0,0,26,36.4V32h7.5c7,0,10.4-4.5,10.5-8.7A9.1,9.1,0,0,0,39,15a8.4,8.4,0,0,0-3.1-5.7A9.1,9.1,0,0,0,30,7.2h-.9A11.3,11.3,0,0,0,19.9,2a10.9,10.9,0,0,0-11,10.9,10.8,10.8,0,0,0-4.7,7.3A9.7,9.7,0,0,0,7,29.1C8.9,31,12.8,32,14.9,32H22v4.4A5.1,5.1,0,0,0,19.4,39H7.2a2,2,0,0,0,0,4H19.4A4.9,4.9,0,0,0,24,46a4.8,4.8,0,0,0,4.6-3H41a2,2,0,0,0,0-4Z"/>
    </g>
  </g>
</svg>
