<svg xmlns="http://www.w3.org/2000/svg" width="48" height="48" viewBox="0 0 48 48">
  <title>cloud</title>
  <g id="Layer_2" data-name="Layer 2">
    <g id="invisible_box" data-name="invisible box">
      <rect width="48" height="48" fill="none"/>
    </g>
    <g id="icons_Q2" data-name="icons Q2">
      <path d="M19.4,41H14a12.4,12.4,0,0,1-8.7-3.2A11.5,11.5,0,0,1,2.2,27.6a11.8,11.8,0,0,1,5.2-8.2A12.4,12.4,0,0,1,10.6,11a11.6,11.6,0,0,1,8.8-4,12.5,12.5,0,0,1,10.2,6,9.8,9.8,0,0,1,7.5,2.3,9.1,9.1,0,0,1,3.4,6.5A10,10,0,0,1,46,31.1c-.1,4.8-3.8,9.9-11.5,9.9H19.4Zm0-30a7.7,7.7,0,0,0-5.8,2.6,9.1,9.1,0,0,0-2.2,6.7h0a2,2,0,0,1-1.1,2h0a7.9,7.9,0,0,0-4.2,5.9,7.6,7.6,0,0,0,2,6.7A8,8,0,0,0,14,37H34.5c7.1,0,7.5-5.4,7.5-6a6.2,6.2,0,0,0-4.1-6h-.2a1.7,1.7,0,0,1-1.2-1.7h0a6,6,0,0,0-1.8-4.8A6.5,6.5,0,0,0,29,17.1h0A2,2,0,0,1,26.7,16h0C25.6,13.6,22.8,11,19.4,11Z"/>
    </g>
  </g>
</svg>
