<svg xmlns="http://www.w3.org/2000/svg" width="48" height="48" viewBox="0 0 48 48">
  <title>cloud-settings-solid</title>
  <g id="Layer_2" data-name="Layer 2">
    <g id="invisible_box" data-name="invisible box">
      <rect width="48" height="48" fill="none"/>
    </g>
    <g id="icons_Q2" data-name="icons Q2">
      <path d="M40.5,21.8a9.1,9.1,0,0,0-3.4-6.5A9.8,9.8,0,0,0,29.6,13,12.5,12.5,0,0,0,19.5,7a11.6,11.6,0,0,0-8.9,4,12.4,12.4,0,0,0-3.2,8.4,11.8,11.8,0,0,0-5.2,8.2A11.5,11.5,0,0,0,5.3,37.8,12.4,12.4,0,0,0,14,41H34.5c7.7,0,11.3-5.1,11.5-9.9A10,10,0,0,0,40.5,21.8ZM34,28.1l-3.7.9a4.9,4.9,0,0,1-.4,1.1l2,3.2-1.6,1.6-3.2-2-1.1.4L25.1,37H22.9L22,33.3l-1.1-.4-3.2,2-1.6-1.6,2-3.2a4.9,4.9,0,0,1-.4-1.1L14,28.1V25.9l3.7-.9a4.9,4.9,0,0,1,.4-1.1l-2-3.2,1.6-1.6,3.2,2,1.1-.5.9-3.6h2.2l.9,3.6,1.1.5,3.2-2,1.6,1.6-2,3.2a4.9,4.9,0,0,1,.4,1.1l3.7.9ZM24,24a3,3,0,1,0,3,3A2.9,2.9,0,0,0,24,24Z"/>
    </g>
  </g>
</svg>
