<svg xmlns="http://www.w3.org/2000/svg" width="48" height="48" viewBox="0 0 48 48">
  <title>cloud-service</title>
  <g id="Layer_2" data-name="Layer 2">
    <g id="invisible_box" data-name="invisible box">
      <rect width="48" height="48" fill="none"/>
    </g>
    <g id="icons_Q2" data-name="icons Q2">
      <g>
        <path d="M18,34a2,2,0,0,0,2-2V24.8l1.6,1.6a1.9,1.9,0,0,0,3-.2,2.1,2.1,0,0,0-.2-2.7l-5-4.9a1.9,1.9,0,0,0-2.8,0l-5,4.9a2.1,2.1,0,0,0-.2,2.7,1.9,1.9,0,0,0,3,.2L16,24.8V32A2,2,0,0,0,18,34Z"/>
        <path d="M36.6,28.8a1.9,1.9,0,0,0-3-.2L32,30.2V23a2,2,0,0,0-4,0v7.2l-1.6-1.6a1.9,1.9,0,0,0-3,.2,2.1,2.1,0,0,0,.2,2.7l5,4.9a1.9,1.9,0,0,0,2.8,0l5-4.9A2.1,2.1,0,0,0,36.6,28.8Z"/>
        <path d="M40.5,21.8a9.1,9.1,0,0,0-3.4-6.5A9.8,9.8,0,0,0,29.6,13,12.2,12.2,0,0,0,19.5,7a11.6,11.6,0,0,0-8.9,4,12.4,12.4,0,0,0-3.2,8.4,11.8,11.8,0,0,0-5.2,8.2A11.5,11.5,0,0,0,5.3,37.8,12.4,12.4,0,0,0,14,41h9a2,2,0,0,0,0-4H14a8,8,0,0,1-5.9-2.1,7.6,7.6,0,0,1-2-6.7,7.3,7.3,0,0,1,1.5-3.5,8.1,8.1,0,0,1,2.7-2.5,1.8,1.8,0,0,0,1.1-1.9h0a9.1,9.1,0,0,1,2.2-6.6A7.7,7.7,0,0,1,19.5,11a7,7,0,0,1,4.4,1.6A8.8,8.8,0,0,1,26.7,16a2,2,0,0,0,1.8,1.2H29a6.4,6.4,0,0,1,5.7,1.3,6,6,0,0,1,1.8,4.4v.4a1.7,1.7,0,0,0,1.2,1.7h.2a6.1,6.1,0,0,1-1.3,11.8,2,2,0,0,0-1.6,2h0a1.9,1.9,0,0,0,2.4,1.9A10.1,10.1,0,0,0,46,31.1,9.9,9.9,0,0,0,40.5,21.8Z"/>
      </g>
    </g>
  </g>
</svg>
