<svg xmlns="http://www.w3.org/2000/svg" width="48" height="48" viewBox="0 0 48 48">
  <title>cloud-check</title>
  <g id="Layer_2" data-name="Layer 2">
    <g id="invisible_box" data-name="invisible box">
      <rect width="48" height="48" fill="none"/>
    </g>
    <g id="icons_Q2" data-name="icons Q2">
      <path d="M40.5,21.8a9.1,9.1,0,0,0-3.4-6.5A9.8,9.8,0,0,0,29.6,13,12.3,12.3,0,0,0,19.4,7a11.6,11.6,0,0,0-8.8,4,12.4,12.4,0,0,0-3.2,8.4,11.8,11.8,0,0,0-5.2,8.2A11.5,11.5,0,0,0,5.3,37.8,12.4,12.4,0,0,0,14,41h0a2,2,0,0,0,2-2h0a2,2,0,0,0-2-2h0a7.9,7.9,0,0,1-5.9-2.1,7.6,7.6,0,0,1-2-6.7,7.3,7.3,0,0,1,1.5-3.5,8.1,8.1,0,0,1,2.7-2.5,1.8,1.8,0,0,0,1.1-1.9h0a9.1,9.1,0,0,1,2.2-6.6A7.7,7.7,0,0,1,19.4,11a7.3,7.3,0,0,1,4.5,1.6A8.8,8.8,0,0,1,26.7,16a2,2,0,0,0,1.8,1.2H29a6.5,6.5,0,0,1,5.7,1.3,6,6,0,0,1,1.8,4.4v.4a1.6,1.6,0,0,0,1.2,1.7h.2A6.2,6.2,0,0,1,42,31c0,.6-.4,6-7.5,6H29a2,2,0,0,0-2,2h0a2,2,0,0,0,2,2h5.5c7.7,0,11.3-5.1,11.5-9.9A9.9,9.9,0,0,0,40.5,21.8Z"/>
      <path d="M19.6,34.4l-5-4.9a2.1,2.1,0,0,1-.2-2.7,1.9,1.9,0,0,1,3-.2L21,30.2l8.6-8.6a2,2,0,0,1,2.8,2.8l-10,10A1.9,1.9,0,0,1,19.6,34.4Z"/>
    </g>
  </g>
</svg>
