<svg xmlns="http://www.w3.org/2000/svg" width="48" height="48" viewBox="0 0 48 48">
  <title>cloud-error</title>
  <g id="Layer_2" data-name="Layer 2">
    <g id="invisible_box" data-name="invisible box">
      <rect width="48" height="48" fill="none"/>
    </g>
    <g id="icons_Q2" data-name="icons Q2">
      <path d="M46,31.1c-.2,4.8-3.8,9.9-11.5,9.9H34a1.7,1.7,0,0,1-1.4-.6A2,2,0,0,1,32,39a2,2,0,0,1,2-2h.5c7.1,0,7.5-5.4,7.5-6a6.2,6.2,0,0,0-4.1-6h-.2a1.7,1.7,0,0,1-1.2-1.7v-.4a6,6,0,0,0-1.8-4.4A6.4,6.4,0,0,0,29,17.1h-.5A2,2,0,0,1,26.7,16a8.8,8.8,0,0,0-2.8-3.4A7,7,0,0,0,19.5,11a7.7,7.7,0,0,0-5.9,2.6,9.1,9.1,0,0,0-2.2,6.6h0a1.8,1.8,0,0,1-1.1,1.9,8.1,8.1,0,0,0-2.7,2.5,7.3,7.3,0,0,0-1.5,3.5,7.6,7.6,0,0,0,2,6.7A7.9,7.9,0,0,0,14,37h2a2.1,2.1,0,0,1,2,2,2,2,0,0,1-2,2H14a12.4,12.4,0,0,1-8.7-3.2A11.5,11.5,0,0,1,2.2,27.6a11.8,11.8,0,0,1,5.2-8.2A12.4,12.4,0,0,1,10.6,11a11.6,11.6,0,0,1,8.9-4,12.2,12.2,0,0,1,10.1,6,9.8,9.8,0,0,1,7.5,2.3,9.1,9.1,0,0,1,3.4,6.5A9.9,9.9,0,0,1,46,31.1Z"/>
      <path d="M26.8,28l3.6-3.6a2,2,0,0,0-2.8-2.8L24,25.2l-3.6-3.6a2,2,0,0,0-2.8,2.8L21.2,28l-3.6,3.6a1.9,1.9,0,0,0,0,2.8,1.9,1.9,0,0,0,2.8,0L24,30.8l3.6,3.6a1.9,1.9,0,0,0,2.8,0,1.9,1.9,0,0,0,0-2.8Z"/>
    </g>
  </g>
</svg>
