<svg xmlns="http://www.w3.org/2000/svg" width="48" height="48" viewBox="0 0 48 48">
  <title>code</title>
  <g id="Layer_2" data-name="Layer 2">
    <g id="invisible_box" data-name="invisible box">
      <rect width="48" height="48" fill="none"/>
    </g>
    <g id="icons_Q2" data-name="icons Q2">
      <path d="M20,40h-.5a2,2,0,0,1-1.4-2.5l8-27.9a2,2,0,0,1,3.8,1l-8,28A1.9,1.9,0,0,1,20,40Z"/>
      <path d="M14,35a2,2,0,0,0,1.3-3.5L7,24l8.3-7.5a2,2,0,0,0-2.6-3l-10,9a2,2,0,0,0,0,3l10,9A1.9,1.9,0,0,0,14,35Z"/>
      <path d="M34,35a2,2,0,0,1-1.3-3.5L41,24l-8.3-7.5a2,2,0,1,1,2.6-3l10,9a2,2,0,0,1,0,3l-10,9A1.9,1.9,0,0,1,34,35Z"/>
    </g>
  </g>
</svg>
