<svg xmlns="http://www.w3.org/2000/svg" width="48" height="48" viewBox="0 0 48 48">
  <title>collection</title>
  <g id="Layer_2" data-name="Layer 2">
    <g id="invisible_box" data-name="invisible box">
      <rect width="48" height="48" fill="none"/>
      <rect width="48" height="48" fill="none"/>
      <rect width="48" height="48" fill="none"/>
    </g>
    <g id="Q3_icons" data-name="Q3 icons">
      <g>
        <path d="M42,18H6a2,2,0,0,0-2,2V42a2,2,0,0,0,2,2H42a2,2,0,0,0,2-2V20A2,2,0,0,0,42,18ZM40,40H8V22H18a6,6,0,0,0,12,0H40Z"/>
        <path d="M9,14H39a2,2,0,0,0,0-4H9a2,2,0,0,0,0,4Z"/>
        <path d="M12,6H36a2,2,0,0,0,0-4H12a2,2,0,0,0,0,4Z"/>
      </g>
    </g>
  </g>
</svg>
