<svg xmlns="http://www.w3.org/2000/svg" width="48" height="48" viewBox="0 0 48 48">
  <title>comment-help-solid</title>
  <g id="Layer_2" data-name="Layer 2">
    <g id="invisible_box" data-name="invisible box">
      <rect width="48" height="48" fill="none"/>
    </g>
    <g id="icons_Q2" data-name="icons Q2">
      <path d="M42,4H6A2,2,0,0,0,4,6V42a2,2,0,0,0,2,2,2,2,0,0,0,1.4-.6L15.2,36H42a2,2,0,0,0,2-2V6A2,2,0,0,0,42,4ZM26,28.4c-.1.1-.1.2-.2.4s-.1.2-.1.3l-.3.3a1.9,1.9,0,0,1-2.8,0l-.3-.3c0-.1-.1-.2-.1-.3s-.1-.3-.2-.4V28a2,2,0,0,1,.6-1.4,1.9,1.9,0,0,1,2.8,0A2,2,0,0,1,26,28Zm.8-5.5h-.4l-1.1.5A1.9,1.9,0,0,1,24,24a1.6,1.6,0,0,1-1.3-.6,1.9,1.9,0,0,1-.1-2.8,6.4,6.4,0,0,1,2.2-1.2l.3-.2a2.6,2.6,0,0,0,1.8-2.9A3,3,0,0,0,24.6,14a3.3,3.3,0,0,0-3.3,1.5,1.9,1.9,0,0,1-2.7.8,2.1,2.1,0,0,1-.8-2.7,7.2,7.2,0,0,1,7.6-3.5,7.1,7.1,0,0,1,5.5,5.4A6.8,6.8,0,0,1,26.8,22.9Z"/>
    </g>
  </g>
</svg>
