<svg xmlns="http://www.w3.org/2000/svg" width="48" height="48" viewBox="0 0 48 48">
  <title>comment-help</title>
  <g id="Layer_2" data-name="Layer 2">
    <g id="invisible_box" data-name="invisible box">
      <rect width="48" height="48" fill="none"/>
    </g>
    <g id="icons_Q2" data-name="icons Q2">
      <path d="M40,8V32H13.6l-1.2,1.1L8,37.3V8H40m2-4H6A2,2,0,0,0,4,6V42a2,2,0,0,0,2,2,2,2,0,0,0,1.4-.6L15.2,36H42a2,2,0,0,0,2-2V6a2,2,0,0,0-2-2Z"/>
      <path d="M24,30a2,2,0,0,1-1.4-.6l-.3-.3c0-.1-.1-.2-.2-.3s0-.3-.1-.4V28a2,2,0,0,1,.6-1.4,1.9,1.9,0,0,1,2.8,0A2,2,0,0,1,26,28v.4c-.1.1-.1.2-.2.4s-.1.2-.1.3l-.3.3A2,2,0,0,1,24,30Z"/>
      <path d="M24,24a2,2,0,0,1-1.4-.6,2,2,0,0,1,0-2.8,6.4,6.4,0,0,1,2.2-1.2l.3-.2a2.6,2.6,0,0,0,1.8-2.9,2.8,2.8,0,0,0-2.3-2.2,3.1,3.1,0,0,0-3.3,1.4,2,2,0,0,1-2.7.9,2.1,2.1,0,0,1-.8-2.8,7.2,7.2,0,0,1,7.6-3.5,7.1,7.1,0,0,1,5.5,5.4,6.8,6.8,0,0,1-4.1,7.4h-.4l-1,.5A2.4,2.4,0,0,1,24,24Zm1.5-.6Z"/>
    </g>
  </g>
</svg>
