<svg xmlns="http://www.w3.org/2000/svg" width="48" height="48" viewBox="0 0 48 48">
  <title>comment-announcement-solid</title>
  <g id="Layer_2" data-name="Layer 2">
    <g id="invisible_box" data-name="invisible box">
      <rect width="48" height="48" fill="none"/>
    </g>
    <g id="icons_Q2" data-name="icons Q2">
      <path d="M42,4H6A2,2,0,0,0,4,6V42a2,2,0,0,0,2,2,2,2,0,0,0,1.4-.6L15.2,36H42a2,2,0,0,0,2-2V6A2,2,0,0,0,42,4ZM24,30a2,2,0,1,1,2-2A2,2,0,0,1,24,30Zm2-8a2,2,0,0,1-4,0V12a2,2,0,0,1,4,0Z"/>
    </g>
  </g>
</svg>
