<svg xmlns="http://www.w3.org/2000/svg" width="48" height="48" viewBox="0 0 48 48">
  <title>computer-secured-solid</title>
  <g id="Layer_2" data-name="Layer 2">
    <g id="invisible_box" data-name="invisible box">
      <rect width="48" height="48" fill="none"/>
    </g>
    <g id="Q3_icons" data-name="Q3 icons">
      <g>
        <path d="M41,6H7A2,2,0,0,0,5,8V32a2,2,0,0,0,2,2H41a2,2,0,0,0,2-2V8A2,2,0,0,0,41,6ZM31,20.8c0,3.3-5.1,7.3-6.6,8.1h-.8c-1.4-.8-6.6-4.8-6.6-8.1V15.9L24,12l7,3.9Zm-7-4.2-3,1.7v2.5c.2.8,1.7,2.4,3,3.5Z"/>
        <path d="M44,38H4a2,2,0,0,0,0,4H44a2,2,0,0,0,0-4Z"/>
      </g>
    </g>
  </g>
</svg>
