<svg xmlns="http://www.w3.org/2000/svg" width="48" height="48" viewBox="0 0 48 48">
  <title>computer-secured</title>
  <g id="Layer_2" data-name="Layer 2">
    <g id="invisible_box" data-name="invisible box">
      <rect width="48" height="48" fill="none"/>
    </g>
    <g id="Q3_icons" data-name="Q3 icons">
      <g>
        <path d="M31,20.8V15.9L24,12l-7,3.9v4.9c0,3.4,5.2,7.3,6.6,8.1h.8C25.9,28.1,31,24.2,31,20.8Zm-4,0c-.2.8-1.7,2.4-3,3.5h0V16.6l3,1.7Z"/>
        <path d="M7,34H20V30H9V10H39V30H28v4H41a2,2,0,0,0,2-2V8a2,2,0,0,0-2-2H7A2,2,0,0,0,5,8V32A2,2,0,0,0,7,34Z"/>
        <path d="M44,38H4a2,2,0,0,0,0,4H44a2,2,0,0,0,0-4Z"/>
      </g>
    </g>
  </g>
</svg>
