<svg xmlns="http://www.w3.org/2000/svg" width="48" height="48" viewBox="0 0 48 48">
  <title>computer-setting-solid</title>
  <g id="Layer_2" data-name="Layer 2">
    <g id="invisible_box" data-name="invisible box">
      <rect width="48" height="48" fill="none"/>
    </g>
    <g id="icons_Q2" data-name="icons Q2">
      <g>
        <path d="M41,6H7A2,2,0,0,0,5,8V32a2,2,0,0,0,2,2H41a2,2,0,0,0,2-2V8A2,2,0,0,0,41,6ZM31.9,21.3l-2.2.5a4.2,4.2,0,0,1-.4,1l1.2,1.9a7.7,7.7,0,0,1-1.8,1.8l-1.9-1.2-1,.4-.5,2.2H22.7l-.5-2.2-1-.4-1.9,1.2a7.7,7.7,0,0,1-1.8-1.8l1.2-1.9a4.2,4.2,0,0,1-.4-1l-2.2-.5A5.7,5.7,0,0,1,16,20a5.7,5.7,0,0,1,.1-1.3l2.2-.5a4.2,4.2,0,0,1,.4-1l-1.2-1.9a7.7,7.7,0,0,1,1.8-1.8l1.9,1.2,1-.4.5-2.2h2.6l.5,2.2,1,.4,1.9-1.2a7.7,7.7,0,0,1,1.8,1.8l-1.2,1.9a4.2,4.2,0,0,1,.4,1l2.2.5A5.7,5.7,0,0,1,32,20,5.7,5.7,0,0,1,31.9,21.3ZM24,18a2,2,0,1,0,2,2A2,2,0,0,0,24,18Z"/>
        <path d="M44,38H4a2,2,0,0,0,0,4H44a2,2,0,0,0,0-4Z"/>
      </g>
    </g>
  </g>
</svg>
