<svg xmlns="http://www.w3.org/2000/svg" width="48" height="48" viewBox="0 0 48 48">
  <title>computer</title>
  <g id="Layer_2" data-name="Layer 2">
    <g id="invisible_box" data-name="invisible box">
      <rect width="48" height="48" fill="none"/>
    </g>
    <g id="icons_Q2" data-name="icons Q2">
      <path d="M39.2,10.3l-.4,20-30-.6.4-20,30,.6m2.1-4-34-.6A2.1,2.1,0,0,0,5.2,7.6l-.4,24a2,2,0,0,0,1.9,2.1l34,.6a2.1,2.1,0,0,0,2.1-1.9l.4-24a2,2,0,0,0-1.9-2.1Z"/>
      <path d="M44,42H4a2,2,0,0,1,0-4H44a2,2,0,0,1,0,4Z"/>
    </g>
  </g>
</svg>
