<svg xmlns="http://www.w3.org/2000/svg" width="48" height="48" viewBox="0 0 48 48">
  <title>container</title>
  <g id="Layer_2" data-name="Layer 2">
    <g id="invisible_box" data-name="invisible box">
      <rect width="48" height="48" fill="none"/>
    </g>
    <g id="icons_Q2" data-name="icons Q2">
      <path d="M42,10V38H6V10H42m2-4H4A2,2,0,0,0,2,8V40a2,2,0,0,0,2,2H44a2,2,0,0,0,2-2V8a2,2,0,0,0-2-2Z"/>
      <path d="M12,14a2,2,0,0,0-2,2V32a2,2,0,0,0,4,0V16a2,2,0,0,0-2-2Z"/>
      <path d="M20,14a2,2,0,0,0-2,2V32a2,2,0,0,0,4,0V16a2,2,0,0,0-2-2Z"/>
      <path d="M28,14a2,2,0,0,0-2,2V32a2,2,0,0,0,4,0V16a2,2,0,0,0-2-2Z"/>
      <path d="M36,14a2,2,0,0,0-2,2V32a2,2,0,0,0,4,0V16a2,2,0,0,0-2-2Z"/>
    </g>
  </g>
</svg>
