<svg xmlns="http://www.w3.org/2000/svg" width="48" height="48" viewBox="0 0 48 48">
  <title>contacts</title>
  <g id="Layer_2" data-name="Layer 2">
    <g id="invisible_box" data-name="invisible box">
      <rect width="48" height="48" fill="none"/>
    </g>
    <g id="icons_Q2" data-name="icons Q2">
      <g>
        <path d="M21,24a7,7,0,1,0-7-7A7,7,0,0,0,21,24Zm0-10a3,3,0,1,1-3,3A2.9,2.9,0,0,1,21,14Z"/>
        <path d="M12,38H30a2,2,0,0,0,2-2V29.4l-.9-.6a19.6,19.6,0,0,0-20.2,0l-.9.6V36A2,2,0,0,0,12,38Zm2-6.3a15.3,15.3,0,0,1,14,0V34H14Z"/>
        <path d="M36,3H6A2,2,0,0,0,4,5V43a2,2,0,0,0,2,2H36a2,2,0,0,0,2-2V5A2,2,0,0,0,36,3ZM34,41H8V7H34Z"/>
        <path d="M42,19H40V29h2a2,2,0,0,0,2-2V21A2,2,0,0,0,42,19Z"/>
        <path d="M42,31H40V41h2a2,2,0,0,0,2-2V33A2,2,0,0,0,42,31Z"/>
        <path d="M42,7H40V17h2a2,2,0,0,0,2-2V9A2,2,0,0,0,42,7Z"/>
      </g>
    </g>
  </g>
</svg>
