<svg xmlns="http://www.w3.org/2000/svg" width="48" height="48" viewBox="0 0 48 48">
  <g id="Layer_2" data-name="Layer 2">
    <g id="invisible_box" data-name="invisible box">
      <rect width="48" height="48" fill="none"/>
    </g>
    <g id="Health_Icons" data-name="Health Icons">
      <path d="M44,19a2,2,0,0,0-2,2v1H39.9a16.5,16.5,0,0,0-3.3-7.8l1.5-1.5.7.7a2.2,2.2,0,0,0,1.5.6,2,2,0,0,0,1.4-.6,1.9,1.9,0,0,0,0-2.8L37.4,6.3a2,2,0,1,0-2.8,2.8l.7.8-1.5,1.5A15.6,15.6,0,0,0,26,8.1V6h1a2,2,0,0,0,0-4H21a2,2,0,0,0,0,4h1V8.1a15.6,15.6,0,0,0-7.8,3.3L12.7,9.9l.7-.8a2,2,0,1,0-2.8-2.8L6.3,10.6a1.9,1.9,0,0,0,0,2.8,2,2,0,0,0,1.4.6,2.2,2.2,0,0,0,1.5-.6l.7-.7,1.5,1.5A16.5,16.5,0,0,0,8.1,22H6V21a2,2,0,0,0-4,0v6a2,2,0,0,0,4,0V26H8.1a16.5,16.5,0,0,0,3.3,7.8L9.9,35.3l-.7-.7a2.1,2.1,0,0,0-2.9,0,1.9,1.9,0,0,0,0,2.8l4.3,4.3a1.9,1.9,0,0,0,2.8,0,2.1,2.1,0,0,0,0-2.9l-.7-.7,1.5-1.5A16.5,16.5,0,0,0,22,39.9V42H21a2,2,0,0,0,0,4h6a2,2,0,0,0,0-4H26V39.9a16.5,16.5,0,0,0,7.8-3.3l1.5,1.5-.7.7a2.1,2.1,0,0,0,0,2.9,1.9,1.9,0,0,0,2.8,0l4.3-4.3a1.9,1.9,0,0,0,0-2.8,2.1,2.1,0,0,0-2.9,0l-.7.7-1.5-1.5A16.5,16.5,0,0,0,39.9,26H42v1a2,2,0,0,0,4,0V21A2,2,0,0,0,44,19ZM15,27a3,3,0,1,1,3-3A2.9,2.9,0,0,1,15,27Zm9,9a3,3,0,1,1,3-3A2.9,2.9,0,0,1,24,36Zm0-9a3,3,0,1,1,3-3A2.9,2.9,0,0,1,24,27Zm0-9a3,3,0,1,1,3-3A2.9,2.9,0,0,1,24,18Zm9,9a3,3,0,1,1,3-3A2.9,2.9,0,0,1,33,27Z"/>
    </g>
  </g>
</svg>
