<svg xmlns="http://www.w3.org/2000/svg" width="48" height="48" viewBox="0 0 48 48">
  <title>currency-euro-solid</title>
  <g id="Layer_2" data-name="Layer 2">
    <g id="invisible_box" data-name="invisible box">
      <rect width="48" height="48" fill="none"/>
    </g>
    <g id="icons_Q2" data-name="icons Q2">
      <path d="M38.5,35.4A15,15,0,0,1,27.6,40,15.7,15.7,0,0,1,13.1,30H22a2,2,0,0,0,0-4H12.1c0-.7-.1-1.3-.1-2s.1-1.3.1-2H22a2,2,0,0,0,0-4H13.1A15.7,15.7,0,0,1,27.6,8a15.5,15.5,0,0,1,11,4.7,2,2,0,0,0,2.8,0,1.9,1.9,0,0,0,0-2.8A19.2,19.2,0,0,0,27.6,4,19.7,19.7,0,0,0,8.9,18H4a2,2,0,0,0,0,4H8.1A13.4,13.4,0,0,0,8,24a13.4,13.4,0,0,0,.1,2H4a2,2,0,0,0,0,4H8.9a19.4,19.4,0,0,0,32.5,8.2,2.1,2.1,0,0,0,0-2.9A2.2,2.2,0,0,0,38.5,35.4Z"/>
    </g>
  </g>
</svg>
