<svg xmlns="http://www.w3.org/2000/svg" width="48" height="48" viewBox="0 0 48 48">
  <title>currency-bag-dollar-solid</title>
  <g id="Layer_2" data-name="Layer 2">
    <g id="invisible_box" data-name="invisible box">
      <rect width="48" height="48" fill="none"/>
    </g>
    <g id="Q3_icons" data-name="Q3 icons">
      <path d="M31.4,9.9l1.5-5.2A2,2,0,0,0,31,2.1h-.4L24,5.6,16.1,2h-.5a1.9,1.9,0,0,0-1.9,2.4l2.2,6C10,14.8,6,23.2,6,29.6,6,38.7,14.1,46,24,46s18-7.3,18-16.4C42,23,37.6,14.1,31.4,9.9ZM31,30.5a4.9,4.9,0,0,1-2,4,6.3,6.3,0,0,1-3,1.3V38a2,2,0,0,1-2,2,1.9,1.9,0,0,1-2-2V35.8A10.9,10.9,0,0,1,17.7,34a1.8,1.8,0,0,1-.3-2.6,2,2,0,0,1,2.8-.6,6.7,6.7,0,0,0,4.1,1.3h0c1.5,0,2.5-.6,2.5-1.4s0-1.1-3.3-1.8S17,27.1,17,23.4s2-4.7,5-5.3V16a1.9,1.9,0,0,1,2-2,2,2,0,0,1,2,2v2.2a12,12,0,0,1,3.1,1.3,1.9,1.9,0,0,1,.4,2.8,1.8,1.8,0,0,1-2.7.5,6.3,6.3,0,0,0-3.3-.9,3.4,3.4,0,0,0-1.8.4c-.3.3-.5.5-.5.9s0,1.1,3.5,1.8S31,26.8,31,30.5Z"/>
    </g>
  </g>
</svg>
