<svg xmlns="http://www.w3.org/2000/svg" width="48" height="48" viewBox="0 0 48 48">
  <title>currency-yen</title>
  <g id="Layer_2" data-name="Layer 2">
    <g id="invisible_box" data-name="invisible box">
      <rect width="48" height="48" fill="none"/>
    </g>
    <g id="icons_Q2" data-name="icons Q2">
      <path d="M40.6,4.8a1.9,1.9,0,0,0-3-.2L24,18.2,10.4,4.6a1.9,1.9,0,0,0-3,.2,2.1,2.1,0,0,0,.2,2.7L20.2,20H14a2,2,0,0,0,0,4h8v4H14a2,2,0,0,0,0,4h8V42a2,2,0,0,0,4,0V32h8a2,2,0,0,0,0-4H26V24h8a2,2,0,0,0,0-4H27.8L40.4,7.5A2.1,2.1,0,0,0,40.6,4.8Z"/>
    </g>
  </g>
</svg>
