<svg xmlns="http://www.w3.org/2000/svg" width="48" height="48" viewBox="0 0 48 48">
  <title>currency-revenue-solid</title>
  <g id="Layer_2" data-name="Layer 2">
    <g id="invisible_box" data-name="invisible box">
      <rect width="48" height="48" fill="none"/>
    </g>
    <g id="Q3_icons" data-name="Q3 icons">
      <path d="M44,7.1V14a2,2,0,0,1-2,2H35a2,2,0,0,1-2-2.3A2.1,2.1,0,0,1,35.1,12h2.3A18,18,0,0,0,6.1,22.2a2,2,0,0,1-2,1.8h0a2,2,0,0,1-2-2.2A22,22,0,0,1,40,8.9V7a2,2,0,0,1,2.3-2A2.1,2.1,0,0,1,44,7.1Z"/>
      <path d="M4,40.9V34a2,2,0,0,1,2-2h7a2,2,0,0,1,2,2.3A2.1,2.1,0,0,1,12.9,36H10.6A18,18,0,0,0,41.9,25.8a2,2,0,0,1,2-1.8h0a2,2,0,0,1,2,2.2A22,22,0,0,1,8,39.1V41a2,2,0,0,1-2.3,2A2.1,2.1,0,0,1,4,40.9Z"/>
      <path d="M24.7,22c-3.5-.7-3.5-1.3-3.5-1.8s.2-.6.5-.9a3.4,3.4,0,0,1,1.8-.4,6.3,6.3,0,0,1,3.3.9,1.8,1.8,0,0,0,2.7-.5,1.9,1.9,0,0,0-.4-2.8A9.1,9.1,0,0,0,26,15.3V13a2,2,0,0,0-4,0v2.2c-3,.5-5,2.5-5,5.2s3.3,4.9,6.5,5.5,3.3,1.3,3.3,1.8-1.1,1.4-2.5,1.4h0a6.7,6.7,0,0,1-4.1-1.3,2,2,0,0,0-2.8.6,1.8,1.8,0,0,0,.3,2.6A10.9,10.9,0,0,0,22,32.8V35a2,2,0,0,0,4,0V32.8a6.3,6.3,0,0,0,3-1.3,4.9,4.9,0,0,0,2-4h0C31,23.8,27.6,22.6,24.7,22Z"/>
    </g>
  </g>
</svg>
