<svg xmlns="http://www.w3.org/2000/svg" width="48" height="48" viewBox="0 0 48 48">
  <title>dashboard</title>
  <g id="Layer_2" data-name="Layer 2">
    <g id="invisible_box" data-name="invisible box">
      <rect width="48" height="48" fill="none"/>
    </g>
    <g id="icons_Q2" data-name="icons Q2">
      <g>
        <path d="M26,19.4V14a2,2,0,0,0-4,0v5.4A5.1,5.1,0,0,0,19,24a5,5,0,0,0,10,0A5.1,5.1,0,0,0,26,19.4Z"/>
        <path d="M24,2A22.1,22.1,0,0,0,2,24,21.6,21.6,0,0,0,8.3,39.4a1.9,1.9,0,0,0,2.8,0h0l3-3a2,2,0,0,0-2.8-2.8L9.8,35.1A19.2,19.2,0,0,1,6.1,26H8a2,2,0,0,0,0-4H6.1a18.5,18.5,0,0,1,3.8-9.2h0l1.4,1.3a1.9,1.9,0,0,0,2.8,0,1.9,1.9,0,0,0,0-2.8L12.8,9.9h0A18.5,18.5,0,0,1,22,6.1h0V8a2,2,0,0,0,4,0V6.1h0a18.5,18.5,0,0,1,9.2,3.8h0l-1.3,1.4a1.9,1.9,0,0,0,0,2.8,1.9,1.9,0,0,0,2.8,0l1.4-1.3h0A18.5,18.5,0,0,1,41.9,22H40a2,2,0,0,0,0,4h1.9a19.2,19.2,0,0,1-3.7,9.1l-1.5-1.5a2,2,0,1,0-2.8,2.8L37,39.5a2,2,0,0,0,2.7-.1A21.6,21.6,0,0,0,46,24,22.1,22.1,0,0,0,24,2Z"/>
      </g>
    </g>
  </g>
</svg>
