<svg xmlns="http://www.w3.org/2000/svg" width="48" height="48" viewBox="0 0 48 48">
  <title>dashboard-add</title>
  <g id="Layer_2" data-name="Layer 2">
    <g id="invisible_box" data-name="invisible box">
      <rect width="48" height="48" fill="none"/>
    </g>
    <g id="icons_Q2" data-name="icons Q2">
      <path d="M44,8H40V4a2,2,0,0,0-4,0V8H32a2,2,0,0,0,0,4h4v4a2,2,0,0,0,4,0V12h4a2,2,0,0,0,0-4Z"/>
      <g>
        <path d="M26,19.4V14a2,2,0,0,0-4,0v5.4A5.1,5.1,0,0,0,19,24a5,5,0,0,0,10,0A5.1,5.1,0,0,0,26,19.4Z"/>
        <path d="M24,2h2V8a2,2,0,0,1-4,0V6.1a19.6,19.6,0,0,0-4.9,1.3A14.5,14.5,0,0,0,12.8,10l1.3,1.3a1.9,1.9,0,0,1,0,2.8,1.9,1.9,0,0,1-2.8,0L10,12.8A17.7,17.7,0,0,0,6.1,22H8a2,2,0,0,1,0,4H6.1a18.4,18.4,0,0,0,3.7,9l1.5-1.4a2,2,0,0,1,2.8,2.8l-3,3h0a1.9,1.9,0,0,1-2.8,0A21.6,21.6,0,0,1,2,24,22.1,22.1,0,0,1,24,2Z"/>
        <path d="M46,24a21.8,21.8,0,0,1-6.3,15.4,2,2,0,0,1-2.7.1l-3.1-3.1a2,2,0,1,1,2.8-2.8L38.2,35a18.4,18.4,0,0,0,3.7-9H40a2,2,0,0,1,0-4h5.9A13.4,13.4,0,0,1,46,24Z"/>
      </g>
    </g>
  </g>
</svg>
