<svg xmlns="http://www.w3.org/2000/svg" width="48" height="48" viewBox="0 0 48 48">
  <title>data-storage-single</title>
  <g id="Layer_2" data-name="Layer 2">
    <g id="invisible_box" data-name="invisible box">
      <rect width="48" height="48" fill="none"/>
    </g>
    <g id="icons_Q2" data-name="icons Q2">
      <g>
        <path d="M42,20v8H6V20H42m2-4H4a2,2,0,0,0-2,2V30a2,2,0,0,0,2,2H44a2,2,0,0,0,2-2V18a2,2,0,0,0-2-2Z"/>
        <path d="M38,22a2,2,0,1,0,2,2,2,2,0,0,0-2-2Z"/>
        <path d="M32,22a2,2,0,1,0,2,2,2,2,0,0,0-2-2Z"/>
      </g>
    </g>
  </g>
</svg>
