<svg xmlns="http://www.w3.org/2000/svg" width="48" height="48" viewBox="0 0 48 48">
  <title>data-source-solid</title>
  <g id="Layer_2" data-name="Layer 2">
    <g id="invisible_box" data-name="invisible box">
      <rect width="48" height="48" fill="none"/>
    </g>
    <g id="icons_Q2" data-name="icons Q2">
      <path d="M46,9c0-6.8-19.8-7-22-7S2,2.2,2,9v7c0,.3,1.1,1.8,5.2,3.4h.3a40.3,40.3,0,0,0,8.6,2A65.6,65.6,0,0,0,24,22a65.6,65.6,0,0,0,7.9-.5,40.3,40.3,0,0,0,8.6-2h.3C44.9,17.8,46,16.3,46,16V9.3h0ZM2,31.3V39c0,6.8,19.8,7,22,7s22-.2,22-7V31.3C41.4,34.1,33.3,36,24,36S6.6,34.1,2,31.3Zm43.7-9.8a22.5,22.5,0,0,1-4.9,2.1A54.8,54.8,0,0,1,24,26,54.8,54.8,0,0,1,7.2,23.6a22.5,22.5,0,0,1-4.9-2.1L2,21.3V26c0,.3,1.2,1.9,5.5,3.5A50.2,50.2,0,0,0,24,32a50.2,50.2,0,0,0,16.5-2.5C44.8,27.9,46,26.3,46,26V21.3Z"/>
    </g>
  </g>
</svg>
