<svg xmlns="http://www.w3.org/2000/svg" width="48" height="48" viewBox="0 0 48 48">
  <title>data-science-solid</title>
  <g id="Layer_2" data-name="Layer 2">
    <g id="invisible_box" data-name="invisible box">
      <rect width="48" height="48" fill="none"/>
      <rect width="48" height="48" fill="none"/>
      <rect width="48" height="48" fill="none"/>
    </g>
    <g id="icons_Q2" data-name="icons Q2">
      <g>
        <path d="M43.1,13c-1.1-1.8-3.5-2.7-6.6-2.7a19.6,19.6,0,0,0-5.2.7C29.6,5.5,27,2,24,2s-5.6,3.5-7.3,9a19.6,19.6,0,0,0-5.2-.7c-3.1,0-5.5.9-6.6,2.7s.2,6.8,4,11c-3.8,4.2-5.5,8.3-4,11s3.5,2.7,6.6,2.7a19.6,19.6,0,0,0,5.2-.7c1.7,5.5,4.3,9,7.3,9s5.6-3.5,7.3-9a19.6,19.6,0,0,0,5.2.7c3.1,0,5.5-.9,6.6-2.7s-.2-6.8-4-11C42.9,19.8,44.6,15.7,43.1,13ZM24,5c1.1,0,3,2.3,4.4,6.8A38.9,38.9,0,0,0,24,13.4a38.9,38.9,0,0,0-4.4-1.6C21,7.3,22.9,5,24,5Zm6,19c0,1.4-.1,2.7-.2,3.9l-2.6,1.7L24,31.2l-3.2-1.6-2.6-1.7c-.1-1.2-.2-2.5-.2-3.9s.1-2.7.2-3.9l2.6-1.7L24,16.8l3.2,1.6,2.6,1.7C29.9,21.3,30,22.6,30,24Zm3-1.7L34.9,24,33,25.7V22.3Zm-3.6,9.5-.3,1.5-1.5-.5,1.1-.6Zm-9,1-1.5.5-.3-1.5.7.4ZM15,25.7,13.1,24,15,22.3v3.4Zm3.6-9.5.3-1.5,1.5.5-1.1.6Zm10.1-.4-1.1-.6,1.5-.5.3,1.5ZM7.5,14.5c.5-.7,2-1.2,4-1.2a18.6,18.6,0,0,1,4.5.6c-.3,1.4-.5,2.9-.7,4.5A38.4,38.4,0,0,0,11,21.9C7.9,18.5,6.9,15.6,7.5,14.5Zm4,20.2c-2,0-3.5-.5-4-1.2s.4-4,3.5-7.4a38.4,38.4,0,0,0,4.3,3.5c.2,1.6.4,3.1.7,4.5A18.6,18.6,0,0,1,11.5,34.7ZM24,43c-1.1,0-3-2.3-4.4-6.8A38.9,38.9,0,0,0,24,34.6a38.9,38.9,0,0,0,4.4,1.6C27,40.7,25.1,43,24,43Zm16.5-9.5c-.5.7-2,1.2-4,1.2a18.6,18.6,0,0,1-4.5-.6c.3-1.4.5-2.9.7-4.5A38.4,38.4,0,0,0,37,26.1C40.1,29.5,41.1,32.4,40.5,33.5ZM37,21.9a38.4,38.4,0,0,0-4.3-3.5c-.2-1.6-.4-3.1-.7-4.5a18.6,18.6,0,0,1,4.5-.6c2,0,3.5.5,4,1.2S40.1,18.5,37,21.9Z"/>
        <circle cx="24" cy="24" r="3"/>
      </g>
    </g>
  </g>
</svg>
