<svg xmlns="http://www.w3.org/2000/svg" width="48" height="48" viewBox="0 0 48 48">
  <title>data-storage-setting-solid</title>
  <g id="Layer_2" data-name="Layer 2">
    <g id="invisible_box" data-name="invisible box">
      <rect width="48" height="48" fill="none"/>
      <rect width="48" height="48" fill="none"/>
      <rect width="48" height="48" fill="none"/>
    </g>
    <g id="icons_Q2" data-name="icons Q2">
      <g>
        <path d="M26,32V42a2,2,0,0,0,2,2H44a2,2,0,0,0,2-2V32Zm6,6a2,2,0,1,1,2-2A2,2,0,0,1,32,38Zm6,0a2,2,0,1,1,2-2A2,2,0,0,1,38,38ZM26,20v8H46V20Zm6,6a2,2,0,1,1,2-2A2,2,0,0,1,32,26Zm6,0a2,2,0,1,1,2-2A2,2,0,0,1,38,26ZM44,4H4A2,2,0,0,0,2,6V16H46V6A2,2,0,0,0,44,4ZM32,14a2,2,0,1,1,2-2A2,2,0,0,1,32,14Zm6,0a2,2,0,1,1,2-2A2,2,0,0,1,38,14Z"/>
        <path d="M22,35.1V32.9L18.3,32a4.9,4.9,0,0,0-.4-1.1l2-3.2-1.6-1.6-3.2,2L14,27.6,13.1,24H10.9L10,27.6l-1.1.5-3.2-2L4.1,27.7l2,3.2A4.9,4.9,0,0,0,5.7,32L2,32.9v2.2l3.7.9a4.9,4.9,0,0,0,.4,1.1l-2,3.2,1.6,1.6,3.2-2,1.1.4.9,3.7h2.2l.9-3.7,1.1-.4,3.2,2,1.6-1.6-2-3.2a4.9,4.9,0,0,0,.4-1.1ZM12,37a3,3,0,1,1,3-3A2.9,2.9,0,0,1,12,37Z"/>
      </g>
    </g>
  </g>
</svg>
