<svg xmlns="http://www.w3.org/2000/svg" width="48" height="48" viewBox="0 0 48 48">
  <title>data-storage-check</title>
  <g id="Layer_2" data-name="Layer 2">
    <g id="invisible_box" data-name="invisible box">
      <rect width="48" height="48" fill="none"/>
    </g>
    <g id="icons_Q2" data-name="icons Q2">
      <g>
        <circle cx="38" cy="36" r="2"/>
        <circle cx="32" cy="36" r="2"/>
        <circle cx="38" cy="24" r="2"/>
        <circle cx="32" cy="24" r="2"/>
        <path d="M44,4H4A2,2,0,0,0,2,6V18a2,2,0,0,0,2,2H42v8H28a2,2,0,0,0,0,4H42v8H28a2,2,0,0,0,0,4H44a2,2,0,0,0,2-2V6A2,2,0,0,0,44,4ZM6,16V8H42v8Z"/>
        <circle cx="38" cy="12" r="2"/>
        <circle cx="32" cy="12" r="2"/>
        <path d="M19.6,26.6,9,37.2,6.4,34.6a1.9,1.9,0,0,0-3,.2,2.1,2.1,0,0,0,.2,2.7l4,3.9a1.9,1.9,0,0,0,2.8,0l12-12a2,2,0,0,0-2.8-2.8Z"/>
      </g>
    </g>
  </g>
</svg>
