<svg xmlns="http://www.w3.org/2000/svg" width="48" height="48" viewBox="0 0 48 48">
  <title>data-storage-setting</title>
  <g id="Layer_2" data-name="Layer 2">
    <g id="invisible_box" data-name="invisible box">
      <rect width="48" height="48" fill="none"/>
      <rect width="48" height="48" fill="none"/>
      <rect width="48" height="48" fill="none"/>
    </g>
    <g id="icons_Q2" data-name="icons Q2">
      <g>
        <circle cx="38" cy="36" r="2"/>
        <circle cx="32" cy="36" r="2"/>
        <circle cx="38" cy="24" r="2"/>
        <circle cx="32" cy="24" r="2"/>
        <path d="M44,4H4A2,2,0,0,0,2,6V18a2,2,0,0,0,2,2H42v8H28a2,2,0,0,0,0,4H42v8H28a2,2,0,0,0,0,4H44a2,2,0,0,0,2-2V6A2,2,0,0,0,44,4ZM6,16V8H42v8Z"/>
        <circle cx="38" cy="12" r="2"/>
        <circle cx="32" cy="12" r="2"/>
        <path d="M17.9,30.9l2-3.2-1.6-1.6-3.2,2L14,27.6,13.1,24H10.9L10,27.6l-1.1.5-3.2-2L4.1,27.7l2,3.2L5.6,32,2,32.9v2.2l3.6.9.5,1.1-2,3.2,1.6,1.6,3.2-2,1.1.5.9,3.6h2.2l.9-3.6,1.1-.5,3.2,2,1.6-1.6-2-3.2.5-1.1,3.6-.9V32.9L18.4,32ZM12,37a3,3,0,1,1,3-3A2.9,2.9,0,0,1,12,37Z"/>
      </g>
    </g>
  </g>
</svg>
