<svg xmlns="http://www.w3.org/2000/svg" width="48" height="48" viewBox="0 0 48 48">
  <title>data-storage-network</title>
  <g id="Layer_2" data-name="Layer 2">
    <g id="invisible_box" data-name="invisible box">
      <rect width="48" height="48" fill="none"/>
    </g>
    <g id="icons_Q2" data-name="icons Q2">
      <g>
        <circle cx="38" cy="24" r="2"/>
        <circle cx="32" cy="24" r="2"/>
        <path d="M44,4H4A2,2,0,0,0,2,6V30a2,2,0,0,0,2,2H22v4.4A5.1,5.1,0,0,0,19.4,39H7.2a2,2,0,0,0,0,4H19.4a5,5,0,0,0,9.2,0H41a2,2,0,0,0,0-4H28.6A5.1,5.1,0,0,0,26,36.4V32H44a2,2,0,0,0,2-2V6A2,2,0,0,0,44,4ZM24,42a1,1,0,1,1,1-1A.9.9,0,0,1,24,42ZM6,8H42v8H6ZM42,28H6V20H42Z"/>
        <circle cx="38" cy="12" r="2"/>
        <circle cx="32" cy="12" r="2"/>
      </g>
    </g>
  </g>
</svg>
