<svg xmlns="http://www.w3.org/2000/svg" width="48" height="48" viewBox="0 0 48 48">
  <title>denali</title>
  <g id="Layer_2" data-name="Layer 2">
    <g id="invisible_box" data-name="invisible box">
      <rect width="48" height="48" fill="none"/>
    </g>
    <g id="Q3_icons" data-name="Q3 icons">
      <path d="M28.9,41.8H45a.9.9,0,0,0,1-1,.6.6,0,0,0-.1-.4l-8-13.7a1.1,1.1,0,0,0-1.4-.3l-.3.3L28.1,40.3a1,1,0,0,0,.3,1.3Z"/>
      <path d="M31.5,30.8l4.2-7.1a.9.9,0,0,0,0-1L25.1,4.7a.9.9,0,0,0-1.3-.3c-.2,0-.3.2-.4.3l-4.2,7.1a1.1,1.1,0,0,0,0,1.1L29.8,30.8a.9.9,0,0,0,1.3.3Z"/>
      <path d="M16.8,15.7,2.1,40.3a1,1,0,0,0,.4,1.3l.5.2H24.3a.9.9,0,0,0,.8-.5l4-6.6a.9.9,0,0,0,0-1l-10.6-18a1.1,1.1,0,0,0-1.4-.3Z"/>
    </g>
  </g>
</svg>
