<svg xmlns="http://www.w3.org/2000/svg" width="48" height="48" viewBox="0 0 48 48">
  <g id="Layer_2" data-name="Layer 2">
    <g id="invisible_box" data-name="invisible box">
      <rect width="48" height="48" fill="none"/>
    </g>
    <g id="Layer_7" data-name="Layer 7">
      <g>
        <path d="M16,30H8l9.6-12.8a2,2,0,0,0,.2-2.1A1.9,1.9,0,0,0,16,14H4a2,2,0,0,0,0,4h8L2.4,30.8a2,2,0,0,0-.2,2.1A1.9,1.9,0,0,0,4,34H16a2,2,0,0,0,0-4Z"/>
        <path d="M25,22H21a2,2,0,0,0,0,4h4a2,2,0,0,0,0-4Z"/>
        <path d="M45.6,31.1,39.7,15.2a2.1,2.1,0,0,0-1.9-1.3h-2a2.1,2.1,0,0,0-1.9,1.3l-6,16a2,2,0,0,0,1.4,2.6,2,2,0,0,0,2.4-1.3l1.4-3.6h7.4l1.4,3.7a2.1,2.1,0,0,0,1.9,1.3l.9-.2A2.1,2.1,0,0,0,45.6,31.1Zm-11-6.2,2.2-6,2.2,6Z"/>
      </g>
    </g>
  </g>
</svg>
