<svg xmlns="http://www.w3.org/2000/svg" width="48" height="48" viewBox="0 0 48 48">
  <title>device-tablet</title>
  <g id="Layer_2" data-name="Layer 2">
    <g id="invisible_box" data-name="invisible box">
      <rect width="48" height="48" fill="none"/>
    </g>
    <g id="icons_Q2" data-name="icons Q2">
      <path d="M24,36a2,2,0,0,0-2,2h0a2,2,0,0,0,4,0h0a2,2,0,0,0-2-2Z"/>
      <path d="M38,6V42H10V6H38m2-4H8A2,2,0,0,0,6,4V44a2,2,0,0,0,2,2H40a2,2,0,0,0,2-2V4a2,2,0,0,0-2-2Z"/>
    </g>
  </g>
</svg>
