<svg xmlns="http://www.w3.org/2000/svg" width="48" height="48" viewBox="0 0 48 48">
  <title>device-mobile-comment-solid</title>
  <g id="Layer_2" data-name="Layer 2">
    <g id="invisible_box" data-name="invisible box">
      <rect width="48" height="48" fill="none"/>
    </g>
    <g id="icons_Q2" data-name="icons Q2">
      <path d="M37,2H11A2,2,0,0,0,9,4V44a2,2,0,0,0,2,2H37a2,2,0,0,0,2-2V4A2,2,0,0,0,37,2ZM25,40H23a2,2,0,0,1,0-4h2a2,2,0,0,1,0,4Zm7-19a1.1,1.1,0,0,1-1,1H20.9l-4.1,3.9a.5.5,0,0,1-.8-.4V13a1.1,1.1,0,0,1,1-1H31a1.1,1.1,0,0,1,1,1Z"/>
    </g>
  </g>
</svg>
