<svg xmlns="http://www.w3.org/2000/svg" width="48" height="48" viewBox="0 0 48 48">
  <title>device-mobile-priority-solid</title>
  <g id="Layer_2" data-name="Layer 2">
    <g id="invisible_box" data-name="invisible box">
      <rect width="48" height="48" fill="none"/>
    </g>
    <g id="icons_Q2" data-name="icons Q2">
      <path d="M37,2H11A2,2,0,0,0,9,4V44a2,2,0,0,0,2,2H37a2,2,0,0,0,2-2V4A2,2,0,0,0,37,2ZM22,11a2,2,0,0,1,4,0V21a2,2,0,0,1-4,0Zm2,14a2,2,0,1,1-2,2A2,2,0,0,1,24,25Zm1,15H23a2,2,0,0,1,0-4h2a2,2,0,0,1,0,4Z"/>
    </g>
  </g>
</svg>
