<svg xmlns="http://www.w3.org/2000/svg" width="48" height="48" viewBox="0 0 48 48">
  <title>device-tablet-notification</title>
  <g id="Layer_2" data-name="Layer 2">
    <g id="invisible_box" data-name="invisible box">
      <rect width="48" height="48" fill="none"/>
    </g>
    <g id="icons_Q2" data-name="icons Q2">
      <path d="M24,13a3.2,3.2,0,0,1,3.5,3.5v3.2a6.2,6.2,0,0,0,1.8,4.2H18.7l.3-.3A5.1,5.1,0,0,0,20.5,20V16.5A3.2,3.2,0,0,1,24,13m0-4a7.1,7.1,0,0,0-7.5,7.5V20a1.2,1.2,0,0,1-.4.9l-1.8,1.8a.9.9,0,0,0-.3.7V27a.9.9,0,0,0,1,1h5.5a3.5,3.5,0,0,0,7,0H33a.9.9,0,0,0,1-1V23.4a.9.9,0,0,0-.3-.7l-1.6-1.6a2.5,2.5,0,0,1-.6-1.4V16.5A7.2,7.2,0,0,0,24,9Z"/>
      <path d="M24,36a2,2,0,0,0-2,2h0a2,2,0,0,0,4,0h0a2,2,0,0,0-2-2Z"/>
      <path d="M38,6V42H10V6H38m2-4H8A2,2,0,0,0,6,4V44a2,2,0,0,0,2,2H40a2,2,0,0,0,2-2V4a2,2,0,0,0-2-2Z"/>
    </g>
  </g>
</svg>
