<svg xmlns="http://www.w3.org/2000/svg" width="48" height="48" viewBox="0 0 48 48">
  <title>device-tablet-solid</title>
  <g id="Layer_2" data-name="Layer 2">
    <g id="invisible_box" data-name="invisible box">
      <rect width="48" height="48" fill="none"/>
    </g>
    <g id="icons_Q2" data-name="icons Q2">
      <path d="M40,2H8A2,2,0,0,0,6,4V44a2,2,0,0,0,2,2H40a2,2,0,0,0,2-2V4A2,2,0,0,0,40,2ZM24,40a2.1,2.1,0,0,1-2-2,2,2,0,0,1,2-2,2.1,2.1,0,0,1,2,2A2,2,0,0,1,24,40Z"/>
    </g>
  </g>
</svg>
