<svg xmlns="http://www.w3.org/2000/svg" width="48" height="48" viewBox="0 0 48 48">
  <title>device-tablet-notification-solid</title>
  <g id="Layer_2" data-name="Layer 2">
    <g id="invisible_box" data-name="invisible box">
      <rect width="48" height="48" fill="none"/>
    </g>
    <g id="icons_Q2" data-name="icons Q2">
      <path d="M40,2H8A2,2,0,0,0,6,4V44a2,2,0,0,0,2,2H40a2,2,0,0,0,2-2V4A2,2,0,0,0,40,2ZM24,40a2.1,2.1,0,0,1-2-2,2,2,0,0,1,2-2,2.1,2.1,0,0,1,2,2A2,2,0,0,1,24,40ZM34,27a1.1,1.1,0,0,1-1,1H27.5a3.5,3.5,0,0,1-7,0H15a1.1,1.1,0,0,1-1-1V23.4a.9.9,0,0,1,.3-.7l1.9-1.9a1.1,1.1,0,0,0,.3-.8V16.5A7.1,7.1,0,0,1,24,9a7.2,7.2,0,0,1,7.5,7.5v3.2a2.5,2.5,0,0,0,.6,1.4l1.6,1.6a.9.9,0,0,1,.3.7Z"/>
    </g>
  </g>
</svg>
