<svg xmlns="http://www.w3.org/2000/svg" width="48" height="48" viewBox="0 0 48 48">
  <title>device-mobile-graph-solid</title>
  <g id="Layer_2" data-name="Layer 2">
    <g id="invisible_box" data-name="invisible box">
      <rect width="48" height="48" fill="none"/>
    </g>
    <g id="icons_Q2" data-name="icons Q2">
      <path d="M37,2H11A2,2,0,0,0,9,4V26.2l10-10,3.9,3.9,5.6-5.8A2,2,0,0,1,32,15.6h0a1.9,1.9,0,0,1-.5,1.3l-8.4,8.9L19,21.8,9,31.8V44a2,2,0,0,0,2,2H37a2,2,0,0,0,2-2V4A2,2,0,0,0,37,2ZM25,40H23a2,2,0,0,1,0-4h2a2,2,0,0,1,0,4Z"/>
    </g>
  </g>
</svg>
