<svg xmlns="http://www.w3.org/2000/svg" width="48" height="48" viewBox="0 0 48 48">
  <title>domain-solid</title>
  <g id="Layer_2" data-name="Layer 2">
    <g id="invisible_box" data-name="invisible box">
      <rect width="48" height="48" fill="none"/>
    </g>
    <g id="icons_Q2" data-name="icons Q2">
      <path d="M19,10.4A32.8,32.8,0,0,0,16.9,16H22V6.7A11.7,11.7,0,0,0,19,10.4Z"/>
      <path d="M16,24c0,1.3.1,2.7.2,4H22V20H16.2C16.1,21.3,16,22.6,16,24Z"/>
      <path d="M19,37.6a11.7,11.7,0,0,0,3,3.7V32H16.9A32.8,32.8,0,0,0,19,37.6Z"/>
      <path d="M29,37.6A32.8,32.8,0,0,0,31.1,32H26v9.3A11.7,11.7,0,0,0,29,37.6Z"/>
      <path d="M29,10.4a11.7,11.7,0,0,0-3-3.7V16h5.1A32.8,32.8,0,0,0,29,10.4Z"/>
      <path d="M32,24c0-1.4-.1-2.7-.2-4H26v8h5.8C31.9,26.7,32,25.3,32,24Z"/>
      <path d="M12.2,20c-.1,1.3-.2,2.6-.2,4s.1,2.7.2,4H2.4A17.5,17.5,0,0,1,2,24a17.5,17.5,0,0,1,.4-4Z"/>
      <path d="M22,2.1v.2h0a.5.5,0,0,0-.4.2h-.5a13.1,13.1,0,0,0-2.8,2l-.4.4a16.1,16.1,0,0,0-2.1,3h0a4.1,4.1,0,0,0-.5.9l-.9,1.8a4.2,4.2,0,0,1-.4,1l-.3,1-.3.9c-.2.7-.4,1.6-.6,2.4H3.5a25.3,25.3,0,0,1,1.8-3.7l.4-.5A19.5,19.5,0,0,1,7.4,9.5L7.9,9c.2-.2.3-.4.5-.5A11.4,11.4,0,0,1,10.1,7a.8.8,0,0,1,.4-.4l.3-.2.7-.5.6-.4.8-.5.6-.4.8-.3.6-.3a22.8,22.8,0,0,1,6.3-1.8H22Z"/>
      <path d="M22,45.7v.2h-.8A22.8,22.8,0,0,1,14.9,44l-.6-.3-.8-.4-.6-.3-.8-.5-.6-.4-.7-.5-.3-.3c-.2,0-.3-.1-.4-.3a11.4,11.4,0,0,1-1.7-1.5c-.2-.1-.3-.3-.5-.5s-.3-.4-.5-.5a19.5,19.5,0,0,1-1.7-2.3,2.1,2.1,0,0,0-.4-.6A20.2,20.2,0,0,1,3.5,32h9.3l.6,2.4.3.9.3,1a4.2,4.2,0,0,1,.4,1l.9,1.8a4.1,4.1,0,0,0,.5.9h0a16.1,16.1,0,0,0,2.1,3l.4.3a8.6,8.6,0,0,0,2.8,2l.4.2Z"/>
      <path d="M44.5,16H35.2l-.6-2.4-.3-.9-.3-1a4.2,4.2,0,0,1-.4-1l-.9-1.8a4.1,4.1,0,0,0-.5-.9h0a16.1,16.1,0,0,0-2.1-3l-.4-.4a13.1,13.1,0,0,0-2.8-2h-.5a.5.5,0,0,0-.4-.2h0V2.1h.8A22.8,22.8,0,0,1,33.1,4l.6.3.8.3.6.4.8.5.6.4.7.5.3.2a.8.8,0,0,1,.4.4,11.4,11.4,0,0,1,1.7,1.5l.5.5c.2.2.3.4.5.5a19.5,19.5,0,0,1,1.7,2.3l.4.5A25.3,25.3,0,0,1,44.5,16Z"/>
      <path d="M44.5,32a20.2,20.2,0,0,1-1.8,3.6,2.1,2.1,0,0,0-.4.6,19.5,19.5,0,0,1-1.7,2.3c-.2.1-.3.3-.5.5l-.5.5A11.4,11.4,0,0,1,37.9,41c-.1.2-.2.3-.4.3l-.3.3-.7.5-.6.4-.8.5-.6.3-.8.4-.6.3a22.8,22.8,0,0,1-6.3,1.8H26v-.2l.5-.2.4-.2a8.6,8.6,0,0,0,2.8-2l.4-.3a16.1,16.1,0,0,0,2.1-3h0a4.1,4.1,0,0,0,.5-.9l.9-1.8a4.2,4.2,0,0,1,.4-1l.3-1,.3-.9.6-2.4Z"/>
      <path d="M46,24a17.5,17.5,0,0,1-.4,4H35.8c.1-1.3.2-2.6.2-4s-.1-2.7-.2-4h9.8A17.5,17.5,0,0,1,46,24Z"/>
    </g>
  </g>
</svg>
