<svg xmlns="http://www.w3.org/2000/svg" width="48" height="48" viewBox="0 0 48 48">
  <title>download-solid</title>
  <g id="Layer_2" data-name="Layer 2">
    <g id="invisible_box" data-name="invisible box">
      <rect width="48" height="48" fill="none"/>
    </g>
    <g id="icons_Q2" data-name="icons Q2">
      <path d="M42,44H6a2,2,0,0,1,0-4H42a2,2,0,0,1,0,4Z"/>
      <path d="M12.6,25.5l10,9.9a1.9,1.9,0,0,0,2.8,0l10-9.9a2.1,2.1,0,0,0,.2-2.7,1.9,1.9,0,0,0-3-.2L26,29.2V6a2,2,0,0,0-4,0V29.2l-6.6-6.6a1.9,1.9,0,0,0-3,.2A2.1,2.1,0,0,0,12.6,25.5Z"/>
    </g>
  </g>
</svg>
