<svg xmlns="http://www.w3.org/2000/svg" width="48" height="48" viewBox="0 0 48 48">
  <title>dragonfly</title>
  <g id="Layer_2" data-name="Layer 2">
    <g id="invisible_box" data-name="invisible box">
      <rect width="48" height="48" fill="none"/>
    </g>
    <g id="Q3_icons" data-name="Q3 icons">
      <path d="M45.5,16.2a2,2,0,0,0-1.1-.3,17,17,0,0,0-5.5.2A9.9,9.9,0,0,0,33.6,19l-.9.9L31.6,21l-2.8,2.7a76,76,0,0,1-7.6,6.2,23.6,23.6,0,0,1-3.1,2l5.8-2.1Q29.5,27.6,35,25c3.8-1.8,7.6-3.7,10.5-6.9C46,17.6,46.3,16.7,45.5,16.2Z"/>
      <path d="M15,26q-1.4,2.8-2.4,5.7c-.3.9-.1,2,1,1.5a14.9,14.9,0,0,0,3-1.8c2.8-2.1,5.3-4.5,7.9-6.8a55.4,55.4,0,0,0,6.8-6.9,26.3,26.3,0,0,0,3.8-5.6,23.2,23.2,0,0,0,2.2-5.9,3.3,3.3,0,0,0-1.9-4,4.1,4.1,0,0,0-2.9.2C29.6,3.7,27.3,6.6,25.3,9a88.7,88.7,0,0,0-5.5,8.1l-1.9,3.4-.7,1.3C16.4,23.2,15.7,24.6,15,26Z"/>
      <ellipse cx="7.7" cy="24.9" rx="5.7" ry="5.7"/>
      <ellipse cx="17.3" cy="37.2" rx="2.9" ry="2.9"/>
      <ellipse cx="18" cy="43.9" rx="2.1" ry="2.1"/>
    </g>
  </g>
</svg>
