<svg xmlns="http://www.w3.org/2000/svg" width="48" height="48" viewBox="0 0 48 48">
  <title>duplicate</title>
  <g id="Layer_2" data-name="Layer 2">
    <g id="invisible_box" data-name="invisible box">
      <rect width="48" height="48" fill="none"/>
    </g>
    <g id="icons_Q2" data-name="icons Q2">
      <path d="M36,12V6a2,2,0,0,0-2-2H6A2,2,0,0,0,4,6V34a2,2,0,0,0,2,2h6v6a2,2,0,0,0,2,2H42a2,2,0,0,0,2-2V14a2,2,0,0,0-2-2ZM8,32V8H32V32Zm32,8H16V36H34a2,2,0,0,0,2-2V16h4Z"/>
    </g>
  </g>
</svg>
