<svg xmlns="http://www.w3.org/2000/svg" width="48" height="48" viewBox="0 0 48 48">
  <title>eject-circle</title>
  <g id="Layer_2" data-name="Layer 2">
    <g id="invisible_box" data-name="invisible box">
      <rect width="48" height="48" fill="none"/>
    </g>
    <g id="icons_Q2" data-name="icons Q2">
      <path d="M14,33h0a2,2,0,0,1,2-2H32a2,2,0,0,1,2,2h0a2,2,0,0,1-2,2H16A2,2,0,0,1,14,33Zm.2-7.7a1.1,1.1,0,0,0,.9,1.7H32.9a1.1,1.1,0,0,0,.9-1.7l-9-13.8a.9.9,0,0,0-1.6,0ZM24,6A18,18,0,1,0,42,24,18.1,18.1,0,0,0,24,6m0-4A22,22,0,1,1,2,24,21.9,21.9,0,0,1,24,2Z"/>
    </g>
  </g>
</svg>
