<svg xmlns="http://www.w3.org/2000/svg" xmlns:xlink="http://www.w3.org/1999/xlink" width="48" height="48" viewBox="0 0 48 48">
  <title>ember</title>
  <g id="Layer_2" data-name="Layer 2">
    <g id="invisible_box" data-name="invisible box">
      <rect width="48" height="48" fill="none"/>
    </g>
    <g id="Q3_icons" data-name="Q3 icons">
      <path d="M7.8,4.3H39.9a3.8,3.8,0,0,1,3.8,3.8V40.2A3.8,3.8,0,0,1,39.9,44H7.8A3.8,3.8,0,0,1,4,40.2V8.1A3.8,3.8,0,0,1,7.8,4.3ZM24.1,30.8c-3.7.1-3.3-2.3-3.3-2.3s13.6-4.7,9.9-13.9c-1.7-2.4-3.6-3.1-6.4-3.1s-6.1,1.8-8.3,6.7a20,20,0,0,0-1.6,6.3s-2.4.5-3.7-.6-2,0-2,0-2.2,2.6,0,3.5a19.7,19.7,0,0,0,5.6,1h0a8.4,8.4,0,0,0,3.9,6.4C23,37.9,30,34.6,30,34.6a24.2,24.2,0,0,0,8.3-5.8,1.1,1.1,0,0,0-.1-1.5l-1.3-1.4a1,1,0,0,0-1.5-.1c-1.9,1.5-6.7,5-11.3,5Zm-4-6.5c.2-6.4,4.4-9.2,5.9-7.8s.9,4.4-1.9,6.3-4,1.5-4,1.5Z"/>
    </g>
  </g>
</svg>
