<svg xmlns="http://www.w3.org/2000/svg" width="48" height="48" viewBox="0 0 48 48">
  <title>escalate-solid</title>
  <g id="Layer_2" data-name="Layer 2">
    <g id="invisible_box" data-name="invisible box">
      <rect width="48" height="48" fill="none"/>
    </g>
    <g id="icons_Q2" data-name="icons Q2">
      <path d="M39.6,8.4a22.3,22.3,0,0,0-31.2,0A22.1,22.1,0,0,0,2,23.8a2,2,0,0,0,.6,1.4,1.7,1.7,0,0,0,1.4.6,2,2,0,0,0,2-2,17.4,17.4,0,0,1,5.3-12.5A18,18,0,0,1,36.7,36.7,18.1,18.1,0,0,1,26,41.9V22.8l4.6,4.6a1.9,1.9,0,0,0,3-.2,2.1,2.1,0,0,0-.2-2.7l-8-7.9a1.9,1.9,0,0,0-2.8,0l-8,7.9a2.1,2.1,0,0,0-.2,2.7,1.9,1.9,0,0,0,3,.2L22,22.8V44a2,2,0,0,0,2,2h.2a22.1,22.1,0,0,0,15.4-6.4A22.3,22.3,0,0,0,39.6,8.4Z"/>
    </g>
  </g>
</svg>
