<svg xmlns="http://www.w3.org/2000/svg" width="48" height="48" viewBox="0 0 48 48">
  <title>exit-to-app</title>
  <g id="Layer_2" data-name="Layer 2">
    <g id="invisible_box" data-name="invisible box">
      <rect width="48" height="48" fill="none"/>
    </g>
    <g id="icons_Q2" data-name="icons Q2">
      <path d="M44,42V6a2,2,0,0,0-2-2H6A2,2,0,0,0,4,6v5a2,2,0,0,0,2.3,2A2.1,2.1,0,0,0,8,10.9V8H40V40H8V37a2,2,0,0,0-2.3-2A2.1,2.1,0,0,0,4,37.1V42a2,2,0,0,0,2,2H42A2,2,0,0,0,44,42Z"/>
      <path d="M22.5,34.4l8.9-9a1.9,1.9,0,0,0,0-2.8l-8.9-9a2.1,2.1,0,0,0-2.7-.2,1.9,1.9,0,0,0-.2,3L25.2,22H6a2,2,0,0,0,0,4H25.2l-5.6,5.6a1.9,1.9,0,0,0,.2,3A2.1,2.1,0,0,0,22.5,34.4Z"/>
    </g>
  </g>
</svg>
