<svg xmlns="http://www.w3.org/2000/svg" width="48" height="48" viewBox="0 0 48 48">
  <title>exit-to-app-solid</title>
  <g id="Layer_2" data-name="Layer 2">
    <g id="invisible_box" data-name="invisible box">
      <rect width="48" height="48" fill="none"/>
    </g>
    <g id="icons_Q2" data-name="icons Q2">
      <path d="M42,4H6A2,2,0,0,0,4,6V22H25.2l-5.6-5.6a2,2,0,0,1,.2-3.1,2.3,2.3,0,0,1,2.7.3l8.9,9a1.9,1.9,0,0,1,0,2.8l-8.9,8.9a2,2,0,0,1-2.7.3,1.9,1.9,0,0,1-.2-3L25.2,26H4V42a2,2,0,0,0,2,2H42a2,2,0,0,0,2-2V6A2,2,0,0,0,42,4Z"/>
    </g>
  </g>
</svg>
