<svg xmlns="http://www.w3.org/2000/svg" width="48" height="48" viewBox="0 0 48 48">
  <title>expand-fullscreen</title>
  <g id="Layer_2" data-name="Layer 2">
    <g id="invisible_box" data-name="invisible box">
      <rect width="48" height="48" fill="none"/>
    </g>
    <g id="icons_Q2" data-name="icons Q2">
      <g>
        <path d="M18.6,26.6,8,37.2V30.1A2.1,2.1,0,0,0,6.3,28,2,2,0,0,0,4,30V42a2,2,0,0,0,2,2H17.9A2.1,2.1,0,0,0,20,42.3,2,2,0,0,0,18,40H10.8L21.3,29.5a2.1,2.1,0,0,0,.3-2.7A1.9,1.9,0,0,0,18.6,26.6Z"/>
        <path d="M30,4a2,2,0,0,0-2,2.3A2.1,2.1,0,0,0,30.1,8h7.1L26.7,18.5a2,2,0,0,0-.2,2.8A1.8,1.8,0,0,0,28,22a2,2,0,0,0,1.4-.6L40,10.8v7.1A2.1,2.1,0,0,0,41.7,20,2,2,0,0,0,44,18V6a2,2,0,0,0-2-2Z"/>
      </g>
    </g>
  </g>
</svg>
