<svg xmlns="http://www.w3.org/2000/svg" width="48" height="48" viewBox="0 0 48 48">
  <title>expand-horizontal</title>
  <g id="Layer_2" data-name="Layer 2">
    <g id="invisible_box" data-name="invisible box">
      <rect width="48" height="48" fill="none"/>
    </g>
    <g id="Q3_icons" data-name="Q3 icons">
      <g>
        <path d="M30.6,28.6a1.9,1.9,0,0,0,.2,3,2.1,2.1,0,0,0,2.7-.2l5.9-6a1.9,1.9,0,0,0,0-2.8l-5.9-6a2.1,2.1,0,0,0-2.7-.2,1.9,1.9,0,0,0-.2,3L33.2,22H14.8l2.6-2.6a1.9,1.9,0,0,0-.2-3,2.1,2.1,0,0,0-2.7.2l-5.9,6a1.9,1.9,0,0,0,0,2.8l5.9,6a2.1,2.1,0,0,0,2.7.2,1.9,1.9,0,0,0,.2-3L14.8,26H33.2Z"/>
        <path d="M42,6V42a2,2,0,0,0,4,0V6a2,2,0,0,0-4,0Z"/>
        <path d="M6,42V6A2,2,0,0,0,2,6V42a2,2,0,0,0,4,0Z"/>
      </g>
    </g>
  </g>
</svg>
