<svg xmlns="http://www.w3.org/2000/svg" width="48" height="48" viewBox="0 0 48 48">
  <title>explore</title>
  <g id="Layer_2" data-name="Layer 2">
    <g id="invisible_box" data-name="invisible box">
      <rect width="48" height="48" fill="none"/>
    </g>
    <g id="icons_Q2" data-name="icons Q2">
      <path d="M24,6A18,18,0,1,1,6,24,18.1,18.1,0,0,1,24,6m0-4A22,22,0,1,0,46,24,21.9,21.9,0,0,0,24,2Z"/>
      <path d="M33.3,13.3,20,20,13.3,33.3a1.1,1.1,0,0,0,1.4,1.4L28,28l6.7-13.3A1.1,1.1,0,0,0,33.3,13.3ZM24,26a2,2,0,1,1,2-2A2,2,0,0,1,24,26Z"/>
    </g>
  </g>
</svg>
