<svg xmlns="http://www.w3.org/2000/svg" width="48" height="48" viewBox="0 0 48 48">
  <title>explore-solid</title>
  <g id="Layer_2" data-name="Layer 2">
    <g id="invisible_box" data-name="invisible box">
      <rect width="48" height="48" fill="none"/>
    </g>
    <g id="icons_Q2" data-name="icons Q2">
      <path d="M24,2A22,22,0,1,0,46,24,21.9,21.9,0,0,0,24,2ZM34.7,14.7,28,28,14.7,34.7a1.1,1.1,0,0,1-1.4-1.4L20,20l13.3-6.7A1.1,1.1,0,0,1,34.7,14.7ZM24,22a2,2,0,1,0,2,2A2,2,0,0,0,24,22Z"/>
      <path d="M24,22a2,2,0,1,0,2,2A2,2,0,0,0,24,22Zm0,0a2,2,0,1,0,2,2A2,2,0,0,0,24,22Z"/>
    </g>
  </g>
</svg>
