<svg xmlns="http://www.w3.org/2000/svg" width="48" height="48" viewBox="0 0 48 48">
  <title>eye-close-solid</title>
  <g id="Layer_2" data-name="Layer 2">
    <g id="invisible_box" data-name="invisible box">
      <rect width="48" height="48" fill="none"/>
    </g>
    <g id="icons_Q2" data-name="icons Q2">
      <g>
        <path d="M45.3,22.1C43.2,19.5,35.4,11,24,11a23.4,23.4,0,0,0-3.8.3L39.9,31.1a30.1,30.1,0,0,0,5.4-5.2A3,3,0,0,0,45.3,22.1Z"/>
        <path d="M41.1,38.3,29.4,26.6A5.9,5.9,0,0,1,24,30a6,6,0,0,1-6-6,5.9,5.9,0,0,1,3.4-5.4L9.7,6.9A2,2,0,0,0,6.9,9.7l4.8,4.8a31.4,31.4,0,0,0-9,7.6,3,3,0,0,0,0,3.8C4.8,28.5,12.6,37,24,37a25.2,25.2,0,0,0,8.5-1.6l5.8,5.7a2,2,0,1,0,2.8-2.8Z"/>
      </g>
    </g>
  </g>
</svg>
