<svg xmlns="http://www.w3.org/2000/svg" width="48" height="48" viewBox="0 0 48 48">
  <g id="Layer_2" data-name="Layer 2">
    <g id="invisible_box" data-name="invisible box">
      <rect width="48" height="48" fill="none"/>
    </g>
    <g id="Layer_6" data-name="Layer 6">
      <g>
        <path d="M6,16a2,2,0,0,0,2-2V8h6a2,2,0,0,0,0-4H7A2.9,2.9,0,0,0,4,7v7A2,2,0,0,0,6,16Z"/>
        <path d="M14,40H8V34a2,2,0,0,0-4,0v7a2.9,2.9,0,0,0,3,3h7a2,2,0,0,0,0-4Z"/>
        <path d="M41,4H34a2,2,0,0,0,0,4h6v6a2,2,0,0,0,4,0V7A2.9,2.9,0,0,0,41,4Z"/>
        <path d="M42,32a2,2,0,0,0-2,2v6H34a2,2,0,0,0,0,4h7a2.9,2.9,0,0,0,3-3V34A2,2,0,0,0,42,32Z"/>
        <path d="M13,16v4a2,2,0,0,0,4,0V16a2,2,0,0,0-4,0Z"/>
        <path d="M33,22a2,2,0,0,0,2-2V16a2,2,0,0,0-4,0v4A2,2,0,0,0,33,22Z"/>
        <path d="M21,27a6,6,0,0,0,6-6V16a2,2,0,0,0-4,0v5a2,2,0,0,1-2,2,2,2,0,0,0,0,4Z"/>
        <path d="M33.5,31.3a2,2,0,0,0-3-2.6A8.6,8.6,0,0,1,24,32a8.6,8.6,0,0,1-6.5-3.3,2,2,0,1,0-3,2.6A12.5,12.5,0,0,0,24,36,12.5,12.5,0,0,0,33.5,31.3Z"/>
      </g>
    </g>
  </g>
</svg>
