<svg xmlns="http://www.w3.org/2000/svg" width="48" height="48" viewBox="0 0 48 48">
  <title>facebook</title>
  <g id="Layer_2" data-name="Layer 2">
    <g id="invisible_box" data-name="invisible box">
      <rect width="48" height="48" fill="none"/>
      <rect width="48" height="48" fill="none"/>
    </g>
    <g id="icons_Q2" data-name="icons Q2">
      <path d="M44,6.1V41.9a.3.3,0,0,1-.1.2,1.9,1.9,0,0,1-1.8,1.8H31.6V28.5h4.9c.3,0,.3,0,.4-.3l.3-2.5c.1-1,.2-2,.4-3s0-.3-.2-.3H31.6V18.5c0-.3.1-.7.1-1a1.8,1.8,0,0,1,1.6-1.6l1.3-.2h3c.2,0,.2,0,.2-.2V10.4c0-.1,0-.2-.2-.2H33a7.2,7.2,0,0,0-3.3.7A6,6,0,0,0,26.2,14a7.3,7.3,0,0,0-.8,3.6c-.1,1.5,0,3.1,0,4.7H20.3c-.2,0-.2.1-.2.2v5.7c0,.2,0,.2.2.2h5.1V43.8a.3.3,0,0,0-.1.2H5.9a1.9,1.9,0,0,1-1.8-1.8c-.1,0-.1-.1-.1-.2V6.1c0-.1,0-.2.1-.2A1.9,1.9,0,0,1,5.9,4.1H42.1a1.9,1.9,0,0,1,1.8,1.8Z"/>
    </g>
  </g>
</svg>
