<svg xmlns="http://www.w3.org/2000/svg" width="48" height="48" viewBox="0 0 48 48">
  <title>file-edit-solid</title>
  <g id="Layer_2" data-name="Layer 2">
    <g id="invisible_box" data-name="invisible box">
      <rect width="48" height="48" fill="none"/>
      <rect width="48" height="48" fill="none"/>
    </g>
    <g id="icons_Q2" data-name="icons Q2">
      <path d="M28.9,41H22V34.1l6.4-6.4,6.9,6.9Zm9.2-9.2-6.9-6.9,3-3.1,7,7Zm7.3-4.4-5.6-5.6a2.9,2.9,0,0,0,.2-.9V5a2,2,0,0,0-2-2H6A2,2,0,0,0,4,5V43a2,2,0,0,0,2,2H29.8a2,2,0,0,0,1.4-.6L45.4,30.2A1.9,1.9,0,0,0,45.4,27.4ZM16.2,34H15a2,2,0,0,1,0-4h5.2Zm8-8H15a2,2,0,0,1,0-4H28.2Zm6.2-8.6A2,2,0,0,1,29,18H15a2,2,0,0,1-2-2,2.1,2.1,0,0,1,2-2H29a2,2,0,0,1,2,2A2,2,0,0,1,30.4,17.4Z"/>
    </g>
  </g>
</svg>
