<svg xmlns="http://www.w3.org/2000/svg" width="48" height="48" viewBox="0 0 48 48">
  <title>file-text</title>
  <g id="Layer_2" data-name="Layer 2">
    <g id="invisible_box" data-name="invisible box">
      <rect width="48" height="48" fill="none"/>
    </g>
    <g id="icons_Q2" data-name="icons Q2">
      <rect x="14" y="14" width="20" height="4" rx="2" ry="2"/>
      <rect x="14" y="22" width="20" height="4" rx="2" ry="2"/>
      <rect x="14" y="30" width="12" height="4" rx="2" ry="2"/>
      <path d="M38,7V41H10V7H38m2-4H8A2,2,0,0,0,6,5V43a2,2,0,0,0,2,2H40a2,2,0,0,0,2-2V5a2,2,0,0,0-2-2Z"/>
    </g>
  </g>
</svg>
