<svg xmlns="http://www.w3.org/2000/svg" width="48" height="48" viewBox="0 0 48 48">
  <title>file-add-solid</title>
  <g id="Layer_2" data-name="Layer 2">
    <g id="invisible_box" data-name="invisible box">
      <rect width="48" height="48" fill="none"/>
    </g>
    <g id="icons_Q2" data-name="icons Q2">
      <g>
        <path d="M37,13H35V11a2.1,2.1,0,0,0-2-2,2,2,0,0,0-2,2v2H29a2.1,2.1,0,0,0-2,2,2,2,0,0,0,2,2h2v2a2.1,2.1,0,0,0,2,2,2,2,0,0,0,2-2V17h2a2.1,2.1,0,0,0,2-2A2,2,0,0,0,37,13Z"/>
        <path d="M46,15A13,13,0,0,0,33,2a13.5,13.5,0,0,0-5,1H8A2,2,0,0,0,6,5V43a2,2,0,0,0,2,2H40a2,2,0,0,0,2-2V24.4A12.9,12.9,0,0,0,46,15ZM33,24a9,9,0,1,1,9-9A9,9,0,0,1,33,24Z"/>
      </g>
    </g>
  </g>
</svg>
