<svg xmlns="http://www.w3.org/2000/svg" width="48" height="48" viewBox="0 0 48 48">
  <title>file-search-solid</title>
  <g id="Layer_2" data-name="Layer 2">
    <g id="invisible_box" data-name="invisible box">
      <path d="M0,0V48H48V0ZM22.5,15a9.1,9.1,0,0,0,2.4,4H14a2,2,0,0,1,0-4ZM14,23H30a2,2,0,0,1,0,4H14a2,2,0,0,1,0-4Zm0,8h8a2,2,0,0,1,0,4H14a2,2,0,0,1,0-4Z" fill="none"/>
    </g>
    <g id="icons_Q2" data-name="icons Q2">
      <path d="M45.4,22.6l-5.1-5.1A9.7,9.7,0,0,0,42,12,10,10,0,0,0,32,2a9.8,9.8,0,0,0-6,2H6A2,2,0,0,0,4,6V44a2,2,0,0,0,2,2H38a2,2,0,0,0,2-2V22.8l2.6,2.6a1.9,1.9,0,0,0,2.8,0A1.9,1.9,0,0,0,45.4,22.6ZM32,6a6,6,0,1,1-6,6A6,6,0,0,1,32,6ZM14,15h8.5a3,3,0,0,0,.4,1,.4.4,0,0,0,.1.3,2.5,2.5,0,0,0,.4.7c0,.1.1.2.1.3l.5.6c0,.1.1.2.2.3l.6.7a.1.1,0,0,0,.1.1H14a2,2,0,0,1,0-4Zm8,20H14a2,2,0,0,1,0-4h8a2,2,0,0,1,0,4Zm8-8H14a2,2,0,0,1,0-4H30a2,2,0,0,1,0,4Z"/>
    </g>
  </g>
</svg>
