<svg xmlns="http://www.w3.org/2000/svg" width="48" height="48" viewBox="0 0 48 48">
  <title>file-text-solid</title>
  <g id="Layer_2" data-name="Layer 2">
    <g id="invisible_box" data-name="invisible box">
      <path d="M0,0V48H48V0ZM14.6,30.6A2,2,0,0,1,16,30h8a2,2,0,0,1,2,2,2.1,2.1,0,0,1-2,2H16a2,2,0,0,1-2-2A2,2,0,0,1,14.6,30.6ZM14,24a2.1,2.1,0,0,1,2-2H32a2,2,0,0,1,2,2,2.1,2.1,0,0,1-2,2H16A2,2,0,0,1,14,24Zm19.4-6.6A2,2,0,0,1,32,18H16a2,2,0,0,1-2-2,2.1,2.1,0,0,1,2-2H32a2,2,0,0,1,2,2A2,2,0,0,1,33.4,17.4Z" fill="none"/>
      <path d="M0,0V48H48V0ZM14.6,30.6A2,2,0,0,1,16,30h8a2,2,0,0,1,2,2,2.1,2.1,0,0,1-2,2H16a2,2,0,0,1-2-2A2,2,0,0,1,14.6,30.6ZM14,24a2.1,2.1,0,0,1,2-2H32a2,2,0,0,1,2,2,2.1,2.1,0,0,1-2,2H16A2,2,0,0,1,14,24Zm19.4-6.6A2,2,0,0,1,32,18H16a2,2,0,0,1-2-2,2.1,2.1,0,0,1,2-2H32a2,2,0,0,1,2,2A2,2,0,0,1,33.4,17.4Z" fill="none"/>
    </g>
    <g id="icons_Q2" data-name="icons Q2">
      <path d="M40,3H8A2,2,0,0,0,6,5V43a2,2,0,0,0,2,2H40a2,2,0,0,0,2-2V5A2,2,0,0,0,40,3ZM25.4,33.4A2,2,0,0,1,24,34H16a2,2,0,0,1-2-2,2.1,2.1,0,0,1,2-2h8a2,2,0,0,1,2,2A2,2,0,0,1,25.4,33.4Zm8-8A2,2,0,0,1,32,26H16a2,2,0,0,1-2-2,2.1,2.1,0,0,1,2-2H32a2,2,0,0,1,2,2A2,2,0,0,1,33.4,25.4Zm0-8A2,2,0,0,1,32,18H16a2,2,0,0,1-2-2,2.1,2.1,0,0,1,2-2H32a2,2,0,0,1,2,2A2,2,0,0,1,33.4,17.4Z"/>
    </g>
  </g>
</svg>
