<svg xmlns="http://www.w3.org/2000/svg" width="48" height="48" viewBox="0 0 48 48">
  <title>file-minus</title>
  <g id="Layer_2" data-name="Layer 2">
    <g id="invisible_box" data-name="invisible box">
      <rect width="48" height="48" fill="none"/>
    </g>
    <g id="icons_Q2" data-name="icons Q2">
      <path d="M40,45H8a2,2,0,0,1-2-2V5A2,2,0,0,1,8,3H18a2,2,0,0,1,2,2h0a2,2,0,0,1-2,2H10V41H38V32.2a2,2,0,0,1,2-2h0a2,2,0,0,1,2,2V43A2,2,0,0,1,40,45Z"/>
      <path d="M33,2A13.1,13.1,0,0,0,20,14H16a2.1,2.1,0,0,0-2,2,2,2,0,0,0,2,2h4.3A17.8,17.8,0,0,0,22,22H16a2.1,2.1,0,0,0-2,2,2,2,0,0,0,2,2H26.1A12.7,12.7,0,0,0,33,28,13,13,0,0,0,33,2Zm0,22a9,9,0,1,1,9-9A9,9,0,0,1,33,24Z"/>
      <rect x="14" y="30" width="20" height="4" rx="2" ry="2"/>
      <path d="M39,15a2.1,2.1,0,0,1-2,2H29a2,2,0,0,1-2-2,2.1,2.1,0,0,1,2-2h8A2,2,0,0,1,39,15Z"/>
    </g>
  </g>
</svg>
