<svg xmlns="http://www.w3.org/2000/svg" width="48" height="48" viewBox="0 0 48 48">
  <title>file-edit</title>
  <g id="Layer_2" data-name="Layer 2">
    <g id="invisible_box" data-name="invisible box">
      <rect width="48" height="48" fill="none"/>
    </g>
    <g id="icons_Q2" data-name="icons Q2">
      <path d="M9.9,45H6a2,2,0,0,1-2-2V5A2,2,0,0,1,6,3H38a2,2,0,0,1,2,2v7.9A2.1,2.1,0,0,1,38.3,15,2,2,0,0,1,36,13V7H8V41h2a2,2,0,0,1,2,2.3A2.1,2.1,0,0,1,9.9,45Z"/>
      <rect x="13" y="14" width="18" height="4" rx="2" ry="2"/>
      <path d="M45.4,27.4l-9.8-9.8a1.9,1.9,0,0,0-2.8,0L28.4,22H15a2,2,0,0,0,0,4h9.4l-4,4H15a2,2,0,0,0,0,4h3v9a2,2,0,0,0,2,2h9.8a2,2,0,0,0,1.4-.6L45.4,30.2A1.9,1.9,0,0,0,45.4,27.4ZM28.9,41H22V34.1l6.4-6.4,6.9,6.9Zm9.2-9.2-6.9-6.9,3-3.1,7,7Z"/>
    </g>
  </g>
</svg>
