<svg xmlns="http://www.w3.org/2000/svg" width="48" height="48" viewBox="0 0 48 48">
  <title>filter-vertical-solid</title>
  <g id="Layer_2" data-name="Layer 2">
    <g id="invisible_box" data-name="invisible box">
      <rect width="48" height="48" fill="none"/>
    </g>
    <g id="icons_Q2" data-name="icons Q2">
      <path d="M8,6.2V26.3A6.2,6.2,0,0,0,4,32a6,6,0,0,0,4,5.6v4.2A2.1,2.1,0,0,0,10,44a2.1,2.1,0,0,0,2-2.2V37.6A6,6,0,0,0,16,32a6.2,6.2,0,0,0-4-5.7V6.2A2.1,2.1,0,0,0,10,4,2.1,2.1,0,0,0,8,6.2Z"/>
      <path d="M22,6.2v4.1A6.2,6.2,0,0,0,18,16a6,6,0,0,0,4,5.6V41.8a2,2,0,1,0,4,0V21.6A6,6,0,0,0,30,16a6.2,6.2,0,0,0-4-5.7V6.2a2,2,0,1,0-4,0Z"/>
      <path d="M36,6.2V23.3A6.2,6.2,0,0,0,32,29a6,6,0,0,0,4,5.6v7.2a2,2,0,1,0,4,0V34.6A6,6,0,0,0,44,29a6.2,6.2,0,0,0-4-5.7V6.2a2,2,0,1,0-4,0Z"/>
    </g>
  </g>
</svg>
