<svg xmlns="http://www.w3.org/2000/svg" width="48" height="48" viewBox="0 0 48 48">
  <g id="Layer_2" data-name="Layer 2">
    <g id="Icons">
      <g>
        <rect width="48" height="48" fill="none"/>
        <path d="M34,2a12.2,12.2,0,0,0-8.9,4H5A2.9,2.9,0,0,0,2,9v6.6a3,3,0,0,0,1,2.2L15,29V41.4a3.1,3.1,0,0,0,2.3,3l7,1.5H25a2.8,2.8,0,0,0,1.9-.7A2.8,2.8,0,0,0,28,43V29l3.7-3.2L34,26A12,12,0,0,0,34,2ZM25,26.2a3.3,3.3,0,0,0-1,2.3V41.8l-5-1.2v-12a2.9,2.9,0,0,0-1-2.2L6,15.2V10H22.7a13.4,13.4,0,0,0-.7,4,12,12,0,0,0,5.5,10.1ZM34,22a8,8,0,1,1,8-8A8,8,0,0,1,34,22Zm6-8a2,2,0,0,1-2,2H30a2,2,0,0,1,0-4h8A2,2,0,0,1,40,14Z"/>
      </g>
    </g>
  </g>
</svg>
