<svg xmlns="http://www.w3.org/2000/svg" width="48" height="48" viewBox="0 0 48 48">
  <g id="Layer_2" data-name="Layer 2">
    <g id="Icons">
      <g>
        <rect width="48" height="48" fill="none"/>
        <path d="M34,2a12.2,12.2,0,0,0-8.9,4H5A2.9,2.9,0,0,0,2,9v6.4a3.2,3.2,0,0,0,1,2.2L15,28.5v13a3,3,0,0,0,2.4,2.9l7,1.5H25a2.8,2.8,0,0,0,1.9-.7A2.8,2.8,0,0,0,28,43V28.4l3.3-2.7A12.4,12.4,0,0,0,34,26,12,12,0,0,0,34,2ZM25.1,25.7A2.8,2.8,0,0,0,24,28V41.8l-5-1.1V28a3.2,3.2,0,0,0-1-2.2L6,14.9V10H22.7a13.4,13.4,0,0,0-.7,4,12.2,12.2,0,0,0,5.2,9.9ZM34,22a8,8,0,1,1,8-8A8,8,0,0,1,34,22Zm6-8a2,2,0,0,1-2,2H36v2a2,2,0,0,1-4,0V16H30a2,2,0,0,1,0-4h2V10a2,2,0,0,1,4,0v2h2A2,2,0,0,1,40,14Z"/>
      </g>
    </g>
  </g>
</svg>
