<svg xmlns="http://www.w3.org/2000/svg" width="48" height="48" viewBox="0 0 48 48">
  <title>filter-list</title>
  <g id="Layer_2" data-name="Layer 2">
    <g id="invisible_box" data-name="invisible box">
      <rect width="48" height="48" fill="none"/>
    </g>
    <g id="icons_Q2" data-name="icons Q2">
      <path d="M42,12a2,2,0,0,1-2,2H8a2,2,0,0,1-2-2H6a2,2,0,0,1,2-2H40a2,2,0,0,1,2,2Z"/>
      <path d="M34,24a2,2,0,0,1-2,2H8a2,2,0,0,1-2-2H6a2,2,0,0,1,2-2H32a2,2,0,0,1,2,2Z"/>
      <path d="M26,36a2,2,0,0,1-2,2H8a2,2,0,0,1-2-2H6a2,2,0,0,1,2-2H24a2,2,0,0,1,2,2Z"/>
    </g>
  </g>
</svg>
