<svg xmlns="http://www.w3.org/2000/svg" width="48" height="48" viewBox="0 0 48 48">
  <g id="Layer_2" data-name="Layer 2">
    <g id="Icons">
      <g>
        <rect width="48" height="48" fill="none"/>
        <g>
          <path d="M34,2a12.2,12.2,0,0,0-8.9,4H5A2.9,2.9,0,0,0,2,9v6.6a3,3,0,0,0,1,2.2L16,29V41.4a3.1,3.1,0,0,0,2.3,3l5,1.5H24a2.8,2.8,0,0,0,1.9-.7A2.8,2.8,0,0,0,27,43V29l4.7-3.2L34,26A12,12,0,0,0,34,2Zm0,20a8,8,0,1,1,8-8A8,8,0,0,1,34,22Z"/>
          <path d="M38,12H30a2,2,0,0,0,0,4h8a2,2,0,0,0,0-4Z"/>
        </g>
      </g>
    </g>
  </g>
</svg>
