<svg xmlns="http://www.w3.org/2000/svg" width="48" height="48" viewBox="0 0 48 48">
  <title>flag-racing</title>
  <g id="Layer_2" data-name="Layer 2">
    <g id="invisible_box" data-name="invisible box">
      <rect width="48" height="48" fill="none"/>
    </g>
    <g id="icons_Q2" data-name="icons Q2">
      <g>
        <path d="M26,6V4a2,2,0,0,0-2-2H6V44a2,2,0,0,0,4,0V26H22v2a2,2,0,0,0,2,2H42V6ZM38,18H34v4h4v4H34V22H30v4H26V22H22V18H18v4H14V18H10V14h4V10H10V6h4v4h4V6h4v4h4v4h4V10h4v4h4Z"/>
        <rect x="14" y="14" width="4" height="4"/>
        <rect x="18" y="10" width="4" height="4"/>
        <rect x="22" y="14" width="4" height="4"/>
        <rect x="26" y="18" width="4" height="4"/>
        <rect x="30" y="14" width="4" height="4"/>
      </g>
    </g>
  </g>
</svg>
