<svg xmlns="http://www.w3.org/2000/svg" width="48" height="48" viewBox="0 0 48 48">
  <title>flip</title>
  <g id="Layer_2" data-name="Layer 2">
    <g id="invisible_box" data-name="invisible box">
      <rect width="48" height="48" fill="none"/>
    </g>
    <g id="icons_Q2" data-name="icons Q2">
      <g>
        <path d="M24,4a2,2,0,0,0-2,2V42a2,2,0,0,0,4,0V6A2,2,0,0,0,24,4Z"/>
        <path d="M5.8,9.3A1.3,1.3,0,0,0,5,9a1,1,0,0,0-1,1V38a1,1,0,0,0,1,1,1.3,1.3,0,0,0,.8-.3l13.9-14a1,1,0,0,0,0-1.4ZM8,30.8V17.2L14.8,24Z"/>
        <path d="M42.2,9.3l-13.9,14a1,1,0,0,0,0,1.4l13.9,14A1.1,1.1,0,0,0,44,38V10A1.1,1.1,0,0,0,42.2,9.3Z"/>
      </g>
    </g>
  </g>
</svg>
