<svg xmlns="http://www.w3.org/2000/svg" width="48" height="48" viewBox="0 0 48 48">
  <title>flower</title>
  <g id="Layer_2" data-name="Layer 2">
    <g id="invisible_box" data-name="invisible box">
      <rect width="48" height="48" fill="none"/>
    </g>
    <g id="icons_Q2" data-name="icons Q2">
      <path d="M43.5,24l.3-.3a7.6,7.6,0,0,0,0-10.7,7.5,7.5,0,0,0-6.3-2.1H37a.9.9,0,0,0,.1-.5,3.1,3.1,0,0,0,.1-1A7.9,7.9,0,0,0,35,4.2a7.7,7.7,0,0,0-10.7,0l-.3.3-.3-.3A7.6,7.6,0,0,0,13,4.2a7.5,7.5,0,0,0-2.1,6.3.9.9,0,0,0,.1.5H9.5A7.9,7.9,0,0,0,4.2,13a7.7,7.7,0,0,0,0,10.7l.3.3-.3.3A7.7,7.7,0,0,0,4.2,35a7.9,7.9,0,0,0,5.3,2.2H11a.9.9,0,0,0-.1.5A7.5,7.5,0,0,0,18.4,46a7.4,7.4,0,0,0,5.3-2.2l.3-.3.3.3a7.7,7.7,0,0,0,10.7,0,7.9,7.9,0,0,0,2.2-5.3,3.1,3.1,0,0,0-.1-1A.9.9,0,0,0,37,37h.5A7.5,7.5,0,0,0,46,29.6a7.4,7.4,0,0,0-2.2-5.3ZM7,15.9a3.6,3.6,0,0,1,2.5-1.1H11a4.4,4.4,0,0,0,2.8-1.2,3.8,3.8,0,0,0,1.1-3.6h0a3.4,3.4,0,0,1,1-3,3.6,3.6,0,0,1,2.5-1,3.9,3.9,0,0,1,2.5,1q.9.9.9,3.6a31.4,31.4,0,0,1,.1,3.6,10.1,10.1,0,0,0-7.7,7.7H10.7A6,6,0,0,1,7,20.9,3.7,3.7,0,0,1,7,15.9ZM21.8,37.4a5.4,5.4,0,0,1-.9,3.6,3.9,3.9,0,0,1-2.5,1,3.6,3.6,0,0,1-2.5-1,3.4,3.4,0,0,1-1-3h0a3.8,3.8,0,0,0-1.1-3.6A4.4,4.4,0,0,0,11,33H9.5A3.6,3.6,0,0,1,7,32.1a3.7,3.7,0,0,1,0-5,6.7,6.7,0,0,1,3.7-1h3.5a10.1,10.1,0,0,0,7.7,7.7A31.4,31.4,0,0,1,21.8,37.4ZM24,30a6,6,0,1,1,6-6A6,6,0,0,1,24,30Zm17,2.1a3.4,3.4,0,0,1-3,1h-.2a3.8,3.8,0,0,0-3.6,1.1A4.4,4.4,0,0,0,33,37c0,.3.1.5.1.8h0a.7.7,0,0,1,.1.5A3.6,3.6,0,0,1,32.1,41a3.7,3.7,0,0,1-5,0,6,6,0,0,1-.9-3.7,30.4,30.4,0,0,1-.1-3.5,10.1,10.1,0,0,0,7.7-7.7h3.6a5.4,5.4,0,0,1,3.6.9,3.9,3.9,0,0,1,1,2.5A3.6,3.6,0,0,1,41,32.1Zm0-11.2a5.4,5.4,0,0,1-3.6.9H33.8a10.1,10.1,0,0,0-7.7-7.7,30.4,30.4,0,0,1,.1-3.5A6,6,0,0,1,27.1,7a3.7,3.7,0,0,1,5,0,3.6,3.6,0,0,1,1.1,2.5.9.9,0,0,1-.1.5h0c0,.3-.1.5-.1.8a4.4,4.4,0,0,0,1.2,2.8,4.4,4.4,0,0,0,3.6,1.1H38a3.4,3.4,0,0,1,3,1,3.6,3.6,0,0,1,1,2.5A3.9,3.9,0,0,1,41,20.9Z"/>
    </g>
  </g>
</svg>
