<svg xmlns="http://www.w3.org/2000/svg" width="48" height="48" viewBox="0 0 48 48">
  <title>flower-solid</title>
  <g id="Layer_2" data-name="Layer 2">
    <g id="invisible_box" data-name="invisible box">
      <rect width="48" height="48" fill="none"/>
    </g>
    <g id="icons_Q2" data-name="icons Q2">
      <path d="M43.5,24l.3-.3a7.6,7.6,0,0,0,0-10.7,7.5,7.5,0,0,0-6.3-2.1H37a.9.9,0,0,0,.1-.5,3.1,3.1,0,0,0,.1-1A7.9,7.9,0,0,0,35,4.2a7.7,7.7,0,0,0-10.7,0l-.3.3-.3-.3A7.6,7.6,0,0,0,13,4.2a7.5,7.5,0,0,0-2.1,6.3.9.9,0,0,0,.1.5H9.5A7.9,7.9,0,0,0,4.2,13a7.7,7.7,0,0,0,0,10.7l.3.3-.3.3A7.7,7.7,0,0,0,4.2,35a7.9,7.9,0,0,0,5.3,2.2H11a.9.9,0,0,0-.1.5A7.5,7.5,0,0,0,18.4,46a7.4,7.4,0,0,0,5.3-2.2l.3-.3.3.3a7.7,7.7,0,0,0,10.7,0,7.9,7.9,0,0,0,2.2-5.3,3.1,3.1,0,0,0-.1-1A.9.9,0,0,0,37,37h.5A7.5,7.5,0,0,0,46,29.6a7.4,7.4,0,0,0-2.2-5.3ZM24,32a8,8,0,1,1,8-8A8,8,0,0,1,24,32Z"/>
    </g>
  </g>
</svg>
