<svg xmlns="http://www.w3.org/2000/svg" width="48" height="48" viewBox="0 0 48 48">
  <title>folder-key</title>
  <g id="Layer_2" data-name="Layer 2">
    <g id="invisible_box" data-name="invisible box">
      <rect width="48" height="48" fill="none"/>
    </g>
    <g id="icons_Q2" data-name="icons Q2">
      <path d="M19.3,10l4.9,4.8L25.3,16H42V38H6V10H19.3M21,6H4A2,2,0,0,0,2,8V40a2,2,0,0,0,2,2H44a2,2,0,0,0,2-2V14a2,2,0,0,0-2-2H27L21,6Z"/>
      <path d="M23.7,23a5.9,5.9,0,0,0-1.8-2.9,6.8,6.8,0,0,0-9.8,0,6.8,6.8,0,0,0,0,9.8,6.8,6.8,0,0,0,9.8,0A5.9,5.9,0,0,0,23.7,27h4v3.7a2,2,0,0,0,2,2,2,2,0,0,0,1.4-.6,2,2,0,0,0,.6-1.4V27h1.7v3.7a2,2,0,0,0,2,2,2.5,2.5,0,0,0,1.4-.6,2,2,0,0,0,.6-1.4V25a2,2,0,0,0-2-2Zm-8.8,4.1a3,3,0,1,1,4.2-4.2,3,3,0,0,1-4.2,4.2Z"/>
    </g>
  </g>
</svg>
