<svg xmlns="http://www.w3.org/2000/svg" width="48" height="48" viewBox="0 0 48 48">
  <title>folder-favorite</title>
  <g id="Layer_2" data-name="Layer 2">
    <g id="invisible_box" data-name="invisible box">
      <rect width="48" height="48" fill="none"/>
    </g>
    <g id="icons_Q2" data-name="icons Q2">
      <path d="M19.3,10l4.9,4.8L25.3,16H42V38H6V10H19.3M21,6H4A2,2,0,0,0,2,8V40a2,2,0,0,0,2,2H44a2,2,0,0,0,2-2V14a2,2,0,0,0-2-2H27L21,6Z"/>
      <path d="M29.1,24.9l-2.9-.4-1.3-2.9a1,1,0,0,0-1.8,0l-1.3,2.9-2.9.4a1.1,1.1,0,0,0-.6,1.8l2.1,2-.5,3.1a1.1,1.1,0,0,0,1.5,1.1L24,31l2.6,1.9a1.1,1.1,0,0,0,1.5-1.1l-.5-3.1,2.1-2A1.1,1.1,0,0,0,29.1,24.9Z"/>
    </g>
  </g>
</svg>
