<svg xmlns="http://www.w3.org/2000/svg" width="48" height="48" viewBox="0 0 48 48">
  <title>folder-merge-solid</title>
  <g id="Layer_2" data-name="Layer 2">
    <g id="invisible_box" data-name="invisible box">
      <rect width="48" height="48" fill="none"/>
    </g>
    <g id="icons_Q2" data-name="icons Q2">
      <path d="M44,12H27L21,6H4A2,2,0,0,0,2,8V40a2,2,0,0,0,2,2H44a2,2,0,0,0,2-2V14A2,2,0,0,0,44,12ZM36.5,28.6l-4.9,4.9a2,2,0,0,1-2.6.3,1.9,1.9,0,0,1-.3-3l1.6-1.6H23.7l-8.2,8.1a2,2,0,0,1-2.7.3,1.9,1.9,0,0,1-.2-3L20.2,27l-7.6-7.6a2,2,0,0,1,.2-3.1,2.3,2.3,0,0,1,2.7.3L24,25.2h6.3l-1.6-1.6a2,2,0,1,1,2.9-2.8l4.9,4.9A2.1,2.1,0,0,1,36.5,28.6Z"/>
    </g>
  </g>
</svg>
