<svg xmlns="http://www.w3.org/2000/svg" width="48" height="48" viewBox="0 0 48 48">
  <title>folder-minus-solid</title>
  <g id="Layer_2" data-name="Layer 2">
    <g id="invisible_box" data-name="invisible box">
      <rect width="48" height="48" fill="none"/>
    </g>
    <g id="icons_Q2" data-name="icons Q2">
      <path d="M44,12H27L21,6H4A2,2,0,0,0,2,8V40a2,2,0,0,0,2,2H44a2,2,0,0,0,2-2V14A2,2,0,0,0,44,12ZM30.4,28.4A2,2,0,0,1,29,29H19a2,2,0,0,1-2-2,2.1,2.1,0,0,1,2-2H29a2,2,0,0,1,2,2A2,2,0,0,1,30.4,28.4Z"/>
    </g>
  </g>
</svg>
