<svg xmlns="http://www.w3.org/2000/svg" width="48" height="48" viewBox="0 0 48 48">
  <title>folder-favorite-solid</title>
  <g id="Layer_2" data-name="Layer 2">
    <g id="invisible_box" data-name="invisible box">
      <rect width="48" height="48" fill="none"/>
    </g>
    <g id="icons_Q2" data-name="icons Q2">
      <path d="M44,12H27L21,6H4A2,2,0,0,0,2,8V40a2,2,0,0,0,2,2H44a2,2,0,0,0,2-2V14A2,2,0,0,0,44,12ZM29.7,26.7l-2.1,2,.5,3.1a1.1,1.1,0,0,1-1.5,1.1L24,31l-2.6,1.9a1.1,1.1,0,0,1-1.5-1.1l.5-3.1-2.1-2a1.1,1.1,0,0,1,.6-1.8l2.9-.4,1.3-2.9a1,1,0,0,1,1.8,0l1.3,2.9,2.9.4A1.1,1.1,0,0,1,29.7,26.7Z"/>
    </g>
  </g>
</svg>
