<svg xmlns="http://www.w3.org/2000/svg" width="48" height="48" viewBox="0 0 48 48">
  <g id="Layer_2" data-name="Layer 2">
    <g id="invisible_box" data-name="invisible box">
      <rect width="48" height="48" fill="none"/>
    </g>
    <g id="Layer_7" data-name="Layer 7">
      <g>
        <path d="M24,2A22,22,0,1,0,46,24,22.1,22.1,0,0,0,24,2Zm0,40A18,18,0,1,1,42,24,18.1,18.1,0,0,1,24,42Z"/>
        <path d="M20.9,11.7l6,4A2,2,0,0,0,28,16a2,2,0,0,0,1.1-3.7l-6-4a2,2,0,0,0-2.2,3.4Z"/>
        <path d="M27.3,17.4a2.1,2.1,0,0,0-2.9-.3L19,21.8a2,2,0,0,0-.3,2.8,2,2,0,0,0,1.6.7,2.2,2.2,0,0,0,1.3-.4L27,20.2A2,2,0,0,0,27.3,17.4Z"/>
        <path d="M37.4,16.9a2,2,0,0,0-2.6,1l-3.2,6.5a2.1,2.1,0,0,0,1,2.7l.8.2a2,2,0,0,0,1.8-1.2l3.2-6.5A2.1,2.1,0,0,0,37.4,16.9Z"/>
        <path d="M13.3,28.1A2,2,0,0,0,15,25.8l-1-7.1A2.1,2.1,0,0,0,11.7,17,2.1,2.1,0,0,0,10,19.3l1.1,7.1a2,2,0,0,0,2,1.7Z"/>
        <path d="M21.1,30.3l-7,1.4a2.1,2.1,0,0,0-1.6,2.4,2,2,0,0,0,2,1.6h.4l7-1.4a2.1,2.1,0,0,0,1.6-2.4A2.1,2.1,0,0,0,21.1,30.3Z"/>
        <path d="M28.7,27.9a2,2,0,1,0-3.4,2.2l4,6A2.1,2.1,0,0,0,31,37a2,2,0,0,0,1.1-.3,2.1,2.1,0,0,0,.6-2.8Z"/>
      </g>
    </g>
  </g>
</svg>
