<svg xmlns="http://www.w3.org/2000/svg" width="48" height="48" viewBox="0 0 48 48">
  <g id="Layer_2" data-name="Layer 2">
    <g id="invisible_box" data-name="invisible box">
      <rect width="48" height="48" fill="none"/>
    </g>
    <g id="Layer_7" data-name="Layer 7">
      <path d="M24,2A22,22,0,1,0,46,24,22.1,22.1,0,0,0,24,2ZM20.3,8.9a2.1,2.1,0,0,1,2.8-.6l6,4A2,2,0,0,1,28,16a2,2,0,0,1-1.1-.3l-6-4A2.1,2.1,0,0,1,20.3,8.9ZM11.1,26.4,10,19.3A2.1,2.1,0,0,1,11.7,17,2.1,2.1,0,0,1,14,18.7l1,7.1a2,2,0,0,1-1.7,2.3H13A1.9,1.9,0,0,1,11.1,26.4Zm10.8,7.8-7,1.5h-.4a2,2,0,0,1-.4-3.9l7-1.5a2.1,2.1,0,0,1,2.4,1.6A2,2,0,0,1,21.9,34.2Zm-.4-9.3a1.7,1.7,0,0,1-1.2.4,2,2,0,0,1-1.6-.7,2,2,0,0,1,.3-2.8l5.5-4.7A2,2,0,0,1,27,20.2ZM32.1,36.7A2,2,0,0,1,31,37a2.1,2.1,0,0,1-1.7-.9l-4-6a2,2,0,1,1,3.4-2.2l4,6A2.1,2.1,0,0,1,32.1,36.7Zm6.3-17.1-3.2,6.5a1.9,1.9,0,0,1-1.8,1.1h-.8a2.1,2.1,0,0,1-1-2.7l3.2-6.5a2,2,0,0,1,2.6-1A2.1,2.1,0,0,1,38.4,19.6Z"/>
    </g>
  </g>
</svg>
