<svg xmlns="http://www.w3.org/2000/svg" width="48" height="48" viewBox="0 0 48 48">
  <g id="Layer_2" data-name="Layer 2">
    <g id="invisible_box" data-name="invisible box">
      <rect width="48" height="48" fill="none"/>
    </g>
    <g id="Layer_7" data-name="Layer 7">
      <g>
        <path d="M43,12H38.3a4.2,4.2,0,0,0,.4-1,7,7,0,0,0-.6-5.3,6.7,6.7,0,0,0-4.3-3.4A7.1,7.1,0,0,0,25,7l-1,3.4L23,7a7.1,7.1,0,0,0-8.8-4.7A6.7,6.7,0,0,0,9.9,5.7,7,7,0,0,0,9.3,11a4.2,4.2,0,0,0,.4,1H5a2.9,2.9,0,0,0-3,3v7H17V16h4v6h6V16h4v6H46V15A2.9,2.9,0,0,0,43,12ZM17,12h-.9a3.1,3.1,0,0,1-3-2.2,2.9,2.9,0,0,1,.3-2.2,3,3,0,0,1,1.8-1.5,3.3,3.3,0,0,1,4,2.1L20.3,12ZM34.9,9.8a3.1,3.1,0,0,1-3,2.2H27.7l1.1-3.8a3.3,3.3,0,0,1,4-2.1,3,3,0,0,1,1.8,1.5A2.9,2.9,0,0,1,34.9,9.8Z"/>
        <rect x="21" y="26" width="6" height="20"/>
        <path d="M4,43a3,3,0,0,0,3,3H17V26H4Z"/>
        <path d="M31,46H41a3,3,0,0,0,3-3V26H31Z"/>
      </g>
    </g>
  </g>
</svg>
