<svg xmlns="http://www.w3.org/2000/svg" width="48" height="48" viewBox="0 0 48 48">
  <g id="Layer_2" data-name="Layer 2">
    <g id="invisible_box" data-name="invisible box">
      <rect width="48" height="48" fill="none"/>
    </g>
    <g id="Icons">
      <path d="M46,15a2.9,2.9,0,0,0-3-3H38.3a4.2,4.2,0,0,0,.4-1,7,7,0,0,0-.6-5.3,6.7,6.7,0,0,0-4.3-3.4A7.1,7.1,0,0,0,25,7l-1,3.4L23,7a7.1,7.1,0,0,0-8.8-4.7A6.7,6.7,0,0,0,9.9,5.7,7,7,0,0,0,9.3,11a4.2,4.2,0,0,0,.4,1H5a2.9,2.9,0,0,0-3,3V26H4V43a2.9,2.9,0,0,0,3,3H41a2.9,2.9,0,0,0,3-3V26h2Zm-4,7H31V16H42ZM21,22V16h6v6Zm6,4V42H21V26ZM32.7,6.1a3.2,3.2,0,0,1,1.9,1.5,2.9,2.9,0,0,1,.3,2.2,3.1,3.1,0,0,1-3,2.2H27.7l1.1-3.8A3.3,3.3,0,0,1,32.7,6.1ZM13.1,9.8a2.9,2.9,0,0,1,.3-2.2,3.2,3.2,0,0,1,1.9-1.5,3.3,3.3,0,0,1,3.9,2.1L20.3,12H16.1A3.1,3.1,0,0,1,13.1,9.8ZM6,16H17v6H6ZM8,26h9V42H8ZM40,42H31V26h9Z"/>
    </g>
  </g>
</svg>
