<svg xmlns="http://www.w3.org/2000/svg" width="48" height="48" viewBox="0 0 48 48">
  <title>go-green</title>
  <g id="Layer_2" data-name="Layer 2">
    <g id="invisible_box" data-name="invisible box">
      <rect width="48" height="48" fill="none"/>
      <rect width="48" height="48" fill="none"/>
    </g>
    <g id="icons_Q2" data-name="icons Q2">
      <path d="M38.8,26.1c-5.9,4.2-16.2,2.6-16.2,5.7s.6,11.1.6,11.1L18.8,44s.6-9.5.6-12.2-7-1.1-10.8-3.1S3.7,16.6,4.2,14c3.3,2.6,5.4,2.6,9.8,4.2s6,5.6,6.7,8.2c0,.1-7.7-1.4-12.1-5.5C10,25,15,26.6,17.2,27.1A4.7,4.7,0,0,1,21,29.7c.5-2.1,5.3-6.8,9.1-8.4s7.6-4.2,8.2-7.1c-4.3,4-8.1,4.1-11.9,6.6a16.3,16.3,0,0,0-4.6,4.5c.6-2.8,2.3-9.6,5.7-12.9C34.1,6.1,38.3,8.7,43.7,4,44.2,5.6,44.8,21.9,38.8,26.1Z"/>
    </g>
  </g>
</svg>
