<svg xmlns="http://www.w3.org/2000/svg" width="48" height="48" viewBox="0 0 48 48">
  <title>group-solid</title>
  <g id="Layer_2" data-name="Layer 2">
    <g id="invisible_box" data-name="invisible box">
      <rect width="48" height="48" fill="none"/>
    </g>
    <g id="icons_Q2" data-name="icons Q2">
      <path d="M39,29.3V18.7A8,8,0,0,0,37,3a8,8,0,0,0-7.7,6H18.7A8,8,0,0,0,3,11a8,8,0,0,0,6,7.7V29.3A8,8,0,0,0,11,45a8,8,0,0,0,7.7-6H29.3A8,8,0,1,0,39,29.3ZM29.3,35H18.7A7.9,7.9,0,0,0,13,29.3V18.7A7.9,7.9,0,0,0,18.7,13H29.3A7.9,7.9,0,0,0,35,18.7V29.3A7.9,7.9,0,0,0,29.3,35Z"/>
    </g>
  </g>
</svg>
