<svg xmlns="http://www.w3.org/2000/svg" width="48" height="48" viewBox="0 0 48 48">
  <title>group</title>
  <g id="Layer_2" data-name="Layer 2">
    <g id="invisible_box" data-name="invisible box">
      <rect width="48" height="48" fill="none"/>
    </g>
    <g id="icons_Q2" data-name="icons Q2">
      <path d="M39,29.3V18.7A8,8,0,0,0,37,3a8,8,0,0,0-7.7,6H18.7A8,8,0,0,0,3,11a8,8,0,0,0,6,7.7V29.3A8,8,0,0,0,11,45a8,8,0,0,0,7.7-6H29.3A8,8,0,1,0,39,29.3ZM37,7a4,4,0,1,1-4,4A4,4,0,0,1,37,7ZM7,11a4,4,0,1,1,4,4A4,4,0,0,1,7,11Zm4,30a4,4,0,1,1,4-4A4,4,0,0,1,11,41Zm18.3-6H18.7A7.9,7.9,0,0,0,13,29.3V18.7A7.9,7.9,0,0,0,18.7,13H29.3A7.9,7.9,0,0,0,35,18.7V29.3A7.9,7.9,0,0,0,29.3,35ZM37,41a4,4,0,1,1,4-4A4,4,0,0,1,37,41Z"/>
    </g>
  </g>
</svg>
