<svg xmlns="http://www.w3.org/2000/svg" width="48" height="48" viewBox="0 0 48 48">
  <title>hacker</title>
  <g id="Layer_2" data-name="Layer 2">
    <g id="invisible_box" data-name="invisible box">
      <rect width="48" height="48" fill="none"/>
    </g>
    <g id="Q3_icons" data-name="Q3 icons">
      <g>
        <path d="M39.2,16h0L37.3,6.2A4,4,0,0,0,33.4,3H29.1a3.9,3.9,0,0,0-3.4,1.9L24,7.8,22.3,4.9A3.9,3.9,0,0,0,18.9,3H14.6a4,4,0,0,0-3.9,3.2L8.7,16C4.6,17.2,2,19,2,21s1.9,3.2,5,4.4V40.2a1.9,1.9,0,0,0,1.5,1.9l12,2.9a2.4,2.4,0,0,0,2.1-.8L24,42.5l1.4,1.7A2.1,2.1,0,0,0,27,45h.5l12-2.9A1.9,1.9,0,0,0,41,40.2V25.4c3.1-1.2,5-2.7,5-4.4S43.4,17.2,39.2,16ZM37,38.6l-9.2,2.2L25.6,38a2.2,2.2,0,0,0-3.2,0l-2.2,2.8L11,38.6v-12A55,55,0,0,0,24,28a55,55,0,0,0,13-1.4ZM24,24c-8.8,0-14.8-1.7-17.1-3a16.5,16.5,0,0,1,3-1.2l2.3-.7.5-2.4L14.6,7h4.3l1.7,2.8a3.9,3.9,0,0,0,6.8,0L29.1,7h4.3l1.9,9.7.5,2.4,2.3.7a16.5,16.5,0,0,1,3,1.2C38.8,22.3,32.8,24,24,24Z"/>
        <path d="M17,32c-2,0-4-.1-4,1s2,3,4,3,4-.9,4-2S19,32,17,32Z"/>
        <path d="M31,36c2,0,4-1.9,4-3s-2-1-4-1-4,.9-4,2S29,36,31,36Z"/>
      </g>
    </g>
  </g>
</svg>
