<svg xmlns="http://www.w3.org/2000/svg" width="48" height="48" viewBox="0 0 48 48">
  <g id="Layer_2" data-name="Layer 2">
    <g id="invisible_box" data-name="invisible box">
      <rect width="48" height="48" fill="none"/>
    </g>
    <g id="Health_Icons" data-name="Health Icons">
      <g>
        <path d="M44,30H42.8L26.4,13.6a1.9,1.9,0,0,0-2.8,0l-3.1,3.1-2.2-2.2L25,7.8l8.6,8.6A2,2,0,0,0,35,17h9a2,2,0,0,0,0-4H35.8L26.4,3.6a1.9,1.9,0,0,0-2.8,0l-8.1,8.1L7.4,3.6a1.9,1.9,0,0,0-2.8,0,1.9,1.9,0,0,0,0,2.8l36,36a1.9,1.9,0,0,0,2.8,0,1.9,1.9,0,0,0,0-2.8L23.3,19.5,25,17.8,40.6,33.4A2,2,0,0,0,42,34h2a2,2,0,0,0,0-4Z"/>
        <path d="M4,17H9.4l-4-4H4a2,2,0,0,0,0,4Z"/>
        <path d="M18.4,32.6a2,2,0,0,0-2.8,2.8l7,7a1.9,1.9,0,0,0,2.8,0,1.9,1.9,0,0,0,0-2.8Z"/>
        <path d="M7.4,30.6A2,2,0,0,0,6,30H4a2,2,0,0,0,0,4H5.2L15.6,44.4a1.9,1.9,0,0,0,2.8,0,1.9,1.9,0,0,0,0-2.8Z"/>
      </g>
    </g>
  </g>
</svg>
