<svg xmlns="http://www.w3.org/2000/svg" width="48" height="48" viewBox="0 0 48 48">
  <g id="Layer_2" data-name="Layer 2">
    <g id="invisible_box" data-name="invisible box">
      <rect width="48" height="48" fill="none"/>
    </g>
    <g id="Medical">
      <g>
        <path d="M36,42H17l-1.6-.2A6.4,6.4,0,0,0,16,39a7,7,0,0,0-7-7v-.8a8.1,8.1,0,0,1,7.3-8L33.1,22A2,2,0,0,0,35,19.9a2.1,2.1,0,0,0-1.1-1.7l.6-1.6A2,2,0,0,0,33.3,14a1.9,1.9,0,0,0-2.5,1.2l-1.2,3-2.2.2L31,8.9a2,2,0,0,0-1.2-2.6,2,2,0,0,0-2.6,1.2L23,18.7l-2.1.2L26,4.9a2,2,0,0,0-1.1-2.6,2.1,2.1,0,0,0-2.6,1.2l-5.6,15a1.7,1.7,0,0,0-.1.7H16a12.2,12.2,0,0,0-9,5.4l4-13.9A2,2,0,1,0,7.1,9.6L3.2,23.4,2.4,26a12.2,12.2,0,0,0,1,8.8A6.8,6.8,0,0,0,2,39a7,7,0,0,0,7,7,6.4,6.4,0,0,0,3.4-.9A12.2,12.2,0,0,0,17,46H36a2,2,0,0,0,0-4ZM9,42a3,3,0,0,1,0-6,3,3,0,0,1,0,6Z"/>
        <path d="M42,36H28a2,2,0,0,0,0,4H42a2,2,0,0,0,0-4Z"/>
        <path d="M44,30H28a2,2,0,0,0,0,4H44a2,2,0,0,0,0-4Z"/>
        <path d="M28,24a2,2,0,0,0,0,4H42a2,2,0,0,0,0-4Z"/>
        <path d="M12.3,19H13a1.9,1.9,0,0,0,1.8-1.3L19.7,4.7a2,2,0,0,0-1.2-2.6A2,2,0,0,0,16,3.3L11.1,16.4A2,2,0,0,0,12.3,19Z"/>
        <circle cx="36" cy="7" r="3"/>
        <path d="M36.5,16A4.5,4.5,0,1,0,41,11.5,4.5,4.5,0,0,0,36.5,16ZM41,14.5A1.5,1.5,0,1,1,39.5,16,1.5,1.5,0,0,1,41,14.5Z"/>
      </g>
    </g>
  </g>
</svg>
