<svg xmlns="http://www.w3.org/2000/svg" width="48" height="48" viewBox="0 0 48 48">
  <g id="Layer_2" data-name="Layer 2">
    <g id="invisible_box" data-name="invisible box">
      <rect width="48" height="48" fill="none"/>
    </g>
    <g id="Medical">
      <g>
        <path d="M27.8,22.1a8.1,8.1,0,0,0,10.4,0A8.2,8.2,0,0,0,41,16.6a8.2,8.2,0,0,0-2-5.8L33,4l-6,6.8a8.2,8.2,0,0,0-2,5.8A8.2,8.2,0,0,0,27.8,22.1ZM30,13.5,33,10l3,3.5a3.8,3.8,0,0,1-.4,5.5,4,4,0,0,1-5.2,0,3.8,3.8,0,0,1-.4-5.5Z"/>
        <path d="M44.2,31.7a5.2,5.2,0,0,0-4-1.1l-9.9,1.8a4.5,4.5,0,0,0-1.4-3.3L21.8,22H6.1A2.1,2.1,0,0,0,4,23.7,2,2,0,0,0,6,26H20.2l5.9,5.9a.8.8,0,0,1-1.2,1.2l-3.4-3.4a2.1,2.1,0,0,0-2.7-.3,1.9,1.9,0,0,0-.2,3l3.5,3.5a4.5,4.5,0,0,0,3.4,1.4,5.7,5.7,0,0,0,1.8-.3h0l13.6-2.4a1,1,0,0,1,.8.2.9.9,0,0,1,.3.7,1,1,0,0,1-.8,1L22.6,39.9,11.7,31H6.1A2.1,2.1,0,0,0,4,32.7,2,2,0,0,0,6,35h4.3l10.4,8.5a2.2,2.2,0,0,0,1.7.5l19.3-3.6a4.8,4.8,0,0,0,4.1-3.6A4.9,4.9,0,0,0,44.2,31.7Z"/>
      </g>
    </g>
  </g>
</svg>
