<svg xmlns="http://www.w3.org/2000/svg" width="48" height="48" viewBox="0 0 48 48">
  <g id="Layer_2" data-name="Layer 2">
    <g id="invisible_box" data-name="invisible box">
      <rect width="48" height="48" fill="none"/>
    </g>
    <g id="Medical">
      <g>
        <path d="M43.2,31.7a5.2,5.2,0,0,0-4-1.1l-9.9,1.8a4.5,4.5,0,0,0-1.4-3.3L20.8,22H5.1A2.1,2.1,0,0,0,3,23.7,2,2,0,0,0,5,26H19.2l5.9,5.9a.8.8,0,0,1-1.2,1.2l-3.4-3.4a2.1,2.1,0,0,0-2.7-.3,1.9,1.9,0,0,0-.2,3l3.5,3.5a4.5,4.5,0,0,0,3.4,1.4,5.7,5.7,0,0,0,1.8-.3h0l13.6-2.4a1,1,0,0,1,.8.2.9.9,0,0,1,.3.7,1,1,0,0,1-.8,1L21.6,39.9,10.7,31H5.1A2.1,2.1,0,0,0,3,32.7,2,2,0,0,0,5,35H9.3l10.4,8.5a2.2,2.2,0,0,0,1.7.5l19.3-3.6a4.8,4.8,0,0,0,4.1-3.6A4.9,4.9,0,0,0,43.2,31.7Z"/>
        <path d="M26,18h4v4a2,2,0,0,0,2,2h4a2,2,0,0,0,2-2V18h4a2,2,0,0,0,2-2V12a2,2,0,0,0-2-2H38V6a2,2,0,0,0-2-2H32a2,2,0,0,0-2,2v4H26a2,2,0,0,0-2,2v4A2,2,0,0,0,26,18Z"/>
      </g>
    </g>
  </g>
</svg>
