<svg xmlns="http://www.w3.org/2000/svg" width="48" height="48" viewBox="0 0 48 48">
  <g id="Layer_2" data-name="Layer 2">
    <g id="invisible_box" data-name="invisible box">
      <rect width="48" height="48" fill="none"/>
    </g>
    <g id="Medical">
      <g>
        <path d="M37,28.5V14a2,2,0,0,0-4,0V28.5a2,2,0,0,0,4,0Z"/>
        <path d="M30.1,39.2A8.3,8.3,0,0,1,25,41H23.2c-4.5,0-8.7-3.4-9-7.3L13,18.8A2,2,0,0,0,10.8,17,2,2,0,0,0,9,19.2L10.2,34c.5,6,6.5,11,13,11H25a12.2,12.2,0,0,0,7.7-2.8,2,2,0,0,0,.2-2.8A1.9,1.9,0,0,0,30.1,39.2Z"/>
        <path d="M29,24a2,2,0,0,0,2-2V8a2,2,0,0,0-4,0V22A2,2,0,0,0,29,24Z"/>
        <path d="M23,24a2,2,0,0,0,2-2V5a2,2,0,0,0-4,0V22A2,2,0,0,0,23,24Z"/>
        <path d="M17,24a2,2,0,0,0,2-2V8a2,2,0,0,0-4,0V22A2,2,0,0,0,17,24Z"/>
        <path d="M16.8,29a1,1,0,0,0,0,2l1.8.3.4,1.9a1,1,0,0,0,2,0l.4-1.9,1.8-.3a1,1,0,0,0,0-2l-1.8-.3L21,26.8a1,1,0,0,0-2,0l-.4,1.9Z"/>
        <path d="M45.2,34.5l-3.4-.7L41,30.3a1,1,0,0,0-2,0l-.8,3.5-3.4.7a1,1,0,0,0,0,2l3.4.7.8,3.5a1,1,0,0,0,2,0l.8-3.5,3.4-.7a1,1,0,0,0,0-2Z"/>
        <path d="M12,8a1,1,0,0,0-.8-1L8.6,6.5,8,3.8A1,1,0,0,0,7,3a1,1,0,0,0-1,.8L5.4,6.5,2.8,7A1,1,0,0,0,2,8a1,1,0,0,0,.8,1l2.6.5L6,12.2A1,1,0,0,0,7,13a1,1,0,0,0,1-.8l.6-2.7L11.2,9A1,1,0,0,0,12,8Z"/>
      </g>
    </g>
  </g>
</svg>
