<svg xmlns="http://www.w3.org/2000/svg" width="48" height="48" viewBox="0 0 48 48">
  <title>heart-health</title>
  <g id="Layer_2" data-name="Layer 2">
    <g id="invisible_box" data-name="invisible box">
      <rect width="48" height="48" fill="none"/>
    </g>
    <g id="icons_Q2" data-name="icons Q2">
      <path d="M42.5,7.6A12,12,0,0,0,34,4c-3.9,0-8,3.1-10,6.5C22,7.1,17.9,4,14,4A12,12,0,0,0,5.5,7.6,11.9,11.9,0,0,0,2,16.1,11.1,11.1,0,0,0,2.2,18H6.3A6.8,6.8,0,0,1,6,16.1a7.7,7.7,0,0,1,2.4-5.6A7.6,7.6,0,0,1,14,8.1c2.2,0,5.1,2,6.5,4.4L23.1,17a1.1,1.1,0,0,0,1.8,0l2.6-4.5c1.4-2.4,4.3-4.4,6.5-4.4a7.6,7.6,0,0,1,5.6,2.4A7.7,7.7,0,0,1,42,16.1c0,1.8-.9,3.7-2.7,5.9H25.9L24,25.1l-5.1-8.6a1.1,1.1,0,0,0-1.8,0L13.9,22H7a2,2,0,0,0-2,2.3A2.1,2.1,0,0,0,7.1,26h9L18,22.9l5.1,8.6a1.1,1.1,0,0,0,1.8,0L28.1,26h7.6L24,38.5,16,30H10.5L23.3,43.7a1,1,0,0,0,1.4,0C27.7,40.5,39,28.5,41,26.2s5-6,5-10.1A11.9,11.9,0,0,0,42.5,7.6Z"/>
    </g>
  </g>
</svg>
