<svg xmlns="http://www.w3.org/2000/svg" width="48" height="48" viewBox="0 0 48 48">
  <title>heart-health-solid</title>
  <g id="Layer_2" data-name="Layer 2">
    <g id="invisible_box" data-name="invisible box">
      <rect width="48" height="48" fill="none"/>
    </g>
    <g id="icons_Q2" data-name="icons Q2">
      <path d="M42.5,7.6A12,12,0,0,0,34,4c-3.9,0-8,3.1-10,6.5C22,7.1,17.9,4,14,4A12,12,0,0,0,5.5,7.6,11.9,11.9,0,0,0,2,16.1,11.3,11.3,0,0,0,3.8,22H13.9l3.2-5.5a1.1,1.1,0,0,1,1.8,0L24,25.1,25.9,22h8A2.1,2.1,0,0,1,36,23.7,2,2,0,0,1,34,26H28.1l-3.2,5.5a1.1,1.1,0,0,1-1.8,0L18,22.9,16.1,26H6.8a.2.2,0,0,0,.2.2c2,2.3,13.3,14.3,16.3,17.5a1,1,0,0,0,1.4,0C27.7,40.5,39,28.5,41,26.2s5-6,5-10.1A11.9,11.9,0,0,0,42.5,7.6Z"/>
    </g>
  </g>
</svg>
