<svg xmlns="http://www.w3.org/2000/svg" width="48" height="48" viewBox="0 0 48 48">
  <title>heart-like</title>
  <g id="Layer_2" data-name="Layer 2">
    <g id="invisible_box" data-name="invisible box">
      <rect width="48" height="48" fill="none"/>
    </g>
    <g id="icons_Q2" data-name="icons Q2">
      <path d="M34,8.1a7.6,7.6,0,0,1,5.6,2.4A7.7,7.7,0,0,1,42,16.1c0,2.1-1.3,4.5-3.9,7.4L24,38.5,9.9,23.5C7.3,20.6,6,18.2,6,16.1a7.7,7.7,0,0,1,2.4-5.6A7.6,7.6,0,0,1,14,8.1c2.2,0,5.1,2,6.5,4.5L23.1,17a1.1,1.1,0,0,0,1.8,0l2.6-4.4c1.4-2.5,4.3-4.5,6.5-4.5M34,4c-3.9,0-8,3.1-10,6.5C22,7.1,17.9,4,14,4A12,12,0,0,0,5.5,7.6,11.9,11.9,0,0,0,2,16.1c0,4.1,2.7,7.6,5,10.2L23.3,43.7a1,1,0,0,0,1.4,0L41,26.3c2.3-2.6,5-6.1,5-10.2A12.1,12.1,0,0,0,34,4Z"/>
    </g>
  </g>
</svg>
