<svg xmlns="http://www.w3.org/2000/svg" width="48" height="48" viewBox="0 0 48 48">
  <title>help-circle</title>
  <g id="Layer_2" data-name="Layer 2">
    <g id="invisible_box" data-name="invisible box">
      <rect width="48" height="48" fill="none"/>
    </g>
    <g id="icons_Q2" data-name="icons Q2">
      <path d="M24,2A22,22,0,1,0,46,24,21.9,21.9,0,0,0,24,2Zm0,40A18,18,0,1,1,42,24,18.1,18.1,0,0,1,24,42Z"/>
      <path d="M24,38h-.4l-.4-.2h-.3l-.3-.3-.3-.3c0-.1-.1-.2-.2-.3s0-.3-.1-.4v-.8c.1-.1.1-.2.1-.4s.2-.2.2-.3l.3-.3a1.9,1.9,0,0,1,1.8-.6h.4l.3.2.3.3.3.3c0,.1.1.2.1.3s.1.3.2.4v.8c-.1.1-.1.2-.2.4s-.1.2-.1.3l-.3.3-.3.3h-.3l-.4.2Z"/>
      <path d="M24.4,30h-.8a2,2,0,0,1-1.1-2.6,7.3,7.3,0,0,1,3.6-3.9A4.9,4.9,0,0,0,25,14.1a5.3,5.3,0,0,0-4.2,1A5.3,5.3,0,0,0,19,18.9a2,2,0,0,1-4,0,8.8,8.8,0,0,1,3.3-6.8,8.8,8.8,0,0,1,7.5-1.9,8.9,8.9,0,0,1,2,16.8,3.7,3.7,0,0,0-1.6,1.7A1.9,1.9,0,0,1,24.4,30Z"/>
    </g>
  </g>
</svg>
