<svg xmlns="http://www.w3.org/2000/svg" width="48" height="48" viewBox="0 0 48 48">
  <g id="Layer_2" data-name="Layer 2">
    <g id="invisible_box" data-name="invisible box">
      <rect width="48" height="48" fill="none"/>
    </g>
    <g id="Layer_7" data-name="Layer 7">
      <g>
        <path d="M27.2,34.8l-4.5.4s2.2-7.9,3.8-13.2a4.1,4.1,0,0,0-3.6-5.5,3.6,3.6,0,0,0-2.7,1.2l-4,3.3a.7.7,0,0,0,.6,1.2l4.5-.4L17.5,35a4.1,4.1,0,0,0,3.6,5.5,3.6,3.6,0,0,0,2.7-1.2l4-3.3A.7.7,0,0,0,27.2,34.8Z"/>
        <circle cx="26" cy="11" r="3"/>
      </g>
    </g>
  </g>
</svg>
