<svg xmlns="http://www.w3.org/2000/svg" width="48" height="48" viewBox="0 0 48 48">
  <title>home</title>
  <g id="Layer_2" data-name="Layer 2">
    <g id="invisible_box" data-name="invisible box">
      <rect width="48" height="48" fill="none"/>
    </g>
    <g id="icons_Q2" data-name="icons Q2">
      <path d="M24,7,40,21.6V40H33V25.9a2,2,0,0,0-2-2H17a2,2,0,0,0-2,2V40H8V21.6L24,7m0-5a1.1,1.1,0,0,0-.7.3L4.6,19.2A2,2,0,0,0,4,20.7V44H19V27.9H29V44H44V20.7a2,2,0,0,0-.6-1.5L24.7,2.3A1.1,1.1,0,0,0,24,2Z"/>
    </g>
  </g>
</svg>
