<svg xmlns="http://www.w3.org/2000/svg" width="48" height="48" viewBox="0 0 48 48">
  <g id="Layer_2" data-name="Layer 2">
    <g id="invisible_box" data-name="invisible box">
      <rect width="48" height="48" fill="none"/>
    </g>
    <g id="Horoscope">
      <path d="M45.4,37.6l-4-4a2,2,0,0,0-2.8,2.8l.6.6H38a2,2,0,0,1-2-2V10A7,7,0,0,0,24,5.1a7,7,0,0,0-10,0A7,7,0,0,0,2,10v5a2,2,0,0,0,4,0V10A2.9,2.9,0,0,1,9,7a2.9,2.9,0,0,1,3,3V34a2,2,0,0,0,4,0V10a3,3,0,0,1,6,0V34a2,2,0,0,0,4,0V10a3,3,0,0,1,6,0V35a6,6,0,0,0,6,6h1.2l-.6.6a1.9,1.9,0,0,0,0,2.8,1.9,1.9,0,0,0,2.8,0l4-4A1.9,1.9,0,0,0,45.4,37.6Z"/>
    </g>
  </g>
</svg>
