<svg xmlns="http://www.w3.org/2000/svg" width="48" height="48" viewBox="0 0 48 48">
  <g id="Layer_2" data-name="Layer 2">
    <g id="invisible_box" data-name="invisible box">
      <rect width="48" height="48" fill="none"/>
    </g>
    <g id="Medical">
      <g>
        <path d="M24,2A22,22,0,1,0,46,24,22.1,22.1,0,0,0,24,2Zm0,40A18,18,0,1,1,42,24,18.1,18.1,0,0,1,24,42Z"/>
        <path d="M31,13a2,2,0,0,0-2,2v7H19V15a2,2,0,0,0-4,0V33a2,2,0,0,0,4,0V26H29v7a2,2,0,0,0,4,0V15A2,2,0,0,0,31,13Z"/>
      </g>
    </g>
  </g>
</svg>
