<svg xmlns="http://www.w3.org/2000/svg" width="48" height="48" viewBox="0 0 48 48">
  <g id="Layer_2" data-name="Layer 2">
    <g id="invisible_box" data-name="invisible box">
      <rect width="48" height="48" fill="none"/>
    </g>
    <g id="Medical">
      <g>
        <path d="M41,42H40V9a2.9,2.9,0,0,0-3-3H30V4a2,2,0,0,0-2-2H20a2,2,0,0,0-2,2V6H11A2.9,2.9,0,0,0,8,9V42H7a2,2,0,0,0,0,4H41a2,2,0,0,0,0-4ZM21,7h2V5a1,1,0,0,1,2,0V7h2a1,1,0,0,1,0,2H25v2a1,1,0,0,1-2,0V9H21a1,1,0,0,1,0-2ZM36,42H27V35H21v7H12V10h6v2a2,2,0,0,0,2,2h8a2,2,0,0,0,2-2V10h6Z"/>
        <rect x="16" y="17" width="6" height="6"/>
        <rect x="26" y="17" width="6" height="6"/>
        <rect x="16" y="26" width="6" height="6"/>
        <rect x="26" y="26" width="6" height="6"/>
      </g>
    </g>
  </g>
</svg>
