<svg xmlns="http://www.w3.org/2000/svg" width="48" height="48" viewBox="0 0 48 48">
  <title>instagram</title>
  <g id="Layer_2" data-name="Layer 2">
    <g id="invisible_box" data-name="invisible box">
      <rect width="48" height="48" fill="none"/>
      <rect width="48" height="48" fill="none"/>
    </g>
    <g id="icons_Q2" data-name="icons Q2">
      <path d="M24,7.6h8.1a10.8,10.8,0,0,1,3.7.7,6.7,6.7,0,0,1,3.8,3.8,10.8,10.8,0,0,1,.7,3.7c.1,2.1.1,2.8.1,8.1s0,6-.1,8.1a10.8,10.8,0,0,1-.7,3.7,6.7,6.7,0,0,1-3.8,3.8,10.8,10.8,0,0,1-3.7.7H15.9a10.8,10.8,0,0,1-3.7-.7,6.7,6.7,0,0,1-3.8-3.8,10.8,10.8,0,0,1-.7-3.7c-.1-2.1-.1-2.8-.1-8.1s0-6,.1-8.1a10.8,10.8,0,0,1,.7-3.7,6.7,6.7,0,0,1,3.8-3.8,10.8,10.8,0,0,1,3.7-.7H24M24,4H15.8a17.9,17.9,0,0,0-4.9.9A10,10,0,0,0,7.4,7.4a8.5,8.5,0,0,0-2.3,3.5,14.5,14.5,0,0,0-1,4.9C4,17.9,4,18.6,4,24s0,6.1.1,8.2a14.5,14.5,0,0,0,1,4.9,8.5,8.5,0,0,0,2.3,3.5,8.5,8.5,0,0,0,3.5,2.3,14.5,14.5,0,0,0,4.9,1H32.2a14.5,14.5,0,0,0,4.9-1,8.5,8.5,0,0,0,3.5-2.3A10,10,0,0,0,43,37.1a17.9,17.9,0,0,0,.9-4.9c.1-2.1.1-2.8.1-8.2s0-6.1-.1-8.2a17.9,17.9,0,0,0-.9-4.9,10,10,0,0,0-2.4-3.5A10,10,0,0,0,37.1,5a17.9,17.9,0,0,0-4.9-.9H24"/>
      <path d="M24,13.7A10.3,10.3,0,1,0,34.3,24,10.3,10.3,0,0,0,24,13.7m0,17A6.7,6.7,0,1,1,30.7,24,6.7,6.7,0,0,1,24,30.7"/>
      <path d="M37.1,13.3a2.4,2.4,0,1,1-2.4-2.4,2.4,2.4,0,0,1,2.4,2.4"/>
    </g>
  </g>
</svg>
