<svg xmlns="http://www.w3.org/2000/svg" width="48" height="48" viewBox="0 0 48 48">
  <title>invoice-solid</title>
  <g id="Layer_2" data-name="Layer 2">
    <g id="invisible_box" data-name="invisible box">
      <rect width="48" height="48" fill="none"/>
      <rect width="48" height="48" fill="none"/>
      <rect width="48" height="48" fill="none"/>
    </g>
    <g id="Q3_icons" data-name="Q3 icons">
      <path d="M41,2H7A2,2,0,0,0,5,4V43a1,1,0,0,0,1,1,1.1,1.1,0,0,0,.7-.3L13,39.1l4.3,4.6a1,1,0,0,0,1.4,0L24,39.1l5.3,4.6a1,1,0,0,0,1.4,0L35,39.1l6.3,4.6a1.1,1.1,0,0,0,.7.3,1,1,0,0,0,1-1V4A2,2,0,0,0,41,2ZM24,30H16a2,2,0,0,1,0-4h8a2,2,0,0,1,0,4Zm0-8H16a2,2,0,0,1,0-4h8a2,2,0,0,1,0,4Zm0-8H16a2,2,0,0,1,0-4h8a2,2,0,0,1,0,4Zm8,16H30a2,2,0,0,1,0-4h2a2,2,0,0,1,0,4Zm0-8H30a2,2,0,0,1,0-4h2a2,2,0,0,1,0,4Zm0-8H30a2,2,0,0,1,0-4h2a2,2,0,0,1,0,4Z"/>
    </g>
  </g>
</svg>
