<svg xmlns="http://www.w3.org/2000/svg" width="48" height="48" viewBox="0 0 48 48">
  <title>java</title>
  <g id="Layer_2" data-name="Layer 2">
    <g id="invisible_box" data-name="invisible box">
      <rect width="48" height="48" fill="none"/>
    </g>
    <g id="Q3_icons" data-name="Q3 icons">
      <g>
        <path d="M28.6,2.2a4.6,4.6,0,0,1,1.1,4.2,9.5,9.5,0,0,1-2.4,4.4,25.2,25.2,0,0,1-3,2.7A11.9,11.9,0,0,0,21,16.9a4.1,4.1,0,0,0-.4,3.7c.7,2.1,2.5,3.6,3.4,5.5-1-.8-2-1.8-3-2.7A14,14,0,0,1,18.4,20a4.2,4.2,0,0,1-.3-2.9,6.4,6.4,0,0,1,1.8-2.5c2-1.9,4.5-3.3,6.5-5.3a7.8,7.8,0,0,0,2.3-3.9,6.9,6.9,0,0,0-.1-3.2Z"/>
        <path d="M27,14.3a23.3,23.3,0,0,1,7.2-3.2,38.3,38.3,0,0,0-5.9,4,5.9,5.9,0,0,0-1.5,2,3.1,3.1,0,0,0,.1,1.9,27.5,27.5,0,0,0,1.9,2.8,2.9,2.9,0,0,1,.2,2.7,6.5,6.5,0,0,1-3,2.9c-.1.1-.2.3-.4.3A3.8,3.8,0,0,0,27,25a3.5,3.5,0,0,0-1-2.1c-1.1-1.3-2.1-2.9-1.9-4.5A6.3,6.3,0,0,1,27,14.3Z"/>
        <path d="M34.6,26.6a3.4,3.4,0,0,1,1.9-.7,4.1,4.1,0,0,1,3.4.9,3.1,3.1,0,0,1,1,2.6,5.4,5.4,0,0,1-1.8,2.7,14,14,0,0,1-5.5,2.3l.4-.3a11.4,11.4,0,0,0,4-2.9,3.1,3.1,0,0,0,1-2.7,2.9,2.9,0,0,0-2.7-2.1,5,5,0,0,0-1.7.2Z"/>
        <path d="M12.2,27.6a16.1,16.1,0,0,1,6.5-1.3,19.4,19.4,0,0,0-3.9,1.2,1.6,1.6,0,0,0-.8.6c0,.2.2.3.4.4a9.3,9.3,0,0,0,2.4.4,61.7,61.7,0,0,0,8.6-.1,79.8,79.8,0,0,0,8.4-.9,6.1,6.1,0,0,0-1.8.9,3.8,3.8,0,0,1-1,.3,60.1,60.1,0,0,1-10.4,1H16.5a21.2,21.2,0,0,1-4.4-.6,2.2,2.2,0,0,1-1.2-.5.3.3,0,0,1-.1-.5,3.9,3.9,0,0,1,1.4-.8Z"/>
        <path d="M14.8,32.2a7.5,7.5,0,0,1,2-1c-.2.3-.6.5-.6.9a.7.7,0,0,0,.4.5l1.2.3a46.6,46.6,0,0,0,6.5.2c1.9-.1,3.9-.4,5.9-.7A7.8,7.8,0,0,0,32,33.5a43.3,43.3,0,0,1-7.2,1.2,39.8,39.8,0,0,1-6.9-.2,12,12,0,0,1-2.7-.8,1.4,1.4,0,0,1-.8-.7.7.7,0,0,1,.4-.8Z"/>
        <path d="M16.1,36.8a5.8,5.8,0,0,1,1.8-.8c-.2.2-.6.5-.4.8a2.5,2.5,0,0,0,1.3.5,36.2,36.2,0,0,0,5.7.2,30.3,30.3,0,0,0,4.2-.6,14.2,14.2,0,0,0,2.5,1.2,19.3,19.3,0,0,1-4.1,1.2,22.4,22.4,0,0,1-7.3.1,11.1,11.1,0,0,1-3.1-.9,1.6,1.6,0,0,1-.9-.9.8.8,0,0,1,.3-.8Z"/>
        <path d="M9.9,39.8a11.3,11.3,0,0,1,3.2-.6,2.3,2.3,0,0,1,1.2.2,10.2,10.2,0,0,0-3.7,1,1.1,1.1,0,0,0-.7.6c0,.3.4.4.7.5a17,17,0,0,0,5,.9,97.7,97.7,0,0,0,15.3-.1,37.5,37.5,0,0,0,5.7-.9,3.7,3.7,0,0,0,1.6-.9.7.7,0,0,0-.2-.9c.4.2,1,.4.9.9a2.6,2.6,0,0,1-1.2,1.1,23.2,23.2,0,0,1-4.5,1.3,58.8,58.8,0,0,1-13.9.9,74.6,74.6,0,0,1-10.4-1,2.6,2.6,0,0,1-1.7-.7.7.7,0,0,1,.2-1,7.5,7.5,0,0,1,2.5-1.3Z"/>
        <path d="M37.8,43.5a8.3,8.3,0,0,0,3.1-1.6c-.1.9-1,1.5-1.8,1.9A17.7,17.7,0,0,1,34,45.3a60.7,60.7,0,0,1-11.3.6,39.4,39.4,0,0,1-7.7-.6,5.6,5.6,0,0,1-1.8-.7,38.2,38.2,0,0,0,6.8.6,84.8,84.8,0,0,0,11.3-.4,46.7,46.7,0,0,0,6.5-1.3Z"/>
      </g>
    </g>
  </g>
</svg>
