<svg xmlns="http://www.w3.org/2000/svg" width="48" height="48" viewBox="0 0 48 48">
  <title>jenkins</title>
  <g id="Layer_2" data-name="Layer 2">
    <g id="invisible_box" data-name="invisible box">
      <rect width="48" height="48" fill="none"/>
    </g>
    <g id="Q3_icons" data-name="Q3 icons">
      <g id="surface1">
        <path d="M26.4,2c-5.8,0-9.9,1-12.7,2.6A8.3,8.3,0,0,0,9.4,9.9a4.9,4.9,0,0,0-1.7,1.8c-.9,1.4-1.2,3.7-.4,7.2a5.5,5.5,0,0,0-2.2,3.7,5.9,5.9,0,0,0,1.5,4.9,6.1,6.1,0,0,0,3.2,1.9c.4.1.4,0,.7,0a22.2,22.2,0,0,0,1.8,5L7.6,37.1l-3.5,2-1.2.8-.4.3-.2.2s-.2.1-.2.5v.7L3.8,46H42.5l.2-.8s.2-1.3.5-2.8a23.3,23.3,0,0,0,.4-4.1,1.2,1.2,0,0,0-.2-.7l-.3-.3-.8-.6-2-1.3-2-1.2a15.2,15.2,0,0,0,2-3.6,29.2,29.2,0,0,0,1.8-13.4c-.4-5.6-2.3-9.5-5.2-11.9A15.4,15.4,0,0,0,27.4,2h-1Zm.7,1.9a13.3,13.3,0,0,1,8.6,2.9,12,12,0,0,1,3.1,4.1l-1.1-.3H34.9l.3,1.9a7,7,0,0,1,2.2,0,2.5,2.5,0,0,1,2.4,2.2h.1a9,9,0,0,1,.2,1.8,2,2,0,0,0-.4-.8l-1-1.7-1.6.9a15.6,15.6,0,0,1,.9,1.7,4.1,4.1,0,0,1,.6,1.1,7,7,0,0,1-2.3-.4l-.6,1.9a10.8,10.8,0,0,0,3,.4,2.8,2.8,0,0,0,1.3-.3h.3a26.8,26.8,0,0,1-1.8,10.7,14.6,14.6,0,0,1-2,3.6h0a7.4,7.4,0,0,1-6.2,3c-4.5,0-8.6-2.1-9.9-3.5a7,7,0,0,1-1.6-3.3l-1.9.3A8.4,8.4,0,0,0,19,34.2a11.8,11.8,0,0,0,2.7,2,2.2,2.2,0,0,0-1.4.9.4.4,0,0,0-.1.3,8.7,8.7,0,0,1-4.6-1.6,5.2,5.2,0,0,1-1.2-1.3v-.2a19.1,19.1,0,0,1-1.9-5.1,5.2,5.2,0,0,0,1.5-1.9l-1.7-.9a4.8,4.8,0,0,1-.8,1.2h-.3a1.6,1.6,0,0,1-.9-.1A3.7,3.7,0,0,1,8,26.2a4.3,4.3,0,0,1-1-3.4,3.5,3.5,0,0,1,1.7-2.7h0a3.1,3.1,0,0,1,2.1-.6,1.2,1.2,0,0,1,.8.6,6.6,6.6,0,0,1,.5,2v1.5l3.8-1.9v-.6a7.6,7.6,0,0,0-.5-2.3,4.1,4.1,0,0,1,.3-2.8,21.3,21.3,0,0,0,1.1-3.3,3.7,3.7,0,0,0-.4-2.7,8.8,8.8,0,0,1,1.9-2.6A12.2,12.2,0,0,1,27.1,3.9Zm-8.7.9L16.9,6.1a10.7,10.7,0,0,0-2,2.6h0a29.8,29.8,0,0,0-3.4.6,7,7,0,0,1,3.1-3.1A20.4,20.4,0,0,1,18.4,4.8Zm5.4,5.6a4.9,4.9,0,0,0-3.7,1.5,6,6,0,0,0-1.3,2.3l1.9.4a2.7,2.7,0,0,1,.8-1.4c.6-.6,1.6-1.2,3.8-.7l.4-1.9Zm-9.3.3a1.7,1.7,0,0,1,.5,1.6c-.1.6-.7,1.8-1.1,3a5.8,5.8,0,0,0-.3,4.1,9,9,0,0,1,.3,1.2h-.2a4.4,4.4,0,0,0-.5-1.5,3,3,0,0,0-2-1.6,4.9,4.9,0,0,0-2.3.3c-.5-2.8-.1-4.4.4-5.3l.8-.9h0A24.6,24.6,0,0,1,14.5,10.7Zm12.8,3.4-1.8.7.7,1.8a14.7,14.7,0,0,0,1,2.2,5.2,5.2,0,0,1-2.3-.5l-.8,1.8a6.4,6.4,0,0,0,3.6.6,1.8,1.8,0,0,0,1.3-.8,1.5,1.5,0,0,0,0-1.7,13.8,13.8,0,0,1-1-2.3Zm5.8,1.3H31.2a9.6,9.6,0,0,0,3.2,6.4,11.7,11.7,0,0,1,2,2.2h-.1a7.2,7.2,0,0,1-2.2,1.1,9.3,9.3,0,0,1-2.9.6H31a4.3,4.3,0,0,1,.1-.5l-1.7-.7a3.3,3.3,0,0,0-.3,1.3,2.4,2.4,0,0,0,.5,1.3,2.3,2.3,0,0,0,1.6.6,9.1,9.1,0,0,0,3.5-.7,8.7,8.7,0,0,0,2.9-1.4,2.1,2.1,0,0,0,.7-1.1,1.7,1.7,0,0,0-.1-1.4,11.3,11.3,0,0,0-2.5-2.8A7.6,7.6,0,0,1,33.1,15.4ZM9.6,21.3a4.1,4.1,0,0,0-1.3,3.8l1.9-.3a1.9,1.9,0,0,1,.6-2ZM27,27.1l-1.2,1.5a10.7,10.7,0,0,0,7.5,2.1L33,28.8A8.3,8.3,0,0,1,27,27.1Zm10.2.1A6.1,6.1,0,0,1,34,28.8l.2,1.9a7.2,7.2,0,0,0,4.4-2.2ZM26.4,30.4l-1.9.6a4.3,4.3,0,0,0,2.2,2.4,7.4,7.4,0,0,0,2.9.5,12.4,12.4,0,0,0,3.7-.4l-.4-1.8a12,12,0,0,1-3.2.3,5.1,5.1,0,0,1-2.2-.4A1.9,1.9,0,0,1,26.4,30.4ZM37,35.7,39.3,37l1.9,1.3.5.3c0,.5-.2,2.1-.4,3.5l-.4,2H37.4a2.3,2.3,0,0,0,1.1-1.3,12.4,12.4,0,0,0,.4-1.6,27.8,27.8,0,0,0,0-2.9,3.6,3.6,0,0,0-1.6-2.3H37Zm-23.9.4a11.3,11.3,0,0,0,1.7,2.7,16.4,16.4,0,0,0,5,4c.1.4.1.7.2,1.1a.3.3,0,0,1,.1.2H5.1L4,41.5a5.2,5.2,0,0,1,1.1-.7l3.4-2.1Zm22.4,1.3.9.2a1.2,1.2,0,0,1,.6.9,18.9,18.9,0,0,1,0,2.4,2.5,2.5,0,0,1-.2,1c-.1.3-.2.4-.3.4a5.1,5.1,0,0,1-2.5.2l-1.5-.3H28.9l-2.3.9a15.3,15.3,0,0,1-4,.9h-.5c0-.1-.1-.2-.2-.6a19.6,19.6,0,0,1-.2-4h0a1.7,1.7,0,0,1,.1-1.1l.7-.3a5.5,5.5,0,0,1,2.8.7h0l3.8,1.7h1.5l.3-.3,2.3-1.6,1.3-.7.6-.2h.1C35.2,37.4,35.3,37.4,35.5,37.4Zm-6,.9h0Zm-11.9.5a7.8,7.8,0,0,0,2.2.4v.3h0v1A15.3,15.3,0,0,1,17.6,38.8Z"/>
      </g>
    </g>
  </g>
</svg>
