<svg xmlns="http://www.w3.org/2000/svg" width="48" height="48" viewBox="0 0 48 48">
  <title>key-circle</title>
  <g id="Layer_2" data-name="Layer 2">
    <g id="invisible_box" data-name="invisible box">
      <rect width="48" height="48" fill="none"/>
    </g>
    <g id="icons_Q2" data-name="icons Q2">
      <g>
        <path d="M24,2A22,22,0,1,0,46,24,21.9,21.9,0,0,0,24,2Zm0,40A18,18,0,1,1,42,24,18.1,18.1,0,0,1,24,42Z"/>
        <path d="M25.2,22.3A7.3,7.3,0,0,0,26,19a7,7,0,1,0-7,7,7.3,7.3,0,0,0,3.3-.8L25.2,28l-2.6,2.6a1.9,1.9,0,0,0,0,2.8,1.9,1.9,0,0,0,2.8,0L28,30.8,29.2,32l-2.6,2.6a1.9,1.9,0,0,0,0,2.8,1.9,1.9,0,0,0,2.8,0l4-4a1.9,1.9,0,0,0,0-2.8ZM16,19a3,3,0,1,1,3,3A2.9,2.9,0,0,1,16,19Z"/>
      </g>
    </g>
  </g>
</svg>
