<svg xmlns="http://www.w3.org/2000/svg" width="48" height="48" viewBox="0 0 48 48">
  <title>key-circle-solid</title>
  <g id="Layer_2" data-name="Layer 2">
    <g id="invisible_box" data-name="invisible box">
      <rect width="48" height="48" fill="none"/>
    </g>
    <g id="icons_Q2" data-name="icons Q2">
      <g>
        <path d="M24,2A22,22,0,1,0,46,24,21.9,21.9,0,0,0,24,2Zm9.4,31.4-4,4a1.9,1.9,0,0,1-2.8,0,1.9,1.9,0,0,1,0-2.8L29.2,32,28,30.8l-2.6,2.6a1.9,1.9,0,0,1-2.8,0,1.9,1.9,0,0,1,0-2.8L25.2,28l-2.9-2.8A7.3,7.3,0,0,1,19,26a7,7,0,1,1,7-7,7.3,7.3,0,0,1-.8,3.3l8.2,8.3A1.9,1.9,0,0,1,33.4,33.4ZM19,16a2.9,2.9,0,0,0-3,3,3,3,0,0,0,6,0A2.9,2.9,0,0,0,19,16Z"/>
        <path d="M19,16a2.9,2.9,0,0,0-3,3,3,3,0,0,0,6,0A2.9,2.9,0,0,0,19,16Zm0,0a2.9,2.9,0,0,0-3,3,3,3,0,0,0,6,0A2.9,2.9,0,0,0,19,16Z"/>
      </g>
    </g>
  </g>
</svg>
