<svg xmlns="http://www.w3.org/2000/svg" width="48" height="48" viewBox="0 0 48 48">
  <title>keyboard-return-solid</title>
  <g id="Layer_2" data-name="Layer 2">
    <g id="invisible_box" data-name="invisible box">
      <rect width="48" height="48" fill="none"/>
    </g>
    <g id="Q3_icons" data-name="Q3 icons">
      <path d="M44,13a2,2,0,0,0-4,0V25H10.8l4.6-4.6a1.9,1.9,0,0,0-.2-3,2.1,2.1,0,0,0-2.7.2l-7.9,8a1.9,1.9,0,0,0,0,2.8l7.9,8a2.1,2.1,0,0,0,2.7.2,1.9,1.9,0,0,0,.2-3L10.8,29H42a2,2,0,0,0,2-2Z"/>
    </g>
  </g>
</svg>
