<svg xmlns="http://www.w3.org/2000/svg" width="48" height="48" viewBox="0 0 48 48">
  <title>keyboard-backspace-solid</title>
  <g id="Layer_2" data-name="Layer 2">
    <g id="invisible_box" data-name="invisible box">
      <rect width="48" height="48" fill="none"/>
    </g>
    <g id="Q3_icons" data-name="Q3 icons">
      <path d="M44,9H14.5a.9.9,0,0,0-.8.4L2.4,22.8a1.8,1.8,0,0,0,0,2.4L13.7,38.6a.9.9,0,0,0,.8.4H44a2,2,0,0,0,2-2V11A2,2,0,0,0,44,9ZM33.3,27.5a2.1,2.1,0,0,1,.4,2.7,2,2,0,0,1-3.1.2L27,26.8l-3.6,3.6a2,2,0,0,1-3.1-.2,2.1,2.1,0,0,1,.4-2.7L24.2,24l-3.5-3.5a2.2,2.2,0,0,1-.4-2.7,2,2,0,0,1,3.1-.2L27,21.2l3.6-3.6a2,2,0,0,1,3.1.2,2.2,2.2,0,0,1-.4,2.7L29.8,24Z"/>
    </g>
  </g>
</svg>
