<svg xmlns="http://www.w3.org/2000/svg" width="48" height="48" viewBox="0 0 48 48">
  <title>keyboard-return-solid_1</title>
  <g id="Layer_2" data-name="Layer 2">
    <g id="invisible_box" data-name="invisible box">
      <rect width="48" height="48" fill="none"/>
    </g>
    <g id="Q3_icons" data-name="Q3 icons">
      <g>
        <path d="M22,12a8,8,0,1,0-8,8A8,8,0,0,0,22,12ZM10,12a4,4,0,1,1,4,4A4,4,0,0,1,10,12Z"/>
        <path d="M34,28a8,8,0,1,0,8,8A8,8,0,0,0,34,28Zm0,12a4,4,0,1,1,4-4A4,4,0,0,1,34,40Z"/>
        <path d="M34.9,2.2a2,2,0,0,0-2.7.9l-20,40a2,2,0,0,0,.9,2.7l.9.2a2.1,2.1,0,0,0,1.8-1.1l20-40A2,2,0,0,0,34.9,2.2Z"/>
      </g>
    </g>
  </g>
</svg>
