<svg xmlns="http://www.w3.org/2000/svg" width="48" height="48" viewBox="0 0 48 48">
  <title>law-building-solid</title>
  <g id="Layer_2" data-name="Layer 2">
    <g id="invisible_box" data-name="invisible box">
      <rect width="48" height="48" fill="none"/>
    </g>
    <g id="Q3_icons" data-name="Q3 icons">
      <g>
        <rect x="5" y="36" width="38" height="4"/>
        <path d="M44,42H4a2,2,0,0,0-2,2v2H46V44A2,2,0,0,0,44,42Z"/>
        <rect x="10" y="18" width="4" height="16"/>
        <rect x="22" y="18" width="4" height="16"/>
        <rect x="34" y="18" width="4" height="16"/>
        <path d="M44.9,11.4,24,2,3.1,11.4A2.1,2.1,0,0,0,2,13.2V14a2,2,0,0,0,2,2H44a2,2,0,0,0,2-2v-.8A2.1,2.1,0,0,0,44.9,11.4Z"/>
      </g>
    </g>
  </g>
</svg>
