<svg xmlns="http://www.w3.org/2000/svg" width="48" height="48" viewBox="0 0 48 48">
  <title>lightbulb</title>
  <g id="Layer_2" data-name="Layer 2">
    <g id="invisible_box" data-name="invisible box">
      <rect width="48" height="48" fill="none"/>
    </g>
    <g id="Q3_icons" data-name="Q3 icons">
      <path d="M38.9,15.1C38.3,9.4,33.3,3.8,27.6,2.4A14.7,14.7,0,0,0,24,2,14.9,14.9,0,0,0,9,16.1a14.5,14.5,0,0,0,4.3,10.8C15,28.7,17,31.5,17,34v8a2.1,2.1,0,0,0,.8,1.6L21,46h6l3.2-2.4A2.1,2.1,0,0,0,31,42V34c0-2.4,1.9-5.3,3.7-7A14.6,14.6,0,0,0,38.9,15.1ZM27,36H21V34h6Zm-1.3,6H22.3L21,41V40h6v1Zm6.2-17.9A19.1,19.1,0,0,0,27.8,30H20.1a17.7,17.7,0,0,0-4-5.9A10.5,10.5,0,0,1,13,16.3,10.9,10.9,0,0,1,24,6a12.4,12.4,0,0,1,2.7.3c4,1,7.8,5.2,8.2,9.2A10.1,10.1,0,0,1,31.9,24.1Z"/>
    </g>
  </g>
</svg>
