<svg xmlns="http://www.w3.org/2000/svg" width="48" height="48" viewBox="0 0 48 48">
  <title>line-style-solid</title>
  <g id="Layer_2" data-name="Layer 2">
    <g id="invisible_box" data-name="invisible box">
      <rect width="48" height="48" fill="none"/>
    </g>
    <g id="icons_Q2" data-name="icons Q2">
      <rect x="4" y="7" width="40" height="4" rx="2" ry="2"/>
      <rect x="4" y="27" width="10" height="4" rx="2" ry="2"/>
      <rect x="19" y="27" width="10" height="4" rx="2" ry="2"/>
      <rect x="34" y="27" width="10" height="4" rx="2" ry="2"/>
      <rect x="26" y="17" width="18" height="4" rx="2" ry="2"/>
      <rect x="4" y="17" width="18" height="4" rx="2" ry="2"/>
      <rect x="40" y="37" width="4" height="4" rx="2" ry="2"/>
      <rect x="31" y="37" width="4" height="4" rx="2" ry="2"/>
      <rect x="22" y="37" width="4" height="4" rx="2" ry="2"/>
      <rect x="13" y="37" width="4" height="4" rx="2" ry="2"/>
      <rect x="4" y="37" width="4" height="4" rx="2" ry="2"/>
    </g>
  </g>
</svg>
