<svg xmlns="http://www.w3.org/2000/svg" width="48" height="48" viewBox="0 0 48 48">
  <g id="Layer_2" data-name="Layer 2">
    <g id="invisible_box" data-name="invisible box">
      <rect width="48" height="48" fill="none"/>
    </g>
    <g id="Layer_7" data-name="Layer 7">
      <g>
        <path d="M4,13H44a2,2,0,0,0,0-4H4a2,2,0,0,0,0,4Z"/>
        <path d="M18,33H4a2,2,0,0,0,0,4H18a2,2,0,0,0,0-4Z"/>
        <path d="M38,21H4a2,2,0,0,0,0,4H38a4,4,0,0,1,0,8H30.8l2.6-2.6a2,2,0,0,0-2.8-2.8l-6,6a1.9,1.9,0,0,0,0,2.8l6,6a1.9,1.9,0,0,0,2.8,0,1.9,1.9,0,0,0,0-2.8L30.8,37H38a8,8,0,0,0,0-16Z"/>
      </g>
    </g>
  </g>
</svg>
