<svg xmlns="http://www.w3.org/2000/svg" width="48" height="48" viewBox="0 0 48 48">
  <title>location-add</title>
  <g id="Layer_2" data-name="Layer 2">
    <g id="invisible_box" data-name="invisible box">
      <rect width="48" height="48" fill="none"/>
      <rect width="48" height="48" fill="none"/>
      <rect width="48" height="48" fill="none"/>
    </g>
    <g id="icons_Q2" data-name="icons Q2">
      <path d="M24,6c7.4,0,13,6,13,14S28.4,36.7,24,41.2C19.6,36.7,11,27.5,11,20S16.6,6,24,6m0-4C14.1,2,7,10.1,7,20S18.5,41.3,22.6,45.4a1.9,1.9,0,0,0,2.8,0C29.5,41.3,41,30.1,41,20S33.9,2,24,2Z"/>
      <path d="M30,19H26V15a2,2,0,0,0-4,0v4H18a2,2,0,0,0,0,4h4v4a2,2,0,0,0,4,0V23h4a2,2,0,0,0,0-4Z"/>
    </g>
  </g>
</svg>
