<svg xmlns="http://www.w3.org/2000/svg" width="48" height="48" viewBox="0 0 48 48">
  <title>location-edit-solid</title>
  <g id="Layer_2" data-name="Layer 2">
    <g id="invisible_box" data-name="invisible box">
      <rect width="48" height="48" fill="none"/>
    </g>
    <g id="icons_Q2" data-name="icons Q2">
      <path d="M35.5,26.1C32.8,32,27.2,37.9,24,41.2,19.6,36.7,11,27.5,11,20S16.6,6,24,6h0a2,2,0,0,0,2-2h0a2,2,0,0,0-2-2h0C14.1,2,7,10.1,7,20S18.5,41.3,22.6,45.4a1.9,1.9,0,0,0,2.8,0c3.1-3,10.2-10.1,13.7-17.6A2,2,0,0,0,37.2,25h0A1.8,1.8,0,0,0,35.5,26.1Z"/>
      <path d="M40.4,13.4,32.6,5.6a1.9,1.9,0,0,0-2.8,0L26.4,9,37,19.6l3.4-3.4A1.9,1.9,0,0,0,40.4,13.4ZM17.6,17.8a2,2,0,0,0-.6,1.4V27a2,2,0,0,0,2,2h7.8a2,2,0,0,0,1.4-.6l5.9-5.9L23.5,11.9Z"/>
    </g>
  </g>
</svg>
