<svg xmlns="http://www.w3.org/2000/svg" width="48" height="48" viewBox="0 0 48 48">
  <title>location-remove-solid</title>
  <g id="Layer_2" data-name="Layer 2">
    <g id="invisible_box" data-name="invisible box">
      <rect width="48" height="48" fill="none"/>
    </g>
    <g id="icons_Q2" data-name="icons Q2">
      <path d="M24,2C14.1,2,7,10.1,7,20S18.5,41.3,22.6,45.4a1.9,1.9,0,0,0,2.8,0C29.5,41.3,41,30.1,41,20S33.9,2,24,2Zm7.4,20.4A2,2,0,0,1,30,23H18a2,2,0,0,1-2-2,2.1,2.1,0,0,1,2-2H30a2,2,0,0,1,2,2A2,2,0,0,1,31.4,22.4Z"/>
    </g>
  </g>
</svg>
