<svg xmlns="http://www.w3.org/2000/svg" width="48" height="48" viewBox="0 0 48 48">
  <title>location-current</title>
  <g id="Layer_2" data-name="Layer 2">
    <g id="invisible_box" data-name="invisible box">
      <rect width="48" height="48" fill="none"/>
    </g>
    <g id="icons_Q2" data-name="icons Q2">
      <g>
        <path d="M44,22H39.9A16.1,16.1,0,0,0,26,8.1h0V4a2,2,0,0,0-4,0V8h0A16.1,16.1,0,0,0,8.1,22H4a2,2,0,0,0,0,4H8.1A16.1,16.1,0,0,0,22,39.9h0v4a2,2,0,0,0,4,0V40h0A16.1,16.1,0,0,0,39.9,26H44a2,2,0,0,0,0-4ZM24,36A12,12,0,1,1,36,24,12,12,0,0,1,24,36Z"/>
        <circle cx="24" cy="24" r="7"/>
      </g>
    </g>
  </g>
</svg>
