<svg xmlns="http://www.w3.org/2000/svg" width="48" height="48" viewBox="0 0 48 48">
  <title>location-not-found-solid</title>
  <g id="Layer_2" data-name="Layer 2">
    <g id="invisible_box" data-name="invisible box">
      <rect width="48" height="48" fill="none"/>
    </g>
    <g id="icons_Q2" data-name="icons Q2">
      <path d="M24,2C14.1,2,7,10.1,7,20S18.5,41.3,22.6,45.4a1.9,1.9,0,0,0,2.8,0C29.5,41.3,41,30.1,41,20S33.9,2,24,2Zm0,8a8.7,8.7,0,0,1,4.8,1.4L16.4,23.8A8.7,8.7,0,0,1,15,19,9,9,0,0,1,24,10Zm0,18a8.7,8.7,0,0,1-4.8-1.4L31.6,14.2A8.7,8.7,0,0,1,33,19,9,9,0,0,1,24,28Z"/>
    </g>
  </g>
</svg>
