<svg xmlns="http://www.w3.org/2000/svg" width="48" height="48" viewBox="0 0 48 48">
  <title>lock-open-solid</title>
  <g id="Layer_2" data-name="Layer 2">
    <g id="invisible_box" data-name="invisible box">
      <rect width="48" height="48" fill="none"/>
    </g>
    <g id="icons_Q2" data-name="icons Q2">
      <g>
        <path d="M32,21.9h0Z"/>
        <path d="M40,18H16V13a7,7,0,0,1,7-7h2a7.1,7.1,0,0,1,5,2.1,2,2,0,0,0,2.2.5h.1a1.9,1.9,0,0,0,.6-3.1A10.9,10.9,0,0,0,25,2H23A11,11,0,0,0,12,13v5H8a2,2,0,0,0-2,2V44a2,2,0,0,0,2,2H40a2,2,0,0,0,2-2V20A2,2,0,0,0,40,18ZM25.9,33.4v2.5a2,2,0,0,1-4,0V33.4a4,4,0,1,1,4,0Z"/>
      </g>
    </g>
  </g>
</svg>
