<svg xmlns="http://www.w3.org/2000/svg" width="48" height="48" viewBox="0 0 48 48">
  <g id="Layer_2" data-name="Layer 2">
    <g id="invisible_box" data-name="invisible box">
      <rect width="48" height="48" fill="none"/>
    </g>
    <g id="Medical">
      <path d="M45.4,31.1,39.7,17A6,6,0,0,0,28,18.8v3.7L26,21V5a2,2,0,0,0-4,0V21h0l-2,1.5V18.8A5.9,5.9,0,0,0,13.9,13a5.9,5.9,0,0,0-5.6,4L2.6,30.9v.2A10.2,10.2,0,0,0,5,41.7,11.3,11.3,0,0,0,12.9,45a12,12,0,0,0,3.3-.5l1-.3A3.9,3.9,0,0,0,20,40.4V35a2,2,0,0,0-4,0v5.4l-.9.3a7.1,7.1,0,0,1-7.2-1.8,6.6,6.6,0,0,1-1.6-6.5l5.7-14h.1A1.9,1.9,0,0,1,14,17a1.9,1.9,0,0,1,2,1.8v6.7l-5.2,3.9a2,2,0,1,0,2.4,3.2L24,24.5l10.8,8.1A1.9,1.9,0,0,0,36,33a2.1,2.1,0,0,0,1.6-.8,2,2,0,0,0-.4-2.8L32,25.5V18.8A1.9,1.9,0,0,1,34.1,17a1.8,1.8,0,0,1,1.8,1.3l5.8,14.1a6.6,6.6,0,0,1-1.6,6.5,7.1,7.1,0,0,1-7.2,1.8l-.9-.3V35a2,2,0,0,0-4,0v5.4a3.9,3.9,0,0,0,2.8,3.8l1,.3a12.6,12.6,0,0,0,3.3.5A11.3,11.3,0,0,0,43,41.7,10.2,10.2,0,0,0,45.4,31.1Z"/>
    </g>
  </g>
</svg>
