<svg xmlns="http://www.w3.org/2000/svg" width="48" height="48" viewBox="0 0 48 48">
  <g id="Layer_2" data-name="Layer 2">
    <g id="invisible_box" data-name="invisible box">
      <rect width="48" height="48" fill="none"/>
    </g>
    <g id="Health_Icons" data-name="Health Icons">
      <path d="M45.4,31.1,39.7,17A6,6,0,0,0,28,18.4l9.2,6.9a2,2,0,0,1,.4,2.8,1.8,1.8,0,0,1-1.6.8,1.9,1.9,0,0,1-1.2-.4L26,21.9V5a2,2,0,0,0-4,0V21.9l-8.8,6.6a1.9,1.9,0,0,1-1.2.4,1.8,1.8,0,0,1-1.6-.8,2,2,0,0,1,.4-2.8L20,18.4A5.9,5.9,0,0,0,13.9,13a5.9,5.9,0,0,0-5.6,4L2.6,30.9v.2A10,10,0,0,0,5,41.6,11,11,0,0,0,12.9,45a12,12,0,0,0,3.3-.5l1-.3A3.9,3.9,0,0,0,20,40.4V29l4-3,4,3V40.4a3.9,3.9,0,0,0,2.8,3.8l1,.3a12,12,0,0,0,3.3.5A11,11,0,0,0,43,41.6,10,10,0,0,0,45.4,31.1Z"/>
    </g>
  </g>
</svg>
