<svg xmlns="http://www.w3.org/2000/svg" width="44" height="42" viewBox="0 0 44 42">
  <g id="Layer_2" data-name="Layer 2">
    <g id="Health_Icons" data-name="Health Icons">
      <g>
        <path d="M43.4,28.1,37.7,14A6,6,0,0,0,26,15.8v.7L24,15V2a2,2,0,0,0-4,0V15l-2,1.5v-.7A5.9,5.9,0,0,0,11.9,10a5.9,5.9,0,0,0-5.6,4L.6,27.9v.2A10,10,0,0,0,3,38.6,11,11,0,0,0,10.9,42a12,12,0,0,0,3.3-.5l1-.3A3.9,3.9,0,0,0,18,37.4V35.5l.6-.4.5,1.7a3,3,0,0,0,5.8,0l.5-1.7.6.4v1.9a3.9,3.9,0,0,0,2.8,3.8l1,.3a12,12,0,0,0,3.3.5A11,11,0,0,0,41,38.6,10,10,0,0,0,43.4,28.1ZM25.3,33l-.7.2a1.7,1.7,0,0,0-1.1,1.2L23,36.3a1.1,1.1,0,0,1-2,0l-.5-2a1.7,1.7,0,0,0-1.1-1.1l-.7-.2-.7.2h-.1l-1.8.9-.5.2a1.1,1.1,0,0,1-.7-.3.9.9,0,0,1-.1-1.2l.9-1.8a1.6,1.6,0,0,0,.1-1.5,1.7,1.7,0,0,0-1.2-1.1L12.7,28a1.1,1.1,0,0,1,0-2l2-.5a1.7,1.7,0,0,0,1.1-1.1,1.6,1.6,0,0,0-.1-1.5l-.9-1.8a.9.9,0,0,1,.1-1.2,1.1,1.1,0,0,1,.7-.3l.5.2,1.8.9a1.1,1.1,0,0,0,.8.3l.7-.2a1.7,1.7,0,0,0,1.1-1.2l.5-1.9a1.1,1.1,0,0,1,2,0l.5,1.9a1.7,1.7,0,0,0,1.1,1.2l.7.2a1.1,1.1,0,0,0,.8-.3l1.8-.9.5-.2a1.1,1.1,0,0,1,.7.3.9.9,0,0,1,.1,1.2l-.9,1.8a1.6,1.6,0,0,0-.1,1.5,1.7,1.7,0,0,0,1.2,1.1l1.9.5a1.1,1.1,0,0,1,0,2l-2,.5a1.7,1.7,0,0,0-1.1,1.1,1.6,1.6,0,0,0,.1,1.5l.9,1.8a.9.9,0,0,1-.1,1.2,1.1,1.1,0,0,1-.7.3l-.5-.2-1.8-.9H26Z"/>
        <circle cx="20.5" cy="26.5" r="2"/>
        <circle cx="24.5" cy="29.5" r="1"/>
      </g>
    </g>
  </g>
</svg>
