<svg xmlns="http://www.w3.org/2000/svg" width="48" height="48" viewBox="0 0 48 48">
  <g id="Layer_2" data-name="Layer 2">
    <g id="invisible_box" data-name="invisible box">
      <rect width="48" height="48" fill="none"/>
    </g>
    <g id="Medical">
      <g>
        <path d="M17.4,40l-2.3.7a7.1,7.1,0,0,1-7.2-1.8,6.6,6.6,0,0,1-1.6-6.5l5.7-14h.1A1.9,1.9,0,0,1,14,17a1.9,1.9,0,0,1,2,1.8,2,2,0,0,0,4,0A5.9,5.9,0,0,0,13.9,13a5.9,5.9,0,0,0-5.6,4L2.6,30.9v.2A10.2,10.2,0,0,0,5,41.7,11.3,11.3,0,0,0,12.9,45a12.6,12.6,0,0,0,3.3-.5l2.4-.7a2.1,2.1,0,0,0,1.3-2.5A1.9,1.9,0,0,0,17.4,40Z"/>
        <path d="M45.4,31.1,39.7,17A6,6,0,0,0,28,18.8a2,2,0,0,0,4,0A1.9,1.9,0,0,1,34.1,17a1.8,1.8,0,0,1,1.8,1.3l5.8,14.1a6.6,6.6,0,0,1-1.6,6.5,7.1,7.1,0,0,1-7.2,1.8L30.6,40a1.9,1.9,0,0,0-2.5,1.3,2.1,2.1,0,0,0,1.3,2.5l2.4.7a12.6,12.6,0,0,0,3.3.5A11.3,11.3,0,0,0,43,41.7,10.2,10.2,0,0,0,45.4,31.1Z"/>
        <path d="M24,17a2,2,0,0,0,2-2V5a2,2,0,0,0-4,0V15A2,2,0,0,0,24,17Z"/>
        <path d="M29.9,37.2a.9.9,0,0,0,1.3-1.3l-.9-1.8a1.6,1.6,0,0,1-.1-1.5,1.7,1.7,0,0,1,1.1-1.1l2-.5a1.1,1.1,0,0,0,0-2l-1.9-.5a1.7,1.7,0,0,1-1.2-1.1,1.6,1.6,0,0,1,.1-1.5l.9-1.8a.9.9,0,0,0-1.3-1.3l-1.8.9a1.6,1.6,0,0,1-1.5.1,1.7,1.7,0,0,1-1.1-1.2L25,20.7a1.1,1.1,0,0,0-2,0l-.5,1.9a1.7,1.7,0,0,1-1.1,1.2,1.6,1.6,0,0,1-1.5-.1l-1.8-.9a.9.9,0,0,0-1.3,1.3l.9,1.8a1.6,1.6,0,0,1,.1,1.5,1.7,1.7,0,0,1-1.1,1.1l-2,.5a1.1,1.1,0,0,0,0,2l1.9.5a1.7,1.7,0,0,1,1.2,1.1,1.6,1.6,0,0,1-.1,1.5l-.9,1.8a.9.9,0,0,0,1.3,1.3l1.8-.9a1.6,1.6,0,0,1,1.5-.1,1.7,1.7,0,0,1,1.1,1.1l.5,2a1.1,1.1,0,0,0,2,0l.5-1.9a1.7,1.7,0,0,1,1.1-1.2,1.6,1.6,0,0,1,1.5.1Zm-7.4-6.7a2,2,0,1,1,2-2A2,2,0,0,1,22.5,30.5Zm4,2a1,1,0,1,1,1-1A1,1,0,0,1,26.5,32.5Z"/>
      </g>
    </g>
  </g>
</svg>
