<svg xmlns="http://www.w3.org/2000/svg" width="48" height="48" viewBox="0 0 48 48">
  <title>machine-learning</title>
  <g id="Layer_2" data-name="Layer 2">
    <g id="invisible_box" data-name="invisible box">
      <rect width="48" height="48" fill="none"/>
    </g>
    <g id="Q3_icons" data-name="Q3 icons">
      <path d="M31,33a2,2,0,0,0,2-2V28h1.5a1.5,1.5,0,0,0,0-3H33V23h1.5a1.5,1.5,0,0,0,0-3H33V17a2,2,0,0,0-2-2H28V13.5a1.5,1.5,0,0,0-3,0V15H23V13.5a1.5,1.5,0,0,0-3,0V15H17a2,2,0,0,0-2,2v3H13.5a1.5,1.5,0,0,0,0,3H15v2H13.5a1.5,1.5,0,0,0,0,3H15v3a2,2,0,0,0,2,2h3v1.5a1.5,1.5,0,0,0,3,0V33h2v1.5a1.5,1.5,0,0,0,3,0V33ZM18,18H30V30H18Z"/>
      <rect x="21" y="21" width="6" height="6"/>
      <g>
        <path d="M45.6,18.7,41,14.9V7.5a1,1,0,0,0-.6-.9L30.5,2.1h-.4l-.6.2-.5.3v6a1.5,1.5,0,0,0,3,0V7.2l5,2.3v7.4l1.5,1.2L42,20.9v6.2l-3.5,2.8L37,31.1v7.4l-5,2.3V39.5a1.5,1.5,0,0,0-3,0v6l.5.3.6.2h.4l9.9-4.5a1,1,0,0,0,.6-.9V33.1l4.6-3.8a.9.9,0,0,0,.4-.8v-9A.8.8,0,0,0,45.6,18.7Z"/>
        <path d="M17.9,2h-.4L7.6,6.6a1,1,0,0,0-.6.9v7.4L2.4,18.7a.8.8,0,0,0-.4.8v9a.9.9,0,0,0,.4.8L7,33.1v7.4a1,1,0,0,0,.6.9l9.9,4.5h.4l.6-.2.5-.3v-6a1.5,1.5,0,0,0-3,0v1.3l-5-2.3V31.1L9.5,29.9,6,27.1V20.9l3.5-2.8L11,16.9V9.5l5-2.3V8.5a1.5,1.5,0,0,0,3,0v-6l-.5-.3Z"/>
      </g>
    </g>
  </g>
</svg>
