<svg xmlns="http://www.w3.org/2000/svg" width="48" height="48" viewBox="0 0 48 48">
  <title>machine-learning-solid</title>
  <g id="Layer_2" data-name="Layer 2">
    <g id="invisible_box" data-name="invisible box">
      <rect width="48" height="48" fill="none"/>
    </g>
    <g id="Q3_icons" data-name="Q3 icons">
      <path d="M18,18V30H30V18Zm9,9H21V21h6Zm-9-9V30H30V18Zm9,9H21V21h6Zm-9-9V30H30V18Zm9,9H21V21h6Zm-9-9V30H30V18Zm9,9H21V21h6Zm18.6-8.3L41,14.9V7.5a1,1,0,0,0-.6-.9L30.5,2.1h-.4l-.6.2L24,5.9,18.5,2.2,17.9,2h-.4L7.6,6.6a1,1,0,0,0-.6.9v7.4L2.4,18.7a.8.8,0,0,0-.4.8v9a.9.9,0,0,0,.4.8L7,33.1v7.4a1,1,0,0,0,.6.9l9.9,4.5h.4l.6-.2L24,42.1l5.5,3.7.6.2h.4l9.9-4.5a1,1,0,0,0,.6-.9V33.1l4.6-3.8a.9.9,0,0,0,.4-.8v-9A.8.8,0,0,0,45.6,18.7ZM30.5,7A1.5,1.5,0,1,1,29,8.5,1.5,1.5,0,0,1,30.5,7Zm-13,0A1.5,1.5,0,1,1,16,8.5,1.5,1.5,0,0,1,17.5,7Zm0,34A1.5,1.5,0,1,1,19,39.5,1.5,1.5,0,0,1,17.5,41Zm13,0A1.5,1.5,0,1,1,32,39.5,1.5,1.5,0,0,1,30.5,41Zm4-16a1.5,1.5,0,0,1,0,3H33v3a2,2,0,0,1-2,2H28v1.5a1.5,1.5,0,0,1-3,0V33H23v1.5a1.5,1.5,0,0,1-3,0V33H17a2,2,0,0,1-2-2V28H13.5a1.5,1.5,0,0,1,0-3H15V23H13.5a1.5,1.5,0,0,1,0-3H15V17a2,2,0,0,1,2-2h3V13.5a1.5,1.5,0,0,1,3,0V15h2V13.5a1.5,1.5,0,0,1,3,0V15h3a2,2,0,0,1,2,2v3h1.5a1.5,1.5,0,0,1,0,3H33v2ZM18,30H30V18H18Zm3-9h6v6H21Zm-3-3V30H30V18Zm9,9H21V21h6Zm-9-9V30H30V18Zm9,9H21V21h6Z"/>
    </g>
  </g>
</svg>
