<svg xmlns="http://www.w3.org/2000/svg" width="48" height="48" viewBox="0 0 48 48">
  <title>mail-spam-solid</title>
  <g id="Layer_2" data-name="Layer 2">
    <g id="invisible_box" data-name="invisible box">
      <rect width="48" height="48" fill="none"/>
    </g>
    <g id="Q3_icons" data-name="Q3 icons">
      <path d="M37,26V22l8.7-5.2L24,3,2.3,16.8,11,22v4L2,20.6V43a2,2,0,0,0,2,2H44a2,2,0,0,0,2-2V20.6Zm-3.5,5H30.9l-.3,1.1A4.6,4.6,0,0,1,34,36.5v1a1.5,1.5,0,0,1-3,0v-1A1.5,1.5,0,0,0,29.5,35h-.4A6.8,6.8,0,0,1,24,37.5,6.8,6.8,0,0,1,18.9,35h-.4A1.5,1.5,0,0,0,17,36.5v1a1.5,1.5,0,0,1-3,0v-1a4.6,4.6,0,0,1,3.4-4.4L17.1,31H14.5a1.5,1.5,0,0,1,0-3h2.6l.3-1.2A4.4,4.4,0,0,1,14,22.5v-1a1.5,1.5,0,0,1,3,0v1A1.5,1.5,0,0,0,18.5,24h.4l.9-.9h0a4.5,4.5,0,0,1-.8-2.6A4.8,4.8,0,0,1,20.4,17,1.4,1.4,0,0,0,19,16a1.5,1.5,0,0,1,0-3,4.7,4.7,0,0,1,4.1,2.6h1.8A4.7,4.7,0,0,1,29,13a1.5,1.5,0,0,1,0,3,1.4,1.4,0,0,0-1.4,1A4.8,4.8,0,0,1,29,20.5a4.5,4.5,0,0,1-.8,2.6h0l.9.9h.4A1.5,1.5,0,0,0,31,22.5v-1a1.5,1.5,0,0,1,3,0v1a4.4,4.4,0,0,1-3.4,4.3l.3,1.2h2.6a1.5,1.5,0,0,1,0,3Zm-8-6.1v9.2A5,5,0,0,0,28,29.5,5,5,0,0,0,25.5,24.9Zm.1-3.2a2.5,2.5,0,0,0,.4-1.2,2,2,0,0,0-4,0,2.5,2.5,0,0,0,.4,1.2h0l1.6-.2,1.6.2ZM20,29.5a5,5,0,0,0,2.5,4.6V24.9A5,5,0,0,0,20,29.5Z"/>
    </g>
  </g>
</svg>
