<svg xmlns="http://www.w3.org/2000/svg" width="48" height="48" viewBox="0 0 48 48">
  <title>mail-spam</title>
  <g id="Layer_2" data-name="Layer 2">
    <g id="invisible_box" data-name="invisible box">
      <rect width="48" height="48" fill="none"/>
    </g>
    <g id="Q3_icons" data-name="Q3 icons">
      <g>
        <path d="M24,3,2,17V43a2,2,0,0,0,2,2H44a2,2,0,0,0,2-2V17ZM42,41H6V23.5l5,2.8V21.7L6.3,19,24,7.7,41.7,19,37,21.7v4.6l5-2.8Z"/>
        <path d="M33.5,28H30.9l-.3-1.2A4.4,4.4,0,0,0,34,22.5v-1a1.5,1.5,0,0,0-3,0v1A1.5,1.5,0,0,1,29.5,24h-.4l-.9-.9h0a4.5,4.5,0,0,0,.8-2.6A4.8,4.8,0,0,0,27.6,17,1.4,1.4,0,0,1,29,16a1.5,1.5,0,0,0,0-3,4.7,4.7,0,0,0-4.1,2.6H23.1A4.7,4.7,0,0,0,19,13a1.5,1.5,0,0,0,0,3,1.4,1.4,0,0,1,1.4,1A4.8,4.8,0,0,0,19,20.5a4.5,4.5,0,0,0,.8,2.6h0l-.9.9h-.4A1.5,1.5,0,0,1,17,22.5v-1a1.5,1.5,0,0,0-3,0v1a4.4,4.4,0,0,0,3.4,4.3L17.1,28H14.5a1.5,1.5,0,0,0,0,3h2.6l.3,1.2A4.4,4.4,0,0,0,14,36.5v1a1.5,1.5,0,0,0,3,0v-1A1.5,1.5,0,0,1,18.5,35h.4A6.8,6.8,0,0,0,24,37.5,6.8,6.8,0,0,0,29.1,35h.4A1.5,1.5,0,0,1,31,36.5v1a1.5,1.5,0,0,0,3,0v-1a4.4,4.4,0,0,0-3.4-4.3l.3-1.2h2.6a1.5,1.5,0,0,0,0-3Zm-11,6.1A5,5,0,0,1,20,29.5a5,5,0,0,1,2.5-4.6Zm-.1-12.4h0a2.5,2.5,0,0,1-.4-1.2,2,2,0,0,1,4,0,2.5,2.5,0,0,1-.4,1.2h0L24,21.5Zm3.1,12.4V24.9A5,5,0,0,1,28,29.5,5,5,0,0,1,25.5,34.1Z"/>
      </g>
    </g>
  </g>
</svg>
