<svg xmlns="http://www.w3.org/2000/svg" width="48" height="48" viewBox="0 0 48 48">
  <g id="Layer_2" data-name="Layer 2">
    <g id="invisible_box" data-name="invisible box">
      <rect width="48" height="48" fill="none"/>
    </g>
    <g id="Layer_7" data-name="Layer 7">
      <g>
        <circle cx="19" cy="25" r="3"/>
        <path d="M43.8,20l-.2-.5A11.3,11.3,0,0,0,36,13.3a10.4,10.4,0,0,0-5.8.2,68.1,68.1,0,0,0-5.9-8.2A6.5,6.5,0,0,0,19,3a6.5,6.5,0,0,0-5.3,2.3A85.1,85.1,0,0,0,5,18.4H4.9a22.2,22.2,0,0,0-.4,17,13.7,13.7,0,0,0,7.2,8A18.3,18.3,0,0,0,19,45a17.5,17.5,0,0,0,7.2-1.5,13.5,13.5,0,0,0,7.3-8A21.9,21.9,0,0,0,34,21h0a15.3,15.3,0,0,0-8.1,3,3.4,3.4,0,0,1,.1,1,7,7,0,1,1-1.8-4.7A20.1,20.1,0,0,1,33.6,17l1.5.2a7.3,7.3,0,0,1,4.9,4l.2.5a8,8,0,0,1-.9,8.4l-1.1,1.3c-2.7,3.3-3,8.1-1,12.4A1.8,1.8,0,0,0,39,45l.8-.2a2,2,0,0,0,1-2.7c-1.1-2.3-1.5-5.7.5-8.2l1.1-1.3A12,12,0,0,0,43.8,20Z"/>
      </g>
    </g>
  </g>
</svg>
