<svg xmlns="http://www.w3.org/2000/svg" width="48" height="48" viewBox="0 0 48 48">
  <g id="Layer_2" data-name="Layer 2">
    <g id="invisible_box" data-name="invisible box">
      <rect width="48" height="48" fill="none"/>
    </g>
    <g id="Layer_7" data-name="Layer 7">
      <path d="M43.8,20l-.2-.5A11.3,11.3,0,0,0,36,13.3a10.4,10.4,0,0,0-5.8.2,68.1,68.1,0,0,0-5.9-8.2A6.5,6.5,0,0,0,19,3a6.5,6.5,0,0,0-5.3,2.3A93.6,93.6,0,0,0,4.9,18.4h0a22.2,22.2,0,0,0-.4,17,13.7,13.7,0,0,0,7.2,8A18.3,18.3,0,0,0,19,45a17.5,17.5,0,0,0,7.2-1.5c3.2-1.2,5.8-4.1,7.3-8a22.2,22.2,0,0,0-.4-17h0l-.8-1.3a8.8,8.8,0,0,1,2.8.1,7.5,7.5,0,0,1,4.9,4l.2.5a8,8,0,0,1-.9,8.4l-1.1,1.3a11.5,11.5,0,0,0-1,12.4A1.8,1.8,0,0,0,39,45l.8-.2a1.9,1.9,0,0,0,1-2.6c-1.1-2.4-1.5-5.7.5-8.3l1.1-1.3A12,12,0,0,0,43.8,20Zm-14,14c-1.1,2.9-2.9,5-5.1,5.8a14.1,14.1,0,0,1-11.4,0h-.1c-2.1-.8-3.9-2.9-5-5.8a18,18,0,0,1,.3-13.7A77.5,77.5,0,0,1,16.8,7.8,2.8,2.8,0,0,1,19,7a2.8,2.8,0,0,1,2.2.8,58.1,58.1,0,0,1,5.4,7.6l-3.2,2.2A6.8,6.8,0,0,0,19,16a7,7,0,1,0,7,7,7.1,7.1,0,0,0-.3-2.1l3-2.1.8,1.5A18,18,0,0,1,29.8,34ZM22,23a3,3,0,1,1-3-3A2.9,2.9,0,0,1,22,23Z"/>
    </g>
  </g>
</svg>
