<svg xmlns="http://www.w3.org/2000/svg" width="48" height="48" viewBox="0 0 48 48">
  <title>medal-solid</title>
  <g id="Layer_2" data-name="Layer 2">
    <g id="invisible_box" data-name="invisible box">
      <path d="M0,0V48H48V0ZM19.9,34.8l.5-3.1-2.1-2a1.1,1.1,0,0,1,.6-1.8l2.9-.4,1.3-2.9a1,1,0,0,1,1.8,0l1.3,2.9,2.9.4a1.1,1.1,0,0,1,.6,1.8l-2.1,2,.5,3.1a1.1,1.1,0,0,1-1.5,1.1L24,34l-2.6,1.9A1.1,1.1,0,0,1,19.9,34.8Z" fill="none"/>
    </g>
    <g id="icons_Q2" data-name="icons Q2">
      <path d="M43.4,4.6a1.9,1.9,0,0,0-2.8,0L30,15.2A15.2,15.2,0,0,0,24.8,14l6.6-6.6a1.9,1.9,0,0,0,0-2.8,1.9,1.9,0,0,0-2.8,0L24.5,8.7,20.4,4.6a1.9,1.9,0,0,0-2.8,0,1.9,1.9,0,0,0,0,2.8l4.1,4.1L18,15.2,7.4,4.6a1.9,1.9,0,0,0-2.8,0,1.9,1.9,0,0,0,0,2.8l9.8,9.8a16,16,0,1,0,19.2,0l9.8-9.8A1.9,1.9,0,0,0,43.4,4.6ZM29.7,29.7l-2.1,2,.5,3.1a1.1,1.1,0,0,1-1.5,1.1L24,34l-2.6,1.9a1.1,1.1,0,0,1-1.5-1.1l.5-3.1-2.1-2a1.1,1.1,0,0,1,.6-1.8l2.9-.4,1.3-2.9a1,1,0,0,1,1.8,0l1.3,2.9,2.9.4A1.1,1.1,0,0,1,29.7,29.7Z"/>
    </g>
  </g>
</svg>
