<svg xmlns="http://www.w3.org/2000/svg" width="48" height="48" viewBox="0 0 48 48">
  <g id="Layer_2" data-name="Layer 2">
    <g id="invisible_box" data-name="invisible box">
      <rect width="48" height="48" fill="none"/>
    </g>
    <g id="Layer_4" data-name="Layer 4">
      <path d="M45.4,22.6l-20-19a1.9,1.9,0,0,0-2.8,0l-20,19a2,2,0,0,0-.1,2.8,2.1,2.1,0,0,0,2.9,0l.6-.5V42a3,3,0,0,0,3,3H39a3,3,0,0,0,3-3V24.9l.6.5A2,2,0,0,0,44,26a2.2,2.2,0,0,0,1.5-.6A2,2,0,0,0,45.4,22.6ZM30,29H26v4a2,2,0,0,1-4,0V29H18a2,2,0,0,1,0-4h4V21a2,2,0,0,1,4,0v4h4a2,2,0,0,1,0,4Z"/>
    </g>
  </g>
</svg>
