<svg xmlns="http://www.w3.org/2000/svg" width="48" height="48" viewBox="0 0 48 48">
  <g id="Layer_2" data-name="Layer 2">
    <g id="invisible_box" data-name="invisible box">
      <rect width="48" height="48" fill="none"/>
    </g>
    <g id="Medical">
      <g>
        <path d="M45.4,22.5l-20-19a2.1,2.1,0,0,0-2.8,0l-20,19a2.2,2.2,0,0,0-.1,2.9,2.1,2.1,0,0,0,2.9,0l.6-.5V42a2.9,2.9,0,0,0,3,3H39a2.9,2.9,0,0,0,3-3V24.9l.6.5A2,2,0,0,0,44,26a2.2,2.2,0,0,0,1.5-.6A2.2,2.2,0,0,0,45.4,22.5ZM38,41H10V21.1L24,7.8,38,21.1Z"/>
        <path d="M22,21v4H18a2,2,0,0,0,0,4h4v4a2,2,0,0,0,4,0V29h4a2,2,0,0,0,0-4H26V21a2,2,0,0,0-4,0Z"/>
      </g>
    </g>
  </g>
</svg>
