<svg xmlns="http://www.w3.org/2000/svg" width="48" height="48" viewBox="0 0 48 48">
  <title>memory-card-solid</title>
  <g id="Layer_2" data-name="Layer 2">
    <g id="invisible_box" data-name="invisible box">
      <rect width="48" height="48" fill="none"/>
    </g>
    <g id="icons_Q2" data-name="icons Q2">
      <path d="M32,2H8A2,2,0,0,0,6,4V44a2,2,0,0,0,2,2H40a2,2,0,0,0,2-2V12ZM26,12a2,2,0,0,1,4,0v4a2,2,0,0,1-4,0Zm-6,0a2,2,0,0,1,4,0v4a2,2,0,0,1-4,0Zm-6,0a2,2,0,0,1,4,0v4a2,2,0,0,1-4,0ZM32,38H16a2,2,0,0,1,0-4H32a2,2,0,0,1,0,4Zm0-8H16a2,2,0,0,1,0-4H32a2,2,0,0,1,0,4Z"/>
    </g>
  </g>
</svg>
