<svg xmlns="http://www.w3.org/2000/svg" width="48" height="48" viewBox="0 0 48 48">
  <title>memory-chip-solid</title>
  <g id="Layer_2" data-name="Layer 2">
    <g id="invisible_box" data-name="invisible box">
      <rect width="48" height="48" fill="none"/>
    </g>
    <g id="icons_Q2" data-name="icons Q2">
      <path d="M44,28H40V20h4a2,2,0,0,0,0-4H40V10a2,2,0,0,0-2-2H32V4a2,2,0,0,0-4,0V8H20V4a2,2,0,0,0-4,0V8H10a2,2,0,0,0-2,2v6H4a2,2,0,0,0,0,4H8v8H4a2,2,0,0,0,0,4H8v6a2,2,0,0,0,2,2h6v4a2,2,0,0,0,4,0V40h8v4a2,2,0,0,0,4,0V40h6a2,2,0,0,0,2-2V32h4a2,2,0,0,0,0-4ZM32,32H16V16H32ZM28,20H20v8h8Z"/>
    </g>
  </g>
</svg>
