<svg xmlns="http://www.w3.org/2000/svg" width="48" height="48" viewBox="0 0 48 48">
  <title>merge</title>
  <g id="Layer_2" data-name="Layer 2">
    <g id="invisible_box" data-name="invisible box">
      <rect width="48" height="48" fill="none"/>
    </g>
    <g id="icons_Q2" data-name="icons Q2">
      <path d="M43.4,22.6l-9.9-10a2.3,2.3,0,0,0-2.7-.3,2,2,0,0,0-.2,3.1L37.2,22H24.8L7.5,4.6a2.1,2.1,0,0,0-2.7-.2,1.9,1.9,0,0,0-.2,3L21.2,24,4.6,40.6a1.9,1.9,0,0,0,.2,3,2.1,2.1,0,0,0,2.7-.2L24.8,26H37.2l-6.6,6.6a1.9,1.9,0,0,0,.2,3,2,2,0,0,0,2.7-.3l9.9-9.9A1.9,1.9,0,0,0,43.4,22.6Z"/>
    </g>
  </g>
</svg>
