<svg xmlns="http://www.w3.org/2000/svg" width="48" height="48" viewBox="0 0 48 48">
  <title>mic</title>
  <g id="Layer_2" data-name="Layer 2">
    <g id="invisible_box" data-name="invisible box">
      <rect width="48" height="48" fill="none"/>
    </g>
    <g id="Q3_icons" data-name="Q3 icons">
      <g>
        <path d="M24,30a8,8,0,0,0,8-8V10a8,8,0,0,0-16,0V22A8,8,0,0,0,24,30ZM20,10a4,4,0,0,1,8,0V22a4,4,0,0,1-8,0Z"/>
        <path d="M40,22V20a2,2,0,0,0-4,0v2a12,12,0,0,1-24,0V20a2,2,0,0,0-4,0v2A16.1,16.1,0,0,0,22,37.9V42H14a2,2,0,0,0,0,4H33a2,2,0,0,0,0-4H26V37.9A16.1,16.1,0,0,0,40,22Z"/>
      </g>
    </g>
  </g>
</svg>
