<svg xmlns="http://www.w3.org/2000/svg" width="48" height="48" viewBox="0 0 48 48">
  <title>moon</title>
  <g id="Layer_2" data-name="Layer 2">
    <g id="invisible_box" data-name="invisible box">
      <rect width="48" height="48" fill="none"/>
    </g>
    <g id="Q3_icons" data-name="Q3 icons">
      <path d="M18.2,11.2a22.6,22.6,0,0,0-1,6.9c.3,8.8,6.7,16.8,15,19.7A14.5,14.5,0,0,1,26.3,39H24.6a15,15,0,0,1-6.4-27.7m6-6.2h-.1a19.2,19.2,0,0,0-17,21.1A19.2,19.2,0,0,0,24.2,42.9h2.1a19.2,19.2,0,0,0,14.4-6.4A.9.9,0,0,0,40,35H38.1c-8.8-.5-16.6-8.4-16.9-17.1A17.4,17.4,0,0,1,25,6.6,1,1,0,0,0,24.2,5Z"/>
    </g>
  </g>
</svg>
