<svg xmlns="http://www.w3.org/2000/svg" width="48" height="48" viewBox="0 0 48 48">
  <title>network-resource</title>
  <g id="Layer_2" data-name="Layer 2">
    <g id="invisible_box" data-name="invisible box">
      <rect width="48" height="48" fill="none"/>
    </g>
    <g id="Q3_icons" data-name="Q3 icons">
      <g>
        <path d="M8,10H26.2l1.4,1.4L25,14h8V6L30.4,8.6,27.8,6H8a2,2,0,0,0,0,4Z"/>
        <path d="M27.6,36.6,26.2,38H8a2,2,0,0,0,0,4H27.8l2.6-2.6L33,42V34H25Z"/>
        <path d="M8,26H20v4l6-6-6-6v4H8a2,2,0,0,0,0,4Z"/>
        <path d="M36,16a8,8,0,1,0,8,8A8,8,0,0,0,36,16Zm0,12a4,4,0,1,1,4-4A4,4,0,0,1,36,28Z"/>
      </g>
    </g>
  </g>
</svg>
