<svg xmlns="http://www.w3.org/2000/svg" width="48" height="48" viewBox="0 0 48 48">
  <title>network</title>
  <g id="Layer_2" data-name="Layer 2">
    <g id="invisible_box" data-name="invisible box">
      <rect width="48" height="48" fill="none"/>
    </g>
    <g id="icons_Q2" data-name="icons Q2">
      <path d="M44,32H42V24a2,2,0,0,0-2-2H26V20h0V16h2a2,2,0,0,0,2-2V6a2,2,0,0,0-2-2H20a2,2,0,0,0-2,2v8a2,2,0,0,0,2,2h2v6H8a2,2,0,0,0-2,2v8H4a2,2,0,0,0-2,2v8a2,2,0,0,0,2,2h8a2,2,0,0,0,2-2V34a2,2,0,0,0-2-2H10V26H22v6H20a2,2,0,0,0-2,2v8a2,2,0,0,0,2,2h8a2,2,0,0,0,2-2V34a2,2,0,0,0-2-2H26V26H38v6H36a2,2,0,0,0-2,2v8a2,2,0,0,0,2,2h8a2,2,0,0,0,2-2V34A2,2,0,0,0,44,32ZM10,40H6V36h4ZM22,8h4v4H22Zm4,32H22V36h4Zm16,0H38V36h4Z"/>
    </g>
  </g>
</svg>
