<svg xmlns="http://www.w3.org/2000/svg" width="48" height="48" viewBox="0 0 48 48">
  <title>network-platform</title>
  <g id="Layer_2" data-name="Layer 2">
    <g id="invisible_box" data-name="invisible box">
      <rect width="48" height="48" fill="none"/>
      <rect width="48" height="48" fill="none"/>
      <rect width="48" height="48" fill="none"/>
    </g>
    <g id="icons_Q2" data-name="icons Q2">
      <path d="M40,18a6.2,6.2,0,0,0-5.7,4H25.8a9.9,9.9,0,0,0-1.5-3.3l3.5-4.1A7.8,7.8,0,0,0,30,15a6,6,0,1,0-6-6,6.1,6.1,0,0,0,.8,3l-3.6,4.1A8.5,8.5,0,0,0,17,15l-1.7.2-1.2-2.8A6,6,0,1,0,10,14h.4l1.3,2.8a8.9,8.9,0,0,0,0,14.4L10.4,34H10a6,6,0,1,0,4.1,1.6l1.2-2.8L17,33a8.5,8.5,0,0,0,4.2-1.1L24.8,36a6.1,6.1,0,0,0-.8,3,6,6,0,1,0,6-6,7.8,7.8,0,0,0-2.2.4l-3.5-4.1A9.9,9.9,0,0,0,25.8,26h8.5A6.2,6.2,0,0,0,40,30a6,6,0,0,0,0-12ZM8,8a2,2,0,1,1,2,2A2,2,0,0,1,8,8Zm2,34a2,2,0,1,1,2-2A2,2,0,0,1,10,42ZM30,7a2,2,0,1,1-2,2A2,2,0,0,1,30,7ZM12,24a5,5,0,1,1,5,5A5,5,0,0,1,12,24ZM32,39a2,2,0,1,1-2-2A2,2,0,0,1,32,39Zm8-13a2,2,0,1,1,2-2A2,2,0,0,1,40,26Z"/>
    </g>
  </g>
</svg>
