<svg xmlns="http://www.w3.org/2000/svg" width="48" height="48" viewBox="0 0 48 48">
  <title>newspaper-solid</title>
  <g id="Layer_2" data-name="Layer 2">
    <g id="invisible_box" data-name="invisible box">
      <rect width="48" height="48" fill="none"/>
      <rect width="48" height="48" fill="none"/>
    </g>
    <g id="icons_Q2" data-name="icons Q2">
      <path d="M44,5H12a2,2,0,0,0-2,2V17H4a2,2,0,0,0-2,2V37a6,6,0,0,0,6,6H40a6,6,0,0,0,6-6V7A2,2,0,0,0,44,5ZM10,37a2,2,0,0,1-4,0V21h4Zm8-21.2A1.8,1.8,0,0,1,19.8,14h4.4A1.8,1.8,0,0,1,26,15.8v8.4A1.8,1.8,0,0,1,24.2,26H19.8A1.8,1.8,0,0,1,18,24.2ZM37.4,33.4A2,2,0,0,1,36,34H20a2,2,0,0,1-2-2,2.1,2.1,0,0,1,2-2H36a2,2,0,0,1,2,2A2,2,0,0,1,37.4,33.4Zm0-8A2,2,0,0,1,36,26H32a2,2,0,0,1-2-2,2.1,2.1,0,0,1,2-2h4a2,2,0,0,1,2,2A2,2,0,0,1,37.4,25.4Zm0-8A2,2,0,0,1,36,18H32a2,2,0,0,1-2-2,2.1,2.1,0,0,1,2-2h4a2,2,0,0,1,2,2A2,2,0,0,1,37.4,17.4Z"/>
    </g>
  </g>
</svg>
