<svg xmlns="http://www.w3.org/2000/svg" width="48" height="48" viewBox="0 0 48 48">
  <title>notebook-solid</title>
  <g id="Layer_2" data-name="Layer 2">
    <g id="invisible_box" data-name="invisible box">
      <rect width="48" height="48" fill="none"/>
    </g>
    <g id="Q3_icons" data-name="Q3 icons">
      <path d="M20,14v4h9V14Zm0,0v4h9V14Zm0,0v4h9V14Zm0,0v4h9V14Zm0,0v4h9V14Zm0,0v4h9V14Zm0,0v4h9V14Zm0,0v4h9V14Zm0,0v4h9V14Zm0,0v4h9V14ZM40,3H9A2,2,0,0,0,7,5V9h3a2,2,0,0,1,2,2v2a2,2,0,0,0-2-2H5.8A2,2,0,0,0,4,13a2,2,0,0,0,2,2H7v2h3a2,2,0,0,1,2,2v2a2,2,0,0,0-2-2H5.8A2,2,0,0,0,4,21a2,2,0,0,0,2,2H7v2h3a2,2,0,0,1,2,2v2a2,2,0,0,0-2-2H5.8A2,2,0,0,0,4,29a2,2,0,0,0,2,2H7v2h3a2,2,0,0,1,2,2v2a2,2,0,0,0-2-2H5.8A2,2,0,0,0,4,37a2,2,0,0,0,2,2H7v4a2,2,0,0,0,2,2H40a2,2,0,0,0,2-2V5A2,2,0,0,0,40,3ZM31.5,27h-14a1.5,1.5,0,0,1,0-3h14a1.5,1.5,0,0,1,0,3ZM33,20.5A1.5,1.5,0,0,1,31.5,22h-14A1.5,1.5,0,0,1,16,20.5v-9A1.5,1.5,0,0,1,17.5,10h14A1.5,1.5,0,0,1,33,11.5ZM20,18h9V14H20Zm0-4v4h9V14Zm0,0v4h9V14Zm0,0v4h9V14Zm0,0v4h9V14Zm0,0v4h9V14Zm0,0v4h9V14Zm0,0v4h9V14Zm0,0v4h9V14Z"/>
    </g>
  </g>
</svg>
