<svg xmlns="http://www.w3.org/2000/svg" width="48" height="48" viewBox="0 0 48 48">
  <title>notification-on</title>
  <g id="Layer_2" data-name="Layer 2">
    <g id="invisible_box" data-name="invisible box">
      <rect width="48" height="48" fill="none"/>
    </g>
    <g id="icons_Q2" data-name="icons Q2">
      <g>
        <path d="M40.2,26.2A4.5,4.5,0,0,1,39,23.3V19c0-8.1-5.4-15-15-15S9,10.7,9,19v5a2.6,2.6,0,0,1-.7,1.7L4.6,29.4A2,2,0,0,0,4,30.8V38a2,2,0,0,0,2,2H17.1a7,7,0,0,0,13.8,0H42a2,2,0,0,0,2-2V30.8a2,2,0,0,0-.6-1.4ZM40,36H8V31.7l3.1-3.2A6.4,6.4,0,0,0,13,24V19c0-5.3,2.9-11,11-11s11,5.9,11,11v4.3A8.6,8.6,0,0,0,37.3,29L40,31.7Z"/>
        <path d="M7,19A17.1,17.1,0,0,1,13.5,5.6a2,2,0,0,0,.4-2.8,2,2,0,0,0-2.8-.3A20.6,20.6,0,0,0,3,19a2,2,0,0,0,4,0Z"/>
        <path d="M36.9,2.4a2,2,0,0,0-2.8.4,2,2,0,0,0,.4,2.8A16.9,16.9,0,0,1,41,19a2,2,0,0,0,4,0A20.9,20.9,0,0,0,36.9,2.4Z"/>
      </g>
    </g>
  </g>
</svg>
