<svg xmlns="http://www.w3.org/2000/svg" width="48" height="48" viewBox="0 0 48 48">
  <title>notification-snooze-solid</title>
  <g id="Layer_2" data-name="Layer 2">
    <g id="invisible_box" data-name="invisible box">
      <rect width="48" height="48" fill="none"/>
    </g>
    <g id="Q3_icons" data-name="Q3 icons">
      <g>
        <path d="M44,30.8V38a2,2,0,0,1-2,2H30.9a7,7,0,0,1-13.8,0H6a2,2,0,0,1-2-2V30.8a2,2,0,0,1,.6-1.4l3.7-3.7A2.3,2.3,0,0,0,9,24V17C9,9.3,13.7,3,22,2.1V20a2,2,0,0,0,2,2H39v1.3a4.7,4.7,0,0,0,1.2,2.9l3.2,3.2A2,2,0,0,1,44,30.8Z"/>
        <path d="M28,6h7.2l-8.6,8.6a1.8,1.8,0,0,0-.4,2.2A2,2,0,0,0,28,18H40a2,2,0,0,0,0-4H32.8l8.6-8.6a1.8,1.8,0,0,0,.4-2.2A2,2,0,0,0,40,2H28a2,2,0,0,0,0,4Z"/>
      </g>
    </g>
  </g>
</svg>
