<svg xmlns="http://www.w3.org/2000/svg" width="48" height="48" viewBox="0 0 48 48">
  <title>onboard-solid</title>
  <g id="Layer_2" data-name="Layer 2">
    <g id="invisible_box" data-name="invisible box">
      <rect width="48" height="48" fill="none"/>
    </g>
    <g id="icons_Q2" data-name="icons Q2">
      <path d="M46,24A22,22,0,0,1,26,45.9V20.8l4.6,4.6a2,2,0,0,0,3.1-.2,2.1,2.1,0,0,0-.4-2.7l-7.9-7.9a1.9,1.9,0,0,0-2.8,0l-7.9,7.9a2.1,2.1,0,0,0-.4,2.7,2,2,0,0,0,3.1.2L22,20.8V45.9A22,22,0,1,1,46,24Z"/>
    </g>
  </g>
</svg>
