<svg xmlns="http://www.w3.org/2000/svg" width="48" height="48" viewBox="0 0 48 48">
  <title>open-caption</title>
  <g id="Layer_2" data-name="Layer 2">
    <g id="invisible_box" data-name="invisible box">
      <rect width="48" height="48" fill="none"/>
    </g>
    <g id="icons_Q2" data-name="icons Q2">
      <g>
        <path d="M14,31h6a2.9,2.9,0,0,0,3-3V20a2.9,2.9,0,0,0-3-3H14a2.9,2.9,0,0,0-3,3v8A2.9,2.9,0,0,0,14,31Zm1-10h4v6H15Z"/>
        <path d="M28,31h6a2.9,2.9,0,0,0,3-3V26H33v1H29V21h4v1h4V20a2.9,2.9,0,0,0-3-3H28a2.9,2.9,0,0,0-3,3v8A2.9,2.9,0,0,0,28,31Z"/>
        <path d="M44,9H4a2,2,0,0,0-2,2V37a2,2,0,0,0,2,2H44a2,2,0,0,0,2-2V11A2,2,0,0,0,44,9ZM42,35H6V13H42Z"/>
      </g>
    </g>
  </g>
</svg>
