<svg xmlns="http://www.w3.org/2000/svg" width="48" height="48" viewBox="0 0 48 48">
  <title>output-solid</title>
  <g id="Layer_2" data-name="Layer 2">
    <g id="invisible_box" data-name="invisible box">
      <rect width="48" height="48" fill="none"/>
    </g>
    <g id="Q3_icons" data-name="Q3 icons">
      <path d="M45.4,22.6l-7.9-8a2.1,2.1,0,0,0-2.7-.2,1.9,1.9,0,0,0-.2,3L39.2,22H16a2,2,0,0,0-2,2V20a2,2,0,0,1,2-2H30V4a2.4,2.4,0,0,0-.2-.9A2,2,0,0,0,28,2H23.8a22,22,0,0,0,.1,44H28a2,2,0,0,0,1.4-.6l.4-.5A2.4,2.4,0,0,0,30,44V26h9.2l-4.6,4.6a1.9,1.9,0,0,0,.2,3,2.1,2.1,0,0,0,2.7-.2l7.9-8A1.9,1.9,0,0,0,45.4,22.6Z"/>
    </g>
  </g>
</svg>
