<svg xmlns="http://www.w3.org/2000/svg" width="48" height="48" viewBox="0 0 48 48">
  <title>page-last-solid</title>
  <g id="Layer_2" data-name="Layer 2">
    <g id="invisible_box" data-name="invisible box">
      <rect width="48" height="48" fill="none"/>
    </g>
    <g id="icons_Q2" data-name="icons Q2">
      <g>
        <path d="M39,4a2,2,0,0,0-2,2V42a2,2,0,0,0,4,0V6A2,2,0,0,0,39,4Z"/>
        <path d="M22.5,12.6a2.1,2.1,0,0,0-2.7-.2,1.9,1.9,0,0,0-.2,3L26.2,22H9a2,2,0,0,0,0,4H26.2l-6.6,6.6a1.9,1.9,0,0,0,.2,3,2.1,2.1,0,0,0,2.7-.2l9.9-10a1.9,1.9,0,0,0,0-2.8Z"/>
      </g>
    </g>
  </g>
</svg>
