<svg xmlns="http://www.w3.org/2000/svg" width="48" height="48" viewBox="0 0 48 48">
  <title>paint-bucket-solid</title>
  <g id="Layer_2" data-name="Layer 2">
    <g id="invisible_box" data-name="invisible box">
      <rect width="48" height="48" fill="none"/>
    </g>
    <g id="Q3_icons" data-name="Q3 icons">
      <g>
        <path d="M16.5,2.6A1.8,1.8,0,0,0,15.1,2a2,2,0,0,0-1.4.6,1.9,1.9,0,0,0,0,2.8L19.4,11,6.2,24.1a3.9,3.9,0,0,0,0,5.6L19.4,42.8A3.8,3.8,0,0,0,22.2,44,3.9,3.9,0,0,0,25,42.8L41,26.9ZM9.1,26.9l13.1-13,13,13Z"/>
        <path d="M41,32s-4,5.8-4,8a4,4,0,0,0,8,0C45,37.8,41,32,41,32Z"/>
      </g>
    </g>
  </g>
</svg>
