<svg xmlns="http://www.w3.org/2000/svg" width="48" height="48" viewBox="0 0 48 48">
  <title>palette-solid</title>
  <g id="Layer_2" data-name="Layer 2">
    <g id="invisible_box" data-name="invisible box">
      <rect width="48" height="48" fill="none"/>
    </g>
    <g id="icons_Q2" data-name="icons Q2">
      <path d="M28,33c9,0,18-3,18-15C46,9,37,2,27,2h-.5C13,2,2,11.8,2,24s8,22,21.5,22C29,46,31,39,26,36,25.1,35.4,25,33,28,33ZM14,21a3,3,0,1,1,3-3A2.9,2.9,0,0,1,14,21Zm7-5a3,3,0,1,1,3-3A2.9,2.9,0,0,1,21,16Zm15-2a3,3,0,1,1-3,3A2.9,2.9,0,0,1,36,14ZM29,9a3,3,0,1,1-3,3A2.9,2.9,0,0,1,29,9Z"/>
    </g>
  </g>
</svg>
