<svg xmlns="http://www.w3.org/2000/svg" width="48" height="48" viewBox="0 0 48 48">
  <title>pen-tool</title>
  <g id="Layer_2" data-name="Layer 2">
    <g id="invisible_box" data-name="invisible box">
      <rect width="48" height="48" fill="none"/>
      <rect width="48" height="48" fill="none"/>
      <rect width="48" height="48" fill="none"/>
    </g>
    <g id="icons_Q2" data-name="icons Q2">
      <path d="M44.5,21a1.5,1.5,0,0,0-3,0A17.4,17.4,0,0,1,25.1,38.4L36,22.8,31,7l.7-3.8a1,1,0,0,0-1-1.2H17.3a1,1,0,0,0-1,1.2L17,7,12,22.8,22.9,38.4A17.4,17.4,0,0,1,6.5,21,1.5,1.5,0,0,0,5,19.5,1.5,1.5,0,0,0,3.5,21,20.6,20.6,0,0,0,17.7,40.5H12V40a2,2,0,0,0-2-2H6a2,2,0,0,0-2,2v4a2,2,0,0,0,2,2h4a2,2,0,0,0,2-2v-.5H36V44a2,2,0,0,0,2,2h4a2,2,0,0,0,2-2V40a2,2,0,0,0-2-2H38a2,2,0,0,0-2,2v.5H30.3A20.6,20.6,0,0,0,44.5,21ZM24,33ZM19.9,11h8.2l3.5,11.1L26,30.2V24.4A3.8,3.8,0,0,0,28,21a4,4,0,0,0-8,0,3.8,3.8,0,0,0,2,3.4v5.8l-5.6-8.1ZM9,43H7V41H9Zm30-2h2v2H39Z"/>
    </g>
  </g>
</svg>
