<svg xmlns="http://www.w3.org/2000/svg" width="48" height="48" viewBox="0 0 48 48">
  <title>pen-tool-solid</title>
  <g id="Layer_2" data-name="Layer 2">
    <g id="invisible_box" data-name="invisible box">
      <rect width="48" height="48" fill="none"/>
    </g>
    <g id="icons_Q2" data-name="icons Q2">
      <path d="M42,38H38a2,2,0,0,0-2,2v.5H30.3A20.6,20.6,0,0,0,44.5,21a1.5,1.5,0,0,0-3,0A17.5,17.5,0,0,1,25.4,38.4H22.6A17.5,17.5,0,0,1,6.5,21,1.5,1.5,0,0,0,5,19.5,1.5,1.5,0,0,0,3.5,21,20.6,20.6,0,0,0,17.7,40.5H12V40a2,2,0,0,0-2-2H6a2,2,0,0,0-2,2v4a2,2,0,0,0,2,2h4a2,2,0,0,0,2-2v-.5H36V44a2,2,0,0,0,2,2h4a2,2,0,0,0,2-2V40A2,2,0,0,0,42,38ZM9,43H7V41H9Zm32,0H39V41h2ZM26,24.5V37h0L36,22.8,31,7l.7-3.8a1,1,0,0,0-1-1.2H17.3a1,1,0,0,0-1,1.2L17,7,12,22.8,22,37.1h0V24.5a4,4,0,1,1,4,0Z"/>
      <polygon points="24 33 24 33 24 33 24 33"/>
    </g>
  </g>
</svg>
