<svg xmlns="http://www.w3.org/2000/svg" width="48" height="48" viewBox="0 0 48 48">
  <title>pencil</title>
  <g id="Layer_2" data-name="Layer 2">
    <g id="invisible_box" data-name="invisible box">
      <rect width="48" height="48" fill="none"/>
    </g>
    <g id="icons_Q2" data-name="icons Q2">
      <path d="M43.4,18.8,29.3,4.6a1.9,1.9,0,0,0-2.8,0L4.6,26.5A2,2,0,0,0,4,27.9V42a2,2,0,0,0,2,2H20.1a2,2,0,0,0,1.4-.6L43.4,21.6A1.9,1.9,0,0,0,43.4,18.8ZM19.3,40H8V28.7L20.5,16.3,31.7,27.6ZM34.6,24.8,23.3,13.5l4.6-4.7L39.2,20.2Z"/>
    </g>
  </g>
</svg>
