<svg xmlns="http://www.w3.org/2000/svg" width="48" height="48" viewBox="0 0 48 48">
  <g id="Layer_2" data-name="Layer 2">
    <g id="invisible_box" data-name="invisible box">
      <rect width="48" height="48" fill="none"/>
    </g>
    <g id="Layer_4" data-name="Layer 4">
      <g>
        <path d="M12.1,12A5,5,0,1,0,7,7.1,5,5,0,0,0,12.1,12Z"/>
        <path d="M7.3,29.8a4.1,4.1,0,0,1,0-5.6l6.5-6.4A5.6,5.6,0,0,1,18,16c1.1,0,.2-2-2-2H8a6,6,0,0,0-6,6V33a3,3,0,0,0,3,3H6v7a3,3,0,0,0,3,3h6a3,3,0,0,0,3-3V38a5.6,5.6,0,0,1-4.2-1.8Z"/>
        <path d="M40,14H32c-2.2,0-3.1,2-2,2a5.6,5.6,0,0,1,4.2,1.8l6.5,6.4a4.1,4.1,0,0,1,0,5.6l-6.5,6.4A5.6,5.6,0,0,1,30,38v5a3,3,0,0,0,3,3h6a3,3,0,0,0,3-3V36h1a3,3,0,0,0,3-3V20A6,6,0,0,0,40,14Z"/>
        <path d="M36.1,12A5,5,0,1,0,31,7.1,5,5,0,0,0,36.1,12Z"/>
        <path d="M31.4,33.4,37.8,27l-6.4-6.4a1.9,1.9,0,0,0-2.8,0,1.9,1.9,0,0,0,0,2.8L30.2,25H17.8l1.6-1.6a1.9,1.9,0,0,0,0-2.8,1.9,1.9,0,0,0-2.8,0L10.2,27l6.4,6.4a1.9,1.9,0,0,0,2.8,0,1.9,1.9,0,0,0,0-2.8L17.8,29H30.2l-1.6,1.6a1.9,1.9,0,0,0,0,2.8,1.9,1.9,0,0,0,2.8,0Z"/>
      </g>
    </g>
  </g>
</svg>
