<svg xmlns="http://www.w3.org/2000/svg" width="48" height="48" viewBox="0 0 48 48">
  <title>photo-solid</title>
  <g id="Layer_2" data-name="Layer 2">
    <g id="invisible_box" data-name="invisible box">
      <rect width="48" height="48" fill="none"/>
    </g>
    <g id="icons_Q2" data-name="icons Q2">
      <path d="M44,6H4A2,2,0,0,0,2,8V40a2,2,0,0,0,2,2H44a2,2,0,0,0,2-2V8A2,2,0,0,0,44,6ZM42,29.1l-6.6-6.5a1.9,1.9,0,0,0-2.8,0L26,29.1,15.4,18.6a1.9,1.9,0,0,0-2.8,0L6,25.1V10H42Z"/>
    </g>
  </g>
</svg>
