<svg xmlns="http://www.w3.org/2000/svg" width="48" height="48" viewBox="0 0 48 48">
  <title>pinterest</title>
  <g id="Layer_2" data-name="Layer 2">
    <g id="invisible_box" data-name="invisible box">
      <rect width="48" height="48" fill="none"/>
      <rect width="48" height="48" fill="none"/>
      <rect width="48" height="48" fill="none"/>
    </g>
    <g id="icons_Q2" data-name="icons Q2">
      <path d="M3,24A20.4,20.4,0,0,1,9.3,9.1,20.9,20.9,0,0,1,45,24a20.5,20.5,0,0,1-6.3,14.9A20.8,20.8,0,0,1,24,45a20.1,20.1,0,0,1-5.9-.9A10.3,10.3,0,0,0,19.2,42a28,28,0,0,0,1.7-5.2c.1-.7.4-1.7.7-2.9a5.1,5.1,0,0,0,2,1.8,8.3,8.3,0,0,0,7.8-.3,13.1,13.1,0,0,0,5.9-7.6,15.8,15.8,0,0,0-.4-10.1A11.8,11.8,0,0,0,30.3,11a18.4,18.4,0,0,0-11.6.4,13.1,13.1,0,0,0-7.9,7.2,16.1,16.1,0,0,0-.7,3.7,21,21,0,0,0,.1,3.6,7,7,0,0,0,1.3,3.2,6.1,6.1,0,0,0,2.6,2.1.6.6,0,0,0,.6,0,2.1,2.1,0,0,0,.7-1.3,3.2,3.2,0,0,0,.2-1.5.9.9,0,0,0-.3-.6,8.2,8.2,0,0,1-1.1-5.9,9.8,9.8,0,0,1,2.5-5.2,11,11,0,0,1,7.1-2.9A8.9,8.9,0,0,1,30.7,16a8.2,8.2,0,0,1,2,4.3,13.4,13.4,0,0,1,0,4.9,13.7,13.7,0,0,1-1.6,4.4,6.2,6.2,0,0,1-4.8,3.3,3.9,3.9,0,0,1-2.7-1.3,2.8,2.8,0,0,1-.6-2.8,27.2,27.2,0,0,1,1-3.5,24.8,24.8,0,0,0,.9-3.9c-.2-2.1-1.1-3.2-2.9-3.2A3.8,3.8,0,0,0,19,20a7.6,7.6,0,0,0-1.1,3.7,8.7,8.7,0,0,0,.8,3.3c-.6,2.4-1.1,4.4-1.4,5.9l-.9,3.5a34.8,34.8,0,0,0-.9,4.5v2.3a21.6,21.6,0,0,1-9.1-7.8A20.1,20.1,0,0,1,3,24Z"/>
    </g>
  </g>
</svg>
