<svg xmlns="http://www.w3.org/2000/svg" width="48" height="48" viewBox="0 0 48 48">
  <title>pipeline-solid</title>
  <g id="Layer_2" data-name="Layer 2">
    <g id="invisible_box" data-name="invisible box">
      <rect width="48" height="48" fill="none"/>
    </g>
    <g id="icons_Q2" data-name="icons Q2">
      <path d="M40,30a2,2,0,0,0-2,2v1H22a2,2,0,0,1,0-4h4A12,12,0,0,0,26,5H10V4A2,2,0,0,0,6,4V16a2,2,0,0,0,4,0V15H26a2,2,0,0,1,0,4H22a12,12,0,0,0,0,24H38v1a2,2,0,0,0,4,0V32A2,2,0,0,0,40,30Z"/>
    </g>
  </g>
</svg>
