<svg xmlns="http://www.w3.org/2000/svg" width="48" height="48" viewBox="0 0 48 48">
  <g id="Layer_2" data-name="Layer 2">
    <g id="invisible_box" data-name="invisible box">
      <rect width="48" height="48" fill="none"/>
    </g>
    <g id="horoscope">
      <g>
        <path d="M25.6,25.6,22.2,29,19,25.8l3.4-3.4a2,2,0,0,0-2.8-2.8L16.2,23l-1.3-1.3a1.9,1.9,0,0,0-2.8,0l-3,3a9.8,9.8,0,0,0-3,7,9.1,9.1,0,0,0,1.8,5.6L4.6,40.6a1.9,1.9,0,0,0,0,2.8,1.9,1.9,0,0,0,2.8,0l3.2-3.2a10.1,10.1,0,0,0,5.9,1.9,10.2,10.2,0,0,0,7.1-2.9l3-3a2,2,0,0,0,.6-1.4,1.7,1.7,0,0,0-.6-1.4L25,31.8l3.4-3.4a2,2,0,0,0-2.8-2.8Z"/>
        <path d="M43.4,4.6a1.9,1.9,0,0,0-2.8,0L37.2,8a10,10,0,0,0-13,.9l-3,3a2,2,0,0,0-.6,1.4,1.7,1.7,0,0,0,.6,1.4L32.9,26.4a1.9,1.9,0,0,0,2.8,0l3-2.9a9.9,9.9,0,0,0,2.9-7.1A10.4,10.4,0,0,0,40,10.9l3.4-3.5A1.9,1.9,0,0,0,43.4,4.6Z"/>
      </g>
    </g>
  </g>
</svg>
