<svg xmlns="http://www.w3.org/2000/svg" width="48" height="48" viewBox="0 0 48 48">
  <g id="Layer_2" data-name="Layer 2">
    <g id="invisible_box" data-name="invisible box">
      <rect width="48" height="48" fill="none"/>
    </g>
    <g id="horoscope">
      <g>
        <path d="M33,6A13,13,0,1,0,46,19,13,13,0,0,0,33,6ZM32,21a2,2,0,0,1-4,0V17a2,2,0,0,1,4,0Zm6,0a2,2,0,0,1-4,0V17a2,2,0,0,1,4,0Z"/>
        <path d="M42,40H12V33.7A8,8,0,0,0,18,26V22a2,2,0,0,0-2-2H15V16a2,2,0,0,0-4,0v4H9V16a2,2,0,0,0-4,0v4H4a2,2,0,0,0-2,2v4a8,8,0,0,0,6,7.7V40a4,4,0,0,0,4,4H42a2,2,0,0,0,0-4Z"/>
      </g>
    </g>
  </g>
</svg>
