<svg xmlns="http://www.w3.org/2000/svg" width="48" height="48" viewBox="0 0 48 48">
  <g id="Layer_2" data-name="Layer 2">
    <g id="invisible_box" data-name="invisible box">
      <rect width="48" height="48" fill="none"/>
    </g>
    <g id="horoscope">
      <path d="M46,24A22,22,0,0,1,26,45.9V34.8a9.8,9.8,0,0,0,8-9.7V21a2.1,2.1,0,0,0-2-2H30V13.9a2,2,0,1,0-4,0V19H22V13.9a2,2,0,1,0-4,0V19H16a2,2,0,0,0-2,2v4.1a10,10,0,0,0,2.8,7A9.4,9.4,0,0,0,22,34.8V45.9A22,22,0,1,1,46,24Z"/>
    </g>
  </g>
</svg>
