<svg xmlns="http://www.w3.org/2000/svg" width="48" height="48" viewBox="0 0 48 48">
  <g id="Layer_2" data-name="Layer 2">
    <g id="invisible_box" data-name="invisible box">
      <rect width="48" height="48" fill="none"/>
    </g>
    <g id="Layer_6" data-name="Layer 6">
      <path d="M25.2,2A21.8,21.8,0,0,0,8.9,8,21.6,21.6,0,0,0,2,24,22.1,22.1,0,0,0,22.9,46H23a3.2,3.2,0,0,0,2.1-.8A3.1,3.1,0,0,0,26,43V33.8a9.8,9.8,0,0,0,8-9.6V20a2.1,2.1,0,0,0-2-2H30V12.9a2,2,0,1,0-4,0V18H22V12.9a2,2,0,1,0-4,0V18H16a2,2,0,0,0-2,2v4.1a10,10,0,0,0,2.8,7A10.1,10.1,0,0,0,22,33.8v8.1a18,18,0,0,1-10.4-31A18.3,18.3,0,0,1,25,6,18.3,18.3,0,0,1,42,24.2a17.4,17.4,0,0,1-5.3,12.5,2.1,2.1,0,0,0,2.9,2.9A21.7,21.7,0,0,0,46,24.2,22.2,22.2,0,0,0,25.2,2ZM18,24.1V22H30v2.2A5.8,5.8,0,0,1,24.3,30h-.6a5.6,5.6,0,0,1-4-1.7A5.9,5.9,0,0,1,18,24.1Z"/>
    </g>
  </g>
</svg>
