<svg xmlns="http://www.w3.org/2000/svg" width="48" height="48" viewBox="0 0 48 48">
  <title>power-solid</title>
  <g id="Layer_2" data-name="Layer 2">
    <g id="invisible_box" data-name="invisible box">
      <rect width="48" height="48" fill="none"/>
    </g>
    <g id="icons_Q2" data-name="icons Q2">
      <g>
        <path d="M39.7,8.6a2,2,0,1,0-2.8,2.8,18,18,0,1,1-25.8,0A2,2,0,0,0,8.3,8.6,21.6,21.6,0,0,0,2,24a22,22,0,0,0,44,0A21.6,21.6,0,0,0,39.7,8.6Z"/>
        <path d="M24,29a2,2,0,0,0,2-2V4a2,2,0,0,0-4,0V27A2,2,0,0,0,24,29Z"/>
      </g>
    </g>
  </g>
</svg>
