<svg xmlns="http://www.w3.org/2000/svg" width="48" height="48" viewBox="0 0 48 48">
  <title>printer</title>
  <g id="Layer_2" data-name="Layer 2">
    <g id="invisible_box" data-name="invisible box">
      <rect width="48" height="48" fill="none"/>
    </g>
    <g id="icons_Q2" data-name="icons Q2">
      <g>
        <path d="M44,8H38V4a2,2,0,0,0-2-2H12a2,2,0,0,0-2,2V8H4a2,2,0,0,0-2,2V28a2,2,0,0,0,2,2h6V44a2,2,0,0,0,2,2H36a2,2,0,0,0,2-2V30h6a2,2,0,0,0,2-2V10A2,2,0,0,0,44,8ZM14,6H34V8H14ZM34,42H14V30H34Zm8-16H6V12H42Z"/>
        <circle cx="36" cy="18" r="3"/>
        <path d="M20,38h8a2,2,0,0,0,0-4H20a2,2,0,0,0,0,4Z"/>
      </g>
    </g>
  </g>
</svg>
