<svg xmlns="http://www.w3.org/2000/svg" width="48" height="48" viewBox="0 0 48 48">
  <title>queue-solid</title>
  <g id="Layer_2" data-name="Layer 2">
    <g id="invisible_box" data-name="invisible box">
      <rect width="48" height="48" fill="none"/>
    </g>
    <g id="icons_Q2" data-name="icons Q2">
      <path d="M16,36a2,2,0,0,1-2-2V6a2,2,0,0,1,2-2h0a2,2,0,0,1,2,2V34a2,2,0,0,1-2,2Z"/>
      <path d="M24,36a2,2,0,0,1-2-2V6a2,2,0,0,1,2-2h0a2,2,0,0,1,2,2V34a2,2,0,0,1-2,2Z"/>
      <path d="M32,36a2,2,0,0,1-2-2V6a2,2,0,0,1,2-2h0a2,2,0,0,1,2,2V34a2,2,0,0,1-2,2Z"/>
      <path d="M39.7,26A2.1,2.1,0,0,0,38,28.1V40H10V28.1A2.1,2.1,0,0,0,8.3,26,2,2,0,0,0,6,28V42a2,2,0,0,0,2,2H40a2,2,0,0,0,2-2V28A2,2,0,0,0,39.7,26Z"/>
      <path d="M9.8,15.7,2.5,11.1c-.3-.2-.5-.1-.5.3v9.2c0,.4.2.5.5.3l7.3-4.6Q10.3,16,9.8,15.7Z"/>
      <path d="M45.8,15.7l-7.3-4.6c-.3-.2-.5-.1-.5.3v9.2c0,.4.2.5.5.3l7.3-4.6Q46.3,16,45.8,15.7Z"/>
    </g>
  </g>
</svg>
