<svg xmlns="http://www.w3.org/2000/svg" width="48" height="48" viewBox="0 0 48 48">
  <title>rearrange-solid</title>
  <g id="Layer_2" data-name="Layer 2">
    <g id="invisible_box" data-name="invisible box">
      <rect width="48" height="48" fill="none"/>
    </g>
    <g id="icons_Q2" data-name="icons Q2">
      <g>
        <path d="M42.3,3A2,2,0,0,0,40,5V8.9A22,22,0,0,0,7.9,9H6a2,2,0,0,0-2,2V21a2,2,0,0,0,2,2H16a2,2,0,0,0,2-2V11a2,2,0,0,0-2-2H14.1A17.8,17.8,0,0,1,24,6a18,18,0,0,1,13.4,6H33.1A2.1,2.1,0,0,0,31,13.7,2,2,0,0,0,33,16h9a2,2,0,0,0,2-2V5.1A2.1,2.1,0,0,0,42.3,3Z"/>
        <path d="M42,27H32a2,2,0,0,0-2,2V39a1.8,1.8,0,0,0,.8,1.6A17.2,17.2,0,0,1,24,42a18,18,0,0,1-13.4-6h4.3A2.1,2.1,0,0,0,17,34.3,2,2,0,0,0,15,32H6a2,2,0,0,0-2,2v8.9A2.1,2.1,0,0,0,5.7,45,2,2,0,0,0,8,43V39.1A21.9,21.9,0,0,0,37.9,41H42a2,2,0,0,0,2-2V29A2,2,0,0,0,42,27Z"/>
      </g>
    </g>
  </g>
</svg>
