<svg xmlns="http://www.w3.org/2000/svg" width="48" height="48" viewBox="0 0 48 48">
  <title>recycle</title>
  <g id="Layer_2" data-name="Layer 2">
    <g id="invisible_box" data-name="invisible box">
      <rect width="48" height="48" fill="none"/>
    </g>
    <g id="Q3_icons" data-name="Q3 icons">
      <g>
        <path d="M45.4,33l-3.9-6.2A2,2,0,1,0,38.1,29L42,35.2H25.5l2.4-2.5a2.1,2.1,0,0,0-.1-2.9A2,2,0,0,0,25,30l-5.6,5.8a2.1,2.1,0,0,0,0,2.8l5.7,5.8a1.9,1.9,0,0,0,2.8,0,1.9,1.9,0,0,0,0-2.8l-2.2-2.3H42a3.9,3.9,0,0,0,3.5-2.1A4.2,4.2,0,0,0,45.4,33Z"/>
        <path d="M19.8,14.6l4.1-7.5,7.6,11.8-3.2-.7a2.1,2.1,0,0,0-2.4,1.6,1.9,1.9,0,0,0,1.5,2.3l7.8,1.7h.4a2,2,0,0,0,1.1-.3,2,2,0,0,0,.8-1.3l1.7-8a2.1,2.1,0,0,0-1.6-2.4,2.1,2.1,0,0,0-2.4,1.6l-.6,3L27.3,4.9A3.9,3.9,0,0,0,24,3a4.2,4.2,0,0,0-3.4,1.8h0l-4.3,7.8a2,2,0,0,0,3.5,1.9Z"/>
        <path d="M16.3,19.8a1.8,1.8,0,0,0-.9-1.3,1.9,1.9,0,0,0-1.5-.3L6.1,19.7a2.1,2.1,0,0,0-1.5,2.4,1.9,1.9,0,0,0,2.3,1.5l2.6-.5L2.7,32.9a4.2,4.2,0,0,0-.2,4.3A3.9,3.9,0,0,0,6,39.3h7.1a2,2,0,1,0,0-4H6l7.2-10.3.6,3.7a2,2,0,0,0,2,1.6h.4a2.1,2.1,0,0,0,1.6-2.4Z"/>
      </g>
    </g>
  </g>
</svg>
