<svg xmlns="http://www.w3.org/2000/svg" width="48" height="48" viewBox="0 0 48 48">
  <title>refresh-setting</title>
  <g id="Layer_2" data-name="Layer 2">
    <g id="invisible_box" data-name="invisible box">
      <rect width="48" height="48" fill="none"/>
    </g>
    <g id="icons_Q2" data-name="icons Q2">
      <g>
        <path d="M33,25V23l-3.3-.8a4.2,4.2,0,0,0-.4-1l1.8-2.9-1.4-1.4-2.9,1.8-1-.4L25,15H23l-.8,3.3-1,.4-2.9-1.8-1.4,1.4,1.8,2.9a4.2,4.2,0,0,0-.4,1L15,23v2l3.3.8a4.2,4.2,0,0,0,.4,1l-1.8,2.9,1.4,1.4,2.9-1.8,1,.4L23,33h2l.8-3.3,1-.4,2.9,1.8,1.4-1.4-1.8-2.9a4.2,4.2,0,0,0,.4-1Zm-9,1a2,2,0,1,1,2-2A2,2,0,0,1,24,26Z"/>
        <path d="M44,14V4.1A2.1,2.1,0,0,0,42.3,2,2,2,0,0,0,40,4V8.9a22,22,0,1,0,3.7,24.8,2,2,0,0,0-.5-2.6,2,2,0,0,0-3,.7A17.8,17.8,0,0,1,24,42,18,18,0,1,1,37.4,12H32.1A2.1,2.1,0,0,0,30,13.7,2,2,0,0,0,32,16H42A2,2,0,0,0,44,14Z"/>
      </g>
    </g>
  </g>
</svg>
