<svg xmlns="http://www.w3.org/2000/svg" width="48" height="48" viewBox="0 0 48 48">
  <title>refresh</title>
  <g id="Layer_2" data-name="Layer 2">
    <g id="invisible_box" data-name="invisible box">
      <rect width="48" height="48" fill="none"/>
    </g>
    <g id="icons_Q2" data-name="icons Q2">
      <path d="M2,24a22,22,0,0,0,41.7,9.7,2,2,0,0,0-.5-2.6,2,2,0,0,0-3,.7A17.8,17.8,0,0,1,24,42,18,18,0,1,1,37.4,12H32.1A2.1,2.1,0,0,0,30,13.7,2,2,0,0,0,32,16H42a2,2,0,0,0,2-2V4.1A2.1,2.1,0,0,0,42.3,2,2,2,0,0,0,40,4V8.9A22,22,0,0,0,2,24Z"/>
    </g>
  </g>
</svg>
