<svg xmlns="http://www.w3.org/2000/svg" width="48" height="48" viewBox="0 0 48 48">
  <title>reroute</title>
  <g id="Layer_2" data-name="Layer 2">
    <g id="invisible_box" data-name="invisible box">
      <rect width="48" height="48" fill="none"/>
    </g>
    <g id="icons_Q2" data-name="icons Q2">
      <g>
        <path d="M24.5,31.6a2.1,2.1,0,0,0-2.7-.2,1.9,1.9,0,0,0-.2,3L23.2,36h-.3a2,2,0,0,0,0,4h.3l-1.6,1.6a1.9,1.9,0,0,0,.2,3,2.1,2.1,0,0,0,2.7-.2l4.9-5a1.9,1.9,0,0,0,0-2.8Z"/>
        <path d="M44.4,22l-5-4.9a1.9,1.9,0,0,0-2.8,0l-5,4.9a2.1,2.1,0,0,0-.2,2.7,1.9,1.9,0,0,0,3,.2L36,23.3V33.4A4.7,4.7,0,0,0,33.4,36a6.5,6.5,0,0,0-.4,2,6.5,6.5,0,0,0,.4,2A5.1,5.1,0,0,0,38,43a5,5,0,0,0,5-5,5.1,5.1,0,0,0-3-4.6V23.3l1.6,1.6a1.9,1.9,0,0,0,3-.2A2.1,2.1,0,0,0,44.4,22ZM38,40a2,2,0,1,1,2-2A2,2,0,0,1,38,40Z"/>
        <path d="M36,12.6a6.5,6.5,0,0,0,2,.4,6.5,6.5,0,0,0,2-.4A5.1,5.1,0,0,0,43,8a5,5,0,0,0-5-5,5.1,5.1,0,0,0-4.6,3A6.5,6.5,0,0,0,33,8a6.5,6.5,0,0,0,.4,2A5.1,5.1,0,0,0,36,12.6ZM38,6a2,2,0,1,1-2,2A2,2,0,0,1,38,6Z"/>
        <path d="M15.3,35.9a2.1,2.1,0,0,0-2.4,1.6,2.2,2.2,0,0,0,1.7,2.4h.3a2,2,0,0,0,.4-4Z"/>
        <path d="M8.3,31a2,2,0,0,0-1,2.7,2,2,0,0,0,1.8,1.1h.8a2,2,0,0,0,1-2.7A2,2,0,0,0,8.3,31Z"/>
        <circle cx="8" cy="25" r="2"/>
        <circle cx="8" cy="17" r="2"/>
      </g>
      <circle cx="8" cy="8" r="5"/>
    </g>
  </g>
</svg>
