<svg xmlns="http://www.w3.org/2000/svg" width="48" height="48" viewBox="0 0 48 48">
  <title>rewind-circle</title>
  <g id="Layer_2" data-name="Layer 2">
    <g id="invisible_box" data-name="invisible box">
      <rect width="48" height="48" fill="none"/>
    </g>
    <g id="icons_Q2" data-name="icons Q2">
      <g>
        <path d="M32.3,18.2,24.5,23a1.2,1.2,0,0,0,0,2l7.8,4.8a1.1,1.1,0,0,0,1.7-.9V19.1A1.1,1.1,0,0,0,32.3,18.2Z"/>
        <path d="M20.3,18.2,12.5,23a1.2,1.2,0,0,0,0,2l7.8,4.8a1.1,1.1,0,0,0,1.7-.9V19.1A1.1,1.1,0,0,0,20.3,18.2Z"/>
        <path d="M24,2A22,22,0,1,0,46,24,21.9,21.9,0,0,0,24,2Zm0,40A18,18,0,1,1,42,24,18.1,18.1,0,0,1,24,42Z"/>
      </g>
    </g>
  </g>
</svg>
