<svg xmlns="http://www.w3.org/2000/svg" width="48" height="48" viewBox="0 0 48 48">
  <title>rewind-circle-solid</title>
  <g id="Layer_2" data-name="Layer 2">
    <g id="invisible_box" data-name="invisible box">
      <rect width="48" height="48" fill="none"/>
    </g>
    <g id="icons_Q2" data-name="icons Q2">
      <path d="M24,2A22,22,0,1,0,46,24,21.9,21.9,0,0,0,24,2ZM22,28.8a1.1,1.1,0,0,1-1.7,1L12.5,25a1.2,1.2,0,0,1,0-2l7.8-4.8a1.1,1.1,0,0,1,1.7.9Zm12,0a1.1,1.1,0,0,1-1.7,1L24.5,25a1.2,1.2,0,0,1,0-2l7.8-4.8a1.1,1.1,0,0,1,1.7.9Z"/>
    </g>
  </g>
</svg>
