<svg xmlns="http://www.w3.org/2000/svg" width="48" height="48" viewBox="0 0 48 48">
  <title>scale-minimize</title>
  <g id="Layer_2" data-name="Layer 2">
    <g id="invisible_box" data-name="invisible box">
      <rect width="48" height="48" fill="none"/>
    </g>
    <g id="icons_Q2" data-name="icons Q2">
      <path d="M36,30a6,6,0,1,1-6,6,6,6,0,0,1,6-6m0-4A10,10,0,1,0,46,36,10,10,0,0,0,36,26Z"/>
      <path d="M27,17a2,2,0,0,0-2.3-2A2.1,2.1,0,0,0,23,17.1v3.1l-6.5-6.6a2.1,2.1,0,0,0-2.8-.1A1.8,1.8,0,0,0,13,15a2,2,0,0,0,.6,1.4L20.2,23H17.1A2.1,2.1,0,0,0,15,24.7,2,2,0,0,0,17,27h8a2,2,0,0,0,2-2Z"/>
      <path d="M22,4a2,2,0,0,1,2-2h0a2,2,0,0,1,2,2h0a2,2,0,0,1-2,2h0A2,2,0,0,1,22,4Z"/>
      <path d="M12.3,7.7A2,2,0,0,1,13,4.9h0a2,2,0,0,1,2.7.8h0A1.9,1.9,0,0,1,15,8.4h0A1.9,1.9,0,0,1,12.3,7.7Z"/>
      <path d="M5.7,15.7A2,2,0,0,1,4.9,13h0a2.1,2.1,0,0,1,2.8-.7h0A1.9,1.9,0,0,1,8.4,15h0A1.9,1.9,0,0,1,5.7,15.7Z"/>
      <path d="M4,26a2,2,0,0,1-2-2H2a2,2,0,0,1,2-2H4a2,2,0,0,1,2,2H6A2,2,0,0,1,4,26Z"/>
      <path d="M7.7,35.7A2,2,0,0,1,4.9,35h0a2,2,0,0,1,.8-2.7h0a1.9,1.9,0,0,1,2.7.7h0A1.9,1.9,0,0,1,7.7,35.7Z"/>
      <path d="M15.7,42.3a2,2,0,0,1-2.7.8h0a2.1,2.1,0,0,1-.7-2.8h0a1.9,1.9,0,0,1,2.7-.7h0A1.9,1.9,0,0,1,15.7,42.3Z"/>
      <path d="M26,44a2,2,0,0,1-2,2h0a2,2,0,0,1-2-2h0a2,2,0,0,1,2-2h0A2,2,0,0,1,26,44Z"/>
      <path d="M44,22a2,2,0,0,1,2,2h0a2,2,0,0,1-2,2h0a2,2,0,0,1-2-2h0A2,2,0,0,1,44,22Z"/>
      <path d="M40.3,12.3a2,2,0,0,1,2.8.7h0a2,2,0,0,1-.8,2.7h0a1.9,1.9,0,0,1-2.7-.7h0A1.9,1.9,0,0,1,40.3,12.3Z"/>
      <path d="M32.3,5.7A2,2,0,0,1,35,4.9h0a2.1,2.1,0,0,1,.7,2.8h0a1.9,1.9,0,0,1-2.7.7h0A1.9,1.9,0,0,1,32.3,5.7Z"/>
    </g>
  </g>
</svg>
