<svg xmlns="http://www.w3.org/2000/svg" width="48" height="48" viewBox="0 0 48 48">
  <title>scissors</title>
  <g id="Layer_2" data-name="Layer 2">
    <g id="invisible_box" data-name="invisible box">
      <rect width="48" height="48" fill="none"/>
    </g>
    <g id="icons_Q2" data-name="icons Q2">
      <path d="M44.2,35.4,28.4,23.9,44.2,12.6a2,2,0,1,0-2.4-3.2l-16.7,12L17.9,16A8,8,0,1,0,11,20a7.3,7.3,0,0,0,4.1-1.2l6.7,5.1L16.3,28A8.3,8.3,0,0,0,11,26a8,8,0,1,0,8,8,8.6,8.6,0,0,0-.5-2.7l6.6-4.9L41.8,38.6A1.9,1.9,0,0,0,43,39a2.1,2.1,0,0,0,1.6-.8A2,2,0,0,0,44.2,35.4ZM11,16a4,4,0,1,1,4-4A4,4,0,0,1,11,16Zm0,22a4,4,0,1,1,4-4A4,4,0,0,1,11,38Z"/>
    </g>
  </g>
</svg>
