<svg xmlns="http://www.w3.org/2000/svg" width="48" height="48" viewBox="0 0 48 48">
  <title>screwdriver</title>
  <g id="Layer_2" data-name="Layer 2">
    <g id="invisible_box" data-name="invisible box">
      <rect width="48" height="48" fill="none"/>
    </g>
    <g id="Q3_icons" data-name="Q3 icons">
      <path d="M36,15.4a19.3,19.3,0,0,1,.1,2.4v5.1A9.4,9.4,0,0,1,24.2,37.4a8,8,0,0,1-1.3-1.3,8.4,8.4,0,0,1-1.4-2.4,8.4,8.4,0,0,1-.7-3.5V20.8h4v-3a8,8,0,0,0-.5-2.6l-.5-.9H14.3V30.2a16.3,16.3,0,0,0,.3,3.1,7.4,7.4,0,0,0,.4,1.4l.4,1.3A15.9,15.9,0,1,0,36,15.4Z"/>
      <path d="M33.3,14.7a3.5,3.5,0,0,0-.3-1.4L32.6,12A15.9,15.9,0,1,0,3.1,23.7,16.2,16.2,0,0,0,12,32.6a19.3,19.3,0,0,1-.1-2.4V25.1A9.4,9.4,0,1,1,23.8,10.6a9.2,9.2,0,0,1,3.4,7.2v9.4h-4v3a7,7,0,0,0,.5,2.5l.5,1h9.5V17.8A11,11,0,0,0,33.3,14.7Z"/>
    </g>
  </g>
</svg>
