<svg xmlns="http://www.w3.org/2000/svg" width="48" height="48" viewBox="0 0 48 48">
  <g id="Layer_2" data-name="Layer 2">
    <g id="Icons">
      <g>
        <rect width="48" height="48" fill="none"/>
        <path d="M29,27H13a2,2,0,0,1,0-4H29a2,2,0,0,1,0,4ZM13,31a2,2,0,0,0,0,4h8a2,2,0,0,0,0-4Zm24-5a2,2,0,0,0-2,2V42H7V8H17a2,2,0,0,0,0-4H5A2,2,0,0,0,3,6V44a2,2,0,0,0,2,2H37a2,2,0,0,0,2-2V28A2,2,0,0,0,37,26Zm7.4-.6a1.9,1.9,0,0,1-2.8,0l-5.1-5.1h0A10.4,10.4,0,0,1,31,22a10.1,10.1,0,0,1-7.1-3H13a2,2,0,0,1,0-4h8.5a9.9,9.9,0,0,1-.5-3,10,10,0,0,1,20,0,10.4,10.4,0,0,1-1.6,5.5h-.1l5.1,5.1A1.9,1.9,0,0,1,44.4,25.4ZM27.5,15a.9.9,0,0,1,1-1h4V13h-3a2,2,0,0,1-2-2V10a2,2,0,0,1,2-2H30V6.1a6,6,0,0,0,0,11.8V16H28.5A.9.9,0,0,1,27.5,15ZM37,12a6,6,0,0,0-5-5.9V8h1.5a.9.9,0,0,1,1,1,.9.9,0,0,1-1,1h-4v1h3a2,2,0,0,1,2,2v1a2,2,0,0,1-2,2H32v1.9l1.6-.5.6-.3a.1.1,0,0,1,.1-.1l.7-.5a.1.1,0,0,1,.1-.1l.6-.6h0l.5-.8h0l.2-.4A5.5,5.5,0,0,0,37,12Z"/>
      </g>
    </g>
  </g>
</svg>
