<svg xmlns="http://www.w3.org/2000/svg" width="48" height="48" viewBox="0 0 48 48">
  <g id="Layer_2" data-name="Layer 2">
    <g id="Icons">
      <g>
        <rect width="48" height="48" fill="none"/>
        <path d="M44.4,22.6l-5.1-5.1A9.7,9.7,0,0,0,41,12,10,10,0,0,0,31,2a9.8,9.8,0,0,0-6,2H5A2,2,0,0,0,3,6V44a2,2,0,0,0,2,2H37a2,2,0,0,0,2-2V22.8l2.6,2.6a1.9,1.9,0,0,0,2.8,0A1.9,1.9,0,0,0,44.4,22.6ZM30,6.1V8h-.5a2,2,0,0,0-2,2v1a2,2,0,0,0,2,2h3v1h-4a1,1,0,0,0,0,2H30v1.9A6,6,0,0,1,30,6.1ZM13,15h8.5a3,3,0,0,0,.4,1,.4.4,0,0,0,.1.3,2.5,2.5,0,0,0,.4.7c0,.1.1.2.1.3l.5.6c0,.1.1.2.2.3l.6.7a.1.1,0,0,0,.1.1H13a2,2,0,0,1,0-4Zm8,20H13a2,2,0,0,1,0-4h8a2,2,0,0,1,0,4Zm8-8H13a2,2,0,0,1,0-4H29a2,2,0,0,1,0,4Zm3-9.1V16h.5a2,2,0,0,0,2-2V13a2,2,0,0,0-2-2h-3V10h4a1,1,0,0,0,0-2H32V6.1a6,6,0,0,1,0,11.8Z"/>
      </g>
    </g>
  </g>
</svg>
