<svg xmlns="http://www.w3.org/2000/svg" width="48" height="48" viewBox="0 0 48 48">
  <g id="Layer_2" data-name="Layer 2">
    <g id="Icons">
      <g>
        <rect width="48" height="48" fill="none"/>
        <g>
          <path d="M41.4,40.6,28.9,28.1A15.1,15.1,0,0,0,32,19,15,15,0,1,0,17,34a15.1,15.1,0,0,0,9.1-3.1L38.6,43.4a1.9,1.9,0,0,0,2.8,0A1.9,1.9,0,0,0,41.4,40.6ZM17,30A11,11,0,1,1,28,19,11,11,0,0,1,17,30Z"/>
          <path d="M16.5,16.5h3a1.5,1.5,0,0,0,0-3h-1V13a1.5,1.5,0,0,0-3,0v.7A3.4,3.4,0,0,0,13,17a3.5,3.5,0,0,0,3.5,3.5h1a.5.5,0,0,1,0,1h-3a1.5,1.5,0,0,0,0,3h1V25a1.5,1.5,0,0,0,3,0v-.7A3.4,3.4,0,0,0,21,21a3.5,3.5,0,0,0-3.5-3.5h-1a.5.5,0,0,1,0-1Z"/>
        </g>
      </g>
    </g>
  </g>
</svg>
