<svg xmlns="http://www.w3.org/2000/svg" width="48" height="48" viewBox="0 0 48 48">
  <g id="Layer_2" data-name="Layer 2">
    <g id="Icons">
      <g>
        <rect width="48" height="48" fill="none"/>
        <path d="M41.4,40.6,28.9,28.1A15.1,15.1,0,0,0,32,19,15,15,0,1,0,17,34a15.1,15.1,0,0,0,9.1-3.1L38.6,43.4a1.9,1.9,0,0,0,2.8,0A1.9,1.9,0,0,0,41.4,40.6ZM17,30A11,11,0,1,1,28,19,11,11,0,0,1,17,30ZM16,17a.5.5,0,0,0,.5.5h1A3.5,3.5,0,0,1,21,21a3.4,3.4,0,0,1-2.5,3.3V25a1.5,1.5,0,0,1-3,0v-.5h-1a1.5,1.5,0,0,1,0-3h3a.5.5,0,0,0,0-1h-1A3.5,3.5,0,0,1,13,17a3.4,3.4,0,0,1,2.5-3.3V13a1.5,1.5,0,0,1,3,0v.5h1a1.5,1.5,0,0,1,0,3h-3A.5.5,0,0,0,16,17Z"/>
      </g>
    </g>
  </g>
</svg>
