<svg xmlns="http://www.w3.org/2000/svg" width="48" height="48" viewBox="0 0 48 48">
  <title>security-shield</title>
  <g id="Layer_2" data-name="Layer 2">
    <g id="invisible_box" data-name="invisible box">
      <rect width="48" height="48" fill="none"/>
      <rect width="48" height="48" fill="none"/>
      <rect width="48" height="48" fill="none"/>
    </g>
    <g id="icons_Q2" data-name="icons Q2">
      <path d="M24,2S6,7.1,6,8V26.2c0,9.2,13.3,17.3,17,19.5a1.8,1.8,0,0,0,2,0c3.8-2.1,17-10.3,17-19.5V8C42,7.1,24,2,24,2ZM38,26.2c0,3.4-3.7,9.4-14,15.4-10.3-6.1-14-12-14-15.4V10.5c2.5-1,7.3-2.4,12-3.7V29.9a2,2,0,0,0,4,0V6.8c4.7,1.3,9.5,2.8,12,3.7Z"/>
    </g>
  </g>
</svg>
