<svg xmlns="http://www.w3.org/2000/svg" width="48" height="48" viewBox="0 0 48 48">
  <title>service-error-solid</title>
  <g id="Layer_2" data-name="Layer 2">
    <g id="invisible_box" data-name="invisible box">
      <rect width="48" height="48" fill="none"/>
      <rect width="48" height="48" fill="none"/>
      <rect width="48" height="48" fill="none"/>
    </g>
    <g id="icons_Q2" data-name="icons Q2">
      <path d="M36.8,15l4.6-4.5a2.1,2.1,0,0,0,.2-2.7,1.9,1.9,0,0,0-3-.2L34,12.2,29.4,7.6a1.9,1.9,0,0,0-3,.2,2.1,2.1,0,0,0,.2,2.7L31.2,15l-4.6,4.5a2.1,2.1,0,0,0-.2,2.7,1.9,1.9,0,0,0,3,.2L34,17.8l4.6,4.6a1.9,1.9,0,0,0,3-.2,2.1,2.1,0,0,0-.2-2.7Z"/>
      <path d="M42.2,28.7a5.2,5.2,0,0,0-4-1.1l-9.9,1.8a4.5,4.5,0,0,0-1.4-3.3L19.8,19H5a2,2,0,0,0-2,2v9a2,2,0,0,0,2,2H8.3l11.2,9.1,20.4-3.7a5,5,0,0,0,2.3-8.7Zm-3,4.8L20.5,36.9,10,28.2V23h8.2l5.9,5.9a.8.8,0,0,1-1.2,1.2l-3.5-3.5a2,2,0,0,0-2.8,2.8l3.5,3.5a4.5,4.5,0,0,0,3.4,1.4,5.7,5.7,0,0,0,1.8-.3h0l13.6-2.4a1.1,1.1,0,0,1,.8.2.9.9,0,0,1,.3.7A1,1,0,0,1,39.2,33.5Z"/>
    </g>
  </g>
</svg>
