<svg xmlns="http://www.w3.org/2000/svg" width="48" height="48" viewBox="0 0 48 48">
  <title>setting</title>
  <g id="Layer_2" data-name="Layer 2">
    <g id="invisible_box" data-name="invisible box">
      <rect width="48" height="48" fill="none"/>
    </g>
    <g id="icons_Q2" data-name="icons Q2">
      <g>
        <path d="M40.2,29.2l5.5-1.5a23,23,0,0,0,0-7.4l-5.5-1.5a1.8,1.8,0,0,1-1.1-2.6l2.8-5a20.6,20.6,0,0,0-5.1-5.1l-5,2.8-.8.2a1.8,1.8,0,0,1-1.8-1.3L27.7,2.3a23,23,0,0,0-7.4,0L18.8,7.8A1.8,1.8,0,0,1,17,9.1l-.8-.2-5-2.8a20.6,20.6,0,0,0-5.1,5.1l2.8,5a1.8,1.8,0,0,1-1.1,2.6L2.3,20.3a23,23,0,0,0,0,7.4l5.5,1.5a1.8,1.8,0,0,1,1.1,2.6l-2.8,5a20.6,20.6,0,0,0,5.1,5.1l5-2.8.8-.2a1.8,1.8,0,0,1,1.8,1.3l1.5,5.5a23,23,0,0,0,7.4,0l1.5-5.5A1.8,1.8,0,0,1,31,38.9l.8.2,5,2.8a20.6,20.6,0,0,0,5.1-5.1l-2.8-5A1.8,1.8,0,0,1,40.2,29.2ZM39,25.3h-.2a6.1,6.1,0,0,0-3.4,3.3,5.7,5.7,0,0,0,.1,4.8h.1v.2l1.5,2.5a3,3,0,0,1-.8.8l-2.5-1.5h-.3a5.4,5.4,0,0,0-2.5-.6,6,6,0,0,0-5.6,3.9V39h0L24.5,42h-1l-.8-2.9h0v-.2A6,6,0,0,0,17,34.9a5.4,5.4,0,0,0-2.5.6h-.3l-2.5,1.5a3,3,0,0,1-.8-.8l1.5-2.5v-.2h.1a5.7,5.7,0,0,0,.1-4.8,6.1,6.1,0,0,0-3.4-3.3H8.9L6,24.5v-1l2.9-.8h.3a6.1,6.1,0,0,0,3.4-3.3,5.7,5.7,0,0,0-.1-4.8h-.1v-.2l-1.5-2.5.8-.8,2.5,1.5h.3a5.4,5.4,0,0,0,2.5.6,6,6,0,0,0,5.6-3.9V9h0L23.5,6h1l.8,2.9h0v.2A6,6,0,0,0,31,13.1a5.4,5.4,0,0,0,2.5-.6h.3l2.5-1.5a3,3,0,0,1,.8.8l-1.5,2.5v.2h-.1a5.7,5.7,0,0,0-.1,4.8,6.1,6.1,0,0,0,3.4,3.3h.3l2.9.8v1l-2.9.8Z"/>
        <path d="M24,15a9,9,0,1,0,9,9A9,9,0,0,0,24,15Zm0,14a5,5,0,1,1,5-5A5,5,0,0,1,24,29Z"/>
      </g>
    </g>
  </g>
</svg>
