<svg xmlns="http://www.w3.org/2000/svg" width="48" height="48" viewBox="0 0 48 48">
  <title>share</title>
  <g id="Layer_2" data-name="Layer 2">
    <g id="invisible_box" data-name="invisible box">
      <rect width="48" height="48" fill="none"/>
    </g>
    <g id="icons_Q2" data-name="icons Q2">
      <path d="M37,28a7.8,7.8,0,0,0-6.3,3.1L16.9,25.2A4.9,4.9,0,0,0,17,24a4.9,4.9,0,0,0-.1-1.2l13.8-5.9A7.8,7.8,0,0,0,37,20a8,8,0,1,0-8-8,4.9,4.9,0,0,0,.1,1.2L15.3,19.1A7.8,7.8,0,0,0,9,16,8,8,0,0,0,9,32a7.8,7.8,0,0,0,6.3-3.1l13.8,5.9A4.9,4.9,0,0,0,29,36a8,8,0,1,0,8-8ZM37,8a4,4,0,1,1-4,4A4,4,0,0,1,37,8ZM9,28a4,4,0,1,1,4-4A4,4,0,0,1,9,28ZM37,40a4,4,0,1,1,4-4A4,4,0,0,1,37,40Z"/>
    </g>
  </g>
</svg>
