<svg xmlns="http://www.w3.org/2000/svg" width="48" height="48" viewBox="0 0 48 48">
  <title>shuffle-data-model-solid</title>
  <g id="Layer_2" data-name="Layer 2">
    <g id="invisible_box" data-name="invisible box">
      <rect width="48" height="48" fill="none"/>
    </g>
    <g id="icons_Q2" data-name="icons Q2">
      <g>
        <path d="M44,33H36a2,2,0,0,0-2,2v2c-4.7-.4-7.9-3.5-7.9-7.9v-9A13,13,0,0,0,14,7.1V5a2,2,0,0,0-2-2H4A2,2,0,0,0,2,5v8a2,2,0,0,0,2,2h8a2,2,0,0,0,2-2V11.1a9,9,0,0,1,8.1,9v9c0,6.6,5,11.4,11.9,11.9v2a2,2,0,0,0,2,2h8a2,2,0,0,0,2-2V35A2,2,0,0,0,44,33Z"/>
        <path d="M44,3H36a2,2,0,0,0-2,2V7a14,14,0,0,0-7.2,2.9,12,12,0,0,1,2.1,3.4A9.1,9.1,0,0,1,34,11.1V13a2,2,0,0,0,2,2h8a2,2,0,0,0,2-2V5A2,2,0,0,0,44,3Z"/>
        <path d="M19.1,34.6A8.6,8.6,0,0,1,14,36.9V35a2,2,0,0,0-2-2H4a2,2,0,0,0-2,2v8a2,2,0,0,0,2,2h8a2,2,0,0,0,2-2V41a13.4,13.4,0,0,0,7.3-3.1A14.6,14.6,0,0,1,19.1,34.6Z"/>
      </g>
    </g>
  </g>
</svg>
