<svg xmlns="http://www.w3.org/2000/svg" width="48" height="48" viewBox="0 0 48 48">
  <title>skip-next-circle</title>
  <g id="Layer_2" data-name="Layer 2">
    <g id="invisible_box" data-name="invisible box">
      <rect width="48" height="48" fill="none"/>
    </g>
    <g id="icons_Q2" data-name="icons Q2">
      <g>
        <path d="M24,2A22,22,0,1,0,46,24,21.9,21.9,0,0,0,24,2Zm0,40A18,18,0,1,1,42,24,18.1,18.1,0,0,1,24,42Z"/>
        <path d="M17.5,14.6a2.1,2.1,0,0,0-2.7-.2,1.9,1.9,0,0,0-.2,3L21.2,24l-6.6,6.6a1.9,1.9,0,0,0,.2,3,2.1,2.1,0,0,0,2.7-.2l7.9-8a1.9,1.9,0,0,0,0-2.8Z"/>
        <path d="M32,14a2,2,0,0,0-2,2V32a2,2,0,0,0,4,0V16A2,2,0,0,0,32,14Z"/>
      </g>
    </g>
  </g>
</svg>
