<svg xmlns="http://www.w3.org/2000/svg" width="48" height="48" viewBox="0 0 48 48">
  <title>skip-previous-solid</title>
  <g id="Layer_2" data-name="Layer 2">
    <g id="invisible_box" data-name="invisible box">
      <rect width="48" height="48" fill="none"/>
    </g>
    <g id="Q3_icons" data-name="Q3 icons">
      <g>
        <path d="M24.8,24,35.4,13.4a1.9,1.9,0,0,0-.2-3,2.1,2.1,0,0,0-2.7.2l-11.9,12a1.9,1.9,0,0,0,0,2.8l11.9,12a2.1,2.1,0,0,0,2.7.2,1.9,1.9,0,0,0,.2-3Z"/>
        <path d="M14,10a2,2,0,0,0-2,2V36a2,2,0,0,0,4,0V12A2,2,0,0,0,14,10Z"/>
      </g>
    </g>
  </g>
</svg>
