<svg xmlns="http://www.w3.org/2000/svg" width="48" height="48" viewBox="0 0 48 48">
  <title>skip-previous-circle-solid</title>
  <g id="Layer_2" data-name="Layer 2">
    <g id="invisible_box" data-name="invisible box">
      <rect width="48" height="48" fill="none"/>
    </g>
    <g id="Q3_icons" data-name="Q3 icons">
      <path d="M24,2A22,22,0,1,0,46,24,21.9,21.9,0,0,0,24,2ZM18,32a2,2,0,0,1-4,0V16a2,2,0,0,1,4,0Zm15.4-1.4a1.9,1.9,0,0,1-.2,3,2,2,0,0,1-2.7-.3l-7.9-7.9a1.9,1.9,0,0,1,0-2.8l7.9-8a2.3,2.3,0,0,1,2.7-.3,2,2,0,0,1,.2,3.1L26.8,24Z"/>
    </g>
  </g>
</svg>
