<svg xmlns="http://www.w3.org/2000/svg" width="48" height="48" viewBox="0 0 48 48">
  <title>skip-next</title>
  <g id="Layer_2" data-name="Layer 2">
    <g id="invisible_box" data-name="invisible box">
      <rect width="48" height="48" fill="none"/>
    </g>
    <g id="icons_Q2" data-name="icons Q2">
      <g>
        <path d="M34,10a2,2,0,0,0-2,2V36a2,2,0,0,0,4,0V12A2,2,0,0,0,34,10Z"/>
        <path d="M15.5,10.6a2.1,2.1,0,0,0-2.7-.2,1.9,1.9,0,0,0-.2,3L23.2,24,12.6,34.6a1.9,1.9,0,0,0,.2,3,2.1,2.1,0,0,0,2.7-.2l11.9-12a1.9,1.9,0,0,0,0-2.8Z"/>
      </g>
    </g>
  </g>
</svg>
