<svg xmlns="http://www.w3.org/2000/svg" width="48" height="48" viewBox="0 0 48 48">
  <title>skull-solid</title>
  <g id="Layer_2" data-name="Layer 2">
    <g id="invisible_box" data-name="invisible box">
      <rect width="48" height="48" fill="none"/>
    </g>
    <g id="Q3_icons" data-name="Q3 icons">
      <path d="M42,19.9a18,18,0,0,0-36,0A20.8,20.8,0,0,0,8.8,30a5,5,0,0,0,3.1,9h1.5l.7,5.2a2,2,0,0,0,2,1.8H31.9a2,2,0,0,0,2-1.8l.7-5.2h.5a5,5,0,0,0,3.8-8.4A21,21,0,0,0,42,19.9ZM17.5,27A4.5,4.5,0,0,1,13,22.5V21.1c3,.9,9,.8,9,.8v.6A4.5,4.5,0,0,1,17.5,27Zm5.3,6.1a1.1,1.1,0,0,1-1.1.9,1,1,0,0,1-.9-1.2l.4-2.9a1.1,1.1,0,0,1,1.1-.9,1,1,0,0,1,.9,1.1Zm3.5.9a1.1,1.1,0,0,1-1.1-.9l-.4-3a1,1,0,0,1,.9-1.1,1.1,1.1,0,0,1,1.1.9l.4,2.9A1,1,0,0,1,26.3,34ZM35,22.5a4.5,4.5,0,0,1-9,0v-.6s6,.1,9-.8Z"/>
    </g>
  </g>
</svg>
