<svg xmlns="http://www.w3.org/2000/svg" width="48" height="48" viewBox="0 0 48 48">
  <title>skull</title>
  <g id="Layer_2" data-name="Layer 2">
    <g id="invisible_box" data-name="invisible box">
      <rect width="48" height="48" fill="none"/>
    </g>
    <g id="icons_Q2" data-name="icons Q2">
      <g>
        <path d="M42,19.9a18,18,0,0,0-36,0A20.5,20.5,0,0,0,8.8,30a5,5,0,0,0,3.1,9h1.5l.7,5.3a2,2,0,0,0,2,1.7H31.9a2,2,0,0,0,2-1.7l.7-5.3h.5a5.1,5.1,0,0,0,3.8-8.4A20.7,20.7,0,0,0,42,19.9ZM34.2,31.7A2.1,2.1,0,0,0,35.5,33a1.2,1.2,0,0,1,.6,1,1,1,0,0,1-1,1H32.8a1.9,1.9,0,0,0-1.9,1.7L30.2,42H17.8l-.7-5.3A1.9,1.9,0,0,0,15.2,35H11.9a1.1,1.1,0,0,1-1.1-1,1,1,0,0,1,1-1,2.3,2.3,0,0,0,1.8-1.2,2.1,2.1,0,0,0-.2-2A17.2,17.2,0,0,1,10,19.9a14,14,0,0,1,28,0,17.1,17.1,0,0,1-3.5,10A2,2,0,0,0,34.2,31.7Z"/>
        <path d="M22,21.9s-6,.1-9-.8v1.4a4.5,4.5,0,0,0,9,0Z"/>
        <path d="M35,21.1c-3,.9-9,.8-9,.8v.6a4.5,4.5,0,0,0,9,0Z"/>
        <path d="M25.7,29a1,1,0,0,0-.9,1.2l.4,2.9a1,1,0,0,0,1.1.9,1,1,0,0,0,.9-1.2l-.4-2.9A1,1,0,0,0,25.7,29Z"/>
        <path d="M22.3,29a1,1,0,0,0-1.1.9l-.4,2.9a1,1,0,0,0,.9,1.2,1,1,0,0,0,1.1-.9l.4-2.9A1,1,0,0,0,22.3,29Z"/>
      </g>
    </g>
  </g>
</svg>
