<svg xmlns="http://www.w3.org/2000/svg" width="48" height="48" viewBox="0 0 48 48">
  <g id="Layer_2" data-name="Layer 2">
    <g id="invisible_box" data-name="invisible box">
      <rect width="48" height="48" fill="none"/>
    </g>
    <g id="Icons">
      <path d="M35,2H13A11.1,11.1,0,0,0,2,13V35A11.1,11.1,0,0,0,13,46H35A11.1,11.1,0,0,0,46,35V13A11.1,11.1,0,0,0,35,2Zm2.2,29.2a3,3,0,0,1-.8.7l-2.6.6-.3.2a5.6,5.6,0,0,0-.1.7v.2a.6.6,0,0,1-.1.4c-.1.2-.2.3-.4.3H29.7a5,5,0,0,0-2.1,1A5.6,5.6,0,0,1,24,36.6h-.3a5.6,5.6,0,0,1-3.6-1.4,5.8,5.8,0,0,0-2.1-1H14.9a.5.5,0,0,1-.5-.3,1.4,1.4,0,0,1-.2-.6h0a1.6,1.6,0,0,0-.3-.6.2.2,0,0,0-.2-.2,9.4,9.4,0,0,1-2.6-.7,1.8,1.8,0,0,1-.8-.6h0l.3-.3a5.8,5.8,0,0,0,2.5-.9,6.4,6.4,0,0,0,1.7-1.6A6.2,6.2,0,0,0,16.2,26h0a1.4,1.4,0,0,0,.2-1.2c-.3-.7-1.1-.9-1.7-1.1h-.1l-.3-.2a1.9,1.9,0,0,1-.9-.5.7.7,0,0,1-.3-.6.7.7,0,0,1,.4-.5c.3-.2.8-.3,1-.1s1.5.5,2,.2.2-.2.2-.3-.1-.5-.1-.7h0c-.1-1.8-.2-4.1.3-5.4a8.1,8.1,0,0,1,1.7-2.3,5.2,5.2,0,0,1,1.9-1.2,6.9,6.9,0,0,1,3-.7H24a7.2,7.2,0,0,1,3,.7,6.2,6.2,0,0,1,1.9,1.2,6.3,6.3,0,0,1,1.6,2.3c.6,1.3.4,3.6.3,5.4h0v.4h0a.5.5,0,0,0,.2.4h.6l1.2-.4h.9a.8.8,0,0,1,.7.7c0,.1,0,.2-.2.5l-1,.5h-.4a2.5,2.5,0,0,0-1.7,1,1.6,1.6,0,0,0,.2,1.3h0c.3.7,2.1,4.1,5.7,4.7a.5.5,0,0,1,.2.4Z"/>
    </g>
  </g>
</svg>
