<svg xmlns="http://www.w3.org/2000/svg" width="48" height="48" viewBox="0 0 48 48">
  <title>snowflake-solid</title>
  <g id="Layer_2" data-name="Layer 2">
    <g id="invisible_box" data-name="invisible box">
      <rect width="48" height="48" fill="none"/>
    </g>
    <g id="Q3_icons" data-name="Q3 icons">
      <path d="M43.5,26.5a1.9,1.9,0,0,0-2.4-1.1l-7.3,2L28,24l5.8-3.3,7.3,1.9a2,2,0,1,0,1.1-3.8l-3.5-1,3.6-2.1a2,2,0,0,0,.8-2.7,2,2,0,0,0-2.8-.7l-3.6,2.1.9-3.6a1.9,1.9,0,0,0-1.7-2.5,2,2,0,0,0-2.1,1.6l-2,7.3L26,20.5V13.8l5.4-5.3a2.1,2.1,0,0,0,.2-2.7,1.9,1.9,0,0,0-3-.2L26,8.2V4a2,2,0,0,0-4,0V8.2L19.4,5.6a1.9,1.9,0,0,0-3,.2,2.1,2.1,0,0,0,.2,2.7L22,13.8v6.7l-5.8-3.3-2-7.3a2,2,0,0,0-2.1-1.6,1.9,1.9,0,0,0-1.7,2.5l.9,3.6L7.7,12.3a2,2,0,0,0-2.8.7,2,2,0,0,0,.8,2.7l3.6,2.1-3.5,1a1.9,1.9,0,0,0-1.3,2.7,1.9,1.9,0,0,0,2.4,1.1l7.3-2L20,24l-5.8,3.3L6.9,25.4a1.9,1.9,0,0,0-2.4,1.1,1.9,1.9,0,0,0,1.3,2.7l3.5,1L5.7,32.3A2,2,0,0,0,4.9,35a2,2,0,0,0,2.8.7l3.6-2.1-.9,3.6a1.9,1.9,0,0,0,1.7,2.5,2,2,0,0,0,2.1-1.6l2-7.3L22,27.5v6.7l-5.4,5.3a2.1,2.1,0,0,0-.2,2.7,1.9,1.9,0,0,0,3,.2L22,39.8V44a2,2,0,0,0,4,0V39.8l2.6,2.6a1.9,1.9,0,0,0,3-.2,2.1,2.1,0,0,0-.2-2.7L26,34.2V27.5l5.8,3.3,2,7.3a2,2,0,0,0,2.1,1.6,1.9,1.9,0,0,0,1.7-2.5l-.9-3.6,3.6,2.1a2,2,0,0,0,2.8-.7,2,2,0,0,0-.8-2.7l-3.6-2.1,3.5-1A1.9,1.9,0,0,0,43.5,26.5Z"/>
    </g>
  </g>
</svg>
