<svg xmlns="http://www.w3.org/2000/svg" width="48" height="48" viewBox="0 0 48 48">
  <g id="Layer_2" data-name="Layer 2">
    <g id="invisible_box" data-name="invisible box">
      <rect width="48" height="48" fill="none"/>
    </g>
    <g id="Medical">
      <g>
        <path d="M35,20h-.8a6,6,0,0,0-10.4,0H13A10,10,0,0,0,3,30v6A10,10,0,0,0,13,46H35A10,10,0,0,0,45,36V30A10,10,0,0,0,35,20Zm-6,1a2,2,0,1,1-2,2A2,2,0,0,1,29,21ZM41,36a6,6,0,0,1-6,6H13a6,6,0,0,1-6-6V30a6,6,0,0,1,6-6H23.1a6,6,0,0,0,11.8,0H35a6,6,0,0,1,6,6Z"/>
        <path d="M17,18a8,8,0,1,0-8-8A8,8,0,0,0,17,18ZM17,6a4,4,0,1,1-4,4A4,4,0,0,1,17,6Z"/>
        <circle cx="33" cy="10" r="4"/>
      </g>
    </g>
  </g>
</svg>
