<svg xmlns="http://www.w3.org/2000/svg" width="48" height="48" viewBox="0 0 48 48">
  <g id="Layer_2" data-name="Layer 2">
    <g id="Icons">
      <g>
        <rect width="48" height="48" fill="none"/>
        <path d="M26,4V44a2,2,0,0,1-4,0V4a2,2,0,0,1,4,0Zm-8,7a2,2,0,0,0,0-4H8a4,4,0,0,0-4,4V37a4,4,0,0,0,4,4H18a2,2,0,0,0,0-4H8V11ZM42,37a2,2,0,1,0,2,2A2,2,0,0,0,42,37Zm0-6a2,2,0,1,0,2,2A2,2,0,0,0,42,31Zm0-6a2,2,0,1,0,2,2A2,2,0,0,0,42,25Zm0-6a2,2,0,1,0,2,2A2,2,0,0,0,42,19Zm0-6a2,2,0,1,0,2,2A2,2,0,0,0,42,13ZM36,7a2,2,0,1,0,2,2A2,2,0,0,0,36,7ZM30,7a2,2,0,1,0,2,2A2,2,0,0,0,30,7Zm12,4a2,2,0,1,0-2-2A2,2,0,0,0,42,11ZM36,37a2,2,0,1,0,2,2A2,2,0,0,0,36,37Zm-6,0a2,2,0,1,0,2,2A2,2,0,0,0,30,37Z"/>
      </g>
    </g>
  </g>
</svg>
