<svg xmlns="http://www.w3.org/2000/svg" width="48" height="48" viewBox="0 0 48 48">
  <g id="Layer_2" data-name="Layer 2">
    <g id="Icons">
      <g>
        <rect width="48" height="48" fill="none"/>
        <g>
          <path d="M24,2a2,2,0,0,0-2,2V44a2,2,0,0,0,4,0V4A2,2,0,0,0,24,2Z"/>
          <path d="M18,11a2,2,0,0,0,0-4H8a4,4,0,0,0-4,4V37a4,4,0,0,0,4,4H18a2,2,0,0,0,0-4H8V11Z"/>
          <circle cx="42" cy="39" r="2"/>
          <circle cx="42" cy="33" r="2"/>
          <circle cx="42" cy="27" r="2"/>
          <circle cx="42" cy="21" r="2"/>
          <circle cx="42" cy="15" r="2"/>
          <circle cx="36" cy="9" r="2"/>
          <circle cx="30" cy="9" r="2"/>
          <circle cx="42" cy="9" r="2"/>
          <circle cx="36" cy="39" r="2"/>
          <circle cx="30" cy="39" r="2"/>
        </g>
      </g>
    </g>
  </g>
</svg>
