<svg xmlns="http://www.w3.org/2000/svg" width="48" height="48" viewBox="0 0 48 48">
  <title>split</title>
  <g id="Layer_2" data-name="Layer 2">
    <g id="invisible_box" data-name="invisible box">
      <rect width="48" height="48" fill="none"/>
    </g>
    <g id="icons_Q2" data-name="icons Q2">
      <path d="M44,17V6a2,2,0,0,0-2-2H31a2,2,0,0,0-2,2h0a2,2,0,0,0,2,2h6.2l-14,14H6a2,2,0,0,0-2,2H4a2,2,0,0,0,2,2H23.2l14,14H31a2,2,0,0,0-2,2h0a2,2,0,0,0,2,2H42a2,2,0,0,0,2-2V31a2,2,0,0,0-2-2h0a2,2,0,0,0-2,2v6.2L26.8,24,40,10.8V17a2,2,0,0,0,2,2h0A2,2,0,0,0,44,17Z"/>
    </g>
  </g>
</svg>
