<svg xmlns="http://www.w3.org/2000/svg" width="48" height="48" viewBox="0 0 48 48">
  <title>sports-volleyball</title>
  <g id="Layer_2" data-name="Layer 2">
    <g id="invisible_box" data-name="invisible box">
      <rect width="48" height="48" fill="none"/>
    </g>
    <g id="Q3_icons" data-name="Q3 icons">
      <path d="M35,4.9A22.2,22.2,0,0,0,4.9,13,22.2,22.2,0,0,0,13,43.1,22.2,22.2,0,0,0,43.1,35,22.2,22.2,0,0,0,35,4.9Zm3.1,7.9c-.7,7.6-5.8,15.7-10,18.3a14.6,14.6,0,0,1-2.6-6.3c4.4-3.1,7.4-9.8,7.8-16.2A19.6,19.6,0,0,1,38.1,12.8ZM15.8,24a14.2,14.2,0,0,1,6.7.9c.5,5.4,4.9,11.3,10.2,14.9a18.5,18.5,0,0,1-6,2C20.4,37.4,16,28.9,15.8,24ZM7.3,17.4c6.9-3.2,16.5-2.8,20.8-.5a14.5,14.5,0,0,1-4.2,5.4C19.1,20,11.7,20.8,6,23.6A19.1,19.1,0,0,1,7.3,17.4ZM24,6a17.7,17.7,0,0,1,6.4,1.2,21.3,21.3,0,0,1-1.2,6.9c-4.7-2.4-12.8-2.8-19.7-.7A18,18,0,0,1,24,6ZM6.2,26.9a25,25,0,0,1,6.6-2.5c.3,5.3,4,12.5,9.3,17.5A19.7,19.7,0,0,1,15,39.6,18.2,18.2,0,0,1,6.2,26.9ZM39.6,33a18.2,18.2,0,0,1-4.2,4.9A20.5,20.5,0,0,1,30,33.5c4.4-2.9,8.8-9.7,10.5-16.7A17.9,17.9,0,0,1,39.6,33Z"/>
    </g>
  </g>
</svg>
