<svg xmlns="http://www.w3.org/2000/svg" width="48" height="48" viewBox="0 0 48 48">
  <title>sports-volleyball-solid</title>
  <g id="Layer_2" data-name="Layer 2">
    <g id="invisible_box" data-name="invisible box">
      <rect width="48" height="48" fill="none"/>
    </g>
    <g id="Q3_icons" data-name="Q3 icons">
      <g>
        <path d="M23.9,22.3a14.5,14.5,0,0,0,4.2-5.4c-5.6-3-19.9-2.8-25.9,4.2a20.9,20.9,0,0,0-.1,5C7.8,21.4,17.8,19.4,23.9,22.3Z"/>
        <path d="M29.2,14.1c1.3-3.9,1.6-8.1.6-11.3A21.9,21.9,0,0,0,5,13a17.7,17.7,0,0,0-1.5,3.1C11.1,11.2,23,11,29.2,14.1Z"/>
        <path d="M12.8,24.4c-4,.9-7.8,2.7-10.1,5.2A22.3,22.3,0,0,0,13,43.1a21.6,21.6,0,0,0,14.4,2.6C19.3,41.6,13.2,31.3,12.8,24.4Z"/>
        <path d="M22.5,24.9a14.2,14.2,0,0,0-6.7-.9c.2,6.3,7.5,18.6,16.6,20.3a21.1,21.1,0,0,0,4.4-2.4C29.8,39.3,23.1,31.6,22.5,24.9Z"/>
        <path d="M25.5,24.8a14.6,14.6,0,0,0,2.6,6.3c5.4-3.3,12.3-15.8,9.3-24.5A14.6,14.6,0,0,0,35,4.9L33.1,4C34.3,11.3,31,21,25.5,24.8Z"/>
        <path d="M41.1,10.2c.5,9-5.3,19.5-11.1,23.3,2.7,3,6.2,5.4,9.5,6.1A17.5,17.5,0,0,0,43,35,21.8,21.8,0,0,0,41.1,10.2Z"/>
      </g>
    </g>
  </g>
</svg>
