<svg xmlns="http://www.w3.org/2000/svg" width="48" height="48" viewBox="0 0 48 48">
  <title>sports-cricket-solid</title>
  <g id="Layer_2" data-name="Layer 2">
    <g id="invisible_box" data-name="invisible box">
      <rect width="48" height="48" fill="none"/>
    </g>
    <g id="icons_Q2" data-name="icons Q2">
      <g>
        <path d="M24,5A19,19,0,0,0,9.5,36.3L36.3,9.5A19,19,0,0,0,24,5ZM15.1,29a1.5,1.5,0,0,1-1.1.4,1.4,1.4,0,0,1-1-.4,1.5,1.5,0,1,1,2.1,0Zm4.6-4.6a1.2,1.2,0,0,1-1,.4,1.5,1.5,0,0,1-1.1-.4,1.5,1.5,0,1,1,2.1,0Zm4.7-4.7a1.5,1.5,0,0,1-2.2,0,1.7,1.7,0,0,1,0-2.1,1.6,1.6,0,0,1,2.2,0A1.4,1.4,0,0,1,24.4,19.7ZM28,15.6a1.6,1.6,0,0,1-1.1-.5,1.5,1.5,0,1,1,2.1,0A1.6,1.6,0,0,1,28,15.6Z"/>
        <path d="M38.4,11.7,11.7,38.4A18.5,18.5,0,0,0,24,43,19,19,0,0,0,43,24,18.5,18.5,0,0,0,38.4,11.7ZM21.1,35a1.5,1.5,0,0,1-1.1.4,1.4,1.4,0,0,1-1-.4,1.5,1.5,0,1,1,2.1,0Zm4.6-4.6a1.2,1.2,0,0,1-1,.4,1.5,1.5,0,0,1-1.1-.4,1.5,1.5,0,1,1,2.1,0Zm4.7-4.7a1.5,1.5,0,0,1-2.2,0,1.7,1.7,0,0,1,0-2.1,1.6,1.6,0,0,1,2.2,0A1.4,1.4,0,0,1,30.4,25.7ZM35,21.1a1.4,1.4,0,0,1-2.1,0,1.5,1.5,0,1,1,2.1,0Z"/>
      </g>
    </g>
  </g>
</svg>
