<svg xmlns="http://www.w3.org/2000/svg" width="48" height="48" viewBox="0 0 48 48">
  <title>sports-soccer-solid</title>
  <g id="Layer_2" data-name="Layer 2">
    <g id="invisible_box" data-name="invisible box">
      <rect width="48" height="48" fill="none"/>
    </g>
    <g id="Q3_icons" data-name="Q3 icons">
      <path d="M24,2A22,22,0,1,0,46,24,21.9,21.9,0,0,0,24,2ZM18.6,6.9,20,6.4A18.1,18.1,0,0,1,24,6a19.1,19.1,0,0,1,5.4.8l1.1,3.3L24,14.7l-6.5-4.6ZM6,23.8A17.6,17.6,0,0,1,9.4,13.6h3.4l2.3,7.6L8.8,25.9ZM18.3,41.1a18.2,18.2,0,0,1-8.8-6.4l1.1-3.3h7.9l2.6,7.6ZM20,29l-2.5-7.4L24,17l6.5,4.6L28,29Zm9.7,12.1-2.8-2,2.6-7.6h7.9l1.1,3.3A18.4,18.4,0,0,1,29.7,41.1Zm9.5-15.2-6.3-4.8,2.3-7.6h3.5A18.7,18.7,0,0,1,41.6,20a25.8,25.8,0,0,1,.4,3.8Z"/>
    </g>
  </g>
</svg>
