<svg xmlns="http://www.w3.org/2000/svg" width="48" height="48" viewBox="0 0 48 48">
  <title>sports-tennis-solid</title>
  <g id="Layer_2" data-name="Layer 2">
    <g id="invisible_box" data-name="invisible box">
      <rect width="48" height="48" fill="none"/>
    </g>
    <g id="Q3_icons" data-name="Q3 icons">
      <path d="M6,26H5.1A19,19,0,0,0,22,42.9V42A16,16,0,0,0,6,26Zm35.6-3.5H43A19,19,0,0,0,25.6,5a7.1,7.1,0,0,0-.1,1.4A16.1,16.1,0,0,0,41.6,22.5Zm0,3A19,19,0,0,1,22.5,6.4,7.1,7.1,0,0,1,22.6,5,19.1,19.1,0,0,0,5,23H6A19,19,0,0,1,25,42v1A19.1,19.1,0,0,0,43,25.4Z"/>
    </g>
  </g>
</svg>
