<svg xmlns="http://www.w3.org/2000/svg" width="48" height="48" viewBox="0 0 48 48">
  <title>sports-mma</title>
  <g id="Layer_2" data-name="Layer 2">
    <g id="invisible_box" data-name="invisible box">
      <rect width="48" height="48" fill="none"/>
    </g>
    <g id="Q3_icons" data-name="Q3 icons">
      <path d="M31,3V22a.9.9,0,0,1-1,1H18a.9.9,0,0,1-1-1V3a.9.9,0,0,1,1-1H30A.9.9,0,0,1,31,3ZM17,45a.9.9,0,0,0,1,1H30a.9.9,0,0,0,1-1V30H17ZM2,35a.9.9,0,0,0,.4.8l11,8.5a1,1,0,0,0,1.6-.8V29.6L2,19.4ZM13.4,3.7l-11,8.5A.9.9,0,0,0,2,13v3.4L13.3,25l1.4-1.2a1.1,1.1,0,0,0,.3-.7V4.5A1,1,0,0,0,13.4,3.7Zm32.2,8.5-11-8.5a1,1,0,0,0-1.6.8V23.1a1.1,1.1,0,0,0,.3.7L34.7,25,46,16.5V13A.9.9,0,0,0,45.6,12.2ZM33,43.5a1,1,0,0,0,1.6.8l11-8.5A.9.9,0,0,0,46,35V19.5L33,29.6Z"/>
    </g>
  </g>
</svg>
