<svg xmlns="http://www.w3.org/2000/svg" width="48" height="48" viewBox="0 0 48 48">
  <title>sports-mma</title>
  <g id="Layer_2" data-name="Layer 2">
    <g id="invisible_box" data-name="invisible box">
      <rect width="48" height="48" fill="none"/>
    </g>
    <g id="Q3_icons" data-name="Q3 icons">
      <path d="M32.1,2H15.9L2,12.5v23L15.9,46H32.1L46,35.5v-23ZM18,6H30V18H18ZM6,22.5,8,24,6,25.5ZM14,29V39.6L6,33.5v-3l5.3-4L14,28.6Zm-2.7-7.5L6,17.5v-3l8-6.1v11ZM30,42H18V30H30Zm.8-16H17.2l-2.6-2,2.6-2H30.8l2.6,2ZM42,33.5l-8,6.1v-11l2.7-2.1,5.3,4Zm0-8L40,24l2-1.5ZM42,15v2.5l-5.3,4L34,19.4V8.4l8,6.1Z"/>
    </g>
  </g>
</svg>
