<svg xmlns="http://www.w3.org/2000/svg" width="48" height="48" viewBox="0 0 48 48">
  <title>sports-baseball</title>
  <g id="Layer_2" data-name="Layer 2">
    <g id="invisible_box" data-name="invisible box">
      <rect width="48" height="48" fill="none"/>
    </g>
    <g id="Q3_icons" data-name="Q3 icons">
      <path d="M24,5A19,19,0,1,0,43,24,19,19,0,0,0,24,5ZM9,24a14.8,14.8,0,0,1,3-9l.8,1.1.3.5-.5.2a1.6,1.6,0,0,0-.9,1.9,1.6,1.6,0,0,0,1.5,1h.5l.6-.2a15.5,15.5,0,0,1,.6,3.1H14a1.5,1.5,0,0,0,0,3h.9a15.5,15.5,0,0,1-.6,3.1l-.6-.2a1.6,1.6,0,0,0-2,.9,1.6,1.6,0,0,0,.9,1.9l.5.2-.4.6a8.6,8.6,0,0,0-.7,1A14.8,14.8,0,0,1,9,24Zm5.1,11.2.4-.6a10.2,10.2,0,0,0,1.4-2.2l1.4.5h.6a1.5,1.5,0,0,0,.5-2.9l-1.3-.5a18.6,18.6,0,0,0,.8-4.1H19a1.5,1.5,0,0,0,0-3H17.9a18.6,18.6,0,0,0-.8-4.1l1.3-.5a1.6,1.6,0,0,0,.9-1.9,1.6,1.6,0,0,0-2-.9l-1.4.5-1.1-1.9-.7-.9A14.5,14.5,0,0,1,24,9a14.9,14.9,0,0,1,9.8,3.7l-.8,1-1.2,1.9-1.4-.5a1.5,1.5,0,0,0-1,2.8l1.3.5a14.3,14.3,0,0,0-.9,4.1h-1a1.5,1.5,0,1,0,0,3h1a14.3,14.3,0,0,0,.9,4.1l-1.3.5a1.4,1.4,0,0,0-.9,1.9,1.5,1.5,0,0,0,1.4,1h.5l1.4-.5a16.4,16.4,0,0,0,1.4,2.2l.6.7A14.9,14.9,0,0,1,24,39,14.5,14.5,0,0,1,14.1,35.2Zm21.8-2.1a4.4,4.4,0,0,1-.8-1.1,2.1,2.1,0,0,1-.4-.6l.4-.2a1.5,1.5,0,1,0-1-2.8l-.6.2a28.2,28.2,0,0,1-.7-3.1h1a1.5,1.5,0,0,0,0-3h-1a28.2,28.2,0,0,1,.7-3.1l.6.2h.5a1.5,1.5,0,0,0,1.4-1,1.4,1.4,0,0,0-.9-1.9l-.4-.2.3-.5.9-1.2a14.9,14.9,0,0,1,0,18.2Z"/>
    </g>
  </g>
</svg>
