<svg xmlns="http://www.w3.org/2000/svg" width="48" height="48" viewBox="0 0 48 48">
  <title>sports-boxing-solid</title>
  <g id="Layer_2" data-name="Layer 2">
    <g id="invisible_box" data-name="invisible box">
      <rect width="48" height="48" fill="none"/>
    </g>
    <g id="Q3_icons" data-name="Q3 icons">
      <path d="M36,2H22.7a6,6,0,0,0-6,6V22a1.8,1.8,0,0,1-1.8,1.8h0A1.8,1.8,0,0,1,13.1,22V10.6H12a6,6,0,0,0-6,6V27a7.9,7.9,0,0,0,7,7.9V43a3,3,0,0,0,3,3H32a3,3,0,0,0,3-3V34.9A7.9,7.9,0,0,0,42,27V8A6,6,0,0,0,36,2ZM27,40H21a1.5,1.5,0,0,1,0-3h6a1.5,1.5,0,0,1,0,3Z"/>
    </g>
  </g>
</svg>
