<svg xmlns="http://www.w3.org/2000/svg" width="48" height="48" viewBox="0 0 48 48">
  <title>sports-hockey-solid</title>
  <g id="Layer_2" data-name="Layer 2">
    <g id="invisible_box" data-name="invisible box">
      <rect width="48" height="48" fill="none"/>
    </g>
    <g id="Q3_icons" data-name="Q3 icons">
      <path d="M45.3,36.1A3,3,0,0,0,43,35H29.1l-2.8-5L39.7,6.1a2.3,2.3,0,0,0-.4-2.7,2.1,2.1,0,0,0-3,.6L24,25.9,11.7,4a2.1,2.1,0,0,0-3-.6,2.3,2.3,0,0,0-.4,2.7L21.7,30l-2.8,5H5a3,3,0,0,0-2.3,1.1A2.9,2.9,0,0,0,2,38.5l.7,4a3,3,0,0,0,3,2.5h9.8A4,4,0,0,0,19,43l5-8.9L29,43a4,4,0,0,0,3.5,2h9.8a3,3,0,0,0,3-2.5l.7-4A2.9,2.9,0,0,0,45.3,36.1Z"/>
    </g>
  </g>
</svg>
