<svg xmlns="http://www.w3.org/2000/svg" width="48" height="48" viewBox="0 0 48 48">
  <title>sports-golf</title>
  <g id="Layer_2" data-name="Layer 2">
    <g id="invisible_box" data-name="invisible box">
      <rect width="48" height="48" fill="none"/>
    </g>
    <g id="Q3_icons" data-name="Q3 icons">
      <g>
        <path d="M39,18A15,15,0,0,0,9,18a15.1,15.1,0,0,0,7,12.7V31a8,8,0,0,0,6,7.7V43a2,2,0,0,0,4,0V38.7A8,8,0,0,0,32,31v-.3A15.1,15.1,0,0,0,39,18ZM13,18A11,11,0,1,1,24,29,11,11,0,0,1,13,18ZM24,35a3.9,3.9,0,0,1-3.7-2.5A15,15,0,0,0,24,33a15,15,0,0,0,3.7-.5A3.9,3.9,0,0,1,24,35Z"/>
        <circle cx="31.5" cy="18" r="1.5"/>
        <path d="M29.7,23a1.5,1.5,0,0,0,2.1-.5,1.4,1.4,0,0,0-.6-2,1.4,1.4,0,0,0-2,.5A1.5,1.5,0,0,0,29.7,23Z"/>
        <path d="M28.5,25.8A1.5,1.5,0,0,0,27,23.2a1.4,1.4,0,0,0-.5,2A1.4,1.4,0,0,0,28.5,25.8Z"/>
        <circle cx="24" cy="25.5" r="1.5"/>
      </g>
    </g>
  </g>
</svg>
