<svg xmlns="http://www.w3.org/2000/svg" width="48" height="48" viewBox="0 0 48 48">
  <title>sports-cricket</title>
  <g id="Layer_2" data-name="Layer 2">
    <g id="invisible_box" data-name="invisible box">
      <rect width="48" height="48" fill="none"/>
    </g>
    <g id="Layer_6" data-name="Layer 6">
      <g>
        <path d="M24,5A19,19,0,1,0,43,24,19,19,0,0,0,24,5Zm0,4a15.1,15.1,0,0,1,9.5,3.4L12.4,33.5A15,15,0,0,1,24,9Zm0,30a15.1,15.1,0,0,1-9.5-3.4L35.6,14.5A15,15,0,0,1,24,39Z"/>
        <path d="M18.7,24.8a1.2,1.2,0,0,0,1-.4,1.5,1.5,0,1,0-2.1,0A1.5,1.5,0,0,0,18.7,24.8Z"/>
        <path d="M13,29a1.4,1.4,0,0,0,1,.4,1.5,1.5,0,0,0,1.1-.4A1.5,1.5,0,1,0,13,29Z"/>
        <path d="M23.3,20.2a1.6,1.6,0,0,0,1.1-.5,1.4,1.4,0,0,0,0-2.1,1.6,1.6,0,0,0-2.2,0,1.7,1.7,0,0,0,0,2.1A1.6,1.6,0,0,0,23.3,20.2Z"/>
        <path d="M28,15.5a1.4,1.4,0,0,0,1-.4,1.5,1.5,0,1,0-2.1,0A1.5,1.5,0,0,0,28,15.5Z"/>
        <path d="M19,32.9A1.5,1.5,0,0,0,19,35a1.4,1.4,0,0,0,1,.4,1.5,1.5,0,0,0,1.1-.4A1.5,1.5,0,0,0,19,32.9Z"/>
        <path d="M35,19a1.5,1.5,0,0,0-2.1,2.1,1.5,1.5,0,0,0,1.1.4,1.4,1.4,0,0,0,1-.4A1.4,1.4,0,0,0,35,19Z"/>
        <path d="M28.2,23.6a1.7,1.7,0,0,0,0,2.1,1.5,1.5,0,0,0,2.2,0,1.4,1.4,0,0,0,0-2.1A1.6,1.6,0,0,0,28.2,23.6Z"/>
        <path d="M23.6,28.3a1.4,1.4,0,0,0,0,2.1,1.5,1.5,0,0,0,1.1.4,1.2,1.2,0,0,0,1-.4,1.5,1.5,0,0,0-2.1-2.1Z"/>
      </g>
    </g>
  </g>
</svg>
