<svg xmlns="http://www.w3.org/2000/svg" width="48" height="48" viewBox="0 0 48 48">
  <title>sports-soccer</title>
  <g id="Layer_2" data-name="Layer 2">
    <g id="invisible_box" data-name="invisible box">
      <rect width="48" height="48" fill="none"/>
    </g>
    <g id="Q3_icons" data-name="Q3 icons">
      <g>
        <polygon points="17.5 21.6 20 29 28 29 30.5 21.6 24 17 17.5 21.6"/>
        <path d="M45.5,19.1A22.1,22.1,0,0,0,24,2a21.2,21.2,0,0,0-4.9.6A22,22,0,0,0,24,46a28.1,28.1,0,0,0,4.9-.5A22.1,22.1,0,0,0,45.5,19.1Zm-7,15.6-1.1-3.3H29.5l-2.6,7.6,2.8,2-1.7.5a18.1,18.1,0,0,1-4,.4,17.9,17.9,0,0,1-5.7-.9l2.8-2-2.6-7.6H10.6L9.5,34.7a17,17,0,0,1-3-6.7A14.8,14.8,0,0,1,6,23.9l2.8,2,6.3-4.8-2.3-7.6H9.4a18.3,18.3,0,0,1,9.2-6.6l-1.1,3.2L24,14.7l6.5-4.6L29.4,6.8a18.6,18.6,0,0,1,9.3,6.7H35.2l-2.3,7.6,6.3,4.8L42,23.8A18.9,18.9,0,0,1,38.5,34.7Z"/>
      </g>
    </g>
  </g>
</svg>
