<svg xmlns="http://www.w3.org/2000/svg" width="48" height="48" viewBox="0 0 48 48">
  <title>sports-basketball-solid</title>
  <g id="Layer_2" data-name="Layer 2">
    <g id="invisible_box" data-name="invisible box">
      <rect width="48" height="48" fill="none"/>
    </g>
    <g id="Q3_icons" data-name="Q3 icons">
      <g>
        <path d="M3.9,15.1A21.4,21.4,0,0,0,2.4,27.9l10.9-2.5A16.1,16.1,0,0,0,3.9,15.1Z"/>
        <path d="M13.9,28.3,3.1,30.8a22.4,22.4,0,0,0,6.7,10A16,16,0,0,0,14,30,9.7,9.7,0,0,0,13.9,28.3Z"/>
        <path d="M16.2,24.7l6.1-1.3L17.7,2.9A21.8,21.8,0,0,0,5.3,12.4,18.8,18.8,0,0,1,16.2,24.7Z"/>
        <path d="M16.8,27.7A8.6,8.6,0,0,1,17,30a19,19,0,0,1-4.8,12.6,21.7,21.7,0,0,0,15.2,3.1L23,26.3Z"/>
        <path d="M31.3,21.3A18.4,18.4,0,0,1,31,18,19,19,0,0,1,35.8,5.4,21.7,21.7,0,0,0,20.6,2.3l4.6,20.4Z"/>
        <path d="M34.2,20.6l11-2.4a21.6,21.6,0,0,0-7-11A16,16,0,0,0,34,18,21.1,21.1,0,0,0,34.2,20.6Z"/>
        <path d="M32,24.2l-6.1,1.4,4.4,19.5a21.8,21.8,0,0,0,12.4-9.5A19.4,19.4,0,0,1,32,24.2Z"/>
        <path d="M45.8,21.1,35,23.6a16.3,16.3,0,0,0,9.1,9.3A21.5,21.5,0,0,0,45.8,21.1Z"/>
      </g>
    </g>
  </g>
</svg>
