<svg xmlns="http://www.w3.org/2000/svg" width="48" height="48" viewBox="0 0 48 48">
  <title>sports-football-solid</title>
  <g id="Layer_2" data-name="Layer 2">
    <g id="invisible_box" data-name="invisible box">
      <rect width="48" height="48" fill="none"/>
    </g>
    <g id="Q3_icons" data-name="Q3 icons">
      <path d="M44,5.5A2.3,2.3,0,0,0,42.5,4C38,3,22.3.4,11.3,11.3S3,38.1,4,42.5A2.3,2.3,0,0,0,5.5,44c4.5,1,20.2,3.6,31.2-7.4S45,9.9,44,5.5ZM31.8,21.2a1.5,1.5,0,0,1,0,2.1,1.5,1.5,0,0,1-1.1.4,1.3,1.3,0,0,1-1-.4l-1.5-1.4L26.1,24l1.4,1.4a1.4,1.4,0,0,1,0,2.1,1.4,1.4,0,0,1-1,.5,1.6,1.6,0,0,1-1.1-.5L24,26.1l-2.1,2.1,1.4,1.5a1.4,1.4,0,0,1,0,2.1,1.5,1.5,0,0,1-1.1.4,1.3,1.3,0,0,1-1-.4l-1.4-1.4-1.5,1.4a1.3,1.3,0,0,1-1,.4,1.5,1.5,0,0,1-1.1-.4,1.4,1.4,0,0,1,0-2.1l1.4-1.5-1.4-1.4a1.5,1.5,0,0,1,2.1-2.1l1.5,1.4L21.9,24l-1.4-1.4a1.5,1.5,0,0,1,2.1-2.1L24,21.9l2.1-2.1-1.4-1.5a1.5,1.5,0,0,1,2.1-2.1l1.4,1.4,1.5-1.4a1.5,1.5,0,0,1,2.1,2.1l-1.4,1.5Z"/>
    </g>
  </g>
</svg>
