<svg xmlns="http://www.w3.org/2000/svg" width="48" height="48" viewBox="0 0 48 48">
  <title>sports-basketball</title>
  <g id="Layer_2" data-name="Layer 2">
    <g id="invisible_box" data-name="invisible box">
      <rect width="48" height="48" fill="none"/>
    </g>
    <g id="Q3_icons" data-name="Q3 icons">
      <path d="M45.5,19.1A22.1,22.1,0,0,0,24,2a28.1,28.1,0,0,0-4.9.5A22,22,0,0,0,24,46a21.2,21.2,0,0,0,4.9-.6A21.9,21.9,0,0,0,45.5,19.1ZM41.3,19l-7.1,1.6A21.1,21.1,0,0,1,34,18a15.8,15.8,0,0,1,1.9-7.5A18.1,18.1,0,0,1,41.3,19ZM24,6a18.1,18.1,0,0,1,9.5,2.7A18.2,18.2,0,0,0,31,18a18.4,18.4,0,0,0,.3,3.3l-6.1,1.4L21.5,6.2Zm-5.4.9,3.7,16.5-6.1,1.3A18.9,18.9,0,0,0,8.8,14.4,17.5,17.5,0,0,1,18.6,6.9ZM7.4,17.1a15.6,15.6,0,0,1,5.9,8.3L6.3,27A17.6,17.6,0,0,1,7.4,17.1ZM7,29.9l6.9-1.6A9.7,9.7,0,0,1,14,30a15.8,15.8,0,0,1-1.9,7.5A17.4,17.4,0,0,1,7,29.9Zm7.5,9.4A18.2,18.2,0,0,0,17,30a8.6,8.6,0,0,0-.2-2.3L23,26.3l3.5,15.5L24,42A18.1,18.1,0,0,1,14.5,39.3Zm14.9,1.8L25.9,25.6,32,24.2a19.3,19.3,0,0,0,7.2,9.4A17.5,17.5,0,0,1,29.4,41.1ZM40.6,30.9A15.9,15.9,0,0,1,35,23.5L41.9,22A18.1,18.1,0,0,1,40.6,30.9Z"/>
    </g>
  </g>
</svg>
