<svg xmlns="http://www.w3.org/2000/svg" width="48" height="48" viewBox="0 0 48 48">
  <title>sports-football</title>
  <g id="Layer_2" data-name="Layer 2">
    <g id="invisible_box" data-name="invisible box">
      <rect width="48" height="48" fill="none"/>
    </g>
    <g id="Q3_icons" data-name="Q3 icons">
      <g>
        <path d="M31.8,16.2a1.4,1.4,0,0,0-2.1,0l-1.5,1.4-1.4-1.4a1.5,1.5,0,0,0-2.1,2.1l1.4,1.5L24,21.9l-1.4-1.4a1.5,1.5,0,0,0-2.1,2.1L21.9,24l-2.1,2.1-1.5-1.4a1.5,1.5,0,0,0-2.1,2.1l1.4,1.4-1.4,1.5a1.4,1.4,0,0,0,0,2.1,1.5,1.5,0,0,0,1.1.4,1.2,1.2,0,0,0,1-.4l1.5-1.4,1.4,1.4a1.3,1.3,0,0,0,1,.4,1.5,1.5,0,0,0,1.1-.4,1.4,1.4,0,0,0,0-2.1l-1.4-1.5L24,26.1l1.4,1.4a1.6,1.6,0,0,0,1.1.5,1.4,1.4,0,0,0,1-.5,1.4,1.4,0,0,0,0-2.1L26.1,24l2.1-2.1,1.5,1.4a1.2,1.2,0,0,0,1,.4,1.5,1.5,0,0,0,1.1-.4,1.5,1.5,0,0,0,0-2.1l-1.4-1.4,1.4-1.5A1.4,1.4,0,0,0,31.8,16.2Z"/>
        <path d="M44,5.5A1.9,1.9,0,0,0,42.5,4a42,42,0,0,0-9.2-1c-6.6,0-15.2,1.6-22,8.3C.4,22.3,3,38.1,4,42.5A1.9,1.9,0,0,0,5.5,44a42,42,0,0,0,9.2,1c6.6,0,15.2-1.6,22-8.3C47.6,25.7,45,9.9,44,5.5ZM33.8,33.8C29.1,38.6,22.6,41,14.7,41a41.7,41.7,0,0,1-7.1-.6c-.9-5.2-2-17.6,6.6-26.2C18.9,9.4,25.4,7,33.3,7a41.7,41.7,0,0,1,7.1.6C41.3,12.8,42.4,25.2,33.8,33.8Z"/>
      </g>
    </g>
  </g>
</svg>
