<svg xmlns="http://www.w3.org/2000/svg" width="48" height="48" viewBox="0 0 48 48">
  <title>sports-baseball-solid</title>
  <g id="Layer_2" data-name="Layer 2">
    <g id="invisible_box" data-name="invisible box">
      <rect width="48" height="48" fill="none"/>
    </g>
    <g id="Q3_icons" data-name="Q3 icons">
      <g>
        <path d="M12.6,31.2a1.5,1.5,0,0,1-.8-1.9,1.4,1.4,0,0,1,1.9-.9l.6.2a15.5,15.5,0,0,0,.6-3.1H14a1.5,1.5,0,0,1,0-3h.9a15.5,15.5,0,0,0-.6-3.1l-.6.2h-.5a1.4,1.4,0,0,1-1.4-1,1.5,1.5,0,0,1,.8-1.9l.6-.2a17.4,17.4,0,0,0-3.8-4.7A18.9,18.9,0,0,0,5,24,19.1,19.1,0,0,0,9.4,36.1a17.4,17.4,0,0,0,3.8-4.7Z"/>
        <path d="M31.9,32.4l-1.5.5h-.5a1.5,1.5,0,0,1-1.4-1,1.4,1.4,0,0,1,.9-1.9l1.4-.5a18.5,18.5,0,0,1-.7-4.1H28.8a1.5,1.5,0,1,1,0-3h1.3a18.5,18.5,0,0,1,.7-4.1l-1.4-.5a1.5,1.5,0,0,1,1-2.8l1.5.5a18.8,18.8,0,0,1,4.6-5.9,19,19,0,0,0-25,0A17.5,17.5,0,0,1,16,15.6l1.3-.5a1.6,1.6,0,0,1,2,.9,1.5,1.5,0,0,1-.9,1.9l-1.3.5a14.2,14.2,0,0,1,.8,4.1H19a1.5,1.5,0,0,1,0,3H17.9a14.2,14.2,0,0,1-.8,4.1l1.3.5a1.5,1.5,0,0,1,.9,1.9,1.6,1.6,0,0,1-1.5,1h-.5L16,32.4a17.5,17.5,0,0,1-4.5,5.9,19,19,0,0,0,25,0A20.1,20.1,0,0,1,31.9,32.4Z"/>
        <path d="M38.6,11.9a13.7,13.7,0,0,0-3.8,4.8h.3a1.4,1.4,0,0,1,.9,1.9,1.5,1.5,0,0,1-1.4,1h-.9a13.3,13.3,0,0,0-.6,3h.7a1.5,1.5,0,0,1,0,3h-.7a13.3,13.3,0,0,0,.6,3h.4a1.5,1.5,0,1,1,1,2.8h-.3a13.7,13.7,0,0,0,3.8,4.8A19.1,19.1,0,0,0,43,24,18.9,18.9,0,0,0,38.6,11.9Z"/>
      </g>
    </g>
  </g>
</svg>
