<svg xmlns="http://www.w3.org/2000/svg" width="48" height="48" viewBox="0 0 48 48">
  <title>sports-tennis</title>
  <g id="Layer_2" data-name="Layer 2">
    <g id="invisible_box" data-name="invisible box">
      <rect width="48" height="48" fill="none"/>
    </g>
    <g id="Q3_icons" data-name="Q3 icons">
      <path d="M24,5A19,19,0,1,0,43,24,19,19,0,0,0,24,5ZM38.9,22A15.7,15.7,0,0,1,26,9.1,15.1,15.1,0,0,1,38.9,22ZM9.1,26A15.7,15.7,0,0,1,22,38.9,15.1,15.1,0,0,1,9.1,26Zm16,12.9a18.9,18.9,0,0,0-16-16A14.8,14.8,0,0,1,22.9,9.1a18.9,18.9,0,0,0,16,16A14.8,14.8,0,0,1,25.1,38.9Z"/>
    </g>
  </g>
</svg>
