<svg xmlns="http://www.w3.org/2000/svg" width="48" height="48" viewBox="0 0 48 48">
  <title>spring</title>
  <g id="Layer_2" data-name="Layer 2">
    <g id="invisible_box" data-name="invisible box">
      <rect width="48" height="48" fill="none"/>
    </g>
    <g id="icons_Q2" data-name="icons Q2">
      <g>
        <path d="M41,42h-.8a54.6,54.6,0,0,1-12.4,4H41a2,2,0,0,0,0-4Z"/>
        <path d="M7,13a117.3,117.3,0,0,0,17.5-1.4c6.2-1,12.7-2.8,17.6-5.9a2.1,2.1,0,0,0,.6-2.8A2,2,0,0,0,41,2a2.3,2.3,0,0,0-1.1.3C32.2,7.2,17.8,9,7,9a2,2,0,0,0-1.8,1.2A1.9,1.9,0,0,0,5,11,2,2,0,0,0,7,13Z"/>
        <path d="M7,24a118.2,118.2,0,0,0,17.5-1.4h0c6.2-1,12.7-2.8,17.5-5.9h.1a3.9,3.9,0,0,0,.8-1v-.2H43v-.5c0-.1,0-.2-.1-.2h0v-.2h0v-.2a2.7,2.7,0,0,0-1-.8H41l-2.2-.2L37,12.6l-5.6-.4a91.5,91.5,0,0,1-13.9,2.3.3.3,0,0,0,0,.5l10.1.9,3.1.2,2.6.2C25.5,19,15.2,20,7,20a2,2,0,0,0-1.8,1.2h0A1.9,1.9,0,0,0,5,22,2,2,0,0,0,7,24Z"/>
        <path d="M7,35a118.2,118.2,0,0,0,17.5-1.4h0c6.2-1,12.6-2.8,17.4-5.8h0c.1,0,.1,0,.1-.1h.1c.1,0,.2,0,.2-.1l.4-.4a.8.8,0,0,1,.2-.4H43v-.5c0-.1,0-.2-.1-.2h0v-.2h-.1c0-.1-.1-.1-.1-.2h-.2l-.2-.2h-.2l-.4-.2h-.3a.1.1,0,0,0-.1-.1H41l-2.2-.2L37,23.6h0l-5.6-.4a91.5,91.5,0,0,1-13.9,2.3.3.3,0,0,0,0,.5l10.1.9,3.1.2,2.6.2C25.5,30,15.2,31,7,31a2,2,0,0,0-1.8,1.2h0A1.9,1.9,0,0,0,5,33,2,2,0,0,0,7,35Z"/>
        <path d="M41.9,38.8h.2c.1,0,.2,0,.2-.1s.3-.3.4-.4h0c0-.1,0-.1.1-.2s0-.1.1-.2H43v-.5c0-.1,0-.2-.1-.2h0v-.2h-.1c0-.1-.1-.1-.1-.2h-.2l-.2-.2h-.2l-.4-.2h-.3a.1.1,0,0,0-.1-.1H41l-2.2-.2L37,34.6h0l-5.6-.4a91.5,91.5,0,0,1-13.9,2.3.3.3,0,0,0,0,.5l10.1.9,3.1.2,2.6.2C25.5,41,15.2,42,7,42a2,2,0,0,0,0,4c4.4,0,17.5-.3,28-4A36.4,36.4,0,0,0,41.9,38.8Z"/>
      </g>
    </g>
  </g>
</svg>
