<svg xmlns="http://www.w3.org/2000/svg" width="48" height="48" viewBox="0 0 48 48">
  <g id="Layer_2" data-name="Layer 2">
    <g id="invisible_box" data-name="invisible box">
      <rect width="48" height="48" fill="none"/>
    </g>
    <g id="Layer_4" data-name="Layer 4">
      <path d="M39,12a7,7,0,0,0-2,13.7V30a10,10,0,0,1-20,0v-.2A12.9,12.9,0,0,0,28,17V7a3,3,0,0,0-3-3H22a2,2,0,0,0,0,4h2v9A9,9,0,0,1,6,17V8H8A2,2,0,0,0,8,4H5A3,3,0,0,0,2,7V17A12.9,12.9,0,0,0,13,29.8V30a14,14,0,0,0,28,0V25.7A7,7,0,0,0,39,12Zm0,10a3,3,0,1,1,3-3A2.9,2.9,0,0,1,39,22Z"/>
    </g>
  </g>
</svg>
