<svg xmlns="http://www.w3.org/2000/svg" width="48" height="48" viewBox="0 0 48 48">
  <title>stop-urgent-solid</title>
  <g id="Layer_2" data-name="Layer 2">
    <g id="invisible_box" data-name="invisible box">
      <rect width="48" height="48" fill="none"/>
    </g>
    <g id="icons_Q2" data-name="icons Q2">
      <path d="M43.4,15.1,32.9,4.6A2,2,0,0,0,31.5,4h-15a2,2,0,0,0-1.4.6L4.6,15.1A2,2,0,0,0,4,16.5v15a2,2,0,0,0,.6,1.4L15.1,43.4a2,2,0,0,0,1.4.6h15a2,2,0,0,0,1.4-.6L43.4,32.9a2,2,0,0,0,.6-1.4v-15A2,2,0,0,0,43.4,15.1ZM24,34a2,2,0,1,1,2-2A2,2,0,0,1,24,34Zm2-8a2,2,0,0,1-4,0V16a2,2,0,0,1,4,0Z"/>
    </g>
  </g>
</svg>
