<svg xmlns="http://www.w3.org/2000/svg" width="48" height="48" viewBox="0 0 48 48">
  <g id="Layer_2" data-name="Layer 2">
    <g id="invisible_box" data-name="invisible box">
      <rect width="48" height="48" fill="none"/>
    </g>
    <g id="Health_Icons" data-name="Health Icons">
      <g>
        <path d="M45.8,16.4v-.3L40.8,5.2A2,2,0,0,0,39,4H11.5c-.4,0-.6.5-.3.9L14.3,8H37.7L42,17.6a2.1,2.1,0,0,1-.4,1.5,2.1,2.1,0,0,1-1.8.9h-1a2.1,2.1,0,0,1-2.2-2.1,2.1,2.1,0,0,0-1.7-2,2,2,0,0,0-2.3,2A2.1,2.1,0,0,1,30.4,20H28.2A2.1,2.1,0,0,1,26,17.9a2,2,0,0,0-2-2,2.1,2.1,0,0,0-1.3.5L30.3,24h.1a6.3,6.3,0,0,0,4.2-1.6A5.9,5.9,0,0,0,38,23.9v7.8l3.1,3.1c.4.3.9.1.9-.3V23.6a6.9,6.9,0,0,0,2.8-2A6,6,0,0,0,45.8,16.4Z"/>
        <path d="M5.4,4.6a1.9,1.9,0,0,0-2.8,0,1.9,1.9,0,0,0,0,2.8L5.1,9.9,2.3,16.1v.3a6,6,0,0,0,1,5.2,6.9,6.9,0,0,0,2.8,2V41a3,3,0,0,0,3,3H39.2l1.4,1.4a1.9,1.9,0,0,0,2.8,0,1.9,1.9,0,0,0,0-2.8Zm6.4,12.1a2.1,2.1,0,0,0-.4,1.2A2.1,2.1,0,0,1,9.2,20h-1a2.1,2.1,0,0,1-1.8-.9A2.1,2.1,0,0,1,6,17.6l2.1-4.7ZM10,40V23.9a5.9,5.9,0,0,0,3.4-1.5A6.3,6.3,0,0,0,17.6,24h1.6l3,3H13V37H24V28.8l4,4V40Z"/>
      </g>
    </g>
  </g>
</svg>
