<svg xmlns="http://www.w3.org/2000/svg" width="48" height="48" viewBox="0 0 48 48">
  <g id="Layer_2" data-name="Layer 2">
    <g id="invisible_box" data-name="invisible box">
      <rect width="48" height="48" fill="none"/>
    </g>
    <g id="Health_Icons" data-name="Health Icons">
      <g>
        <path d="M45.8,16.4v-.3L40.8,5.2A2,2,0,0,0,39,4H11.5a.5.5,0,0,0-.3.8L14.3,8H37.7L42,17.6a2.1,2.1,0,0,1-.4,1.5,2.1,2.1,0,0,1-1.8.9h-1a2.1,2.1,0,0,1-2.2-2.1,2.1,2.1,0,0,0-1.7-2,2,2,0,0,0-2.3,2A2.1,2.1,0,0,1,30.4,20H28.2A2.1,2.1,0,0,1,26,17.9a2,2,0,0,0-2-2,2.1,2.1,0,0,0-1.3.5L38,31.7l3.2,3.1a.5.5,0,0,0,.8-.3V23.6a6.9,6.9,0,0,0,2.8-2A6,6,0,0,0,45.8,16.4Z"/>
        <path d="M5.4,4.6a1.9,1.9,0,0,0-2.8,0,1.9,1.9,0,0,0,0,2.8L5.1,9.9,2.3,16.1v.3a6,6,0,0,0,1,5.2,6.9,6.9,0,0,0,2.8,2V41a3,3,0,0,0,3,3H27a1,1,0,0,0,1-1V33L39,44h.2l1.4,1.4a1.9,1.9,0,0,0,2.8,0,1.9,1.9,0,0,0,0-2.8Zm6,13.3A2.1,2.1,0,0,1,9.2,20h-1a2.1,2.1,0,0,1-1.8-.9A2.1,2.1,0,0,1,6,17.6l2.1-4.7,3.7,3.8A2.1,2.1,0,0,0,11.4,17.9ZM24,37H13s-.1-10,0-10h9l2,2Z"/>
      </g>
    </g>
  </g>
</svg>
