<svg xmlns="http://www.w3.org/2000/svg" width="48" height="48" viewBox="0 0 48 48">
  <g id="Layer_2" data-name="Layer 2">
    <g id="invisible_box" data-name="invisible box">
      <rect width="48" height="48" fill="none"/>
    </g>
    <g id="Health_Icons" data-name="Health Icons">
      <path d="M45.8,16.4v-.3L40.8,5.2A2,2,0,0,0,39,4H9A2,2,0,0,0,7.2,5.2L2.3,16.1v.3a6,6,0,0,0,1,5.2,6.9,6.9,0,0,0,2.8,2V41a3,3,0,0,0,3,3H27a.9.9,0,0,0,1-1V27h7V43a.9.9,0,0,0,1,1h3a3,3,0,0,0,3-3V23.6a6.9,6.9,0,0,0,2.8-2A6,6,0,0,0,45.8,16.4ZM24,37H13V27H24ZM41.6,19.1a2.1,2.1,0,0,1-1.8.9h-1a2.1,2.1,0,0,1-2.2-2.1,2,2,0,0,0-4,0A2.1,2.1,0,0,1,30.4,20H28.2A2.1,2.1,0,0,1,26,17.9a2,2,0,0,0-4,0A2.1,2.1,0,0,1,19.8,20H17.6a2.1,2.1,0,0,1-2.2-2.1,2,2,0,0,0-4,0A2.1,2.1,0,0,1,9.2,20h-1a2.1,2.1,0,0,1-1.8-.9A2.1,2.1,0,0,1,6,17.6L10.3,8H37.7L42,17.6A2.1,2.1,0,0,1,41.6,19.1Z"/>
    </g>
  </g>
</svg>
