<svg xmlns="http://www.w3.org/2000/svg" width="48" height="48" viewBox="0 0 48 48">
  <title>subdirectory-left-solid</title>
  <g id="Layer_2" data-name="Layer 2">
    <g id="invisible_box" data-name="invisible box">
      <rect width="48" height="48" fill="none"/>
    </g>
    <g id="icons_Q2" data-name="icons Q2">
      <path d="M35,4a2,2,0,0,0-2,2V31H15.8l5.6-5.6a1.9,1.9,0,0,0-.2-3,2.1,2.1,0,0,0-2.7.2l-8.9,9a1.9,1.9,0,0,0,0,2.8l8.9,9a2.1,2.1,0,0,0,2.7.2,1.9,1.9,0,0,0,.2-3L15.8,35H35l.9-.2a2.1,2.1,0,0,0,.9-1A2.4,2.4,0,0,0,37,33V6A2,2,0,0,0,35,4Z"/>
    </g>
  </g>
</svg>
