<svg xmlns="http://www.w3.org/2000/svg" width="48" height="48" viewBox="0 0 48 48">
  <title>subdirectory-right-solid</title>
  <g id="Layer_2" data-name="Layer 2">
    <g id="invisible_box" data-name="invisible box">
      <rect width="48" height="48" fill="none"/>
    </g>
    <g id="icons_Q2" data-name="icons Q2">
      <path d="M38.4,31.6l-8.9-9a2.1,2.1,0,0,0-2.7-.2,1.9,1.9,0,0,0-.2,3L32.2,31H15V6a2,2,0,0,0-4,0V33a2.4,2.4,0,0,0,.2.8,2.1,2.1,0,0,0,.9,1l.9.2H32.2l-5.6,5.6a1.9,1.9,0,0,0,.2,3,2.1,2.1,0,0,0,2.7-.2l8.9-9A1.9,1.9,0,0,0,38.4,31.6Z"/>
    </g>
  </g>
</svg>
