<svg xmlns="http://www.w3.org/2000/svg" width="48" height="48" viewBox="0 0 48 48">
  <title>subtitles</title>
  <g id="Layer_2" data-name="Layer 2">
    <g id="invisible_box" data-name="invisible box">
      <rect width="48" height="48" fill="none"/>
    </g>
    <g id="icons_Q2" data-name="icons Q2">
      <g>
        <path d="M44,6H4A2,2,0,0,0,2,8V40a2,2,0,0,0,2,2H44a2,2,0,0,0,2-2V8A2,2,0,0,0,44,6ZM42,38H6V10H42Z"/>
        <path d="M12,36H26a2,2,0,0,0,0-4H12a2,2,0,0,0,0,4Z"/>
        <path d="M36,32H32a2,2,0,0,0,0,4h4a2,2,0,0,0,0-4Z"/>
        <path d="M22,30H36a2,2,0,0,0,0-4H22a2,2,0,0,0,0,4Z"/>
        <path d="M12,30h4a2,2,0,0,0,0-4H12a2,2,0,0,0,0,4Z"/>
      </g>
    </g>
  </g>
</svg>
