<svg xmlns="http://www.w3.org/2000/svg" width="48" height="48" viewBox="0 0 48 48">
  <title>subtitles-solid</title>
  <g id="Layer_2" data-name="Layer 2">
    <g id="invisible_box" data-name="invisible box">
      <rect width="48" height="48" fill="none"/>
    </g>
    <g id="Q3_icons" data-name="Q3 icons">
      <path d="M44,6H4A2,2,0,0,0,2,8V40a2,2,0,0,0,2,2H44a2,2,0,0,0,2-2V8A2,2,0,0,0,44,6ZM12,26h4a2,2,0,0,1,0,4H12a2,2,0,0,1,0-4ZM26,36H12a2,2,0,0,1,0-4H26a2,2,0,0,1,0,4Zm10,0H32a2,2,0,0,1,0-4h4a2,2,0,0,1,0,4Zm0-6H22a2,2,0,0,1,0-4H36a2,2,0,0,1,0,4Z"/>
    </g>
  </g>
</svg>
