<svg xmlns="http://www.w3.org/2000/svg" width="48" height="48" viewBox="0 0 48 48">
  <title>swap-horizontal-solid</title>
  <g id="Layer_2" data-name="Layer 2">
    <g id="invisible_box" data-name="invisible box">
      <rect width="48" height="48" fill="none"/>
    </g>
    <g id="icons_Q2" data-name="icons Q2">
      <g>
        <path d="M33.5,23.6a2.1,2.1,0,0,0-2.7-.2,1.9,1.9,0,0,0-.2,3L35.2,31H8a2,2,0,0,0,0,4H35.2l-4.6,4.6a1.9,1.9,0,0,0,.2,3,2.1,2.1,0,0,0,2.7-.2l7.9-8a1.9,1.9,0,0,0,0-2.8Z"/>
        <path d="M14.5,24.4a2.1,2.1,0,0,0,2.7.2,1.9,1.9,0,0,0,.2-3L12.8,17H40a2,2,0,0,0,0-4H12.8l4.6-4.6a1.9,1.9,0,0,0-.2-3,2.1,2.1,0,0,0-2.7.2l-7.9,8a1.9,1.9,0,0,0,0,2.8Z"/>
      </g>
    </g>
  </g>
</svg>
