<svg xmlns="http://www.w3.org/2000/svg" width="48" height="48" viewBox="0 0 48 48">
  <title>swap-vertical-circle-solid</title>
  <g id="Layer_2" data-name="Layer 2">
    <g id="invisible_box" data-name="invisible box">
      <rect width="48" height="48" fill="none"/>
    </g>
    <g id="icons_Q2" data-name="icons Q2">
      <path d="M24,2A22,22,0,1,0,46,24,21.9,21.9,0,0,0,24,2Zm.3,29.5-4.9,4.9a1.9,1.9,0,0,1-2.8,0l-4.9-4.9a2.2,2.2,0,0,1-.4-2.7,2,2,0,0,1,3.1-.2L16,30.2V15a2,2,0,0,1,4,0V30.2l1.6-1.6a2,2,0,0,1,3.1.2A2.2,2.2,0,0,1,24.3,31.5ZM36.7,19.2a2,2,0,0,1-3.1.2L32,17.8V33a2,2,0,0,1-4,0V17.8l-1.6,1.6a2,2,0,0,1-3.1-.2,2.1,2.1,0,0,1,.4-2.7l4.9-4.9a1.9,1.9,0,0,1,2.8,0l4.9,4.9A2.1,2.1,0,0,1,36.7,19.2Z"/>
    </g>
  </g>
</svg>
