<svg xmlns="http://www.w3.org/2000/svg" width="48" height="48" viewBox="0 0 48 48">
  <title>swap-vertical</title>
  <g id="Layer_2" data-name="Layer 2">
    <g id="invisible_box" data-name="invisible box">
      <rect width="48" height="48" fill="none"/>
    </g>
    <g id="icons_Q2" data-name="icons Q2">
      <g>
        <path d="M24.4,33.5a2.1,2.1,0,0,0,.2-2.7,1.9,1.9,0,0,0-3-.2L17,35.2V8a2,2,0,0,0-4,0V35.2L8.4,30.6a1.9,1.9,0,0,0-3,.2,2.1,2.1,0,0,0,.2,2.7l8,7.9a1.9,1.9,0,0,0,2.8,0Z"/>
        <path d="M23.6,14.5a2.1,2.1,0,0,0-.2,2.7,1.9,1.9,0,0,0,3,.2L31,12.8V40a2,2,0,0,0,4,0V12.8l4.6,4.6a1.9,1.9,0,0,0,3-.2,2.1,2.1,0,0,0-.2-2.7l-8-7.9a1.9,1.9,0,0,0-2.8,0Z"/>
      </g>
    </g>
  </g>
</svg>
