<svg xmlns="http://www.w3.org/2000/svg" width="48" height="48" viewBox="0 0 48 48">
  <title>swap-vertical-circle</title>
  <g id="Layer_2" data-name="Layer 2">
    <g id="invisible_box" data-name="invisible box">
      <rect width="48" height="48" fill="none"/>
    </g>
    <g id="icons_Q2" data-name="icons Q2">
      <path d="M19.4,36.4l5-4.9a2.1,2.1,0,0,0,.2-2.7,1.9,1.9,0,0,0-3-.2L20,30.2V15a2,2,0,0,0-4,0V30.2l-1.6-1.6a1.9,1.9,0,0,0-3,.2,2.1,2.1,0,0,0,.2,2.7l5,4.9A1.9,1.9,0,0,0,19.4,36.4Z"/>
      <path d="M32,33V17.8l1.6,1.6a1.9,1.9,0,0,0,3-.2,2.1,2.1,0,0,0-.2-2.7l-5-4.9a1.9,1.9,0,0,0-2.8,0l-5,4.9a2.1,2.1,0,0,0-.2,2.7,1.9,1.9,0,0,0,3,.2L28,17.8V33a2,2,0,0,0,4,0Z"/>
      <path d="M24,42A18,18,0,1,1,42,24,18.1,18.1,0,0,1,24,42m0,4A22,22,0,1,0,2,24,21.9,21.9,0,0,0,24,46Z"/>
    </g>
  </g>
</svg>
