<svg xmlns="http://www.w3.org/2000/svg" width="48" height="48" viewBox="0 0 48 48">
  <g id="Layer_2" data-name="Layer 2">
    <g id="invisible_box" data-name="invisible box">
      <rect width="48" height="48" fill="none"/>
    </g>
    <g id="Medical">
      <path d="M45.4,10.3,37.7,2.6a2.1,2.1,0,0,0-2.9,0,2.1,2.1,0,0,0,0,2.8l2.5,2.5-3.4,3.4L28.5,5.8h0a2,2,0,1,0-2.8,2.9L9.9,24.4a6.3,6.3,0,0,0-1.7,5.2l1.1,6.3L4.6,40.6a1.9,1.9,0,0,0,0,2.8,1.9,1.9,0,0,0,2.8,0l4.7-4.7,6.3,1.1a6,6,0,0,0,5.2-1.7L39.4,22.3a2,2,0,1,0,2.9-2.7l-5.6-5.5,3.4-3.4,2.5,2.5a2,2,0,0,0,1.4.6A2.1,2.1,0,0,0,45.4,10.3Zm-24.6,25a2.3,2.3,0,0,1-1.8.5l-5.8-1-1-5.8a2.3,2.3,0,0,1,.5-1.8l2.6-2.5,3.2,3.2a2.1,2.1,0,0,0,2.9,0,1.9,1.9,0,0,0,0-2.8l-3.3-3.3,3.4-3.3,3.3,3.2a2,2,0,0,0,2.8-2.8l-3.3-3.3,4.2-4.1,8,8Z"/>
    </g>
  </g>
</svg>
