<svg xmlns="http://www.w3.org/2000/svg" width="48" height="48" viewBox="0 0 48 48">
  <g id="Layer_2" data-name="Layer 2">
    <g id="invisible_box" data-name="invisible box">
      <rect width="48" height="48" fill="none"/>
    </g>
    <g id="Layer_4" data-name="Layer 4">
      <path d="M45.4,10.3,37.7,2.6a2.1,2.1,0,0,0-2.9,0,1.9,1.9,0,0,0,0,2.8l2.5,2.5-3.4,3.3L28.5,5.8A2.1,2.1,0,0,0,27,5.1a2,2,0,0,0-1.6,3.2L39.7,22.6a2,2,0,0,0,2.6-3l-5.5-5.5,3.3-3.4,2.5,2.5a2,2,0,0,0,1.4.6A2.1,2.1,0,0,0,45.4,10.3ZM22.8,11.5l-3.4,3.4L25.5,21a1.9,1.9,0,0,1,0,2.8,1.9,1.9,0,0,1-2.8,0l-6.1-6.1-3.4,3.4,6.1,6.1a1.9,1.9,0,0,1,0,2.8,1.9,1.9,0,0,1-2.8,0l-6.1-6.1-.5.5a6,6,0,0,0-1.7,5.2l1.1,6.3L4.6,40.6a1.9,1.9,0,0,0,0,2.8,1.9,1.9,0,0,0,2.8,0l4.7-4.7,6.3,1.1a6.3,6.3,0,0,0,5.2-1.7L36.5,25.2Z"/>
    </g>
  </g>
</svg>
