<svg xmlns="http://www.w3.org/2000/svg" width="48" height="48" viewBox="0 0 48 48">
  <title>tag-lock</title>
  <g id="Layer_2" data-name="Layer 2">
    <g id="invisible_box" data-name="invisible box">
      <rect width="48" height="48" fill="none"/>
    </g>
    <g id="Q3_icons" data-name="Q3 icons">
      <g>
        <path d="M26.5,3.6a1.9,1.9,0,0,0-2.8,0L17.3,10h5.6l2.2-2.2L42,24.8V41H25.8l-4-4H16.1l8,8H44a2,2,0,0,0,2-2V23.1Z"/>
        <circle cx="33" cy="32" r="4"/>
        <path d="M24,32V22a2,2,0,0,0-2-2H21V18A6,6,0,0,0,9,18v2H8a2,2,0,0,0-2,2V32a2,2,0,0,0,2,2H22A2,2,0,0,0,24,32ZM13,18a2,2,0,0,1,4,0v2H13Zm7,12H10V24H20Z"/>
      </g>
    </g>
  </g>
</svg>
