<svg xmlns="http://www.w3.org/2000/svg" width="48" height="48" viewBox="0 0 48 48">
  <title>thermometer</title>
  <g id="Layer_2" data-name="Layer 2">
    <g id="invisible_box" data-name="invisible box">
      <rect width="48" height="48" fill="none"/>
    </g>
    <g id="Layer_6" data-name="Layer 6">
      <g id="icons_Q2" data-name="icons Q2">
        <g>
          <path d="M29,10a8,8,0,0,0-16,0V27.5A10.5,10.5,0,0,0,10,35a11,11,0,0,0,22,0,10.5,10.5,0,0,0-3-7.5ZM21,42a7,7,0,0,1-7-7,6.8,6.8,0,0,1,3-5.7V10a4,4,0,0,1,8,0V29.3A6.8,6.8,0,0,1,28,35,7,7,0,0,1,21,42Z"/>
          <path d="M23,30.4V17H19V30.4A5.1,5.1,0,0,0,16,35a5,5,0,0,0,10,0A5.1,5.1,0,0,0,23,30.4Z"/>
          <path d="M40,23H34a2,2,0,0,0,0,4h6a2,2,0,0,0,0-4Z"/>
          <path d="M40,17H34a2,2,0,0,0,0,4h6a2,2,0,0,0,0-4Z"/>
          <path d="M40,11H34a2,2,0,0,0,0,4h6a2,2,0,0,0,0-4Z"/>
          <path d="M34,9h6a2,2,0,0,0,0-4H34a2,2,0,0,0,0,4Z"/>
        </g>
      </g>
    </g>
  </g>
</svg>
