<svg xmlns="http://www.w3.org/2000/svg" width="48" height="48" viewBox="0 0 48 48">
  <title>thermometer-solid</title>
  <g id="Layer_2" data-name="Layer 2">
    <g id="invisible_box" data-name="invisible box">
      <rect width="48" height="48" fill="none"/>
    </g>
    <g id="Q3_icons" data-name="Q3 icons">
      <path d="M29,27.5V10a8,8,0,0,0-16,0V27.5A10.6,10.6,0,0,0,10,35a11,11,0,0,0,22,0A10.6,10.6,0,0,0,29,27.5ZM21,40a5,5,0,0,1-5-5,5.1,5.1,0,0,1,3-4.6V17h4V30.4A5.1,5.1,0,0,1,26,35,5,5,0,0,1,21,40Z"/>
      <path d="M40,23H34a2,2,0,0,0,0,4h6a2,2,0,0,0,0-4Z"/>
      <path d="M40,17H34a2,2,0,0,0,0,4h6a2,2,0,0,0,0-4Z"/>
      <path d="M40,11H34a2,2,0,0,0,0,4h6a2,2,0,0,0,0-4Z"/>
      <path d="M40,5H34a2,2,0,0,0,0,4h6a2,2,0,0,0,0-4Z"/>
    </g>
  </g>
</svg>
