<svg xmlns="http://www.w3.org/2000/svg" width="48" height="48" viewBox="0 0 48 48">
  <title>text-strikeout</title>
  <g id="Layer_2" data-name="Layer 2">
    <g id="invisible_box" data-name="invisible box">
      <rect width="48" height="48" fill="none"/>
    </g>
    <g id="Layer_6" data-name="Layer 6">
      <g>
        <path d="M21.1,20c.1,0,.9-.1,0-.3C17.4,19,15,16.9,15,15s3.7-5,9-5,7.7,1.9,8.7,3.8A2.7,2.7,0,0,1,33,15l4.7-4.6C35.3,6.5,30,4,24,4,15.6,4,9,8.8,9,15a9,9,0,0,0,1.6,5Z"/>
        <path d="M44,22H4v4H24c4.9,0,9,2.8,9,6s-4.1,6-9,6-8.2-2.2-8.9-5.1l-4.5,4.5C13.1,41.3,18.2,44,24,44c8.3,0,15-5.4,15-12a10.1,10.1,0,0,0-2-6h7Z"/>
      </g>
    </g>
  </g>
</svg>
