<svg xmlns="http://www.w3.org/2000/svg" width="48" height="48" viewBox="0 0 48 48">
  <title>text-justify-solid</title>
  <g id="Layer_2" data-name="Layer 2">
    <g id="invisible_box" data-name="invisible box">
      <rect width="48" height="48" fill="none"/>
    </g>
    <g id="Q3_icons" data-name="Q3 icons">
      <g>
        <path d="M42,14H6a2,2,0,0,0,0,4H42a2,2,0,0,0,0-4Z"/>
        <path d="M6,10H42a2,2,0,0,0,0-4H6a2,2,0,0,0,0,4Z"/>
        <path d="M42,30H6a2,2,0,0,0,0,4H42a2,2,0,0,0,0-4Z"/>
        <path d="M42,22H6a2,2,0,0,0,0,4H42a2,2,0,0,0,0-4Z"/>
        <path d="M42,38H6a2,2,0,0,0,0,4H42a2,2,0,0,0,0-4Z"/>
      </g>
    </g>
  </g>
</svg>
