<svg xmlns="http://www.w3.org/2000/svg" width="48" height="48" viewBox="0 0 48 48">
  <title>thumbs-down</title>
  <g id="Layer_2" data-name="Layer 2">
    <g id="invisible_box" data-name="invisible box">
      <rect width="48" height="48" fill="none"/>
    </g>
    <g id="icons_Q2" data-name="icons Q2">
      <path d="M45,24l-.5-8.1h0C44,8,38.9,4,33,4H28c-2.4,0-7.1,2.6-8.5,3.6a1.6,1.6,0,0,1-1.2.4H5a2,2,0,0,0-2,2V26a2,2,0,0,0,2,2H16c3,0,10,14.8,10,14.8A2,2,0,0,0,27.5,44h.3c3.2-.9,4.2-4.8,3.6-9.7L31,31h7A6.7,6.7,0,0,0,45,24ZM7,12h6V24H7ZM41,24.1A2.7,2.7,0,0,1,38,27H26.5l.5,4.4.4,3.3a16.2,16.2,0,0,1,.1,2.1C22,26.2,18.9,24.4,17,24V12h1.3a5.8,5.8,0,0,0,3.6-1.2C23.2,9.9,26.8,8.1,28,8h5c4.3,0,7.1,3,7.5,8.1h0Z"/>
    </g>
  </g>
</svg>
