<svg xmlns="http://www.w3.org/2000/svg" width="48" height="48" viewBox="0 0 48 48">
  <title>thumbs-up</title>
  <g id="Layer_2" data-name="Layer 2">
    <g id="invisible_box" data-name="invisible box">
      <rect width="48" height="48" fill="none"/>
    </g>
    <g id="icons_Q2" data-name="icons Q2">
      <path d="M38,17H31l.4-3.3C32,8.8,31,4.9,27.8,4h-.3A2,2,0,0,0,26,5.2S19,20,16,20H5a2,2,0,0,0-2,2V38a2,2,0,0,0,2,2H18.3a1.6,1.6,0,0,1,1.2.4c1.4,1,6.1,3.6,8.5,3.6h5c5.9,0,11-4,11.5-11.9h0L45,24A6.7,6.7,0,0,0,38,17ZM7,24h6V36H7Zm33.5,7.8h0C40.1,37,37.3,40,33,40H28c-1.2-.1-4.8-1.9-6.1-2.8A5.8,5.8,0,0,0,18.3,36H17V24c1.9-.4,5-2.2,10.5-12.8a16.2,16.2,0,0,1-.1,2.1L27,16.6,26.5,21H38a2.7,2.7,0,0,1,3,2.9Z"/>
    </g>
  </g>
</svg>
