<svg xmlns="http://www.w3.org/2000/svg" width="48" height="48" viewBox="0 0 48 48">
  <title>time-alarm-off</title>
  <g id="Layer_2" data-name="Layer 2">
    <g id="invisible_box" data-name="invisible box">
      <rect width="48" height="48" fill="none"/>
    </g>
    <g id="icons_Q2" data-name="icons Q2">
      <g>
        <path d="M24,12A15,15,0,0,1,39,27a13.6,13.6,0,0,1-.3,2.9L42,33.1A20.5,20.5,0,0,0,43,27,19,19,0,0,0,24,8a21.2,21.2,0,0,0-6.2,1l3.3,3.3A13.6,13.6,0,0,1,24,12Z"/>
        <path d="M15.2,5.6a2,2,0,0,0,.4-2.8,2,2,0,0,0-2.8-.4l-.9.7,2.9,2.8Z"/>
        <path d="M32.8,5.6l8,6A1.9,1.9,0,0,0,42,12a2.1,2.1,0,0,0,1.6-.8,2,2,0,0,0-.4-2.8l-8-6a2,2,0,0,0-2.8.4A2,2,0,0,0,32.8,5.6Z"/>
        <path d="M44.1,41.3,6.7,3.9a1.9,1.9,0,0,0-2.8,0,1.9,1.9,0,0,0,0,2.8L5.2,8.1l-.4.3a2,2,0,0,0-.4,2.8A2.1,2.1,0,0,0,6,12a1.9,1.9,0,0,0,1.2-.4l.9-.7,2.6,2.6A18.8,18.8,0,0,0,5,27,19,19,0,0,0,24,46a18.8,18.8,0,0,0,13.5-5.7l3.8,3.8a2,2,0,1,0,2.8-2.8ZM24,42A15,15,0,0,1,9,27a14.8,14.8,0,0,1,4.5-10.7L34.7,37.5A14.8,14.8,0,0,1,24,42Z"/>
      </g>
    </g>
  </g>
</svg>
