<svg xmlns="http://www.w3.org/2000/svg" width="48" height="48" viewBox="0 0 48 48">
  <title>time-lock-solid</title>
  <g id="Layer_2" data-name="Layer 2">
    <g id="invisible_box" data-name="invisible box">
      <rect width="48" height="48" fill="none"/>
    </g>
    <g id="Q3_icons" data-name="Q3 icons">
      <g>
        <path d="M46,22.6A22.1,22.1,0,0,0,2,22H6A18.1,18.1,0,1,1,26,41.9v4A22.1,22.1,0,0,0,46,22.6Z"/>
        <path d="M24,12a2,2,0,0,0-2.1,2V25.1l11,6.6A2.3,2.3,0,0,0,34,32a1.9,1.9,0,0,0,1.7-1,1.9,1.9,0,0,0-.7-2.7l-9-5.4V14A2,2,0,0,0,24,12Z"/>
        <path d="M19.9,32h-1V30a6,6,0,1,0-12,0v2h-1a2,2,0,0,0-2,2V44a2,2,0,0,0,2,2h14a1.9,1.9,0,0,0,2-2V34A1.9,1.9,0,0,0,19.9,32Zm-9-2a2,2,0,0,1,4,0v2h-4Z"/>
      </g>
    </g>
  </g>
</svg>
