<svg xmlns="http://www.w3.org/2000/svg" width="48" height="48" viewBox="0 0 48 48">
  <title>time-alarm-on-solid</title>
  <g id="Layer_2" data-name="Layer 2">
    <g id="invisible_box" data-name="invisible box">
      <rect width="48" height="48" fill="none"/>
    </g>
    <g id="icons_Q2" data-name="icons Q2">
      <path d="M24,8A19,19,0,1,0,43,27,19,19,0,0,0,24,8Zm8.4,14.4-10,10a1.9,1.9,0,0,1-2.8,0l-3.9-3.9a2.2,2.2,0,0,1-.4-2.7,2,2,0,0,1,3.1-.2L21,28.2l8.6-8.6a2,2,0,0,1,2.8,2.8Z"/>
      <path d="M6,12a2.1,2.1,0,0,1-1.6-.8,2,2,0,0,1,.4-2.8l8-6a2,2,0,0,1,2.8.4,2,2,0,0,1-.4,2.8l-8,6A1.9,1.9,0,0,1,6,12Z"/>
      <path d="M42,12a1.9,1.9,0,0,1-1.2-.4l-8-6a2,2,0,0,1-.4-2.8,2,2,0,0,1,2.8-.4l8,6a2,2,0,0,1,.4,2.8A2.1,2.1,0,0,1,42,12Z"/>
    </g>
  </g>
</svg>
