<svg xmlns="http://www.w3.org/2000/svg" width="48" height="48" viewBox="0 0 48 48">
  <title>time-stopwatch-solid</title>
  <g id="Layer_2" data-name="Layer 2">
    <g id="invisible_box" data-name="invisible box">
      <rect width="48" height="48" fill="none"/>
    </g>
    <g id="Q3_icons" data-name="Q3 icons">
      <path d="M38.8,15.1l2.4-2.5a1.9,1.9,0,0,0,0-2.8,1.8,1.8,0,0,0-1.4-.6,2,2,0,0,0-1.4.6l-2.5,2.4A19.1,19.1,0,0,0,26,8.1V6h2a2,2,0,0,0,0-4H20a2,2,0,0,0,0,4h2V8.1a19,19,0,1,0,16.8,7ZM39,27H24V12A15,15,0,0,1,39,27Z"/>
    </g>
  </g>
</svg>
