<svg xmlns="http://www.w3.org/2000/svg" width="48" height="48" viewBox="0 0 48 48">
  <title>time</title>
  <g id="Layer_2" data-name="Layer 2">
    <g id="invisible_box" data-name="invisible box">
      <rect width="48" height="48" fill="none"/>
    </g>
    <g id="icons_Q2" data-name="icons Q2">
      <path d="M24,6A18,18,0,1,1,6,24,18.1,18.1,0,0,1,24,6m0-4A22,22,0,1,0,46,24,21.9,21.9,0,0,0,24,2Z"/>
      <path d="M34,32a1.7,1.7,0,0,1-1-.3L22,25.1V14a2,2,0,0,1,4,0v8.9l9,5.4a1.9,1.9,0,0,1,.7,2.7A1.9,1.9,0,0,1,34,32Z"/>
    </g>
  </g>
</svg>
