<svg xmlns="http://www.w3.org/2000/svg" width="48" height="48" viewBox="0 0 48 48">
  <title>time-history</title>
  <g id="Layer_2" data-name="Layer 2">
    <g id="invisible_box" data-name="invisible box">
      <rect width="48" height="48" fill="none"/>
    </g>
    <g id="icons_Q2" data-name="icons Q2">
      <path d="M46,24A22,22,0,0,1,4.3,33.7a2,2,0,0,1,.5-2.6,2,2,0,0,1,3,.7A18,18,0,1,0,10.6,12h5.3A2.1,2.1,0,0,1,18,13.7,2,2,0,0,1,16,16H6a2,2,0,0,1-2-2V4.1A2.1,2.1,0,0,1,5.7,2,2,2,0,0,1,8,4V8.9A22,22,0,0,1,46,24Z"/>
      <path d="M34,32a1.7,1.7,0,0,1-1-.3L22,25.1V14a2,2,0,0,1,4,0v8.9l9,5.4a1.9,1.9,0,0,1,.7,2.7A1.9,1.9,0,0,1,34,32Z"/>
    </g>
  </g>
</svg>
