<svg xmlns="http://www.w3.org/2000/svg" width="48" height="48" viewBox="0 0 48 48">
  <g id="Layer_2" data-name="Layer 2">
    <g id="invisible_box" data-name="invisible box">
      <rect width="48" height="48" fill="none"/>
    </g>
    <g id="Layer_4" data-name="Layer 4">
      <g>
        <path d="M2,42a3,3,0,0,0,3,3H43a3,3,0,0,0,3-3V36H2Z"/>
        <path d="M43,17H38.2l-2.8,8H36a2,2,0,0,1,2,2,1.7,1.7,0,0,1-.6,1.4A2,2,0,0,1,36,29H12a2,2,0,0,1-2-2,1.7,1.7,0,0,1,.6-1.4,2.3,2.3,0,0,1,1.2-.6L7.6,17H5a2.9,2.9,0,0,0-3,3V33H46V20A2.9,2.9,0,0,0,43,17Z"/>
        <path d="M14.8,25H32.5L38.9,5.6a2.1,2.1,0,0,0-.6-2.2A2,2,0,0,0,36,3.3L29.6,7.5a4.4,4.4,0,0,1-4.9-.3l-.6-.4a7.9,7.9,0,0,0-10.6.7L9.6,12.1a2,2,0,0,0-.4,2.3Z"/>
      </g>
    </g>
  </g>
</svg>
