<svg xmlns="http://www.w3.org/2000/svg" width="48" height="48" viewBox="0 0 48 48">
  <g id="Layer_2" data-name="Layer 2">
    <g id="invisible_box" data-name="invisible box">
      <rect width="48" height="48" fill="none"/>
    </g>
    <g id="Medical">
      <path d="M43,17H36.2L39.9,5.6a1.9,1.9,0,0,0-.6-2.1A2,2,0,0,0,37,3.3L29.6,7.5a4.4,4.4,0,0,1-4.9-.3l-.6-.4a8.4,8.4,0,0,0-11,.7L8.6,12a2.2,2.2,0,0,0-.4,2.4L9.6,17H5a3,3,0,0,0-3,3V42a3,3,0,0,0,3,3H43a3,3,0,0,0,3-3V20A3,3,0,0,0,43,17ZM15.9,10.3a4.7,4.7,0,0,1,5.8-.4l.6.5a8.5,8.5,0,0,0,9.3.6l2.9-1.7L29.3,25H18.4L12.5,13.8ZM42,41H6V37H42Zm0-8H6V21h5.7l2.1,4H12a2,2,0,0,0,0,4H36a2,2,0,0,0,0-4H33.5l1.4-4H42Z"/>
    </g>
  </g>
</svg>
