<svg xmlns="http://www.w3.org/2000/svg" width="48" height="48" viewBox="0 0 48 48">
  <title>tools-solid</title>
  <g id="Layer_2" data-name="Layer 2">
    <g id="invisible_box" data-name="invisible box">
      <rect width="48" height="48" fill="none"/>
    </g>
    <g id="icons_Q2" data-name="icons Q2">
      <path d="M36.2,26.4a1.8,1.8,0,0,0,1.4.6,2,2,0,0,0,1.4-.6L45.4,20a1.9,1.9,0,0,0,0-2.8l-3-3.1A3.7,3.7,0,0,0,43,12a4,4,0,0,0-4-4,3.7,3.7,0,0,0-2.1.6l-3.1-3a1.9,1.9,0,0,0-2.8,0L24.6,12a1.9,1.9,0,0,0,0,2.8L29,19.2l-5,5-5.4-5.4A8.7,8.7,0,0,0,20,14a9,9,0,0,0-9-9,2,2,0,0,0,0,4,5,5,0,1,1-5,5,2,2,0,0,0-4,0,9,9,0,0,0,9,9,8.7,8.7,0,0,0,4.8-1.4L21.2,27,8.6,39.6a1.9,1.9,0,0,0,0,2.8,1.9,1.9,0,0,0,2.8,0L24,29.8,36.6,42.4a1.9,1.9,0,0,0,2.8,0,1.9,1.9,0,0,0,0-2.8L26.8,27l5-5Z"/>
    </g>
  </g>
</svg>
