<svg xmlns="http://www.w3.org/2000/svg" width="48" height="48" viewBox="0 0 48 48">
  <title>translate-solid</title>
  <g id="Layer_2" data-name="Layer 2">
    <g id="invisible_box" data-name="invisible box">
      <rect width="48" height="48" fill="none"/>
    </g>
    <g id="icons_Q2" data-name="icons Q2">
      <path d="M43.8,41.2,33.9,16.3A2.1,2.1,0,0,0,32,15H30a2.1,2.1,0,0,0-1.9,1.3L23.3,28.4a24,24,0,0,1-5.6-4.3c3.4-4,5.9-8.8,6.2-13.1h2A2.1,2.1,0,0,0,28,9.3,2,2,0,0,0,26,7H17.5V4.1A2.1,2.1,0,0,0,15.8,2a2,2,0,0,0-2.3,2V7H6.1A2.1,2.1,0,0,0,4,8.7,2,2,0,0,0,6,11H19.9c-.3,3-2.3,6.7-4.9,10.1a34.1,34.1,0,0,1-3.2-4.9A2.1,2.1,0,0,0,9.6,15a2,2,0,0,0-1.4,2.9,39.1,39.1,0,0,0,4.1,6.2,24,24,0,0,1-7,5A2.2,2.2,0,0,0,4,31.4,2,2,0,0,0,6,33l.8-.2A26.4,26.4,0,0,0,15,27a28.1,28.1,0,0,0,6.8,5.1l-3.6,9.1A2,2,0,0,0,20,44a2.2,2.2,0,0,0,1.9-1.3L25.8,33H36.2l3.9,9.7A2.2,2.2,0,0,0,42,44a2,2,0,0,0,1.8-2.8ZM27.4,29,31,19.9,34.6,29Z"/>
    </g>
  </g>
</svg>
