<svg xmlns="http://www.w3.org/2000/svg" width="48" height="48" viewBox="0 0 48 48">
  <title>transfer-solid</title>
  <g id="Layer_2" data-name="Layer 2">
    <g id="invisible_box" data-name="invisible box">
      <rect width="48" height="48" fill="none"/>
    </g>
    <g id="icons_Q2" data-name="icons Q2">
      <g>
        <path d="M19,26a2,2,0,0,0-2,2v4H7V28a2,2,0,0,0-4,0V42a2,2,0,0,0,2,2H19a2,2,0,0,0,2-2V28A2,2,0,0,0,19,26Z"/>
        <path d="M43,26a2,2,0,0,0-2,2v4H31V28a2,2,0,0,0-4,0V42a2,2,0,0,0,2,2H43a2,2,0,0,0,2-2V28A2,2,0,0,0,43,26Z"/>
        <path d="M34,16v1.2l-2.6-2.6a1.9,1.9,0,0,0-3,.2,2.1,2.1,0,0,0,.2,2.7l6,5.9a1.9,1.9,0,0,0,2.8,0l6-5.9a2.1,2.1,0,0,0,.2-2.7,1.9,1.9,0,0,0-3-.2L38,17.2V16a14,14,0,0,0-28,0v6a2,2,0,0,0,4,0V16a10,10,0,0,1,20,0Z"/>
      </g>
    </g>
  </g>
</svg>
