<svg xmlns="http://www.w3.org/2000/svg" width="48" height="48" viewBox="0 0 48 48">
  <title>tree-structure</title>
  <g id="Layer_2" data-name="Layer 2">
    <g id="invisible_box" data-name="invisible box">
      <rect width="48" height="48" fill="none"/>
    </g>
    <g id="Q3_icons" data-name="Q3 icons">
      <path d="M26,30H42a2,2,0,0,0,2-2V20a2,2,0,0,0-2-2H26a2,2,0,0,0-2,2v2H16V14h6a2,2,0,0,0,2-2V4a2,2,0,0,0-2-2H6A2,2,0,0,0,4,4v8a2,2,0,0,0,2,2h6V40a2,2,0,0,0,2,2H24v2a2,2,0,0,0,2,2H42a2,2,0,0,0,2-2V36a2,2,0,0,0-2-2H26a2,2,0,0,0-2,2v2H16V26h8v2A2,2,0,0,0,26,30Zm2-8H40v4H28ZM8,6H20v4H8ZM28,38H40v4H28Z"/>
    </g>
  </g>
</svg>
