<svg xmlns="http://www.w3.org/2000/svg" width="48" height="48" viewBox="0 0 48 48">
  <title>twitter</title>
  <g id="Layer_2" data-name="Layer 2">
    <g id="invisible_box" data-name="invisible box">
      <rect width="48" height="48" fill="none"/>
      <rect width="48" height="48" fill="none"/>
    </g>
    <g id="icons_Q2" data-name="icons Q2">
      <path d="M46,10.2a18.3,18.3,0,0,1-5.2,1.5,9.4,9.4,0,0,0,4-5,23.2,23.2,0,0,1-5.7,2.2A9.1,9.1,0,0,0,23.4,15a7.6,7.6,0,0,0,.3,2.1A25.8,25.8,0,0,1,5.1,7.7a8.5,8.5,0,0,0-1.3,4.5,8.9,8.9,0,0,0,4.1,7.5,8.1,8.1,0,0,1-4.1-1.1h0A8.9,8.9,0,0,0,11,27.5a8.6,8.6,0,0,1-2.4.4l-1.7-.2A9.2,9.2,0,0,0,15.4,34,18.2,18.2,0,0,1,4.2,37.8H2a25.1,25.1,0,0,0,13.8,4.1c16.6,0,25.7-13.8,25.7-25.7V14.9A18.3,18.3,0,0,0,46,10.2Z"/>
    </g>
  </g>
</svg>
