<svg xmlns="http://www.w3.org/2000/svg" width="48" height="48" viewBox="0 0 48 48">
  <title>unarchive</title>
  <g id="Layer_2" data-name="Layer 2">
    <g id="invisible_box" data-name="invisible box">
      <rect width="48" height="48" fill="none"/>
    </g>
    <g id="icons_Q2" data-name="icons Q2">
      <path d="M43.2,12.3l-5-6.7A4,4,0,0,0,35,4H13A4,4,0,0,0,9.8,5.6l-5,6.7A4.1,4.1,0,0,0,4,14.7V40a4,4,0,0,0,4,4H40a4,4,0,0,0,4-4V14.7A4.1,4.1,0,0,0,43.2,12.3ZM13,8H35l4.5,6H8.5ZM40,40H26V28.8l2.6,2.6a1.9,1.9,0,0,0,3-.2,2.1,2.1,0,0,0-.2-2.7l-6-5.9a1.9,1.9,0,0,0-2.8,0l-6,5.9a2.1,2.1,0,0,0-.2,2.7,1.9,1.9,0,0,0,3,.2L22,28.8V40H8V18H40Z"/>
    </g>
  </g>
</svg>
