<svg xmlns="http://www.w3.org/2000/svg" width="48" height="48" viewBox="0 0 48 48">
  <title>unarchive-solid</title>
  <g id="Layer_2" data-name="Layer 2">
    <g id="invisible_box" data-name="invisible box">
      <rect width="48" height="48" fill="none"/>
    </g>
    <g id="icons_Q2" data-name="icons Q2">
      <path d="M43.2,12.3l-5-6.7A3.9,3.9,0,0,0,35,4H13A3.9,3.9,0,0,0,9.8,5.6l-5,6.7A3.6,3.6,0,0,0,4.1,14H43.9A3.6,3.6,0,0,0,43.2,12.3ZM4,18V40a4,4,0,0,0,4,4H22V28.8l-2.6,2.6a2,2,0,0,1-3.1-.2,2.1,2.1,0,0,1,.4-2.7l5.9-5.9a1.9,1.9,0,0,1,2.8,0l5.9,5.9a2.1,2.1,0,0,1,.4,2.7,2,2,0,0,1-3.1.2L26,28.8V44H40a4,4,0,0,0,4-4V18Z"/>
    </g>
  </g>
</svg>
