<svg xmlns="http://www.w3.org/2000/svg" width="48" height="48" viewBox="0 0 48 48">
  <title>unlink</title>
  <g id="Layer_2" data-name="Layer 2">
    <g id="invisible_box" data-name="invisible box">
      <rect width="48" height="48" fill="none"/>
    </g>
    <g id="Q3_icons" data-name="Q3 icons">
      <g>
        <path d="M16.9,22.7a6,6,0,0,1,8.4,0,2,2,0,0,0,2.8-2.8,9.8,9.8,0,0,0-14,0L6.9,27.1a9.8,9.8,0,0,0,0,14,9.9,9.9,0,0,0,14,0l4.5-4.7a2,2,0,0,0-2.8-2.8l-4.5,4.7a5.9,5.9,0,0,1-8.4-8.4Z"/>
        <path d="M11.6,18.6a2,2,0,0,0,2.7-.9,1.9,1.9,0,0,0-.8-2.6L6.4,11.4a2,2,0,0,0-2.7.9,1.9,1.9,0,0,0,.8,2.6Z"/>
        <path d="M16.1,13.5a1.9,1.9,0,0,0,2.6.8,2,2,0,0,0,.9-2.7L15.9,4.5a1.9,1.9,0,0,0-2.6-.8,2,2,0,0,0-.9,2.7Z"/>
        <path d="M43.2,32.8l-7.1-3.6a2,2,0,1,0-1.8,3.5l7.1,3.7a2,2,0,0,0,1.8-3.6Z"/>
        <path d="M31.7,34.3a2,2,0,1,0-3.5,1.8l3.6,7.1a2,2,0,1,0,3.6-1.8Z"/>
        <path d="M25.4,14.4l4.5-4.7a5.9,5.9,0,0,1,8.4,8.4l-6.1,6.1L35,27l6.1-6.1a9.9,9.9,0,0,0-14-14l-4.5,4.7a2,2,0,0,0,2.8,2.8Z"/>
      </g>
    </g>
  </g>
</svg>
