<svg xmlns="http://www.w3.org/2000/svg" width="48" height="48" viewBox="0 0 48 48">
  <title>upload</title>
  <g id="Layer_2" data-name="Layer 2">
    <g id="invisible_box" data-name="invisible box">
      <rect width="48" height="48" fill="none"/>
    </g>
    <g id="icons_Q2" data-name="icons Q2">
      <path d="M42,40H6a2,2,0,0,0,0,4H42a2,2,0,0,0,0-4Z"/>
      <path d="M35.4,14.5l-10-9.9a1.9,1.9,0,0,0-2.8,0l-10,9.9a2.1,2.1,0,0,0-.2,2.7,1.9,1.9,0,0,0,3,.2L22,10.8V34a2,2,0,0,0,4,0V10.8l6.6,6.6a1.9,1.9,0,0,0,3-.2A2.1,2.1,0,0,0,35.4,14.5Z"/>
    </g>
  </g>
</svg>
