<svg xmlns="http://www.w3.org/2000/svg" width="48" height="48" viewBox="0 0 48 48">
  <title>user-canonical</title>
  <g id="Layer_2" data-name="Layer 2">
    <g id="invisible_box" data-name="invisible box">
      <rect width="48" height="48" fill="none"/>
    </g>
    <g id="icons_Q2" data-name="icons Q2">
      <g>
        <path d="M44,8H4a2,2,0,0,0-2,2V24a2,2,0,0,0,2.3,2A2.1,2.1,0,0,0,6,23.9V12H42V36H32a2,2,0,0,0-2,2.3A2.1,2.1,0,0,0,32.1,40H44a2,2,0,0,0,2-2V10A2,2,0,0,0,44,8Z"/>
        <path d="M2,32v6a2.1,2.1,0,0,0,2.2,2H23.8A2.1,2.1,0,0,0,26,38V32a20.5,20.5,0,0,0-12-4A20.5,20.5,0,0,0,2,32Zm20,4H6V34.2a15.6,15.6,0,0,1,16,0Z"/>
        <path d="M28,20H38a2,2,0,0,0,0-4H28a2,2,0,0,0,0,4Z"/>
        <path d="M40,26a2,2,0,0,0-2-2H28a2,2,0,0,0,0,4H38A2,2,0,0,0,40,26Z"/>
        <path d="M20,20a6,6,0,1,0-6,6A6,6,0,0,0,20,20Zm-8,0a2,2,0,1,1,2,2A2,2,0,0,1,12,20Z"/>
      </g>
    </g>
  </g>
</svg>
