<svg xmlns="http://www.w3.org/2000/svg" width="48" height="48" viewBox="0 0 48 48">
  <g id="Layer_2" data-name="Layer 2">
    <g id="invisible_box" data-name="invisible box">
      <rect width="48" height="48" fill="none"/>
    </g>
    <g id="Medical">
      <g>
        <path d="M18,25a6,6,0,1,0,6-6A6,6,0,0,0,18,25Zm8,0a2,2,0,1,1-2-2A2,2,0,0,1,26,25Z"/>
        <path d="M45.4,22.5,42,19.3V5H30V7.9L25.4,3.5a2.1,2.1,0,0,0-2.8,0l-20,19a2,2,0,0,0,2.8,2.9l.6-.5V42a3,3,0,0,0,3,3H39a3,3,0,0,0,3-3V24.9l.6.5C44.5,27.2,47.2,24.4,45.4,22.5ZM31,41H17V39a13.5,13.5,0,0,1,14,0Zm7,0H35V37.7a1.7,1.7,0,0,0-.8-1.4A18,18,0,0,0,24,33a17,17,0,0,0-9.5,2.8c-.7.5-1.6,1-1.5,1.9V41H10V21.1L24,7.8,38,21.1Zm0-25.5-4-3.8V9h4Z"/>
      </g>
    </g>
  </g>
</svg>
