<svg xmlns="http://www.w3.org/2000/svg" width="48" height="48" viewBox="0 0 48 48">
  <title>user-group</title>
  <g id="Layer_2" data-name="Layer 2">
    <g id="invisible_box" data-name="invisible box">
      <rect width="48" height="48" fill="none"/>
    </g>
    <g id="icons_Q2" data-name="icons Q2">
      <path d="M15,24a9,9,0,1,0-9-9A9,9,0,0,0,15,24Zm0-14a5,5,0,1,1-5,5A5,5,0,0,1,15,10Z"/>
      <path d="M35,24a7,7,0,1,0-7-7A7,7,0,0,0,35,24Zm0-10a3,3,0,1,1-3,3A2.9,2.9,0,0,1,35,14Z"/>
      <path d="M46,29.4l-.9-.6a19.6,19.6,0,0,0-20.2,0l-.8.6A24.6,24.6,0,0,0,16,28,23.4,23.4,0,0,0,2.9,31.9l-.9.6V40a2,2,0,0,0,2,2H28a2,2,0,0,0,2-2V38H44a2,2,0,0,0,2-2ZM26,38H6V34.7A19.5,19.5,0,0,1,16,32a19.5,19.5,0,0,1,10,2.7Zm16-4H30V32.5l-.9-.6-.6-.4a15.3,15.3,0,0,1,13.5.2Z"/>
    </g>
  </g>
</svg>
