<svg xmlns="http://www.w3.org/2000/svg" width="48" height="48" viewBox="0 0 48 48">
  <g id="Layer_2" data-name="Layer 2">
    <g id="invisible_box" data-name="invisible box">
      <rect width="48" height="48" fill="none"/>
    </g>
    <g id="Layer_4" data-name="Layer 4">
      <path d="M45.4,22.6,42,19.3V5H33v6L25.4,3.6a1.9,1.9,0,0,0-2.8,0l-20,19a2,2,0,0,0,2.8,2.8l.6-.5V42a3,3,0,0,0,3,3H39a3,3,0,0,0,3-3V24.9l.6.5A2,2,0,0,0,45.4,22.6ZM24,17a5,5,0,1,1-5,5A5,5,0,0,1,24,17ZM34,39.8A1.3,1.3,0,0,1,32.6,41H15.4A1.3,1.3,0,0,1,14,39.8V34.9a1.4,1.4,0,0,1,.7-1.1,17,17,0,0,1,18.6,0,1.4,1.4,0,0,1,.7,1.1Z"/>
    </g>
  </g>
</svg>
