<svg xmlns="http://www.w3.org/2000/svg" width="48" height="48" viewBox="0 0 48 48">
  <g id="Layer_2" data-name="Layer 2">
    <g id="invisible_box" data-name="invisible box">
      <rect width="48" height="48" fill="none"/>
    </g>
    <g id="Layer_4" data-name="Layer 4">
      <g>
        <path d="M41.3,30l-5.5-2.9h-.1a3,3,0,0,0-3.4.6L24,35.9l-8.3-8.3a3,3,0,0,0-3.4-.6L6.7,30A3.1,3.1,0,0,0,5,32.7V43a3,3,0,0,0,3,3H40a3,3,0,0,0,3-3V32.7A3.1,3.1,0,0,0,41.3,30Z"/>
        <path d="M24,27A10.8,10.8,0,0,0,34.8,16.2V16H13.2v.2A10.8,10.8,0,0,0,24,27Z"/>
        <path d="M34.8,7.2a2.1,2.1,0,0,0-1.7-2.1L24,2,14.9,5.1a2.1,2.1,0,0,0-1.7,2.1V14H34.8ZM27,9H25v2a1,1,0,0,1-2,0V9H21a1,1,0,0,1,0-2h2V5a1,1,0,0,1,2,0V7h2a1,1,0,0,1,0,2Z"/>
      </g>
    </g>
  </g>
</svg>
