<svg xmlns="http://www.w3.org/2000/svg" width="48" height="48" viewBox="0 0 48 48">
  <title>user-add-solid</title>
  <g id="Layer_2" data-name="Layer 2">
    <g id="invisible_box" data-name="invisible box">
      <rect width="48" height="48" fill="none"/>
    </g>
    <g id="icons_Q2" data-name="icons Q2">
      <g>
        <path d="M16,14H12V10a2,2,0,0,0-4,0v4H4a2,2,0,0,0,0,4H8v4a2,2,0,0,0,4,0V18h4a2,2,0,0,0,0-4Z"/>
        <path d="M45,31.5a25.9,25.9,0,0,0-26,0l-1,.6V40a2,2,0,0,0,2,2H44a2,2,0,0,0,2-2V32.1Z"/>
        <path d="M32,24a9,9,0,1,0-9-9A9,9,0,0,0,32,24Z"/>
      </g>
    </g>
  </g>
</svg>
