<svg xmlns="http://www.w3.org/2000/svg" width="48" height="48" viewBox="0 0 48 48">
  <g id="Layer_2" data-name="Layer 2">
    <g id="invisible_box" data-name="invisible box">
      <rect width="48" height="48" fill="none"/>
    </g>
    <g id="Layer_4" data-name="Layer 4">
      <g>
        <circle cx="41" cy="35.5" r="1.5"/>
        <circle cx="44.5" cy="38.5" r="1.5"/>
        <circle cx="44.5" cy="32.5" r="1.5"/>
        <path d="M43.9,26.9a1.9,1.9,0,0,0-.3-1.8c-2-2.9-4.3-6.5-4.6-7.2C37.5,7.1,31.4,1.8,20.8,2c-6,.1-11,2.1-14.3,5.8s-4.8,8.5-4.4,14A17.2,17.2,0,0,0,6.2,32.6a11.3,11.3,0,0,1,2,10.5,2.5,2.5,0,0,0,.3,2.1A1.6,1.6,0,0,0,10,46H34a5,5,0,0,0,5-5v-.5A2.5,2.5,0,0,0,36.5,38h-5a2.5,2.5,0,0,1,0-5h5A2.5,2.5,0,0,0,39,30.5V29.1l3.6-1A2,2,0,0,0,43.9,26.9ZM28,20a2,2,0,1,1,2-2A2,2,0,0,1,28,20Z"/>
      </g>
    </g>
  </g>
</svg>
