<svg xmlns="http://www.w3.org/2000/svg" width="48" height="48" viewBox="0 0 48 48">
  <g id="Layer_2" data-name="Layer 2">
    <g id="invisible_box" data-name="invisible box">
      <rect width="48" height="48" fill="none"/>
    </g>
    <g id="Medical">
      <g>
        <path d="M43.9,25.9a1.9,1.9,0,0,0-.3-1.8A76.2,76.2,0,0,1,39,16.9C37.5,6.2,31.4,1.8,20.8,2c-6,.1-11,2.1-14.3,5.8s-4.8,8.5-4.4,14A16.7,16.7,0,0,0,6.3,32.6c2.5,3.3,2.9,6.8,1.8,10.9a1.9,1.9,0,0,0,1.4,2.4A2,2,0,0,0,12,44.5c1.4-5.5.6-10.3-2.6-14.4a13.3,13.3,0,0,1-3.3-8.6,14,14,0,0,1,3.3-11C12,7.6,16,6.1,20.9,6s12.6.2,14.2,11.4c.1,1.3,1.9,4.1,3.7,6.8l-2.2.8h-.3A2,2,0,0,0,35,27v2H31.5a5.5,5.5,0,0,0,0,11H35v1a.9.9,0,0,1-1,1H26a2,2,0,0,0,0,4h8a5,5,0,0,0,5-5V38.5A2.5,2.5,0,0,0,36.5,36h-5a1.5,1.5,0,0,1,0-3h5A2.5,2.5,0,0,0,39,30.5V28.4l3.6-1.2A2.1,2.1,0,0,0,43.9,25.9Z"/>
        <circle cx="28" cy="18" r="2"/>
        <circle cx="41" cy="34.5" r="1.5"/>
        <circle cx="44.5" cy="37.5" r="1.5"/>
        <circle cx="44.5" cy="31.5" r="1.5"/>
      </g>
    </g>
  </g>
</svg>
