<svg xmlns="http://www.w3.org/2000/svg" width="48" height="48" viewBox="0 0 48 48">
  <g id="Layer_2" data-name="Layer 2">
    <g id="invisible_box" data-name="invisible box">
      <rect width="48" height="48" fill="none"/>
    </g>
    <g id="Layer_4" data-name="Layer 4">
      <path d="M30.8,33H42.9l1.4-4H25V46H36.9a2.1,2.1,0,0,0,1.9-1.3l.9-2.7H30.5a1.5,1.5,0,0,1,0-3H40.8l1-3h-11a1.5,1.5,0,1,1,0-3ZM3,19.7a14.8,14.8,0,0,0,.1,2.1A17.2,17.2,0,0,0,7.2,32.6c2.6,3.3,3,6.8,1.9,10.9A2.2,2.2,0,0,0,11,46H21V28.7h0Zm36.9-1.8C38.4,7.1,32.3,1.8,21.7,2c-6,.1-10.9,2.1-14.2,5.8a16.8,16.8,0,0,0-4,7.7l19,9.5H44.4C43.9,24.2,40.1,18.6,39.9,17.9ZM28.9,20a2,2,0,1,1,2-2A2,2,0,0,1,28.9,20Z"/>
    </g>
  </g>
</svg>
