<svg xmlns="http://www.w3.org/2000/svg" width="48" height="48" viewBox="0 0 48 48">
  <g id="Layer_2" data-name="Layer 2">
    <g id="invisible_box" data-name="invisible box">
      <rect width="48" height="48" fill="none"/>
    </g>
    <g id="Layer_4" data-name="Layer 4">
      <g>
        <circle cx="17" cy="35.5" r="1.5"/>
        <path d="M43,32.5V43a2,2,0,0,1-2,2H7a2,2,0,0,1-2-2V32.5a3,3,0,0,1,1.7-2.8h.1l7.4-3.4a2.8,2.8,0,0,1,1.3-.3v5.3a4.6,4.6,0,0,0-3,4.2,4.5,4.5,0,0,0,9,0,4.6,4.6,0,0,0-3-4.2V27l.5.3a9.9,9.9,0,0,0,10,0l.5-.3v3.7A6,6,0,0,0,25,36.5V39a2.5,2.5,0,0,0,2.5,2.5h1a1.5,1.5,0,0,0,0-3H28v-2a3,3,0,0,1,6,0v2h-.5a1.5,1.5,0,0,0,0,3h1A2.5,2.5,0,0,0,37,39V36.5a6,6,0,0,0-4.5-5.8V26a2.8,2.8,0,0,1,1.3.3l7.5,3.4A3,3,0,0,1,43,32.5Z"/>
        <circle cx="24" cy="14" r="11"/>
      </g>
    </g>
  </g>
</svg>
