<svg xmlns="http://www.w3.org/2000/svg" width="48" height="48" viewBox="0 0 48 48">
  <title>user-data</title>
  <g id="Layer_2" data-name="Layer 2">
    <g id="invisible_box" data-name="invisible box">
      <rect width="48" height="48" fill="none"/>
    </g>
    <g id="Q3_icons" data-name="Q3 icons">
      <g>
        <circle cx="14" cy="31" r="2"/>
        <path d="M34,29H22a2,2,0,0,0,0,4H34a2,2,0,0,0,0-4Z"/>
        <circle cx="14" cy="37" r="2"/>
        <path d="M34,35H22a2,2,0,0,0,0,4H34a2,2,0,0,0,0-4Z"/>
        <path d="M24,14a6,6,0,1,0-6-6A6,6,0,0,0,24,14Zm0-8a2,2,0,1,1-2,2A2,2,0,0,1,24,6Z"/>
        <path d="M13,20v4a2,2,0,0,0,2,2H33a2,2,0,0,0,2-2V20a18,18,0,0,0-11-4A18,18,0,0,0,13,20Zm4.1,2A13.5,13.5,0,0,1,24,20a13.5,13.5,0,0,1,6.9,2Z"/>
        <path d="M41,2H36a2,2,0,0,0,0,4h4V42H8V6h4a2,2,0,0,0,0-4H7A2.9,2.9,0,0,0,4,5V43a2.9,2.9,0,0,0,3,3H41a2.9,2.9,0,0,0,3-3V5A2.9,2.9,0,0,0,41,2Z"/>
      </g>
    </g>
  </g>
</svg>
