<svg xmlns="http://www.w3.org/2000/svg" width="48" height="48" viewBox="0 0 48 48">
  <g id="Layer_2" data-name="Layer 2">
    <g id="invisible_box" data-name="invisible box">
      <rect width="48" height="48" fill="none"/>
    </g>
    <g id="Layer_4" data-name="Layer 4">
      <path d="M44.6,25.1c-2-2.9-4.3-6.5-4.6-7.2C38.5,7.1,32.4,1.8,21.8,2c-6,.1-11,2.1-14.3,5.8s-4.8,8.5-4.4,14A17.2,17.2,0,0,0,7.2,32.6a11.3,11.3,0,0,1,2,10.5,2.5,2.5,0,0,0,.3,2.1A1.6,1.6,0,0,0,11,46H29.8a2,2,0,0,0,2-2V41.2c2.4,0,5.1-.3,6.8-1.9s1.8-4.6,1.7-8.7V29.3l3.3-1.2a1.9,1.9,0,0,0,1-3ZM31.3,22l-2,.5a1.7,1.7,0,0,0-1.1,1.1,1.6,1.6,0,0,0,.1,1.5l.9,1.8a.9.9,0,0,1-1.3,1.3l-1.8-.9a1.6,1.6,0,0,0-1.5-.1,1.7,1.7,0,0,0-1.1,1.2L23,30.3a1.1,1.1,0,0,1-2,0l-.5-2a1.7,1.7,0,0,0-1.1-1.1,1.6,1.6,0,0,0-1.5.1l-1.8.9a.9.9,0,0,1-1.3-1.3l.9-1.8a1.6,1.6,0,0,0,.1-1.5,1.7,1.7,0,0,0-1.2-1.1L12.7,22a1.1,1.1,0,0,1,0-2l2-.5a1.7,1.7,0,0,0,1.1-1.1,1.6,1.6,0,0,0-.1-1.5l-.9-1.8a.9.9,0,0,1,1.3-1.3l1.8.9a1.6,1.6,0,0,0,1.5.1,1.7,1.7,0,0,0,1.1-1.2l.5-1.9a1.1,1.1,0,0,1,2,0l.5,1.9a1.7,1.7,0,0,0,1.1,1.2,1.6,1.6,0,0,0,1.5-.1l1.8-.9a.9.9,0,0,1,1.3,1.3l-.9,1.8a1.6,1.6,0,0,0-.1,1.5,1.7,1.7,0,0,0,1.2,1.1l1.9.5a1.1,1.1,0,0,1,0,2Zm-6.8-.5a1,1,0,1,0,1,1A1,1,0,0,0,24.5,21.5Zm-4-4a2,2,0,1,0,2,2A2,2,0,0,0,20.5,17.5Z"/>
    </g>
  </g>
</svg>
