<svg xmlns="http://www.w3.org/2000/svg" width="48" height="48" viewBox="0 0 48 48">
  <title>user-location</title>
  <g id="Layer_2" data-name="Layer 2">
    <g id="invisible_box" data-name="invisible box">
      <rect width="48" height="48" fill="none"/>
    </g>
    <g id="icons_Q2" data-name="icons Q2">
      <path d="M23.8,14a3,3,0,0,1,0,6,3,3,0,1,1,0-6m0-4a7,7,0,1,0,7,7,7,7,0,0,0-7-7Z"/>
      <path d="M24,2C14.1,2,7,10.1,7,20S18.5,41.3,22.6,45.4a1.9,1.9,0,0,0,2.8,0C29.5,41.3,41,30.1,41,20S33.9,2,24,2ZM11,20c0-8,5.6-14,13-14s13,6,13,14c0,3.3-1.7,6.9-3.9,10.3A18.6,18.6,0,0,0,24,28a18.6,18.6,0,0,0-9.1,2.3C12.7,26.9,11,23.3,11,20ZM24,41.2a96.5,96.5,0,0,1-6.7-7.6,14.8,14.8,0,0,1,13.4,0A96.5,96.5,0,0,1,24,41.2Z"/>
    </g>
  </g>
</svg>
