<svg xmlns="http://www.w3.org/2000/svg" width="48" height="48" viewBox="0 0 48 48">
  <g id="Layer_2" data-name="Layer 2">
    <g id="invisible_box" data-name="invisible box">
      <rect width="48" height="48" fill="none"/>
    </g>
    <g id="Medical">
      <g>
        <path d="M44.6,25.1A76.2,76.2,0,0,1,40,17.9C38.5,7.1,32.4,1.8,21.8,2c-6,.1-11,2.1-14.3,5.8s-4.8,8.5-4.4,14A16.7,16.7,0,0,0,7.3,32.6c2.5,3.3,2.9,6.8,1.8,10.9a1.9,1.9,0,0,0,1.4,2.4A2,2,0,0,0,13,44.5c1.4-5.5.6-10.3-2.6-14.4a13.3,13.3,0,0,1-3.3-8.6,14,14,0,0,1,3.3-11C13,7.6,17,6.1,21.9,6S34.5,7.2,36.1,18.4c.1,1.3,1.9,4.1,3.7,6.8l-2.2.8a1.9,1.9,0,0,0-1.3,1.9v2.8c0,2.9.1,5.1-.6,5.8s-1.8.7-4,.7a3.9,3.9,0,0,0-3.9,3.9v2.8a2,2,0,0,0,4,0V41.2c2.4,0,5.1-.3,6.8-1.9s1.8-4.6,1.7-8.6V29.3l3.3-1.1a2.1,2.1,0,0,0,1.3-1.3A1.9,1.9,0,0,0,44.6,25.1Z"/>
        <path d="M29.1,28.1a.9.9,0,0,0,.1-1.2l-.9-1.8a1.6,1.6,0,0,1-.1-1.5,1.7,1.7,0,0,1,1.1-1.1l2-.5a1.1,1.1,0,0,0,0-2l-1.9-.5a1.7,1.7,0,0,1-1.2-1.1,1.6,1.6,0,0,1,.1-1.5l.9-1.8a.9.9,0,0,0-1.3-1.3l-1.8.9a1.6,1.6,0,0,1-1.5.1,1.7,1.7,0,0,1-1.1-1.2L23,11.7a1.1,1.1,0,0,0-2,0l-.5,1.9a1.7,1.7,0,0,1-1.1,1.2,1.6,1.6,0,0,1-1.5-.1l-1.8-.9a.9.9,0,0,0-1.3,1.3l.9,1.8a1.6,1.6,0,0,1,.1,1.5,1.7,1.7,0,0,1-1.1,1.1l-2,.5a1.1,1.1,0,0,0,0,2l1.9.5a1.7,1.7,0,0,1,1.2,1.1,1.6,1.6,0,0,1-.1,1.5l-.9,1.8a.9.9,0,0,0,1.3,1.3l1.8-.9a1.6,1.6,0,0,1,1.5-.1,1.7,1.7,0,0,1,1.1,1.2l.5,1.9a1.1,1.1,0,0,0,2,0l.5-1.9a1.7,1.7,0,0,1,1.1-1.2,1.6,1.6,0,0,1,1.5.1l1.8.9A.9.9,0,0,0,29.1,28.1Zm-8.6-6.6a2,2,0,1,1,2-2A2,2,0,0,1,20.5,21.5Zm4,2a1,1,0,1,1,1-1A1,1,0,0,1,24.5,23.5Z"/>
      </g>
    </g>
  </g>
</svg>
