<svg xmlns="http://www.w3.org/2000/svg" width="48" height="48" viewBox="0 0 48 48">
  <title>user-id</title>
  <g id="Layer_2" data-name="Layer 2">
    <g id="invisible_box" data-name="invisible box">
      <rect width="48" height="48" fill="none"/>
    </g>
    <g id="icons_Q2" data-name="icons Q2">
      <g>
        <path d="M38,6H29.9V4a2,2,0,0,0-2-2h-8a2,2,0,0,0-2,2V6H10A2,2,0,0,0,8,8V44a2,2,0,0,0,2,2H38a2,2,0,0,0,2-2V8A2,2,0,0,0,38,6ZM36,42H12V39.2a24.1,24.1,0,0,1,24,0Zm0-7.3a28,28,0,0,0-24,0V10H22V6h4v4H36Z"/>
        <path d="M16,22a8,8,0,1,0,8-8A8,8,0,0,0,16,22Zm12,0a4,4,0,1,1-4-4A4,4,0,0,1,28,22Z"/>
      </g>
    </g>
  </g>
</svg>
