<svg xmlns="http://www.w3.org/2000/svg" width="48" height="48" viewBox="0 0 48 48">
  <g id="Layer_2" data-name="Layer 2">
    <g id="invisible_box" data-name="invisible box">
      <rect width="48" height="48" fill="none"/>
    </g>
    <g id="Medical">
      <g>
        <path d="M41.3,29.7l-7.5-3.4a4.2,4.2,0,0,0-3.3.1l-1.5.9a9.9,9.9,0,0,1-10,0l-1.4-.8h-.1a4.2,4.2,0,0,0-3.3-.1L6.8,29.7H6.7A3,3,0,0,0,5,32.5V43a2,2,0,0,0,4,0V33l6.5-2.9v4.7a4.5,4.5,0,1,0,3,0V31.5a14,14,0,0,0,11,0v2.7A6,6,0,0,0,25,40v2.5A2.5,2.5,0,0,0,27.5,45h1a1.5,1.5,0,0,0,0-3H28V40a3,3,0,0,1,6,0v2h-.5a1.5,1.5,0,0,0,0,3h1A2.5,2.5,0,0,0,37,42.5V40a6,6,0,0,0-4.5-5.8V30.1L39,33V43a2,2,0,0,0,4,0V32.5A3,3,0,0,0,41.3,29.7ZM17,40.5A1.5,1.5,0,1,1,18.5,39,1.5,1.5,0,0,1,17,40.5Z"/>
        <path d="M24,25A11,11,0,1,0,13,14,11,11,0,0,0,24,25ZM24,7a7,7,0,1,1-7,7A7,7,0,0,1,24,7Z"/>
      </g>
    </g>
  </g>
</svg>
