<svg xmlns="http://www.w3.org/2000/svg" width="48" height="48" viewBox="0 0 48 48">
  <g id="Layer_2" data-name="Layer 2">
    <g id="invisible_box" data-name="invisible box">
      <rect width="48" height="48" fill="none"/>
    </g>
    <g id="Medical">
      <g>
        <path d="M44.5,25.1s-4.4-6.5-4.6-7.2C38.4,7.2,32.3,1.8,21.7,2c-6,.1-10.9,2.1-14.3,5.8s-4.7,8.5-4.3,14A17.2,17.2,0,0,0,7.2,32.6c2.6,3.3,3,6.8,1.9,10.9a1.9,1.9,0,0,0,1.4,2.4,1.9,1.9,0,0,0,2.4-1.4c1.5-5.5.6-10.3-2.5-14.4a12.9,12.9,0,0,1-3.3-8.3l12.8,6.4V44a2,2,0,0,0,2,2h15a2.1,2.1,0,0,0,1.9-1.3l5.9-17A2.4,2.4,0,0,0,44.5,25.1ZM7.2,17.4a13.4,13.4,0,0,1,3.2-6.9C13,7.6,16.9,6.1,21.8,6S34.4,7.2,36,18.4c.1,1.2,1.8,4,3.6,6.6H22.4Zm32,14.1H29.4a1.5,1.5,0,0,0,0,3h8.7l-.7,2h-8a1.5,1.5,0,0,0,0,3h6.9L35.5,42H23.9V29H40Z"/>
        <path d="M28.9,16a2,2,0,1,0,2,2A2,2,0,0,0,28.9,16Z"/>
      </g>
    </g>
  </g>
</svg>
