<svg xmlns="http://www.w3.org/2000/svg" width="48" height="48" viewBox="0 0 48 48">
  <title>user-org-chart</title>
  <g id="Layer_2" data-name="Layer 2">
    <g id="invisible_box" data-name="invisible box">
      <rect width="48" height="48" fill="none"/>
    </g>
    <g id="icons_Q2" data-name="icons Q2">
      <g>
        <path d="M24,15a6,6,0,1,0-6-6A6,6,0,0,0,24,15Zm0-8a2,2,0,1,1-2,2A2,2,0,0,1,24,7Z"/>
        <path d="M40,33H26V27h7a2,2,0,0,0,2-2V21a18,18,0,0,0-11-4,18,18,0,0,0-11,4v4a2,2,0,0,0,2,2h7v6H8a2,2,0,0,0-2,2v8a2,2,0,0,0,4,0V37H22v6a2,2,0,0,0,4,0V37H38v6a2,2,0,0,0,4,0V35A2,2,0,0,0,40,33ZM24,21a13.5,13.5,0,0,1,6.9,2H17.1A13.5,13.5,0,0,1,24,21Z"/>
      </g>
    </g>
  </g>
</svg>
