<svg xmlns="http://www.w3.org/2000/svg" width="48" height="48" viewBox="0 0 48 48">
  <title>user-secure-solid</title>
  <g id="Layer_2" data-name="Layer 2">
    <g id="invisible_box" data-name="invisible box">
      <rect width="48" height="48" fill="none"/>
    </g>
    <g id="icons_Q2" data-name="icons Q2">
      <path d="M24,2S6,7.1,6,8V26.2c0,9.2,13.3,17.3,17,19.5a1.8,1.8,0,0,0,2,0c3.8-2.1,17-10.3,17-19.5V8C42,7.1,24,2,24,2Zm0,8a8,8,0,1,1-8,8A8,8,0,0,1,24,10Zm0,31.6a54,54,0,0,1-8.4-6.1,24.3,24.3,0,0,1,16.8,0A44.7,44.7,0,0,1,24,41.6Z"/>
    </g>
  </g>
</svg>
