<svg xmlns="http://www.w3.org/2000/svg" width="48" height="48" viewBox="0 0 48 48">
  <title>user-single</title>
  <g id="Layer_2" data-name="Layer 2">
    <g id="invisible_box" data-name="invisible box">
      <rect width="48" height="48" fill="none"/>
    </g>
    <g id="icons_Q2" data-name="icons Q2">
      <path d="M24,3A11,11,0,1,0,35,14,11,11,0,0,0,24,3Zm0,18a7,7,0,1,1,7-7A7,7,0,0,1,24,21ZM41.1,34A31.3,31.3,0,0,0,24,29,32.1,32.1,0,0,0,6.9,33.9l-.9.6V43a2,2,0,0,0,2,2H40a2,2,0,0,0,2-2V34.5ZM38,41H10V36.7A28.4,28.4,0,0,1,24,33a27.5,27.5,0,0,1,14,3.8Z"/>
    </g>
  </g>
</svg>
