<svg xmlns="http://www.w3.org/2000/svg" width="48" height="48" viewBox="0 0 48 48">
  <title>value-minimum-solid</title>
  <g id="Layer_2" data-name="Layer 2">
    <g id="invisible_box" data-name="invisible box">
      <rect width="48" height="48" fill="none"/>
      <rect width="48" height="48" fill="none"/>
      <rect width="48" height="48" fill="none"/>
    </g>
    <g id="Q3_icons" data-name="Q3 icons">
      <path d="M42,4H6A2,2,0,0,0,4,6V42a2,2,0,0,0,2,2h4V40h4v4h2V40h4v4h2V40h4v4h2V40h4v4h2V40h4v4h4a2,2,0,0,0,2-2V6A2,2,0,0,0,42,4ZM31.3,29.5l-5.9,5.9a1.9,1.9,0,0,1-2.8,0l-5.9-5.9a2.2,2.2,0,0,1-.4-2.7,2,2,0,0,1,3.1-.2L22,29.2V14a2,2,0,0,1,4,0V29.2l2.6-2.6a2,2,0,0,1,3.1.2A2.2,2.2,0,0,1,31.3,29.5Z"/>
    </g>
  </g>
</svg>
