<svg xmlns="http://www.w3.org/2000/svg" width="48" height="48" viewBox="0 0 48 48">
  <title>value-average</title>
  <g id="Layer_2" data-name="Layer 2">
    <g id="invisible_box" data-name="invisible box">
      <rect width="48" height="48" fill="none"/>
    </g>
    <g id="Q3_icons" data-name="Q3 icons">
      <g>
        <path d="M41,4H7A2.9,2.9,0,0,0,4,7V41a2.9,2.9,0,0,0,3,3H41a2.9,2.9,0,0,0,3-3V7A2.9,2.9,0,0,0,41,4ZM40,40H8V8H40Z"/>
        <path d="M14,16H34a2,2,0,0,0,0-4H14a2,2,0,0,0,0,4Z"/>
        <path d="M27.3,19.8v-.2a4,4,0,0,0-6.4,0L13.3,33a2,2,0,0,0,3.4,2l1.7-3H29.6l1.7,3a2,2,0,1,0,3.4-2ZM20.7,28,24,22.1,27.3,28Z"/>
      </g>
    </g>
  </g>
</svg>
