<svg xmlns="http://www.w3.org/2000/svg" width="48" height="48" viewBox="0 0 48 48">
  <title>value-exclude-solid</title>
  <g id="Layer_2" data-name="Layer 2">
    <g id="invisible_box" data-name="invisible box">
      <rect width="48" height="48" fill="none"/>
    </g>
    <g id="Q3_icons" data-name="Q3 icons">
      <path d="M41,4H7A2.9,2.9,0,0,0,4,7V41a2.9,2.9,0,0,0,3,3H41a2.9,2.9,0,0,0,3-3V7A2.9,2.9,0,0,0,41,4ZM24,36a2,2,0,1,1,2-2A2,2,0,0,1,24,36Zm2-10a2,2,0,0,1-4,0V14a2,2,0,0,1,4,0Z"/>
    </g>
  </g>
</svg>
