<svg xmlns="http://www.w3.org/2000/svg" width="48" height="48" viewBox="0 0 48 48">
  <title>value-all</title>
  <g id="Layer_2" data-name="Layer 2">
    <g id="invisible_box" data-name="invisible box">
      <rect width="48" height="48" fill="none"/>
    </g>
    <g id="Q3_icons" data-name="Q3 icons">
      <g>
        <path d="M41,4H7A2.9,2.9,0,0,0,4,7V41a2.9,2.9,0,0,0,3,3H41a2.9,2.9,0,0,0,3-3V7A2.9,2.9,0,0,0,41,4ZM40,40H8V8H40Z"/>
        <path d="M13.6,30a1.9,1.9,0,0,0,2.7.7L22,27.5V34a2,2,0,0,0,4,0V27.5l5.7,3.2a1.9,1.9,0,0,0,2.7-.7,2,2,0,0,0-.7-2.7L28,24l5.7-3.3a2,2,0,0,0,.7-2.7,1.9,1.9,0,0,0-2.7-.7L26,20.5V14a2,2,0,0,0-4,0v6.5l-5.7-3.2a1.9,1.9,0,0,0-2.7.7,2,2,0,0,0,.7,2.7L20,24l-5.7,3.3A2,2,0,0,0,13.6,30Z"/>
      </g>
    </g>
  </g>
</svg>
