<svg xmlns="http://www.w3.org/2000/svg" width="48" height="48" viewBox="0 0 48 48">
  <title>value-sum</title>
  <g id="Layer_2" data-name="Layer 2">
    <g id="invisible_box" data-name="invisible box">
      <rect width="48" height="48" fill="none"/>
    </g>
    <g id="Q3_icons" data-name="Q3 icons">
      <g>
        <path d="M15,36H33a2,2,0,0,0,2-2V30H31.1v2H19.7l6.4-6.6a2.1,2.1,0,0,0,0-2.8L19.7,16H31.1v2H35V14a2,2,0,0,0-2-2H15a2,2,0,0,0-1.4,3.4L22,24l-8.4,8.6A2,2,0,0,0,15,36Z"/>
        <path d="M41,4H7A2.9,2.9,0,0,0,4,7V41a2.9,2.9,0,0,0,3,3H41a2.9,2.9,0,0,0,3-3V7A2.9,2.9,0,0,0,41,4ZM40,40H8V8H40Z"/>
      </g>
    </g>
  </g>
</svg>
