<svg xmlns="http://www.w3.org/2000/svg" width="48" height="48" viewBox="0 0 48 48">
  <title>value-all-solid</title>
  <g id="Layer_2" data-name="Layer 2">
    <g id="invisible_box" data-name="invisible box">
      <rect width="48" height="48" fill="none"/>
    </g>
    <g id="Q3_icons" data-name="Q3 icons">
      <path d="M41,4H7A2.9,2.9,0,0,0,4,7V41a2.9,2.9,0,0,0,3,3H41a2.9,2.9,0,0,0,3-3V7A2.9,2.9,0,0,0,41,4ZM33.7,27.3a2,2,0,0,1,.7,2.7,1.9,1.9,0,0,1-2.7.7L26,27.5V34a2,2,0,0,1-4,0V27.5l-5.7,3.2a1.9,1.9,0,0,1-2.7-.7,2,2,0,0,1,.7-2.7L20,24l-5.7-3.3a2,2,0,0,1-.7-2.7,1.9,1.9,0,0,1,2.7-.7L22,20.5V14a2,2,0,0,1,4,0v6.5l5.7-3.2a1.9,1.9,0,0,1,2.7.7,2,2,0,0,1-.7,2.7L28,24Z"/>
    </g>
  </g>
</svg>
