<svg xmlns="http://www.w3.org/2000/svg" width="48" height="48" viewBox="0 0 48 48">
  <title>value-average-solid</title>
  <g id="Layer_2" data-name="Layer 2">
    <g id="invisible_box" data-name="invisible box">
      <rect width="48" height="48" fill="none"/>
    </g>
    <g id="Q3_icons" data-name="Q3 icons">
      <path d="M41,4H7A2.9,2.9,0,0,0,4,7V41a2.9,2.9,0,0,0,3,3H41a2.9,2.9,0,0,0,3-3V7A2.9,2.9,0,0,0,41,4ZM34,35.7a1.9,1.9,0,0,1-2.7-.7l-1.7-3H18.4l-1.7,3a2,2,0,0,1-3.4-2l7.5-13.4a4,4,0,0,1,6.4,0v.2L34.7,33A1.9,1.9,0,0,1,34,35.7ZM34,16H14a2,2,0,0,1,0-4H34a2,2,0,0,1,0,4ZM20.7,28h6.6L24,22.1Z"/>
    </g>
  </g>
</svg>
