<svg xmlns="http://www.w3.org/2000/svg" width="48" height="48" viewBox="0 0 48 48">
  <title>value-minimum</title>
  <g id="Layer_2" data-name="Layer 2">
    <g id="invisible_box" data-name="invisible box">
      <rect width="48" height="48" fill="none"/>
      <rect width="48" height="48" fill="none"/>
      <rect width="48" height="48" fill="none"/>
    </g>
    <g id="Q3_icons" data-name="Q3 icons">
      <g>
        <path d="M42,44h0a2,2,0,0,1-2-2V8H8V42a2,2,0,0,1-2,2H6a2,2,0,0,1-2-2V6A2,2,0,0,1,6,4H42a2,2,0,0,1,2,2V42A2,2,0,0,1,42,44Z"/>
        <circle cx="18" cy="42" r="2"/>
        <circle cx="12" cy="42" r="2"/>
        <circle cx="24" cy="42" r="2"/>
        <circle cx="30" cy="42" r="2"/>
        <circle cx="36" cy="42" r="2"/>
        <path d="M16.6,29.5l6,5.9a1.9,1.9,0,0,0,2.8,0l6-5.9a2.1,2.1,0,0,0,.2-2.7,1.9,1.9,0,0,0-3-.2L26,29.2V14a2,2,0,0,0-4,0V29.2l-2.6-2.6a1.9,1.9,0,0,0-3,.2A2.1,2.1,0,0,0,16.6,29.5Z"/>
      </g>
    </g>
  </g>
</svg>
