<svg xmlns="http://www.w3.org/2000/svg" width="48" height="48" viewBox="0 0 48 48">
  <title>value-maximum-solid</title>
  <g id="Layer_2" data-name="Layer 2">
    <g id="invisible_box" data-name="invisible box">
      <rect width="48" height="48" fill="none"/>
    </g>
    <g id="Q3_icons" data-name="Q3 icons">
      <path d="M6,44H42a2,2,0,0,0,2-2V6a2,2,0,0,0-2-2H38V8H34V4H32V8H28V4H26V8H22V4H20V8H16V4H14V8H10V4H6A2,2,0,0,0,4,6V42A2,2,0,0,0,6,44ZM16.7,18.5l5.9-5.9a1.9,1.9,0,0,1,2.8,0l5.9,5.9a2.2,2.2,0,0,1,.4,2.7,2,2,0,0,1-3.1.2L26,18.8V34a2,2,0,0,1-4,0V18.8l-2.6,2.6a2,2,0,0,1-3.1-.2A2.2,2.2,0,0,1,16.7,18.5Z"/>
    </g>
  </g>
</svg>
