<svg xmlns="http://www.w3.org/2000/svg" width="48" height="48" viewBox="0 0 48 48">
  <g id="Layer_2" data-name="Layer 2">
    <g id="invisible_box" data-name="invisible box">
      <rect width="48" height="48" fill="none"/>
    </g>
    <g id="Layer_4" data-name="Layer 4">
      <g>
        <path d="M35.6,28.3a2.5,2.5,0,0,1,1.9-1.7l4-1.2a2,2,0,0,0,0-3.8l-4-1.2a2.7,2.7,0,0,1-1.9-1.7,3,3,0,0,1,.1-2.6l2.1-3.7a1.9,1.9,0,0,0-.4-2.3A2,2,0,0,0,35,9.7l-3.6,2.1a3,3,0,0,1-2.6.1A2.7,2.7,0,0,1,27.1,10L25.9,5.9a2,2,0,0,0-3.8,0L20.9,10a2.7,2.7,0,0,1-1.7,1.9Z"/>
        <path d="M8.4,5.6A2,2,0,0,0,5.6,8.4L11,13.8l1.3,2.3a3,3,0,0,1,.1,2.6,2.7,2.7,0,0,1-1.9,1.7l-4,1.2a2,2,0,0,0,0,3.8l4,1.2a2.7,2.7,0,0,1,1.9,1.7,3,3,0,0,1-.1,2.6l-2.1,3.7a1.9,1.9,0,0,0,.4,2.3,2,2,0,0,0,2.4.4l3.6-2.1a3,3,0,0,1,2.6-.1A2.7,2.7,0,0,1,20.9,37l1.2,4.1a2,2,0,0,0,3.8,0L27.1,37a2.7,2.7,0,0,1,1.7-1.9,3,3,0,0,1,2.6.1l2.3,1.3,5.9,5.9a1.9,1.9,0,0,0,2.8,0,1.9,1.9,0,0,0,0-2.8Z"/>
      </g>
    </g>
  </g>
</svg>
