<svg xmlns="http://www.w3.org/2000/svg" width="48" height="48" viewBox="0 0 48 48">
  <g id="Layer_2" data-name="Layer 2">
    <g id="invisible_box" data-name="invisible box">
      <rect width="48" height="48" fill="none"/>
    </g>
    <g id="Layer_4" data-name="Layer 4">
      <path d="M44.5,22.1l-4.7-1.4a3.7,3.7,0,0,1-2.5-2.2,3.5,3.5,0,0,1,.2-3.3l2.4-4.4a2.1,2.1,0,0,0-.3-2.4,2.1,2.1,0,0,0-2.4-.3l-4.4,2.4a3.5,3.5,0,0,1-3.3.2,3.7,3.7,0,0,1-2.2-2.5L25.9,3.4a2,2,0,0,0-3.8,0L20.7,8.2a3.7,3.7,0,0,1-2.2,2.5,3.5,3.5,0,0,1-3.3-.2L10.8,8.1a2.1,2.1,0,0,0-2.4.3,2.1,2.1,0,0,0-.3,2.4l2.4,4.4a3.5,3.5,0,0,1,.2,3.3,3.7,3.7,0,0,1-2.5,2.2L3.5,22.1a2,2,0,0,0,0,3.8l4.7,1.4a3.7,3.7,0,0,1,2.5,2.2,3.5,3.5,0,0,1-.2,3.3L8.1,37.2a2.1,2.1,0,0,0,.3,2.4,2.1,2.1,0,0,0,2.4.3l4.4-2.4a3.5,3.5,0,0,1,3.3-.2,3.5,3.5,0,0,1,2.2,2.5l1.4,4.8a2,2,0,0,0,3.8,0l1.4-4.8a3.8,3.8,0,0,1,5.5-2.3l4.4,2.4a2,2,0,0,0,2.7-2.7l-2.4-4.4a3.5,3.5,0,0,1-.2-3.3,3.7,3.7,0,0,1,2.5-2.2l4.7-1.4a2,2,0,0,0,0-3.8ZM21,25a4,4,0,1,1,4-4A4,4,0,0,1,21,25Zm8,6a2,2,0,1,1,2-2A2,2,0,0,1,29,31Z"/>
    </g>
  </g>
</svg>
