<svg xmlns="http://www.w3.org/2000/svg" width="48" height="48" viewBox="0 0 48 48">
  <g id="Layer_2" data-name="Layer 2">
    <g id="invisible_box" data-name="invisible box">
      <rect width="48" height="48" fill="none"/>
    </g>
    <g id="Layer_4" data-name="Layer 4">
      <g>
        <path d="M27.9,17.1,25,16.2a1.9,1.9,0,0,1-1.2-1.1,1.9,1.9,0,0,1,0-1.8l1.5-2.6A1.6,1.6,0,0,0,25,8.9a1.5,1.5,0,0,0-1.7-.2l-2.6,1.4a1.9,1.9,0,0,1-1.8.1,1.6,1.6,0,0,1-1.1-1.3l-.9-2.8A1.3,1.3,0,0,0,15.5,5a1.3,1.3,0,0,0-1.4,1.1l-.9,2.8a1.6,1.6,0,0,1-1.1,1.3,1.9,1.9,0,0,1-1.8-.1L7.7,8.7A1.5,1.5,0,0,0,6,8.9a1.6,1.6,0,0,0-.3,1.8l1.5,2.6a1.9,1.9,0,0,1,0,1.8A1.9,1.9,0,0,1,6,16.2l-2.9.9A1.3,1.3,0,0,0,2,18.5a1.3,1.3,0,0,0,1.1,1.4l2.9.9a1.6,1.6,0,0,1,1.2,1.1,1.7,1.7,0,0,1,0,1.7L5.7,26.3A1.6,1.6,0,0,0,6,28.1a1.5,1.5,0,0,0,1.7.2l2.6-1.5a2.3,2.3,0,0,1,1.8,0,1.6,1.6,0,0,1,1.1,1.3l.9,2.8A1.3,1.3,0,0,0,15.5,32a1.3,1.3,0,0,0,1.4-1.1l.9-2.8a1.6,1.6,0,0,1,1.1-1.3,2.3,2.3,0,0,1,1.8,0l2.6,1.5a1.5,1.5,0,0,0,1.7-.2,1.6,1.6,0,0,0,.3-1.8l-1.5-2.6a1.9,1.9,0,0,1,0-1.8A1.6,1.6,0,0,1,25,20.8l2.9-.9A1.3,1.3,0,0,0,29,18.5,1.3,1.3,0,0,0,27.9,17.1ZM13.5,19.5a3.1,3.1,0,0,1-3-3,3,3,0,0,1,6,0A3.1,3.1,0,0,1,13.5,19.5Zm4.5,3A1.5,1.5,0,1,1,19.5,21,1.5,1.5,0,0,1,18,22.5Z"/>
        <path d="M45.3,32l-1.9-.5a1.9,1.9,0,0,1-1.2-1.1,1.6,1.6,0,0,1,.1-1.5l.9-1.8a.9.9,0,0,0-1.3-1.3l-1.8.9a1.6,1.6,0,0,1-1.5.1,1.7,1.7,0,0,1-1.1-1.2L37,23.7a1.1,1.1,0,0,0-2,0l-.5,1.9a1.7,1.7,0,0,1-1.1,1.2,1.6,1.6,0,0,1-1.5-.1l-1.8-.9a.9.9,0,0,0-1.3,1.3l.9,1.8a1.6,1.6,0,0,1,.1,1.5,1.9,1.9,0,0,1-1.2,1.1l-1.9.5a1.1,1.1,0,0,0,0,2l1.9.5a1.9,1.9,0,0,1,1.2,1.1,1.6,1.6,0,0,1-.1,1.5l-.9,1.8a.9.9,0,0,0,1.3,1.3l1.8-.9a1.6,1.6,0,0,1,1.5-.1,1.7,1.7,0,0,1,1.1,1.2l.5,1.9a1.1,1.1,0,0,0,2,0l.5-1.9a1.7,1.7,0,0,1,1.1-1.2,1.6,1.6,0,0,1,1.5.1l1.8.9a.9.9,0,0,0,1.3-1.3l-.9-1.8a1.6,1.6,0,0,1-.1-1.5,1.9,1.9,0,0,1,1.2-1.1l1.9-.5a1.1,1.1,0,0,0,0-2ZM34,34a2,2,0,1,1,2-2A2,2,0,0,1,34,34Zm4,2a1,1,0,1,1,1-1A1,1,0,0,1,38,36Z"/>
      </g>
    </g>
  </g>
</svg>
