<svg xmlns="http://www.w3.org/2000/svg" width="48" height="48" viewBox="0 0 48 48">
  <g id="Layer_2" data-name="Layer 2">
    <g id="invisible_box" data-name="invisible box">
      <rect width="48" height="48" fill="none"/>
    </g>
    <g id="Medical">
      <g>
        <path d="M44.6,22.1l-4.8-1.4a3.5,3.5,0,0,1-2.5-2.2,3.5,3.5,0,0,1,.2-3.3l2.4-4.4a2.1,2.1,0,0,0-.3-2.4,2.1,2.1,0,0,0-2.4-.3l-4.4,2.4a3.5,3.5,0,0,1-3.3.2,3.5,3.5,0,0,1-2.2-2.5L25.9,3.5a2,2,0,0,0-3.8,0L20.7,8.2a3.5,3.5,0,0,1-2.2,2.5,3.5,3.5,0,0,1-3.3-.2L10.8,8.1a2.1,2.1,0,0,0-2.4.3,2.1,2.1,0,0,0-.3,2.4l2.4,4.4a3.5,3.5,0,0,1,.2,3.3,3.5,3.5,0,0,1-2.5,2.2L3.4,22.1a2,2,0,0,0,0,3.8l4.8,1.4a3.5,3.5,0,0,1,2.5,2.2,3.5,3.5,0,0,1-.2,3.3L8.1,37.2a2.1,2.1,0,0,0,.3,2.4,2.1,2.1,0,0,0,2.4.3l4.4-2.4a3.5,3.5,0,0,1,3.3-.2,3.5,3.5,0,0,1,2.2,2.5l1.4,4.7a2,2,0,0,0,3.8,0l1.4-4.7a3.8,3.8,0,0,1,5.5-2.3l4.4,2.4a2,2,0,0,0,2.7-2.7l-2.4-4.4a3.8,3.8,0,0,1,2.3-5.5l4.8-1.4a2,2,0,0,0,0-3.8ZM33.6,28a7.7,7.7,0,0,0-.2,5.4,7.7,7.7,0,0,0-5.4.2,7.3,7.3,0,0,0-4,3.7,7.3,7.3,0,0,0-4-3.7,7.7,7.7,0,0,0-3-.6,6.7,6.7,0,0,0-2.4.4,7.7,7.7,0,0,0-.2-5.4,7.3,7.3,0,0,0-3.7-4,7.3,7.3,0,0,0,3.7-4,7.7,7.7,0,0,0,.2-5.4,7.7,7.7,0,0,0,5.4-.2,7.3,7.3,0,0,0,4-3.7,7.3,7.3,0,0,0,4,3.7,7.7,7.7,0,0,0,5.4.2,7.7,7.7,0,0,0,.2,5.4,7.3,7.3,0,0,0,3.7,4A7.3,7.3,0,0,0,33.6,28Z"/>
        <circle cx="22" cy="22" r="4"/>
        <circle cx="28" cy="28" r="2"/>
      </g>
    </g>
  </g>
</svg>
