<svg xmlns="http://www.w3.org/2000/svg" width="48" height="48" viewBox="0 0 48 48">
  <g id="Layer_2" data-name="Layer 2">
    <g id="invisible_box" data-name="invisible box">
      <rect width="48" height="48" fill="none"/>
    </g>
    <g id="Layer_6" data-name="Layer 6">
      <g>
        <path d="M45.7,41,25.7,5a2,2,0,0,0-3.4,0L2.3,41A2,2,0,0,0,4,44H44A2,2,0,0,0,45.7,41ZM24,40H7.5L24,10,40.6,40Z"/>
        <path d="M18,30h4l-2.5,7.4c-.2.4.4.8.8.5l8.5-10.3A1,1,0,0,0,28,26H24l2.5-7.4c.2-.4-.4-.8-.8-.5L17.2,28.4A1,1,0,0,0,18,30Z"/>
      </g>
    </g>
  </g>
</svg>
