<svg xmlns="http://www.w3.org/2000/svg" width="48" height="48" viewBox="0 0 48 48">
  <title>volume-off</title>
  <g id="Layer_2" data-name="Layer 2">
    <g id="invisible_box" data-name="invisible box">
      <rect width="48" height="48" fill="none"/>
    </g>
    <g id="icons_Q2" data-name="icons Q2">
      <g>
        <path d="M26,11.8v6.4l4,4V5a1,1,0,0,0-1-1,1.1,1.1,0,0,0-.7.3l-8.4,7.8,2.8,2.8Z"/>
        <path d="M40.4,38.6l-32-32A2,2,0,0,0,5.6,9.4L11.2,15H8a2,2,0,0,0-2,2V31a2,2,0,0,0,2,2h8.7L28.3,43.7a1.1,1.1,0,0,0,.7.3,1,1,0,0,0,1-1V33.8l7.6,7.6a1.9,1.9,0,0,0,2.8,0A1.9,1.9,0,0,0,40.4,38.6ZM26,36.1l-6.6-6L18.2,29H10V19h5.2L26,29.8Z"/>
      </g>
    </g>
  </g>
</svg>
