<svg xmlns="http://www.w3.org/2000/svg" width="48" height="48" viewBox="0 0 48 48">
  <g id="Layer_2" data-name="Layer 2">
    <g id="invisible_box" data-name="invisible box">
      <rect width="48" height="48" fill="none"/>
    </g>
    <g id="Layer_7" data-name="Layer 7">
      <g>
        <path d="M43,7H38a2,2,0,0,0-1.4.6L34,10.2,31.4,7.6A2,2,0,0,0,30,7H5a2.9,2.9,0,0,0-3,3V38a2.9,2.9,0,0,0,3,3H30a2,2,0,0,0,1.4-.6L34,37.8l2.6,2.6A2,2,0,0,0,38,41h5a2.9,2.9,0,0,0,3-3V10A2.9,2.9,0,0,0,43,7ZM42,37H38.8l-3.4-3.4a1.9,1.9,0,0,0-2.8,0L29.2,37H6V11H29.2l3.4,3.4a1.9,1.9,0,0,0,2.8,0L38.8,11H42Z"/>
        <path d="M34,17a2,2,0,0,0-2,2v2a2,2,0,0,0,4,0V19A2,2,0,0,0,34,17Z"/>
        <path d="M34,25a2,2,0,0,0-2,2v2a2,2,0,0,0,4,0V27A2,2,0,0,0,34,25Z"/>
        <circle cx="14" cy="20" r="2"/>
        <circle cx="22" cy="28" r="2"/>
        <path d="M21.6,17.6l-10,10a1.9,1.9,0,0,0,0,2.8,1.9,1.9,0,0,0,2.8,0l10-10a2,2,0,0,0-2.8-2.8Z"/>
      </g>
    </g>
  </g>
</svg>
