<svg xmlns="http://www.w3.org/2000/svg" width="48" height="48" viewBox="0 0 48 48">
  <title>warning-solid</title>
  <g id="Layer_2" data-name="Layer 2">
    <g id="invisible_box" data-name="invisible box">
      <rect width="48" height="48" fill="none"/>
    </g>
    <g id="icons_Q2" data-name="icons Q2">
      <path d="M45.7,40,25.8,4a2.1,2.1,0,0,0-3.5,0L2.3,40A2,2,0,0,0,4,43H44A2,2,0,0,0,45.7,40ZM24,36a2,2,0,1,1,2-2A2,2,0,0,1,24,36Zm2-8a2,2,0,0,1-4,0V19a2,2,0,0,1,4,0Z"/>
    </g>
  </g>
</svg>
