<svg xmlns="http://www.w3.org/2000/svg" width="48" height="48" viewBox="0 0 48 48">
  <title>women-solid</title>
  <g id="Layer_2" data-name="Layer 2">
    <g id="invisible_box" data-name="invisible box">
      <rect width="48" height="48" fill="none"/>
    </g>
    <g id="icons_Q2" data-name="icons Q2">
      <g>
        <circle cx="24" cy="6" r="4"/>
        <path d="M34.9,24.5l-3-11A1.9,1.9,0,0,0,30,12H18a1.9,1.9,0,0,0-1.9,1.5l-3,11a2,2,0,0,0,3.8,1L19.5,16h9l2.6,9.5A1.9,1.9,0,0,0,33,27h.5A1.9,1.9,0,0,0,34.9,24.5Z"/>
        <path d="M28,24.1,27,19H21l-1,5.1-4.9,8.4A1,1,0,0,0,16,34h5l1,10.2a2,2,0,0,0,4,0L27,34h5a1,1,0,0,0,.9-1.5Z"/>
      </g>
    </g>
  </g>
</svg>
