<svg xmlns="http://www.w3.org/2000/svg" width="48" height="48" viewBox="0 0 48 48">
  <title>yahoo-open-source</title>
  <g id="Layer_2" data-name="Layer 2">
    <g id="invisible_box" data-name="invisible box">
      <rect width="48" height="48" fill="none"/>
    </g>
    <g id="Q3_icons" data-name="Q3 icons">
      <g>
        <path d="M23.4,2A22.2,22.2,0,0,0,3.7,14,17.8,17.8,0,0,1,17.9,6.7a17.3,17.3,0,1,1,0,34.6A17.8,17.8,0,0,1,3.7,34,22.2,22.2,0,0,0,45.6,24,22.2,22.2,0,0,0,23.4,2Z"/>
        <path d="M2.5,21h8.4a1.6,1.6,0,0,0,1.4-.9,11.8,11.8,0,0,1,18.3-5.5A15.9,15.9,0,0,0,2.4,20.9Z"/>
        <path d="M17.9,39.7a16,16,0,0,0,12.7-6.3,11.8,11.8,0,0,1-18.3-5.5,1.6,1.6,0,0,0-1.4-.9H2.4A15.8,15.8,0,0,0,17.9,39.7Z"/>
      </g>
    </g>
  </g>
</svg>
