<svg xmlns="http://www.w3.org/2000/svg" width="48" height="48" viewBox="0 0 48 48">
  <title>yamas</title>
  <g id="Layer_2" data-name="Layer 2">
    <g id="invisible_box" data-name="invisible box">
      <rect width="48" height="48" fill="none"/>
    </g>
    <g id="Q3_icons" data-name="Q3 icons">
      <g>
        <path d="M4.4,30.8H5.6c9.5,0,14.2-7.6,15.7-10.9l1-2C19.8,12.5,15.1,4.3,4.7,4a.7.7,0,0,0-.7.7v26Z"/>
        <path d="M43.7,10.9c-6.1-4.7-11.9,1.4-15.2,6.3a37.9,37.9,0,0,0-2,3.4,24.4,24.4,0,0,0-1.4,2.8v.2C18.6,37.6,4,36.5,4,36.5v3.6A4,4,0,0,0,7.9,44H40.6a4.2,4.2,0,0,0,2.8-1.8h0c.1-.1.1-.3.2-.4h0c.1-.1.1-.2.1-.4a2.9,2.9,0,0,0,.3-1V11.5A.9.9,0,0,0,43.7,10.9Z"/>
      </g>
    </g>
  </g>
</svg>
