<svg xmlns="http://www.w3.org/2000/svg" width="48" height="48" viewBox="0 0 48 48">
  <g id="Layer_2" data-name="Layer 2">
    <g id="invisible_box" data-name="invisible box">
      <rect width="48" height="48" fill="none"/>
    </g>
    <g id="Layer_7" data-name="Layer 7">
      <path d="M22,20a4,4,0,1,0,4,4A4,4,0,0,0,22,20Zm0,6a2,2,0,1,1,2-2A2,2,0,0,1,22,26Zm0-6a4,4,0,1,0,4,4A4,4,0,0,0,22,20Zm0,6a2,2,0,1,1,2-2A2,2,0,0,1,22,26ZM36,13V9H2V39H36V35H46V13ZM10,26a2,2,0,1,1,2-2A2,2,0,0,1,10,26Zm12,6a8,8,0,1,1,8-8A8,8,0,0,1,22,32Zm20-1H36V29h2a2,2,0,0,0,0-4H36V23h2a2,2,0,0,0,0-4H36V17h6ZM22,20a4,4,0,1,0,4,4A4,4,0,0,0,22,20Zm0,6a2,2,0,1,1,2-2A2,2,0,0,1,22,26Z"/>
    </g>
  </g>
</svg>
