<svg xmlns="http://www.w3.org/2000/svg" width="48" height="48" viewBox="0 0 48 48">
  <title>zoom-in</title>
  <g id="Layer_2" data-name="Layer 2">
    <g id="invisible_box" data-name="invisible box">
      <rect width="48" height="48" fill="none"/>
    </g>
    <g id="icons_Q2" data-name="icons Q2">
      <g>
        <path d="M24,17H21V14a2,2,0,0,0-4,0v3H14a2,2,0,0,0,0,4h3v3a2,2,0,0,0,4,0V21h3a2,2,0,0,0,0-4Z"/>
        <path d="M43.4,40.6,30.9,28.1A15.1,15.1,0,0,0,34,19,15,15,0,1,0,19,34a15.1,15.1,0,0,0,9.1-3.1L40.6,43.4a1.9,1.9,0,0,0,2.8,0A1.9,1.9,0,0,0,43.4,40.6ZM19,30A11,11,0,1,1,30,19,11,11,0,0,1,19,30Z"/>
      </g>
    </g>
  </g>
</svg>
