<svg xmlns="http://www.w3.org/2000/svg" width="34.517" height="34.515" viewBox="0 0 34.517 34.515">
    <path id="Star_1" fill="#2e95ef" stroke="#2e95ef" stroke-linecap="round" stroke-linejoin="round" stroke-width="1.5px" d="M1007.949 241.823l4.839 10.3a.336.336 0 0 0 .252.192l10.821 1.652a.357.357 0 0 1 .186.6l-7.831 8.017a.36.36 0 0 0-.1.31l1.848 11.321a.338.338 0 0 1-.485.371l-9.679-5.345a.318.318 0 0 0-.311 0l-9.679 5.345a.339.339 0 0 1-.486-.371l1.849-11.321a.36.36 0 0 0-.1-.31l-7.83-8.017a.357.357 0 0 1 .185-.6l10.821-1.652a.334.334 0 0 0 .252-.192l4.84-10.3a.327.327 0 0 1 .608 0z" data-name="Star 1" transform="translate(-990.39 -240.877)"/>
</svg>
