<?xml version="1.0" encoding="UTF-8"?>
<svg width="110px" height="48px" viewBox="0 0 110 48" version="1.1" xmlns="http://www.w3.org/2000/svg" xmlns:xlink="http://www.w3.org/1999/xlink">
    <!-- Generator: Sketch 54.1 (76490) - https://sketchapp.com -->
    <title>Fill 1</title>
    <desc>Created with Sketch.</desc>
    <g id="-----Creative-Insights" stroke="none" stroke-width="1" fill="none" fill-rule="evenodd">
        <path d="M21.6910829,36.8555808 L7.92735876,16.5353455 L7.92774243,36.8555808 L0,36.8555808 L0,3.28151677 L7.67490488,3.28151677 L20.9882022,23.3489145 L20.9878185,3.28151677 L28.8641494,3.28151677 L28.8641494,36.8555808 L21.6910829,36.8555808 Z M41.6103846,7.37103942 C40.7409918,8.24081594 39.7162132,8.65019024 38.5379672,8.65019024 C37.3620232,8.65019024 36.3383956,8.24081594 35.4670844,7.37103942 C34.5973079,6.50087924 34.1871663,5.47686799 34.1871663,4.299773 C34.1871663,3.12191067 34.5973079,2.09866675 35.4670844,1.27953448 C36.3383956,0.408990632 37.3620232,0 38.5379672,0 C39.7162132,0 40.7409918,0.408990632 41.5601241,1.22850657 C42.4295169,2.09866675 42.8396585,3.12191067 42.8396585,4.299773 C42.8396585,5.47686799 42.4295169,6.50087924 41.6103846,7.37103942 C41.6103846,7.37103942 42.4295169,6.50087924 41.6103846,7.37103942 Z M34.3931963,11.4655498 L42.5826006,11.4655498 L42.5826006,36.8555808 L34.3931963,36.8555808 L34.3931963,11.4655498 Z M54.8108834,46.7200818 C53.9399559,47.591393 52.9151773,48 51.7388496,48 C50.561371,48 49.5373597,47.591393 48.6679669,46.7200818 C47.7978067,45.850689 47.3880487,44.8259104 47.3880487,43.6488154 C47.3880487,42.4721041 47.7978067,41.4484765 48.6679669,40.6289606 C49.5373597,39.7591841 50.561371,39.3494261 51.7388496,39.3494261 C52.9151773,39.3494261 53.9399559,39.7591841 54.7583208,40.5779327 C55.629632,41.4484765 56.0386226,42.4721041 56.0386226,43.6488154 C56.0386226,44.8259104 55.629632,45.850689 54.8108834,46.7200818 C54.8108834,46.7200818 55.629632,45.850689 54.8108834,46.7200818 Z M47.5917767,11.4655498 L55.7830994,11.4655498 L55.7830994,36.8555808 L47.5917767,36.8555808 L47.5917767,11.4655498 Z M80.732679,35.9846533 C78.5323401,37.0604598 76.0760943,37.6229178 73.4138185,37.6229178 C69.3699524,37.6229178 66.1459859,36.3429996 63.6878217,33.7325191 C61.2814528,31.2240944 60.1043578,28.1021837 60.1043578,24.2628129 C60.1043578,20.4238258 61.4353039,17.1987083 64.0469354,14.5878441 C66.7084439,11.9777472 69.983822,10.6982127 73.8239601,10.6982127 C76.228027,10.6982127 78.4306679,11.158615 80.4257442,12.0798031 C81.7574576,12.6948237 82.6280014,13.3086933 82.9851968,13.8719187 L79.7608466,18.8373565 C78.3788727,17.8129616 76.7908687,17.3015315 74.9999041,17.3015315 C73.0052115,17.3015315 71.4172075,17.9157848 70.1894683,19.1945519 C68.9601944,20.4744701 68.3455574,22.1131183 68.3455574,24.1085782 C68.3455574,26.2083959 68.8566039,27.8466605 69.8813825,29.0743997 C70.9556543,30.3543179 72.4914794,31.0195991 74.5402692,31.0195991 C76.5357291,31.0195991 78.4306679,30.4053458 80.2738114,29.1772229 L83.3957221,34.2953608 C81.9116923,35.2683442 80.9882022,35.8311859 80.732679,35.9846533 Z M109.233494,25.5941427 C109.180932,26.1063401 109.180932,26.4639192 109.180932,26.6173866 L92.3927487,26.6173866 C92.3927487,27.7944816 92.8531509,28.921316 93.8249832,29.8931483 C95.0036129,31.1730665 96.6936727,31.7877034 98.8924769,31.7877034 C101.093967,31.7877034 103.24558,31.1730665 105.394123,29.9963551 L107.800109,34.8075583 C107.389967,35.2173162 106.418135,35.72913 104.832049,36.3429996 C102.629408,37.2139272 100.429069,37.6229178 98.2287304,37.6229178 C93.8249832,37.6229178 90.4463983,36.1895322 88.0922083,33.3745564 C86.0975157,30.9689548 85.0731208,27.9483326 85.0731208,24.3142245 C85.0731208,20.3727979 86.2490648,17.1480641 88.5537616,14.5878441 C90.8557726,11.9777472 93.8779295,10.6982127 97.5634492,10.6982127 C101.299613,10.6982127 104.217412,11.925952 106.214023,14.3327045 C108.260895,16.7897177 109.284906,20.1161237 109.284906,24.2628129 C109.284906,24.6721872 109.284906,25.1337404 109.233494,25.5941427 C109.233494,25.5941427 109.284906,25.1337404 109.233494,25.5941427 Z M101.401669,18.3758033 C100.634332,16.9938293 99.405058,16.2771366 97.7149982,16.2771366 C95.9240336,16.2771366 94.5424433,16.9938293 93.5698437,18.4786265 C92.954823,19.4001982 92.5980113,20.3210027 92.5454487,21.1915465 L102.118745,21.1915465 C102.118745,20.1679189 101.862839,19.2467308 101.401669,18.3758033 L101.401669,18.3758033 Z" id="Fill-1" fill="#000000"></path>
    </g>
</svg>