<svg xmlns="http://www.w3.org/2000/svg" height="18" viewBox="0 0 18 18" width="18">
  <defs>
    <style>
      .a {
        fill: #6E6E6E;
      }
    </style>
  </defs>
  <title>S User 18 N</title>
  <path class="a" d="M16.4745,17a.4965.4965,0,0,0,.50089-.49207q.00015-.01724-.00089-.03443c-.3305-3.592-4.0135-4.8155-5.139-4.9135C11.013,11.4885,11,10.826,11,10a7.51507,7.51507,0,0,0,1.766-4.479C12.766,2.8085,11.2225,1,9,1S5.234,2.8085,5.234,5.521A7.51507,7.51507,0,0,0,7,10c0,.826-.013,1.4885-.837,1.56-1.1255.1-4.8085,1.3215-5.139,4.9135a.49649.49649,0,0,0,.46557.52561q.01719.001.03443.00089Z" />
</svg>