<svg xmlns="http://www.w3.org/2000/svg" width="16" height="16" viewBox="0 0 16 16">
  <g id="Icon" transform="translate(0 -12)">
    <rect id="icon_area" data-name="icon area" width="16" height="16" transform="translate(0 12)" fill="#707070" opacity="0"/>
    <g id="Smock_PeopleGroup_18_N" transform="translate(0 12)">
      <rect id="Canvas" width="16" height="16" transform="translate(0 0)" fill="#ff13dc" opacity="0"/>
      <path id="Path_60881" data-name="Path 60881" d="M6.974,3a1.754,1.754,0,1,0,0-2.489A2.61,2.61,0,0,1,7.3,1.757,2.616,2.616,0,0,1,6.974,3ZM8.308,4h-.2a4.371,4.371,0,0,0-.6.041A3.094,3.094,0,0,1,8.541,6.424v4.183A1.141,1.141,0,0,1,7.4,11.746H7.238l-.364,3.886.014.151A.25.25,0,0,0,7.136,16H9.275a.25.25,0,0,0,.248-.217l.461-4.925h.974a.25.25,0,0,0,.25-.25V6.423C11.208,4.806,9.91,4,8.308,4Z" transform="translate(-0.764 0)" fill="#6e6e6e"/>
      <path id="Path_60882" data-name="Path 60882" d="M11.225,3a1.754,1.754,0,1,0,0-2.489,2.61,2.61,0,0,1,.325,1.244A2.616,2.616,0,0,1,11.225,3Zm1.334,1h-.2a4.371,4.371,0,0,0-.6.041,3.094,3.094,0,0,1,1.034,2.382v4.183a1.141,1.141,0,0,1-1.139,1.139h-.165l-.364,3.886.014.151a.25.25,0,0,0,.248.217h2.139a.25.25,0,0,0,.248-.217l.461-4.925h.974a.25.25,0,0,0,.249-.25V6.423C15.458,4.806,14.16,4,12.558,4Z" transform="translate(-1.236 0)" fill="#6e6e6e"/>
      <path id="Path_60883" data-name="Path 60883" d="M5.756,1.755A1.754,1.754,0,1,1,4,0,1.754,1.754,0,0,1,5.756,1.755ZM4.1,4H3.9C2.3,4,1,4.806,1,6.424v4.184a.25.25,0,0,0,.249.25h.972l.459,4.925A.25.25,0,0,0,2.928,16H5.067a.25.25,0,0,0,.248-.217l.461-4.925H6.75a.25.25,0,0,0,.25-.25V6.424C7,4.806,5.7,4,4.1,4Z" transform="translate(-0.111)" fill="#6e6e6e"/>
    </g>
  </g>
</svg>
