<svg xmlns="http://www.w3.org/2000/svg" width="1440" height="865" viewBox="0 0 1440 865"><rect width="1440" height="865" fill="#fff"/><g transform="translate(0 -1)"><rect width="1170" height="95" transform="translate(135 101)" fill="#2e4cff"/><rect width="1170" height="95" transform="translate(135 196)" fill="#fff"/><rect width="1170" height="95" transform="translate(135 288)" fill="#f2f7fb"/><rect width="1170" height="95" transform="translate(135 375)" fill="#fff"/><text transform="translate(182 347)" fill="rgba(33,33,33,0.87)" font-size="20" font-family="Roboto-Regular, Roboto"><tspan x="0" y="0">24/7 Free Support</tspan></text><rect width="1170" height="95" transform="translate(135 481)" fill="#f2f7fb"/><text transform="translate(182 442)" fill="rgba(33,33,33,0.87)" font-size="20" font-family="Roboto-Regular, Roboto"><tspan x="0" y="0">Public API Access</tspan></text><rect width="1170" height="95" transform="translate(135 574)" fill="#fff"/><text transform="translate(182 537)" fill="rgba(33,33,33,0.87)" font-size="20" font-family="Roboto-Regular, Roboto"><tspan x="0" y="0">Build Your Own Template</tspan></text><rect width="1170" height="95" transform="translate(135 671)" fill="#f2f7fb"/><text transform="translate(521.398 161)" fill="rgba(255,255,255,0.87)" font-size="24" font-family="Roboto-Medium, Roboto" font-weight="500"><tspan x="0" y="0">Basic</tspan></text><text transform="translate(181.967 158)" fill="rgba(255,255,255,0.87)" font-size="24" font-family="Roboto-Medium, Roboto" font-weight="500"><tspan x="0" y="0">Features</tspan></text><text transform="translate(817.057 161)" fill="rgba(255,255,255,0.87)" font-size="24" font-family="Roboto-Medium, Roboto" font-weight="500"><tspan x="0" y="0">Premium</tspan></text><text transform="translate(1102.221 166)" fill="rgba(255,255,255,0.87)" font-size="24" font-family="Roboto-Medium, Roboto" font-weight="500"><tspan x="0" y="0">Enterprise</tspan></text><text transform="translate(182.63 252)" fill="rgba(33,33,33,0.87)" font-size="20" font-family="Roboto-Regular, Roboto"><tspan x="0" y="0">Free Space</tspan></text><text transform="translate(176.215 630)" fill="rgba(33,33,33,0.87)" font-size="20" font-family="Roboto-Regular, Roboto"><tspan x="0" y="0">24/7 Free support</tspan></text><text transform="translate(180.375 727)" fill="rgba(33,33,33,0.87)" font-size="20" font-family="Roboto-Regular, Roboto"><tspan x="0" y="0">Public API Access</tspan></text><g transform="translate(529 225)"><path d="M0,0H38V38H0Z" fill="none"/><path d="M12.267,22.383l-6.65-6.65L3.4,17.95l8.867,8.867,19-19L29.05,5.6Z" transform="translate(1.983 3.267)" fill="#18c5bf"/></g><g transform="translate(521 317)"><path d="M0,0H38V38H0Z" fill="none"/><path d="M12.267,22.383l-6.65-6.65L3.4,17.95l8.867,8.867,19-19L29.05,5.6Z" transform="translate(1.983 3.267)" fill="#18c5bf"/></g><g transform="translate(816 225)"><path d="M0,0H38V38H0Z" fill="none"/><path d="M12.267,22.383l-6.65-6.65L3.4,17.95l8.867,8.867,19-19L29.05,5.6Z" transform="translate(1.983 3.267)" fill="#18c5bf"/></g><g transform="translate(816 317)"><path d="M0,0H38V38H0Z" fill="none"/><path d="M12.267,22.383l-6.65-6.65L3.4,17.95l8.867,8.867,19-19L29.05,5.6Z" transform="translate(1.983 3.267)" fill="#18c5bf"/></g><g transform="translate(815 510)"><path d="M0,0H38V38H0Z" fill="none"/><path d="M12.267,22.383l-6.65-6.65L3.4,17.95l8.867,8.867,19-19L29.05,5.6Z" transform="translate(1.983 3.267)" fill="#18c5bf"/></g><g transform="translate(816 404)"><path d="M0,0H38V38H0Z" fill="none"/><path d="M12.267,22.383l-6.65-6.65L3.4,17.95l8.867,8.867,19-19L29.05,5.6Z" transform="translate(1.983 3.267)" fill="#18c5bf"/></g><g transform="translate(816 603)"><path d="M0,0H38V38H0Z" fill="none"/><path d="M12.267,22.383l-6.65-6.65L3.4,17.95l8.867,8.867,19-19L29.05,5.6Z" transform="translate(1.983 3.267)" fill="#18c5bf"/></g><g transform="translate(1102 224)"><path d="M0,0H38.142V38.142H0Z" fill="none"/><path d="M12.3,22.446,5.625,15.771,3.4,18l8.9,8.9L31.371,7.825,29.146,5.6Z" transform="translate(2.003 3.3)" fill="#18c5bf"/></g><g transform="translate(1102 317)"><path d="M0,0H38.142V38.142H0Z" fill="none"/><path d="M12.3,22.446,5.625,15.771,3.4,18l8.9,8.9L31.371,7.825,29.146,5.6Z" transform="translate(2.003 3.3)" fill="#18c5bf"/></g><g transform="translate(1102 404)"><path d="M0,0H38.142V38.142H0Z" fill="none"/><path d="M12.3,22.446,5.625,15.771,3.4,18l8.9,8.9L31.371,7.825,29.146,5.6Z" transform="translate(2.003 3.3)" fill="#18c5bf"/></g><g transform="translate(1102 699)"><path d="M0,0H38.142V38.142H0Z" fill="none"/><path d="M12.3,22.446,5.625,15.771,3.4,18l8.9,8.9L31.371,7.825,29.146,5.6Z" transform="translate(2.003 3.3)" fill="#18c5bf"/></g><g transform="translate(1102 509)"><path d="M0,0H38.142V38.142H0Z" fill="none"/><path d="M12.3,22.446,5.625,15.771,3.4,18l8.9,8.9L31.371,7.825,29.146,5.6Z" transform="translate(2.003 3.3)" fill="#18c5bf"/></g><g transform="translate(1102 602)"><path d="M0,0H38.142V38.142H0Z" fill="none"/><path d="M12.3,22.446,5.625,15.771,3.4,18l8.9,8.9L31.371,7.825,29.146,5.6Z" transform="translate(2.003 3.3)" fill="#18c5bf"/></g><g transform="translate(517 405)"><path d="M24.3,6.944,22.354,5l-7.7,7.7L6.944,5,5,6.944l7.7,7.705L5,22.354,6.944,24.3l7.705-7.7,7.7,7.7L24.3,22.354l-7.7-7.7Z" transform="translate(2.881 2.881)" fill="#666"/><path d="M0,0H35.059V35.059H0Z" fill="none"/></g><g transform="translate(520.69 511)"><path d="M24.3,6.944,22.354,5l-7.7,7.7L6.944,5,5,6.944l7.7,7.705L5,22.354,6.944,24.3l7.705-7.7,7.7,7.7L24.3,22.354l-7.7-7.7Z" transform="translate(2.881 2.881)" fill="#666"/><path d="M0,0H35.059V35.059H0Z" fill="none"/></g><g transform="translate(517 604)"><path d="M24.3,6.944,22.354,5l-7.7,7.7L6.944,5,5,6.944l7.7,7.705L5,22.354,6.944,24.3l7.705-7.7,7.7,7.7L24.3,22.354l-7.7-7.7Z" transform="translate(2.881 2.881)" fill="#666"/><path d="M0,0H35.059V35.059H0Z" fill="none"/></g><g transform="translate(517 701)"><path d="M24.3,6.944,22.354,5l-7.7,7.7L6.944,5,5,6.944l7.7,7.705L5,22.354,6.944,24.3l7.705-7.7,7.7,7.7L24.3,22.354l-7.7-7.7Z" transform="translate(2.881 2.881)" fill="#666"/><path d="M0,0H35.059V35.059H0Z" fill="none"/></g><g transform="translate(816 701)"><path d="M22.917,6.8,21.112,5l-7.154,7.154L6.8,5,5,6.8l7.154,7.154L5,21.112l1.8,1.8,7.154-7.154,7.154,7.154,1.8-1.8-7.154-7.154Z" transform="translate(3.542 3.542)" fill="#666"/><path d="M0,0H35V35H0Z" fill="none"/></g></g></svg>