<svg xmlns="http://www.w3.org/2000/svg" xmlns:xlink="http://www.w3.org/1999/xlink" width="1440" height="896" viewBox="0 0 1440 896"><defs><filter id="a" x="466" y="208" width="516" height="688" filterUnits="userSpaceOnUse"><feOffset dy="40" input="SourceAlpha"/><feGaussianBlur stdDeviation="25" result="b"/><feFlood flood-opacity="0.161"/><feComposite operator="in" in2="b"/><feComposite in="SourceGraphic"/></filter></defs><rect width="1440" height="880" fill="#fff"/><text transform="translate(513.531 152)" fill="rgba(0,0,0,0.87)" font-size="48" font-family="Roboto-Medium, Roboto" font-weight="500"><tspan x="0" y="0">Lets Start Free Trial</tspan></text><rect width="366" height="504" transform="translate(139 262)" fill="#f2f7fb"/><g transform="matrix(1, 0, 0, 1, 0, 0)" filter="url(#a)"><rect width="366" height="538" transform="translate(541 243)" fill="#2e4cff"/></g><rect width="366" height="504" transform="translate(936 262)" fill="#f2f7fb"/><text transform="translate(276.064 329)" fill="rgba(0,0,0,0.87)" font-size="34" font-family="Roboto-Medium, Roboto" font-weight="500"><tspan x="0" y="0">Basic</tspan></text><text transform="translate(654.664 329)" fill="rgba(255,255,255,0.87)" font-size="34" font-family="Roboto-Medium, Roboto" font-weight="500"><tspan x="0" y="0">Premium</tspan></text><text transform="translate(1041.396 329)" fill="rgba(0,0,0,0.87)" font-size="34" font-family="Roboto-Medium, Roboto" font-weight="500"><tspan x="0" y="0">Enterprise</tspan></text><text transform="translate(197.411 506)" fill="rgba(33,33,33,0.87)" font-size="20" font-family="Roboto-Regular, Roboto"><tspan x="0" y="0">50 GB Free Space</tspan></text><text transform="translate(994.411 490)" fill="rgba(33,33,33,0.87)" font-size="20" font-family="Roboto-Regular, Roboto"><tspan x="0" y="0">50 GB Free Space</tspan></text><text transform="translate(599.411 494)" fill="#d9d9d9" font-size="20" font-family="Roboto-Regular, Roboto"><tspan x="0" y="0">50 GB Free Space</tspan></text><text transform="translate(196 548)" fill="rgba(33,33,33,0.87)" font-size="20" font-family="Roboto-Regular, Roboto"><tspan x="0" y="0">24/7 Free Support</tspan></text><text transform="translate(993 532)" fill="rgba(33,33,33,0.87)" font-size="20" font-family="Roboto-Regular, Roboto"><tspan x="0" y="0">24/7 Free Support</tspan></text><text transform="translate(598 536)" fill="#d9d9d9" font-size="20" font-family="Roboto-Regular, Roboto"><tspan x="0" y="0">24/7 Free Support</tspan></text><text transform="translate(197 590)" fill="rgba(33,33,33,0.87)" font-size="20" font-family="Roboto-Regular, Roboto"><tspan x="0" y="0">Public API Access</tspan></text><text transform="translate(994 574)" fill="rgba(33,33,33,0.87)" font-size="20" font-family="Roboto-Regular, Roboto"><tspan x="0" y="0">Public API Access</tspan></text><text transform="translate(599 578)" fill="#d9d9d9" font-size="20" font-family="Roboto-Regular, Roboto"><tspan x="0" y="0">Public API Access</tspan></text><text transform="translate(993 616)" fill="rgba(33,33,33,0.87)" font-size="20" font-family="Roboto-Regular, Roboto"><tspan x="0" y="0">Build Your Own Template</tspan></text><text transform="translate(598 620)" fill="#d9d9d9" font-size="20" font-family="Roboto-Regular, Roboto"><tspan x="0" y="0">Build Your Own Template</tspan></text><circle cx="3.5" cy="3.5" r="3.5" transform="translate(179 498)" fill="#7c7c7c"/><circle cx="3.5" cy="3.5" r="3.5" transform="translate(976 482)" fill="#7c7c7c"/><circle cx="3.5" cy="3.5" r="3.5" transform="translate(581 486)" fill="#d9d9d9"/><circle cx="3.5" cy="3.5" r="3.5" transform="translate(179 540)" fill="#7c7c7c"/><circle cx="3.5" cy="3.5" r="3.5" transform="translate(976 524)" fill="#7c7c7c"/><circle cx="3.5" cy="3.5" r="3.5" transform="translate(581 528)" fill="#d9d9d9"/><circle cx="3.5" cy="3.5" r="3.5" transform="translate(179 582)" fill="#7c7c7c"/><circle cx="3.5" cy="3.5" r="3.5" transform="translate(976 566)" fill="#7c7c7c"/><circle cx="3.5" cy="3.5" r="3.5" transform="translate(581 570)" fill="#d9d9d9"/><circle cx="3.5" cy="3.5" r="3.5" transform="translate(975 608)" fill="#7c7c7c"/><circle cx="3.5" cy="3.5" r="3.5" transform="translate(580 612)" fill="#d9d9d9"/><g transform="translate(227 669)"><path d="M30.865,0h120.27C168.181,0,182,12.984,182,29s-13.819,29-30.865,29H30.865C13.819,58,0,45.016,0,29S13.819,0,30.865,0Z" fill="#ededed"/><text transform="translate(40 37)" fill="#393939" font-size="20" font-family="Roboto-Medium, Roboto" font-weight="500"><tspan x="0" y="0">Learn More</tspan></text></g><g transform="translate(1028 669)"><path d="M30.865,0h120.27C168.181,0,182,12.984,182,29s-13.819,29-30.865,29H30.865C13.819,58,0,45.016,0,29S13.819,0,30.865,0Z" fill="#ededed"/><text transform="translate(40 37)" fill="#393939" font-size="20" font-family="Roboto-Medium, Roboto" font-weight="500"><tspan x="0" y="0">Learn More</tspan></text></g><g transform="translate(633 669)"><path d="M30.865,0h120.27C168.181,0,182,12.984,182,29s-13.819,29-30.865,29H30.865C13.819,58,0,45.016,0,29S13.819,0,30.865,0Z" fill="#18c5bf"/><text transform="translate(40 37)" fill="#fff" font-size="20" font-family="Roboto-Medium, Roboto" font-weight="500"><tspan x="0" y="0">Learn More</tspan></text></g><text transform="translate(631.876 421)" fill="rgba(255,255,255,0.87)" font-size="60" font-family="Roboto-Regular, Roboto"><tspan x="0" y="0">$199.9</tspan></text><text transform="translate(797.387 321)" fill="#1ce3dc" font-size="40" font-family="Roboto-Regular, Roboto"><tspan x="0" y="0">*</tspan></text><text transform="translate(246.722 421)" fill="rgba(47,47,47,0.87)" font-size="60" font-family="Roboto-Regular, Roboto"><tspan x="0" y="0">$99.9</tspan></text><text transform="translate(1026.876 417)" fill="rgba(47,47,47,0.87)" font-size="60" font-family="Roboto-Regular, Roboto"><tspan x="0" y="0">$299.9</tspan></text></svg>