<svg xmlns="http://www.w3.org/2000/svg" width="1440" height="1193" viewBox="0 0 1440 1193"><rect width="1440" height="1193" fill="#fff"/><text transform="translate(561 150)" fill="rgba(0,0,0,0.87)" font-size="48" font-family="Roboto-Medium, Roboto" font-weight="500"><tspan x="0" y="0">Meet Out team</tspan></text><g transform="translate(139 294)"><g fill="#f2f7fb" stroke="#f5f5f5" stroke-width="1"><rect width="351.809" height="354.809" rx="175.904" stroke="none"/><rect x="0.5" y="0.5" width="350.809" height="353.809" rx="175.404" fill="none"/></g><g transform="translate(146.493 147.995)"><path d="M0,0H59.023V59.023H0Z" fill="none"/><path d="M47.267,42.349V7.919A4.933,4.933,0,0,0,42.349,3H7.919A4.933,4.933,0,0,0,3,7.919v34.43a4.933,4.933,0,0,0,4.919,4.919h34.43a4.933,4.933,0,0,0,4.918-4.919ZM16.526,28.823l6.148,7.4,8.608-11.091L42.349,39.889H7.919Z" transform="translate(4.378 4.378)" fill="#dfe2f2"/><ellipse cx="3" cy="3.5" rx="3" ry="3.5" transform="translate(16.507 19.005)" fill="#fff"/></g></g><text transform="translate(556 356)" fill="rgba(0,0,0,0.87)" font-size="24" font-family="Roboto-Medium, Roboto" font-weight="500"><tspan x="0" y="0">Kevin Lowry</tspan></text><text transform="translate(557.072 391)" fill="rgba(33,33,33,0.87)" font-size="20" font-family="Roboto-Regular, Roboto"><tspan x="0" y="0">UI Designer</tspan></text><text transform="translate(556 457)" fill="rgba(33,33,33,0.87)" font-size="20" font-family="Roboto-Regular, Roboto"><tspan x="0" y="0">Lorem ipsum dolor sit amet, consectetur adipiscing elit, sed do eiusmod </tspan><tspan x="0" y="26">tempor incididunt ut labore et dolore magna aliqua. Lorem ipsum dolor sit </tspan><tspan x="0" y="52">amet, consectetur adipiscing elit, sed do eiusmod tempor incididunt ut labore </tspan><tspan x="0" y="78">et dolore magna aliqua.</tspan></text><path d="M13.442,0A13.442,13.442,0,1,0,26.885,13.442,13.442,13.442,0,0,0,13.442,0ZM9.536,20.321H6.262V10.472H9.536ZM7.9,9.127H7.878a1.706,1.706,0,1,1,.043-3.4,1.707,1.707,0,1,1-.022,3.4ZM21.341,20.321H18.068V15.052c0-1.324-.474-2.227-1.659-2.227a1.792,1.792,0,0,0-1.68,1.2,2.242,2.242,0,0,0-.108.8v5.5H11.348s.043-8.925,0-9.849h3.274v1.395a3.25,3.25,0,0,1,2.95-1.626c2.154,0,3.769,1.408,3.769,4.433Zm0,0" transform="translate(556.241 584.115)" fill="#667cff"/><path d="M13.607,0A13.607,13.607,0,1,0,27.214,13.607,13.607,13.607,0,0,0,13.607,0ZM19.82,10.609q.009.2.009.4A8.826,8.826,0,0,1,10.942,19.9h0a8.84,8.84,0,0,1-4.787-1.4,6.352,6.352,0,0,0,.745.043A6.267,6.267,0,0,0,10.779,17.2a3.127,3.127,0,0,1-2.918-2.169,3.113,3.113,0,0,0,1.411-.054,3.124,3.124,0,0,1-2.506-3.061c0-.014,0-.027,0-.04a3.1,3.1,0,0,0,1.415.391A3.126,3.126,0,0,1,7.215,8.1a8.867,8.867,0,0,0,6.438,3.263,3.125,3.125,0,0,1,5.322-2.848,6.264,6.264,0,0,0,1.983-.758,3.135,3.135,0,0,1-1.373,1.727,6.229,6.229,0,0,0,1.793-.492A6.347,6.347,0,0,1,19.82,10.609Zm0,0" transform="translate(598.576 583.787)" fill="#667cff"/><g transform="translate(640.79 584)"><path d="M297.277,508.668q-3.2.521-6.422.961Q294.078,509.189,297.277,508.668Zm0,0" transform="translate(-278.896 -484.79)" fill="#667cff"/><path d="M302.4,507.793c-1.02.188-2.039.359-3.059.535C300.359,508.152,301.379,507.98,302.4,507.793Zm0,0" transform="translate(-285.135 -484.79)" fill="#667cff"/><path d="M285.137,510.34q-3.744.422-7.527.742Q281.389,510.766,285.137,510.34Zm0,0" transform="translate(-266.778 -484.79)" fill="#667cff"/><path d="M290.055,509.738c-1.2.16-2.406.309-3.609.449C287.648,510.047,288.855,509.9,290.055,509.738Zm0,0" transform="translate(-273.148 -484.79)" fill="#667cff"/><path d="M309.367,506.41c-.9.191-1.8.383-2.7.566C307.566,506.793,308.469,506.6,309.367,506.41Zm0,0" transform="translate(-291.908 -484.79)" fill="#667cff"/><path d="M326.664,502.113c-.727.207-1.453.4-2.18.605C325.211,502.516,325.938,502.32,326.664,502.113Zm0,0" transform="translate(-308.553 -484.79)" fill="#667cff"/><path d="M321.434,503.543c-.789.207-1.582.418-2.375.617Q320.248,503.861,321.434,503.543Zm0,0" transform="translate(-303.51 -484.79)" fill="#667cff"/><path d="M314.59,505.254c-.836.2-1.68.379-2.523.566C312.91,505.633,313.754,505.449,314.59,505.254Zm0,0" transform="translate(-296.945 -484.79)" fill="#667cff"/><path d="M277.527,511.09q-2.021.17-4.047.3Q275.508,511.26,277.527,511.09Zm0,0" transform="translate(-261.01 -484.79)" fill="#667cff"/><path d="M27.21,13.6a13.6,13.6,0,1,0-13.6,13.6h.239V16.616H10.921V13.21h2.923V10.7c0-2.907,1.775-4.489,4.368-4.489a24.061,24.061,0,0,1,2.62.134V9.386H19.044c-1.411,0-1.684.671-1.684,1.654v2.17h3.373l-.44,3.406H17.36V26.684A13.612,13.612,0,0,0,27.21,13.6Zm0,0" fill="#667cff"/><path d="M272.914,511.43q-4,.258-8.023.4Q268.916,511.693,272.914,511.43Zm0,0" transform="translate(-254.806 -484.79)" fill="#667cff"/><path d="M264.754,511.836q-2.121.07-4.25.105Q262.631,511.906,264.754,511.836Zm0,0" transform="translate(-248.724 -484.79)" fill="#667cff"/></g><g transform="translate(950 735)"><rect width="351.809" height="354.809" rx="175.904" fill="#f2f7fb"/><g transform="translate(146.493 147.995)"><path d="M0,0H59.023V59.023H0Z" fill="none"/><path d="M47.267,42.349V7.919A4.933,4.933,0,0,0,42.349,3H7.919A4.933,4.933,0,0,0,3,7.919v34.43a4.933,4.933,0,0,0,4.919,4.919h34.43a4.933,4.933,0,0,0,4.918-4.919ZM16.526,28.823l6.148,7.4,8.608-11.091L42.349,39.889H7.919Z" transform="translate(4.378 4.378)" fill="#dfe2f2"/><ellipse cx="3" cy="3.5" rx="3" ry="3.5" transform="translate(16.507 19.005)" fill="#fff"/></g></g><text transform="translate(147 835)" fill="rgba(0,0,0,0.87)" font-size="24" font-family="Roboto-Medium, Roboto" font-weight="500"><tspan x="0" y="0">Kevin Lowry</tspan></text><text transform="translate(148.072 870)" fill="rgba(33,33,33,0.87)" font-size="20" font-family="Roboto-Regular, Roboto"><tspan x="0" y="0">UI Designer</tspan></text><text transform="translate(147 936)" fill="rgba(33,33,33,0.87)" font-size="20" font-family="Roboto-Regular, Roboto"><tspan x="0" y="0">Lorem ipsum dolor sit amet, consectetur adipiscing elit, sed do eiusmod </tspan><tspan x="0" y="26">tempor incididunt ut labore et dolore magna aliqua. Lorem ipsum dolor sit </tspan><tspan x="0" y="52">amet, consectetur adipiscing elit, sed do eiusmod tempor incididunt ut labore </tspan><tspan x="0" y="78">et dolore magna aliqua.</tspan></text><path d="M13.442,0A13.442,13.442,0,1,0,26.885,13.442,13.442,13.442,0,0,0,13.442,0ZM9.536,20.321H6.262V10.472H9.536ZM7.9,9.127H7.878a1.706,1.706,0,1,1,.043-3.4,1.707,1.707,0,1,1-.022,3.4ZM21.341,20.321H18.068V15.052c0-1.324-.474-2.227-1.659-2.227a1.792,1.792,0,0,0-1.68,1.2,2.242,2.242,0,0,0-.108.8v5.5H11.348s.043-8.925,0-9.849h3.274v1.395a3.25,3.25,0,0,1,2.95-1.626c2.154,0,3.769,1.408,3.769,4.433Zm0,0" transform="translate(147.241 1063.115)" fill="#667cff"/><path d="M13.607,0A13.607,13.607,0,1,0,27.214,13.607,13.607,13.607,0,0,0,13.607,0ZM19.82,10.609q.009.2.009.4A8.826,8.826,0,0,1,10.942,19.9h0a8.84,8.84,0,0,1-4.787-1.4,6.352,6.352,0,0,0,.745.043A6.267,6.267,0,0,0,10.779,17.2a3.127,3.127,0,0,1-2.918-2.169,3.113,3.113,0,0,0,1.411-.054,3.124,3.124,0,0,1-2.506-3.061c0-.014,0-.027,0-.04a3.1,3.1,0,0,0,1.415.391A3.126,3.126,0,0,1,7.215,8.1a8.867,8.867,0,0,0,6.438,3.263,3.125,3.125,0,0,1,5.322-2.848,6.264,6.264,0,0,0,1.983-.758,3.135,3.135,0,0,1-1.373,1.727,6.229,6.229,0,0,0,1.793-.492A6.347,6.347,0,0,1,19.82,10.609Zm0,0" transform="translate(189.576 1062.787)" fill="#667cff"/><g transform="translate(231.79 1063)"><path d="M297.277,508.668q-3.2.521-6.422.961Q294.078,509.189,297.277,508.668Zm0,0" transform="translate(-278.896 -484.79)" fill="#667cff"/><path d="M302.4,507.793c-1.02.188-2.039.359-3.059.535C300.359,508.152,301.379,507.98,302.4,507.793Zm0,0" transform="translate(-285.135 -484.79)" fill="#667cff"/><path d="M285.137,510.34q-3.744.422-7.527.742Q281.389,510.766,285.137,510.34Zm0,0" transform="translate(-266.778 -484.79)" fill="#667cff"/><path d="M290.055,509.738c-1.2.16-2.406.309-3.609.449C287.648,510.047,288.855,509.9,290.055,509.738Zm0,0" transform="translate(-273.148 -484.79)" fill="#667cff"/><path d="M309.367,506.41c-.9.191-1.8.383-2.7.566C307.566,506.793,308.469,506.6,309.367,506.41Zm0,0" transform="translate(-291.908 -484.79)" fill="#667cff"/><path d="M326.664,502.113c-.727.207-1.453.4-2.18.605C325.211,502.516,325.938,502.32,326.664,502.113Zm0,0" transform="translate(-308.553 -484.79)" fill="#667cff"/><path d="M321.434,503.543c-.789.207-1.582.418-2.375.617Q320.248,503.861,321.434,503.543Zm0,0" transform="translate(-303.51 -484.79)" fill="#667cff"/><path d="M314.59,505.254c-.836.2-1.68.379-2.523.566C312.91,505.633,313.754,505.449,314.59,505.254Zm0,0" transform="translate(-296.945 -484.79)" fill="#667cff"/><path d="M277.527,511.09q-2.021.17-4.047.3Q275.508,511.26,277.527,511.09Zm0,0" transform="translate(-261.01 -484.79)" fill="#667cff"/><path d="M27.21,13.6a13.6,13.6,0,1,0-13.6,13.6h.239V16.616H10.921V13.21h2.923V10.7c0-2.907,1.775-4.489,4.368-4.489a24.061,24.061,0,0,1,2.62.134V9.386H19.044c-1.411,0-1.684.671-1.684,1.654v2.17h3.373l-.44,3.406H17.36V26.684A13.612,13.612,0,0,0,27.21,13.6Zm0,0" fill="#667cff"/><path d="M272.914,511.43q-4,.258-8.023.4Q268.916,511.693,272.914,511.43Zm0,0" transform="translate(-254.806 -484.79)" fill="#667cff"/><path d="M264.754,511.836q-2.121.07-4.25.105Q262.631,511.906,264.754,511.836Zm0,0" transform="translate(-248.724 -484.79)" fill="#667cff"/></g></svg>