<svg xmlns="http://www.w3.org/2000/svg" width="1440" height="698" viewBox="0 0 1440 698"><rect width="1440" height="698" fill="#fff"/><g transform="translate(24 2)"><g transform="translate(121 510)"><path d="M33.749,0h131.5C183.89,0,199,12.984,199,29s-15.11,29-33.749,29H33.749C15.11,58,0,45.016,0,29S15.11,0,33.749,0Z" fill="#18c5bf"/><text transform="translate(40 37)" fill="#fff" font-size="20" font-family="Roboto-Medium, Roboto" font-weight="500"><tspan x="0" y="0">Join Us Now!</tspan></text></g><text transform="translate(121 346)" fill="rgba(33,33,33,0.87)" font-size="20" font-family="Roboto-Regular, Roboto"><tspan x="0" y="0">Lorem ipsum dolor sit amet, consectetur adipiscing elit, </tspan><tspan x="0" y="26">sed do eiusmod tempor incididunt ut labore et dolore </tspan><tspan x="0" y="52">magna aliqua. Lorem ipsum dolor sit amet, consectetur </tspan><tspan x="0" y="78">adipiscing elit, sed do eiusmod tempor incididunt ut </tspan><tspan x="0" y="104">labore et dolore magna aliqua.</tspan></text><text transform="translate(121 191)" fill="rgba(0,0,0,0.87)" font-size="60" font-family="Roboto-Regular, Roboto"><tspan x="0" y="0">The People behind </tspan><tspan x="0" y="79">Our Company</tspan></text><g transform="translate(722 101)"><rect width="151.809" height="152.809" rx="75.904" fill="#f2f7fb"/><g transform="translate(46.425 46.925)"><path d="M0,0H59.023V59.023H0Z" fill="none"/><path d="M47.267,42.349V7.919A4.933,4.933,0,0,0,42.349,3H7.919A4.933,4.933,0,0,0,3,7.919v34.43a4.933,4.933,0,0,0,4.919,4.919h34.43a4.933,4.933,0,0,0,4.918-4.919ZM16.526,28.823l6.148,7.4,8.608-11.091L42.349,39.889H7.919Z" transform="translate(4.378 4.378)" fill="#dfe2f2"/><ellipse cx="3" cy="3.5" rx="3" ry="3.5" transform="translate(16.575 18.075)" fill="#fff"/></g></g><text transform="translate(745 294)" fill="rgba(0,0,0,0.87)" font-size="20" font-family="Roboto-Medium, Roboto" font-weight="500"><tspan x="0" y="0">Eva Benson</tspan></text><g transform="translate(721 370)"><rect width="151.809" height="152.809" rx="75.904" fill="#f2f7fb"/><g transform="translate(46.425 46.925)"><path d="M0,0H59.023V59.023H0Z" fill="none"/><path d="M47.267,42.349V7.919A4.933,4.933,0,0,0,42.349,3H7.919A4.933,4.933,0,0,0,3,7.919v34.43a4.933,4.933,0,0,0,4.919,4.919h34.43a4.933,4.933,0,0,0,4.918-4.919ZM16.526,28.823l6.148,7.4,8.608-11.091L42.349,39.889H7.919Z" transform="translate(4.378 4.378)" fill="#dfe2f2"/><ellipse cx="3" cy="3.5" rx="3" ry="3.5" transform="translate(16.575 18.075)" fill="#fff"/></g></g><text transform="translate(744 563)" fill="rgba(0,0,0,0.87)" font-size="20" font-family="Roboto-Medium, Roboto" font-weight="500"><tspan x="0" y="0">Eva Benson</tspan></text><g transform="translate(926 101)"><rect width="151.809" height="152.809" rx="75.904" fill="#f2f7fb"/><g transform="translate(46.425 46.925)"><path d="M0,0H59.023V59.023H0Z" fill="none"/><path d="M47.267,42.349V7.919A4.933,4.933,0,0,0,42.349,3H7.919A4.933,4.933,0,0,0,3,7.919v34.43a4.933,4.933,0,0,0,4.919,4.919h34.43a4.933,4.933,0,0,0,4.918-4.919ZM16.526,28.823l6.148,7.4,8.608-11.091L42.349,39.889H7.919Z" transform="translate(4.378 4.378)" fill="#dfe2f2"/><ellipse cx="3" cy="3.5" rx="3" ry="3.5" transform="translate(16.575 18.075)" fill="#fff"/></g></g><text transform="translate(945 294)" fill="rgba(0,0,0,0.87)" font-size="20" font-family="Roboto-Medium, Roboto" font-weight="500"><tspan x="0" y="0">Kevin Lowry</tspan></text><g transform="translate(925 370)"><rect width="151.809" height="152.809" rx="75.904" fill="#f2f7fb"/><g transform="translate(46.425 46.925)"><path d="M0,0H59.023V59.023H0Z" fill="none"/><path d="M47.267,42.349V7.919A4.933,4.933,0,0,0,42.349,3H7.919A4.933,4.933,0,0,0,3,7.919v34.43a4.933,4.933,0,0,0,4.919,4.919h34.43a4.933,4.933,0,0,0,4.918-4.919ZM16.526,28.823l6.148,7.4,8.608-11.091L42.349,39.889H7.919Z" transform="translate(4.378 4.378)" fill="#dfe2f2"/><ellipse cx="3" cy="3.5" rx="3" ry="3.5" transform="translate(16.575 18.075)" fill="#fff"/></g></g><text transform="translate(944 563)" fill="rgba(0,0,0,0.87)" font-size="20" font-family="Roboto-Medium, Roboto" font-weight="500"><tspan x="0" y="0">Kevin Lowry</tspan></text><g transform="translate(1119 101)"><rect width="151.809" height="152.809" rx="75.904" fill="#f2f7fb"/><g transform="translate(46.425 46.925)"><path d="M0,0H59.023V59.023H0Z" fill="none"/><path d="M47.267,42.349V7.919A4.933,4.933,0,0,0,42.349,3H7.919A4.933,4.933,0,0,0,3,7.919v34.43a4.933,4.933,0,0,0,4.919,4.919h34.43a4.933,4.933,0,0,0,4.918-4.919ZM16.526,28.823l6.148,7.4,8.608-11.091L42.349,39.889H7.919Z" transform="translate(4.378 4.378)" fill="#dfe2f2"/><ellipse cx="3" cy="3.5" rx="3" ry="3.5" transform="translate(16.575 18.075)" fill="#fff"/></g></g><text transform="translate(1130 294)" fill="rgba(0,0,0,0.87)" font-size="20" font-family="Roboto-Medium, Roboto" font-weight="500"><tspan x="0" y="0">Mitchell Stark</tspan></text><g transform="translate(1118 370)"><rect width="151.809" height="152.809" rx="75.904" fill="#f2f7fb"/><g transform="translate(46.425 46.925)"><path d="M0,0H59.023V59.023H0Z" fill="none"/><path d="M47.267,42.349V7.919A4.933,4.933,0,0,0,42.349,3H7.919A4.933,4.933,0,0,0,3,7.919v34.43a4.933,4.933,0,0,0,4.919,4.919h34.43a4.933,4.933,0,0,0,4.918-4.919ZM16.526,28.823l6.148,7.4,8.608-11.091L42.349,39.889H7.919Z" transform="translate(4.378 4.378)" fill="#dfe2f2"/><ellipse cx="3" cy="3.5" rx="3" ry="3.5" transform="translate(16.575 18.075)" fill="#fff"/></g></g><text transform="translate(1129 563)" fill="rgba(0,0,0,0.87)" font-size="20" font-family="Roboto-Medium, Roboto" font-weight="500"><tspan x="0" y="0">Mitchell Stark</tspan></text></g></svg>