<svg xmlns="http://www.w3.org/2000/svg" width="1440" height="505" viewBox="0 0 1440 505"><rect width="1440" height="505" fill="#fff"/><g transform="translate(3 -5935)"><g transform="translate(776 6102)"><rect width="169.809" height="171.809" rx="84.904" fill="#f2f7fb"/><g transform="translate(55.431 56.432)"><path d="M0,0H59.023V59.023H0Z" fill="none"/><path d="M47.267,42.349V7.919A4.933,4.933,0,0,0,42.349,3H7.919A4.933,4.933,0,0,0,3,7.919v34.43a4.933,4.933,0,0,0,4.919,4.919h34.43a4.933,4.933,0,0,0,4.918-4.919ZM16.526,28.823l6.148,7.4,8.608-11.091L42.349,39.889H7.919Z" transform="translate(4.378 4.378)" fill="#dfe2f2"/><ellipse cx="3" cy="3.5" rx="3" ry="3.5" transform="translate(16.569 19.568)" fill="#fff"/></g></g><g transform="translate(1131 6102)"><rect width="169.809" height="171.809" rx="84.904" fill="#f2f7fb"/><g transform="translate(55.431 56.432)"><path d="M0,0H59.023V59.023H0Z" fill="none"/><path d="M47.267,42.349V7.919A4.933,4.933,0,0,0,42.349,3H7.919A4.933,4.933,0,0,0,3,7.919v34.43a4.933,4.933,0,0,0,4.919,4.919h34.43a4.933,4.933,0,0,0,4.918-4.919ZM16.526,28.823l6.148,7.4,8.608-11.091L42.349,39.889H7.919Z" transform="translate(4.378 4.378)" fill="#dfe2f2"/><ellipse cx="3" cy="3.5" rx="3" ry="3.5" transform="translate(16.569 19.568)" fill="#fff"/></g></g><g transform="translate(888.191 6035)"><g fill="#f2f7fb" stroke="#fff" stroke-width="15"><rect width="303.809" height="305.809" rx="151.904" stroke="none"/><rect x="7.5" y="7.5" width="288.809" height="290.809" rx="144.404" fill="none"/></g><g transform="translate(122.477 123.478)"><path d="M0,0H59.023V59.023H0Z" fill="none"/><path d="M47.267,42.349V7.919A4.933,4.933,0,0,0,42.349,3H7.919A4.933,4.933,0,0,0,3,7.919v34.43a4.933,4.933,0,0,0,4.919,4.919h34.43a4.933,4.933,0,0,0,4.918-4.919ZM16.526,28.823l6.148,7.4,8.608-11.091L42.349,39.889H7.919Z" transform="translate(4.378 4.378)" fill="#dfe2f2"/><ellipse cx="3" cy="3.5" rx="3" ry="3.5" transform="translate(16.501 19)" fill="#fff"/></g></g></g><g transform="translate(1 -5933)"><text transform="translate(135 6145)" fill="rgba(0,0,0,0.87)" font-size="34" font-family="Roboto-Medium, Roboto" font-weight="500"><tspan x="0" y="0">About Our Team</tspan></text><text transform="translate(135 6194)" fill="rgba(33,33,33,0.87)" font-size="20" font-family="Roboto-Regular, Roboto"><tspan x="0" y="0">Lorem ipsum dolor sit amet, consectetur adipiscing elit, </tspan><tspan x="0" y="26">sed do eiusmod tempor incididunt ut labore et dolore </tspan><tspan x="0" y="52">magna aliqua.</tspan></text></g></svg>