<svg xmlns="http://www.w3.org/2000/svg" width="1440" height="967" viewBox="0 0 1440 967"><rect width="1440" height="967" fill="#fff"/><g transform="translate(26 1)"><text transform="translate(553 150)" fill="rgba(0,0,0,0.87)" font-size="48" font-family="Roboto-Medium, Roboto" font-weight="500"><tspan x="0" y="0">Meet Out team</tspan></text><text transform="translate(359.126 203)" fill="rgba(33,33,33,0.87)" font-size="20" font-family="Roboto-Regular, Roboto"><tspan x="0" y="0">Lorem ipsum dolor sit amet, consectetur adipiscing elit, sed do eiusmod tempor </tspan></text><text transform="translate(520.347 229)" fill="rgba(33,33,33,0.87)" font-size="20" font-family="Roboto-Regular, Roboto"><tspan x="0" y="0">incididunt ut labore et dolore magna aliqua.</tspan></text><g transform="translate(125 324)"><rect width="131.809" height="133.809" rx="65.904" fill="#f2f7fb"/><g transform="translate(43.503 44.504)"><path d="M0,0H44.938V44.938H0Z" fill="none"/><path d="M33.182,29.829V6.354A3.363,3.363,0,0,0,29.829,3H6.354A3.363,3.363,0,0,0,3,6.354V29.829a3.363,3.363,0,0,0,3.354,3.354H29.829a3.363,3.363,0,0,0,3.353-3.354Zm-20.96-9.222,4.192,5.047,5.869-7.562,7.546,10.061H6.354Z" transform="translate(4.378 4.378)" fill="#dfe2f2"/><circle cx="2" cy="2" r="2" transform="translate(13.497 16.496)" fill="#fff"/></g></g><g transform="translate(526 322)"><rect width="131.809" height="133.809" rx="65.904" fill="#f2f7fb"/><g transform="translate(43.503 44.504)"><path d="M0,0H44.938V44.938H0Z" fill="none"/><path d="M33.182,29.829V6.354A3.363,3.363,0,0,0,29.829,3H6.354A3.363,3.363,0,0,0,3,6.354V29.829a3.363,3.363,0,0,0,3.354,3.354H29.829a3.363,3.363,0,0,0,3.353-3.354Zm-20.96-9.222,4.192,5.047,5.869-7.562,7.546,10.061H6.354Z" transform="translate(4.378 4.378)" fill="#dfe2f2"/><circle cx="2" cy="2" r="2" transform="translate(13.497 16.496)" fill="#fff"/></g></g><g transform="translate(927 322)"><rect width="131.809" height="133.809" rx="65.904" fill="#f2f7fb"/><g transform="translate(43.503 44.504)"><path d="M0,0H44.938V44.938H0Z" fill="none"/><path d="M33.182,29.829V6.354A3.363,3.363,0,0,0,29.829,3H6.354A3.363,3.363,0,0,0,3,6.354V29.829a3.363,3.363,0,0,0,3.354,3.354H29.829a3.363,3.363,0,0,0,3.353-3.354Zm-20.96-9.222,4.192,5.047,5.869-7.562,7.546,10.061H6.354Z" transform="translate(4.378 4.378)" fill="#dfe2f2"/><circle cx="2" cy="2" r="2" transform="translate(13.497 16.496)" fill="#fff"/></g></g><g transform="translate(927 528)"><rect width="131.809" height="133.809" rx="65.904" fill="#f2f7fb"/><g transform="translate(43.503 44.504)"><path d="M0,0H44.938V44.938H0Z" fill="none"/><path d="M33.182,29.829V6.354A3.363,3.363,0,0,0,29.829,3H6.354A3.363,3.363,0,0,0,3,6.354V29.829a3.363,3.363,0,0,0,3.354,3.354H29.829a3.363,3.363,0,0,0,3.353-3.354Zm-20.96-9.222,4.192,5.047,5.869-7.562,7.546,10.061H6.354Z" transform="translate(4.378 4.378)" fill="#dfe2f2"/><circle cx="2" cy="2" r="2" transform="translate(13.497 16.496)" fill="#fff"/></g></g><g transform="translate(927 732)"><rect width="131.809" height="133.809" rx="65.904" fill="#f2f7fb"/><g transform="translate(43.503 44.504)"><path d="M0,0H44.938V44.938H0Z" fill="none"/><path d="M33.182,29.829V6.354A3.363,3.363,0,0,0,29.829,3H6.354A3.363,3.363,0,0,0,3,6.354V29.829a3.363,3.363,0,0,0,3.354,3.354H29.829a3.363,3.363,0,0,0,3.353-3.354Zm-20.96-9.222,4.192,5.047,5.869-7.562,7.546,10.061H6.354Z" transform="translate(4.378 4.378)" fill="#dfe2f2"/><circle cx="2" cy="2" r="2" transform="translate(13.497 16.496)" fill="#fff"/></g></g><g transform="translate(526 528)"><rect width="131.809" height="133.809" rx="65.904" fill="#f2f7fb"/><g transform="translate(43.503 44.504)"><path d="M0,0H44.938V44.938H0Z" fill="none"/><path d="M33.182,29.829V6.354A3.363,3.363,0,0,0,29.829,3H6.354A3.363,3.363,0,0,0,3,6.354V29.829a3.363,3.363,0,0,0,3.354,3.354H29.829a3.363,3.363,0,0,0,3.353-3.354Zm-20.96-9.222,4.192,5.047,5.869-7.562,7.546,10.061H6.354Z" transform="translate(4.378 4.378)" fill="#dfe2f2"/><circle cx="2" cy="2" r="2" transform="translate(13.497 16.496)" fill="#fff"/></g></g><g transform="translate(526 732)"><rect width="131.809" height="133.809" rx="65.904" fill="#f2f7fb"/><g transform="translate(43.503 44.504)"><path d="M0,0H44.938V44.938H0Z" fill="none"/><path d="M33.182,29.829V6.354A3.363,3.363,0,0,0,29.829,3H6.354A3.363,3.363,0,0,0,3,6.354V29.829a3.363,3.363,0,0,0,3.354,3.354H29.829a3.363,3.363,0,0,0,3.353-3.354Zm-20.96-9.222,4.192,5.047,5.869-7.562,7.546,10.061H6.354Z" transform="translate(4.378 4.378)" fill="#dfe2f2"/><circle cx="2" cy="2" r="2" transform="translate(13.497 16.496)" fill="#fff"/></g></g><g transform="translate(125 528)"><rect width="131.809" height="133.809" rx="65.904" fill="#f2f7fb"/><g transform="translate(43.503 44.504)"><path d="M0,0H44.938V44.938H0Z" fill="none"/><path d="M33.182,29.829V6.354A3.363,3.363,0,0,0,29.829,3H6.354A3.363,3.363,0,0,0,3,6.354V29.829a3.363,3.363,0,0,0,3.354,3.354H29.829a3.363,3.363,0,0,0,3.353-3.354Zm-20.96-9.222,4.192,5.047,5.869-7.562,7.546,10.061H6.354Z" transform="translate(4.378 4.378)" fill="#dfe2f2"/><circle cx="2" cy="2" r="2" transform="translate(13.497 16.496)" fill="#fff"/></g></g><g transform="translate(125 732)"><rect width="131.809" height="133.809" rx="65.904" fill="#f2f7fb"/><g transform="translate(43.503 44.504)"><path d="M0,0H44.938V44.938H0Z" fill="none"/><path d="M33.182,29.829V6.354A3.363,3.363,0,0,0,29.829,3H6.354A3.363,3.363,0,0,0,3,6.354V29.829a3.363,3.363,0,0,0,3.354,3.354H29.829a3.363,3.363,0,0,0,3.353-3.354Zm-20.96-9.222,4.192,5.047,5.869-7.562,7.546,10.061H6.354Z" transform="translate(4.378 4.378)" fill="#dfe2f2"/><circle cx="2" cy="2" r="2" transform="translate(13.497 16.496)" fill="#fff"/></g></g><g transform="translate(-10 -4372)"><text transform="translate(289 4790)" fill="rgba(33,33,33,0.87)" font-size="20" font-family="Roboto-Regular, Roboto"><tspan x="0" y="0">Graphic Designer</tspan></text><text transform="translate(289 4756)" fill="rgba(0,0,0,0.87)" font-size="24" font-family="Roboto-Medium, Roboto" font-weight="500"><tspan x="0" y="0">Eva Benson</tspan></text></g><g transform="translate(391 -4374)"><text transform="translate(289 4790)" fill="rgba(33,33,33,0.87)" font-size="20" font-family="Roboto-Regular, Roboto"><tspan x="0" y="0">UI Designer</tspan></text><text transform="translate(289 4756)" fill="rgba(0,0,0,0.87)" font-size="24" font-family="Roboto-Medium, Roboto" font-weight="500"><tspan x="0" y="0">Kevin Lowry</tspan></text></g><g transform="translate(792 -4374)"><text transform="translate(289 4790)" fill="rgba(33,33,33,0.87)" font-size="20" font-family="Roboto-Regular, Roboto"><tspan x="0" y="0">Product Manager</tspan></text><text transform="translate(289 4756)" fill="rgba(0,0,0,0.87)" font-size="24" font-family="Roboto-Medium, Roboto" font-weight="500"><tspan x="0" y="0">Joseph Jackson</tspan></text></g><g transform="translate(792 -4168)"><text transform="translate(289 4790)" fill="rgba(33,33,33,0.87)" font-size="20" font-family="Roboto-Regular, Roboto"><tspan x="0" y="0">Graphic Designer</tspan></text><text transform="translate(289 4756)" fill="rgba(0,0,0,0.87)" font-size="24" font-family="Roboto-Medium, Roboto" font-weight="500"><tspan x="0" y="0">Eva Benson</tspan></text></g><g transform="translate(792 -3964)"><text transform="translate(289 4790)" fill="rgba(33,33,33,0.87)" font-size="20" font-family="Roboto-Regular, Roboto"><tspan x="0" y="0">Graphic Designer</tspan></text><text transform="translate(289 4756)" fill="rgba(0,0,0,0.87)" font-size="24" font-family="Roboto-Medium, Roboto" font-weight="500"><tspan x="0" y="0">Eva Benson</tspan></text></g><g transform="translate(391 -4168)"><text transform="translate(289 4790)" fill="rgba(33,33,33,0.87)" font-size="20" font-family="Roboto-Regular, Roboto"><tspan x="0" y="0">Graphic Designer</tspan></text><text transform="translate(289 4756)" fill="rgba(0,0,0,0.87)" font-size="24" font-family="Roboto-Medium, Roboto" font-weight="500"><tspan x="0" y="0">John Strickland</tspan></text></g><g transform="translate(391 -3964)"><text transform="translate(289 4790)" fill="rgba(33,33,33,0.87)" font-size="20" font-family="Roboto-Regular, Roboto"><tspan x="0" y="0">Graphic Designer</tspan></text><text transform="translate(289 4756)" fill="rgba(0,0,0,0.87)" font-size="24" font-family="Roboto-Medium, Roboto" font-weight="500"><tspan x="0" y="0">Eva Benson</tspan></text></g><g transform="translate(-10 -4168)"><text transform="translate(289 4790)" fill="rgba(33,33,33,0.87)" font-size="20" font-family="Roboto-Regular, Roboto"><tspan x="0" y="0">Graphic Designer</tspan></text><text transform="translate(289 4756)" fill="rgba(0,0,0,0.87)" font-size="24" font-family="Roboto-Medium, Roboto" font-weight="500"><tspan x="0" y="0">Mitchell Stark</tspan></text></g><g transform="translate(-10 -3964)"><text transform="translate(289 4790)" fill="rgba(33,33,33,0.87)" font-size="20" font-family="Roboto-Regular, Roboto"><tspan x="0" y="0">Graphic Designer</tspan></text><text transform="translate(289 4756)" fill="rgba(0,0,0,0.87)" font-size="24" font-family="Roboto-Medium, Roboto" font-weight="500"><tspan x="0" y="0">Eva Benson</tspan></text></g></g></svg>