<svg xmlns="http://www.w3.org/2000/svg" xmlns:xlink="http://www.w3.org/1999/xlink" width="1440" height="1209" viewBox="0 0 1440 1209"><defs><filter id="a" x="491" y="81" width="459" height="576.809" filterUnits="userSpaceOnUse"><feOffset dy="25" input="SourceAlpha"/><feGaussianBlur stdDeviation="15" result="b"/><feFlood flood-color="#aaa" flood-opacity="0.161"/><feComposite operator="in" in2="b"/><feComposite in="SourceGraphic"/></filter></defs><rect width="1440" height="1209" fill="#fff"/><rect width="368.809" height="486.809" transform="translate(135 101)" fill="#f2f7fb"/><g transform="translate(289.999 315.04)"><path d="M0,0H59.023V59.023H0Z" fill="none"/><path d="M47.267,42.349V7.919A4.933,4.933,0,0,0,42.349,3H7.919A4.933,4.933,0,0,0,3,7.919v34.43a4.933,4.933,0,0,0,4.919,4.919h34.43a4.933,4.933,0,0,0,4.918-4.919ZM16.526,28.823l6.148,7.4,8.608-11.091L42.349,39.889H7.919Z" transform="translate(4.378 4.378)" fill="#dfe2f2"/><ellipse cx="3" cy="3.5" rx="3" ry="3.5" transform="translate(16.001 19.96)" fill="#fff"/></g><rect width="368.809" height="486.809" transform="translate(135 617)" fill="#f2f7fb"/><g transform="translate(289.999 831.04)"><path d="M0,0H59.023V59.023H0Z" fill="none"/><path d="M47.267,42.349V7.919A4.933,4.933,0,0,0,42.349,3H7.919A4.933,4.933,0,0,0,3,7.919v34.43a4.933,4.933,0,0,0,4.919,4.919h34.43a4.933,4.933,0,0,0,4.918-4.919ZM16.526,28.823l6.148,7.4,8.608-11.091L42.349,39.889H7.919Z" transform="translate(4.378 4.378)" fill="#dfe2f2"/><ellipse cx="3" cy="3.5" rx="3" ry="3.5" transform="translate(16.001 19.96)" fill="#fff"/></g><rect width="368.809" height="486.809" transform="translate(135 101)" fill="#f2f7fb"/><g transform="translate(289.999 315.04)"><path d="M0,0H59.023V59.023H0Z" fill="none"/><path d="M47.267,42.349V7.919A4.933,4.933,0,0,0,42.349,3H7.919A4.933,4.933,0,0,0,3,7.919v34.43a4.933,4.933,0,0,0,4.919,4.919h34.43a4.933,4.933,0,0,0,4.918-4.919ZM16.526,28.823l6.148,7.4,8.608-11.091L42.349,39.889H7.919Z" transform="translate(4.378 4.378)" fill="#dfe2f2"/><ellipse cx="3" cy="3.5" rx="3" ry="3.5" transform="translate(16.001 19.96)" fill="#fff"/></g><rect width="368.809" height="486.809" transform="translate(135 622)" fill="#f2f7fb"/><g transform="translate(289.999 836.04)"><path d="M0,0H59.023V59.023H0Z" fill="none"/><path d="M47.267,42.349V7.919A4.933,4.933,0,0,0,42.349,3H7.919A4.933,4.933,0,0,0,3,7.919v34.43a4.933,4.933,0,0,0,4.919,4.919h34.43a4.933,4.933,0,0,0,4.918-4.919ZM16.526,28.823l6.148,7.4,8.608-11.091L42.349,39.889H7.919Z" transform="translate(4.378 4.378)" fill="#dfe2f2"/><ellipse cx="3" cy="3.5" rx="3" ry="3.5" transform="translate(16.001 19.96)" fill="#fff"/></g><rect width="368.809" height="486.809" transform="translate(536 622)" fill="#f2f7fb"/><g transform="translate(690.999 836.04)"><path d="M0,0H59.023V59.023H0Z" fill="none"/><path d="M47.267,42.349V7.919A4.933,4.933,0,0,0,42.349,3H7.919A4.933,4.933,0,0,0,3,7.919v34.43a4.933,4.933,0,0,0,4.919,4.919h34.43a4.933,4.933,0,0,0,4.918-4.919ZM16.526,28.823l6.148,7.4,8.608-11.091L42.349,39.889H7.919Z" transform="translate(4.378 4.378)" fill="#dfe2f2"/><ellipse cx="3" cy="3.5" rx="3" ry="3.5" transform="translate(16.001 19.96)" fill="#fff"/></g><rect width="368.809" height="486.809" transform="translate(937 101)" fill="#f2f7fb"/><g transform="translate(1091.999 315.04)"><path d="M0,0H59.023V59.023H0Z" fill="none"/><path d="M47.267,42.349V7.919A4.933,4.933,0,0,0,42.349,3H7.919A4.933,4.933,0,0,0,3,7.919v34.43a4.933,4.933,0,0,0,4.919,4.919h34.43a4.933,4.933,0,0,0,4.918-4.919ZM16.526,28.823l6.148,7.4,8.608-11.091L42.349,39.889H7.919Z" transform="translate(4.378 4.378)" fill="#dfe2f2"/><ellipse cx="3" cy="3.5" rx="3" ry="3.5" transform="translate(16.001 19.96)" fill="#fff"/></g><rect width="368.809" height="486.809" transform="translate(937 622)" fill="#f2f7fb"/><g transform="translate(1091.999 836.04)"><path d="M0,0H59.023V59.023H0Z" fill="none"/><path d="M47.267,42.349V7.919A4.933,4.933,0,0,0,42.349,3H7.919A4.933,4.933,0,0,0,3,7.919v34.43a4.933,4.933,0,0,0,4.919,4.919h34.43a4.933,4.933,0,0,0,4.918-4.919ZM16.526,28.823l6.148,7.4,8.608-11.091L42.349,39.889H7.919Z" transform="translate(4.378 4.378)" fill="#dfe2f2"/><ellipse cx="3" cy="3.5" rx="3" ry="3.5" transform="translate(16.001 19.96)" fill="#fff"/></g><g transform="matrix(1, 0, 0, 1, 0, 0)" filter="url(#a)"><path d="M0,0H369V486.809H0Z" transform="translate(536 101)" fill="#fff"/></g><text transform="translate(653 251)" fill="rgba(0,0,0,0.87)" font-size="24" font-family="Roboto-Medium, Roboto" font-weight="500"><tspan x="0" y="0">Kevin Lowry</tspan></text><text transform="translate(670.072 289)" fill="rgba(33,33,33,0.87)" font-size="20" font-family="Roboto-Regular, Roboto"><tspan x="0" y="0">UI Designer</tspan></text><text transform="translate(583.381 344)" fill="rgba(33,33,33,0.87)" font-size="20" font-family="Roboto-Regular, Roboto"><tspan x="0" y="0">I decide what the application is </tspan></text><text transform="translate(602.546 370)" fill="rgba(33,33,33,0.87)" font-size="20" font-family="Roboto-Regular, Roboto"><tspan x="0" y="0">going to look like. I have to </tspan></text><text transform="translate(593.249 396)" fill="rgba(33,33,33,0.87)" font-size="20" font-family="Roboto-Regular, Roboto"><tspan x="0" y="0">choose color schemes — the</tspan></text><path d="M13.442,0A13.437,13.437,0,1,0,26.885,13.439,13.437,13.437,0,0,0,13.442,0ZM9.536,20.313H6.262V10.468H9.536ZM7.9,9.123H7.878a1.706,1.706,0,1,1,.043-3.4,1.706,1.706,0,1,1-.022,3.4Zm13.442,11.19H18.068V15.046c0-1.324-.474-2.226-1.659-2.226a1.792,1.792,0,0,0-1.68,1.2,2.24,2.24,0,0,0-.108.8v5.5H11.348s.043-8.922,0-9.846h3.274v1.394a3.25,3.25,0,0,1,2.95-1.625c2.154,0,3.769,1.407,3.769,4.431Zm0,0" transform="translate(665 505.869)" fill="#667cff"/><path d="M13.607,0A13.6,13.6,0,1,0,27.214,13.6,13.6,13.6,0,0,0,13.607,0ZM19.82,10.6q.009.2.009.4a8.824,8.824,0,0,1-8.886,8.883h0a8.843,8.843,0,0,1-4.787-1.4,6.355,6.355,0,0,0,.745.043A6.268,6.268,0,0,0,10.779,17.2a3.126,3.126,0,0,1-2.918-2.168,3.114,3.114,0,0,0,1.411-.054,3.123,3.123,0,0,1-2.506-3.06c0-.014,0-.027,0-.04a3.1,3.1,0,0,0,1.415.39A3.124,3.124,0,0,1,7.215,8.1a8.868,8.868,0,0,0,6.438,3.262,3.125,3.125,0,0,1,5.322-2.847,6.266,6.266,0,0,0,1.983-.758A3.134,3.134,0,0,1,19.584,9.48a6.231,6.231,0,0,0,1.793-.492A6.346,6.346,0,0,1,19.82,10.6Zm0,0" transform="translate(707.335 505.869)" fill="#667cff"/><g transform="translate(749.549 505.869)"><path d="M297.277,508.668q-3.2.521-6.422.961Q294.078,509.189,297.277,508.668Zm0,0" transform="translate(-278.896 -484.801)" fill="#667cff"/><path d="M302.4,507.793c-1.02.188-2.039.359-3.059.535C300.359,508.152,301.379,507.98,302.4,507.793Zm0,0" transform="translate(-285.135 -484.801)" fill="#667cff"/><path d="M285.137,510.34q-3.744.422-7.527.742Q281.389,510.766,285.137,510.34Zm0,0" transform="translate(-266.778 -484.801)" fill="#667cff"/><path d="M290.055,509.738c-1.2.16-2.406.309-3.609.449C287.648,510.047,288.855,509.9,290.055,509.738Zm0,0" transform="translate(-273.148 -484.801)" fill="#667cff"/><path d="M309.367,506.41c-.9.191-1.8.383-2.7.566C307.566,506.793,308.469,506.6,309.367,506.41Zm0,0" transform="translate(-291.908 -484.801)" fill="#667cff"/><path d="M326.664,502.113c-.727.207-1.453.4-2.18.605C325.211,502.516,325.938,502.32,326.664,502.113Zm0,0" transform="translate(-308.553 -484.801)" fill="#667cff"/><path d="M321.434,503.543c-.789.207-1.582.418-2.375.617Q320.248,503.861,321.434,503.543Zm0,0" transform="translate(-303.51 -484.801)" fill="#667cff"/><path d="M314.59,505.254c-.836.2-1.68.379-2.523.566C312.91,505.633,313.754,505.449,314.59,505.254Zm0,0" transform="translate(-296.945 -484.801)" fill="#667cff"/><path d="M277.527,511.09q-2.021.17-4.047.3Q275.508,511.26,277.527,511.09Zm0,0" transform="translate(-261.01 -484.801)" fill="#667cff"/><path d="M27.21,13.6A13.6,13.6,0,1,0,13.6,27.2h.239V16.609H10.921V13.2h2.923V10.7c0-2.906,1.775-4.488,4.368-4.488a24.07,24.07,0,0,1,2.62.134V9.382H19.044c-1.411,0-1.684.67-1.684,1.654V13.2h3.373l-.44,3.4H17.36V26.674A13.608,13.608,0,0,0,27.21,13.6Zm0,0" fill="#667cff"/><path d="M272.914,511.43q-4,.258-8.023.4Q268.916,511.693,272.914,511.43Zm0,0" transform="translate(-254.806 -484.801)" fill="#667cff"/><path d="M264.754,511.836q-2.121.07-4.25.105Q262.631,511.906,264.754,511.836Zm0,0" transform="translate(-248.724 -484.801)" fill="#667cff"/></g></svg>