<svg xmlns="http://www.w3.org/2000/svg" width="1440" height="896" viewBox="0 0 1440 896"><rect width="1440" height="896" fill="#fff"/><g transform="translate(-71.191 72)"><text transform="translate(601.464 80)" fill="rgba(0,0,0,0.87)" font-size="48" font-family="Roboto-Medium, Roboto" font-weight="500"><tspan x="0" y="0">Our Perfect Team</tspan></text><g transform="translate(71.191 -1796)"><g transform="translate(191 1967)"><rect width="159.809" height="161.809" rx="79.904" fill="#f2f7fb"/><g transform="translate(50.427 51.428)"><path d="M0,0H59.023V59.023H0Z" fill="none"/><path d="M47.267,42.349V7.919A4.933,4.933,0,0,0,42.349,3H7.919A4.933,4.933,0,0,0,3,7.919v34.43a4.933,4.933,0,0,0,4.919,4.919h34.43a4.933,4.933,0,0,0,4.918-4.919ZM16.526,28.823l6.148,7.4,8.608-11.091L42.349,39.889H7.919Z" transform="translate(4.378 4.378)" fill="#dfe2f2"/><ellipse cx="3" cy="3.5" rx="3" ry="3.5" transform="translate(15.573 18.572)" fill="#fff"/></g></g><text transform="translate(193.744 2178)" fill="rgba(0,0,0,0.87)" font-size="24" font-family="Roboto-Medium, Roboto" font-weight="500"><tspan x="0" y="0">Mitchell Stark</tspan></text><text transform="translate(195.058 2211)" fill="rgba(33,33,33,0.87)" font-size="20" font-family="Roboto-Regular, Roboto"><tspan x="0" y="0">Graphic Designer</tspan></text></g><g transform="translate(71.191 -1796)"><g transform="translate(473 1967)"><rect width="159.809" height="161.809" rx="79.904" fill="#f2f7fb"/><g transform="translate(50.427 51.428)"><path d="M0,0H59.023V59.023H0Z" fill="none"/><path d="M47.267,42.349V7.919A4.933,4.933,0,0,0,42.349,3H7.919A4.933,4.933,0,0,0,3,7.919v34.43a4.933,4.933,0,0,0,4.919,4.919h34.43a4.933,4.933,0,0,0,4.918-4.919ZM16.526,28.823l6.148,7.4,8.608-11.091L42.349,39.889H7.919Z" transform="translate(4.378 4.378)" fill="#dfe2f2"/><ellipse cx="3" cy="3.5" rx="3" ry="3.5" transform="translate(15.573 18.572)" fill="#fff"/></g></g><text transform="translate(485.119 2178)" fill="rgba(0,0,0,0.87)" font-size="24" font-family="Roboto-Medium, Roboto" font-weight="500"><tspan x="0" y="0">Kevin Lowry</tspan></text><text transform="translate(502.072 2211)" fill="rgba(33,33,33,0.87)" font-size="20" font-family="Roboto-Regular, Roboto"><tspan x="0" y="0">UI Designer</tspan></text></g><g transform="translate(852.191 171)"><rect width="159.809" height="161.809" rx="79.904" fill="#f2f7fb"/><g transform="translate(50.427 51.428)"><path d="M0,0H59.023V59.023H0Z" fill="none"/><path d="M47.267,42.349V7.919A4.933,4.933,0,0,0,42.349,3H7.919A4.933,4.933,0,0,0,3,7.919v34.43a4.933,4.933,0,0,0,4.919,4.919h34.43a4.933,4.933,0,0,0,4.918-4.919ZM16.526,28.823l6.148,7.4,8.608-11.091L42.349,39.889H7.919Z" transform="translate(4.378 4.378)" fill="#dfe2f2"/><ellipse cx="3" cy="3.5" rx="3" ry="3.5" transform="translate(15.573 18.572)" fill="#fff"/></g></g><text transform="translate(841.271 382)" fill="rgba(0,0,0,0.87)" font-size="24" font-family="Roboto-Medium, Roboto" font-weight="500"><tspan x="0" y="0">Joseph Jackson</tspan></text><text transform="translate(855.345 415)" fill="rgba(33,33,33,0.87)" font-size="20" font-family="Roboto-Regular, Roboto"><tspan x="0" y="0">Product Manager</tspan></text><g transform="translate(71.191 -1796)"><g transform="translate(1089 1967)"><rect width="159.809" height="161.809" rx="79.904" fill="#f2f7fb"/><g transform="translate(50.427 51.428)"><path d="M0,0H59.023V59.023H0Z" fill="none"/><path d="M47.267,42.349V7.919A4.933,4.933,0,0,0,42.349,3H7.919A4.933,4.933,0,0,0,3,7.919v34.43a4.933,4.933,0,0,0,4.919,4.919h34.43a4.933,4.933,0,0,0,4.918-4.919ZM16.526,28.823l6.148,7.4,8.608-11.091L42.349,39.889H7.919Z" transform="translate(4.378 4.378)" fill="#dfe2f2"/><ellipse cx="3" cy="3.5" rx="3" ry="3.5" transform="translate(15.573 18.572)" fill="#fff"/></g></g><text transform="translate(1091.744 2178)" fill="rgba(0,0,0,0.87)" font-size="24" font-family="Roboto-Medium, Roboto" font-weight="500"><tspan x="0" y="0">Mitchell Stark</tspan></text><text transform="translate(1093.058 2211)" fill="rgba(33,33,33,0.87)" font-size="20" font-family="Roboto-Regular, Roboto"><tspan x="0" y="0">Graphic Designer</tspan></text></g><g transform="translate(71.191 -1494)"><g transform="translate(191 1967)"><rect width="159.809" height="161.809" rx="79.904" fill="#f2f7fb"/><g transform="translate(50.427 51.428)"><path d="M0,0H59.023V59.023H0Z" fill="none"/><path d="M47.267,42.349V7.919A4.933,4.933,0,0,0,42.349,3H7.919A4.933,4.933,0,0,0,3,7.919v34.43a4.933,4.933,0,0,0,4.919,4.919h34.43a4.933,4.933,0,0,0,4.918-4.919ZM16.526,28.823l6.148,7.4,8.608-11.091L42.349,39.889H7.919Z" transform="translate(4.378 4.378)" fill="#dfe2f2"/><ellipse cx="3" cy="3.5" rx="3" ry="3.5" transform="translate(15.573 18.572)" fill="#fff"/></g></g><text transform="translate(208.656 2178)" fill="rgba(0,0,0,0.87)" font-size="24" font-family="Roboto-Medium, Roboto" font-weight="500"><tspan x="0" y="0">Eva Benson</tspan></text><text transform="translate(195.058 2211)" fill="rgba(33,33,33,0.87)" font-size="20" font-family="Roboto-Regular, Roboto"><tspan x="0" y="0">Graphic Designer</tspan></text></g><g transform="translate(71.191 -1494)"><g transform="translate(473 1967)"><rect width="159.809" height="161.809" rx="79.904" fill="#f2f7fb"/><g transform="translate(50.427 51.428)"><path d="M0,0H59.023V59.023H0Z" fill="none"/><path d="M47.267,42.349V7.919A4.933,4.933,0,0,0,42.349,3H7.919A4.933,4.933,0,0,0,3,7.919v34.43a4.933,4.933,0,0,0,4.919,4.919h34.43a4.933,4.933,0,0,0,4.918-4.919ZM16.526,28.823l6.148,7.4,8.608-11.091L42.349,39.889H7.919Z" transform="translate(4.378 4.378)" fill="#dfe2f2"/><ellipse cx="3" cy="3.5" rx="3" ry="3.5" transform="translate(15.573 18.572)" fill="#fff"/></g></g><text transform="translate(469.117 2178)" fill="rgba(0,0,0,0.87)" font-size="24" font-family="Roboto-Medium, Roboto" font-weight="500"><tspan x="0" y="0">John Strickland</tspan></text><text transform="translate(502.072 2211)" fill="rgba(33,33,33,0.87)" font-size="20" font-family="Roboto-Regular, Roboto"><tspan x="0" y="0">UI Designer</tspan></text></g><g transform="translate(71.191 -1494)"><g transform="translate(781 1967)"><rect width="159.809" height="161.809" rx="79.904" fill="#f2f7fb"/><g transform="translate(50.427 51.428)"><path d="M0,0H59.023V59.023H0Z" fill="none"/><path d="M47.267,42.349V7.919A4.933,4.933,0,0,0,42.349,3H7.919A4.933,4.933,0,0,0,3,7.919v34.43a4.933,4.933,0,0,0,4.919,4.919h34.43a4.933,4.933,0,0,0,4.918-4.919ZM16.526,28.823l6.148,7.4,8.608-11.091L42.349,39.889H7.919Z" transform="translate(4.378 4.378)" fill="#dfe2f2"/><ellipse cx="3" cy="3.5" rx="3" ry="3.5" transform="translate(15.573 18.572)" fill="#fff"/></g></g><text transform="translate(774.398 2178)" fill="rgba(0,0,0,0.87)" font-size="24" font-family="Roboto-Medium, Roboto" font-weight="500"><tspan x="0" y="0">Marion Sanchez</tspan></text><text transform="translate(784.154 2211)" fill="rgba(33,33,33,0.87)" font-size="20" font-family="Roboto-Regular, Roboto"><tspan x="0" y="0">Product Manager</tspan></text></g><g transform="translate(71.191 -1494)"><g transform="translate(1089 1967)"><rect width="159.809" height="161.809" rx="79.904" fill="#f2f7fb"/><g transform="translate(50.427 51.428)"><path d="M0,0H59.023V59.023H0Z" fill="none"/><path d="M47.267,42.349V7.919A4.933,4.933,0,0,0,42.349,3H7.919A4.933,4.933,0,0,0,3,7.919v34.43a4.933,4.933,0,0,0,4.919,4.919h34.43a4.933,4.933,0,0,0,4.918-4.919ZM16.526,28.823l6.148,7.4,8.608-11.091L42.349,39.889H7.919Z" transform="translate(4.378 4.378)" fill="#dfe2f2"/><ellipse cx="3" cy="3.5" rx="3" ry="3.5" transform="translate(15.573 18.572)" fill="#fff"/></g></g><text transform="translate(1106.158 2178)" fill="rgba(0,0,0,0.87)" font-size="24" font-family="Roboto-Medium, Roboto" font-weight="500"><tspan x="0" y="0">Ben Morton</tspan></text><text transform="translate(1093.058 2211)" fill="rgba(33,33,33,0.87)" font-size="20" font-family="Roboto-Regular, Roboto"><tspan x="0" y="0">Graphic Designer</tspan></text></g></g></svg>