<svg xmlns="http://www.w3.org/2000/svg" width="1440" height="867" viewBox="0 0 1440 867"><rect width="1440" height="867" fill="#fff"/><g transform="translate(18)"><text transform="translate(522 151)" fill="rgba(0,0,0,0.87)" font-size="48" font-family="Roboto-Medium, Roboto" font-weight="500"><tspan x="0" y="0">Meet Out team</tspan></text><text transform="translate(328.126 204)" fill="rgba(33,33,33,0.87)" font-size="20" font-family="Roboto-Regular, Roboto"><tspan x="0" y="0">Lorem ipsum dolor sit amet, consectetur adipiscing elit, sed do eiusmod tempor </tspan></text><text transform="translate(489.347 230)" fill="rgba(33,33,33,0.87)" font-size="20" font-family="Roboto-Regular, Roboto"><tspan x="0" y="0">incididunt ut labore et dolore magna aliqua.</tspan></text><g transform="translate(-18 -803)"><g transform="translate(0 10)"><text transform="translate(192.744 1384)" fill="rgba(0,0,0,0.87)" font-size="24" font-family="Roboto-Medium, Roboto" font-weight="500"><tspan x="0" y="0">Mitchell Stark</tspan></text><text transform="translate(194.058 1417)" fill="rgba(33,33,33,0.87)" font-size="20" font-family="Roboto-Regular, Roboto"><tspan x="0" y="0">Graphic Designer</tspan></text><g transform="translate(135 1120)"><rect width="270.809" height="214.809" fill="#f2f7fb"/><g transform="translate(105.966 77.946)"><path d="M0,0H59.023V59.023H0Z" fill="none"/><path d="M47.267,42.349V7.919A4.933,4.933,0,0,0,42.349,3H7.919A4.933,4.933,0,0,0,3,7.919v34.43a4.933,4.933,0,0,0,4.919,4.919h34.43a4.933,4.933,0,0,0,4.918-4.919ZM16.526,28.823l6.148,7.4,8.608-11.091L42.349,39.889H7.919Z" transform="translate(4.378 4.378)" fill="#dfe2f2"/><ellipse cx="3" cy="3.5" rx="3" ry="3.5" transform="translate(16.034 18.054)" fill="#fff"/></g></g></g><g transform="translate(303 10)"><text transform="translate(202.119 1384)" fill="rgba(0,0,0,0.87)" font-size="24" font-family="Roboto-Medium, Roboto" font-weight="500"><tspan x="0" y="0">Kevin Lowry</tspan></text><text transform="translate(219.072 1417)" fill="rgba(33,33,33,0.87)" font-size="20" font-family="Roboto-Regular, Roboto"><tspan x="0" y="0">UI Designer</tspan></text><g transform="translate(135 1120)"><rect width="270.809" height="214.809" fill="#f2f7fb"/><g transform="translate(105.966 77.946)"><path d="M0,0H59.023V59.023H0Z" fill="none"/><path d="M47.267,42.349V7.919A4.933,4.933,0,0,0,42.349,3H7.919A4.933,4.933,0,0,0,3,7.919v34.43a4.933,4.933,0,0,0,4.919,4.919h34.43a4.933,4.933,0,0,0,4.918-4.919ZM16.526,28.823l6.148,7.4,8.608-11.091L42.349,39.889H7.919Z" transform="translate(4.378 4.378)" fill="#dfe2f2"/><ellipse cx="3" cy="3.5" rx="3" ry="3.5" transform="translate(16.034 18.054)" fill="#fff"/></g></g></g><g transform="translate(606 10)"><text transform="translate(179.08 1384)" fill="rgba(0,0,0,0.87)" font-size="24" font-family="Roboto-Medium, Roboto" font-weight="500"><tspan x="0" y="0">Joseph Jackson</tspan></text><text transform="translate(193.154 1417)" fill="rgba(33,33,33,0.87)" font-size="20" font-family="Roboto-Regular, Roboto"><tspan x="0" y="0">Product Manager</tspan></text><g transform="translate(135 1120)"><rect width="270.809" height="214.809" fill="#f2f7fb"/><g transform="translate(105.966 77.946)"><path d="M0,0H59.023V59.023H0Z" fill="none"/><path d="M47.267,42.349V7.919A4.933,4.933,0,0,0,42.349,3H7.919A4.933,4.933,0,0,0,3,7.919v34.43a4.933,4.933,0,0,0,4.919,4.919h34.43a4.933,4.933,0,0,0,4.918-4.919ZM16.526,28.823l6.148,7.4,8.608-11.091L42.349,39.889H7.919Z" transform="translate(4.378 4.378)" fill="#dfe2f2"/><ellipse cx="3" cy="3.5" rx="3" ry="3.5" transform="translate(16.034 18.054)" fill="#fff"/></g></g></g><g transform="translate(899 10)"><text transform="translate(192.744 1384)" fill="rgba(0,0,0,0.87)" font-size="24" font-family="Roboto-Medium, Roboto" font-weight="500"><tspan x="0" y="0">Mitchell Stark</tspan></text><text transform="translate(194.058 1417)" fill="rgba(33,33,33,0.87)" font-size="20" font-family="Roboto-Regular, Roboto"><tspan x="0" y="0">Graphic Designer</tspan></text><g transform="translate(135 1120)"><rect width="270.809" height="214.809" fill="#f2f7fb"/><g transform="translate(105.966 77.946)"><path d="M0,0H59.023V59.023H0Z" fill="none"/><path d="M47.267,42.349V7.919A4.933,4.933,0,0,0,42.349,3H7.919A4.933,4.933,0,0,0,3,7.919v34.43a4.933,4.933,0,0,0,4.919,4.919h34.43a4.933,4.933,0,0,0,4.918-4.919ZM16.526,28.823l6.148,7.4,8.608-11.091L42.349,39.889H7.919Z" transform="translate(4.378 4.378)" fill="#dfe2f2"/><ellipse cx="3" cy="3.5" rx="3" ry="3.5" transform="translate(16.034 18.054)" fill="#fff"/></g></g></g></g><g transform="translate(603 709)"><path d="M33.749,0h131.5C183.89,0,199,12.984,199,29s-15.11,29-33.749,29H33.749C15.11,58,0,45.016,0,29S15.11,0,33.749,0Z" fill="#18c5bf"/><text transform="translate(40 37)" fill="#fff" font-size="20" font-family="Roboto-Medium, Roboto" font-weight="500"><tspan x="0" y="0">Join Us Now!</tspan></text></g></g></svg>