<svg xmlns="http://www.w3.org/2000/svg" width="1570.002" height="354" viewBox="0 0 1570.002 354"><g transform="translate(13.501)"><rect width="1440" height="354" fill="#fff"/><g transform="translate(-39 -14)"><text transform="translate(1027 203)" fill="rgba(0,0,0,0.87)" font-size="20" font-family="Roboto-Medium, Roboto" font-weight="500"><tspan x="0" y="0">Link 1</tspan></text><text transform="translate(909 203)" fill="rgba(0,0,0,0.87)" font-size="20" font-family="Roboto-Medium, Roboto" font-weight="500"><tspan x="0" y="0">Link 2</tspan></text><text transform="translate(791 203)" fill="rgba(0,0,0,0.87)" font-size="20" font-family="Roboto-Medium, Roboto" font-weight="500"><tspan x="0" y="0">Link 3</tspan></text><text transform="translate(673 203)" fill="rgba(0,0,0,0.87)" font-size="20" font-family="Roboto-Medium, Roboto" font-weight="500"><tspan x="0" y="0">Link 4</tspan></text><text transform="translate(555 203)" fill="rgba(0,0,0,0.87)" font-size="20" font-family="Roboto-Medium, Roboto" font-weight="500"><tspan x="0" y="0">Link 5</tspan></text><text transform="translate(437 203)" fill="rgba(0,0,0,0.87)" font-size="20" font-family="Roboto-Medium, Roboto" font-weight="500"><tspan x="0" y="0">Link 6</tspan></text></g><g transform="translate(-369.292 -40)"><path d="M14.325,0A14.325,14.325,0,1,0,28.65,14.325,14.325,14.325,0,0,0,14.325,0ZM10.162,21.655H6.673v-10.5h3.489ZM8.418,9.726H8.4A1.818,1.818,0,1,1,8.441,6.1a1.819,1.819,0,1,1-.023,3.627ZM22.742,21.655H19.254V16.04c0-1.411-.5-2.374-1.767-2.374a1.91,1.91,0,0,0-1.79,1.276,2.389,2.389,0,0,0-.115.851v5.861H12.093s.046-9.511,0-10.5h3.489V12.64a3.463,3.463,0,0,1,3.144-1.732c2.3,0,4.016,1.5,4.016,4.724Zm0,0" transform="translate(1018.292 120)" fill="#666"/><path d="M14.5,0A14.5,14.5,0,1,0,29,14.5,14.5,14.5,0,0,0,14.5,0Zm6.621,11.306q.01.214.01.43A9.4,9.4,0,0,1,11.662,21.2h0a9.421,9.421,0,0,1-5.1-1.5,6.769,6.769,0,0,0,.794.046,6.678,6.678,0,0,0,4.134-1.425A3.332,3.332,0,0,1,8.378,16.02a3.317,3.317,0,0,0,1.5-.057A3.329,3.329,0,0,1,7.211,12.7q0-.023,0-.042a3.305,3.305,0,0,0,1.507.416,3.331,3.331,0,0,1-1.03-4.443,9.449,9.449,0,0,0,6.86,3.477A3.33,3.33,0,0,1,20.22,9.073a6.675,6.675,0,0,0,2.113-.808,3.341,3.341,0,0,1-1.464,1.841,6.638,6.638,0,0,0,1.911-.524,6.764,6.764,0,0,1-1.659,1.724Zm0,0" transform="translate(1073.924 120)" fill="#666"/><g transform="translate(1130.806 120)"><path d="M297.7,508.668q-3.409.556-6.843,1.024Q294.29,509.224,297.7,508.668Zm0,0" transform="translate(-268.251 -483.223)" fill="#666"/><path d="M302.6,507.793c-1.086.2-2.173.383-3.259.57C300.426,508.176,301.513,507.993,302.6,507.793Zm0,0" transform="translate(-274.342 -483.28)" fill="#666"/><path d="M285.631,510.34q-3.99.45-8.021.791Q281.637,510.794,285.631,510.34Zm0,0" transform="translate(-256.207 -483.113)" fill="#666"/><path d="M290.292,509.738c-1.278.171-2.564.329-3.846.479C287.727,510.067,289.014,509.909,290.292,509.738Zm0,0" transform="translate(-262.415 -483.152)" fill="#666"/><path d="M309.545,506.41c-.957.2-1.919.408-2.881.6C307.626,506.818,308.587,506.614,309.545,506.41Zm0,0" transform="translate(-281.079 -483.371)" fill="#666"/><path d="M326.807,502.113c-.774.221-1.548.429-2.323.645C325.259,502.542,326.033,502.334,326.807,502.113Zm0,0" transform="translate(-297.648 -483.653)" fill="#666"/><path d="M321.589,503.543c-.841.221-1.686.445-2.531.658Q320.326,503.882,321.589,503.543Zm0,0" transform="translate(-292.63 -483.559)" fill="#666"/><path d="M314.755,505.254c-.891.208-1.79.4-2.689.6C312.966,505.658,313.865,505.462,314.755,505.254Zm0,0" transform="translate(-286.093 -483.447)" fill="#666"/><path d="M277.793,511.09q-2.154.181-4.313.325Q275.641,511.271,277.793,511.09Zm0,0" transform="translate(-250.331 -483.064)" fill="#666"/><path d="M29,14.5A14.5,14.5,0,1,0,14.5,29h.255V17.707H11.638v-3.63h3.115V11.4c0-3.1,1.891-4.784,4.655-4.784a25.642,25.642,0,0,1,2.793.143V10H20.3c-1.5,0-1.8.715-1.8,1.763v2.312h3.595l-.469,3.63H18.5V28.436A14.506,14.506,0,0,0,29,14.5Zm0,0" fill="#666"/><path d="M273.441,511.43q-4.258.275-8.55.425Q269.18,511.711,273.441,511.43Zm0,0" transform="translate(-244.284 -483.041)" fill="#666"/><path d="M265.033,511.836q-2.26.075-4.529.112Q262.77,511.911,265.033,511.836Zm0,0" transform="translate(-238.091 -483.015)" fill="#666"/></g></g><line y1="2" x2="1570" transform="translate(-13.5 272.5)" fill="none" stroke="#bfbfbf" stroke-width="1"/><g transform="translate(156)"><g transform="translate(0 7)"><text transform="translate(120 312)" fill="rgba(33,33,33,0.87)" font-size="16" font-family="Roboto-Regular, Roboto"><tspan x="0" y="0">Tel:</tspan></text><text transform="translate(153 312)" fill="rgba(33,33,33,0.87)" font-size="16" font-family="Roboto-Regular, Roboto"><tspan x="0" y="0">+1234567890</tspan></text></g><text transform="translate(342 319)" fill="rgba(33,33,33,0.87)" font-size="16" font-family="Roboto-Regular, Roboto"><tspan x="0" y="0">Email: info@uxplugins.com</tspan></text><text transform="translate(629 319)" fill="rgba(33,33,33,0.87)" font-size="16" font-family="Roboto-Regular, Roboto"><tspan x="0" y="0" xml:space="preserve">Address: 463  Round Table Drive, Norwood, OH, Ohio</tspan></text></g></g></svg>