<?xml version="1.0" standalone="no"?>
<!-- Generator: Adobe Fireworks 10, Export SVG Extension by Aaron Beall (http://fireworks.abeall.com) . Version: 0.6.0  -->
<!DOCTYPE svg PUBLIC "-//W3C//DTD SVG 1.1//EN" "http://www.w3.org/Graphics/SVG/1.1/DTD/svg11.dtd">
<svg id="icon@5x" viewBox="0 0 192 192" style="background-color:#ffffff00" version="1.1"
	xmlns="http://www.w3.org/2000/svg" xmlns:xlink="http://www.w3.org/1999/xlink" xml:space="preserve"
	x="0px" y="0px" width="192px" height="192px"
>
	<g id="Background">
		<path d="M 143.4 28 L 175 28 L 96 164 L 17 28 L 48.205 28 L 77.435 28 L 96 59.5362 L 114.17 28 L 143.4 28 L 143.4 28 Z" fill="#41b883"/>
		<path d="M 48.205 28 L 96 109.9942 L 143.4 28 L 114.17 28 L 96 59.5362 L 77.435 28 L 48.205 28 L 48.205 28 Z" fill="#35495e"/>
		<rect x="6" y="6" width="180" height="180" stroke="#1ecb40" stroke-width="1" fill="none"/>
		<path d="M 6.5 1 L 12 6.5 L 6.5 12 L 1 6.5 L 6.5 1 Z" stroke="#ffffff" stroke-width="1" fill="#1ecb40"/>
		<path id="Ellipse" d="M 92.5 6.5 C 92.5 4.567 94.067 3 96 3 C 97.933 3 99.5 4.567 99.5 6.5 C 99.5 8.433 97.933 10 96 10 C 94.067 10 92.5 8.433 92.5 6.5 Z" stroke="#1ecb40" stroke-width="1" fill="#ffffff"/>
		<path id="Ellipse2" d="M 182 6.5 C 182 4.567 183.567 3 185.5 3 C 187.433 3 189 4.567 189 6.5 C 189 8.433 187.433 10 185.5 10 C 183.567 10 182 8.433 182 6.5 Z" stroke="#1ecb40" stroke-width="1" fill="#ffffff"/>
		<path id="Ellipse3" d="M 92.5 185.5 C 92.5 183.567 94.067 182 96 182 C 97.933 182 99.5 183.567 99.5 185.5 C 99.5 187.433 97.933 189 96 189 C 94.067 189 92.5 187.433 92.5 185.5 Z" stroke="#1ecb40" stroke-width="1" fill="#ffffff"/>
		<path id="Ellipse4" d="M 182 185.5 C 182 183.567 183.567 182 185.5 182 C 187.433 182 189 183.567 189 185.5 C 189 187.433 187.433 189 185.5 189 C 183.567 189 182 187.433 182 185.5 Z" stroke="#1ecb40" stroke-width="1" fill="#ffffff"/>
		<path id="Ellipse5" d="M 182 96 C 182 94.067 183.567 92.5 185.5 92.5 C 187.433 92.5 189 94.067 189 96 C 189 97.933 187.433 99.5 185.5 99.5 C 183.567 99.5 182 97.933 182 96 Z" stroke="#1ecb40" stroke-width="1" fill="#ffffff"/>
		<path id="Ellipse6" d="M 3 96 C 3 94.067 4.567 92.5 6.5 92.5 C 8.433 92.5 10 94.067 10 96 C 10 97.933 8.433 99.5 6.5 99.5 C 4.567 99.5 3 97.933 3 96 Z" stroke="#1ecb40" stroke-width="1" fill="#ffffff"/>
		<path id="Ellipse7" d="M 3 185.5 C 3 183.567 4.567 182 6.5 182 C 8.433 182 10 183.567 10 185.5 C 10 187.433 8.433 189 6.5 189 C 4.567 189 3 187.433 3 185.5 Z" stroke="#1ecb40" stroke-width="1" fill="#ffffff"/>
	</g>
	<g id="Layer%201">
	</g>
</svg>