<svg xmlns="http://www.w3.org/2000/svg" xmlns:xlink="http://www.w3.org/1999/xlink" width="1680" height="734" viewBox="0 0 1680 734"><defs><filter id="a" x="63" y="194" width="619" height="502" filterUnits="userSpaceOnUse"><feOffset dy="40" input="SourceAlpha"/><feGaussianBlur stdDeviation="25" result="b"/><feFlood flood-color="#aaa" flood-opacity="0.161"/><feComposite operator="in" in2="b"/><feComposite in="SourceGraphic"/></filter><filter id="c" x="561" y="194" width="619" height="502" filterUnits="userSpaceOnUse"><feOffset dy="40" input="SourceAlpha"/><feGaussianBlur stdDeviation="25" result="d"/><feFlood flood-color="#aaa" flood-opacity="0.161"/><feComposite operator="in" in2="d"/><feComposite in="SourceGraphic"/></filter><filter id="e" x="1061" y="194" width="619" height="502" filterUnits="userSpaceOnUse"><feOffset dy="40" input="SourceAlpha"/><feGaussianBlur stdDeviation="25" result="f"/><feFlood flood-color="#aaa" flood-opacity="0.161"/><feComposite operator="in" in2="f"/><feComposite in="SourceGraphic"/></filter></defs><rect width="1440" height="734" fill="#fff"/><g transform="matrix(1, 0, 0, 1, 0, 0)" filter="url(#a)"><rect width="469" height="352" transform="translate(138 229)" fill="#f2f7fb"/></g><g transform="translate(313 258)"><rect width="100" height="100" rx="50" fill="#f2f7fb"/><g transform="translate(20.503 20.503)"><path d="M0,0H59.023V59.023H0Z" fill="none"/><path d="M47.267,42.349V7.919A4.933,4.933,0,0,0,42.349,3H7.919A4.933,4.933,0,0,0,3,7.919v34.43a4.933,4.933,0,0,0,4.919,4.919h34.43a4.933,4.933,0,0,0,4.918-4.919ZM16.526,28.823l6.148,7.4,8.608-11.091L42.349,39.889H7.919Z" transform="translate(4.378 4.378)" fill="#dfe2f2"/><ellipse cx="3" cy="3.5" rx="3" ry="3.5" transform="translate(16.501 19)" fill="#fff"/></g></g><g transform="translate(-35 138)"><text transform="translate(306.08 272)" fill="rgba(0,0,0,0.87)" font-size="24" font-family="Roboto-Medium, Roboto" font-weight="500"><tspan x="0" y="0">Joseph Jackson</tspan></text><text transform="translate(320.154 303)" fill="rgba(33,33,33,0.87)" font-size="20" font-family="Roboto-Regular, Roboto"><tspan x="0" y="0">Product Manager</tspan></text></g><text transform="translate(187.92 493)" fill="rgba(33,33,33,0.87)" font-size="20" font-family="Roboto-Regular, Roboto"><tspan x="0" y="0">Auto Flow makes it easy to draw stunning </tspan></text><text transform="translate(186.006 519)" fill="rgba(33,33,33,0.87)" font-size="20" font-family="Roboto-Regular, Roboto"><tspan x="0" y="0">flows for creating WireFrames, UserFlows, </tspan></text><text transform="translate(167.905 545)" fill="rgba(33,33,33,0.87)" font-size="20" font-family="Roboto-Regular, Roboto"><tspan x="0" y="0">FlowCharts and Design guides. With AutoFlow</tspan></text><g transform="translate(496 128)"><g transform="matrix(1, 0, 0, 1, -496, -128)" filter="url(#c)"><rect width="469" height="352" transform="translate(636 229)" fill="#f2f7fb"/></g><g transform="translate(-33 5)"><g transform="translate(348 125)"><rect width="100" height="100" rx="50" fill="#f2f7fb"/><g transform="translate(20.503 20.503)"><path d="M0,0H59.023V59.023H0Z" fill="none"/><path d="M47.267,42.349V7.919A4.933,4.933,0,0,0,42.349,3H7.919A4.933,4.933,0,0,0,3,7.919v34.43a4.933,4.933,0,0,0,4.919,4.919h34.43a4.933,4.933,0,0,0,4.918-4.919ZM16.526,28.823l6.148,7.4,8.608-11.091L42.349,39.889H7.919Z" transform="translate(4.378 4.378)" fill="#dfe2f2"/><ellipse cx="3" cy="3.5" rx="3" ry="3.5" transform="translate(16.501 19)" fill="#fff"/></g></g><g transform="translate(0 5)"><text transform="translate(306.08 272)" fill="rgba(0,0,0,0.87)" font-size="24" font-family="Roboto-Medium, Roboto" font-weight="500"><tspan x="0" y="0">Joseph Jackson</tspan></text><text transform="translate(320.154 303)" fill="rgba(33,33,33,0.87)" font-size="20" font-family="Roboto-Regular, Roboto"><tspan x="0" y="0">Product Manager</tspan></text></g><text transform="translate(222.92 360)" fill="rgba(33,33,33,0.87)" font-size="20" font-family="Roboto-Regular, Roboto"><tspan x="0" y="0">Auto Flow makes it easy to draw stunning </tspan></text><text transform="translate(221.006 386)" fill="rgba(33,33,33,0.87)" font-size="20" font-family="Roboto-Regular, Roboto"><tspan x="0" y="0">flows for creating WireFrames, UserFlows, </tspan></text><text transform="translate(202.905 412)" fill="rgba(33,33,33,0.87)" font-size="20" font-family="Roboto-Regular, Roboto"><tspan x="0" y="0">FlowCharts and Design guides. With AutoFlow</tspan></text></g></g><g transform="translate(996 128)"><g transform="matrix(1, 0, 0, 1, -996, -128)" filter="url(#e)"><rect width="469" height="352" transform="translate(1136 229)" fill="#f2f7fb"/></g><g transform="translate(-33 5)"><g transform="translate(348 125)"><rect width="100" height="100" rx="50" fill="#f2f7fb"/><g transform="translate(20.503 20.503)"><path d="M0,0H59.023V59.023H0Z" fill="none"/><path d="M47.267,42.349V7.919A4.933,4.933,0,0,0,42.349,3H7.919A4.933,4.933,0,0,0,3,7.919v34.43a4.933,4.933,0,0,0,4.919,4.919h34.43a4.933,4.933,0,0,0,4.918-4.919ZM16.526,28.823l6.148,7.4,8.608-11.091L42.349,39.889H7.919Z" transform="translate(4.378 4.378)" fill="#dfe2f2"/><ellipse cx="3" cy="3.5" rx="3" ry="3.5" transform="translate(16.501 19)" fill="#fff"/></g></g><g transform="translate(0 5)"><text transform="translate(306.08 272)" fill="rgba(0,0,0,0.87)" font-size="24" font-family="Roboto-Medium, Roboto" font-weight="500"><tspan x="0" y="0">Joseph Jackson</tspan></text><text transform="translate(320.154 303)" fill="rgba(33,33,33,0.87)" font-size="20" font-family="Roboto-Regular, Roboto"><tspan x="0" y="0">Product Manager</tspan></text></g><text transform="translate(222.92 360)" fill="rgba(33,33,33,0.87)" font-size="20" font-family="Roboto-Regular, Roboto"><tspan x="0" y="0">Auto Flow makes it easy to draw stunning </tspan></text><text transform="translate(221.006 386)" fill="rgba(33,33,33,0.87)" font-size="20" font-family="Roboto-Regular, Roboto"><tspan x="0" y="0">flows for creating WireFrames, UserFlows, </tspan></text><text transform="translate(202.905 412)" fill="rgba(33,33,33,0.87)" font-size="20" font-family="Roboto-Regular, Roboto"><tspan x="0" y="0">FlowCharts and Design guides. With AutoFlow</tspan></text></g></g><text transform="translate(141.48 150)" fill="rgba(0,0,0,0.87)" font-size="48" font-family="Roboto-Medium, Roboto" font-weight="500"><tspan x="0" y="0">What our Customers Are Saying</tspan></text></svg>