<svg xmlns="http://www.w3.org/2000/svg" xmlns:xlink="http://www.w3.org/1999/xlink" width="1440" height="575" viewBox="0 0 1440 575"><defs><filter id="a" x="858" y="88" width="165" height="165" filterUnits="userSpaceOnUse"><feOffset dy="7" input="SourceAlpha"/><feGaussianBlur stdDeviation="15" result="b"/><feFlood flood-color="#aaa" flood-opacity="0.161"/><feComposite operator="in" in2="b"/><feComposite in="SourceGraphic"/></filter><filter id="c" x="418" y="88" width="165" height="165" filterUnits="userSpaceOnUse"><feOffset dy="7" input="SourceAlpha"/><feGaussianBlur stdDeviation="15" result="d"/><feFlood flood-color="#aaa" flood-opacity="0.161"/><feComposite operator="in" in2="d"/><feComposite in="SourceGraphic"/></filter><filter id="e" x="753" y="78" width="185" height="185" filterUnits="userSpaceOnUse"><feOffset dy="7" input="SourceAlpha"/><feGaussianBlur stdDeviation="15" result="f"/><feFlood flood-color="#aaa" flood-opacity="0.161"/><feComposite operator="in" in2="f"/><feComposite in="SourceGraphic"/></filter><filter id="g" x="503" y="78" width="185" height="185" filterUnits="userSpaceOnUse"><feOffset dy="7" input="SourceAlpha"/><feGaussianBlur stdDeviation="15" result="h"/><feFlood flood-color="#aaa" flood-opacity="0.161"/><feComposite operator="in" in2="h"/><feComposite in="SourceGraphic"/></filter><filter id="i" x="613" y="63" width="215" height="215" filterUnits="userSpaceOnUse"><feOffset dy="7" input="SourceAlpha"/><feGaussianBlur stdDeviation="15" result="j"/><feFlood flood-color="#aaa" flood-opacity="0.161"/><feComposite operator="in" in2="j"/><feComposite in="SourceGraphic"/></filter></defs><rect width="1440" height="575" fill="#fff"/><g transform="translate(-16 -17)"><g transform="translate(919 143)"><g transform="matrix(1, 0, 0, 1, -903, -126)" filter="url(#a)"><rect width="75" height="75" rx="37.5" transform="translate(903 126)" fill="#f2f7fb"/></g><g transform="translate(20 20)"><path d="M0,0H35.64V35.64H0Z" fill="none"/><path d="M23.884,21.564V5.32A2.327,2.327,0,0,0,21.564,3H5.32A2.327,2.327,0,0,0,3,5.32V21.564a2.327,2.327,0,0,0,2.321,2.32H21.564a2.327,2.327,0,0,0,2.32-2.32Zm-14.5-6.381,2.9,3.492,4.061-5.233L21.564,20.4H5.32Z" transform="translate(4.378 4.378)" fill="#dfe2f2"/><ellipse cx="3" cy="3.5" rx="3" ry="3.5" transform="translate(8.998 10.237)" fill="#fff"/></g></g><g transform="translate(479 143)"><g transform="matrix(1, 0, 0, 1, -463, -126)" filter="url(#c)"><rect width="75" height="75" rx="37.5" transform="translate(463 126)" fill="#f2f7fb"/></g><g transform="translate(20 20)"><path d="M0,0H35.64V35.64H0Z" fill="none"/><path d="M23.884,21.564V5.32A2.327,2.327,0,0,0,21.564,3H5.32A2.327,2.327,0,0,0,3,5.32V21.564a2.327,2.327,0,0,0,2.321,2.32H21.564a2.327,2.327,0,0,0,2.32-2.32Zm-14.5-6.381,2.9,3.492,4.061-5.233L21.564,20.4H5.32Z" transform="translate(4.378 4.378)" fill="#dfe2f2"/><ellipse cx="3" cy="3.5" rx="3" ry="3.5" transform="translate(8.998 10.237)" fill="#fff"/></g></g><g transform="translate(814 133)"><g transform="matrix(1, 0, 0, 1, -798, -116)" filter="url(#e)"><rect width="95" height="95" rx="47.5" transform="translate(798 116)" fill="#f2f7fb"/></g><g transform="translate(23.29 23.29)"><path d="M0,0H48.733V48.733H0Z" fill="none"/><path d="M36.978,33.2V6.775A3.786,3.786,0,0,0,33.2,3H6.775A3.786,3.786,0,0,0,3,6.775V33.2a3.786,3.786,0,0,0,3.775,3.775H33.2A3.786,3.786,0,0,0,36.978,33.2Zm-23.6-10.38L18.1,28.5l6.607-8.513L33.2,31.315H6.775Z" transform="translate(4.378 4.378)" fill="#dfe2f2"/><ellipse cx="3" cy="3.5" rx="3" ry="3.5" transform="translate(12.972 14.917)" fill="#fff"/></g></g><g transform="translate(564 133)"><g transform="matrix(1, 0, 0, 1, -548, -116)" filter="url(#g)"><rect width="95" height="95" rx="47.5" transform="translate(548 116)" fill="#f2f7fb"/></g><g transform="translate(23.29 23.29)"><path d="M0,0H48.733V48.733H0Z" fill="none"/><path d="M36.978,33.2V6.775A3.786,3.786,0,0,0,33.2,3H6.775A3.786,3.786,0,0,0,3,6.775V33.2a3.786,3.786,0,0,0,3.775,3.775H33.2A3.786,3.786,0,0,0,36.978,33.2Zm-23.6-10.38L18.1,28.5l6.607-8.513L33.2,31.315H6.775Z" transform="translate(4.378 4.378)" fill="#dfe2f2"/><ellipse cx="3" cy="3.5" rx="3" ry="3.5" transform="translate(12.972 14.917)" fill="#fff"/></g></g><g transform="translate(674 118)"><g transform="matrix(1, 0, 0, 1, -658, -101)" filter="url(#i)"><rect width="125" height="125" rx="62.5" transform="translate(658 101)" fill="#f2f7fb"/></g><g transform="translate(33.011 33.011)"><path d="M0,0H59.023V59.023H0Z" fill="none"/><path d="M47.267,42.349V7.919A4.933,4.933,0,0,0,42.349,3H7.919A4.933,4.933,0,0,0,3,7.919v34.43a4.933,4.933,0,0,0,4.919,4.919h34.43a4.933,4.933,0,0,0,4.918-4.919ZM16.526,28.823l6.148,7.4,8.608-11.091L42.349,39.889H7.919Z" transform="translate(4.378 4.378)" fill="#dfe2f2"/><ellipse cx="3" cy="3.5" rx="3" ry="3.5" transform="translate(16.096 18.595)" fill="#fff"/></g></g></g><text transform="translate(398.039 414)" fill="rgba(33,33,33,0.87)" font-size="20" font-family="Roboto-Regular, Roboto"><tspan x="0" y="0">Auto Flow makes it easy to draw stunning flows for creating WireFrames, </tspan></text><text transform="translate(407.141 440)" fill="rgba(33,33,33,0.87)" font-size="20" font-family="Roboto-Regular, Roboto"><tspan x="0" y="0">UserFlows, FlowCharts and Design guides. With AutoFlow get closer to </tspan></text><text transform="translate(589.23 466)" fill="rgba(33,33,33,0.87)" font-size="20" font-family="Roboto-Regular, Roboto"><tspan x="0" y="0">your users In the Easiest way.</tspan></text><g transform="translate(324 36)"><text transform="translate(306.08 272)" fill="rgba(0,0,0,0.87)" font-size="24" font-family="Roboto-Medium, Roboto" font-weight="500"><tspan x="0" y="0">Joseph Jackson</tspan></text><text transform="translate(320.154 303)" fill="rgba(33,33,33,0.87)" font-size="20" font-family="Roboto-Regular, Roboto"><tspan x="0" y="0">Product Manager</tspan></text></g></svg>