<svg xmlns="http://www.w3.org/2000/svg" xmlns:xlink="http://www.w3.org/1999/xlink" width="1440" height="856" viewBox="0 0 1440 856"><defs><filter id="a" x="95" y="273" width="455" height="532" filterUnits="userSpaceOnUse"><feOffset dy="7" input="SourceAlpha"/><feGaussianBlur stdDeviation="15" result="b"/><feFlood flood-color="#aaa" flood-opacity="0.161"/><feComposite operator="in" in2="b"/><feComposite in="SourceGraphic"/></filter><filter id="c" x="493" y="275" width="455" height="532" filterUnits="userSpaceOnUse"><feOffset dy="7" input="SourceAlpha"/><feGaussianBlur stdDeviation="15" result="d"/><feFlood flood-color="#aaa" flood-opacity="0.161"/><feComposite operator="in" in2="d"/><feComposite in="SourceGraphic"/></filter><filter id="e" x="891" y="275" width="455" height="532" filterUnits="userSpaceOnUse"><feOffset dy="7" input="SourceAlpha"/><feGaussianBlur stdDeviation="15" result="f"/><feFlood flood-color="#aaa" flood-opacity="0.161"/><feComposite operator="in" in2="f"/><feComposite in="SourceGraphic"/></filter></defs><rect width="1440" height="856" fill="#fff"/><g transform="translate(0 211)"><g transform="matrix(1, 0, 0, 1, 0, -211)" filter="url(#a)"><rect width="365" height="442" transform="translate(140 311)" fill="#fff"/></g><g transform="translate(0 -2)"><text transform="translate(179.421 425)" fill="rgba(33,33,33,0.87)" font-size="20" font-family="Roboto-Regular, Roboto"><tspan x="0" y="0">Auto Flow makes it easy to draw </tspan></text><text transform="translate(204.26 451)" fill="rgba(33,33,33,0.87)" font-size="20" font-family="Roboto-Regular, Roboto"><tspan x="0" y="0">stunning flows for creating </tspan></text><text transform="translate(216.721 477)" fill="rgba(33,33,33,0.87)" font-size="20" font-family="Roboto-Regular, Roboto"><tspan x="0" y="0">WireFrames, UserFlows,</tspan></text><g transform="translate(260 149)"><rect width="125" height="125" rx="62.5" fill="#f2f7fb"/><g transform="translate(33.011 33.011)"><path d="M0,0H59.023V59.023H0Z" fill="none"/><path d="M47.267,42.349V7.919A4.933,4.933,0,0,0,42.349,3H7.919A4.933,4.933,0,0,0,3,7.919v34.43a4.933,4.933,0,0,0,4.919,4.919h34.43a4.933,4.933,0,0,0,4.918-4.919ZM16.526,28.823l6.148,7.4,8.608-11.091L42.349,39.889H7.919Z" transform="translate(4.378 4.378)" fill="#dfe2f2"/><ellipse cx="3" cy="3.5" rx="3" ry="3.5" transform="translate(16.501 19)" fill="#fff"/></g></g><g transform="translate(-74 57)"><text transform="translate(306.08 272)" fill="rgba(0,0,0,0.87)" font-size="24" font-family="Roboto-Medium, Roboto" font-weight="500"><tspan x="0" y="0">Joseph Jackson</tspan></text><text transform="translate(320.154 303)" fill="rgba(33,33,33,0.87)" font-size="20" font-family="Roboto-Regular, Roboto"><tspan x="0" y="0">Product Manager</tspan></text></g></g></g><g transform="matrix(1, 0, 0, 1, 0, 0)" filter="url(#c)"><rect width="365" height="442" transform="translate(538 313)" fill="#fff"/></g><text transform="translate(577.421 636)" fill="rgba(33,33,33,0.87)" font-size="20" font-family="Roboto-Regular, Roboto"><tspan x="0" y="0">Auto Flow makes it easy to draw </tspan></text><text transform="translate(602.26 662)" fill="rgba(33,33,33,0.87)" font-size="20" font-family="Roboto-Regular, Roboto"><tspan x="0" y="0">stunning flows for creating </tspan></text><text transform="translate(614.721 688)" fill="rgba(33,33,33,0.87)" font-size="20" font-family="Roboto-Regular, Roboto"><tspan x="0" y="0">WireFrames, UserFlows,</tspan></text><g transform="translate(658 360)"><rect width="125" height="125" rx="62.5" fill="#f2f7fb"/><g transform="translate(33.011 33.011)"><path d="M0,0H59.023V59.023H0Z" fill="none"/><path d="M47.267,42.349V7.919A4.933,4.933,0,0,0,42.349,3H7.919A4.933,4.933,0,0,0,3,7.919v34.43a4.933,4.933,0,0,0,4.919,4.919h34.43a4.933,4.933,0,0,0,4.918-4.919ZM16.526,28.823l6.148,7.4,8.608-11.091L42.349,39.889H7.919Z" transform="translate(4.378 4.378)" fill="#dfe2f2"/><ellipse cx="3" cy="3.5" rx="3" ry="3.5" transform="translate(16.501 19)" fill="#fff"/></g></g><g transform="translate(324 268)"><text transform="translate(306.08 272)" fill="rgba(0,0,0,0.87)" font-size="24" font-family="Roboto-Medium, Roboto" font-weight="500"><tspan x="0" y="0">Joseph Jackson</tspan></text><text transform="translate(320.154 303)" fill="rgba(33,33,33,0.87)" font-size="20" font-family="Roboto-Regular, Roboto"><tspan x="0" y="0">Product Manager</tspan></text></g><g transform="translate(796 213)"><g transform="matrix(1, 0, 0, 1, -796, -213)" filter="url(#e)"><rect width="365" height="442" transform="translate(936 313)" fill="#fff"/></g><g transform="translate(0 -2)"><text transform="translate(179.421 425)" fill="rgba(33,33,33,0.87)" font-size="20" font-family="Roboto-Regular, Roboto"><tspan x="0" y="0">Auto Flow makes it easy to draw </tspan></text><text transform="translate(204.26 451)" fill="rgba(33,33,33,0.87)" font-size="20" font-family="Roboto-Regular, Roboto"><tspan x="0" y="0">stunning flows for creating </tspan></text><text transform="translate(216.721 477)" fill="rgba(33,33,33,0.87)" font-size="20" font-family="Roboto-Regular, Roboto"><tspan x="0" y="0">WireFrames, UserFlows,</tspan></text><g transform="translate(260 149)"><rect width="125" height="125" rx="62.5" fill="#f2f7fb"/><g transform="translate(33.011 33.011)"><path d="M0,0H59.023V59.023H0Z" fill="none"/><path d="M47.267,42.349V7.919A4.933,4.933,0,0,0,42.349,3H7.919A4.933,4.933,0,0,0,3,7.919v34.43a4.933,4.933,0,0,0,4.919,4.919h34.43a4.933,4.933,0,0,0,4.918-4.919ZM16.526,28.823l6.148,7.4,8.608-11.091L42.349,39.889H7.919Z" transform="translate(4.378 4.378)" fill="#dfe2f2"/><ellipse cx="3" cy="3.5" rx="3" ry="3.5" transform="translate(16.501 19)" fill="#fff"/></g></g><g transform="translate(-74 57)"><text transform="translate(306.08 272)" fill="rgba(0,0,0,0.87)" font-size="24" font-family="Roboto-Medium, Roboto" font-weight="500"><tspan x="0" y="0">Joseph Jackson</tspan></text><text transform="translate(320.154 303)" fill="rgba(33,33,33,0.87)" font-size="20" font-family="Roboto-Regular, Roboto"><tspan x="0" y="0">Product Manager</tspan></text></g></g></g><text transform="translate(442.418 150)" fill="rgba(0,0,0,0.87)" font-size="48" font-family="Roboto-Medium, Roboto" font-weight="500"><tspan x="0" y="0">What our Customers Says</tspan></text><g transform="translate(678.999 185.24)"><path d="M8.448,41.484H18.793l6.9-13.793V7H5V27.69H15.345Zm27.587,0H46.38l6.9-13.793V7H32.587V27.69H42.932Z" transform="translate(12.242 17.138)" fill="#1ce3dc"/><path d="M0,0H82.76V82.76H0Z" fill="none"/></g></svg>