<svg xmlns="http://www.w3.org/2000/svg" width="1440" height="655" viewBox="0 0 1440 655"><rect width="1440" height="655" fill="#fff"/><g transform="translate(1012.998 355)"><path d="M8.448,41.484H18.793l6.9-13.793V7H5V27.69H15.345Zm27.587,0H46.38l6.9-13.793V7H32.587V27.69H42.932Z" transform="translate(12.242 17.138)" fill="#1ce3dc"/><path d="M0,0H82.76V82.76H0Z" fill="none"/></g><g transform="translate(427.76 182.76) rotate(180)"><path d="M8.448,41.484H18.793l6.9-13.793V7H5V27.69H15.345Zm27.587,0H46.38l6.9-13.793V7H32.587V27.69H42.932Z" transform="translate(12.242 17.138)" fill="#1ce3dc"/><path d="M0,0H82.76V82.76H0Z" fill="none"/></g><text transform="translate(427.999 218.76)" fill="rgba(0,0,0,0.87)" font-size="34" font-family="Roboto-Medium, Roboto" font-weight="500"><tspan x="0" y="0">Auto Flow makes it easy to draw </tspan><tspan x="0" y="45">stunning flows for creating WireFrames, </tspan><tspan x="0" y="90">UserFlows, FlowCharts and Design </tspan><tspan x="0" y="135">guides. With AutoFlow get closer to your</tspan></text><g transform="translate(-152.001 -60.24)"><text transform="translate(580.08 508)" fill="rgba(0,0,0,0.87)" font-size="24" font-family="Roboto-Medium, Roboto" font-weight="500"><tspan x="0" y="0">Joseph Jackson</tspan></text><text transform="translate(585.154 544)" fill="rgba(33,33,33,0.87)" font-size="20" font-family="Roboto-Regular, Roboto"><tspan x="0" y="0">Product Manager</tspan></text></g><g transform="translate(684 543)"><g transform="translate(-558 -541)"><circle cx="6.5" cy="6.5" r="6.5" transform="translate(558 541)" fill="#d5dbff"/><circle cx="6.5" cy="6.5" r="6.5" transform="translate(558 541)" fill="#d5dbff"/><circle cx="6.5" cy="6.5" r="6.5" transform="translate(618 541)" fill="#d5dbff"/><circle cx="6.5" cy="6.5" r="6.5" transform="translate(598 541)" fill="#d5dbff"/><circle cx="6.5" cy="6.5" r="6.5" transform="translate(578 541)" fill="#2e4cff"/></g></g></svg>