<svg xmlns="http://www.w3.org/2000/svg" width="1440" height="692" viewBox="0 0 1440 692"><rect width="1440" height="692" fill="#fff"/><g transform="translate(135 102)"><rect width="367.809" height="489.809" fill="#f2f7fb"/><g transform="translate(154.499 215.541)"><path d="M0,0H59.023V59.023H0Z" fill="none"/><path d="M47.267,42.349V7.919A4.933,4.933,0,0,0,42.349,3H7.919A4.933,4.933,0,0,0,3,7.919v34.43a4.933,4.933,0,0,0,4.919,4.919h34.43a4.933,4.933,0,0,0,4.918-4.919ZM16.526,28.823l6.148,7.4,8.608-11.091L42.349,39.889H7.919Z" transform="translate(4.378 4.378)" fill="#dfe2f2"/><ellipse cx="3" cy="3.5" rx="3" ry="3.5" transform="translate(16.501 19.459)" fill="#fff"/></g></g><g transform="translate(1197.999 415.24)"><path d="M8.448,41.484H18.793l6.9-13.793V7H5V27.69H15.345Zm27.587,0H46.38l6.9-13.793V7H32.587V27.69H42.932Z" transform="translate(12.242 17.138)" fill="#1ce3dc"/><path d="M0,0H82.76V82.76H0Z" fill="none"/></g><g transform="translate(612.761 243) rotate(180)"><path d="M8.448,41.484H18.793l6.9-13.793V7H5V27.69H15.345Zm27.587,0H46.38l6.9-13.793V7H32.587V27.69H42.932Z" transform="translate(12.242 17.138)" fill="#1ce3dc"/><path d="M0,0H82.76V82.76H0Z" fill="none"/></g><text transform="translate(587 279)" fill="rgba(0,0,0,0.87)" font-size="34" font-family="Roboto-Medium, Roboto" font-weight="500"><tspan x="0" y="0">Auto Flow makes it easy to draw stunning </tspan><tspan x="0" y="45">flows for creating WireFrames, UserFlows, </tspan><tspan x="0" y="90">FlowCharts and Design guides. With </tspan><tspan x="0" y="135">AutoFlow get closer to your users In the</tspan></text><g transform="translate(6)"><text transform="translate(580.08 508)" fill="rgba(0,0,0,0.87)" font-size="24" font-family="Roboto-Medium, Roboto" font-weight="500"><tspan x="0" y="0">Joseph Jackson</tspan></text><text transform="translate(585.154 544)" fill="rgba(33,33,33,0.87)" font-size="20" font-family="Roboto-Regular, Roboto"><tspan x="0" y="0">Product Manager</tspan></text></g></svg>