<svg xmlns="http://www.w3.org/2000/svg" width="1440" height="636" viewBox="0 0 1440 636"><rect width="1440" height="636" fill="#fff"/><text transform="translate(442.418 150)" fill="rgba(0,0,0,0.87)" font-size="48" font-family="Roboto-Medium, Roboto" font-weight="500"><tspan x="0" y="0">What our Customers Says</tspan></text><text transform="translate(181.421 289)" fill="rgba(33,33,33,0.87)" font-size="20" font-family="Roboto-Regular, Roboto"><tspan x="0" y="0">Auto Flow makes it easy to draw </tspan></text><text transform="translate(206.26 315)" fill="rgba(33,33,33,0.87)" font-size="20" font-family="Roboto-Regular, Roboto"><tspan x="0" y="0">stunning flows for creating </tspan></text><text transform="translate(218.721 341)" fill="rgba(33,33,33,0.87)" font-size="20" font-family="Roboto-Regular, Roboto"><tspan x="0" y="0">WireFrames, UserFlows,</tspan></text><g transform="translate(440.998 331)"><path d="M6.532,22.317h4.6L14.19,16.19V7H5v9.19H9.6Zm12.253,0h4.6l3.063-6.127V7h-9.19v9.19h4.6Z" transform="translate(2.658 3.722)" fill="#1ce3dc"/><path d="M0,0H36.76V36.76H0Z" fill="none"/></g><g transform="translate(187.434 281.078) rotate(-179.026)"><path d="M6.532,22.317h4.6L14.19,16.19V7H5v9.19H9.6Zm12.253,0h4.6l3.063-6.127V7h-9.19v9.19h4.6Z" transform="translate(2.658 3.722)" fill="#1ce3dc"/><path d="M0,0H36.76V36.76H0Z" fill="none"/></g><text transform="translate(249.233 499)" fill="rgba(0,0,0,0.87)" font-size="20" font-family="Roboto-Medium, Roboto" font-weight="500"><tspan x="0" y="0">Joseph Jackson</tspan></text><text transform="translate(263.523 530)" fill="rgba(33,33,33,0.87)" font-size="16" font-family="Roboto-Regular, Roboto"><tspan x="0" y="0">Product Manager</tspan></text><g transform="translate(282 383)"><rect width="87" height="87" rx="43.5" fill="#f2f7fb"/><g transform="translate(23.718 23.718)"><path d="M0,0H39.587V39.587H0Z" fill="none"/><path d="M27.831,25.072V5.759A2.767,2.767,0,0,0,25.072,3H5.759A2.767,2.767,0,0,0,3,5.759V25.072a2.767,2.767,0,0,0,2.759,2.759H25.072A2.767,2.767,0,0,0,27.831,25.072ZM10.587,17.485l3.449,4.152,4.828-6.222,6.208,8.277H5.759Z" transform="translate(4.378 4.378)" fill="#dfe2f2"/><ellipse cx="3" cy="3.5" rx="3" ry="3.5" transform="translate(10.452 11.901)" fill="#fff"/></g></g><text transform="translate(587.421 289)" fill="rgba(33,33,33,0.87)" font-size="20" font-family="Roboto-Regular, Roboto"><tspan x="0" y="0">Auto Flow makes it easy to draw </tspan></text><text transform="translate(612.26 315)" fill="rgba(33,33,33,0.87)" font-size="20" font-family="Roboto-Regular, Roboto"><tspan x="0" y="0">stunning flows for creating </tspan></text><text transform="translate(624.721 341)" fill="rgba(33,33,33,0.87)" font-size="20" font-family="Roboto-Regular, Roboto"><tspan x="0" y="0">WireFrames, UserFlows,</tspan></text><g transform="translate(846.998 331)"><path d="M6.532,22.317h4.6L14.19,16.19V7H5v9.19H9.6Zm12.253,0h4.6l3.063-6.127V7h-9.19v9.19h4.6Z" transform="translate(2.658 3.722)" fill="#1ce3dc"/><path d="M0,0H36.76V36.76H0Z" fill="none"/></g><g transform="translate(593.434 281.078) rotate(-179.026)"><path d="M6.532,22.317h4.6L14.19,16.19V7H5v9.19H9.6Zm12.253,0h4.6l3.063-6.127V7h-9.19v9.19h4.6Z" transform="translate(2.658 3.722)" fill="#1ce3dc"/><path d="M0,0H36.76V36.76H0Z" fill="none"/></g><text transform="translate(655.233 499)" fill="rgba(0,0,0,0.87)" font-size="20" font-family="Roboto-Medium, Roboto" font-weight="500"><tspan x="0" y="0">Joseph Jackson</tspan></text><text transform="translate(669.523 530)" fill="rgba(33,33,33,0.87)" font-size="16" font-family="Roboto-Regular, Roboto"><tspan x="0" y="0">Product Manager</tspan></text><g transform="translate(688 383)"><rect width="87" height="87" rx="43.5" fill="#f2f7fb"/><g transform="translate(23.718 23.718)"><path d="M0,0H39.587V39.587H0Z" fill="none"/><path d="M27.831,25.072V5.759A2.767,2.767,0,0,0,25.072,3H5.759A2.767,2.767,0,0,0,3,5.759V25.072a2.767,2.767,0,0,0,2.759,2.759H25.072A2.767,2.767,0,0,0,27.831,25.072ZM10.587,17.485l3.449,4.152,4.828-6.222,6.208,8.277H5.759Z" transform="translate(4.378 4.378)" fill="#dfe2f2"/><ellipse cx="3" cy="3.5" rx="3" ry="3.5" transform="translate(10.452 11.901)" fill="#fff"/></g></g><text transform="translate(993.421 289)" fill="rgba(33,33,33,0.87)" font-size="20" font-family="Roboto-Regular, Roboto"><tspan x="0" y="0">Auto Flow makes it easy to draw </tspan></text><text transform="translate(1018.26 315)" fill="rgba(33,33,33,0.87)" font-size="20" font-family="Roboto-Regular, Roboto"><tspan x="0" y="0">stunning flows for creating </tspan></text><text transform="translate(1030.721 341)" fill="rgba(33,33,33,0.87)" font-size="20" font-family="Roboto-Regular, Roboto"><tspan x="0" y="0">WireFrames, UserFlows,</tspan></text><g transform="translate(1252.998 331)"><path d="M6.532,22.317h4.6L14.19,16.19V7H5v9.19H9.6Zm12.253,0h4.6l3.063-6.127V7h-9.19v9.19h4.6Z" transform="translate(2.658 3.722)" fill="#1ce3dc"/><path d="M0,0H36.76V36.76H0Z" fill="none"/></g><g transform="translate(999.434 281.078) rotate(-179.026)"><path d="M6.532,22.317h4.6L14.19,16.19V7H5v9.19H9.6Zm12.253,0h4.6l3.063-6.127V7h-9.19v9.19h4.6Z" transform="translate(2.658 3.722)" fill="#1ce3dc"/><path d="M0,0H36.76V36.76H0Z" fill="none"/></g><text transform="translate(1061.233 499)" fill="rgba(0,0,0,0.87)" font-size="20" font-family="Roboto-Medium, Roboto" font-weight="500"><tspan x="0" y="0">Joseph Jackson</tspan></text><text transform="translate(1075.523 530)" fill="rgba(33,33,33,0.87)" font-size="16" font-family="Roboto-Regular, Roboto"><tspan x="0" y="0">Product Manager</tspan></text><g transform="translate(1094 383)"><rect width="87" height="87" rx="43.5" fill="#f2f7fb"/><g transform="translate(23.718 23.718)"><path d="M0,0H39.587V39.587H0Z" fill="none"/><path d="M27.831,25.072V5.759A2.767,2.767,0,0,0,25.072,3H5.759A2.767,2.767,0,0,0,3,5.759V25.072a2.767,2.767,0,0,0,2.759,2.759H25.072A2.767,2.767,0,0,0,27.831,25.072ZM10.587,17.485l3.449,4.152,4.828-6.222,6.208,8.277H5.759Z" transform="translate(4.378 4.378)" fill="#dfe2f2"/><ellipse cx="3" cy="3.5" rx="3" ry="3.5" transform="translate(10.452 11.901)" fill="#fff"/></g></g></svg>