<svg xmlns="http://www.w3.org/2000/svg" xmlns:xlink="http://www.w3.org/1999/xlink" width="1440" height="542" viewBox="0 0 1440 542"><defs><filter id="a" x="389" y="71.006" width="571.367" height="394" filterUnits="userSpaceOnUse"><feOffset dy="30" input="SourceAlpha"/><feGaussianBlur stdDeviation="20" result="b"/><feFlood flood-color="#aaa" flood-opacity="0.161"/><feComposite operator="in" in2="b"/><feComposite in="SourceGraphic"/></filter><filter id="c" x="867" y="70.699" width="571.367" height="394" filterUnits="userSpaceOnUse"><feOffset dy="30" input="SourceAlpha"/><feGaussianBlur stdDeviation="20" result="d"/><feFlood flood-color="#aaa" flood-opacity="0.161"/><feComposite operator="in" in2="d"/><feComposite in="SourceGraphic"/></filter></defs><rect width="1440" height="542" fill="#fff"/><g transform="translate(-7 -141.695)"><g transform="matrix(1, 0, 0, 1, 7, 141.7)" filter="url(#a)"><path d="M0,0H451.367V274H0Z" transform="translate(449 101)" fill="#fff"/></g><text transform="translate(495 421)" fill="rgba(33,33,33,0.87)" font-size="20" font-family="Roboto-Regular, Roboto"><tspan x="0" y="0">Auto Flow makes it easy to draw stunning </tspan><tspan x="0" y="26">flows for creating WireFrames, UserFlows, </tspan><tspan x="0" y="52">FlowCharts and Design guides. With</tspan></text><g transform="translate(495 282)"><rect width="87" height="87" rx="43.5" fill="#f2f7fb"/><g transform="translate(23.718 23.718)"><path d="M0,0H39.587V39.587H0Z" fill="none"/><path d="M27.831,25.072V5.759A2.767,2.767,0,0,0,25.072,3H5.759A2.767,2.767,0,0,0,3,5.759V25.072a2.767,2.767,0,0,0,2.759,2.759H25.072A2.767,2.767,0,0,0,27.831,25.072ZM10.587,17.485l3.449,4.152,4.828-6.222,6.208,8.277H5.759Z" transform="translate(4.378 4.378)" fill="#dfe2f2"/><ellipse cx="3" cy="3.5" rx="3" ry="3.5" transform="translate(10.452 11.901)" fill="#fff"/></g><text transform="translate(101.233 41)" fill="rgba(0,0,0,0.87)" font-size="20" font-family="Roboto-Medium, Roboto" font-weight="500"><tspan x="0" y="0">Joseph Jackson</tspan></text><text transform="translate(101.523 69)" fill="rgba(33,33,33,0.87)" font-size="16" font-family="Roboto-Regular, Roboto"><tspan x="0" y="0">Product Manager</tspan></text></g></g><g transform="translate(471 -142)"><g transform="matrix(1, 0, 0, 1, -471, 142)" filter="url(#c)"><path d="M0,0H451.367V274H0Z" transform="translate(927 100.7)" fill="#fff"/></g><text transform="translate(495 421)" fill="rgba(33,33,33,0.87)" font-size="20" font-family="Roboto-Regular, Roboto"><tspan x="0" y="0">Auto Flow makes it easy to draw stunning </tspan><tspan x="0" y="26">flows for creating WireFrames, UserFlows, </tspan><tspan x="0" y="52">FlowCharts and Design guides. With</tspan></text><g transform="translate(495 282)"><rect width="87" height="87" rx="43.5" fill="#f2f7fb"/><g transform="translate(23.718 23.718)"><path d="M0,0H39.587V39.587H0Z" fill="none"/><path d="M27.831,25.072V5.759A2.767,2.767,0,0,0,25.072,3H5.759A2.767,2.767,0,0,0,3,5.759V25.072a2.767,2.767,0,0,0,2.759,2.759H25.072A2.767,2.767,0,0,0,27.831,25.072ZM10.587,17.485l3.449,4.152,4.828-6.222,6.208,8.277H5.759Z" transform="translate(4.378 4.378)" fill="#dfe2f2"/><ellipse cx="3" cy="3.5" rx="3" ry="3.5" transform="translate(10.452 11.901)" fill="#fff"/></g><text transform="translate(101.233 41)" fill="rgba(0,0,0,0.87)" font-size="20" font-family="Roboto-Medium, Roboto" font-weight="500"><tspan x="0" y="0">Joseph Jackson</tspan></text><text transform="translate(101.523 69)" fill="rgba(33,33,33,0.87)" font-size="16" font-family="Roboto-Regular, Roboto"><tspan x="0" y="0">Product Manager</tspan></text></g></g><g transform="translate(-7 -98)"><text transform="translate(145 279)" fill="rgba(0,0,0,0.87)" font-size="34" font-family="Roboto-Medium, Roboto" font-weight="500"><tspan x="0" y="0">What our </tspan><tspan x="0" y="45">Customers Says</tspan></text><text transform="translate(145 386)" fill="rgba(33,33,33,0.87)" font-size="20" font-family="Roboto-Regular, Roboto"><tspan x="0" y="0">Lorem ipsum dolor sit amet, </tspan><tspan x="0" y="26">consectetur adipiscing elit</tspan></text></g><g transform="translate(449 430)"><g transform="translate(-558 -541)"><circle cx="6.5" cy="6.5" r="6.5" transform="translate(558 541)" fill="#d5dbff"/><circle cx="6.5" cy="6.5" r="6.5" transform="translate(558 541)" fill="#d5dbff"/><circle cx="6.5" cy="6.5" r="6.5" transform="translate(618 541)" fill="#d5dbff"/><circle cx="6.5" cy="6.5" r="6.5" transform="translate(598 541)" fill="#d5dbff"/><circle cx="6.5" cy="6.5" r="6.5" transform="translate(578 541)" fill="#2e4cff"/></g></g></svg>