<svg xmlns="http://www.w3.org/2000/svg" xmlns:xlink="http://www.w3.org/1999/xlink" width="1911" height="636" viewBox="0 0 1911 636"><defs><filter id="a" x="631" y="220" width="674" height="402.252" filterUnits="userSpaceOnUse"><feOffset dy="30" input="SourceAlpha"/><feGaussianBlur stdDeviation="20" result="b"/><feFlood flood-color="#aaa" flood-opacity="0.161"/><feComposite operator="in" in2="b"/><feComposite in="SourceGraphic"/></filter><filter id="c" x="1267" y="212" width="644" height="372.252" filterUnits="userSpaceOnUse"><feOffset dy="7" input="SourceAlpha"/><feGaussianBlur stdDeviation="15" result="d"/><feFlood flood-color="#bfbfbf" flood-opacity="0.161"/><feComposite operator="in" in2="d"/><feComposite in="SourceGraphic"/></filter><filter id="e" x="0" y="212" width="644" height="372.252" filterUnits="userSpaceOnUse"><feOffset dy="7" input="SourceAlpha"/><feGaussianBlur stdDeviation="15" result="f"/><feFlood flood-color="#bfbfbf" flood-opacity="0.161"/><feComposite operator="in" in2="f"/><feComposite in="SourceGraphic"/></filter></defs><g transform="translate(235)"><rect width="1440" height="636" fill="#fff"/><text transform="translate(442.418 150)" fill="rgba(0,0,0,0.87)" font-size="48" font-family="Roboto-Medium, Roboto" font-weight="500"><tspan x="0" y="0">What our Customers Says</tspan></text><g transform="translate(16 51)"><g transform="matrix(1, 0, 0, 1, -251, -51)" filter="url(#a)"><path d="M0,0H554V282.252H0Z" transform="translate(691 250)" fill="#fff"/></g><text transform="translate(496 373)" fill="rgba(33,33,33,0.87)" font-size="20" font-family="Roboto-Regular, Roboto"><tspan x="0" y="0">Auto Flow makes it easy to draw stunning flows </tspan><tspan x="0" y="26">for creating WireFrames, UserFlows, FlowCharts </tspan><tspan x="0" y="52">and Design guides. With AutoFlow get closer to</tspan></text><g transform="translate(-72 -156)"><g transform="translate(568 387)"><rect width="87" height="87" rx="43.5" fill="#f2f7fb"/><g transform="translate(23.718 23.718)"><path d="M0,0H39.587V39.587H0Z" fill="none"/><path d="M27.831,25.072V5.759A2.767,2.767,0,0,0,25.072,3H5.759A2.767,2.767,0,0,0,3,5.759V25.072a2.767,2.767,0,0,0,2.759,2.759H25.072A2.767,2.767,0,0,0,27.831,25.072ZM10.587,17.485l3.449,4.152,4.828-6.222,6.208,8.277H5.759Z" transform="translate(4.378 4.378)" fill="#dfe2f2"/><ellipse cx="3" cy="3.5" rx="3" ry="3.5" transform="translate(10.452 11.901)" fill="#fff"/></g></g><text transform="translate(669.233 428)" fill="rgba(0,0,0,0.87)" font-size="20" font-family="Roboto-Medium, Roboto" font-weight="500"><tspan x="0" y="0">Joseph Jackson</tspan></text><text transform="translate(669.523 456)" fill="rgba(33,33,33,0.87)" font-size="16" font-family="Roboto-Regular, Roboto"><tspan x="0" y="0">Product Manager</tspan></text></g></g><g transform="translate(637 51)"><g transform="matrix(1, 0, 0, 1, -872, -51)" filter="url(#c)"><path d="M0,0H554V282.252H0Z" transform="translate(1312 250)" fill="#fff"/></g><text transform="translate(496 373)" fill="rgba(33,33,33,0.87)" font-size="20" font-family="Roboto-Regular, Roboto"><tspan x="0" y="0">Auto Flow makes it easy to draw stunning flows </tspan><tspan x="0" y="26">for creating WireFrames, UserFlows, FlowCharts </tspan><tspan x="0" y="52">and Design guides. With AutoFlow get closer to</tspan></text><g transform="translate(-72 -156)"><g transform="translate(568 387)"><rect width="87" height="87" rx="43.5" fill="#f2f7fb"/><g transform="translate(23.718 23.718)"><path d="M0,0H39.587V39.587H0Z" fill="none"/><path d="M27.831,25.072V5.759A2.767,2.767,0,0,0,25.072,3H5.759A2.767,2.767,0,0,0,3,5.759V25.072a2.767,2.767,0,0,0,2.759,2.759H25.072A2.767,2.767,0,0,0,27.831,25.072ZM10.587,17.485l3.449,4.152,4.828-6.222,6.208,8.277H5.759Z" transform="translate(4.378 4.378)" fill="#dfe2f2"/><ellipse cx="3" cy="3.5" rx="3" ry="3.5" transform="translate(10.452 11.901)" fill="#fff"/></g></g><text transform="translate(669.233 428)" fill="rgba(0,0,0,0.87)" font-size="20" font-family="Roboto-Medium, Roboto" font-weight="500"><tspan x="0" y="0">Joseph Jackson</tspan></text><text transform="translate(669.523 456)" fill="rgba(33,33,33,0.87)" font-size="16" font-family="Roboto-Regular, Roboto"><tspan x="0" y="0">Product Manager</tspan></text></g></g><g transform="translate(-630 51)"><g transform="matrix(1, 0, 0, 1, 395, -51)" filter="url(#e)"><path d="M0,0H554V282.252H0Z" transform="translate(45 250)" fill="#fff"/></g><text transform="translate(496 373)" fill="rgba(33,33,33,0.87)" font-size="20" font-family="Roboto-Regular, Roboto"><tspan x="0" y="0">Auto Flow makes it easy to draw stunning flows </tspan><tspan x="0" y="26">for creating WireFrames, UserFlows, FlowCharts </tspan><tspan x="0" y="52">and Design guides. With AutoFlow get closer to</tspan></text><g transform="translate(-72 -156)"><g transform="translate(568 387)"><rect width="87" height="87" rx="43.5" fill="#f2f7fb"/><g transform="translate(23.718 23.718)"><path d="M0,0H39.587V39.587H0Z" fill="none"/><path d="M27.831,25.072V5.759A2.767,2.767,0,0,0,25.072,3H5.759A2.767,2.767,0,0,0,3,5.759V25.072a2.767,2.767,0,0,0,2.759,2.759H25.072A2.767,2.767,0,0,0,27.831,25.072ZM10.587,17.485l3.449,4.152,4.828-6.222,6.208,8.277H5.759Z" transform="translate(4.378 4.378)" fill="#dfe2f2"/><ellipse cx="3" cy="3.5" rx="3" ry="3.5" transform="translate(10.452 11.901)" fill="#fff"/></g></g><text transform="translate(669.233 428)" fill="rgba(0,0,0,0.87)" font-size="20" font-family="Roboto-Medium, Roboto" font-weight="500"><tspan x="0" y="0">Joseph Jackson</tspan></text><text transform="translate(669.523 456)" fill="rgba(33,33,33,0.87)" font-size="16" font-family="Roboto-Regular, Roboto"><tspan x="0" y="0">Product Manager</tspan></text></g></g></g></svg>