<svg xmlns="http://www.w3.org/2000/svg" width="1440" height="733" viewBox="0 0 1440 733"><rect width="1440" height="733" fill="#fff"/><g transform="translate(245 232.305)"><rect width="87" height="87" rx="43.5" fill="#f2f7fb"/><g transform="translate(23.718 23.718)"><path d="M0,0H39.587V39.587H0Z" fill="none"/><path d="M27.831,25.072V5.759A2.767,2.767,0,0,0,25.072,3H5.759A2.767,2.767,0,0,0,3,5.759V25.072a2.767,2.767,0,0,0,2.759,2.759H25.072A2.767,2.767,0,0,0,27.831,25.072ZM10.587,17.485l3.449,4.152,4.828-6.222,6.208,8.277H5.759Z" transform="translate(4.378 4.378)" fill="#dfe2f2"/><ellipse cx="3" cy="3.5" rx="3" ry="3.5" transform="translate(10.452 11.901)" fill="#fff"/></g></g><g transform="translate(107 177)"><text transform="translate(267.233 185.305)" fill="rgba(0,0,0,0.87)" font-size="20" font-family="Roboto-Medium, Roboto" font-weight="500"><tspan x="0" y="0">Joseph Jackson</tspan></text><text transform="translate(267.523 213.305)" fill="rgba(33,33,33,0.87)" font-size="16" font-family="Roboto-Regular, Roboto"><tspan x="0" y="0">Product Manager</tspan></text></g><text transform="translate(374 261.305)" fill="rgba(33,33,33,0.87)" font-size="20" font-family="Roboto-Regular, Roboto"><tspan x="0" y="0">Auto Flow makes it easy to draw stunning flows for creating WireFrames, </tspan><tspan x="0" y="26">UserFlows, FlowCharts and Design guides. With AutoFlow get closer to your </tspan><tspan x="0" y="52">users In the Easiest way.</tspan></text><g transform="translate(1108 472.305)"><rect width="87" height="87" rx="43.5" fill="#f2f7fb"/><g transform="translate(23.718 23.718)"><path d="M0,0H39.587V39.587H0Z" fill="none"/><path d="M27.831,25.072V5.759A2.767,2.767,0,0,0,25.072,3H5.759A2.767,2.767,0,0,0,3,5.759V25.072a2.767,2.767,0,0,0,2.759,2.759H25.072A2.767,2.767,0,0,0,27.831,25.072ZM10.587,17.485l3.449,4.152,4.828-6.222,6.208,8.277H5.759Z" transform="translate(4.378 4.378)" fill="#dfe2f2"/><ellipse cx="3" cy="3.5" rx="3" ry="3.5" transform="translate(10.452 11.901)" fill="#fff"/></g></g><g transform="translate(647 417)"><text transform="translate(267.233 185.305)" fill="rgba(0,0,0,0.87)" font-size="20" font-family="Roboto-Medium, Roboto" font-weight="500"><tspan x="0" y="0">Joseph Jackson</tspan></text><text transform="translate(267.523 213.305)" fill="rgba(33,33,33,0.87)" font-size="16" font-family="Roboto-Regular, Roboto"><tspan x="0" y="0">Product Manager</tspan></text></g><text transform="translate(421.078 493.305)" fill="rgba(33,33,33,0.87)" font-size="20" font-family="Roboto-Regular, Roboto"><tspan x="0" y="0">Auto Flow makes it easy to draw stunning flows for creating WireFrames, </tspan></text><text transform="translate(395.668 519.305)" fill="rgba(33,33,33,0.87)" font-size="20" font-family="Roboto-Regular, Roboto"><tspan x="0" y="0">UserFlows, FlowCharts and Design guides. With AutoFlow get closer to your </tspan></text><text transform="translate(847.074 545.305)" fill="rgba(33,33,33,0.87)" font-size="20" font-family="Roboto-Regular, Roboto"><tspan x="0" y="0">users In the Easiest way.</tspan></text><text transform="translate(442.418 150)" fill="rgba(0,0,0,0.87)" font-size="48" font-family="Roboto-Medium, Roboto" font-weight="500"><tspan x="0" y="0">What our Customers Says</tspan></text></svg>