<svg xmlns="http://www.w3.org/2000/svg" width="14" height="14" viewBox="0 0 14 14"><g transform="translate(-284 388)"><g transform="translate(284 -388)" fill="#fff" stroke="#ddd" stroke-width="1"><circle cx="7" cy="7" r="7" stroke="none"/><circle cx="7" cy="7" r="6.5" fill="none"/></g><g transform="translate(232.363 -386)"><g transform="translate(54.637)"><path d="M54.663,5.35a3.817,3.817,0,0,1,3.744-4.257V.068a.074.074,0,0,1,.118-.053l2.111,1.551a.065.065,0,0,1,0,.1l-2.11,1.555a.073.073,0,0,1-.118-.053V2.144a2.764,2.764,0,0,0-2.5,1.694A2.73,2.73,0,0,0,56.3,6.62a.527.527,0,1,1-.829.651,3.764,3.764,0,0,1-.808-1.921Zm6.1-1.97a2.73,2.73,0,0,1,.389,2.783,2.76,2.76,0,0,1-2.5,1.694V6.832a.074.074,0,0,0-.118-.053L56.417,8.33a.065.065,0,0,0,0,.1l2.109,1.551a.073.073,0,0,0,.118-.053V8.906A3.817,3.817,0,0,0,62.388,4.65a3.744,3.744,0,0,0-.8-1.922.526.526,0,1,0-.826.651Z" transform="translate(-54.637)" fill="#666"/></g></g></g></svg>