<svg xmlns="http://www.w3.org/2000/svg" width="16" height="16" viewBox="0 0 16 16">
  <g id="Icon" transform="translate(0 -12)">
    <rect id="icon_area" data-name="icon area" width="16" height="16" transform="translate(0 12)" fill="#707070" opacity="0"/>
    <g id="Smock_Starburst_18_N" transform="translate(-9 8)">
      <rect id="Canvas" width="16" height="16" transform="translate(9 4)" fill="#ff13dc" opacity="0"/>
      <path id="Path_60880" data-name="Path 60880" d="M8.211,1.644l1.12,3.15L12.35,3.359a.222.222,0,0,1,.3.3L11.211,6.674l3.15,1.12a.222.222,0,0,1,0,.419l-3.15,1.12,1.435,3.019a.222.222,0,0,1-.3.3L9.331,11.213l-1.12,3.15a.222.222,0,0,1-.419,0l-1.12-3.15L3.655,12.648a.222.222,0,0,1-.3-.3L4.794,9.333,1.644,8.211a.222.222,0,0,1,0-.419l3.15-1.12L3.359,3.655a.222.222,0,0,1,.3-.3L6.674,4.794l1.12-3.15a.222.222,0,0,1,.417,0Z" transform="translate(8.834 3.833)" fill="#6e6e6e"/>
    </g>
  </g>
</svg>
