<svg id="tune-24px" xmlns="http://www.w3.org/2000/svg" width="11.998" height="11.998" viewBox="0 0 11.998 11.998">
  <path id="Path_13" data-name="Path 13" d="M0,0H12V12H0Z" fill="none"/>
  <path id="Path_14" data-name="Path 14" d="M3,10.5a.5.5,0,0,0,.5.5H6V10H3.5A.5.5,0,0,0,3,10.5Zm0-6a.5.5,0,0,0,.5.5H8V4H3.5A.5.5,0,0,0,3,4.5Zm5,7V11h3.5a.5.5,0,1,0,0-1H8V9.5a.5.5,0,0,0-1,0v2a.5.5,0,1,0,1,0Zm-3-5V7H3.5a.5.5,0,0,0,0,1H5v.5a.5.5,0,1,0,1,0v-2a.5.5,0,0,0-1,0Zm7,1a.5.5,0,0,0-.5-.5H7V8h4.5A.5.5,0,0,0,12,7.5ZM9.5,6a.5.5,0,0,0,.5-.5V5h1.5a.5.5,0,1,0,0-1H10V3.5a.5.5,0,1,0-1,0v2A.5.5,0,0,0,9.5,6Z" transform="translate(-1.5 -1.5)" fill="#707070"/>
</svg>
