<svg id="portrait-24px" xmlns="http://www.w3.org/2000/svg" width="11.997" height="11.997" viewBox="0 0 11.997 11.997">
  <path id="Path_17" data-name="Path 17" d="M0,0H12V12H0Z" fill="none"/>
  <path id="Path_18" data-name="Path 18" d="M7.5,7.624A1.125,1.125,0,1,0,6.374,6.5,1.126,1.126,0,0,0,7.5,7.624Zm2.249,2c0-.75-1.5-1.125-2.249-1.125s-2.249.375-2.249,1.125V10h4.5ZM11,3H4A1,1,0,0,0,3,4v7a1,1,0,0,0,1,1h7a1,1,0,0,0,1-1V4A1,1,0,0,0,11,3Zm-.5,8h-6a.5.5,0,0,1-.5-.5v-6A.5.5,0,0,1,4.5,4h6a.5.5,0,0,1,.5.5v6A.5.5,0,0,1,10.5,11Z" transform="translate(-1.5 -1.5)" fill="#707070"/>
</svg>
