<?xml version="1.0" encoding="utf-8"?>
<!-- Generator: Adobe Illustrator 22.1.0, SVG Export Plug-In . SVG Version: 6.00 Build 0)  -->
<svg version="1.1" id="Layer_1" xmlns="http://www.w3.org/2000/svg" xmlns:xlink="http://www.w3.org/1999/xlink" x="0px" y="0px"
	 viewBox="0 0 44 44" style="enable-background:new 0 0 44 44;" xml:space="preserve">
<path fill="#666666" id="_2_copy_2" d="M38.5,44h-33c-3,0-5.5-2.5-5.5-5.5v-33C0,2.5,2.5,0,5.5,0h33c3,0,5.5,2.5,5.5,5.5v33
	C44,41.5,41.6,44,38.5,44z M41.3,5.5c0-1.5-1.2-2.8-2.8-2.8h-33C4,2.8,2.8,4,2.8,5.5v33c0,1.5,1.2,2.8,2.8,2.8h33
	c1.5,0,2.8-1.2,2.8-2.8V5.5z M30.3,14.4H13.8c-0.8,0-1.4-0.6-1.4-1.4s0.6-1.4,1.4-1.4h16.5c0.8,0,1.4,0.6,1.4,1.4S31,14.4,30.3,14.4
	z"/>
<path fill="#666666" d="M22,34.1L22,34.1c-0.9,0-1.6-0.7-1.6-1.6l0,0v-8.9c0-0.1,0-0.2-0.1-0.3c-0.1-0.1-0.4-0.2-0.5,0c0,0,0,0,0,0l0,0l-2.2,2.2
	c-0.6,0.6-1.6,0.7-2.2,0.1s-0.7-1.6-0.1-2.2c0,0,0.1-0.1,0.1-0.1l5.5-5.5c0.6-0.6,1.6-0.6,2.2,0l0,0l5.5,5.5c0.6,0.6,0.6,1.6,0,2.2
	l0,0c-0.6,0.6-1.6,0.6-2.2,0c0,0,0,0,0,0l0,0l-2.2-2.2c-0.1-0.1-0.2-0.1-0.3-0.1c-0.2,0-0.4,0.2-0.4,0.4l0,0v8.9
	C23.6,33.4,22.9,34.1,22,34.1L22,34.1z"/>
</svg>
