<!-- Generated by IcoMoon.io -->
<svg version="1.1" xmlns="http://www.w3.org/2000/svg" width="32" height="32" viewBox="0 0 32 32">
<title>icon_sort_black</title>
<path fill="#666666" d="M20.133 7.167c0-0.736-0.597-1.333-1.333-1.333v0h-17.467c-0.736 0-1.333 0.597-1.333 1.333s0.597 1.333 1.333 1.333v0h17.467c0.736 0 1.333-0.597 1.333-1.333v0z"></path>
<path fill="#666666" d="M1.333 14.6c-0.736 0-1.333 0.597-1.333 1.333s0.597 1.333 1.333 1.333h13.593c0.736 0 1.333-0.597 1.333-1.333s-0.597-1.333-1.333-1.333v0z"></path>
<path fill="#666666" d="M12.74 24.7c0-0.736-0.597-1.333-1.333-1.333v0h-10.073c-0.736 0-1.333 0.597-1.333 1.333s0.597 1.333 1.333 1.333v0h10.073c0.736 0 1.333-0.597 1.333-1.333v0z"></path>
<path fill="#666666" d="M31.667 20.167v0c-0.241-0.242-0.575-0.391-0.943-0.391s-0.702 0.149-0.943 0.391v0l-1.547 1.547v-14.503c0-0.736-0.597-1.333-1.333-1.333s-1.333 0.597-1.333 1.333v0 0 14.49l-1.567-1.533c-0.243-0.243-0.579-0.394-0.95-0.394-0.741 0-1.342 0.601-1.342 1.342 0 0.37 0.15 0.706 0.392 0.948l3.83 3.833c0.241 0.242 0.575 0.391 0.943 0.391s0.702-0.149 0.943-0.391v0l3.85-3.85c0.24-0.241 0.388-0.573 0.388-0.94s-0.148-0.699-0.388-0.94l0 0z"></path>
</svg>
