<svg id="Layer_1" data-name="Layer 1" xmlns="http://www.w3.org/2000/svg" viewBox="0 0 83.2 71">
  <defs>
    <style>
      .cls-1, .cls-2 {
        fill: #00b393;
      }

      .cls-1 {
        stroke: #00b393;
        stroke-width: 0.75px;
      }

      .cls-1, .cls-3 {
        stroke-miterlimit: 10;
      }

      .cls-3 {
        fill: #29b293;
        stroke: #29b293;
      }
    </style>
  </defs>
  <title>icon_active</title>
  <path class="cls-1" d="M41.8,16.8v18a1.5,1.5,0,0,1-3,0v-18a1.64,1.64,0,0,1,1-1.5,1.45,1.45,0,0,1,1.9.9A1.49,1.49,0,0,1,41.8,16.8Z"/>
  <path class="cls-1" d="M41.4,34.6,54.7,48a1.53,1.53,0,0,1,.3,1.8,1.66,1.66,0,0,1-2.1.8,1.38,1.38,0,0,1-.4-.3L39.2,36.9a1.57,1.57,0,0,1,0-2.2A1.48,1.48,0,0,1,41.4,34.6Z"/>
  <polygon class="cls-2" points="73.7 43.8 64.2 33.5 83.2 33.5 73.7 43.8"/>
  <path class="cls-2" d="M40.6,70h.6v-.5Z"/>
  <path class="cls-3" d="M41.3.5a34.57,34.57,0,0,0-22.2,8L22,12.6a30,30,0,0,1,42.3,3.6,29.66,29.66,0,0,1,7.1,19.3h5A35.19,35.19,0,0,0,41.3.5Z"/>
  <polygon class="cls-2" points="9.5 27.2 19 37.5 0 37.5 9.5 27.2"/>
  <path class="cls-3" d="M42,70.5a35,35,0,0,0,22.3-8l-2.9-4.1A30,30,0,0,1,12,35.5H7a35,35,0,0,0,35,35Z"/>
</svg>
