<svg id="Layer_1" data-name="Layer 1" xmlns="http://www.w3.org/2000/svg" viewBox="0 0 71 71">
  <defs>
    <style>
      .cls-1 {
        fill: none;
        stroke-width: 6px;
      }

      .cls-1, .cls-2 {
        stroke: #086e99;
        stroke-miterlimit: 10;
      }

      .cls-2 {
        fill: #086e99;
        stroke-width: 2px;
      }
    </style>
  </defs>
  <title>icon_completed</title>
  <circle class="cls-1" cx="35.5" cy="35.5" r="32.5"/>
  <path class="cls-2" d="M17.37,33.81,30.76,47.2A1.64,1.64,0,0,1,31.11,49a1.61,1.61,0,0,1-2.14.74,1.79,1.79,0,0,1-.42-.3L15.16,36.09a1.64,1.64,0,0,1-.35-1.84A1.61,1.61,0,0,1,17,33.51,1.79,1.79,0,0,1,17.37,33.81Z" transform="translate(0.5 0.5)"/>
  <path class="cls-2" d="M54.34,26.5,32.16,48.69a3,3,0,0,1-2.55,1.06c-1.2-.35-1-2,.25-3.25L52.05,24.32a3,3,0,0,1,2.54-1.06C55.79,23.61,55.57,25.28,54.34,26.5Z" transform="translate(0.5 0.5)"/>
</svg>
