<svg xmlns="http://www.w3.org/2000/svg" width="27.06" height="17.25" viewBox="0 0 27.06 17.25"><defs><style>.a{fill:#296dfa;}</style></defs><g transform="translate(0 -5.833)"><path class="a" d="M15.86,5.833H1.125a1.125,1.125,0,0,0,0,2.25H15.86a1.125,1.125,0,1,0,0-2.25Z" transform="translate(0 0)"/><path class="a" d="M12.6,14.607H1.126a1.125,1.125,0,1,0,0,2.25H12.6a1.125,1.125,0,1,0,0-2.25Z" transform="translate(0 -1.369)"/><path class="a" d="M9.621,23.367h-8.5a1.125,1.125,0,1,0,0,2.25h8.5a1.125,1.125,0,1,0,0-2.25Z" transform="translate(0 -2.736)"/><path class="a" d="M30.114,17.923a1.125,1.125,0,0,0-1.6,0l-1.306,1.306V7a1.125,1.125,0,0,0-2.25,0h0V19.231l-1.314-1.308a1.131,1.131,0,1,0-1.6,1.6l3.232,3.235a1.127,1.127,0,0,0,1.6,0l3.238-3.235a1.125,1.125,0,0,0,0-1.6h0Z" transform="translate(-3.389 -0.007)"/></g></svg>