<?xml version="1.0" encoding="utf-8"?>
<!-- Generator: Adobe Illustrator 24.3.0, SVG Export Plug-In . SVG Version: 6.00 Build 0)  -->
<svg version="1.1" id="Layer_1" xmlns="http://www.w3.org/2000/svg" xmlns:xlink="http://www.w3.org/1999/xlink" x="0px" y="0px"
	 viewBox="0 0 20.1 20.1" style="enable-background:new 0 0 20.1 20.1;" xml:space="preserve">
<style type="text/css">
	.st0{opacity:0;fill:#78A9FF;}
	.st1{fill:#666666;}
</style>
<g>
	<g>
		<path class="st0" d="M10,19.1c-5,0-9-4-9-9s4-9,9-9c5,0,9,4,9,9S15,19.1,10,19.1z"/>
		<path class="st1" d="M10,2.1c4.4,0,8,3.6,8,8s-3.6,8-8,8s-8-3.6-8-8S5.6,2.1,10,2.1 M10,0.1c-5.5,0-10,4.5-10,10s4.5,10,10,10
			s10-4.5,10-10S15.6,0.1,10,0.1L10,0.1z"/>
	</g>
	<path class="st1" d="M9,12.3v-0.5c0-0.4,0.1-0.9,0.3-1.3c0.3-0.4,0.6-0.8,1-1.1c0.4-0.3,0.8-0.6,1.1-1c0.2-0.3,0.3-0.6,0.2-0.9
		c0-0.4-0.1-0.7-0.4-0.9c-0.3-0.2-0.7-0.3-1.2-0.3c-0.4,0-0.8,0.1-1.3,0.2C8.5,6.6,8.1,6.8,7.8,7L7.2,5.7c0.9-0.5,2-0.8,3.1-0.8
		c0.8,0,1.6,0.2,2.2,0.7c0.6,0.5,0.9,1.1,0.8,1.9c0,0.3,0,0.6-0.2,0.9c-0.1,0.3-0.3,0.5-0.5,0.8c-0.3,0.4-0.7,0.7-1.1,1
		c-0.3,0.2-0.7,0.5-0.9,0.9c-0.2,0.3-0.2,0.6-0.2,0.9v0.3L9,12.3z M8.6,14.3c-0.1-0.5,0.3-1,0.8-1.1c0.1,0,0.2,0,0.3,0
		c0.3,0,0.6,0.1,0.8,0.3c0.2,0.2,0.3,0.5,0.3,0.8c0,0.3-0.1,0.6-0.3,0.8c-0.2,0.2-0.5,0.3-0.8,0.3c-0.3,0-0.6-0.1-0.8-0.3
		C8.7,14.9,8.6,14.6,8.6,14.3L8.6,14.3z"/>
</g>
</svg>
