<svg id="Layer_1" data-name="Layer 1" xmlns="http://www.w3.org/2000/svg" viewBox="0 0 46 48">
  <title>icon_task_details_black</title>
  <path d="M16,0a4,4,0,0,0-3.86,3H5A4,4,0,0,0,1,7V44a4,4,0,0,0,4,4H35a4,4,0,0,0,4-4V39.94a9,9,0,0,0,0-17.88V7a4,4,0,0,0-4-4H27.86A4,4,0,0,0,24,0Zm0,2h8a2,2,0,0,1,2,2,2,2,0,0,1-2,2H16a2,2,0,0,1-2-2A2,2,0,0,1,16,2ZM5,5h7.14A4,4,0,0,0,16,8h8a4,4,0,0,0,3.86-3H35a2,2,0,0,1,2,2V22.06a9,9,0,0,0,0,17.88V44a2,2,0,0,1-2,2H5a2,2,0,0,1-2-2V7A2,2,0,0,1,5,5Zm5,9a1,1,0,0,0,0,2H30a1,1,0,0,0,0-2Zm0,8a1,1,0,0,0,0,2H28a1,1,0,0,0,0-2Zm28,2a7,7,0,1,1-7,7A7,7,0,0,1,38,24ZM10,30a1,1,0,0,0,0,2H25a1,1,0,0,0,0-2Zm0,8a1,1,0,0,0,0,2H28a1,1,0,0,0,0-2Z" transform="translate(-1)"/>
  <path d="M39.21,27.5a1,1,0,0,1-1.07,1,1,1,0,1,1,1.07-1Zm-2,8.12V29.27h2v6.35Z" transform="translate(-1)"/>
</svg>
