<svg id="Layer_1" data-name="Layer 1" xmlns="http://www.w3.org/2000/svg" viewBox="0 0 23.99 24">
  <title>icon_filterby_small.svg</title>
  <path fill="#666666" d="M11,24a2.05,2.05,0,0,1-1.23-.42A2,2,0,0,1,9,22V15.64a.94.94,0,0,0-.19-.58L.36,3.24A2.08,2.08,0,0,1,2.08,0H21.92a2.11,2.11,0,0,1,1.83,1.08,2.11,2.11,0,0,1-.08,2.13L15.19,15.06a.94.94,0,0,0-.19.58V21.5a2,2,0,0,1-1.52,1.94l-2,.5A2.12,2.12,0,0,1,11,24ZM2,2.08,10.44,13.9A2.94,2.94,0,0,1,11,15.64V22l2-.5V15.64a2.94,2.94,0,0,1,.56-1.74L22,2.08,21.92,2H2.08l-.91.66Z" transform="translate(0 0)"/>
</svg>
