<!-- Generated by IcoMoon.io -->
<svg version="1.1" xmlns="http://www.w3.org/2000/svg" width="32" height="32" viewBox="0 0 32 32">
<title>icon_annotation_not_started_gry</title>
<path fill="#fff" d="M3.686 0.768h24.627c1.612 0 2.918 1.307 2.918 2.918v24.627c0 1.612-1.307 2.918-2.918 2.918v0h-24.627c-1.612 0-2.918-1.307-2.918-2.918v0-24.627c-0-0.011-0-0.023-0-0.036 0-1.592 1.291-2.883 2.883-2.883 0.013 0 0.025 0 0.038 0l-0.002-0z"></path>
<path fill="#878787" d="M28.314 32h-24.627c-0.005 0-0.010 0-0.015 0-2.027 0-3.671-1.644-3.671-3.671 0-0.005 0-0.011 0-0.016v0.001-24.627c-0-0.005-0-0.010-0-0.015 0-2.027 1.644-3.671 3.671-3.671 0.005 0 0.011 0 0.016 0h24.626c0.005-0 0.010-0 0.015-0 2.027 0 3.671 1.644 3.671 3.671 0 0.005 0 0.011-0 0.016v-0.001 24.627c0 0.005 0 0.010 0 0.015 0 2.027-1.644 3.671-3.671 3.671-0.005 0-0.011 0-0.016-0h0.001zM3.686 1.536c-1.184 0.009-2.142 0.966-2.15 2.15v24.628c0.009 1.184 0.966 2.142 2.15 2.15h24.628c1.184-0.009 2.142-0.966 2.15-2.15v-24.628c-0.009-1.184-0.966-2.142-2.15-2.15h-0.001z"></path>
<path fill="#878787" d="M10.496 10.496h11.008v11.008h-11.008v-11.008z"></path>
<path fill="#00b393" d="M15.872 16.077h0.205v-0.154z"></path>
</svg>
