<svg id="Layer_1" data-name="Layer 1" xmlns="http://www.w3.org/2000/svg" viewBox="0 0 96.24 83.88">
  <title>icon_archived_reviews_black</title>
  <g>
    <path d="M14,68.62V81.55a2.31,2.31,0,0,0,1.28,2.09,3.48,3.48,0,0,0,1,.24,2.27,2.27,0,0,0,1.4-.47l19.8-14.68h8a2.33,2.33,0,0,0,0-4.66H36.69a2.2,2.2,0,0,0-1.39.47L18.64,76.89V66.4a2.35,2.35,0,0,0-2.33-2.33A11.69,11.69,0,0,1,4.66,52.43V16.31A11.68,11.68,0,0,1,16.31,4.66H72.22A11.68,11.68,0,0,1,83.87,16.31V33.79a2.33,2.33,0,0,0,4.66,0V16.31A16.36,16.36,0,0,0,72.22,0H16.31A16.36,16.36,0,0,0,0,16.31V52.43A16.44,16.44,0,0,0,14,68.62Z"/>
    <g id="Layer_2" data-name="Layer 2">
      <g id="Layer_1-2" data-name="Layer 1-2">
        <path d="M90.15,80.22H53.82a3.57,3.57,0,0,1-3.57-3.57V49.76h2.1V76.65a1.47,1.47,0,0,0,1.47,1.47H90.15a1.47,1.47,0,0,0,1.47-1.47V50h2.1V76.65A3.57,3.57,0,0,1,90.15,80.22Z"/>
        <path d="M96.24,49.34h-2.1V43.88a1.47,1.47,0,0,0-1.47-1.47H51.51A1.47,1.47,0,0,0,50,43.88v5.46h-2.1V43.88a3.57,3.57,0,0,1,3.57-3.57H92.67a3.57,3.57,0,0,1,3.57,3.57Z"/>
        <rect x="65.16" y="57.11" width="13.23" height="2.94"/>
        <rect x="47.94" y="48.29" width="48.3" height="2.1"/>
      </g>
    </g>
  </g>
</svg>
