<?xml version="1.0" encoding="utf-8"?>
<!-- Generator: Adobe Illustrator 24.3.0, SVG Export Plug-In . SVG Version: 6.00 Build 0)  -->
<svg version="1.1" id="Layer_1" xmlns="http://www.w3.org/2000/svg" xmlns:xlink="http://www.w3.org/1999/xlink" x="0px" y="0px"
	 viewBox="0 0 20.1 20.1" style="enable-background:new 0 0 20.1 20.1;" xml:space="preserve">
<style type="text/css">
	.st0{fill:#666766;}
</style>
<path id="ic_public_24px" class="st0" d="M10,0C4.5,0,0,4.5,0,10s4.5,10,10,10s10-4.5,10-10S15.6,0,10,0z M9,18c-4-0.5-7-3.9-7-7.9
	c0-0.6,0.1-1.2,0.2-1.8L7,13v1c0,1.1,0.9,2,2,2V18z M15.9,15.4c-0.3-0.8-1-1.4-1.9-1.4h-1v-3c0-0.6-0.4-1-1-1H6V8h2c0.6,0,1-0.4,1-1
	V5h2c1.1,0,2-0.9,2-2V2.6c4.1,1.6,6.1,6.3,4.4,10.4C17.1,13.9,16.6,14.7,15.9,15.4z"/>
</svg>
