<svg id="Layer_1" data-name="Layer 1" xmlns="http://www.w3.org/2000/svg" viewBox="0 0 48 48">
  <defs>
    <style>
      .cls-1 {
        fill: none;
        stroke: #000;
        stroke-linecap: round;
        stroke-linejoin: round;
        stroke-width: 2px;
      }
    </style>
  </defs>
  <title>icon_email_black</title>
  <g>
    <g>
      <polyline class="cls-1" points="47 20.9 47 47 1 47 1 20.9"/>
      <polyline class="cls-1" points="8.1 25.7 8.1 1 39.9 1 39.9 25.7"/>
      <polyline class="cls-1" points="1 20.9 24 36.3 47 20.9"/>
      <line class="cls-1" x1="39.9" y1="15.4" x2="47" y2="20.9"/>
      <line class="cls-1" x1="1" y1="20.9" x2="8.1" y2="15.4"/>
    </g>
    <path d="M28.55,22.9a10.24,10.24,0,0,1-5.2,1.2,8.75,8.75,0,0,1-8.91-8.59c0-.2,0-.41,0-.61,0-6.1,4.2-11.3,10.7-11.3a8.14,8.14,0,0,1,8.5,7.76c0,.25,0,.49,0,.74,0,4.4-2.5,7-5.2,7A2.18,2.18,0,0,1,26.21,17a2.59,2.59,0,0,1,0-.48h-.1a4.66,4.66,0,0,1-4.1,2.6c-1.7,0-3.2-1.4-3.2-3.7a7,7,0,0,1,7-7A8,8,0,0,1,29,9l-1,5.3q-.6,3.3.9,3.3c1.5,0,3.2-2,3.2-5.4C32.05,8,29.45,5,25,5c-4.8,0-8.9,3.8-8.9,9.7,0,4.9,3.2,7.9,7.5,7.9a9.88,9.88,0,0,0,4.4-1ZM27,10.2a5.07,5.07,0,0,0-1.5-.2c-2.6,0-4.7,2.4-4.7,5.3,0,1.3.6,2.2,1.9,2.2,1.7,0,3.3-2.2,3.6-4Z"/>
  </g>
</svg>
