<svg id="Layer_1" data-name="Layer 1" xmlns="http://www.w3.org/2000/svg" viewBox="0 0 77.55 71">
  <defs>
    <style>
      .cls-1, .cls-2, .cls-3 {
        fill: #93b2c8;
      }

      .cls-1, .cls-2 {
        stroke: #93b2c8;
        stroke-miterlimit: 10;
      }

      .cls-1 {
        stroke-width: 2px;
      }
    </style>
  </defs>
  <title>icon_upcoming</title>
  <path class="cls-1" d="M37.5,19.31v18a1.5,1.5,0,0,1-3,0v-18a1.55,1.55,0,0,1,1-1.47,1.51,1.51,0,0,1,1.92.94A1.56,1.56,0,0,1,37.5,19.31Z" transform="translate(0.5 0.5)"/>
  <path class="cls-1" d="M37.16,37.09,50.55,50.48a1.58,1.58,0,1,1-2.2,2.27L35,39.36a1.58,1.58,0,0,1,2.2-2.27h0Z" transform="translate(0.5 0.5)"/>
  <path class="cls-2" d="M35,65A30,30,0,1,1,65,35h5A35,35,0,1,0,35,70Z" transform="translate(0.5 0.5)"/>
  <polygon class="cls-3" points="68.05 43.84 58.55 33.5 77.55 33.5 68.05 43.84"/>
</svg>
