<svg xmlns="http://www.w3.org/2000/svg" width="32.376" height="26.32" viewBox="0 0 32.376 26.32"><defs><style>.a{fill:#767676;}</style></defs><path class="a" d="M33.9,16.406c-1.079-1.551-2.833-1.012-3.575-1.147v-2.7A2.023,2.023,0,0,0,28.3,10.538c-13.961-.067-13.691.2-14.028-.27l-2.563-3.1C10.7,6.02,9.486,6.694,4.023,6.492A2.023,2.023,0,0,0,2,8.515V32.121a.674.674,0,0,0,.607.674h27.18a.809.809,0,0,0,.674-.472L34.238,18.9A2.947,2.947,0,0,0,33.9,16.406ZM3.349,8.515a.634.634,0,0,1,.674-.674c6.2.067,6.272-.2,6.609.27,2.226,2.428,2.563,3.777,4.114,3.777H28.3a.634.634,0,0,1,.674.674v2.7H8.812a2.758,2.758,0,0,0-2.563,1.821l-2.9,10.251Zm29.608,9.914L29.315,31.446H3.551L7.53,17.485a1.349,1.349,0,0,1,1.281-.877c24.145.2,23.2-.472,23.943.54a1.477,1.477,0,0,1,.2,1.281Z" transform="translate(-2 -6.475)"/></svg>