<?xml version="1.0" encoding="utf-8"?>
<!-- Generator: Adobe Illustrator 24.3.0, SVG Export Plug-In . SVG Version: 6.00 Build 0)  -->
<svg version="1.1" id="Layer_1" xmlns="http://www.w3.org/2000/svg" xmlns:xlink="http://www.w3.org/1999/xlink" x="0px" y="0px"
	 viewBox="0 0 20.1 20.1" style="enable-background:new 0 0 20.1 20.1;" xml:space="preserve">
<style type="text/css">
	.st0{fill:#666766;}
</style>
<path id="ic_help_24px" class="st0" d="M10,0C4.5,0,0,4.5,0,10s4.5,10,10,10s10-4.5,10-10S15.6,0,10,0z M11,17H9v-2h2V17z M13.1,9.3
	l-0.9,0.9C11.4,10.9,11,12,11,13H9v-0.5c0-1.1,0.4-2.1,1.2-2.8l1.2-1.3C11.8,8.1,12.1,7.6,12,7c0-1.1-0.9-2-2-2S8,5.9,8,7H6
	c0-2.2,1.8-4,4-4s4,1.8,4,4C14,7.9,13.7,8.7,13.1,9.3z"/>
</svg>
