<!-- Generated by IcoMoon.io -->
<svg version="1.1" xmlns="http://www.w3.org/2000/svg" width="32" height="32" viewBox="0 0 32 32">
<title>icon_pick_sort_up_blue</title>
<path fill="#2973f6" d="M4.889 0h22.222c2.69 0.025 4.864 2.199 4.889 4.886l0 0.002v22.222c-0.025 2.69-2.199 4.864-4.887 4.889l-0.002 0h-22.222c-2.69-0.025-4.864-2.199-4.889-4.887l-0-0.002v-22.222c0.025-2.69 2.199-4.864 4.886-4.889l0.002-0zM27.111 29.333c0.005 0 0.012 0 0.018 0 1.211 0 2.194-0.977 2.204-2.186v-22.259c0-0.005 0-0.012 0-0.018 0-1.211-0.977-2.194-2.186-2.204h-22.259c-0.005-0-0.012-0-0.018-0-1.211 0-2.194 0.977-2.204 2.186v22.223c-0 0.016-0.001 0.035-0.001 0.053 0 1.211 0.977 2.195 2.186 2.204h22.223z"></path>
<path fill="#2973f6" d="M16 23.547v0c-0.005 0-0.012 0-0.018 0-0.779 0-1.412-0.627-1.422-1.404v-8.001c0.001-0.009 0.001-0.019 0.001-0.029 0-0.094-0.034-0.18-0.090-0.247l0 0.001c-0.098-0.089-0.364-0.178-0.453 0v0l-1.982 1.982c-0.259 0.309-0.646 0.504-1.078 0.504-0.776 0-1.404-0.629-1.404-1.404 0-0.388 0.157-0.739 0.411-0.993l0.089-0.089 4.987-4.978c0.255-0.251 0.605-0.406 0.991-0.406s0.736 0.155 0.991 0.406l4.951 4.951c0.251 0.255 0.406 0.605 0.406 0.991s-0.155 0.736-0.406 0.991l0-0c-0.255 0.251-0.605 0.406-0.991 0.406s-0.736-0.155-0.991-0.406l-1.982-1.982c-0.059-0.056-0.139-0.091-0.227-0.091-0.014 0-0.027 0.001-0.041 0.003l0.002-0c-0.196 0.005-0.355 0.16-0.364 0.355l-0 0.001v8c0.004 0.040 0.007 0.086 0.007 0.133 0 0.673-0.505 1.227-1.156 1.306l-0.006 0.001h-0.222z"></path>
</svg>
