<svg id="Layer_1" data-name="Layer 1" xmlns="http://www.w3.org/2000/svg" viewBox="0 0 93.01 83.88">
  <title>icon_set_review_status_blk</title>
  <path d="M14,68.62V81.55a2.31,2.31,0,0,0,1.28,2.09,3.48,3.48,0,0,0,1,.24,2.27,2.27,0,0,0,1.4-.47l19.8-14.68h8a2.33,2.33,0,0,0,0-4.66H36.69a2.2,2.2,0,0,0-1.39.47L18.64,76.89V66.4a2.35,2.35,0,0,0-2.33-2.33A11.69,11.69,0,0,1,4.66,52.43V16.31A11.68,11.68,0,0,1,16.31,4.66H72.22A11.68,11.68,0,0,1,83.87,16.31V33.79a2.33,2.33,0,0,0,4.66,0V16.31A16.36,16.36,0,0,0,72.22,0H16.31A16.36,16.36,0,0,0,0,16.31V52.43A16.44,16.44,0,0,0,14,68.62Z"/>
  <path d="M70.88,34.46A22.13,22.13,0,1,0,93,56.59h0A22.13,22.13,0,0,0,70.88,34.46Zm0,39.6A17.47,17.47,0,1,1,88.35,56.58,17.47,17.47,0,0,1,70.88,74.06Z"/>
  <polygon points="66.71 46 66.71 66.46 80.33 56.23 66.71 46"/>
</svg>
