<svg xmlns="http://www.w3.org/2000/svg" width="25" height="25" viewBox="0 0 25 25"><defs><style>.a{fill:#222;}</style></defs><g transform="translate(0 -0.001)"><path class="a" d="M21.181,25H3.82A3.855,3.855,0,0,1,0,21.184V3.821A3.855,3.855,0,0,1,3.817,0H21.18A3.855,3.855,0,0,1,25,3.818V21.181A3.855,3.855,0,0,1,21.183,25ZM3.82,2.084H3.806A1.722,1.722,0,0,0,2.084,3.792V21.154c0,.013,0,.027,0,.041a1.722,1.722,0,0,0,1.708,1.722h17.4a1.722,1.722,0,0,0,1.722-1.708V3.806a1.722,1.722,0,0,0-1.708-1.722H3.818Z"/><path class="a" d="M14.6,8.453h.014a1.111,1.111,0,0,1,1.111,1.1V15.8a.212.212,0,0,0,0,.023.3.3,0,0,0,.07.193h0c.077.07.284.139.354,0h0L17.7,14.467a1.1,1.1,0,1,1,1.618,1.479l-.07.07-3.9,3.889a1.1,1.1,0,0,1-1.548,0L9.937,16.037a1.1,1.1,0,0,1,0-1.548h0a1.1,1.1,0,0,1,1.548,0l1.548,1.548a.257.257,0,0,0,.177.071l.032,0h0a.292.292,0,0,0,.284-.277h0V9.577c0-.031-.005-.067-.005-.1a1.028,1.028,0,0,1,.9-1.02H14.6Z" transform="translate(-2.104 -1.848)"/></g></svg>