<svg id="Layer_1" data-name="Layer 1" xmlns="http://www.w3.org/2000/svg" viewBox="0 0 48.47 60.03">
  <title>icon_file_type_error</title>
  <path d="M52.39,18.47l-.1,0h-23a4.05,4.05,0,0,0-4,4V70.94a4.05,4.05,0,0,0,4,4h2v.53a3,3,0,0,0,3,3H70.73a3,3,0,0,0,3-3V62.22a3,3,0,0,0-3-3H68.11V33.47l0-.19v-.09l0,0a0,0,0,0,0,0,0s0,0,0-.06L68,33h0l0-.06,0,0,0-.06,0,0,0,0-14.57-14-.06-.06a1,1,0,0,0-.69-.22Zm-23.1,2H51.51v10a4.05,4.05,0,0,0,4,4H66.11V59.25H34.29a3,3,0,0,0-3,3V73h-2a2,2,0,0,1-2-2V22.53a2,2,0,0,1,2-2Zm24.22,1.34,11.07,10.6.06.06h-9.1a2,2,0,0,1-2-2V21.84ZM34.29,61.25H70.73a1,1,0,0,1,1,1V75.5a1,1,0,0,1-1,1H34.29a1,1,0,0,1-1-1V62.22A1,1,0,0,1,34.29,61.25Z" transform="translate(-25.26 -18.47)"/>
  <g>
    <path d="M55.14,48.3,48.86,37.48A2.92,2.92,0,0,0,46.36,36a2.86,2.86,0,0,0-2.5,1.45L37.58,48.3a2.89,2.89,0,0,0,2.5,4.33H52.64a2.89,2.89,0,0,0,2.5-4.33Zm-1.66,1.93a1,1,0,0,1-.84.48H40.08a1,1,0,0,1-.84-.48.93.93,0,0,1,0-1l6.28-10.83a1,1,0,0,1,.84-.48,1,1,0,0,1,.84.48l6.28,10.83A1,1,0,0,1,53.48,50.23Z" transform="translate(-25.26 -18.47)"/>
    <path d="M46.36,43.25a1,1,0,0,0-1,1v4.58a1,1,0,0,0,1.92,0V44.21A1,1,0,0,0,46.36,43.25Z" transform="translate(-25.26 -18.47)"/>
    <circle cx="21.1" cy="22.86" r="0.96"/>
  </g>
  <g>
    <path d="M39.66,69.3H37.37v1.79h2.56V72H36.26V65.93h3.53v.91H37.37V68.4h2.29Z" transform="translate(-25.26 -18.47)"/>
    <path d="M40.9,66a9.48,9.48,0,0,1,1.67-.14,2.86,2.86,0,0,1,1.88.49A1.55,1.55,0,0,1,45,67.59a1.6,1.6,0,0,1-1.11,1.52v0a1.53,1.53,0,0,1,.85,1.17c.2.76.36,1.46.47,1.7H44.05a8.37,8.37,0,0,1-.41-1.44c-.18-.79-.45-1-1.08-1.06H42V72H40.9ZM42,68.69h.65c.75,0,1.21-.4,1.21-1s-.46-1-1.18-1a3.85,3.85,0,0,0-.68,0Z" transform="translate(-25.26 -18.47)"/>
    <path d="M46,66a9.56,9.56,0,0,1,1.67-.14,2.86,2.86,0,0,1,1.88.49,1.55,1.55,0,0,1,.52,1.22A1.6,1.6,0,0,1,49,69.11v0a1.53,1.53,0,0,1,.85,1.17,15.39,15.39,0,0,0,.48,1.7H49.17a7.79,7.79,0,0,1-.4-1.44c-.18-.79-.46-1-1.09-1.06h-.56V72H46Zm1.1,2.67h.66c.74,0,1.2-.4,1.2-1s-.46-1-1.18-1a3.85,3.85,0,0,0-.68,0Z" transform="translate(-25.26 -18.47)"/>
    <path d="M56.52,68.9a2.86,2.86,0,0,1-2.89,3.19A2.81,2.81,0,0,1,50.83,69a2.91,2.91,0,0,1,2.89-3.19A2.8,2.8,0,0,1,56.52,68.9ZM52,69c0,1.24.62,2.22,1.68,2.22s1.67-1,1.67-2.27-.56-2.22-1.67-2.22S52,67.73,52,69Z" transform="translate(-25.26 -18.47)"/>
    <path d="M57.48,66a9.48,9.48,0,0,1,1.67-.14,2.83,2.83,0,0,1,1.87.49,1.52,1.52,0,0,1,.53,1.22,1.6,1.6,0,0,1-1.11,1.52v0a1.53,1.53,0,0,1,.85,1.17,16.05,16.05,0,0,0,.47,1.7H60.63a7.5,7.5,0,0,1-.41-1.44c-.18-.79-.46-1-1.09-1.06h-.55V72h-1.1Zm1.1,2.67h.65c.75,0,1.21-.4,1.21-1s-.46-1-1.18-1a3.76,3.76,0,0,0-.68,0Z" transform="translate(-25.26 -18.47)"/>
  </g>
</svg>
