<svg xmlns="http://www.w3.org/2000/svg" width="28.4" height="28.4" viewBox="0 0 28.4 28.4"><defs><style>.a{fill:#1e8ab7;}.b{fill:#fff;}</style></defs><g transform="translate(0)"><path class="a" d="M4.09,1.5H25.947a2.589,2.589,0,0,1,2.59,2.59V25.947a2.589,2.589,0,0,1-2.59,2.59H4.09a2.589,2.589,0,0,1-2.59-2.59V4.09A2.56,2.56,0,0,1,4.09,1.5Z" transform="translate(-0.818 -0.818)"/><path class="a" d="M25.129,28.4H3.272A3.258,3.258,0,0,1,0,25.129V3.272A3.258,3.258,0,0,1,3.272,0H25.129A3.258,3.258,0,0,1,28.4,3.272V25.129A3.258,3.258,0,0,1,25.129,28.4ZM3.272,1.363A1.92,1.92,0,0,0,1.363,3.272V25.129a1.92,1.92,0,0,0,1.909,1.909H25.129a1.92,1.92,0,0,0,1.909-1.909V3.272a1.92,1.92,0,0,0-1.909-1.909Z" transform="translate(0)"/></g><g transform="translate(4.253 12.638)"><path class="b" d="M12.129,29.474l6.089,6.089a.79.79,0,0,1,.182.818.809.809,0,0,1-1,.364.627.627,0,0,1-.182-.136l-6.089-6.089a.725.725,0,0,1,.818-1.181h0A.627.627,0,0,1,12.129,29.474Z" transform="translate(-10.202 -28.616)"/><path class="b" d="M16.875,36.667a1.4,1.4,0,0,1-.591-.136,2.521,2.521,0,0,1-.364-.273L9.787,30.214a1.47,1.47,0,0,1-.318-1.59,1.445,1.445,0,0,1,1.909-.682,2.521,2.521,0,0,1,.364.273l6.134,6.044a1.413,1.413,0,0,1,.318,1.545A1.53,1.53,0,0,1,16.875,36.667Zm-6.089-7.543a.045.045,0,0,0,0,.091L16.875,35.3h.091l-.045-.045-6.134-6.134Z" transform="translate(-9.359 -27.811)"/></g><g transform="translate(10.685 8.071)"><path class="b" d="M36.684,20.654,26.6,30.742a1.549,1.549,0,0,1-1.136.5c-.545-.136-.454-.909.091-1.454L35.639,19.7a1.549,1.549,0,0,1,1.136-.5C37.32,19.336,37.229,20.109,36.684,20.654Z" transform="translate(-24.376 -18.547)"/><path class="b" d="M24.69,31.139h-.182l-.136-.045a1.146,1.146,0,0,1-.818-.818A1.949,1.949,0,0,1,24.19,28.5L34.232,18.461a1.89,1.89,0,0,1,1.727-.682l.136.045a1.146,1.146,0,0,1,.818.818,1.949,1.949,0,0,1-.636,1.772l-10.042,10A2.081,2.081,0,0,1,24.69,31.139Zm10.815-12a.454.454,0,0,0-.227.182l-.045.045L25.189,29.457a.951.951,0,0,0-.182.273.454.454,0,0,0,.227-.182l.045-.045L35.368,19.415Z" transform="translate(-23.515 -17.762)"/></g></svg>