<svg id="Layer_1" data-name="Layer 1" xmlns="http://www.w3.org/2000/svg" viewBox="0 0 18 18">
  <defs>
    <style>
      .cls-1 {
        fill: #ffffff;
      }
    </style>
  </defs>
  <title>noun_success_937535_6dcd7f</title>
  <path class="cls-1" d="M15,6a9,9,0,1,0,9,9A9,9,0,0,0,15,6Zm3.5,6.5h0L15,18.1a.62.62,0,0,1-.6.4.71.71,0,0,1-.6-.3h0L12,15.9a.76.76,0,0,1-.2-.5.68.68,0,0,1,.7-.7.71.71,0,0,1,.6.3h0l1.3,1.6,2.9-4.8a.1.1,0,0,1,.1-.1h0a.55.55,0,0,1,.5-.3.68.68,0,0,1,.7.7C18.6,12.3,18.6,12.4,18.5,12.5Z" transform="translate(-6 -6)"/>
</svg>
