<!-- Generated by IcoMoon.io -->
<svg version="1.1" xmlns="http://www.w3.org/2000/svg" width="32" height="32" viewBox="0 0 32 32">
<title>icon_back_arrow_blue</title>
<path fill="#007aff" d="M21.569 31.175l-14.357-14.185c-0.274-0.274-0.444-0.653-0.444-1.071s0.17-0.797 0.444-1.071v0l14.357-14.203c0.408-0.4 0.968-0.647 1.585-0.647s1.177 0.247 1.585 0.647l-0-0c0.398 0.398 0.644 0.947 0.644 1.554s-0.246 1.156-0.644 1.554v0l-12.314 12.166 12.308 12.129c0.396 0.398 0.641 0.947 0.641 1.554s-0.245 1.156-0.641 1.554l0-0c-0.408 0.4-0.968 0.647-1.585 0.647s-1.177-0.247-1.585-0.647l0 0z"></path>
</svg>
