<svg id="Layer_1" data-name="Layer 1" xmlns="http://www.w3.org/2000/svg" viewBox="0 0 41 41"><title>icon_settings_small</title><path fill="#666666" id="_1" data-name=" 1" d="M39.64,15.67l-3.17,1.85a15.68,15.68,0,0,1,.29,3,15.86,15.86,0,0,1-.29,3l3.17,1.84a2.76,2.76,0,0,1,1,3.74L37.92,33.8a2.69,2.69,0,0,1-3.68,1h0L31,32.93a16.35,16.35,0,0,1-5.1,3v2.32A2.72,2.72,0,0,1,23.21,41H17.79a2.72,2.72,0,0,1-2.71-2.73h0V36a16.35,16.35,0,0,1-5.1-3L6.78,34.8a2.7,2.7,0,0,1-3.69-1v0L.36,29.07a2.76,2.76,0,0,1,1-3.74l3.17-1.84a15.56,15.56,0,0,1,0-6L1.36,15.67a2.76,2.76,0,0,1-1-3.74L3.08,7.2a2.69,2.69,0,0,1,3.68-1h0L10,8.07a16.35,16.35,0,0,1,5.1-3V2.73A2.72,2.72,0,0,1,17.79,0h5.42a2.72,2.72,0,0,1,2.71,2.73h0V5.05a16.19,16.19,0,0,1,5.09,3L34.22,6.2a2.7,2.7,0,0,1,3.69,1v0l2.71,4.73A2.75,2.75,0,0,1,39.64,15.67Zm-2-3.55L36.26,9.75a1.37,1.37,0,0,0-1.85-.51h0l-3.76,2.19a13.57,13.57,0,0,0-7.43-4.33v-3a1.37,1.37,0,0,0-1.36-1.37h-2.7A1.37,1.37,0,0,0,17.79,4.1h0v3a13.51,13.51,0,0,0-7.43,4.33L6.6,9.25a1.35,1.35,0,0,0-1.85.49h0L3.39,12.12A1.37,1.37,0,0,0,3.89,14l3.78,2.2a13.29,13.29,0,0,0,0,8.63L3.89,27a1.37,1.37,0,0,0-.5,1.87l1.35,2.37a1.36,1.36,0,0,0,1.84.51h0l3.76-2.19a13.51,13.51,0,0,0,7.43,4.33v3a1.37,1.37,0,0,0,1.35,1.37h2.71a1.37,1.37,0,0,0,1.36-1.37h0v-3a13.51,13.51,0,0,0,7.43-4.33l3.76,2.19a1.33,1.33,0,0,0,1.84-.49h0l1.36-2.37a1.37,1.37,0,0,0-.5-1.86l-3.78-2.2a13.29,13.29,0,0,0,0-8.63L37.11,14A1.37,1.37,0,0,0,37.61,12.12ZM20.5,27.33a6.83,6.83,0,1,1,6.78-6.89v.06a6.8,6.8,0,0,1-6.78,6.83Zm0-10.93a4.1,4.1,0,1,0,4.07,4.13v0a4.09,4.09,0,0,0-4.07-4.1Z" transform="translate(0)"/></svg>