<?xml version="1.0" encoding="utf-8"?>
<!-- Generator: Adobe Illustrator 24.1.2, SVG Export Plug-In . SVG Version: 6.00 Build 0)  -->
<svg version="1.1" id="Layer_1" xmlns="http://www.w3.org/2000/svg" xmlns:xlink="http://www.w3.org/1999/xlink" x="0px" y="0px"
	 viewBox="0 0 62.5 62.5" style="enable-background:new 0 0 62.5 62.5;" xml:space="preserve">
<style type="text/css">
	.st0{fill:#B3B3B3;}
	.st1{fill:#00B393;}
	.st2{fill:#FFFFFF;}
</style>
<path class="st0" d="M7.2,1.5h48.1C58.4,1.5,61,4,61,7.2v48.1c0,3.1-2.5,5.7-5.7,5.7H7.2c-3.1,0-5.7-2.5-5.7-5.7V7.2
	C1.5,4,4,1.5,7.2,1.5z"/>
<path class="st1" d="M31.1,31.4h0.4v-0.3L31.1,31.4z"/>
<path class="st2" d="M52.8,33.3H9.7c-1.1,0-2-0.8-2.1-1.9c-0.1-1.1,0.9-2.1,2-2.1h43.1c1.1,0,2,0.9,2,2
	C54.8,32.4,53.9,33.3,52.8,33.3z"/>
</svg>
