<svg id="Layer_1" data-name="Layer 1" xmlns="http://www.w3.org/2000/svg" viewBox="0 0 212.21 199">
  <title>icon_set_task_status_black</title>
  <path d="M166.92,176.37a47.84,47.84,0,1,1,47.83-47.83A47.89,47.89,0,0,1,166.92,176.37Zm0-87.27a39.44,39.44,0,1,0,39.44,39.44A39.49,39.49,0,0,0,166.92,89.1Z" transform="translate(-2.54)"/>
  <polygon points="154.87 108.45 154.87 151.46 183.51 129.96 154.87 108.45"/>
  <g>
    <path d="M39.86,132.67h62.19a4.15,4.15,0,0,0,0-8.3H39.86a4.15,4.15,0,0,0,0,8.3Z" transform="translate(-2.54)"/>
    <path d="M114.5,91.18H39.87a4.15,4.15,0,1,0,0,8.29H114.5a4.15,4.15,0,0,0,0-8.29Z" transform="translate(-2.54)"/>
    <path d="M114.49,157.55H39.86a4.15,4.15,0,0,0-.42,8.28h75.05a4.15,4.15,0,1,0,.44-8.28Z" transform="translate(-2.54)"/>
    <path d="M151.85,167.43v15a8.19,8.19,0,0,1-8.08,8.3H19.13a8.19,8.19,0,0,1-8.29-8.08h0V29a8.17,8.17,0,0,1,8.07-8.29H48.73a16.57,16.57,0,0,0,16,12.44H97.9a16.61,16.61,0,0,0,16-12.44h29.61a8.19,8.19,0,0,1,8.38,8h0v60.9a39.59,39.59,0,0,1,8.24,0V29A16.64,16.64,0,0,0,143.5,12.43H113.86A16.62,16.62,0,0,0,97.9,0H64.73a16.59,16.59,0,0,0-16,12.43H19.13A16.64,16.64,0,0,0,2.54,29v153.4A16.64,16.64,0,0,0,19.13,199H143.5a16.64,16.64,0,0,0,16.59-16.59v-15a39.59,39.59,0,0,1-8.24,0ZM64.73,8.28H97.9a8.3,8.3,0,0,1,0,16.59H64.73a8.3,8.3,0,0,1,0-16.59Z" transform="translate(-2.54)"/>
    <path d="M122.79,58H39.87a4.15,4.15,0,0,0,0,8.29h82.92a4.15,4.15,0,1,0,0-8.29Z" transform="translate(-2.54)"/>
  </g>
</svg>
