<svg id="Layer_1" data-name="Layer 1" xmlns="http://www.w3.org/2000/svg" viewBox="0 0 77.87 71">
  <defs>
    <style>
      .cls-1, .cls-2 {
        fill: #d20000;
      }

      .cls-1 {
        stroke: #d20000;
        stroke-miterlimit: 10;
      }
    </style>
  </defs>
  <title>icon_overdue</title>
  <path class="cls-1" d="M39.87,19.31v18a1.5,1.5,0,0,1-3,0v-18a1.55,1.55,0,0,1,1-1.47,1.51,1.51,0,0,1,1.92.94A1.56,1.56,0,0,1,39.87,19.31Z" transform="translate(0 0.5)"/>
  <path class="cls-1" d="M40.11,37.09,53.5,50.48a1.58,1.58,0,1,1-2.2,2.27L37.91,39.36a1.58,1.58,0,0,1,2.2-2.27Z" transform="translate(0 0.5)"/>
  <path class="cls-1" d="M42.37,5a30,30,0,1,1-30,30h-5a35,35,0,1,0,35-35h0Z" transform="translate(0 0.5)"/>
  <polygon class="cls-2" points="9.5 27.16 19 37.5 0 37.5 9.5 27.16"/>
</svg>
