<svg id="Layer_1" data-name="Layer 1" xmlns="http://www.w3.org/2000/svg" viewBox="0 0 381.93 323">
  <title>icon_modify_to-do_black</title>
  <path d="M141.62,80.71H300.24a6,6,0,0,1,0,12H141.62a5.77,5.77,0,0,1-5.49-6A5.68,5.68,0,0,1,141.62,80.71Z" transform="translate(-22 -23)"/>
  <path d="M68.49,60.67h32.06A14.44,14.44,0,0,1,115,75.1v32.06a14.44,14.44,0,0,1-14.42,14.42H68.49a14.44,14.44,0,0,1-14.43-14.42V75.1A14.44,14.44,0,0,1,68.49,60.67ZM100.55,112a4.81,4.81,0,0,0,4.8-4.81V75.1a4.8,4.8,0,0,0-4.8-4.81H68.49a4.81,4.81,0,0,0-4.81,4.81v32.06A4.81,4.81,0,0,0,68.49,112Z" transform="translate(-22 -23)"/>
  <path id="_2_copy_2" data-name=" 2 copy 2" d="M379.68,301.93H234.18a24.47,24.47,0,0,1-24.25-24.25V132.18a24.47,24.47,0,0,1,24.25-24.25h145.5a24.47,24.47,0,0,1,24.25,24.25v145.5a24.16,24.16,0,0,1-24.07,24.25ZM392,132.18a12.35,12.35,0,0,0-12.35-12.35H234.18a12.51,12.51,0,0,0-11.9,12.35v145.5A12.34,12.34,0,0,0,234.62,290h145.5a12.35,12.35,0,0,0,12.35-12.34V132.18Z" transform="translate(-22 -23)"/>
  <path d="M256.09,224.46a1.32,1.32,0,0,0-.26.48l-8.11,30.87a5.38,5.38,0,0,0,1.27,5.07,5.11,5.11,0,0,0,3.58,1.5,4.86,4.86,0,0,0,1.32,0L283.47,254h0a1.16,1.16,0,0,0,.93-.39l79.19-81.88a13.22,13.22,0,0,0,3.61-9.3,16.35,16.35,0,0,0-4.41-11.2l-7.49-7.72a15.37,15.37,0,0,0-11-4.76,12.58,12.58,0,0,0-9.08,3.75l-79,81.65Zm99.74-60.67L348,171.9l-12.7-13.22,7.72-8a3.57,3.57,0,0,1,5,.4l7.41,7.59a4.11,4.11,0,0,1,1.23,2.91A3,3,0,0,1,355.83,163.79Zm-85.67,62,57-58.86L340,180.1,283,239Zm-10.41,23.89L263.9,234l11,11.33Z" transform="translate(-22 -23)"/>
  <path d="M220.93,136.81H141.62a5.69,5.69,0,0,0-5.49,6,5.77,5.77,0,0,0,5.49,6h79.31Z" transform="translate(-22 -23)"/>
  <path d="M220.93,192.92H141.62a5.68,5.68,0,0,0-5.49,6,5.77,5.77,0,0,0,5.49,6h79.31Z" transform="translate(-22 -23)"/>
  <path d="M220.93,249H141.62a5.68,5.68,0,0,0-5.49,6,5.77,5.77,0,0,0,5.49,6h79.31Z" transform="translate(-22 -23)"/>
  <path d="M333,300.19v24.49a9.3,9.3,0,0,1-9.3,9.3H44.12a9.3,9.3,0,0,1-9.3-9.3V45.12a9.31,9.31,0,0,1,9.3-9.3H323.68a9.3,9.3,0,0,1,9.3,9.3v64.56h12v-65A21.78,21.78,0,0,0,323.28,23H43.72A21.78,21.78,0,0,0,22,44.72V324.28A21.78,21.78,0,0,0,43.72,346H323.26A21.82,21.82,0,0,0,345,324.19v-24Z" transform="translate(-22 -23)"/>
</svg>
