<svg id="Layer_1" data-name="Layer 1" xmlns="http://www.w3.org/2000/svg" viewBox="0 0 76.99 76.99">
  <title>icon_link_blk</title>
  <path d="M42.22,83.23A18,18,0,0,1,16.77,57.78L30.91,43.64a18,18,0,0,1,25.45,0c1.66,0,3,2.58,3,4.23a3,3,0,0,1-3,3c-1.65,0-3-1.34-4.22-3a11.9,11.9,0,0,0-17,0L21,62A12,12,0,0,0,38,79L51.41,65.56a3,3,0,1,1,4.3,4.18l-.05.06L42.22,83.23ZM69.09,56.36a18,18,0,0,1-25.45,0,3,3,0,0,1,4.24-4.24h0a11.9,11.9,0,0,0,17,0L79,38A12,12,0,0,0,62,21L48.59,34.44a3,3,0,0,1-4.31-4.18l.06-.06L57.78,16.77A18,18,0,0,1,83.23,42.22L69.09,56.36Z" transform="translate(-11.51 -11.51)"/>
</svg>
