<svg id="Layer_1" data-name="Layer 1" xmlns="http://www.w3.org/2000/svg" viewBox="0 0 78.55 72">
  <title>icon_view_review_blk</title>
  <path d="M12,58.9V70a2,2,0,0,0,1.1,1.8,3.09,3.09,0,0,0,.9.2,1.87,1.87,0,0,0,1.2-.4L32.2,59H39a2,2,0,0,0,0-4H31.5a1.87,1.87,0,0,0-1.2.4L16,66V57a2,2,0,0,0-2-2A10,10,0,0,1,4,45V14A10,10,0,0,1,14,4H62A10,10,0,0,1,72,14V29a2,2,0,0,0,4,0V14A14,14,0,0,0,62,0H14A14,14,0,0,0,0,14H0V45A14.1,14.1,0,0,0,12,58.9Z"/>
  <path d="M77.86,59.09l-10-10a16.33,16.33,0,1,0-4.27,4.27l10,10.05a3,3,0,0,0,4.28-4.28ZM43.41,39.87A10.93,10.93,0,1,1,54.34,50.8,10.93,10.93,0,0,1,43.41,39.87Z"/>
</svg>
