<?xml version="1.0" encoding="utf-8"?>
<!-- Generator: Adobe Illustrator 22.1.0, SVG Export Plug-In . SVG Version: 6.00 Build 0)  -->
<svg version="1.1" id="Layer_1" xmlns="http://www.w3.org/2000/svg" xmlns:xlink="http://www.w3.org/1999/xlink" x="0px" y="0px"
	 viewBox="0 0 62.5 62.5" style="enable-background:new 0 0 62.5 62.5;" xml:space="preserve">
<style type="text/css">
	.st0{fill:#94B3C9;stroke:#94B3C9;stroke-width:3;stroke-miterlimit:10;}
	.st1{fill:#FFFFFF;}
	.st2{fill:#00B393;}
	.st3{fill:#FFFFFF;stroke:#FFFFFF;stroke-width:2;stroke-miterlimit:10;}
</style>
<title>icon_annotation_in_progress_green</title>
<path class="st0" d="M7.2,1.5h48.1C58.4,1.5,61,4,61,7.2v48.1c0,3.1-2.5,5.7-5.7,5.7H7.2c-3.1,0-5.7-2.5-5.7-5.7V7.2
	C1.5,4,4,1.5,7.2,1.5z"/>
<polygon class="st1" points="50.9,40 43.3,31.8 58.4,31.8 "/>
<path class="st2" d="M30.8,54h0.4v-0.3L30.8,54z"/>
<path class="st3" d="M31.3,10.3c-4.9,0-9.7,1.7-13.5,4.9l1.8,2.5c7.7-6.5,19.2-5.5,25.6,2.2c2.8,3.3,4.3,7.4,4.3,11.7h3.1
	C52.5,19.8,43,10.3,31.3,10.3C31.3,10.3,31.3,10.3,31.3,10.3L31.3,10.3z"/>
<polygon class="st1" points="12.1,23.1 19.6,31.3 4.5,31.3 "/>
<path class="st3" d="M31.7,52.8c4.9,0,9.7-1.7,13.5-4.8l-1.8-2.5c-7.7,6.5-19.2,5.5-25.6-2.2c-2.8-3.3-4.3-7.4-4.3-11.7h-3.1
	C10.5,43.2,20,52.8,31.7,52.8L31.7,52.8z"/>
</svg>
