<svg xmlns="http://www.w3.org/2000/svg" width="50" height="50" viewBox="0 0 50 50">
  <metadata><?xpacket begin="﻿" id="W5M0MpCehiHzreSzNTczkc9d"?>
<x:xmpmeta xmlns:x="adobe:ns:meta/" x:xmptk="Adobe XMP Core 5.6-c140 79.160451, 2017/05/06-01:08:21        ">
   <rdf:RDF xmlns:rdf="http://www.w3.org/1999/02/22-rdf-syntax-ns#">
      <rdf:Description rdf:about=""/>
   </rdf:RDF>
</x:xmpmeta>
                                                                                                  
                           
<?xpacket end="w"?></metadata>
<defs>
    <style>
      .cls-1 {
        fill-rule: evenodd;
      }
    </style>
  </defs>
  <path id="_4" data-name="4" fill="#666666" d="M34.375,41H15.625A15.816,15.816,0,0,1,0,25,15.816,15.816,0,0,1,15.625,9h18.75A15.816,15.816,0,0,1,50,25,15.816,15.816,0,0,1,34.375,41Zm0-28.8H15.625A12.653,12.653,0,0,0,3.125,25a12.653,12.653,0,0,0,12.5,12.8h18.75A12.653,12.653,0,0,0,46.875,25,12.653,12.653,0,0,0,34.375,12.2Zm0,22.4A9.6,9.6,0,1,1,43.75,25,9.49,9.49,0,0,1,34.375,34.6Zm0-16a6.4,6.4,0,1,0,6.25,6.4A6.326,6.326,0,0,0,34.375,18.6Z"/>
</svg>
