<?xml version="1.0" encoding="utf-8"?>
<!-- Generator: Adobe Illustrator 23.0.6, SVG Export Plug-In . SVG Version: 6.00 Build 0)  -->
<svg version="1.1" id="robohead_x5F_logo_xA0_Image_1_"
	 xmlns="http://www.w3.org/2000/svg" xmlns:xlink="http://www.w3.org/1999/xlink" x="0px" y="0px" viewBox="0 0 406.7 259.8"
	 style="enable-background:new 0 0 406.7 259.8;" xml:space="preserve">
<style type="text/css">
	.st0{fill:#636466;}
	.st1{fill:url(#SVGID_1_);}
	.st2{fill:url(#SVGID_2_);}
	.st3{fill:url(#SVGID_3_);}
	.st4{fill:url(#SVGID_4_);}
</style>
<g>
	<g>
		<path class="st0" d="M33.8,182.8l-8.5-22.1l-12.7,1.8l-3.5,23.8l-5.7,0.8l8-53.7l20.3-2.9c9.2-1.3,14.9,3.4,13.5,12.7
			c-1.2,7.8-6.6,13.6-13.7,16.1l8.9,22.6L33.8,182.8z M30.4,135.7l-14.1,2l-2.9,19.7l14.1-2c6.2-0.9,11-4.8,12-11.3
			C40.5,137.5,36.6,134.9,30.4,135.7z"/>
		<path class="st0" d="M2.8,187.7l0.1-0.6l8-54.1l20.7-3c5.2-0.7,9.4,0.4,11.8,3.2c2,2.4,2.8,5.8,2.2,10
			c-1.1,7.5-6.2,13.6-13.5,16.3l9,22.7l-7.6,1.1L25,161.2l-12,1.7l-3.5,23.8L2.8,187.7z M11.8,133.9L4,186.6l4.7-0.7l3.5-23.8
			l13.4-1.9l8.5,22.1l5.6-0.8L30.9,159l0.5-0.2c7.3-2.5,12.3-8.3,13.4-15.7c0.6-3.9-0.1-7.1-2-9.2c-2.2-2.6-6.1-3.6-11-2.9
			L11.8,133.9z M12.8,158l3.1-20.7l14.5-2.1c3.7-0.5,6.6,0.2,8.2,2.1c1.4,1.6,1.8,3.9,1.4,6.8c-0.9,6.4-5.6,10.7-12.4,11.7L12.8,158
			z M16.7,138.2l-2.8,18.7l13.5-1.9c6.4-0.9,10.7-5,11.6-10.9c0.4-2.6,0-4.7-1.2-6c-1.4-1.6-4-2.3-7.4-1.8L16.7,138.2z"/>
	</g>
	<g>
		<path class="st0" d="M83.3,170.4c-3.8,3.8-8.4,6.3-13.3,7s-9-0.5-11.8-3.4c-3.9-4-3.2-8.9-1.6-19.5c1.6-10.6,2.3-15.4,7.6-20.8
			c3.8-3.8,8.4-6.3,13.3-7c4.9-0.7,9,0.5,11.8,3.4c3.9,4,3.2,8.9,1.6,19.5C89.3,160.1,88.6,165,83.3,170.4z M84.7,133.8
			c-1.8-1.9-4.7-2.8-7.9-2.4s-6.5,2.2-9,4.8c-3.6,3.7-4.4,7.1-6,17.5c-1.5,10.4-1.7,13.7,0.9,16.5c1.8,1.9,4.7,2.8,7.9,2.4
			c3.2-0.5,6.5-2.2,9-4.8c3.6-3.7,4.4-7.1,6-17.5S87.3,136.6,84.7,133.8z"/>
		<path class="st0" d="M67.3,178.5c-4,0-7.3-1.3-9.8-3.9c-4.2-4.4-3.5-9.7-1.9-20.3c1.6-10.5,2.3-15.8,7.9-21.3
			c4-4,8.8-6.5,13.9-7.2c5.1-0.7,9.6,0.6,12.6,3.7c4.3,4.4,3.5,9.7,1.9,20.3c-1.6,10.5-2.3,15.8-7.9,21.3c-4,4-8.8,6.5-13.9,7.2
			C69.1,178.4,68.2,178.5,67.3,178.5z M80.1,127.5c-0.8,0-1.7,0.1-2.5,0.2c-4.7,0.7-9.1,3-12.8,6.7c-5.1,5.1-5.8,9.9-7.3,20.3
			c-1.5,10.3-2.2,15,1.4,18.7c2.6,2.7,6.4,3.8,11,3.1c4.7-0.7,9.1-3,12.8-6.7c5.1-5.1,5.8-9.9,7.3-20.2c1.5-10.3,2.2-15-1.4-18.7
			C86.5,128.6,83.6,127.5,80.1,127.5z M69,173.7L69,173.7c-2.8,0-5.3-1-7-2.8c-3-3.1-2.7-6.8-1.2-17.3c1.5-10.2,2.4-14.1,6.2-18
			c2.6-2.7,6.1-4.6,9.6-5.1c3.5-0.5,6.8,0.5,8.8,2.6c3,3.1,2.7,6.8,1.2,17.3c-1.5,10.2-2.4,14.1-6.2,18c-2.6,2.7-6.1,4.6-9.6,5.1
			C70.2,173.6,69.6,173.7,69,173.7z M78.4,132.3c-0.5,0-1,0-1.5,0.1c-3,0.4-6.1,2.1-8.5,4.5c-3.3,3.4-4.2,6.5-5.7,17
			c-1.5,10.4-1.6,13.3,0.7,15.7c1.3,1.4,3.3,2.2,5.6,2.2l0,0c0.5,0,1,0,1.5-0.1c3-0.4,6.1-2.1,8.5-4.5c3.3-3.4,4.2-6.5,5.7-17
			c1.5-10.3,1.6-13.3-0.7-15.7C82.7,133.1,80.7,132.3,78.4,132.3z"/>
	</g>
	<g>
		<path class="st0" d="M124.5,169.1l-19.1,2.7l7.4-49.8l18.5-2.6c8.5-1.2,13.7,2.9,12.5,11.2c-0.8,5.2-4.5,9.8-8.9,11.9
			c4.4,1.1,7.1,4.7,6.2,10.7C139.8,162.3,133.2,167.9,124.5,169.1z M127.5,146.2l-13.4,1.9l-2.7,18.2l13.4-1.9
			c6.1-0.9,10.4-5,11.2-10.6C136.8,148.3,133.5,145.3,127.5,146.2z M130.2,124.2l-12.8,1.8l-2.6,17.3l12.8-1.8
			c5.4-0.8,10.1-4.1,10.9-10C139.4,125.5,135.6,123.5,130.2,124.2z"/>
		<path class="st0" d="M104.3,173l7.7-51.7l19.2-2.7c5.1-0.7,9.2,0.4,11.5,3.1c1.9,2.2,2.6,5.4,2,9.2c-0.7,4.6-3.6,9-7.5,11.6
			c3.9,1.8,5.7,5.8,4.9,11c-1.3,9.1-7.9,15.3-17.5,16.7L104.3,173z M113.7,122.9l-7.1,47.8l17.8-2.6c8.7-1.2,14.6-6.9,15.9-15.1
			c0.8-5.1-1.3-8.6-5.5-9.6l-2.6-0.6l2.4-1.2c4.4-2.1,7.6-6.5,8.3-11.2c0.5-3.2-0.1-5.9-1.6-7.7c-1.9-2.2-5.4-3.1-9.8-2.5
			L113.7,122.9z M110.2,167.5l3-20.2l14.1-2c3.6-0.5,6.5,0.3,8.1,2.2c1.4,1.6,1.9,3.9,1.5,6.6c-0.9,6-5.6,10.4-12,11.4L110.2,167.5z
			 M114.9,148.9l-2.4,16.3l12.1-1.7c5.6-0.8,9.6-4.5,10.4-9.8c0.3-2.2,0-3.9-1-5.1c-1.2-1.4-3.5-2-6.4-1.5L114.9,148.9z
			 M113.7,144.5l2.9-19.2l13.5-1.9c3.6-0.5,6.5,0.2,8.1,2.1c1.3,1.5,1.7,3.6,1.3,6.2c-0.9,5.9-5.3,9.9-11.7,10.9L113.7,144.5z
			 M118.2,126.9l-2.3,15.3l11.6-1.7c5.6-0.8,9.4-4.3,10.1-9.2c0.3-2.1,0-3.7-0.9-4.7c-1.1-1.3-3-1.6-4.4-1.6c-0.6,0-1.3,0.1-2,0.1
			L118.2,126.9z"/>
	</g>
	<g>
		<path class="st0" d="M185.9,155.7c-3.8,3.8-8.4,6.3-13.3,7c-4.9,0.7-9-0.5-11.8-3.4c-3.9-4-3.2-8.9-1.6-19.5
			c1.6-10.6,2.3-15.4,7.6-20.8c3.8-3.8,8.4-6.3,13.3-7c4.9-0.7,9,0.5,11.8,3.4c3.9,4,3.2,8.9,1.6,19.5
			C192,145.4,191.2,150.3,185.9,155.7z M187.4,119.1c-1.8-1.9-4.7-2.8-7.9-2.4c-3.2,0.5-6.5,2.2-9,4.8c-3.6,3.7-4.4,7.1-6,17.5
			c-1.6,10.4-1.7,13.7,0.9,16.5c1.8,1.9,4.7,2.8,7.9,2.4c3.2-0.5,6.5-2.2,9-4.8c3.6-3.7,4.4-7.1,6-17.5
			C189.9,125.2,190,121.9,187.4,119.1z"/>
		<path class="st0" d="M170,163.8c-4,0-7.3-1.3-9.8-3.9c-4.2-4.4-3.5-9.7-1.9-20.3c1.6-10.5,2.3-15.8,7.9-21.3c4-4,8.8-6.5,13.9-7.2
			c5.1-0.7,9.6,0.6,12.6,3.7c4.2,4.4,3.5,9.7,1.9,20.3c-1.6,10.5-2.3,15.8-7.9,21.3c-4,4-8.8,6.5-13.9,7.2
			C171.8,163.7,170.9,163.8,170,163.8z M182.8,112.8c-0.8,0-1.7,0.1-2.5,0.2c-4.7,0.7-9.1,3-12.8,6.7c-5.1,5.1-5.8,9.9-7.3,20.3
			c-1.5,10.3-2.2,15,1.4,18.7c2.6,2.7,6.4,3.8,11,3.1c4.7-0.7,9.1-3,12.8-6.7c5.1-5.1,5.8-9.9,7.3-20.3c1.5-10.3,2.2-15-1.4-18.7
			C189.1,113.9,186.3,112.8,182.8,112.8z M171.7,159L171.7,159c-2.8,0-5.3-1-7-2.8c-3-3.1-2.7-6.8-1.2-17.3
			c1.5-10.2,2.4-14.1,6.2-18c2.6-2.7,6.1-4.6,9.6-5.1c3.5-0.5,6.8,0.5,8.8,2.6c3,3.1,2.7,6.8,1.2,17.3c-1.5,10.2-2.4,14.1-6.2,18
			c-2.6,2.7-6.1,4.6-9.6,5.1C172.9,158.9,172.2,159,171.7,159z M181.1,117.6c-0.5,0-1,0-1.5,0.1c-3,0.4-6.1,2.1-8.5,4.5
			c-3.3,3.4-4.2,6.5-5.7,17c-1.5,10.3-1.6,13.3,0.7,15.7c1.3,1.4,3.3,2.2,5.6,2.2l0,0c0.5,0,1,0,1.5-0.1c3-0.4,6.1-2.1,8.5-4.5
			c3.3-3.4,4.2-6.5,5.7-17c1.5-10.4,1.6-13.3-0.7-15.7C185.4,118.4,183.4,117.6,181.1,117.6z"/>
	</g>
	<g>
		<path class="st0" d="M239.5,154.1l3.6-24.5l-25.1,3.6l-3.6,24.5l-5.7,0.8l8.2-55.1l5.7-0.8l-3.8,25.4l25.1-3.6l3.8-25.4l5.7-0.8
			l-8.2,55.1L239.5,154.1z"/>
		<path class="st0" d="M208.1,159.1l8.4-56.1l6.6-1l-3.8,25.4l24.2-3.5l3.8-25.4l6.6-1l-8.4,56.1l-6.6,0.9l3.6-24.5l-24.2,3.5
			l-3.6,24.5L208.1,159.1z M217.3,103.8l-8.1,54.1l4.7-0.7l3.6-24.5l26.1-3.7l-3.6,24.5l4.7-0.7l8.1-54.1l-4.7,0.7l-3.8,25.4
			l-26.1,3.7l3.8-25.4L217.3,103.8z"/>
	</g>
	<g>
		<path class="st0" d="M262.5,149.8l7.4-49.8l30.5-4.4l-0.7,4.8l-25.2,3.6l-2.6,17.5l21.5-3.1l-0.7,4.8l-21.5,3.1l-2.7,18l25.2-3.6
			l-0.7,4.8L262.5,149.8z"/>
		<path class="st0" d="M261.3,150.9l7.7-51.7l32.4-4.6l-1,6.7l-25.2,3.6l-2.3,15.6l21.5-3.1l-1,6.7l-21.5,3.1l-2.4,16l25.2-3.6
			l-1,6.7L261.3,150.9z M270.7,100.8l-7.1,47.8l28.5-4.1l0.4-2.8l-25.2,3.6l3-19.9l21.5-3.1l0.4-2.8l-21.5,3.1l2.9-19.5l25.2-3.6
			l0.4-2.8L270.7,100.8z"/>
	</g>
	<g>
		<path class="st0" d="M342.4,138.7l-2.3-10.7l-21.4,3.1l-5.6,11.8l-5.6,0.8L333,91.3l4.4-0.6l10.6,47.2L342.4,138.7z M334.1,98.6
			L321,126.2l18.3-2.6L334.1,98.6z"/>
		<path class="st0" d="M305.9,144.9l26.5-54.4l5.8-0.8l11,49.1l-7.5,1.1l-2.3-10.7l-20,2.9l-5.6,11.8L305.9,144.9z M333.6,92.2
			l-24.5,50.3l3.3-0.5l5.6-11.8l22.8-3.3l2.3,10.7l3.7-0.5l-10.2-45.3L333.6,92.2z M319.3,127.4l15.1-31.8l6,28.8L319.3,127.4z
			 M333.8,101.6L322.6,125l15.6-2.2L333.8,101.6z"/>
	</g>
	<g>
		<path class="st0" d="M393.4,126.9c-3.4,3.4-8,5.7-13.1,6.4l-16.8,2.4l7.4-49.8l16.8-2.4c5.1-0.7,9.2,0.3,11.7,2.8
			c4.3,4.4,2.9,12.1,1.9,19C400.3,112.3,399.3,121,393.4,126.9z M395.2,90.6c-2.2-2.3-5.3-2.8-9.1-2.3l-10.7,1.5l-6,40.3l10.7-1.5
			c3.8-0.5,7.2-2,10.2-5c3.9-4,4.9-11.4,5.8-17.5C397,100,398.1,93.7,395.2,90.6z"/>
		<path class="st0" d="M362.4,136.8l7.7-51.7l17.5-2.5c5.4-0.8,9.8,0.3,12.5,3.1c4.4,4.6,3.3,12.1,2.3,18.8l-0.3,2
			c-1,6.8-2.2,15.2-8,21c-3.6,3.6-8.3,5.9-13.6,6.7L362.4,136.8z M371.7,86.7l-7.1,47.8l15.5-2.2c4.9-0.7,9.3-2.8,12.5-6.1
			c5.4-5.4,6.6-13.5,7.5-20l0.3-2c1-6.5,2-13.3-1.8-17.2c-2.3-2.3-6.1-3.2-10.9-2.6L371.7,86.7z M368.3,131.3l6.3-42.2l11.4-1.6
			c4.5-0.6,7.7,0.2,9.9,2.5c3.1,3.3,2.1,9.5,1.2,15.6l-0.2,1.4c-0.9,6.2-2,13.2-5.9,17.3c-2.9,2.9-6.4,4.7-10.7,5.3L368.3,131.3z
			 M376.3,90.7l-5.7,38.3l9.4-1.3c3.9-0.6,7.1-2.1,9.6-4.7c3.5-3.7,4.5-10.4,5.4-16.3l0.2-1.4c0.8-5.6,1.7-11.4-0.7-14
			c-1.8-1.9-4.4-2.5-8.3-2L376.3,90.7z"/>
	</g>
</g>
<linearGradient id="SVGID_1_" gradientUnits="userSpaceOnUse" x1="84.3619" y1="64.3726" x2="298.0714" y2="64.3726">
	<stop  offset="0" style="stop-color:#E37B3D;stop-opacity:0"/>
	<stop  offset="0.9836" style="stop-color:#E37B3D"/>
</linearGradient>
<path class="st1" d="M92,113.3c-0.5,0-1-0.1-1.5-0.2c-4.1-0.9-6.8-4.9-5.9-9c0.6-2.9,15.2-70.5,92.3-86.1
	c77.1-15.6,119.5,46,120,46.6c2.4,3.5,1.4,8.2-2.1,10.6c-3.5,2.3-8.2,1.4-10.6-2.1C282.6,71,246.8,19.4,179.9,33
	c-67,13.6-79.9,71.7-80.4,74.2C98.7,110.8,95.5,113.3,92,113.3z"/>
<linearGradient id="SVGID_2_" gradientUnits="userSpaceOnUse" x1="162.9915" y1="131.3359" x2="216.419" y2="218.1556" gradientTransform="matrix(1 0 0 -1 0 262)">
	<stop  offset="0" style="stop-color:#797979;stop-opacity:0"/>
	<stop  offset="1" style="stop-color:#797979"/>
</linearGradient>
<path class="st2" d="M117.4,130.6c-0.1,0-0.2,0-0.3,0c-3.1-0.1-5.6-2.7-5.5-5.9c0.1-2.2,2.4-53.7,56.9-74.8
	c54.5-21.1,93.2,18.9,93.6,19.3c2.2,2.3,2.1,5.9-0.2,8c-2.3,2.2-5.9,2.1-8-0.2c-1.4-1.5-34.1-34.8-81.3-16.5
	c-47.3,18.3-49.5,62.7-49.6,64.6C122.8,128.2,120.4,130.6,117.4,130.6z"/>
<linearGradient id="SVGID_3_" gradientUnits="userSpaceOnUse" x1="255.1575" y1="137.6239" x2="212.5417" y2="80.3804" gradientTransform="matrix(1 0 0 -1 0 262)">
	<stop  offset="0" style="stop-color:#797979;stop-opacity:0"/>
	<stop  offset="1" style="stop-color:#797979"/>
</linearGradient>
<path class="st3" d="M308.1,151.8c0.5,0,1,0,1.5,0.1c4.1,0.8,6.8,4.8,6,8.9c-0.6,2.9-14.4,70.6-91.3,87.1
	c-76.9,16.5-120-44.6-120.5-45.3c-2.4-3.5-1.5-8.2,2-10.6c3.5-2.4,8.2-1.5,10.6,1.9c1.5,2.2,38,53.3,104.7,39
	c66.8-14.3,79-72.6,79.5-75.1C301.4,154.3,304.5,151.8,308.1,151.8z"/>
<linearGradient id="SVGID_4_" gradientUnits="userSpaceOnUse" x1="237.5467" y1="126.807" x2="208.2895" y2="77.8332" gradientTransform="matrix(1 0 0 -1 0 262)">
	<stop  offset="0" style="stop-color:#E37B3D;stop-opacity:0"/>
	<stop  offset="0.9848" style="stop-color:#E37B3D"/>
</linearGradient>
<path class="st4" d="M283,135.2c0.1,0,0.2,0,0.3,0c3.1,0.1,5.6,2.7,5.5,5.8c0,2.2-1.8,53.7-56,75.5c-54.2,21.7-93.4-17.8-93.8-18.2
	c-2.2-2.3-2.1-5.9,0.1-8c2.2-2.2,5.8-2.1,8,0.1c1.4,1.5,34.5,34.5,81.5,15.6c47.1-18.9,48.8-63.3,48.9-65.2
	C277.6,137.7,280,135.3,283,135.2z"/>
</svg>
