<!-- Generated by IcoMoon.io -->
<svg version="1.1" xmlns="http://www.w3.org/2000/svg" width="32" height="32" viewBox="0 0 32 32">
<title>sort_up_down_grey</title>
<path fill="#a5a5a5" d="M6.269 8.606v0c0.006-0 0.014-0 0.021-0 0.766 0 1.388 0.613 1.404 1.375l0 0.001v7.952c-0.001 0.011-0.002 0.023-0.002 0.035 0 0.090 0.035 0.172 0.091 0.234l-0-0c0.089 0.089 0.344 0.175 0.444 0v0l1.958-1.958c0.254-0.277 0.618-0.449 1.022-0.449 0.766 0 1.387 0.621 1.387 1.387 0 0.362-0.139 0.692-0.366 0.939l0.001-0.001-4.979 4.979c-0.252 0.248-0.598 0.4-0.979 0.4s-0.727-0.153-0.979-0.401l-4.893-4.889c-0.248-0.252-0.4-0.598-0.4-0.979s0.153-0.727 0.401-0.979l-0 0c0.252-0.248 0.598-0.4 0.979-0.4s0.727 0.153 0.979 0.401l1.958 1.958c0.061 0.056 0.143 0.091 0.233 0.091 0.011 0 0.022-0.001 0.033-0.002l-0.001 0c0.189-0.011 0.341-0.157 0.361-0.342l0-0.002v-7.914c-0.005-0.042-0.007-0.090-0.007-0.138 0-0.661 0.499-1.206 1.141-1.279l0.006-0.001c0.029-0.002 0.064-0.004 0.098-0.004s0.069 0.001 0.103 0.004l-0.004-0z"></path>
<path fill="#a5a5a5" d="M25.634 23.505v0c-0.005 0-0.011 0-0.018 0-0.766 0-1.39-0.613-1.407-1.375l-0-0.002v-7.952c0.001-0.010 0.001-0.021 0.001-0.032 0-0.090-0.035-0.172-0.091-0.233l0 0c-0.089-0.089-0.344-0.179-0.444 0v0l-1.958 1.954c-0.254 0.277-0.618 0.45-1.022 0.45-0.765 0-1.386-0.62-1.386-1.386 0-0.361 0.138-0.69 0.365-0.937l-0.001 0.001 0.089-0.089 4.889-4.896c0.252-0.248 0.598-0.4 0.979-0.4s0.727 0.153 0.979 0.401l-0-0 4.893 4.9c0.247 0.251 0.4 0.596 0.4 0.977s-0.153 0.726-0.4 0.977l0-0c-0.25 0.252-0.596 0.409-0.979 0.409s-0.729-0.156-0.979-0.409l-0-0-1.958-1.954c-0.057-0.057-0.136-0.092-0.223-0.092-0.015 0-0.029 0.001-0.043 0.003l0.002-0c-0.182 0.018-0.326 0.162-0.344 0.342l-0 0.002v7.914c0.005 0.042 0.007 0.090 0.007 0.138 0 0.661-0.499 1.206-1.14 1.279l-0.006 0.001c-0.029 0.002-0.064 0.004-0.098 0.004s-0.069-0.001-0.102-0.004l0.004 0z"></path>
</svg>
