<?xml version="1.0" encoding="UTF-8"?>
<svg width="12px" height="12px" viewBox="0 0 12 12" version="1.1" xmlns="http://www.w3.org/2000/svg" xmlns:xlink="http://www.w3.org/1999/xlink">
    <!-- Generator: Sketch 63.1 (92452) - https://sketch.com -->
    <title>tip-icon</title>
    <desc>Created with Sketch.</desc>
    <g id="tip-icon" stroke="none" stroke-width="1" fill="none" fill-rule="evenodd">
        <path d="M6.88,11.2 C7.07329966,11.2 7.23,11.3567003 7.23,11.55 C7.23,11.7432997 7.07329966,11.9 6.88,11.9 L5.08,11.9 C4.88670034,11.9 4.73,11.7432997 4.73,11.55 C4.73,11.3567003 4.88670034,11.2 5.08,11.2 L6.88,11.2 Z M5.98616641,2 C7.92606646,2 9.7,3.8117749 9.7,5.8 C9.7,7.13226972 8.98957767,8.29551062 7.94,8.91804978 L7.94,10 C7.94,10.3313708 7.68331667,10.6 7.36,10.6 L4.61,10.6 C4.28668333,10.6 4.03,10.3313708 4.03,10 L4.03,8.91839777 C2.9800987,8.29594417 2.27,7.13 2.27,5.8 C2.27,3.811775 4.04626637,2 5.98616641,2 Z M5.98616641,2.8 C4.36958304,2.8 3.05908329,4.14314575 3.05908329,5.8 C3.05908329,6.88376455 3.62400994,7.86600798 4.52306905,8.39903197 C4.70396417,8.50627902 4.81536078,8.70422493 4.81535622,8.91841088 L4.81533316,10 L7.15699966,10 L7.15756352,8.91772935 C7.15767504,8.70370399 7.26901338,8.50594449 7.4497527,8.39874203 C8.34853954,7.86564189 8.91324954,6.88355846 8.91324954,5.8 C8.91324954,4.14314575 7.60274978,2.8 5.98616641,2.8 Z M11.2384953,7.15873287 L11.7256803,7.2712084 C11.9140257,7.31469136 12.0314599,7.50262538 11.9879769,7.69097079 C11.944494,7.87931619 11.75656,7.9967504 11.5682146,7.95326744 L11.0810295,7.84079191 C10.8926841,7.79730895 10.7752499,7.60937493 10.8187329,7.42102952 C10.8622158,7.23268412 11.0501499,7.11524991 11.2384953,7.15873287 Z M1.18797695,7.42102952 C1.23145991,7.60937493 1.1140257,7.79730895 0.925680293,7.84079191 L0.438495261,7.95326744 C0.250149856,7.9967504 0.0622158319,7.87931619 0.018732869,7.69097079 C-0.0247500939,7.50262538 0.0926841181,7.31469136 0.281029523,7.2712084 L0.768214555,7.15873287 C0.95655996,7.11524991 1.14449398,7.23268412 1.18797695,7.42102952 Z M6.83229018,3.5006058 L6.9,3.51297163 C7.49118437,3.6965785 7.96781884,4.14719744 8.2,4.73268841 C8.26086849,4.88618042 8.17035176,5.06118315 8.02059047,5.12356794 C7.87082918,5.18595274 7.66086849,5.11209574 7.6,4.95860373 C7.43422745,4.54057527 7.12965222,4.25098578 6.70789923,4.12 C6.55318807,4.07195064 6.46577485,3.87164342 6.51265635,3.71307823 C6.55953784,3.55451304 6.74528884,3.46492227 6.9,3.51297163 Z M10.7928373,2.37200109 C10.9144847,2.52222314 10.8913204,2.74261689 10.7410983,2.86426431 L10.3525254,3.17892451 C10.2023033,3.30057192 9.98190956,3.27740761 9.86026214,3.12718556 C9.73861472,2.9769635 9.76177903,2.75656975 9.91200109,2.63492233 L10.3005741,2.32026214 C10.4507961,2.19861472 10.6711899,2.22177903 10.7928373,2.37200109 Z M1.71252536,2.32026214 L2.10109834,2.63492233 C2.25132039,2.75656975 2.27448471,2.9769635 2.15283729,3.12718556 C2.03118987,3.27740761 1.81079612,3.30057192 1.66057407,3.17892451 L1.27200109,2.86426431 C1.12177903,2.74261689 1.09861472,2.52222314 1.22026214,2.37200109 C1.34190956,2.22177903 1.56230331,2.19861472 1.71252536,2.32026214 Z M6.01,1.11022302e-16 C6.20329966,7.55137305e-17 6.36,0.156700338 6.36,0.35 L6.36,0.85 C6.36,1.04329966 6.20329966,1.2 6.01,1.2 C5.81670034,1.2 5.66,1.04329966 5.66,0.85 L5.66,0.35 C5.66,0.156700338 5.81670034,1.46530874e-16 6.01,1.11022302e-16 Z" fill="#8E8E8E" fill-rule="nonzero"></path>
    </g>
</svg>