<svg xmlns="http://www.w3.org/2000/svg" id="Group_68" width="49.18" height="25.948" data-name="Group 68" viewBox="0 0 49.18 25.948">
    <defs>
        <style>
            .cls-1{fill:#26282f}.cls-2{fill:#e87d6f}
        </style>
    </defs>
    <g id="Group_1" data-name="Group 1">
        <path id="Path_1" d="M67.48 45.833h-.473c-.095 0-.126-.032-.126-.126v-2.494A5.373 5.373 0 0 0 62.84 38a4.986 4.986 0 0 0-1.357-.158H24.266a5.36 5.36 0 0 0-5.3 4.514 4.023 4.023 0 0 0-.063.884v12.41a5.392 5.392 0 0 0 4.514 5.335 4.318 4.318 0 0 0 .915.063h12.182c.158 0 .189.032.189.189v.41H23.824a2.71 2.71 0 0 0-.537-.095 5.985 5.985 0 0 1-4.861-4.735 4.9 4.9 0 0 0-.126-.663V42.739a3.947 3.947 0 0 0 .095-.6 5.992 5.992 0 0 1 5.9-4.893h2.494a.238.238 0 0 0 .221-.126 2.782 2.782 0 0 1 1.7-1.326 1.927 1.927 0 0 0 .41-.095h6.38c.032 0 .032.032.063.032a2.63 2.63 0 0 1 2.083 1.42c.063.095.095.095.189.095h10.832a.173.173 0 0 0 .189-.126 2.747 2.747 0 0 1 1.61-1.294A3.3 3.3 0 0 1 51 35.7h6.345l.032.032a2.768 2.768 0 0 1 2.115 1.452.174.174 0 0 0 .158.095h1.736a5.714 5.714 0 0 1 1.263.126 6.018 6.018 0 0 1 4.672 4.672c.032.253.095.505.126.758.033.946.033 1.988.033 2.998zm-17.961-8.586h9.344c-.032-.032-.063-.063-.063-.095a2.229 2.229 0 0 0-1.768-.852H51.35a3.11 3.11 0 0 0-.537.063 2.153 2.153 0 0 0-1.294.884zm-12.532 0v-.032c-.032-.032-.032-.063-.063-.063a2.263 2.263 0 0 0-1.736-.852h-5.745a2.123 2.123 0 0 0-1.736.852c-.032.032-.063.063-.032.095z" class="cls-1" data-name="Path 1" transform="translate(-18.3 -35.7)"/>
        <path id="Path_2" d="M99 93.369v-.505q0-.142.095-.095h17.582a5.375 5.375 0 0 0 5.272-4.167 5.437 5.437 0 0 0 .126-1.231v-5.113c0-.126.032-.158.158-.158h.442v5.745a5.355 5.355 0 0 1-.126.694 6.018 6.018 0 0 1-4.672 4.672 5.825 5.825 0 0 0-.726.126c-6.03.032-12.09.032-18.151.032z" class="cls-1" data-name="Path 2" transform="translate(-73.526 -67.453)"/>
        <path id="Path_3" d="M73.731 67.911H59.589c-.158 0-.189-.032-.189-.189v-.316c0-.095.032-.095.095-.095h28.062a5.349 5.349 0 0 0 5.272-4.167 5.166 5.166 0 0 0 .126-1.2v-7.291a5.392 5.392 0 0 0-4.514-5.335 4.938 4.938 0 0 0-.979-.063H74.678c-.158 0-.189-.032-.189-.189 0-.126-.032-.316.032-.379.095-.095.253-.032.41-.032h12.595a5.923 5.923 0 0 1 5.871 4.7 5.167 5.167 0 0 1 .126 1.2v7.45a5.947 5.947 0 0 1-4.893 5.808 6.528 6.528 0 0 1-1.1.095z" class="cls-2" data-name="Path 3" transform="translate(-46.426 -44.552)"/>
        <path id="Path_4" d="M121.3 62.1a5.382 5.382 0 1 1-5.4 5.366 5.389 5.389 0 0 1 5.4-5.366zm4.767 5.4a4.8 4.8 0 1 0-4.8 4.767 4.8 4.8 0 0 0 4.797-4.767z" class="cls-2" data-name="Path 4" transform="translate(-85.091 -53.766)"/>
        <path id="Path_5" d="M50.1 62.1a5.382 5.382 0 1 1-5.4 5.366 5.389 5.389 0 0 1 5.4-5.366zm0 10.164a4.782 4.782 0 1 0-4.8-4.764 4.8 4.8 0 0 0 4.8 4.764z" class="cls-1" data-name="Path 5" transform="translate(-36.366 -53.766)"/>
        <path id="Path_6" d="M37.684 48.7h7.166c.126 0 .158.032.158.158-.032.158.063.347-.032.442-.095.063-.284.032-.41.032H30.9a5.375 5.375 0 0 0-5.274 4.168 8.508 8.508 0 0 0-.126.884c0 .095-.032.126-.126.095h-.347c-.095 0-.126-.032-.126-.126a5.977 5.977 0 0 1 4.8-5.524 8.141 8.141 0 0 1 1.231-.126z" class="cls-1" data-name="Path 6" transform="translate(-22.817 -44.596)"/>
        <path id="Path_7" d="M24.8 87.087v-.979c0-.095.032-.158.126-.126h.347c.095 0 .126.032.126.126V87.5a5.375 5.375 0 0 0 4.04 5.24 5.215 5.215 0 0 0 1.7.158c.126 0 .158.032.158.158v.379a.084.084 0 0 1-.095.095 6 6 0 0 1-6.313-4.893 9.388 9.388 0 0 1-.089-1.55z" class="cls-1" data-name="Path 7" transform="translate(-22.748 -70.104)"/>
        <path id="Path_8" d="M126.566 66.022a4.486 4.486 0 0 1 2.147.253 4.166 4.166 0 0 1-1.01 7.986 4.069 4.069 0 0 1-3.157-.884c-.095-.063-.095-.126 0-.158s.189-.126.284-.158a.192.192 0 0 1 .253 0 3.567 3.567 0 1 0 2.683-6.44 7.183 7.183 0 0 0-.821-.063c-.095 0-.158-.032-.158-.095-.031-.125-.158-.252-.221-.441z" class="cls-1" data-name="Path 8" transform="translate(-90.959 -56.426)"/>
        <path id="Path_9" d="M120.791 70.6a3 3 0 0 1 .316.537c.032.032-.032.063-.032.095a3.444 3.444 0 0 0-.505 3.125c.032.158-.095.158-.158.221s-.189.063-.253.158c-.063.063-.126 0-.126-.095a4.179 4.179 0 0 1 .095-2.9 4.121 4.121 0 0 1 .663-1.141z" class="cls-1" data-name="Path 9" transform="translate(-87.773 -59.583)"/>
        <path id="Path_10" d="M48.6 70.282a4.216 4.216 0 0 1 3.6-4.261 4.151 4.151 0 0 1 4.451 2.652c.063.158.063.158-.126.158a2.062 2.062 0 0 1-.442 0c-.126-.063-.126-.221-.221-.347a3.561 3.561 0 0 0-6.629 1.01 3.516 3.516 0 0 0 1.8 3.82.211.211 0 0 1 .126.221v.379c0 .126-.032.126-.126.095a4.186 4.186 0 0 1-2.052-2.052 4.5 4.5 0 0 1-.381-1.675z" class="cls-1" data-name="Path 10" transform="translate(-39.035 -56.425)"/>
        <path id="Path_11" d="M66.1 84.757v-.537c0-.095.063-.095.126-.126a3.6 3.6 0 0 0 1.957-2.273c.063-.221.063-.221.316-.221h.126c.221 0 .253 0 .189.221a4.156 4.156 0 0 1-2.557 2.9c-.062.004-.094.036-.157.036z" class="cls-1" data-name="Path 11" transform="translate(-51.011 -67.111)"/>
    </g>
</svg>
