<svg xmlns="http://www.w3.org/2000/svg" width="12.032" height="12.015" viewBox="0 0 12.032 12.015">
  <path id="important-icon-sm" d="M6.5,12.524a.241.241,0,0,0,.1.193l1.421,1.007-.731,1.587a.25.25,0,0,0,.014.221.268.268,0,0,0,.193.124l1.739.152.152,1.739a.267.267,0,0,0,.124.193.25.25,0,0,0,.221.014l1.587-.731,1.007,1.421a.223.223,0,0,0,.193.1.241.241,0,0,0,.193-.1l1.007-1.421,1.587.731a.25.25,0,0,0,.221-.014.268.268,0,0,0,.124-.193l.152-1.739,1.739-.152a.267.267,0,0,0,.193-.124.25.25,0,0,0,.014-.221l-.731-1.587,1.421-1.007a.223.223,0,0,0,.1-.193.263.263,0,0,0-.1-.193l-1.421-1.007.731-1.587a.25.25,0,0,0-.014-.221.268.268,0,0,0-.193-.124L15.8,9.24,15.648,7.5a.267.267,0,0,0-.124-.193.25.25,0,0,0-.221-.014l-1.587.731L12.7,6.618a.247.247,0,0,0-.386,0L11.3,8.039,9.715,7.308a.25.25,0,0,0-.221.014.268.268,0,0,0-.124.193L9.218,9.254l-1.739.152a.267.267,0,0,0-.193.124.25.25,0,0,0-.014.221L8,11.337,6.6,12.331a.208.208,0,0,0-.1.193Zm6.512,2.663a.7.7,0,0,1-1.021,0,.75.75,0,0,1-.207-.538.872.872,0,0,1,.207-.538.761.761,0,0,1,1.021,0,.8.8,0,0,1,0,1.076ZM11.785,10.4A.74.74,0,0,1,12.5,9.64a.731.731,0,0,1,.717.759v2.346a.74.74,0,0,1-.717.759.731.731,0,0,1-.717-.759Z" transform="translate(-6.5 -6.525)" fill="#e87d6f"/>
</svg>
