<svg xmlns="http://www.w3.org/2000/svg" width="20" height="19.971" viewBox="0 0 20 19.971">
  <g id="important-icon" transform="translate(0 0)">
    <path id="np_important_258298_000000" d="M6.5,16.5a.4.4,0,0,0,.16.321l2.362,1.674L7.807,21.129a.416.416,0,0,0,.023.367.445.445,0,0,0,.321.206l2.89.253.253,2.89a.444.444,0,0,0,.206.321.416.416,0,0,0,.367.023L14.5,23.973l1.674,2.362a.371.371,0,0,0,.321.16.4.4,0,0,0,.321-.16L18.5,23.973l2.637,1.216a.416.416,0,0,0,.367-.023.445.445,0,0,0,.206-.321l.253-2.89,2.89-.253a.444.444,0,0,0,.321-.206.416.416,0,0,0,.023-.367l-1.216-2.637,2.362-1.674a.371.371,0,0,0,.16-.321.437.437,0,0,0-.16-.321L23.977,14.5l1.216-2.637a.416.416,0,0,0-.023-.367.445.445,0,0,0-.321-.206l-2.89-.253-.253-2.89a.444.444,0,0,0-.206-.321.416.416,0,0,0-.367-.023L18.5,9.019,16.8,6.68a.411.411,0,0,0-.642,0L14.481,9.042,11.843,7.826a.416.416,0,0,0-.367.023.445.445,0,0,0-.206.321l-.253,2.89-2.89.253a.444.444,0,0,0-.321.206.416.416,0,0,0-.023.367L9,14.524,6.66,16.175a.345.345,0,0,0-.16.321Zm10.825,4.427a1.163,1.163,0,0,1-1.7,0,1.246,1.246,0,0,1-.344-.894,1.45,1.45,0,0,1,.344-.894,1.265,1.265,0,0,1,1.7,0,1.334,1.334,0,0,1,0,1.788Zm-2.041-7.958A1.23,1.23,0,0,1,16.477,11.7a1.215,1.215,0,0,1,1.192,1.261v3.9a1.23,1.23,0,0,1-1.192,1.261,1.215,1.215,0,0,1-1.192-1.261Z" transform="translate(-6.5 -6.525)" fill="#e87d6f"/>
  </g>
</svg>
