<svg xmlns="http://www.w3.org/2000/svg" width="16.324" height="13.262" viewBox="0 0 16.324 13.262">
    <defs>
        <style>
            .cls-1{fill:#707070}
        </style>
    </defs>
    <g id="np_logout_3079449_000000" transform="translate(-16.654 -22.916)">
        <path id="Path_40" d="M23.288 36.178a6.629 6.629 0 0 0 5.468-2.884.51.51 0 1 0-.842-.576 5.611 5.611 0 1 1 0-6.341.51.51 0 0 0 .842-.576 6.631 6.631 0 1 0-5.468 10.377z" class="cls-1" data-name="Path 40"/>
        <path id="Path_41" d="M47.292 38.581a.508.508 0 0 0-.314.472v1.786h-7.4v1.02h7.4v1.786a.509.509 0 0 0 .869.36l2.3-2.3a.51.51 0 0 0 0-.719l-2.3-2.3a.51.51 0 0 0-.556-.112z" class="cls-1" data-name="Path 41" transform="translate(-17.314 -11.8)"/>
    </g>
</svg>
