<svg xmlns="http://www.w3.org/2000/svg" width="12.41" height="14" viewBox="0 0 12.41 14">
  <path id="reset-icon" d="M16.256,2.5h-4.3A4.06,4.06,0,0,0,7.9,6.552v3.537a.589.589,0,0,0,1.179,0V6.552a2.861,2.861,0,0,1,2.859-2.859h4.289a2.868,2.868,0,0,1,2.889,2.859V9.647a2.861,2.861,0,0,1-2.859,2.859h-5.32l1.784-1.784a.594.594,0,1,0-.84-.84l-2.8,2.8a.587.587,0,0,0,0,.84l2.8,2.8a.59.59,0,0,0,.427.177.613.613,0,0,0,.427-.177.587.587,0,0,0,0-.84l-1.8-1.783h5.32a4.051,4.051,0,0,0,4.053-4.053V6.552A4.06,4.06,0,0,0,16.256,2.5Z" transform="translate(-7.899 -2.499)" fill="#505050"/>
</svg>
