<svg id="selectartboard-graphic" xmlns="http://www.w3.org/2000/svg" width="185" height="163" viewBox="0 0 185 163">
  <rect id="Rectangle_26" data-name="Rectangle 26" width="185" height="163" rx="10" fill="rgba(80,80,80,0.05)"/>
  <g id="Group_13" data-name="Group 13" transform="translate(12.015 12.015)">
    <g id="Rectangle_16" data-name="Rectangle 16" transform="translate(4.985 4.985)" fill="#fff" stroke="#3496ef" stroke-width="1">
      <rect width="151" height="129" stroke="none"/>
      <rect x="0.5" y="0.5" width="150" height="128" fill="none"/>
    </g>
    <g id="BR" transform="translate(150.985 128.985)" fill="#fff" stroke="#3496ef" stroke-width="1">
      <circle cx="5" cy="5" r="5" stroke="none"/>
      <circle cx="5" cy="5" r="4.5" fill="none"/>
    </g>
    <g id="BM" transform="translate(75.985 128.985)" fill="#fff" stroke="#3496ef" stroke-width="1">
      <circle cx="5" cy="5" r="5" stroke="none"/>
      <circle cx="5" cy="5" r="4.5" fill="none"/>
    </g>
    <g id="BL" transform="translate(-0.015 128.985)" fill="#fff" stroke="#3496ef" stroke-width="1">
      <circle cx="5" cy="5" r="5" stroke="none"/>
      <circle cx="5" cy="5" r="4.5" fill="none"/>
    </g>
    <g id="MR" transform="translate(150.985 64.985)" fill="#fff" stroke="#3496ef" stroke-width="1">
      <ellipse cx="5" cy="5.5" rx="5" ry="5.5" stroke="none"/>
      <ellipse cx="5" cy="5.5" rx="4.5" ry="5" fill="none"/>
    </g>
    <g id="ML" transform="translate(-0.015 64.985)" fill="#fff" stroke="#3496ef" stroke-width="1">
      <ellipse cx="5" cy="5.5" rx="5" ry="5.5" stroke="none"/>
      <ellipse cx="5" cy="5.5" rx="4.5" ry="5" fill="none"/>
    </g>
    <g id="TR" transform="translate(150.985 -0.015)" fill="#fff" stroke="#3496ef" stroke-width="1">
      <circle cx="5" cy="5" r="5" stroke="none"/>
      <circle cx="5" cy="5" r="4.5" fill="none"/>
    </g>
    <g id="TM" transform="translate(75.985 -0.015)" fill="#fff" stroke="#3496ef" stroke-width="1">
      <circle cx="5" cy="5" r="5" stroke="none"/>
      <circle cx="5" cy="5" r="4.5" fill="none"/>
    </g>
    <g id="TL" transform="translate(-0.015 -0.015)" fill="#fff" stroke="#3496ef" stroke-width="1">
      <circle cx="5" cy="5" r="5" stroke="none"/>
      <circle cx="5" cy="5" r="4.5" fill="none"/>
    </g>
    <g id="TR-2" data-name="TR" transform="translate(10.299 10.299)">
      <g id="Ellipse_9" data-name="Ellipse 9" transform="translate(-0.314 -0.314)" fill="#fff" stroke="#3496ef" stroke-width="0.5">
        <circle cx="4.5" cy="4.5" r="4.5" stroke="none"/>
        <circle cx="4.5" cy="4.5" r="4.25" fill="none"/>
      </g>
      <g id="Ellipse_10" data-name="Ellipse 10" transform="translate(3.686 3.686)" fill="#fff" stroke="#3496ef" stroke-width="1">
        <circle cx="0.5" cy="0.5" r="0.5" stroke="none"/>
        <circle cx="0.5" cy="0.5" fill="none"/>
      </g>
    </g>
    <g id="TL-2" data-name="TL" transform="translate(142.469 10.299)">
      <g id="Ellipse_9-2" data-name="Ellipse 9" transform="translate(-0.485 -0.314)" fill="#fff" stroke="#3496ef" stroke-width="0.5">
        <circle cx="4.5" cy="4.5" r="4.5" stroke="none"/>
        <circle cx="4.5" cy="4.5" r="4.25" fill="none"/>
      </g>
      <g id="Ellipse_10-2" data-name="Ellipse 10" transform="translate(3.515 3.686)" fill="#fff" stroke="#3496ef" stroke-width="1">
        <ellipse cx="1" cy="0.5" rx="1" ry="0.5" stroke="none"/>
        <ellipse cx="1" cy="0.5" rx="0.5" fill="none"/>
      </g>
    </g>
    <g id="BR-2" data-name="BR" transform="translate(142.469 120.155)">
      <g id="Ellipse_9-3" data-name="Ellipse 9" transform="translate(-0.485 -0.17)" fill="#fff" stroke="#3496ef" stroke-width="0.5">
        <circle cx="4.5" cy="4.5" r="4.5" stroke="none"/>
        <circle cx="4.5" cy="4.5" r="4.25" fill="none"/>
      </g>
      <g id="Ellipse_10-3" data-name="Ellipse 10" transform="translate(3.515 3.83)" fill="#fff" stroke="#3496ef" stroke-width="1">
        <ellipse cx="1" cy="0.5" rx="1" ry="0.5" stroke="none"/>
        <ellipse cx="1" cy="0.5" rx="0.5" fill="none"/>
      </g>
    </g>
    <g id="BL-2" data-name="BL" transform="translate(10.299 120.155)">
      <g id="Ellipse_9-4" data-name="Ellipse 9" transform="translate(-0.314 -0.17)" fill="#fff" stroke="#3496ef" stroke-width="0.5">
        <circle cx="4.5" cy="4.5" r="4.5" stroke="none"/>
        <circle cx="4.5" cy="4.5" r="4.25" fill="none"/>
      </g>
      <g id="Ellipse_10-4" data-name="Ellipse 10" transform="translate(3.686 3.83)" fill="#fff" stroke="#3496ef" stroke-width="1">
        <circle cx="0.5" cy="0.5" r="0.5" stroke="none"/>
        <circle cx="0.5" cy="0.5" fill="none"/>
      </g>
    </g>
  </g>
  <g id="np_arrow_1764843_000000" transform="matrix(-0.259, 0.966, -0.966, -0.259, 133.856, 46.5)">
    <path d="M 0.07203326374292374 14.75611877441406 C -0.1771843880414963 14.75611877441406 -0.3794160187244415 14.60622978210449 -0.460262656211853 14.38385200500488 L -0.4982567429542542 14.33543872833252 L -0.5000067353248596 14.16043853759766 C -0.5000067353248596 14.06195831298828 -0.5000067353248596 13.97690868377686 0.4637732803821564 10.75909900665283 C 1.062953233718872 8.758608818054199 1.804253220558167 6.323738574981689 2.497603178024292 4.078808784484863 C 2.977553367614746 2.527688503265381 3.418943166732788 1.09225857257843 3.550853252410889 0.6632386445999146 L 3.583703279495239 0.5564286112785339 C 3.747627019882202 0.008444741368293762 3.884932994842529 -0.08468525856733322 3.978021860122681 -0.1389642953872681 L 4.092363357543945 -0.2111813873052597 L 4.238343238830566 -0.2115513831377029 C 4.579683303833008 -0.2115513831377029 4.704593181610107 0.07265861332416534 4.779223442077637 0.2424586117267609 C 4.825943470001221 0.3487686216831207 4.88671350479126 0.498098611831665 4.959853172302246 0.6863186359405518 C 5.107653141021729 1.066658616065979 5.292263031005859 1.570298671722412 5.479693412780762 2.104448556900024 C 5.710120677947998 2.761183261871338 5.90526819229126 3.303719997406006 6.044119358062744 3.681734323501587 C 6.355690002441406 3.254571437835693 6.921873569488525 2.461429834365845 7.492853164672852 1.650728583335876 C 7.857363224029541 1.132828593254089 8.20991325378418 0.643108606338501 8.485453605651855 0.2719086110591888 C 8.956472396850586 -0.3626246452331543 9.057039260864258 -0.4981428384780884 9.334766387939453 -0.4999819993972778 L 9.335803031921387 -0.5000013709068298 L 9.340602874755859 -0.5000013709068298 L 9.340763092041016 -0.5000013709068298 C 9.524113655090332 -0.5000013709068298 9.579442977905273 -0.5000013709068298 10.7654333114624 0.3976986110210419 C 11.09340286254883 0.6459586024284363 11.8740930557251 1.243258595466614 12.03943347930908 1.427468657493591 C 12.26403331756592 1.674518585205078 12.30604362487793 1.940058588981628 12.16216373443604 2.214338541030884 C 12.08186340332031 2.367408514022827 11.94970321655273 2.517258644104004 11.63193321228027 2.87147855758667 C 10.42001533508301 4.224223613739014 9.447927474975586 5.312433242797852 8.921740531921387 5.929993629455566 C 9.274155616760254 5.974125862121582 9.747799873352051 6.030117511749268 10.33649349212646 6.09514856338501 C 12.68937492370605 6.351200103759766 12.74898433685303 6.404534816741943 12.88323211669922 6.532289981842041 C 12.99590873718262 6.639118194580078 13.05450057983398 6.794290065765381 13.04032325744629 6.949798583984375 C 13.02126312255859 7.158848762512207 12.94973373413086 7.332368850708008 12.16065311431885 7.820178508758545 C 11.46987342834473 8.246358871459961 0.6690132617950439 14.5691089630127 0.3016632795333862 14.71194839477539 C 0.2237332612276077 14.74166870117188 0.1475232690572739 14.75611877441406 0.07203326374292374 14.75611877441406 Z" stroke="none"/>
    <path d="M 0.07203545421361923 14.25612258911133 C 0.08628817647695541 14.25612258911133 0.1025008484721184 14.25278568267822 0.1204632669687271 14.24593830108643 C 0.3490932583808899 14.15703868865967 10.60233306884766 8.194088935852051 11.89773368835449 7.394888401031494 C 12.28759288787842 7.153878688812256 12.57645320892334 6.928828716278076 12.53922367095947 6.895138740539551 C 12.50198364257812 6.85969877243042 11.4865837097168 6.723258495330811 10.28159332275391 6.592128753662109 C 9.078332901000977 6.459208488464355 8.071793556213379 6.331628799438477 8.04521369934082 6.30504846572876 C 7.972543239593506 6.232378482818604 8.438583374023438 5.686588764190674 11.25975322723389 2.537588596343994 C 11.80023288726807 1.935118675231934 11.8090934753418 1.917388558387756 11.66733360290527 1.761448621749878 C 11.46544456481934 1.53651225566864 9.434963226318359 -2.907714815592044e-06 9.340764045715332 -2.907714815592044e-06 C 9.340712547302246 -2.907714815592044e-06 9.340653419494629 -2.356567392780562e-06 9.340602874755859 -1.384277311444748e-06 C 9.299813270568848 -1.384277311444748e-06 8.651243209838867 0.8735986351966858 7.9016432762146 1.9386385679245 C 7.150313377380371 3.005398511886597 6.397173404693604 4.056258678436279 6.225273132324219 4.275988578796387 L 5.913383483886719 4.674718379974365 L 5.815933227539062 4.481558799743652 C 5.761033058166504 4.375218391418457 5.397743225097656 3.381088733673096 5.007893085479736 2.269998550415039 C 4.622578144073486 1.171861410140991 4.278822898864746 0.2884457111358643 4.238344192504883 0.2884457111358643 C 4.237866878509521 0.2884457111358643 4.237425804138184 0.2885706424713135 4.237033367156982 0.2888186275959015 C 4.203373432159424 0.3082986176013947 4.123623371124268 0.4961286187171936 4.061593055725098 0.7034786343574524 C 3.997803211212158 0.9107885956764221 3.51050329208374 2.496808528900146 2.975333213806152 4.226358413696289 C 1.52224326133728 8.931199073791504 -6.733398549840786e-06 14.01335906982422 -6.733398549840786e-06 14.16043853759766 L 0.001743266591802239 14.16266822814941 C 0.001743266591802239 14.22316455841064 0.02722985111176968 14.25612258911133 0.07203545421361923 14.25612258911133 M 0.07203326374292374 15.25611877441406 C -0.3593683540821075 15.25611877441406 -0.7235817313194275 15.00795936584473 -0.894299328327179 14.64067077636719 L -0.9982567429542542 14.50819873809814 L -1.000006675720215 14.16043853759766 C -1.000006675720215 13.9735689163208 -1.000006675720215 13.90363883972168 -0.01519673317670822 10.61563873291016 C 0.5843632817268372 8.613848686218262 1.326123237609863 6.177478790283203 2.019863367080688 3.931258678436279 C 2.499783277511597 2.380278587341309 2.941053152084351 0.9451985955238342 3.072943210601807 0.5162886381149292 L 3.104803085327148 0.4126642644405365 C 3.264515399932861 -0.119688868522644 3.430052995681763 -0.3882038593292236 3.707659482955933 -0.5596615076065063 L 3.94403338432312 -0.7111814022064209 L 4.238343238830566 -0.7115513682365417 C 4.906093120574951 -0.7115513682365417 5.155133247375488 -0.1449113786220551 5.236963272094727 0.04128861427307129 C 5.286583423614502 0.1541886180639267 5.35015344619751 0.3102786242961884 5.4259033203125 0.5052186250686646 C 5.57563304901123 0.8905286192893982 5.762283325195312 1.399688601493835 5.951493263244629 1.938908576965332 C 6.036755561828613 2.181910037994385 6.117490768432617 2.410089015960693 6.192377090454102 2.620203495025635 C 6.451884746551514 2.257044315338135 6.758455753326416 1.82513165473938 7.084073066711426 1.362808585166931 C 7.450833320617676 0.8417186141014099 7.806003093719482 0.3483586013317108 8.083972930908203 -0.02611138485372066 C 8.222873687744141 -0.2132313847541809 8.336213111877441 -0.3621513843536377 8.420853614807129 -0.4687313735485077 C 8.578642845153809 -0.6674413681030273 8.842733383178711 -1.000001430511475 9.340602874755859 -1.000001430511475 C 9.705543518066406 -1.000001430511475 9.883023262023926 -0.8973013758659363 11.06719303131104 -0.000971384288277477 C 12.19028759002686 0.8491304516792297 12.35655689239502 1.032244086265564 12.41068744659424 1.092544794082642 C 12.9271068572998 1.664111137390137 12.71874237060547 2.229656457901001 12.6049337387085 2.446608543395996 C 12.49248313903809 2.660988569259644 12.31901359558105 2.854348659515381 12.00411319732666 3.205358505249023 C 11.18625545501709 4.118258476257324 10.46091175079346 4.929335117340088 9.918645858764648 5.545107841491699 C 10.06696224212646 5.562039375305176 10.22461700439453 5.579755306243896 10.39139366149902 5.598178386688232 C 10.97991371154785 5.662218570709229 11.54515361785889 5.729838848114014 11.98138332366943 5.788408756256104 C 12.69564819335938 5.884312629699707 12.96418762207031 5.920357704162598 13.22633647918701 6.168586730957031 C 13.22654628753662 6.168785095214844 13.2267951965332 6.169022083282471 13.22700500488281 6.169220447540283 C 13.22703742980957 6.169250965118408 13.22707843780518 6.169289588928223 13.22710990905762 6.169320106506348 C 13.22757053375244 6.169756889343262 13.22802734375 6.170190811157227 13.22848701477051 6.170628547668457 C 13.22851943969727 6.170659065246582 13.22857093811035 6.170708179473877 13.22860336303711 6.170738697052002 C 13.4507360458374 6.382232189178467 13.5662202835083 6.688493728637695 13.53825283050537 6.99518871307373 C 13.49215316772461 7.500908851623535 13.14208316802979 7.801288604736328 12.42356300354004 8.245478630065918 C 11.74806308746338 8.662228584289551 8.766953468322754 10.4068489074707 6.111843109130859 11.9511890411377 C 0.7282432913780212 15.08254814147949 0.5686232447624207 15.14461898803711 0.4828632771968842 15.17795848846436 L 0.4798532724380493 15.17912864685059 L 0.4768232703208923 15.18028831481934 C 0.3448932766914368 15.23060894012451 0.2087032645940781 15.25611877441406 0.07203326374292374 15.25611877441406 Z" stroke="none" fill="#fff"/>
  </g>
</svg>
