<svg width="10" height="6" viewBox="0 0 10 6" fill="none" xmlns="http://www.w3.org/2000/svg">
<path d="M9.79139 0.209679C9.65709 0.0754218 9.47497 0 9.28507 0C9.09518 0 8.91305 0.0754218 8.77876 0.209679L5.11493 3.87136C5.0983 3.88803 5.07854 3.90126 5.05679 3.91029C5.03504 3.91931 5.01172 3.92396 4.98817 3.92396C4.96462 3.92396 4.9413 3.91931 4.91955 3.91029C4.8978 3.90126 4.87804 3.88803 4.86141 3.87136L1.19758 0.209679C1.06148 0.0860969 0.883072 0.0195845 0.699288 0.0239132C0.515504 0.0282418 0.340423 0.10308 0.210294 0.232933C0.0801651 0.362786 0.00495521 0.537708 0.000236231 0.721482C-0.00448274 0.905257 0.0616506 1.08381 0.184944 1.22017L4.22833 5.26427C4.32809 5.3641 4.44654 5.44329 4.57692 5.49731C4.7073 5.55134 4.84704 5.57915 4.98817 5.57915C5.1293 5.57915 5.26904 5.55134 5.39942 5.49731C5.52979 5.44329 5.64824 5.3641 5.748 5.26427L9.79139 1.22017C9.92499 1.08596 10 0.904296 10 0.714924C10 0.525552 9.92499 0.343889 9.79139 0.209679Z" fill="#999999"/>
</svg>
