<svg xmlns="http://www.w3.org/2000/svg" version="1.1" xmlns:xlink="http://www.w3.org/1999/xlink" xmlns:svgjs="http://svgjs.com/svgjs" viewBox="0 0 140 140" width="140" height="140"><g transform="matrix(5.833333333333333,0,0,5.833333333333333,0,0)"><path d="M0.500 5.000 A4.500 4.500 0 1 0 9.500 5.000 A4.500 4.500 0 1 0 0.500 5.000 Z" fill="none" stroke="#000000" stroke-linecap="round" stroke-linejoin="round"></path><path d="M14.500 5.000 A4.500 4.500 0 1 0 23.500 5.000 A4.500 4.500 0 1 0 14.500 5.000 Z" fill="none" stroke="#000000" stroke-linecap="round" stroke-linejoin="round"></path><path d="M0.500 19.000 A4.500 4.500 0 1 0 9.500 19.000 A4.500 4.500 0 1 0 0.500 19.000 Z" fill="none" stroke="#000000" stroke-linecap="round" stroke-linejoin="round"></path><path d="M14.500 19.000 A4.500 4.500 0 1 0 23.500 19.000 A4.500 4.500 0 1 0 14.500 19.000 Z" fill="none" stroke="#000000" stroke-linecap="round" stroke-linejoin="round"></path></g></svg>