<svg width="258" height="50" viewBox="0 0 258 50" fill="none" xmlns="http://www.w3.org/2000/svg">
<path d="M26.6065 0C13.6675 0 3.1315 10.536 3.1315 23.475C3.1315 27.5878 4.19434 31.5157 6.13519 34.9353L0.174011 47.4122C-0.149464 48.1054 -0.0108318 48.9372 0.497486 49.4917C0.867172 49.8614 1.28307 50 1.79139 50C1.88381 50 1.97623 50 2.06865 49.9538C2.25349 49.9076 2.43834 49.9538 2.57697 49.9076L15.1463 43.9464C18.7507 45.9335 22.7248 46.9501 26.6065 46.9501C39.5455 46.9501 50.0816 36.414 50.0816 23.475C50.0816 10.536 39.5455 0 26.6065 0ZM26.6065 43.2532C22.9559 43.2532 19.3515 42.1904 16.2091 40.2495C15.6546 39.9261 15.0539 39.8799 14.4531 40.1571L5.76551 44.3161L9.92447 35.6285C10.1555 35.0739 10.1093 34.3808 9.83205 33.8725C7.84499 30.7301 6.82836 27.1257 6.82836 23.475C6.82836 12.5231 15.7008 3.65065 26.6528 3.65065C37.6047 3.65065 46.4772 12.5231 46.4772 23.475C46.4772 34.427 37.5585 43.2532 26.6065 43.2532Z" fill="#4E4D4D"/>
<path d="M17.5492 17.1904C16.1167 17.1904 14.9614 18.3919 14.9614 19.7782C14.9614 21.2107 16.1629 22.366 17.5492 22.366C18.9818 22.366 20.137 21.1645 20.137 19.7782C20.1832 18.3919 18.9818 17.1904 17.5492 17.1904Z" fill="#4E4D4D"/>
<path d="M35.8025 17.1904C34.3699 17.1904 33.2147 18.3919 33.2147 19.7782C33.2147 21.2107 34.4161 22.366 35.8025 22.366C37.235 22.366 38.3903 21.1645 38.3903 19.7782C38.4365 18.3919 37.2812 17.1904 35.8025 17.1904Z" fill="#4E4D4D"/>
<path d="M32.4754 26.0629H21.0614C20.1834 26.0629 19.4902 26.756 19.4902 27.634C19.4902 31.6081 22.725 34.8429 26.6991 34.8429C30.7194 34.8429 33.9542 31.5619 34.0466 27.634C34.0466 26.756 33.3535 26.0629 32.4754 26.0629ZM26.6529 31.7006C24.8969 31.7006 23.4181 30.6377 22.8174 29.1128H30.4884C29.8876 30.5915 28.4089 31.7006 26.6529 31.7006Z" fill="#4E4D4D"/>
<path d="M84.1225 29.4612C84.1225 25.2073 81.3047 22.9879 76.6854 21.8319L72.7128 20.8147C70.4032 20.2136 69.1098 19.6125 69.1098 17.763C69.1098 16.6995 69.8488 15.1274 72.99 15.1274C76.5468 15.1274 79.226 17.2544 80.5194 18.4103L83.8453 14.1102C82.5057 12.9542 78.9951 10.0875 73.1747 10.0875C66.4768 10.0875 63.2432 14.2026 63.2432 18.0866C63.2432 23.3578 67.2158 25.1611 70.5879 25.9934L74.1448 26.8719C76.7778 27.473 78.2098 28.1665 78.2098 29.9698C78.2098 31.5882 77.1012 33.299 73.7291 33.299C69.5255 33.299 66.5229 30.7096 65.3219 29.5074L61.9498 33.8076C64.5366 36.1195 68.2321 38.2464 73.9138 38.2464C80.6118 38.2927 84.1225 34.27 84.1225 29.4612ZM85.6469 22.4793H88.8342V31.9118C88.8342 35.6109 90.6819 38.3389 95.9017 38.3389C97.7495 38.3389 99.782 37.8765 101.399 36.6281L100.059 32.5129C98.7195 33.3452 97.888 33.6226 96.9642 33.6226C94.8855 33.6226 94.4236 32.6979 94.4236 31.0333V22.4793H99.8281V18.0866H94.4236V10.5961L88.8342 12.4918V18.0404H85.6469V22.4793ZM103.893 18.0866V37.8303H109.483V29.5999C109.483 24.8374 111.607 22.8029 114.702 22.8029C115.303 22.8029 115.811 22.8954 116.18 22.9416L116.642 18.0404C116.273 17.9479 115.534 17.8555 114.795 17.8555C112.254 17.8555 110.36 19.2888 109.205 21.7857V18.0404L103.893 18.0866ZM127.683 38.2927C131.286 38.2927 134.15 37.183 136.228 34.6399L133.133 31.357C131.979 32.7441 130.223 33.8538 128.145 33.8538C125.558 33.8538 123.479 32.6516 123.063 29.3225H136.459C136.505 28.9988 136.598 28.2128 136.598 27.0568C136.598 21.1846 132.81 17.6243 127.544 17.6243C121.77 17.6243 117.566 21.9244 117.566 27.9816C117.474 34.4087 121.585 38.2927 127.683 38.2927ZM127.405 21.7857C129.161 21.7857 130.916 22.7104 131.055 25.7159H123.109C123.71 22.8954 125.419 21.7857 127.405 21.7857ZM151.98 35.1022V37.8303H157.108V25.3923C157.108 21.3695 154.89 17.6243 148.654 17.6243C144.22 17.6243 140.94 20.1211 139.231 21.9244L142.187 25.1148C143.527 23.8664 145.744 22.2018 148.146 22.2018C150.41 22.2018 151.426 23.2653 151.657 24.9299L145.559 26.3633C142.233 27.1493 139.277 28.9063 139.277 32.6054C139.277 35.6571 141.448 38.3389 145.698 38.3389C148.562 38.2927 150.641 37.1367 151.98 35.1022ZM144.866 32.0043C144.866 30.8946 145.698 30.1548 147.361 29.7386L151.703 28.7214V29.1375C151.703 32.143 149.486 33.9463 147.176 33.9463C145.605 33.9925 144.866 33.299 144.866 32.0043ZM179.465 37.8303V27.3805C179.465 24.4675 180.712 22.3405 183.068 22.3405C185.701 22.3405 186.071 24.4213 186.071 26.1783V37.8303H191.66V24.9761C191.66 21.3695 189.489 17.6243 184.916 17.6243C181.867 17.6243 179.881 19.1501 178.68 21.4158C177.71 19.2426 175.723 17.6243 172.675 17.6243C169.949 17.6243 168.102 18.7802 166.9 20.676V18.0866H161.634V37.8303H167.224V27.3805C167.224 24.4675 168.517 22.3405 170.873 22.3405C173.506 22.3405 173.876 24.4213 173.876 26.1783V37.8303H179.465ZM196.279 9.44013V37.8303H201.869V9.44013H196.279ZM209.444 8.70032C207.458 8.70032 206.118 10.1799 206.118 11.9832C206.118 13.7865 207.458 15.2661 209.444 15.2661C211.523 15.2661 212.863 13.7865 212.863 11.9832C212.863 10.1799 211.523 8.70032 209.444 8.70032ZM206.673 18.0866V37.8303H212.262V18.0866H206.673ZM217.066 18.0866V37.8303H222.656V27.3805C222.656 24.4213 224.041 22.3405 226.674 22.3405C229.584 22.3405 229.954 24.4213 229.954 26.1783V37.8303H235.543V24.9761C235.543 21.4158 233.28 17.6243 228.43 17.6243C225.566 17.6243 223.626 18.8265 222.332 20.7685V18.0866H217.066ZM249.078 38.2927C252.681 38.2927 255.545 37.183 257.624 34.6399L254.529 31.357C253.374 32.7441 251.619 33.8538 249.494 33.8538C246.907 33.8538 244.828 32.6516 244.412 29.3225H257.808C257.855 28.9988 257.947 28.2128 257.947 27.0568C257.947 21.1846 254.159 17.6243 248.893 17.6243C243.119 17.6243 238.915 21.9244 238.915 27.9816C238.915 34.4087 242.98 38.2927 249.078 38.2927ZM248.801 21.7857C250.556 21.7857 252.311 22.7104 252.45 25.7159H244.551C245.105 22.8954 246.814 21.7857 248.801 21.7857Z" fill="#4E4D4D"/>
</svg>
