<?xml version="1.0" encoding="UTF-8"?>
<svg width="15px" height="6px" viewBox="0 0 15 6" version="1.1" xmlns="http://www.w3.org/2000/svg" xmlns:xlink="http://www.w3.org/1999/xlink">
    <!-- Generator: Sketch 61.2 (89653) - https://sketch.com -->
    <title>arrow-left</title>
    <desc>Created with Sketch.</desc>
    <g id="Page-1" stroke="none" stroke-width="1" fill="none" fill-rule="evenodd">
        <g id="haunted-arrows" transform="translate(-20.000000, -33.000000)" fill="#505050">
            <path d="M34.8829636,35.6214492 L31.2546293,33.1128337 C30.8430452,32.8851186 30.6182722,33.0078786 30.5633278,33.4286363 L30.5633278,35.2184964 L20.6733197,35.2184964 C20.3014555,35.2184964 20,35.5012756 20,35.8501015 C20,36.1989273 20.3014555,36.4817066 20.6733197,36.4817066 L30.5633278,36.4817066 L30.5633278,38.4280623 C30.5823086,39.0249947 30.8250633,39.112145 31.2546293,38.8844298 L34.8639828,36.0600118 C34.9448933,36.0145645 34.9959436,35.9339318 34.9997691,35.8455402 C35.0035947,35.7571487 34.9596805,35.6728994 34.8829636,35.6214492 L34.8829636,35.6214492 Z" id="arrow-left" transform="translate(27.500000, 36.000000) scale(-1, 1) translate(-27.500000, -36.000000) "></path>
        </g>
    </g>
</svg>