<?xml version="1.0" encoding="UTF-8"?>
<svg width="15px" height="6px" viewBox="0 0 15 6" version="1.1" xmlns="http://www.w3.org/2000/svg" xmlns:xlink="http://www.w3.org/1999/xlink">
    <!-- Generator: Sketch 61.2 (89653) - https://sketch.com -->
    <title>arrow-left-disabled</title>
    <desc>Created with Sketch.</desc>
    <g id="Page-1" stroke="none" stroke-width="1" fill="none" fill-rule="evenodd">
        <g id="haunted-arrows" transform="translate(-20.000000, -20.000000)" fill="#E1E1E1">
            <path d="M34.8829636,22.6214492 L31.2546293,20.1128337 C30.8430452,19.8851186 30.6182722,20.0078786 30.5633278,20.4286363 L30.5633278,22.2184964 L20.6733197,22.2184964 C20.3014555,22.2184964 20,22.5012756 20,22.8501015 C20,23.1989273 20.3014555,23.4817066 20.6733197,23.4817066 L30.5633278,23.4817066 L30.5633278,25.4280623 C30.5823086,26.0249947 30.8250633,26.112145 31.2546293,25.8844298 L34.8639828,23.0600118 C34.9448933,23.0145645 34.9959436,22.9339318 34.9997691,22.8455402 C35.0035947,22.7571487 34.9596805,22.6728994 34.8829636,22.6214492 L34.8829636,22.6214492 Z" id="arrow-left-disabled" transform="translate(27.500000, 23.000000) scale(-1, 1) translate(-27.500000, -23.000000) "></path>
        </g>
    </g>
</svg>