<svg xmlns="http://www.w3.org/2000/svg" version="1.1" xmlns:xlink="http://www.w3.org/1999/xlink" xmlns:svgjs="http://svgjs.com/svgjs" viewBox="0 0 15 15" width="15" height="15"><g transform="matrix(0.625,0,0,0.625,0,0)"><path d="M23.987,12a2.411,2.411,0,0,0-.814-1.8L11.994.361a1.44,1.44,0,0,0-1.9,2.162l8.637,7.6a.25.25,0,0,1-.165.437H1.452a1.44,1.44,0,0,0,0,2.88H18.563a.251.251,0,0,1,.165.438l-8.637,7.6a1.44,1.44,0,1,0,1.9,2.161L23.172,13.8A2.409,2.409,0,0,0,23.987,12Z" fill="#000000" stroke="none" stroke-linecap="round" stroke-linejoin="round" stroke-width="0"></path></g></svg>