<svg xmlns="http://www.w3.org/2000/svg" version="1.1" xmlns:xlink="http://www.w3.org/1999/xlink" xmlns:svgjs="http://svgjs.com/svgjs" viewBox="0 0 15 15" width="15" height="15"><g transform="matrix(0.625,0,0,0.625,0,0)"><path d="M22.548,10.561H5.437a.251.251,0,0,1-.165-.438l8.637-7.6a1.44,1.44,0,0,0-1.9-2.162L.828,10.2a2.4,2.4,0,0,0,0,3.6l11.179,9.837a1.44,1.44,0,0,0,1.9-2.161l-8.637-7.6a.251.251,0,0,1,.165-.438H22.548a1.44,1.44,0,0,0,0-2.879Z" fill="#000000" stroke="none" stroke-linecap="round" stroke-linejoin="round" stroke-width="0"></path></g></svg>