<svg width="20" height="20" viewBox="0 0 20 20" fill="none" xmlns="http://www.w3.org/2000/svg">
<path d="M10 0C8.02219 0 6.08879 0.58649 4.4443 1.6853C2.79981 2.78412 1.51809 4.3459 0.761209 6.17316C0.00433292 8.00043 -0.1937 10.0111 0.192152 11.9509C0.578004 13.8907 1.53041 15.6725 2.92894 17.0711C4.32746 18.4696 6.10929 19.422 8.0491 19.8078C9.98891 20.1937 11.9996 19.9957 13.8268 19.2388C15.6541 18.4819 17.2159 17.2002 18.3147 15.5557C19.4135 13.9112 20 11.9778 20 10C19.997 7.34876 18.9424 4.80698 17.0677 2.93227C15.193 1.05756 12.6512 0.0030248 10 0V0ZM15.1429 8.42857L9.46286 14.1057C9.33018 14.2385 9.17263 14.3439 8.9992 14.4158C8.82578 14.4877 8.63988 14.5247 8.45215 14.5247C8.26441 14.5247 8.07851 14.4877 7.90509 14.4158C7.73166 14.3439 7.57411 14.2385 7.44143 14.1057L4.85715 11.5257C4.58928 11.2571 4.43909 10.8931 4.43963 10.5137C4.44016 10.1343 4.59138 9.77072 4.86 9.50286C5.12863 9.23499 5.49266 9.0848 5.87202 9.08534C6.25138 9.08587 6.61499 9.23709 6.88286 9.50571L8.45429 11.0771L13.1171 6.41C13.3848 6.14137 13.7483 5.99008 14.1275 5.98941C14.5067 5.98874 14.8707 6.13875 15.1393 6.40643C15.4079 6.67411 15.5592 7.03753 15.5599 7.41676C15.5605 7.79598 15.4105 8.15994 15.1429 8.42857Z" fill="#737373"/>
</svg>
