<svg xmlns="http://www.w3.org/2000/svg" width="31.008" height="27.907" viewBox="0 0 31.008 27.907">
  <g id="folder" transform="translate(-2 -3)" fill="none">
    <path d="M33.008,27.806a3.1,3.1,0,0,1-3.1,3.1H5.1a3.1,3.1,0,0,1-3.1-3.1V6.1A3.1,3.1,0,0,1,5.1,3h7.752l3.1,4.651H29.907a3.1,3.1,0,0,1,3.1,3.1Z" stroke="none"/>
    <path d="M 29.90703392028809 28.60703468322754 C 30.34858512878418 28.60703468322754 30.70780372619629 28.24780464172363 30.70780372619629 27.80625343322754 L 30.70780372619629 10.75195407867432 C 30.70780372619629 10.31040382385254 30.34858512878418 9.951173782348633 29.90703392028809 9.951173782348633 L 15.95351409912109 9.951173782348633 L 14.72259426116943 9.951173782348633 L 14.03979396820068 8.926983833312988 L 11.62180805206299 5.300004005432129 L 5.100784301757812 5.300004005432129 C 4.659234523773193 5.300004005432129 4.300004482269287 5.659234046936035 4.300004482269287 6.100784301757812 L 4.300004482269287 27.80625343322754 C 4.300004482269287 28.24780464172363 4.659234523773193 28.60703468322754 5.100784301757812 28.60703468322754 L 29.90703392028809 28.60703468322754 M 29.90703392028809 30.90703392028809 L 5.100784301757812 30.90703392028809 C 3.388264417648315 30.90703392028809 2.000004291534424 29.51876449584961 2.000004291534424 27.80625343322754 L 2.000004291534424 6.100784301757812 C 2.000004291534424 4.388264179229736 3.388264417648315 3.000004053115845 5.100784301757812 3.000004053115845 L 12.85273456573486 3.000004053115845 L 15.95351409912109 7.651174068450928 L 29.90703392028809 7.651174068450928 C 31.61954498291016 7.651174068450928 33.00780487060547 9.039434432983398 33.00780487060547 10.75195407867432 L 33.00780487060547 27.80625343322754 C 33.00780487060547 29.51876449584961 31.61954498291016 30.90703392028809 29.90703392028809 30.90703392028809 Z" stroke="none" fill="#b1b1b1"/>
  </g>
</svg>
