<svg id="Layer_1" data-name="Layer 1" xmlns="http://www.w3.org/2000/svg" viewBox="0 0 106.98 38"><defs><style>.cls-1{fill:#19beeb;}</style></defs><title>cage-logo-blue</title><path class="cls-1" d="M104.27,5a13.05,13.05,0,0,0-9.61-4A13.39,13.39,0,0,0,81.9,10.7V1.85L73.79,3.5A9,9,0,0,0,67.25,1,12.56,12.56,0,0,0,54.9,10.68V1.85L46.79,3.78A8.94,8.94,0,0,0,39.85,1a12.56,12.56,0,0,0-12.26,9.53A13.5,13.5,0,0,0,14.43,1,13.31,13.31,0,0,0,1,14.5,13.44,13.44,0,0,0,14.61,28.08a13.61,13.61,0,0,0,13-9.42c1.42,5.16,5.56,9.47,12.23,9.47,2.34,0,5.24-.74,6.95-2.74v2.73H54.9V18.51a12.57,12.57,0,0,0,12.34,9.57,8.24,8.24,0,0,0,6.5-2.78v.37a5.36,5.36,0,0,1-5.65,5.65A5.55,5.55,0,0,1,66.26,31a3.68,3.68,0,0,1-2.16-1.95L64,28.88H55l.06.41c.46,3.34,3.5,9.71,12.53,9.71a15.13,15.13,0,0,0,12.83-6.73c1.27-2.21,1.52-4.73,1.52-8.33V18.48a13.47,13.47,0,0,0,12.89,9.6A12.34,12.34,0,0,0,102,25.79a15,15,0,0,0,5.16-6.48l.22-.5H99.1L99,19a4.65,4.65,0,0,1-4.2,2.16c-2.66,0-4.81-1.51-5.28-3.65H107.8l0-.31C108.46,12.25,107.3,8.28,104.27,5ZM19.83,17.17l-.1.19a5.31,5.31,0,0,1-5,3.11c-3.25,0-5.52-2.44-5.52-5.92a6.46,6.46,0,0,1,1.51-4.3,4.93,4.93,0,0,1,3.7-1.63h.31a5.17,5.17,0,0,1,5,3.27l.1.2h7.44a15.52,15.52,0,0,0,0,5.07Zm27-2.25a6.47,6.47,0,0,1-1,3A5.35,5.35,0,0,1,41,20.51c-4.37,0-5.79-3.93-5.79-5.83v0c0-2.42,1.53-6,5.74-6a5.53,5.53,0,0,1,5.29,3.23A6,6,0,0,1,46.79,14.91Zm25.36,4a5.53,5.53,0,0,1-4.07,1.59,5.65,5.65,0,0,1-5.57-6v0a5.64,5.64,0,0,1,5.61-5.79,5.17,5.17,0,0,1,4.19,1.79,6.58,6.58,0,0,1,1.47,4.38A6.18,6.18,0,0,1,72.16,18.88Zm17.48-7.72a5.59,5.59,0,0,1,10.11,0Z" transform="translate(-1.02 -1)"/></svg>