<svg xmlns="http://www.w3.org/2000/svg" width="1440" height="812" viewBox="0 0 1440 812"><rect width="1440" height="812" fill="#fff"/><g transform="translate(-15.191 -1)"><g transform="translate(150.191 267)"><rect width="369.809" height="445.809" fill="#f2f7fb"/><g transform="translate(155.5 193.526)"><path d="M0,0H59.023V59.023H0Z" fill="none"/><path d="M47.267,42.349V7.919A4.933,4.933,0,0,0,42.349,3H7.919A4.933,4.933,0,0,0,3,7.919v34.43a4.933,4.933,0,0,0,4.919,4.919h34.43a4.933,4.933,0,0,0,4.918-4.919ZM16.526,28.823l6.148,7.4,8.608-11.091L42.349,39.889H7.919Z" transform="translate(4.378 4.378)" fill="#dfe2f2"/><ellipse cx="3" cy="3.5" rx="3" ry="3.5" transform="translate(16.5 19.474)" fill="#fff"/></g></g><g transform="translate(550.191 267)"><rect width="369.809" height="445.809" fill="#f2f7fb"/><g transform="translate(155.5 193.526)"><path d="M0,0H59.023V59.023H0Z" fill="none"/><path d="M47.267,42.349V7.919A4.933,4.933,0,0,0,42.349,3H7.919A4.933,4.933,0,0,0,3,7.919v34.43a4.933,4.933,0,0,0,4.919,4.919h34.43a4.933,4.933,0,0,0,4.918-4.919ZM16.526,28.823l6.148,7.4,8.608-11.091L42.349,39.889H7.919Z" transform="translate(4.378 4.378)" fill="#dfe2f2"/><ellipse cx="3" cy="3.5" rx="3" ry="3.5" transform="translate(16.5 19.474)" fill="#fff"/></g></g><g transform="translate(950.191 267)"><rect width="369.809" height="445.809" fill="#f2f7fb"/><g transform="translate(155.5 193.526)"><path d="M0,0H59.023V59.023H0Z" fill="none"/><path d="M47.267,42.349V7.919A4.933,4.933,0,0,0,42.349,3H7.919A4.933,4.933,0,0,0,3,7.919v34.43a4.933,4.933,0,0,0,4.919,4.919h34.43a4.933,4.933,0,0,0,4.918-4.919ZM16.526,28.823l6.148,7.4,8.608-11.091L42.349,39.889H7.919Z" transform="translate(4.378 4.378)" fill="#dfe2f2"/><ellipse cx="3" cy="3.5" rx="3" ry="3.5" transform="translate(16.5 19.474)" fill="#fff"/></g></g><text transform="translate(184.957 637)" fill="rgba(0,0,0,0.87)" font-size="24" font-family="Roboto-Medium, Roboto" font-weight="500"><tspan x="0" y="0">Two Line Long Title for Blog </tspan></text><text transform="translate(251.349 669)" fill="rgba(0,0,0,0.87)" font-size="24" font-family="Roboto-Medium, Roboto" font-weight="500"><tspan x="0" y="0">in web Example</tspan></text><text transform="translate(584.957 637)" fill="rgba(0,0,0,0.87)" font-size="24" font-family="Roboto-Medium, Roboto" font-weight="500"><tspan x="0" y="0">Two Line Long Title for Blog </tspan></text><text transform="translate(651.349 669)" fill="rgba(0,0,0,0.87)" font-size="24" font-family="Roboto-Medium, Roboto" font-weight="500"><tspan x="0" y="0">in web Example</tspan></text><text transform="translate(984.957 637)" fill="rgba(0,0,0,0.87)" font-size="24" font-family="Roboto-Medium, Roboto" font-weight="500"><tspan x="0" y="0">Two Line Long Title for Blog </tspan></text><text transform="translate(1051.349 669)" fill="rgba(0,0,0,0.87)" font-size="24" font-family="Roboto-Medium, Roboto" font-weight="500"><tspan x="0" y="0">in web Example</tspan></text><text transform="translate(256.191 590)" fill="rgba(119,119,119,0.87)" font-size="14" font-family="Roboto-Regular, Roboto"><tspan x="0" y="0" xml:space="preserve">Category      24 Nov 2019</tspan></text><text transform="translate(656.191 590)" fill="rgba(119,119,119,0.87)" font-size="14" font-family="Roboto-Regular, Roboto"><tspan x="0" y="0" xml:space="preserve">Category      24 Nov 2019</tspan></text><text transform="translate(1056.191 590)" fill="rgba(119,119,119,0.87)" font-size="14" font-family="Roboto-Regular, Roboto"><tspan x="0" y="0" xml:space="preserve">Category      24 Nov 2019</tspan></text><text transform="translate(150.191 151)" fill="rgba(0,0,0,0.87)" font-size="48" font-family="Roboto-Medium, Roboto" font-weight="500"><tspan x="0" y="0">Two Line header for Feature </tspan><tspan x="0" y="63">Blog Section</tspan></text></g></svg>