<svg xmlns="http://www.w3.org/2000/svg" width="1440" height="664" viewBox="0 0 1440 664"><rect width="1440" height="664" fill="#fff"/><g transform="translate(0 -37)"><text transform="translate(137 483)" fill="rgba(0,0,0,0.87)" font-size="24" font-family="Roboto-Medium, Roboto" font-weight="500"><tspan x="0" y="0">Blog Title is here</tspan></text><text transform="translate(437 483)" fill="rgba(0,0,0,0.87)" font-size="24" font-family="Roboto-Medium, Roboto" font-weight="500"><tspan x="0" y="0">Blog Title is here</tspan></text><text transform="translate(737 483)" fill="rgba(0,0,0,0.87)" font-size="24" font-family="Roboto-Medium, Roboto" font-weight="500"><tspan x="0" y="0">Blog Title is here</tspan></text><text transform="translate(1037 483)" fill="rgba(0,0,0,0.87)" font-size="24" font-family="Roboto-Medium, Roboto" font-weight="500"><tspan x="0" y="0">Blog Title is here</tspan></text><text transform="translate(137 442)" fill="rgba(119,119,119,0.87)" font-size="14" font-family="Roboto-Regular, Roboto"><tspan x="0" y="0" xml:space="preserve">Category      24 Nov 2019</tspan></text><text transform="translate(437 442)" fill="rgba(119,119,119,0.87)" font-size="14" font-family="Roboto-Regular, Roboto"><tspan x="0" y="0" xml:space="preserve">Category      24 Nov 2019</tspan></text><text transform="translate(737 442)" fill="rgba(119,119,119,0.87)" font-size="14" font-family="Roboto-Regular, Roboto"><tspan x="0" y="0" xml:space="preserve">Category      24 Nov 2019</tspan></text><text transform="translate(1037 442)" fill="rgba(119,119,119,0.87)" font-size="14" font-family="Roboto-Regular, Roboto"><tspan x="0" y="0" xml:space="preserve">Category      24 Nov 2019</tspan></text><g transform="translate(137 139)"><rect width="266.809" height="269.809" fill="#f2f7fb"/><g transform="translate(103.964 105.465)"><path d="M0,0H59.023V59.023H0Z" fill="none"/><path d="M47.267,42.349V7.919A4.933,4.933,0,0,0,42.349,3H7.919A4.933,4.933,0,0,0,3,7.919v34.43a4.933,4.933,0,0,0,4.919,4.919h34.43a4.933,4.933,0,0,0,4.918-4.919ZM16.526,28.823l6.148,7.4,8.608-11.091L42.349,39.889H7.919Z" transform="translate(4.378 4.378)" fill="#dfe2f2"/><ellipse cx="3" cy="3.5" rx="3" ry="3.5" transform="translate(16.036 18.535)" fill="#fff"/></g></g><g transform="translate(437 139)"><rect width="266.809" height="269.809" fill="#f2f7fb"/><g transform="translate(103.964 105.465)"><path d="M0,0H59.023V59.023H0Z" fill="none"/><path d="M47.267,42.349V7.919A4.933,4.933,0,0,0,42.349,3H7.919A4.933,4.933,0,0,0,3,7.919v34.43a4.933,4.933,0,0,0,4.919,4.919h34.43a4.933,4.933,0,0,0,4.918-4.919ZM16.526,28.823l6.148,7.4,8.608-11.091L42.349,39.889H7.919Z" transform="translate(4.378 4.378)" fill="#dfe2f2"/><ellipse cx="3" cy="3.5" rx="3" ry="3.5" transform="translate(16.036 18.535)" fill="#fff"/></g></g><g transform="translate(737 139)"><rect width="266.809" height="269.809" fill="#f2f7fb"/><g transform="translate(103.964 105.465)"><path d="M0,0H59.023V59.023H0Z" fill="none"/><path d="M47.267,42.349V7.919A4.933,4.933,0,0,0,42.349,3H7.919A4.933,4.933,0,0,0,3,7.919v34.43a4.933,4.933,0,0,0,4.919,4.919h34.43a4.933,4.933,0,0,0,4.918-4.919ZM16.526,28.823l6.148,7.4,8.608-11.091L42.349,39.889H7.919Z" transform="translate(4.378 4.378)" fill="#dfe2f2"/><ellipse cx="3" cy="3.5" rx="3" ry="3.5" transform="translate(16.036 18.535)" fill="#fff"/></g></g><g transform="translate(1037 139)"><rect width="266.809" height="269.809" fill="#f2f7fb"/><g transform="translate(103.964 105.465)"><path d="M0,0H59.023V59.023H0Z" fill="none"/><path d="M47.267,42.349V7.919A4.933,4.933,0,0,0,42.349,3H7.919A4.933,4.933,0,0,0,3,7.919v34.43a4.933,4.933,0,0,0,4.919,4.919h34.43a4.933,4.933,0,0,0,4.918-4.919ZM16.526,28.823l6.148,7.4,8.608-11.091L42.349,39.889H7.919Z" transform="translate(4.378 4.378)" fill="#dfe2f2"/><ellipse cx="3" cy="3.5" rx="3" ry="3.5" transform="translate(16.036 18.535)" fill="#fff"/></g></g><text transform="translate(137 525)" fill="rgba(33,33,33,0.87)" font-size="20" font-family="Roboto-Regular, Roboto"><tspan x="0" y="0">Lorem ipsum dolor sit amet, </tspan><tspan x="0" y="26">consectetur adipiscing elit, </tspan><tspan x="0" y="52">sed do eiusmod tempor</tspan></text><text transform="translate(437 525)" fill="rgba(33,33,33,0.87)" font-size="20" font-family="Roboto-Regular, Roboto"><tspan x="0" y="0">Lorem ipsum dolor sit amet, </tspan><tspan x="0" y="26">consectetur adipiscing elit, </tspan><tspan x="0" y="52">sed do eiusmod tempor</tspan></text><text transform="translate(737 525)" fill="rgba(33,33,33,0.87)" font-size="20" font-family="Roboto-Regular, Roboto"><tspan x="0" y="0">Lorem ipsum dolor sit amet, </tspan><tspan x="0" y="26">consectetur adipiscing elit, </tspan><tspan x="0" y="52">sed do eiusmod tempor</tspan></text><text transform="translate(1037 525)" fill="rgba(33,33,33,0.87)" font-size="20" font-family="Roboto-Regular, Roboto"><tspan x="0" y="0">Lorem ipsum dolor sit amet, </tspan><tspan x="0" y="26">consectetur adipiscing elit, </tspan><tspan x="0" y="52">sed do eiusmod tempor</tspan></text></g></svg>