<svg xmlns="http://www.w3.org/2000/svg" width="1440" height="718" viewBox="0 0 1440 718"><rect width="1440" height="718" fill="#fff"/><text transform="translate(435 171)" fill="rgba(0,0,0,0.87)" font-size="24" font-family="Roboto-Medium, Roboto" font-weight="500"><tspan x="0" y="0">Two Line Blog Title </tspan><tspan x="0" y="32">Example is here</tspan></text><text transform="translate(1034 171)" fill="rgba(0,0,0,0.87)" font-size="24" font-family="Roboto-Medium, Roboto" font-weight="500"><tspan x="0" y="0">Two Line Blog Title </tspan><tspan x="0" y="32">Example is here</tspan></text><text transform="translate(435 417)" fill="rgba(0,0,0,0.87)" font-size="24" font-family="Roboto-Medium, Roboto" font-weight="500"><tspan x="0" y="0">Two Line Blog Title </tspan><tspan x="0" y="32">Example is here</tspan></text><text transform="translate(1034 417)" fill="rgba(0,0,0,0.87)" font-size="24" font-family="Roboto-Medium, Roboto" font-weight="500"><tspan x="0" y="0">Two Line Blog Title </tspan><tspan x="0" y="32">Example is here</tspan></text><text transform="translate(435 114)" fill="rgba(119,119,119,0.87)" font-size="14" font-family="Roboto-Regular, Roboto"><tspan x="0" y="0" xml:space="preserve">Category      24 Nov 2019</tspan></text><text transform="translate(1034 114)" fill="rgba(119,119,119,0.87)" font-size="14" font-family="Roboto-Regular, Roboto"><tspan x="0" y="0" xml:space="preserve">Category      24 Nov 2019</tspan></text><text transform="translate(435 360)" fill="rgba(119,119,119,0.87)" font-size="14" font-family="Roboto-Regular, Roboto"><tspan x="0" y="0" xml:space="preserve">Category      24 Nov 2019</tspan></text><text transform="translate(1034 360)" fill="rgba(119,119,119,0.87)" font-size="14" font-family="Roboto-Regular, Roboto"><tspan x="0" y="0" xml:space="preserve">Category      24 Nov 2019</tspan></text><g transform="translate(137 99)"><rect width="266.809" height="179.81" fill="#f2f7fb"/><g transform="translate(103.964 60.435)"><path d="M0,0H59.023V59.023H0Z" fill="none"/><path d="M47.267,42.349V7.919A4.933,4.933,0,0,0,42.349,3H7.919A4.933,4.933,0,0,0,3,7.919v34.43a4.933,4.933,0,0,0,4.919,4.919h34.43a4.933,4.933,0,0,0,4.918-4.919ZM16.526,28.823l6.148,7.4,8.608-11.091L42.349,39.889H7.919Z" transform="translate(4.378 4.378)" fill="#dfe2f2"/><ellipse cx="3" cy="3.5" rx="3" ry="3.5" transform="translate(16.036 18.535)" fill="#fff"/></g></g><g transform="translate(736 99)"><rect width="266.809" height="179.81" fill="#f2f7fb"/><g transform="translate(103.964 60.435)"><path d="M0,0H59.023V59.023H0Z" fill="none"/><path d="M47.267,42.349V7.919A4.933,4.933,0,0,0,42.349,3H7.919A4.933,4.933,0,0,0,3,7.919v34.43a4.933,4.933,0,0,0,4.919,4.919h34.43a4.933,4.933,0,0,0,4.918-4.919ZM16.526,28.823l6.148,7.4,8.608-11.091L42.349,39.889H7.919Z" transform="translate(4.378 4.378)" fill="#dfe2f2"/><ellipse cx="3" cy="3.5" rx="3" ry="3.5" transform="translate(16.036 18.535)" fill="#fff"/></g></g><g transform="translate(137 345)"><rect width="266.809" height="179.81" fill="#f2f7fb"/><g transform="translate(103.964 60.435)"><path d="M0,0H59.023V59.023H0Z" fill="none"/><path d="M47.267,42.349V7.919A4.933,4.933,0,0,0,42.349,3H7.919A4.933,4.933,0,0,0,3,7.919v34.43a4.933,4.933,0,0,0,4.919,4.919h34.43a4.933,4.933,0,0,0,4.918-4.919ZM16.526,28.823l6.148,7.4,8.608-11.091L42.349,39.889H7.919Z" transform="translate(4.378 4.378)" fill="#dfe2f2"/><ellipse cx="3" cy="3.5" rx="3" ry="3.5" transform="translate(16.036 18.535)" fill="#fff"/></g></g><g transform="translate(736 345)"><rect width="266.809" height="179.81" fill="#f2f7fb"/><g transform="translate(103.964 60.435)"><path d="M0,0H59.023V59.023H0Z" fill="none"/><path d="M47.267,42.349V7.919A4.933,4.933,0,0,0,42.349,3H7.919A4.933,4.933,0,0,0,3,7.919v34.43a4.933,4.933,0,0,0,4.919,4.919h34.43a4.933,4.933,0,0,0,4.918-4.919ZM16.526,28.823l6.148,7.4,8.608-11.091L42.349,39.889H7.919Z" transform="translate(4.378 4.378)" fill="#dfe2f2"/><ellipse cx="3" cy="3.5" rx="3" ry="3.5" transform="translate(16.036 18.535)" fill="#fff"/></g></g><text transform="translate(435 246)" fill="rgba(33,33,33,0.87)" font-size="20" font-family="Roboto-Regular, Roboto"><tspan x="0" y="0">Lorem ipsum dolor sit amet, </tspan><tspan x="0" y="26">consectetur adipiscing elit,</tspan></text><text transform="translate(1034 246)" fill="rgba(33,33,33,0.87)" font-size="20" font-family="Roboto-Regular, Roboto"><tspan x="0" y="0">Lorem ipsum dolor sit amet, </tspan><tspan x="0" y="26">consectetur adipiscing elit,</tspan></text><text transform="translate(435 492)" fill="rgba(33,33,33,0.87)" font-size="20" font-family="Roboto-Regular, Roboto"><tspan x="0" y="0">Lorem ipsum dolor sit amet, </tspan><tspan x="0" y="26">consectetur adipiscing elit,</tspan></text><text transform="translate(1034 492)" fill="rgba(33,33,33,0.87)" font-size="20" font-family="Roboto-Regular, Roboto"><tspan x="0" y="0">Lorem ipsum dolor sit amet, </tspan><tspan x="0" y="26">consectetur adipiscing elit,</tspan></text><g transform="translate(657 591)"><text transform="translate(0 21)" fill="#2e4cff" font-size="20" font-family="Roboto-Medium, Roboto" font-weight="500"><tspan x="0" y="0">Read More</tspan></text><g transform="translate(108.505 2.505)"><path d="M0,0H24.936V24.936H0Z" fill="none"/><path d="M16.478,11.117H4V13.2H16.478v3.117l4.146-4.156L16.478,8Z" transform="translate(0.156 0.312)" fill="#2e4cff"/></g></g></svg>