<svg xmlns="http://www.w3.org/2000/svg" width="1440" height="738" viewBox="0 0 1440 738"><rect width="1440" height="738" fill="#fff"/><g transform="translate(0 4)"><g transform="translate(135 96)"><rect width="569.809" height="534.809" fill="#f2f7fb"/><g transform="translate(255.568 238.056)"><path d="M0,0H59.023V59.023H0Z" fill="none"/><path d="M47.267,42.349V7.919A4.933,4.933,0,0,0,42.349,3H7.919A4.933,4.933,0,0,0,3,7.919v34.43a4.933,4.933,0,0,0,4.919,4.919h34.43a4.933,4.933,0,0,0,4.918-4.919ZM16.526,28.823l6.148,7.4,8.608-11.091L42.349,39.889H7.919Z" transform="translate(4.378 4.378)" fill="#dfe2f2"/><ellipse cx="3" cy="3.5" rx="3" ry="3.5" transform="translate(16.432 18.944)" fill="#fff"/></g></g><g transform="translate(728 388)"><rect width="276.809" height="245.809" fill="#f2f7fb"/><g transform="translate(108.968 93.457)"><path d="M0,0H59.023V59.023H0Z" fill="none"/><path d="M47.267,42.349V7.919A4.933,4.933,0,0,0,42.349,3H7.919A4.933,4.933,0,0,0,3,7.919v34.43a4.933,4.933,0,0,0,4.919,4.919h34.43a4.933,4.933,0,0,0,4.918-4.919ZM16.526,28.823l6.148,7.4,8.608-11.091L42.349,39.889H7.919Z" transform="translate(4.378 4.378)" fill="#dfe2f2"/><ellipse cx="3" cy="3.5" rx="3" ry="3.5" transform="translate(17.032 18.543)" fill="#fff"/></g></g><g transform="translate(1035 388)"><rect width="269.809" height="242.809" fill="#f2f7fb"/><g transform="translate(105.465 91.956)"><path d="M0,0H59.023V59.023H0Z" fill="none"/><path d="M47.267,42.349V7.919A4.933,4.933,0,0,0,42.349,3H7.919A4.933,4.933,0,0,0,3,7.919v34.43a4.933,4.933,0,0,0,4.919,4.919h34.43a4.933,4.933,0,0,0,4.918-4.919ZM16.526,28.823l6.148,7.4,8.608-11.091L42.349,39.889H7.919Z" transform="translate(4.378 4.378)" fill="#dfe2f2"/><ellipse cx="3" cy="3.5" rx="3" ry="3.5" transform="translate(16.535 19.044)" fill="#fff"/></g></g><g transform="translate(728 96)"><rect width="576.809" height="267.809" fill="#f2f7fb"/><g transform="translate(259.071 104.465)"><path d="M0,0H59.023V59.023H0Z" fill="none"/><path d="M47.267,42.349V7.919A4.933,4.933,0,0,0,42.349,3H7.919A4.933,4.933,0,0,0,3,7.919v34.43a4.933,4.933,0,0,0,4.919,4.919h34.43a4.933,4.933,0,0,0,4.918-4.919ZM16.526,28.823l6.148,7.4,8.608-11.091L42.349,39.889H7.919Z" transform="translate(4.378 4.378)" fill="#dfe2f2"/><ellipse cx="3" cy="3.5" rx="3" ry="3.5" transform="translate(16.929 19.535)" fill="#fff"/></g></g><text transform="translate(169 558)" fill="rgba(0,0,0,0.87)" font-size="24" font-family="Roboto-Medium, Roboto" font-weight="500"><tspan x="0" y="0">Two Line Long Title for Blog in </tspan><tspan x="0" y="32">web Example</tspan></text><text transform="translate(754 293)" fill="rgba(0,0,0,0.87)" font-size="24" font-family="Roboto-Medium, Roboto" font-weight="500"><tspan x="0" y="0">Two Line Long Title for </tspan><tspan x="0" y="32">Blog in web</tspan></text><text transform="translate(754 559)" fill="rgba(0,0,0,0.87)" font-size="24" font-family="Roboto-Medium, Roboto" font-weight="500"><tspan x="0" y="0">Two Line Long Title </tspan><tspan x="0" y="32">for Blog in web</tspan></text><text transform="translate(1062 559)" fill="rgba(0,0,0,0.87)" font-size="24" font-family="Roboto-Medium, Roboto" font-weight="500"><tspan x="0" y="0">Two Line Long Title </tspan><tspan x="0" y="32">for Blog in web</tspan></text><text transform="translate(169 515)" fill="rgba(119,119,119,0.87)" font-size="14" font-family="Roboto-Regular, Roboto"><tspan x="0" y="0" xml:space="preserve">Category      24 Nov 2019</tspan></text><text transform="translate(754 250)" fill="rgba(119,119,119,0.87)" font-size="14" font-family="Roboto-Regular, Roboto"><tspan x="0" y="0" xml:space="preserve">Category      24 Nov 2019</tspan></text><text transform="translate(754 490)" fill="rgba(119,119,119,0.87)" font-size="14" font-family="Roboto-Regular, Roboto"><tspan x="0" y="0" xml:space="preserve">Category      </tspan><tspan x="0" y="25">24 Nov 2019</tspan></text><text transform="translate(1062 490)" fill="rgba(119,119,119,0.87)" font-size="14" font-family="Roboto-Regular, Roboto"><tspan x="0" y="0" xml:space="preserve">Category      </tspan><tspan x="0" y="25">24 Nov 2019</tspan></text></g></svg>