<svg xmlns="http://www.w3.org/2000/svg" width="16.789" height="16.789" viewBox="0 0 16.789 16.789">
  <g id="Group_68117" data-name="Group 68117" transform="translate(0)">
    <rect id="Canvas" width="16.789" height="16.789" fill="#ff13dc" opacity="0"/>
    <path id="Path_39140" data-name="Path 39140" d="M7.946,14.581a3.165,3.165,0,0,1-2.253.939h-.05a3.32,3.32,0,0,1-2.3-.988,3.222,3.222,0,0,1-.052-4.6l7.964-7.975a2.322,2.322,0,0,1,1.493-.7,1.771,1.771,0,0,1,1.452.533,1.688,1.688,0,0,1,.531,1.463,2.732,2.732,0,0,1-.755,1.428L8.135,10.509c-.364.364-.707.63-1.1.236S6.954,10,7.289,9.664l4.8-4.795a.35.35,0,0,0,.007-.49l-.322-.342a.35.35,0,0,0-.5-.007L6.336,8.983A1.731,1.731,0,0,0,6.3,11.592c1.268,1.268,2.707-.28,2.707-.28l5.806-5.793A3.149,3.149,0,0,0,15.038.945,2.965,2.965,0,0,0,12.862.055a3.463,3.463,0,0,0-2.448,1.061L2.493,9.028a4.494,4.494,0,1,0,6.355,6.356L15.68,8.551a.35.35,0,0,0,0-.495L15.322,7.7a.35.35,0,0,0-.495,0Z" transform="translate(-0.353 -0.016)" fill="#8e8e8e"/>
  </g>
</svg>
