<svg xmlns="http://www.w3.org/2000/svg" width="11.102" height="11.71" viewBox="0 0 11.102 11.71">
  <g id="Smock_OpenInLight_24_N_2x" data-name="Smock_OpenInLight_24_N@2x" transform="translate(0 0)">
    <rect id="Canvas" width="11.102" height="11.71" fill="#ff13dc" opacity="0"/>
    <path id="Path_39105" data-name="Path 39105" d="M4.925,8.269V4.976h7.4v7.807H9.2a.119.119,0,0,0-.116.122v.732a.119.119,0,0,0,.116.122H13.02a.238.238,0,0,0,.231-.244V4.244A.238.238,0,0,0,13.02,4H4.231A.238.238,0,0,0,4,4.244V8.269a.119.119,0,0,0,.116.122h.694A.119.119,0,0,0,4.925,8.269Z" transform="translate(-3.075 -3.024)" fill="#2680eb"/>
    <path id="Path_39106" data-name="Path 39106" d="M5.309,24a.235.235,0,0,0-.2.158.256.256,0,0,0,.052.261l.978,1.031-2.276,2.4a.127.127,0,0,0,0,.172l.818.862a.111.111,0,0,0,.164,0l2.276-2.4.976,1.028a.223.223,0,0,0,.246.055.243.243,0,0,0,.148-.215V24Z" transform="translate(-2.941 -18.145)" fill="#2680eb"/>
  </g>
</svg>
