<svg id="button_gray_-_outline" data-name="button gray - outline" xmlns="http://www.w3.org/2000/svg" width="171" height="56" viewBox="0 0 171 56">
  <g id="Path_14" data-name="Path 14" fill="#fff">
    <path d="M 144 55 L 27 55 C 23.48958778381348 55 20.08469581604004 54.31269454956055 16.87993431091309 52.95719528198242 C 13.78397846221924 51.64773941040039 11.00334739685059 49.77289199829102 8.615217208862305 47.38478088378906 C 6.227108478546143 44.99665069580078 4.352261066436768 42.21602249145508 3.04280424118042 39.12006378173828 C 1.687304377555847 35.91530609130859 1 32.51041412353516 1 29 L 1 27 C 1 23.48958778381348 1.687304377555847 20.08469581604004 3.04280424118042 16.87993431091309 C 4.352261066436768 13.78397846221924 6.227108478546143 11.00334739685059 8.615217208862305 8.615217208862305 C 11.00334739685059 6.227108478546143 13.78397846221924 4.352261066436768 16.87993431091309 3.04280424118042 C 20.08469581604004 1.687304377555847 23.48958778381348 1 27 1 L 144 1 C 147.5104064941406 1 150.9152984619141 1.687304377555847 154.1200714111328 3.04280424118042 C 157.2160186767578 4.352261066436768 159.9966583251953 6.227108478546143 162.3847808837891 8.615217208862305 C 164.7728881835938 11.00334739685059 166.6477355957031 13.78397846221924 167.9571990966797 16.87993431091309 C 169.3126983642578 20.08469581604004 170 23.48958778381348 170 27 L 170 29 C 170 32.51041412353516 169.3126983642578 35.91530609130859 167.9571990966797 39.12006378173828 C 166.6477355957031 42.21602249145508 164.7728881835938 44.99665069580078 162.3847808837891 47.38478088378906 C 159.9966583251953 49.77289199829102 157.2160186767578 51.64773941040039 154.1200714111328 52.95719528198242 C 150.9152984619141 54.31269454956055 147.5104064941406 55 144 55 Z" stroke="none"/>
    <path d="M 27 2 C 23.62413024902344 2 20.35031127929688 2.660728454589844 17.26947021484375 3.963794708251953 C 14.29275512695312 5.222862243652344 11.61892700195312 7.025726318359375 9.322341918945312 9.322341918945312 C 7.025726318359375 11.61893081665039 5.222869873046875 14.29275131225586 3.963790893554688 17.26947784423828 C 2.660720825195312 20.35031890869141 2 23.62413787841797 2 27 L 2 29 C 2 32.37586212158203 2.660720825195312 35.64968109130859 3.963790893554688 38.73052215576172 C 5.222869873046875 41.70724868774414 7.025726318359375 44.38106918334961 9.322341918945312 46.67765808105469 C 11.61892700195312 48.97427368164062 14.29275512695312 50.77713775634766 17.26947021484375 52.03620529174805 C 20.35031127929688 53.33927154541016 23.62413024902344 54 27 54 L 144 54 C 147.3758697509766 54 150.6496887207031 53.33927154541016 153.7305297851562 52.03620529174805 C 156.7072448730469 50.77713775634766 159.3810729980469 48.97427368164062 161.6776580810547 46.67765808105469 C 163.9742736816406 44.38106918334961 165.7771301269531 41.70724868774414 167.0362091064453 38.73052215576172 C 168.3392791748047 35.64968109130859 169 32.37586212158203 169 29 L 169 27 C 169 23.62413787841797 168.3392791748047 20.35031890869141 167.0362091064453 17.26947784423828 C 165.7771301269531 14.29275131225586 163.9742736816406 11.61893081665039 161.6776580810547 9.322341918945312 C 159.3810729980469 7.025726318359375 156.7072448730469 5.222862243652344 153.7305297851562 3.963794708251953 C 150.6496887207031 2.660728454589844 147.3758697509766 2 144 2 L 27 2 M 27 0 L 144 0 C 158.9116821289062 0 171 12.08831787109375 171 27 L 171 29 C 171 43.91168212890625 158.9116821289062 56 144 56 L 27 56 C 12.08831787109375 56 0 43.91168212890625 0 29 L 0 27 C 0 12.08831787109375 12.08831787109375 0 27 0 Z" stroke="none" fill="#666"/>
  </g>
  <text id="Click_Here" data-name="Click Here" transform="translate(40 36)" fill="#393939" font-size="20" font-family="Roboto-Medium, Roboto" font-weight="500"><tspan x="0" y="0">Click Here</tspan></text>
</svg>
