<svg id="image" xmlns="http://www.w3.org/2000/svg" width="367.809" height="370.809" viewBox="0 0 367.809 370.809">
  <rect id="Rectangle_51" data-name="Rectangle 51" width="367.809" height="370.809" fill="#f2f7fb"/>
  <g id="Group_25" data-name="Group 25" transform="translate(154.499 156)">
    <g id="Group_26" data-name="Group 26">
      <g id="image-24px">
        <path id="Path_2" data-name="Path 2" d="M0,0H59.023V59.023H0Z" fill="none"/>
        <path id="Path_3" data-name="Path 3" d="M47.267,42.349V7.919A4.933,4.933,0,0,0,42.349,3H7.919A4.933,4.933,0,0,0,3,7.919v34.43a4.933,4.933,0,0,0,4.919,4.919h34.43A4.933,4.933,0,0,0,47.267,42.349ZM16.526,28.823l6.148,7.4,8.608-11.091L42.349,39.889H7.919Z" transform="translate(4.378 4.378)" fill="#dfe2f2"/>
      </g>
      <ellipse id="Ellipse_8" data-name="Ellipse 8" cx="3" cy="3.5" rx="3" ry="3.5" transform="translate(16.501 19)" fill="#fff"/>
    </g>
  </g>
</svg>
