<svg xmlns="http://www.w3.org/2000/svg" height="18" viewBox="0 0 18 18" width="18">
  <defs>
    <style>
      .a {
        fill: #707070;
      }
    </style>
  </defs>
  <title>S LinkOff 18 N</title>
  <rect id="Canvas" fill="#ff13dc" opacity="0" width="18" height="18" /><polygon class="a" points="5.568 4.761 4.82 5.482 2.156 2.862 2.904 2.142 5.568 4.761" />
  <polygon class="a" points="15.901 15.139 15.153 15.858 12.503 13.191 13.25 12.472 15.901 15.139" />
  <rect class="a" height="2.3145" width="1.157" x="5.5285" y="0.89998" />
  <rect class="a" height="1.157" width="2.3145" x="0.9" y="5.52847" />
  <rect class="a" height="1.157" width="2.3145" x="14.7855" y="11.31448" />
  <rect class="a" height="2.3145" width="1.157" x="11.3145" y="14.78547" />
  <path class="a" d="M9.0265,11.854c-1.122,1.129-2.845,2.864-2.92,2.939a2.05061,2.05061,0,0,1-2.9-2.9l2.929-2.929L5.05,7.877,2.1195,10.806A3.588,3.588,0,1,0,7.194,15.88l2.921-2.937Z" />
  <path class="a" d="M8.9585,6.129c1.122-1.129,2.845-2.864,2.92-2.939a2.05061,2.05061,0,1,1,2.90212,2.89788L14.7785,6.09l-2.929,2.929,1.0855,1.087,2.9305-2.929A3.588,3.588,0,0,0,10.791,2.103L7.87,5.04Z" />
</svg>