<svg xmlns="http://www.w3.org/2000/svg" width="20.572" height="27" viewBox="0 0 20.572 27">
    <defs>
        <style>
            .cls-1{fill:#43a047}.cls-2{fill:#c8e6c9}.cls-3{fill:#2e7d32}.cls-4{fill:#e8f5e9}
        </style>
    </defs>
    <g id="surface1" transform="translate(-8 -3)">
        <path id="Path_46" d="M26.643 30H9.929A1.929 1.929 0 0 1 8 28.071V4.929A1.929 1.929 0 0 1 9.929 3h12.214l6.429 6.429v18.642A1.929 1.929 0 0 1 26.643 30z" class="cls-1" data-name="Path 46"/>
        <path id="Path_47" d="M36.429 9.429H30V3z" class="cls-2" data-name="Path 47" transform="translate(-7.857)"/>
        <path id="Path_48" d="M30 13l6.429 6.429V13z" class="cls-3" data-name="Path 48" transform="translate(-7.857 -3.571)"/>
        <path id="Path_49" d="M25.286 23H15v9h11.571v-9zm-9 1.286h2.571v1.286h-2.571zm0 2.571h2.571v1.286h-2.571zm0 2.571h2.571v1.286h-2.571zm9 1.286h-5.143v-1.285h5.143zm0-2.571h-5.143v-1.286h5.143zm0-2.571h-5.143v-1.286h5.143z" class="cls-4" data-name="Path 49" transform="translate(-2.5 -7.143)"/>
    </g>
</svg>
